<?xml version="1.0" encoding="UTF-8" standalone="no"?>
<!DOCTYPE svg PUBLIC "-//W3C//DTD SVG 1.1//EN"
 "http://www.w3.org/Graphics/SVG/1.1/DTD/svg11.dtd">
<!-- Generated by graphviz version 2.38.0 (20140413.2041)
 -->
<!-- Title: pt Pages: 1 -->
<svg width="374pt" height="260pt"
 viewBox="0.00 0.00 374.00 260.00" xmlns="http://www.w3.org/2000/svg" xmlns:xlink="http://www.w3.org/1999/xlink">
<g id="graph0" class="graph" transform="scale(1 1) rotate(0) translate(4 256)">
<title>pt</title>
<!-- 2647473396272 -->
<g id="node1" class="node"><title>2647473396272</title>
<ellipse fill="none" stroke="black" cx="147" cy="-234" rx="27" ry="18"/>
<text text-anchor="middle" x="147" y="-230.5" font-family="Times New Roman,serif" font-size="15.00">seq</text>
</g>
<!-- 2647473396560 -->
<g id="node2" class="node"><title>2647473396560</title>
<ellipse fill="none" stroke="black" cx="55" cy="-162" rx="27" ry="18"/>
<text text-anchor="middle" x="55" y="-158.5" font-family="Times New Roman,serif" font-size="15.00">A</text>
</g>
<!-- 2647473396272&#45;&#45;2647473396560 -->
<g id="edge1" class="edge"><title>2647473396272&#45;&#45;2647473396560</title>
<path fill="none" stroke="black" d="M129.696,-219.834C113.247,-207.319 88.6494,-188.603 72.2269,-176.107"/>
</g>
<!-- 2647473427264 -->
<g id="node3" class="node"><title>2647473427264</title>
<ellipse fill="none" stroke="black" cx="147" cy="-162" rx="46.6143" ry="18"/>
<text text-anchor="middle" x="147" y="-158.5" font-family="Times New Roman,serif" font-size="15.00">xor loop</text>
</g>
<!-- 2647473396272&#45;&#45;2647473427264 -->
<g id="edge7" class="edge"><title>2647473396272&#45;&#45;2647473427264</title>
<path fill="none" stroke="black" d="M147,-215.697C147,-204.846 147,-190.917 147,-180.104"/>
</g>
<!-- 2647473427456 -->
<g id="node9" class="node"><title>2647473427456</title>
<ellipse fill="none" stroke="black" cx="253" cy="-162" rx="27" ry="18"/>
<text text-anchor="middle" x="253" y="-158.5" font-family="Times New Roman,serif" font-size="15.00">xor</text>
</g>
<!-- 2647473396272&#45;&#45;2647473427456 -->
<g id="edge11" class="edge"><title>2647473396272&#45;&#45;2647473427456</title>
<path fill="none" stroke="black" d="M165.464,-220.807C184.801,-208.037 215.001,-188.093 234.392,-175.288"/>
</g>
<!-- 2647473427552 -->
<g id="node4" class="node"><title>2647473427552</title>
<ellipse fill="none" stroke="black" cx="99" cy="-90" rx="27" ry="18"/>
<text text-anchor="middle" x="99" y="-86.5" font-family="Times New Roman,serif" font-size="15.00">xor</text>
</g>
<!-- 2647473427264&#45;&#45;2647473427552 -->
<g id="edge5" class="edge"><title>2647473427264&#45;&#45;2647473427552</title>
<path fill="none" stroke="black" d="M135.625,-144.411C127.862,-133.091 117.636,-118.178 109.963,-106.988"/>
</g>
<!-- 2647473427600 -->
<g id="node8" class="node"><title>2647473427600</title>
<ellipse fill="black" stroke="black" cx="147" cy="-90" rx="2.7" ry="2.7"/>
</g>
<!-- 2647473427264&#45;&#45;2647473427600 -->
<g id="edge6" class="edge"><title>2647473427264&#45;&#45;2647473427600</title>
<path fill="none" stroke="black" d="M147,-143.697C147,-125.883 147,-99.7686 147,-92.7764"/>
</g>
<!-- 2647473427840 -->
<g id="node5" class="node"><title>2647473427840</title>
<ellipse fill="none" stroke="black" cx="27" cy="-18" rx="27" ry="18"/>
<text text-anchor="middle" x="27" y="-14.5" font-family="Times New Roman,serif" font-size="15.00">C</text>
</g>
<!-- 2647473427552&#45;&#45;2647473427840 -->
<g id="edge2" class="edge"><title>2647473427552&#45;&#45;2647473427840</title>
<path fill="none" stroke="black" d="M84.4297,-74.8345C72.0202,-62.7697 54.2694,-45.5119 41.7957,-33.3847"/>
</g>
<!-- 2647473427984 -->
<g id="node6" class="node"><title>2647473427984</title>
<ellipse fill="none" stroke="black" cx="99" cy="-18" rx="27" ry="18"/>
<text text-anchor="middle" x="99" y="-14.5" font-family="Times New Roman,serif" font-size="15.00">B</text>
</g>
<!-- 2647473427552&#45;&#45;2647473427984 -->
<g id="edge3" class="edge"><title>2647473427552&#45;&#45;2647473427984</title>
<path fill="none" stroke="black" d="M99,-71.6966C99,-60.8463 99,-46.9167 99,-36.1043"/>
</g>
<!-- 2647473428128 -->
<g id="node7" class="node"><title>2647473428128</title>
<ellipse fill="none" stroke="black" cx="171" cy="-18" rx="27" ry="18"/>
<text text-anchor="middle" x="171" y="-14.5" font-family="Times New Roman,serif" font-size="15.00">D</text>
</g>
<!-- 2647473427552&#45;&#45;2647473428128 -->
<g id="edge4" class="edge"><title>2647473427552&#45;&#45;2647473428128</title>
<path fill="none" stroke="black" d="M113.57,-74.8345C125.98,-62.7697 143.731,-45.5119 156.204,-33.3847"/>
</g>
<!-- 2647473428464 -->
<g id="node10" class="node"><title>2647473428464</title>
<ellipse fill="none" stroke="black" cx="195" cy="-90" rx="27" ry="18"/>
<text text-anchor="middle" x="195" y="-86.5" font-family="Times New Roman,serif" font-size="15.00">E</text>
</g>
<!-- 2647473427456&#45;&#45;2647473428464 -->
<g id="edge8" class="edge"><title>2647473427456&#45;&#45;2647473428464</title>
<path fill="none" stroke="black" d="M240.415,-145.811C230.686,-134.07 217.283,-117.893 207.561,-106.159"/>
</g>
<!-- 2647473428608 -->
<g id="node11" class="node"><title>2647473428608</title>
<ellipse fill="none" stroke="black" cx="267" cy="-90" rx="27" ry="18"/>
<text text-anchor="middle" x="267" y="-86.5" font-family="Times New Roman,serif" font-size="15.00">F</text>
</g>
<!-- 2647473427456&#45;&#45;2647473428608 -->
<g id="edge9" class="edge"><title>2647473427456&#45;&#45;2647473428608</title>
<path fill="none" stroke="black" d="M256.389,-144.055C258.558,-133.211 261.363,-119.183 263.545,-108.275"/>
</g>
<!-- 2647473428752 -->
<g id="node12" class="node"><title>2647473428752</title>
<ellipse fill="none" stroke="black" cx="339" cy="-90" rx="27" ry="18"/>
<text text-anchor="middle" x="339" y="-86.5" font-family="Times New Roman,serif" font-size="15.00">G</text>
</g>
<!-- 2647473427456&#45;&#45;2647473428752 -->
<g id="edge10" class="edge"><title>2647473427456&#45;&#45;2647473428752</title>
<path fill="none" stroke="black" d="M269.582,-147.503C284.81,-135.108 307.257,-116.838 322.469,-104.455"/>
</g>
</g>
</svg>
