<?xml version="1.0" encoding="UTF-8" standalone="no"?>
<!DOCTYPE svg PUBLIC "-//W3C//DTD SVG 1.1//EN"
 "http://www.w3.org/Graphics/SVG/1.1/DTD/svg11.dtd">
<!-- Generated by graphviz version 2.38.0 (20140413.2041)
 -->
<!-- Title: pt Pages: 1 -->
<svg width="410pt" height="332pt"
 viewBox="0.00 0.00 410.00 332.00" xmlns="http://www.w3.org/2000/svg" xmlns:xlink="http://www.w3.org/1999/xlink">
<g id="graph0" class="graph" transform="scale(1 1) rotate(0) translate(4 328)">
<title>pt</title>
<!-- 2647415458256 -->
<g id="node1" class="node"><title>2647415458256</title>
<ellipse fill="none" stroke="black" cx="171" cy="-306" rx="27" ry="18"/>
<text text-anchor="middle" x="171" y="-302.5" font-family="Times New Roman,serif" font-size="15.00">seq</text>
</g>
<!-- 2647473395504 -->
<g id="node2" class="node"><title>2647473395504</title>
<ellipse fill="none" stroke="black" cx="63" cy="-234" rx="27" ry="18"/>
<text text-anchor="middle" x="63" y="-230.5" font-family="Times New Roman,serif" font-size="15.00">A</text>
</g>
<!-- 2647415458256&#45;&#45;2647473395504 -->
<g id="edge1" class="edge"><title>2647415458256&#45;&#45;2647473395504</title>
<path fill="none" stroke="black" d="M152.188,-292.807C132.365,-279.959 101.338,-259.848 81.5966,-247.053"/>
</g>
<!-- 2647473395840 -->
<g id="node3" class="node"><title>2647473395840</title>
<ellipse fill="none" stroke="black" cx="135" cy="-234" rx="27" ry="18"/>
<text text-anchor="middle" x="135" y="-230.5" font-family="Times New Roman,serif" font-size="15.00">and</text>
</g>
<!-- 2647415458256&#45;&#45;2647473395840 -->
<g id="edge6" class="edge"><title>2647415458256&#45;&#45;2647473395840</title>
<path fill="none" stroke="black" d="M162.65,-288.765C156.835,-277.456 149.11,-262.437 143.304,-251.147"/>
</g>
<!-- 2647473395408 -->
<g id="node8" class="node"><title>2647473395408</title>
<ellipse fill="none" stroke="black" cx="207" cy="-234" rx="27" ry="18"/>
<text text-anchor="middle" x="207" y="-230.5" font-family="Times New Roman,serif" font-size="15.00">and</text>
</g>
<!-- 2647415458256&#45;&#45;2647473395408 -->
<g id="edge16" class="edge"><title>2647415458256&#45;&#45;2647473395408</title>
<path fill="none" stroke="black" d="M179.35,-288.765C185.165,-277.456 192.89,-262.437 198.696,-251.147"/>
</g>
<!-- 2647473200816 -->
<g id="node18" class="node"><title>2647473200816</title>
<ellipse fill="none" stroke="black" cx="279" cy="-234" rx="27" ry="18"/>
<text text-anchor="middle" x="279" y="-230.5" font-family="Times New Roman,serif" font-size="15.00">I</text>
</g>
<!-- 2647415458256&#45;&#45;2647473200816 -->
<g id="edge17" class="edge"><title>2647415458256&#45;&#45;2647473200816</title>
<path fill="none" stroke="black" d="M189.812,-292.807C209.635,-279.959 240.662,-259.848 260.403,-247.053"/>
</g>
<!-- 2647473396320 -->
<g id="node4" class="node"><title>2647473396320</title>
<ellipse fill="none" stroke="black" cx="63" cy="-162" rx="27" ry="18"/>
<text text-anchor="middle" x="63" y="-158.5" font-family="Times New Roman,serif" font-size="15.00">xor</text>
</g>
<!-- 2647473395840&#45;&#45;2647473396320 -->
<g id="edge4" class="edge"><title>2647473395840&#45;&#45;2647473396320</title>
<path fill="none" stroke="black" d="M120.43,-218.834C108.02,-206.77 90.2694,-189.512 77.7957,-177.385"/>
</g>
<!-- 2647473199904 -->
<g id="node7" class="node"><title>2647473199904</title>
<ellipse fill="none" stroke="black" cx="135" cy="-162" rx="27" ry="18"/>
<text text-anchor="middle" x="135" y="-158.5" font-family="Times New Roman,serif" font-size="15.00">D</text>
</g>
<!-- 2647473395840&#45;&#45;2647473199904 -->
<g id="edge5" class="edge"><title>2647473395840&#45;&#45;2647473199904</title>
<path fill="none" stroke="black" d="M135,-215.697C135,-204.846 135,-190.917 135,-180.104"/>
</g>
<!-- 2647473200528 -->
<g id="node5" class="node"><title>2647473200528</title>
<ellipse fill="none" stroke="black" cx="27" cy="-90" rx="27" ry="18"/>
<text text-anchor="middle" x="27" y="-86.5" font-family="Times New Roman,serif" font-size="15.00">C</text>
</g>
<!-- 2647473396320&#45;&#45;2647473200528 -->
<g id="edge2" class="edge"><title>2647473396320&#45;&#45;2647473200528</title>
<path fill="none" stroke="black" d="M54.6504,-144.765C48.8345,-133.456 41.1103,-118.437 35.3043,-107.147"/>
</g>
<!-- 2647473200672 -->
<g id="node6" class="node"><title>2647473200672</title>
<ellipse fill="none" stroke="black" cx="99" cy="-90" rx="27" ry="18"/>
<text text-anchor="middle" x="99" y="-86.5" font-family="Times New Roman,serif" font-size="15.00">B</text>
</g>
<!-- 2647473396320&#45;&#45;2647473200672 -->
<g id="edge3" class="edge"><title>2647473396320&#45;&#45;2647473200672</title>
<path fill="none" stroke="black" d="M71.3496,-144.765C77.1655,-133.456 84.8897,-118.437 90.6957,-107.147"/>
</g>
<!-- 2647473200912 -->
<g id="node9" class="node"><title>2647473200912</title>
<ellipse fill="none" stroke="black" cx="207" cy="-162" rx="27" ry="18"/>
<text text-anchor="middle" x="207" y="-158.5" font-family="Times New Roman,serif" font-size="15.00">E</text>
</g>
<!-- 2647473395408&#45;&#45;2647473200912 -->
<g id="edge7" class="edge"><title>2647473395408&#45;&#45;2647473200912</title>
<path fill="none" stroke="black" d="M207,-215.697C207,-204.846 207,-190.917 207,-180.104"/>
</g>
<!-- 2647473431504 -->
<g id="node10" class="node"><title>2647473431504</title>
<ellipse fill="none" stroke="black" cx="279" cy="-162" rx="27" ry="18"/>
<text text-anchor="middle" x="279" y="-158.5" font-family="Times New Roman,serif" font-size="15.00">seq</text>
</g>
<!-- 2647473395408&#45;&#45;2647473431504 -->
<g id="edge15" class="edge"><title>2647473395408&#45;&#45;2647473431504</title>
<path fill="none" stroke="black" d="M221.57,-218.834C233.98,-206.77 251.731,-189.512 264.204,-177.385"/>
</g>
<!-- 2647473430832 -->
<g id="node11" class="node"><title>2647473430832</title>
<ellipse fill="none" stroke="black" cx="207" cy="-90" rx="27" ry="18"/>
<text text-anchor="middle" x="207" y="-86.5" font-family="Times New Roman,serif" font-size="15.00">xor</text>
</g>
<!-- 2647473431504&#45;&#45;2647473430832 -->
<g id="edge10" class="edge"><title>2647473431504&#45;&#45;2647473430832</title>
<path fill="none" stroke="black" d="M264.43,-146.834C252.02,-134.77 234.269,-117.512 221.796,-105.385"/>
</g>
<!-- 2647473430976 -->
<g id="node14" class="node"><title>2647473430976</title>
<ellipse fill="none" stroke="black" cx="279" cy="-90" rx="27" ry="18"/>
<text text-anchor="middle" x="279" y="-86.5" font-family="Times New Roman,serif" font-size="15.00">F</text>
</g>
<!-- 2647473431504&#45;&#45;2647473430976 -->
<g id="edge11" class="edge"><title>2647473431504&#45;&#45;2647473430976</title>
<path fill="none" stroke="black" d="M279,-143.697C279,-132.846 279,-118.917 279,-108.104"/>
</g>
<!-- 2647473432992 -->
<g id="node15" class="node"><title>2647473432992</title>
<ellipse fill="none" stroke="black" cx="351" cy="-90" rx="27" ry="18"/>
<text text-anchor="middle" x="351" y="-86.5" font-family="Times New Roman,serif" font-size="15.00">xor</text>
</g>
<!-- 2647473431504&#45;&#45;2647473432992 -->
<g id="edge14" class="edge"><title>2647473431504&#45;&#45;2647473432992</title>
<path fill="none" stroke="black" d="M293.57,-146.834C305.98,-134.77 323.731,-117.512 336.204,-105.385"/>
</g>
<!-- 2647473431072 -->
<g id="node12" class="node"><title>2647473431072</title>
<ellipse fill="black" stroke="black" cx="183" cy="-18" rx="2.7" ry="2.7"/>
</g>
<!-- 2647473430832&#45;&#45;2647473431072 -->
<g id="edge8" class="edge"><title>2647473430832&#45;&#45;2647473431072</title>
<path fill="none" stroke="black" d="M201.19,-72.055C195.086,-54.2515 186.04,-27.8653 183.616,-20.7963"/>
</g>
<!-- 2647473431216 -->
<g id="node13" class="node"><title>2647473431216</title>
<ellipse fill="none" stroke="black" cx="231" cy="-18" rx="27" ry="18"/>
<text text-anchor="middle" x="231" y="-14.5" font-family="Times New Roman,serif" font-size="15.00">H</text>
</g>
<!-- 2647473430832&#45;&#45;2647473431216 -->
<g id="edge9" class="edge"><title>2647473430832&#45;&#45;2647473431216</title>
<path fill="none" stroke="black" d="M212.81,-72.055C216.583,-61.0492 221.481,-46.7636 225.244,-35.789"/>
</g>
<!-- 2647416276304 -->
<g id="node16" class="node"><title>2647416276304</title>
<ellipse fill="black" stroke="black" cx="327" cy="-18" rx="2.7" ry="2.7"/>
</g>
<!-- 2647473432992&#45;&#45;2647416276304 -->
<g id="edge12" class="edge"><title>2647473432992&#45;&#45;2647416276304</title>
<path fill="none" stroke="black" d="M345.19,-72.055C339.086,-54.2515 330.04,-27.8653 327.616,-20.7963"/>
</g>
<!-- 2647416278992 -->
<g id="node17" class="node"><title>2647416278992</title>
<ellipse fill="none" stroke="black" cx="375" cy="-18" rx="27" ry="18"/>
<text text-anchor="middle" x="375" y="-14.5" font-family="Times New Roman,serif" font-size="15.00">G</text>
</g>
<!-- 2647473432992&#45;&#45;2647416278992 -->
<g id="edge13" class="edge"><title>2647473432992&#45;&#45;2647416278992</title>
<path fill="none" stroke="black" d="M356.81,-72.055C360.583,-61.0492 365.481,-46.7636 369.244,-35.789"/>
</g>
</g>
</svg>
