<?xml version="1.0" encoding="UTF-8" standalone="no"?>
<!DOCTYPE svg PUBLIC "-//W3C//DTD SVG 1.1//EN"
 "http://www.w3.org/Graphics/SVG/1.1/DTD/svg11.dtd">
<!-- Generated by graphviz version 2.38.0 (20140413.2041)
 -->
<!-- Title: pt Pages: 1 -->
<svg width="1043pt" height="188pt"
 viewBox="0.00 0.00 1043.03 188.00" xmlns="http://www.w3.org/2000/svg" xmlns:xlink="http://www.w3.org/1999/xlink">
<g id="graph0" class="graph" transform="scale(1 1) rotate(0) translate(4 184)">
<title>pt</title>
<!-- 2503143396880 -->
<g id="node1" class="node"><title>2503143396880</title>
<ellipse fill="none" stroke="black" cx="369.35" cy="-162" rx="27" ry="18"/>
<text text-anchor="middle" x="369.35" y="-158.5" font-family="Times New Roman,serif" font-size="15.00">seq</text>
</g>
<!-- 2503143397504 -->
<g id="node2" class="node"><title>2503143397504</title>
<ellipse fill="none" stroke="black" cx="118.35" cy="-90" rx="75.9851" ry="18"/>
<text text-anchor="middle" x="118.35" y="-86.5" font-family="Times New Roman,serif" font-size="15.00">O_Create Offer</text>
</g>
<!-- 2503143396880&#45;&#45;2503143397504 -->
<g id="edge1" class="edge"><title>2503143396880&#45;&#45;2503143397504</title>
<path fill="none" stroke="black" d="M344.827,-154.161C303.379,-142.602 218.796,-119.013 165.543,-104.161"/>
</g>
<!-- 2503143395776 -->
<g id="node3" class="node"><title>2503143395776</title>
<ellipse fill="none" stroke="black" cx="268.35" cy="-90" rx="56.0717" ry="18"/>
<text text-anchor="middle" x="268.35" y="-86.5" font-family="Times New Roman,serif" font-size="15.00">O_Created</text>
</g>
<!-- 2503143396880&#45;&#45;2503143395776 -->
<g id="edge2" class="edge"><title>2503143396880&#45;&#45;2503143395776</title>
<path fill="none" stroke="black" d="M351.294,-148.485C334.385,-136.767 309.061,-119.215 290.846,-106.591"/>
</g>
<!-- 2503143399184 -->
<g id="node4" class="node"><title>2503143399184</title>
<ellipse fill="none" stroke="black" cx="369.35" cy="-90" rx="27" ry="18"/>
<text text-anchor="middle" x="369.35" y="-86.5" font-family="Times New Roman,serif" font-size="15.00">xor</text>
</g>
<!-- 2503143396880&#45;&#45;2503143399184 -->
<g id="edge5" class="edge"><title>2503143396880&#45;&#45;2503143399184</title>
<path fill="none" stroke="black" d="M369.35,-143.697C369.35,-132.846 369.35,-118.917 369.35,-108.104"/>
</g>
<!-- 2503143397456 -->
<g id="node7" class="node"><title>2503143397456</title>
<ellipse fill="none" stroke="black" cx="464.35" cy="-90" rx="27" ry="18"/>
<text text-anchor="middle" x="464.35" y="-86.5" font-family="Times New Roman,serif" font-size="15.00">xor</text>
</g>
<!-- 2503143396880&#45;&#45;2503143397456 -->
<g id="edge8" class="edge"><title>2503143396880&#45;&#45;2503143397456</title>
<path fill="none" stroke="black" d="M386.775,-148.161C403.809,-135.61 429.609,-116.599 446.715,-103.995"/>
</g>
<!-- 2503143398128 -->
<g id="node10" class="node"><title>2503143398128</title>
<ellipse fill="none" stroke="black" cx="765.35" cy="-90" rx="27" ry="18"/>
<text text-anchor="middle" x="765.35" y="-86.5" font-family="Times New Roman,serif" font-size="15.00">xor</text>
</g>
<!-- 2503143396880&#45;&#45;2503143398128 -->
<g id="edge12" class="edge"><title>2503143396880&#45;&#45;2503143398128</title>
<path fill="none" stroke="black" d="M395.333,-156.407C467.172,-143.708 667.886,-108.229 739.53,-95.5642"/>
</g>
<!-- 2503143398080 -->
<g id="node5" class="node"><title>2503143398080</title>
<ellipse fill="none" stroke="black" cx="115.35" cy="-18" rx="115.201" ry="18"/>
<text text-anchor="middle" x="115.35" y="-14.5" font-family="Times New Roman,serif" font-size="15.00">O_Sent (mail and online)</text>
</g>
<!-- 2503143399184&#45;&#45;2503143398080 -->
<g id="edge3" class="edge"><title>2503143399184&#45;&#45;2503143398080</title>
<path fill="none" stroke="black" d="M344.533,-82.1607C304.213,-71.0488 223.555,-48.8201 169.5,-33.9232"/>
</g>
<!-- 2503143398176 -->
<g id="node6" class="node"><title>2503143398176</title>
<ellipse fill="none" stroke="black" cx="346.35" cy="-18" rx="97.0675" ry="18"/>
<text text-anchor="middle" x="346.35" y="-14.5" font-family="Times New Roman,serif" font-size="15.00">O_Sent (online only)</text>
</g>
<!-- 2503143399184&#45;&#45;2503143398176 -->
<g id="edge4" class="edge"><title>2503143399184&#45;&#45;2503143398176</title>
<path fill="none" stroke="black" d="M363.783,-72.055C360.22,-61.2111 355.611,-47.183 352.027,-36.2753"/>
</g>
<!-- 2503143398992 -->
<g id="node8" class="node"><title>2503143398992</title>
<ellipse fill="black" stroke="black" cx="464.35" cy="-18" rx="2.7" ry="2.7"/>
</g>
<!-- 2503143397456&#45;&#45;2503143398992 -->
<g id="edge6" class="edge"><title>2503143397456&#45;&#45;2503143398992</title>
<path fill="none" stroke="black" d="M464.35,-71.6966C464.35,-53.8826 464.35,-27.7686 464.35,-20.7764"/>
</g>
<!-- 2503143397792 -->
<g id="node9" class="node"><title>2503143397792</title>
<ellipse fill="none" stroke="black" cx="546.35" cy="-18" rx="61.2997" ry="18"/>
<text text-anchor="middle" x="546.35" y="-14.5" font-family="Times New Roman,serif" font-size="15.00">O_Returned</text>
</g>
<!-- 2503143397456&#45;&#45;2503143397792 -->
<g id="edge7" class="edge"><title>2503143397456&#45;&#45;2503143397792</title>
<path fill="none" stroke="black" d="M480.551,-75.1703C493.993,-63.6952 513.132,-47.3569 527.306,-35.2574"/>
</g>
<!-- 2503143398704 -->
<g id="node11" class="node"><title>2503143398704</title>
<ellipse fill="none" stroke="black" cx="691.35" cy="-18" rx="66.0276" ry="18"/>
<text text-anchor="middle" x="691.35" y="-14.5" font-family="Times New Roman,serif" font-size="15.00">O_Cancelled</text>
</g>
<!-- 2503143398128&#45;&#45;2503143398704 -->
<g id="edge9" class="edge"><title>2503143398128&#45;&#45;2503143398704</title>
<path fill="none" stroke="black" d="M750.375,-74.8345C738.381,-63.4888 721.533,-47.5507 708.905,-35.6057"/>
</g>
<!-- 2503143399328 -->
<g id="node12" class="node"><title>2503143399328</title>
<ellipse fill="none" stroke="black" cx="838.35" cy="-18" rx="63.4694" ry="18"/>
<text text-anchor="middle" x="838.35" y="-14.5" font-family="Times New Roman,serif" font-size="15.00">O_Accepted</text>
</g>
<!-- 2503143398128&#45;&#45;2503143399328 -->
<g id="edge10" class="edge"><title>2503143398128&#45;&#45;2503143399328</title>
<path fill="none" stroke="black" d="M780.123,-74.8345C792.038,-63.4089 808.811,-47.3259 821.296,-35.3539"/>
</g>
<!-- 2502775517344 -->
<g id="node13" class="node"><title>2502775517344</title>
<ellipse fill="none" stroke="black" cx="977.35" cy="-18" rx="57.851" ry="18"/>
<text text-anchor="middle" x="977.35" y="-14.5" font-family="Times New Roman,serif" font-size="15.00">O_Refused</text>
</g>
<!-- 2503143398128&#45;&#45;2502775517344 -->
<g id="edge11" class="edge"><title>2503143398128&#45;&#45;2502775517344</title>
<path fill="none" stroke="black" d="M789.257,-81.1062C825.75,-69.0566 895.692,-45.9628 939.24,-31.5837"/>
</g>
</g>
</svg>
