<?xml version="1.0" encoding="UTF-8" standalone="no"?>
<!DOCTYPE svg PUBLIC "-//W3C//DTD SVG 1.1//EN"
 "http://www.w3.org/Graphics/SVG/1.1/DTD/svg11.dtd">
<!-- Generated by graphviz version 2.38.0 (20140413.2041)
 -->
<!-- Title: pt Pages: 1 -->
<svg width="350pt" height="188pt"
 viewBox="0.00 0.00 350.00 188.00" xmlns="http://www.w3.org/2000/svg" xmlns:xlink="http://www.w3.org/1999/xlink">
<g id="graph0" class="graph" transform="scale(1 1) rotate(0) translate(4 184)">
<title>pt</title>
<!-- 2464117928768 -->
<g id="node1" class="node"><title>2464117928768</title>
<ellipse fill="none" stroke="black" cx="207" cy="-162" rx="27" ry="18"/>
<text text-anchor="middle" x="207" y="-158.5" font-family="Times New Roman,serif" font-size="15.00">seq</text>
</g>
<!-- 2464127424304 -->
<g id="node2" class="node"><title>2464127424304</title>
<ellipse fill="none" stroke="black" cx="99" cy="-90" rx="27" ry="18"/>
<text text-anchor="middle" x="99" y="-86.5" font-family="Times New Roman,serif" font-size="15.00">xor</text>
</g>
<!-- 2464117928768&#45;&#45;2464127424304 -->
<g id="edge3" class="edge"><title>2464117928768&#45;&#45;2464127424304</title>
<path fill="none" stroke="black" d="M188.188,-148.807C168.365,-135.959 137.338,-115.848 117.597,-103.053"/>
</g>
<!-- 2464127425936 -->
<g id="node5" class="node"><title>2464127425936</title>
<ellipse fill="none" stroke="black" cx="171" cy="-90" rx="27" ry="18"/>
<text text-anchor="middle" x="171" y="-86.5" font-family="Times New Roman,serif" font-size="15.00">G</text>
</g>
<!-- 2464117928768&#45;&#45;2464127425936 -->
<g id="edge4" class="edge"><title>2464117928768&#45;&#45;2464127425936</title>
<path fill="none" stroke="black" d="M198.65,-144.765C192.835,-133.456 185.11,-118.437 179.304,-107.147"/>
</g>
<!-- 2464127425696 -->
<g id="node6" class="node"><title>2464127425696</title>
<ellipse fill="none" stroke="black" cx="243" cy="-90" rx="27" ry="18"/>
<text text-anchor="middle" x="243" y="-86.5" font-family="Times New Roman,serif" font-size="15.00">xor</text>
</g>
<!-- 2464117928768&#45;&#45;2464127425696 -->
<g id="edge8" class="edge"><title>2464117928768&#45;&#45;2464127425696</title>
<path fill="none" stroke="black" d="M215.35,-144.765C221.165,-133.456 228.89,-118.437 234.696,-107.147"/>
</g>
<!-- 2464127424976 -->
<g id="node10" class="node"><title>2464127424976</title>
<ellipse fill="none" stroke="black" cx="315" cy="-90" rx="27" ry="18"/>
<text text-anchor="middle" x="315" y="-86.5" font-family="Times New Roman,serif" font-size="15.00">I</text>
</g>
<!-- 2464117928768&#45;&#45;2464127424976 -->
<g id="edge9" class="edge"><title>2464117928768&#45;&#45;2464127424976</title>
<path fill="none" stroke="black" d="M225.812,-148.807C245.635,-135.959 276.662,-115.848 296.403,-103.053"/>
</g>
<!-- 2464127423824 -->
<g id="node3" class="node"><title>2464127423824</title>
<ellipse fill="none" stroke="black" cx="27" cy="-18" rx="27" ry="18"/>
<text text-anchor="middle" x="27" y="-14.5" font-family="Times New Roman,serif" font-size="15.00">A</text>
</g>
<!-- 2464127424304&#45;&#45;2464127423824 -->
<g id="edge1" class="edge"><title>2464127424304&#45;&#45;2464127423824</title>
<path fill="none" stroke="black" d="M84.4297,-74.8345C72.0202,-62.7697 54.2694,-45.5119 41.7957,-33.3847"/>
</g>
<!-- 2464127424832 -->
<g id="node4" class="node"><title>2464127424832</title>
<ellipse fill="none" stroke="black" cx="99" cy="-18" rx="27" ry="18"/>
<text text-anchor="middle" x="99" y="-14.5" font-family="Times New Roman,serif" font-size="15.00">B</text>
</g>
<!-- 2464127424304&#45;&#45;2464127424832 -->
<g id="edge2" class="edge"><title>2464127424304&#45;&#45;2464127424832</title>
<path fill="none" stroke="black" d="M99,-71.6966C99,-60.8463 99,-46.9167 99,-36.1043"/>
</g>
<!-- 2464127423008 -->
<g id="node7" class="node"><title>2464127423008</title>
<ellipse fill="none" stroke="black" cx="171" cy="-18" rx="27" ry="18"/>
<text text-anchor="middle" x="171" y="-14.5" font-family="Times New Roman,serif" font-size="15.00">E</text>
</g>
<!-- 2464127425696&#45;&#45;2464127423008 -->
<g id="edge5" class="edge"><title>2464127425696&#45;&#45;2464127423008</title>
<path fill="none" stroke="black" d="M228.43,-74.8345C216.02,-62.7697 198.269,-45.5119 185.796,-33.3847"/>
</g>
<!-- 2464127425408 -->
<g id="node8" class="node"><title>2464127425408</title>
<ellipse fill="none" stroke="black" cx="243" cy="-18" rx="27" ry="18"/>
<text text-anchor="middle" x="243" y="-14.5" font-family="Times New Roman,serif" font-size="15.00">F</text>
</g>
<!-- 2464127425696&#45;&#45;2464127425408 -->
<g id="edge6" class="edge"><title>2464127425696&#45;&#45;2464127425408</title>
<path fill="none" stroke="black" d="M243,-71.6966C243,-60.8463 243,-46.9167 243,-36.1043"/>
</g>
<!-- 2464127426512 -->
<g id="node9" class="node"><title>2464127426512</title>
<ellipse fill="none" stroke="black" cx="315" cy="-18" rx="27" ry="18"/>
<text text-anchor="middle" x="315" y="-14.5" font-family="Times New Roman,serif" font-size="15.00">D</text>
</g>
<!-- 2464127425696&#45;&#45;2464127426512 -->
<g id="edge7" class="edge"><title>2464127425696&#45;&#45;2464127426512</title>
<path fill="none" stroke="black" d="M257.57,-74.8345C269.98,-62.7697 287.731,-45.5119 300.204,-33.3847"/>
</g>
</g>
</svg>
