<?xml version="1.0" encoding="UTF-8" standalone="no"?>
<!DOCTYPE svg PUBLIC "-//W3C//DTD SVG 1.1//EN"
 "http://www.w3.org/Graphics/SVG/1.1/DTD/svg11.dtd">
<!-- Generated by graphviz version 2.38.0 (20140413.2041)
 -->
<!-- Title: pt Pages: 1 -->
<svg width="296pt" height="260pt"
 viewBox="0.00 0.00 296.00 260.00" xmlns="http://www.w3.org/2000/svg" xmlns:xlink="http://www.w3.org/1999/xlink">
<g id="graph0" class="graph" transform="scale(1 1) rotate(0) translate(4 256)">
<title>pt</title>
<!-- 2462859748448 -->
<g id="node1" class="node"><title>2462859748448</title>
<ellipse fill="none" stroke="black" cx="171" cy="-234" rx="46.6143" ry="18"/>
<text text-anchor="middle" x="171" y="-230.5" font-family="Times New Roman,serif" font-size="15.00">xor loop</text>
</g>
<!-- 2462846672320 -->
<g id="node2" class="node"><title>2462846672320</title>
<ellipse fill="none" stroke="black" cx="135" cy="-162" rx="27" ry="18"/>
<text text-anchor="middle" x="135" y="-158.5" font-family="Times New Roman,serif" font-size="15.00">seq</text>
</g>
<!-- 2462859748448&#45;&#45;2462846672320 -->
<g id="edge8" class="edge"><title>2462859748448&#45;&#45;2462846672320</title>
<path fill="none" stroke="black" d="M162.285,-216.055C156.542,-204.887 149.062,-190.343 143.386,-179.307"/>
</g>
<!-- 2462846040768 -->
<g id="node10" class="node"><title>2462846040768</title>
<ellipse fill="none" stroke="black" cx="207" cy="-162" rx="27" ry="18"/>
<text text-anchor="middle" x="207" y="-158.5" font-family="Times New Roman,serif" font-size="15.00">E</text>
</g>
<!-- 2462859748448&#45;&#45;2462846040768 -->
<g id="edge9" class="edge"><title>2462859748448&#45;&#45;2462846040768</title>
<path fill="none" stroke="black" d="M179.715,-216.055C185.458,-204.887 192.938,-190.343 198.614,-179.307"/>
</g>
<!-- 2462846041344 -->
<g id="node3" class="node"><title>2462846041344</title>
<ellipse fill="none" stroke="black" cx="63" cy="-90" rx="27" ry="18"/>
<text text-anchor="middle" x="63" y="-86.5" font-family="Times New Roman,serif" font-size="15.00">xor</text>
</g>
<!-- 2462846672320&#45;&#45;2462846041344 -->
<g id="edge3" class="edge"><title>2462846672320&#45;&#45;2462846041344</title>
<path fill="none" stroke="black" d="M120.43,-146.834C108.02,-134.77 90.2694,-117.512 77.7957,-105.385"/>
</g>
<!-- 2462846041728 -->
<g id="node6" class="node"><title>2462846041728</title>
<ellipse fill="none" stroke="black" cx="135" cy="-90" rx="27" ry="18"/>
<text text-anchor="middle" x="135" y="-86.5" font-family="Times New Roman,serif" font-size="15.00">C</text>
</g>
<!-- 2462846672320&#45;&#45;2462846041728 -->
<g id="edge4" class="edge"><title>2462846672320&#45;&#45;2462846041728</title>
<path fill="none" stroke="black" d="M135,-143.697C135,-132.846 135,-118.917 135,-108.104"/>
</g>
<!-- 2462846041632 -->
<g id="node7" class="node"><title>2462846041632</title>
<ellipse fill="none" stroke="black" cx="207" cy="-90" rx="27" ry="18"/>
<text text-anchor="middle" x="207" y="-86.5" font-family="Times New Roman,serif" font-size="15.00">xor</text>
</g>
<!-- 2462846672320&#45;&#45;2462846041632 -->
<g id="edge7" class="edge"><title>2462846672320&#45;&#45;2462846041632</title>
<path fill="none" stroke="black" d="M149.57,-146.834C161.98,-134.77 179.731,-117.512 192.204,-105.385"/>
</g>
<!-- 2462846041968 -->
<g id="node4" class="node"><title>2462846041968</title>
<ellipse fill="none" stroke="black" cx="27" cy="-18" rx="27" ry="18"/>
<text text-anchor="middle" x="27" y="-14.5" font-family="Times New Roman,serif" font-size="15.00">A</text>
</g>
<!-- 2462846041344&#45;&#45;2462846041968 -->
<g id="edge1" class="edge"><title>2462846041344&#45;&#45;2462846041968</title>
<path fill="none" stroke="black" d="M54.6504,-72.7646C48.8345,-61.456 41.1103,-46.4367 35.3043,-35.1473"/>
</g>
<!-- 2462846040528 -->
<g id="node5" class="node"><title>2462846040528</title>
<ellipse fill="none" stroke="black" cx="99" cy="-18" rx="27" ry="18"/>
<text text-anchor="middle" x="99" y="-14.5" font-family="Times New Roman,serif" font-size="15.00">B</text>
</g>
<!-- 2462846041344&#45;&#45;2462846040528 -->
<g id="edge2" class="edge"><title>2462846041344&#45;&#45;2462846040528</title>
<path fill="none" stroke="black" d="M71.3496,-72.7646C77.1655,-61.456 84.8897,-46.4367 90.6957,-35.1473"/>
</g>
<!-- 2462846726256 -->
<g id="node8" class="node"><title>2462846726256</title>
<ellipse fill="none" stroke="black" cx="189" cy="-18" rx="27" ry="18"/>
<text text-anchor="middle" x="189" y="-14.5" font-family="Times New Roman,serif" font-size="15.00">F</text>
</g>
<!-- 2462846041632&#45;&#45;2462846726256 -->
<g id="edge5" class="edge"><title>2462846041632&#45;&#45;2462846726256</title>
<path fill="none" stroke="black" d="M202.643,-72.055C199.813,-61.0492 196.139,-46.7636 193.317,-35.789"/>
</g>
<!-- 2462846726544 -->
<g id="node9" class="node"><title>2462846726544</title>
<ellipse fill="none" stroke="black" cx="261" cy="-18" rx="27" ry="18"/>
<text text-anchor="middle" x="261" y="-14.5" font-family="Times New Roman,serif" font-size="15.00">D</text>
</g>
<!-- 2462846041632&#45;&#45;2462846726544 -->
<g id="edge6" class="edge"><title>2462846041632&#45;&#45;2462846726544</title>
<path fill="none" stroke="black" d="M218.984,-73.4647C227.933,-61.8645 240.108,-46.0816 249.049,-34.4918"/>
</g>
</g>
</svg>
