<?xml version="1.0" encoding="UTF-8" standalone="no"?>
<!DOCTYPE svg PUBLIC "-//W3C//DTD SVG 1.1//EN"
 "http://www.w3.org/Graphics/SVG/1.1/DTD/svg11.dtd">
<!-- Generated by graphviz version 2.38.0 (20140413.2041)
 -->
<!-- Title: pt Pages: 1 -->
<svg width="752pt" height="332pt"
 viewBox="0.00 0.00 751.70 332.00" xmlns="http://www.w3.org/2000/svg" xmlns:xlink="http://www.w3.org/1999/xlink">
<g id="graph0" class="graph" transform="scale(1 1) rotate(0) translate(4 328)">
<title>pt</title>
<!-- 1729280337664 -->
<g id="node1" class="node"><title>1729280337664</title>
<ellipse fill="none" stroke="black" cx="338.7" cy="-306" rx="27" ry="18"/>
<text text-anchor="middle" x="338.7" y="-302.5" font-family="Times New Roman,serif" font-size="15.00">seq</text>
</g>
<!-- 1729278066496 -->
<g id="node2" class="node"><title>1729278066496</title>
<ellipse fill="none" stroke="black" cx="50.7" cy="-234" rx="27" ry="18"/>
<text text-anchor="middle" x="50.7" y="-230.5" font-family="Times New Roman,serif" font-size="15.00">xor</text>
</g>
<!-- 1729280337664&#45;&#45;1729278066496 -->
<g id="edge3" class="edge"><title>1729280337664&#45;&#45;1729278066496</title>
<path fill="none" stroke="black" d="M313.646,-298.91C259.178,-285.672 130.502,-254.396 75.9015,-241.125"/>
</g>
<!-- 1729278066352 -->
<g id="node5" class="node"><title>1729278066352</title>
<ellipse fill="none" stroke="black" cx="194.7" cy="-234" rx="27" ry="18"/>
<text text-anchor="middle" x="194.7" y="-230.5" font-family="Times New Roman,serif" font-size="15.00">and</text>
</g>
<!-- 1729280337664&#45;&#45;1729278066352 -->
<g id="edge10" class="edge"><title>1729280337664&#45;&#45;1729278066352</title>
<path fill="none" stroke="black" d="M317.452,-294.671C290.227,-281.437 243.302,-258.626 216.035,-245.371"/>
</g>
<!-- 1729278064048 -->
<g id="node12" class="node"><title>1729278064048</title>
<ellipse fill="none" stroke="black" cx="338.7" cy="-234" rx="27" ry="18"/>
<text text-anchor="middle" x="338.7" y="-230.5" font-family="Times New Roman,serif" font-size="15.00">xor</text>
</g>
<!-- 1729280337664&#45;&#45;1729278064048 -->
<g id="edge14" class="edge"><title>1729280337664&#45;&#45;1729278064048</title>
<path fill="none" stroke="black" d="M338.7,-287.697C338.7,-276.846 338.7,-262.917 338.7,-252.104"/>
</g>
<!-- 1729273959808 -->
<g id="node16" class="node"><title>1729273959808</title>
<ellipse fill="none" stroke="black" cx="482.7" cy="-234" rx="46.6143" ry="18"/>
<text text-anchor="middle" x="482.7" y="-230.5" font-family="Times New Roman,serif" font-size="15.00">xor loop</text>
</g>
<!-- 1729280337664&#45;&#45;1729273959808 -->
<g id="edge17" class="edge"><title>1729280337664&#45;&#45;1729273959808</title>
<path fill="none" stroke="black" d="M359.948,-294.671C385.139,-282.425 427.196,-261.981 454.941,-248.494"/>
</g>
<!-- 1729273960912 -->
<g id="node19" class="node"><title>1729273960912</title>
<ellipse fill="none" stroke="black" cx="578.7" cy="-234" rx="27" ry="18"/>
<text text-anchor="middle" x="578.7" y="-230.5" font-family="Times New Roman,serif" font-size="15.00">xor</text>
</g>
<!-- 1729280337664&#45;&#45;1729273960912 -->
<g id="edge24" class="edge"><title>1729280337664&#45;&#45;1729273960912</title>
<path fill="none" stroke="black" d="M363.033,-297.903C409.033,-284.486 508.253,-255.547 554.302,-242.116"/>
</g>
<!-- 1729278065824 -->
<g id="node3" class="node"><title>1729278065824</title>
<ellipse fill="black" stroke="black" cx="2.7" cy="-162" rx="2.7" ry="2.7"/>
</g>
<!-- 1729278066496&#45;&#45;1729278065824 -->
<g id="edge1" class="edge"><title>1729278066496&#45;&#45;1729278065824</title>
<path fill="none" stroke="black" d="M39.8081,-217.116C27.6376,-199.367 8.97987,-172.158 3.97306,-164.857"/>
</g>
<!-- 1729278066304 -->
<g id="node4" class="node"><title>1729278066304</title>
<ellipse fill="none" stroke="black" cx="50.7" cy="-162" rx="27" ry="18"/>
<text text-anchor="middle" x="50.7" y="-158.5" font-family="Times New Roman,serif" font-size="15.00">A</text>
</g>
<!-- 1729278066496&#45;&#45;1729278066304 -->
<g id="edge2" class="edge"><title>1729278066496&#45;&#45;1729278066304</title>
<path fill="none" stroke="black" d="M50.7,-215.697C50.7,-204.846 50.7,-190.917 50.7,-180.104"/>
</g>
<!-- 1729273959088 -->
<g id="node6" class="node"><title>1729273959088</title>
<ellipse fill="none" stroke="black" cx="122.7" cy="-162" rx="27" ry="18"/>
<text text-anchor="middle" x="122.7" y="-158.5" font-family="Times New Roman,serif" font-size="15.00">xor</text>
</g>
<!-- 1729278066352&#45;&#45;1729273959088 -->
<g id="edge6" class="edge"><title>1729278066352&#45;&#45;1729273959088</title>
<path fill="none" stroke="black" d="M180.13,-218.834C167.72,-206.77 149.969,-189.512 137.496,-177.385"/>
</g>
<!-- 1729273958656 -->
<g id="node9" class="node"><title>1729273958656</title>
<ellipse fill="none" stroke="black" cx="194.7" cy="-162" rx="27" ry="18"/>
<text text-anchor="middle" x="194.7" y="-158.5" font-family="Times New Roman,serif" font-size="15.00">xor</text>
</g>
<!-- 1729278066352&#45;&#45;1729273958656 -->
<g id="edge9" class="edge"><title>1729278066352&#45;&#45;1729273958656</title>
<path fill="none" stroke="black" d="M194.7,-215.697C194.7,-204.846 194.7,-190.917 194.7,-180.104"/>
</g>
<!-- 1729273959376 -->
<g id="node7" class="node"><title>1729273959376</title>
<ellipse fill="black" stroke="black" cx="74.7" cy="-90" rx="2.7" ry="2.7"/>
</g>
<!-- 1729273959088&#45;&#45;1729273959376 -->
<g id="edge4" class="edge"><title>1729273959088&#45;&#45;1729273959376</title>
<path fill="none" stroke="black" d="M111.808,-145.116C99.6376,-127.367 80.9799,-100.158 75.9731,-92.8565"/>
</g>
<!-- 1729273959472 -->
<g id="node8" class="node"><title>1729273959472</title>
<ellipse fill="none" stroke="black" cx="122.7" cy="-90" rx="27" ry="18"/>
<text text-anchor="middle" x="122.7" y="-86.5" font-family="Times New Roman,serif" font-size="15.00">B</text>
</g>
<!-- 1729273959088&#45;&#45;1729273959472 -->
<g id="edge5" class="edge"><title>1729273959088&#45;&#45;1729273959472</title>
<path fill="none" stroke="black" d="M122.7,-143.697C122.7,-132.846 122.7,-118.917 122.7,-108.104"/>
</g>
<!-- 1729273958464 -->
<g id="node10" class="node"><title>1729273958464</title>
<ellipse fill="none" stroke="black" cx="194.7" cy="-90" rx="27" ry="18"/>
<text text-anchor="middle" x="194.7" y="-86.5" font-family="Times New Roman,serif" font-size="15.00">C</text>
</g>
<!-- 1729273958656&#45;&#45;1729273958464 -->
<g id="edge7" class="edge"><title>1729273958656&#45;&#45;1729273958464</title>
<path fill="none" stroke="black" d="M194.7,-143.697C194.7,-132.846 194.7,-118.917 194.7,-108.104"/>
</g>
<!-- 1729273960480 -->
<g id="node11" class="node"><title>1729273960480</title>
<ellipse fill="none" stroke="black" cx="266.7" cy="-90" rx="27" ry="18"/>
<text text-anchor="middle" x="266.7" y="-86.5" font-family="Times New Roman,serif" font-size="15.00">D</text>
</g>
<!-- 1729273958656&#45;&#45;1729273960480 -->
<g id="edge8" class="edge"><title>1729273958656&#45;&#45;1729273960480</title>
<path fill="none" stroke="black" d="M209.27,-146.834C221.68,-134.77 239.431,-117.512 251.904,-105.385"/>
</g>
<!-- 1729273960288 -->
<g id="node13" class="node"><title>1729273960288</title>
<ellipse fill="none" stroke="black" cx="266.7" cy="-162" rx="27" ry="18"/>
<text text-anchor="middle" x="266.7" y="-158.5" font-family="Times New Roman,serif" font-size="15.00">E</text>
</g>
<!-- 1729278064048&#45;&#45;1729273960288 -->
<g id="edge11" class="edge"><title>1729278064048&#45;&#45;1729273960288</title>
<path fill="none" stroke="black" d="M324.13,-218.834C311.72,-206.77 293.969,-189.512 281.496,-177.385"/>
</g>
<!-- 1729273960336 -->
<g id="node14" class="node"><title>1729273960336</title>
<ellipse fill="none" stroke="black" cx="338.7" cy="-162" rx="27" ry="18"/>
<text text-anchor="middle" x="338.7" y="-158.5" font-family="Times New Roman,serif" font-size="15.00">F</text>
</g>
<!-- 1729278064048&#45;&#45;1729273960336 -->
<g id="edge12" class="edge"><title>1729278064048&#45;&#45;1729273960336</title>
<path fill="none" stroke="black" d="M338.7,-215.697C338.7,-204.846 338.7,-190.917 338.7,-180.104"/>
</g>
<!-- 1729273960768 -->
<g id="node15" class="node"><title>1729273960768</title>
<ellipse fill="none" stroke="black" cx="410.7" cy="-162" rx="27" ry="18"/>
<text text-anchor="middle" x="410.7" y="-158.5" font-family="Times New Roman,serif" font-size="15.00">J</text>
</g>
<!-- 1729278064048&#45;&#45;1729273960768 -->
<g id="edge13" class="edge"><title>1729278064048&#45;&#45;1729273960768</title>
<path fill="none" stroke="black" d="M353.27,-218.834C365.68,-206.77 383.431,-189.512 395.904,-177.385"/>
</g>
<!-- 1729273961008 -->
<g id="node17" class="node"><title>1729273961008</title>
<ellipse fill="none" stroke="black" cx="482.7" cy="-162" rx="27" ry="18"/>
<text text-anchor="middle" x="482.7" y="-158.5" font-family="Times New Roman,serif" font-size="15.00">I</text>
</g>
<!-- 1729273959808&#45;&#45;1729273961008 -->
<g id="edge15" class="edge"><title>1729273959808&#45;&#45;1729273961008</title>
<path fill="none" stroke="black" d="M482.7,-215.697C482.7,-204.846 482.7,-190.917 482.7,-180.104"/>
</g>
<!-- 1729273961248 -->
<g id="node18" class="node"><title>1729273961248</title>
<ellipse fill="black" stroke="black" cx="530.7" cy="-162" rx="2.7" ry="2.7"/>
</g>
<!-- 1729273959808&#45;&#45;1729273961248 -->
<g id="edge16" class="edge"><title>1729273959808&#45;&#45;1729273961248</title>
<path fill="none" stroke="black" d="M494.075,-216.411C506.274,-198.622 524.554,-171.962 529.455,-164.816"/>
</g>
<!-- 1729273961536 -->
<g id="node20" class="node"><title>1729273961536</title>
<ellipse fill="none" stroke="black" cx="578.7" cy="-162" rx="27" ry="18"/>
<text text-anchor="middle" x="578.7" y="-158.5" font-family="Times New Roman,serif" font-size="15.00">L</text>
</g>
<!-- 1729273960912&#45;&#45;1729273961536 -->
<g id="edge18" class="edge"><title>1729273960912&#45;&#45;1729273961536</title>
<path fill="none" stroke="black" d="M578.7,-215.697C578.7,-204.846 578.7,-190.917 578.7,-180.104"/>
</g>
<!-- 1729273961584 -->
<g id="node21" class="node"><title>1729273961584</title>
<ellipse fill="none" stroke="black" cx="670.7" cy="-162" rx="46.6143" ry="18"/>
<text text-anchor="middle" x="670.7" y="-158.5" font-family="Times New Roman,serif" font-size="15.00">xor loop</text>
</g>
<!-- 1729273960912&#45;&#45;1729273961584 -->
<g id="edge23" class="edge"><title>1729273960912&#45;&#45;1729273961584</title>
<path fill="none" stroke="black" d="M596.004,-219.834C611.516,-208.032 634.275,-190.715 650.59,-178.301"/>
</g>
<!-- 1729273961920 -->
<g id="node22" class="node"><title>1729273961920</title>
<ellipse fill="none" stroke="black" cx="624.7" cy="-90" rx="46.6143" ry="18"/>
<text text-anchor="middle" x="624.7" y="-86.5" font-family="Times New Roman,serif" font-size="15.00">xor loop</text>
</g>
<!-- 1729273961584&#45;&#45;1729273961920 -->
<g id="edge21" class="edge"><title>1729273961584&#45;&#45;1729273961920</title>
<path fill="none" stroke="black" d="M659.799,-144.411C652.572,-133.414 643.118,-119.027 635.843,-107.956"/>
</g>
<!-- 1729273961968 -->
<g id="node25" class="node"><title>1729273961968</title>
<ellipse fill="none" stroke="black" cx="716.7" cy="-90" rx="27" ry="18"/>
<text text-anchor="middle" x="716.7" y="-86.5" font-family="Times New Roman,serif" font-size="15.00">H</text>
</g>
<!-- 1729273961584&#45;&#45;1729273961968 -->
<g id="edge22" class="edge"><title>1729273961584&#45;&#45;1729273961968</title>
<path fill="none" stroke="black" d="M681.601,-144.411C689.04,-133.091 698.84,-118.178 706.194,-106.988"/>
</g>
<!-- 1729273962064 -->
<g id="node23" class="node"><title>1729273962064</title>
<ellipse fill="none" stroke="black" cx="600.7" cy="-18" rx="27" ry="18"/>
<text text-anchor="middle" x="600.7" y="-14.5" font-family="Times New Roman,serif" font-size="15.00">G</text>
</g>
<!-- 1729273961920&#45;&#45;1729273962064 -->
<g id="edge19" class="edge"><title>1729273961920&#45;&#45;1729273962064</title>
<path fill="none" stroke="black" d="M618.89,-72.055C615.117,-61.0492 610.219,-46.7636 606.456,-35.789"/>
</g>
<!-- 1729273962304 -->
<g id="node24" class="node"><title>1729273962304</title>
<ellipse fill="black" stroke="black" cx="648.7" cy="-18" rx="2.7" ry="2.7"/>
</g>
<!-- 1729273961920&#45;&#45;1729273962304 -->
<g id="edge20" class="edge"><title>1729273961920&#45;&#45;1729273962304</title>
<path fill="none" stroke="black" d="M630.51,-72.055C636.614,-54.2515 645.66,-27.8653 648.084,-20.7963"/>
</g>
</g>
</svg>
