<?xml version="1.0" encoding="UTF-8" standalone="no"?>
<!DOCTYPE svg PUBLIC "-//W3C//DTD SVG 1.1//EN"
 "http://www.w3.org/Graphics/SVG/1.1/DTD/svg11.dtd">
<!-- Generated by graphviz version 2.38.0 (20140413.2041)
 -->
<!-- Title: pt Pages: 1 -->
<svg width="350pt" height="260pt"
 viewBox="0.00 0.00 350.00 260.00" xmlns="http://www.w3.org/2000/svg" xmlns:xlink="http://www.w3.org/1999/xlink">
<g id="graph0" class="graph" transform="scale(1 1) rotate(0) translate(4 256)">
<title>pt</title>
<!-- 1729289854208 -->
<g id="node1" class="node"><title>1729289854208</title>
<ellipse fill="none" stroke="black" cx="171" cy="-234" rx="27" ry="18"/>
<text text-anchor="middle" x="171" y="-230.5" font-family="Times New Roman,serif" font-size="15.00">seq</text>
</g>
<!-- 1729289854736 -->
<g id="node2" class="node"><title>1729289854736</title>
<ellipse fill="none" stroke="black" cx="99" cy="-162" rx="27" ry="18"/>
<text text-anchor="middle" x="99" y="-158.5" font-family="Times New Roman,serif" font-size="15.00">xor</text>
</g>
<!-- 1729289854208&#45;&#45;1729289854736 -->
<g id="edge6" class="edge"><title>1729289854208&#45;&#45;1729289854736</title>
<path fill="none" stroke="black" d="M156.43,-218.834C144.02,-206.77 126.269,-189.512 113.796,-177.385"/>
</g>
<!-- 1729296815008 -->
<g id="node8" class="node"><title>1729296815008</title>
<ellipse fill="none" stroke="black" cx="171" cy="-162" rx="27" ry="18"/>
<text text-anchor="middle" x="171" y="-158.5" font-family="Times New Roman,serif" font-size="15.00">A</text>
</g>
<!-- 1729289854208&#45;&#45;1729296815008 -->
<g id="edge7" class="edge"><title>1729289854208&#45;&#45;1729296815008</title>
<path fill="none" stroke="black" d="M171,-215.697C171,-204.846 171,-190.917 171,-180.104"/>
</g>
<!-- 1729296815920 -->
<g id="node9" class="node"><title>1729296815920</title>
<ellipse fill="none" stroke="black" cx="243" cy="-162" rx="27" ry="18"/>
<text text-anchor="middle" x="243" y="-158.5" font-family="Times New Roman,serif" font-size="15.00">xor</text>
</g>
<!-- 1729289854208&#45;&#45;1729296815920 -->
<g id="edge10" class="edge"><title>1729289854208&#45;&#45;1729296815920</title>
<path fill="none" stroke="black" d="M185.57,-218.834C197.98,-206.77 215.731,-189.512 228.204,-177.385"/>
</g>
<!-- 1729296815056 -->
<g id="node3" class="node"><title>1729296815056</title>
<ellipse fill="none" stroke="black" cx="27" cy="-90" rx="27" ry="18"/>
<text text-anchor="middle" x="27" y="-86.5" font-family="Times New Roman,serif" font-size="15.00">C</text>
</g>
<!-- 1729289854736&#45;&#45;1729296815056 -->
<g id="edge1" class="edge"><title>1729289854736&#45;&#45;1729296815056</title>
<path fill="none" stroke="black" d="M84.4297,-146.834C72.0202,-134.77 54.2694,-117.512 41.7957,-105.385"/>
</g>
<!-- 1729296815296 -->
<g id="node4" class="node"><title>1729296815296</title>
<ellipse fill="none" stroke="black" cx="99" cy="-90" rx="27" ry="18"/>
<text text-anchor="middle" x="99" y="-86.5" font-family="Times New Roman,serif" font-size="15.00">D</text>
</g>
<!-- 1729289854736&#45;&#45;1729296815296 -->
<g id="edge2" class="edge"><title>1729289854736&#45;&#45;1729296815296</title>
<path fill="none" stroke="black" d="M99,-143.697C99,-132.846 99,-118.917 99,-108.104"/>
</g>
<!-- 1729296815440 -->
<g id="node5" class="node"><title>1729296815440</title>
<ellipse fill="none" stroke="black" cx="171" cy="-90" rx="27" ry="18"/>
<text text-anchor="middle" x="171" y="-86.5" font-family="Times New Roman,serif" font-size="15.00">seq</text>
</g>
<!-- 1729289854736&#45;&#45;1729296815440 -->
<g id="edge5" class="edge"><title>1729289854736&#45;&#45;1729296815440</title>
<path fill="none" stroke="black" d="M113.57,-146.834C125.98,-134.77 143.731,-117.512 156.204,-105.385"/>
</g>
<!-- 1729296815680 -->
<g id="node6" class="node"><title>1729296815680</title>
<ellipse fill="none" stroke="black" cx="135" cy="-18" rx="27" ry="18"/>
<text text-anchor="middle" x="135" y="-14.5" font-family="Times New Roman,serif" font-size="15.00">G</text>
</g>
<!-- 1729296815440&#45;&#45;1729296815680 -->
<g id="edge3" class="edge"><title>1729296815440&#45;&#45;1729296815680</title>
<path fill="none" stroke="black" d="M162.65,-72.7646C156.835,-61.456 149.11,-46.4367 143.304,-35.1473"/>
</g>
<!-- 1729296815824 -->
<g id="node7" class="node"><title>1729296815824</title>
<ellipse fill="none" stroke="black" cx="207" cy="-18" rx="27" ry="18"/>
<text text-anchor="middle" x="207" y="-14.5" font-family="Times New Roman,serif" font-size="15.00">B</text>
</g>
<!-- 1729296815440&#45;&#45;1729296815824 -->
<g id="edge4" class="edge"><title>1729296815440&#45;&#45;1729296815824</title>
<path fill="none" stroke="black" d="M179.35,-72.7646C185.165,-61.456 192.89,-46.4367 198.696,-35.1473"/>
</g>
<!-- 1729296816160 -->
<g id="node10" class="node"><title>1729296816160</title>
<ellipse fill="none" stroke="black" cx="243" cy="-90" rx="27" ry="18"/>
<text text-anchor="middle" x="243" y="-86.5" font-family="Times New Roman,serif" font-size="15.00">E</text>
</g>
<!-- 1729296815920&#45;&#45;1729296816160 -->
<g id="edge8" class="edge"><title>1729296815920&#45;&#45;1729296816160</title>
<path fill="none" stroke="black" d="M243,-143.697C243,-132.846 243,-118.917 243,-108.104"/>
</g>
<!-- 1729296816304 -->
<g id="node11" class="node"><title>1729296816304</title>
<ellipse fill="none" stroke="black" cx="315" cy="-90" rx="27" ry="18"/>
<text text-anchor="middle" x="315" y="-86.5" font-family="Times New Roman,serif" font-size="15.00">F</text>
</g>
<!-- 1729296815920&#45;&#45;1729296816304 -->
<g id="edge9" class="edge"><title>1729296815920&#45;&#45;1729296816304</title>
<path fill="none" stroke="black" d="M257.57,-146.834C269.98,-134.77 287.731,-117.512 300.204,-105.385"/>
</g>
</g>
</svg>
