<?xml version="1.0" encoding="UTF-8" standalone="no"?>
<!DOCTYPE svg PUBLIC "-//W3C//DTD SVG 1.1//EN"
 "http://www.w3.org/Graphics/SVG/1.1/DTD/svg11.dtd">
<!-- Generated by graphviz version 2.38.0 (20140413.2041)
 -->
<!-- Title: pt Pages: 1 -->
<svg width="266pt" height="188pt"
 viewBox="0.00 0.00 265.70 188.00" xmlns="http://www.w3.org/2000/svg" xmlns:xlink="http://www.w3.org/1999/xlink">
<g id="graph0" class="graph" transform="scale(1 1) rotate(0) translate(4 184)">
<title>pt</title>
<!-- 2591201672592 -->
<g id="node1" class="node"><title>2591201672592</title>
<ellipse fill="none" stroke="black" cx="122.7" cy="-162" rx="27" ry="18"/>
<text text-anchor="middle" x="122.7" y="-158.5" font-family="Times New Roman,serif" font-size="15.00">seq</text>
</g>
<!-- 2591202165712 -->
<g id="node2" class="node"><title>2591202165712</title>
<ellipse fill="none" stroke="black" cx="50.7" cy="-90" rx="27" ry="18"/>
<text text-anchor="middle" x="50.7" y="-86.5" font-family="Times New Roman,serif" font-size="15.00">xor</text>
</g>
<!-- 2591201672592&#45;&#45;2591202165712 -->
<g id="edge4" class="edge"><title>2591201672592&#45;&#45;2591202165712</title>
<path fill="none" stroke="black" d="M108.13,-146.834C95.7202,-134.77 77.9694,-117.512 65.4957,-105.385"/>
</g>
<!-- 2591202167920 -->
<g id="node6" class="node"><title>2591202167920</title>
<ellipse fill="none" stroke="black" cx="122.7" cy="-90" rx="27" ry="18"/>
<text text-anchor="middle" x="122.7" y="-86.5" font-family="Times New Roman,serif" font-size="15.00">c</text>
</g>
<!-- 2591201672592&#45;&#45;2591202167920 -->
<g id="edge5" class="edge"><title>2591201672592&#45;&#45;2591202167920</title>
<path fill="none" stroke="black" d="M122.7,-143.697C122.7,-132.846 122.7,-118.917 122.7,-108.104"/>
</g>
<!-- 2591202656560 -->
<g id="node7" class="node"><title>2591202656560</title>
<ellipse fill="none" stroke="black" cx="194.7" cy="-90" rx="27" ry="18"/>
<text text-anchor="middle" x="194.7" y="-86.5" font-family="Times New Roman,serif" font-size="15.00">xor</text>
</g>
<!-- 2591201672592&#45;&#45;2591202656560 -->
<g id="edge8" class="edge"><title>2591201672592&#45;&#45;2591202656560</title>
<path fill="none" stroke="black" d="M137.27,-146.834C149.68,-134.77 167.431,-117.512 179.904,-105.385"/>
</g>
<!-- 2591202165856 -->
<g id="node3" class="node"><title>2591202165856</title>
<ellipse fill="black" stroke="black" cx="2.7" cy="-18" rx="2.7" ry="2.7"/>
</g>
<!-- 2591202165712&#45;&#45;2591202165856 -->
<g id="edge1" class="edge"><title>2591202165712&#45;&#45;2591202165856</title>
<path fill="none" stroke="black" d="M39.8081,-73.1159C27.6376,-55.3673 8.97987,-28.1581 3.97306,-20.8565"/>
</g>
<!-- 2591202166528 -->
<g id="node4" class="node"><title>2591202166528</title>
<ellipse fill="none" stroke="black" cx="50.7" cy="-18" rx="27" ry="18"/>
<text text-anchor="middle" x="50.7" y="-14.5" font-family="Times New Roman,serif" font-size="15.00">a</text>
</g>
<!-- 2591202165712&#45;&#45;2591202166528 -->
<g id="edge2" class="edge"><title>2591202165712&#45;&#45;2591202166528</title>
<path fill="none" stroke="black" d="M50.7,-71.6966C50.7,-60.8463 50.7,-46.9167 50.7,-36.1043"/>
</g>
<!-- 2591202165808 -->
<g id="node5" class="node"><title>2591202165808</title>
<ellipse fill="none" stroke="black" cx="122.7" cy="-18" rx="27" ry="18"/>
<text text-anchor="middle" x="122.7" y="-14.5" font-family="Times New Roman,serif" font-size="15.00">b</text>
</g>
<!-- 2591202165712&#45;&#45;2591202165808 -->
<g id="edge3" class="edge"><title>2591202165712&#45;&#45;2591202165808</title>
<path fill="none" stroke="black" d="M65.2703,-74.8345C77.6798,-62.7697 95.4306,-45.5119 107.904,-33.3847"/>
</g>
<!-- 2591202656800 -->
<g id="node8" class="node"><title>2591202656800</title>
<ellipse fill="black" stroke="black" cx="182.7" cy="-18" rx="2.7" ry="2.7"/>
</g>
<!-- 2591202656560&#45;&#45;2591202656800 -->
<g id="edge6" class="edge"><title>2591202656560&#45;&#45;2591202656800</title>
<path fill="none" stroke="black" d="M191.795,-72.055C188.743,-54.2515 184.22,-27.8653 183.008,-20.7963"/>
</g>
<!-- 2591202656944 -->
<g id="node9" class="node"><title>2591202656944</title>
<ellipse fill="none" stroke="black" cx="230.7" cy="-18" rx="27" ry="18"/>
<text text-anchor="middle" x="230.7" y="-14.5" font-family="Times New Roman,serif" font-size="15.00">d</text>
</g>
<!-- 2591202656560&#45;&#45;2591202656944 -->
<g id="edge7" class="edge"><title>2591202656560&#45;&#45;2591202656944</title>
<path fill="none" stroke="black" d="M203.05,-72.7646C208.865,-61.456 216.59,-46.4367 222.396,-35.1473"/>
</g>
</g>
</svg>
