<?xml version="1.0" encoding="UTF-8" standalone="no"?>
<!DOCTYPE svg PUBLIC "-//W3C//DTD SVG 1.1//EN"
 "http://www.w3.org/Graphics/SVG/1.1/DTD/svg11.dtd">
<!-- Generated by graphviz version 2.38.0 (20140413.2041)
 -->
<!-- Title: pt Pages: 1 -->
<svg width="350pt" height="260pt"
 viewBox="0.00 0.00 350.00 260.00" xmlns="http://www.w3.org/2000/svg" xmlns:xlink="http://www.w3.org/1999/xlink">
<g id="graph0" class="graph" transform="scale(1 1) rotate(0) translate(4 256)">
<title>pt</title>
<!-- 2503146895200 -->
<g id="node1" class="node"><title>2503146895200</title>
<ellipse fill="none" stroke="black" cx="207" cy="-234" rx="27" ry="18"/>
<text text-anchor="middle" x="207" y="-230.5" font-family="Times New Roman,serif" font-size="15.00">seq</text>
</g>
<!-- 2503146895104 -->
<g id="node2" class="node"><title>2503146895104</title>
<ellipse fill="none" stroke="black" cx="99" cy="-162" rx="27" ry="18"/>
<text text-anchor="middle" x="99" y="-158.5" font-family="Times New Roman,serif" font-size="15.00">A</text>
</g>
<!-- 2503146895200&#45;&#45;2503146895104 -->
<g id="edge1" class="edge"><title>2503146895200&#45;&#45;2503146895104</title>
<path fill="none" stroke="black" d="M188.188,-220.807C168.365,-207.959 137.338,-187.848 117.597,-175.053"/>
</g>
<!-- 2503146895344 -->
<g id="node3" class="node"><title>2503146895344</title>
<ellipse fill="none" stroke="black" cx="171" cy="-162" rx="27" ry="18"/>
<text text-anchor="middle" x="171" y="-158.5" font-family="Times New Roman,serif" font-size="15.00">and</text>
</g>
<!-- 2503146895200&#45;&#45;2503146895344 -->
<g id="edge7" class="edge"><title>2503146895200&#45;&#45;2503146895344</title>
<path fill="none" stroke="black" d="M198.65,-216.765C192.835,-205.456 185.11,-190.437 179.304,-179.147"/>
</g>
<!-- 2503146894528 -->
<g id="node9" class="node"><title>2503146894528</title>
<ellipse fill="none" stroke="black" cx="243" cy="-162" rx="27" ry="18"/>
<text text-anchor="middle" x="243" y="-158.5" font-family="Times New Roman,serif" font-size="15.00">xor</text>
</g>
<!-- 2503146895200&#45;&#45;2503146894528 -->
<g id="edge10" class="edge"><title>2503146895200&#45;&#45;2503146894528</title>
<path fill="none" stroke="black" d="M215.35,-216.765C221.165,-205.456 228.89,-190.437 234.696,-179.147"/>
</g>
<!-- 2503146935104 -->
<g id="node12" class="node"><title>2503146935104</title>
<ellipse fill="none" stroke="black" cx="315" cy="-162" rx="27" ry="18"/>
<text text-anchor="middle" x="315" y="-158.5" font-family="Times New Roman,serif" font-size="15.00">G</text>
</g>
<!-- 2503146895200&#45;&#45;2503146935104 -->
<g id="edge11" class="edge"><title>2503146895200&#45;&#45;2503146935104</title>
<path fill="none" stroke="black" d="M225.812,-220.807C245.635,-207.959 276.662,-187.848 296.403,-175.053"/>
</g>
<!-- 2503146895536 -->
<g id="node4" class="node"><title>2503146895536</title>
<ellipse fill="none" stroke="black" cx="27" cy="-90" rx="27" ry="18"/>
<text text-anchor="middle" x="27" y="-86.5" font-family="Times New Roman,serif" font-size="15.00">C</text>
</g>
<!-- 2503146895344&#45;&#45;2503146895536 -->
<g id="edge2" class="edge"><title>2503146895344&#45;&#45;2503146895536</title>
<path fill="none" stroke="black" d="M149.752,-150.671C122.527,-137.437 75.6024,-114.626 48.3349,-101.371"/>
</g>
<!-- 2503146894960 -->
<g id="node5" class="node"><title>2503146894960</title>
<ellipse fill="none" stroke="black" cx="99" cy="-90" rx="27" ry="18"/>
<text text-anchor="middle" x="99" y="-86.5" font-family="Times New Roman,serif" font-size="15.00">B</text>
</g>
<!-- 2503146895344&#45;&#45;2503146894960 -->
<g id="edge3" class="edge"><title>2503146895344&#45;&#45;2503146894960</title>
<path fill="none" stroke="black" d="M156.43,-146.834C144.02,-134.77 126.269,-117.512 113.796,-105.385"/>
</g>
<!-- 2503146936640 -->
<g id="node6" class="node"><title>2503146936640</title>
<ellipse fill="none" stroke="black" cx="171" cy="-90" rx="27" ry="18"/>
<text text-anchor="middle" x="171" y="-86.5" font-family="Times New Roman,serif" font-size="15.00">xor</text>
</g>
<!-- 2503146895344&#45;&#45;2503146936640 -->
<g id="edge6" class="edge"><title>2503146895344&#45;&#45;2503146936640</title>
<path fill="none" stroke="black" d="M171,-143.697C171,-132.846 171,-118.917 171,-108.104"/>
</g>
<!-- 2503146935632 -->
<g id="node7" class="node"><title>2503146935632</title>
<ellipse fill="black" stroke="black" cx="147" cy="-18" rx="2.7" ry="2.7"/>
</g>
<!-- 2503146936640&#45;&#45;2503146935632 -->
<g id="edge4" class="edge"><title>2503146936640&#45;&#45;2503146935632</title>
<path fill="none" stroke="black" d="M165.19,-72.055C159.086,-54.2515 150.04,-27.8653 147.616,-20.7963"/>
</g>
<!-- 2503146935776 -->
<g id="node8" class="node"><title>2503146935776</title>
<ellipse fill="none" stroke="black" cx="195" cy="-18" rx="27" ry="18"/>
<text text-anchor="middle" x="195" y="-14.5" font-family="Times New Roman,serif" font-size="15.00">D</text>
</g>
<!-- 2503146936640&#45;&#45;2503146935776 -->
<g id="edge5" class="edge"><title>2503146936640&#45;&#45;2503146935776</title>
<path fill="none" stroke="black" d="M176.81,-72.055C180.583,-61.0492 185.481,-46.7636 189.244,-35.789"/>
</g>
<!-- 2503146935248 -->
<g id="node10" class="node"><title>2503146935248</title>
<ellipse fill="none" stroke="black" cx="243" cy="-90" rx="27" ry="18"/>
<text text-anchor="middle" x="243" y="-86.5" font-family="Times New Roman,serif" font-size="15.00">E</text>
</g>
<!-- 2503146894528&#45;&#45;2503146935248 -->
<g id="edge8" class="edge"><title>2503146894528&#45;&#45;2503146935248</title>
<path fill="none" stroke="black" d="M243,-143.697C243,-132.846 243,-118.917 243,-108.104"/>
</g>
<!-- 2503146935968 -->
<g id="node11" class="node"><title>2503146935968</title>
<ellipse fill="none" stroke="black" cx="315" cy="-90" rx="27" ry="18"/>
<text text-anchor="middle" x="315" y="-86.5" font-family="Times New Roman,serif" font-size="15.00">F</text>
</g>
<!-- 2503146894528&#45;&#45;2503146935968 -->
<g id="edge9" class="edge"><title>2503146894528&#45;&#45;2503146935968</title>
<path fill="none" stroke="black" d="M257.57,-146.834C269.98,-134.77 287.731,-117.512 300.204,-105.385"/>
</g>
</g>
</svg>
