<?xml version="1.0" encoding="UTF-8" standalone="no"?>
<!DOCTYPE svg PUBLIC "-//W3C//DTD SVG 1.1//EN"
 "http://www.w3.org/Graphics/SVG/1.1/DTD/svg11.dtd">
<!-- Generated by graphviz version 2.38.0 (20140413.2041)
 -->
<!-- Title: pt Pages: 1 -->
<svg width="458pt" height="188pt"
 viewBox="0.00 0.00 458.00 188.00" xmlns="http://www.w3.org/2000/svg" xmlns:xlink="http://www.w3.org/1999/xlink">
<g id="graph0" class="graph" transform="scale(1 1) rotate(0) translate(4 184)">
<title>pt</title>
<!-- 2030919454528 -->
<g id="node1" class="node"><title>2030919454528</title>
<ellipse fill="none" stroke="black" cx="207" cy="-162" rx="27" ry="18"/>
<text text-anchor="middle" x="207" y="-158.5" font-family="Times New Roman,serif" font-size="15.00">seq</text>
</g>
<!-- 2030919453952 -->
<g id="node2" class="node"><title>2030919453952</title>
<ellipse fill="none" stroke="black" cx="27" cy="-90" rx="27" ry="18"/>
<text text-anchor="middle" x="27" y="-86.5" font-family="Times New Roman,serif" font-size="15.00">A</text>
</g>
<!-- 2030919454528&#45;&#45;2030919453952 -->
<g id="edge1" class="edge"><title>2030919454528&#45;&#45;2030919453952</title>
<path fill="none" stroke="black" d="M184.203,-152.134C149.674,-138.706 84.483,-113.355 49.8956,-99.9038"/>
</g>
<!-- 2030919454384 -->
<g id="node3" class="node"><title>2030919454384</title>
<ellipse fill="none" stroke="black" cx="99" cy="-90" rx="27" ry="18"/>
<text text-anchor="middle" x="99" y="-86.5" font-family="Times New Roman,serif" font-size="15.00">B1</text>
</g>
<!-- 2030919454528&#45;&#45;2030919454384 -->
<g id="edge2" class="edge"><title>2030919454528&#45;&#45;2030919454384</title>
<path fill="none" stroke="black" d="M188.188,-148.807C168.365,-135.959 137.338,-115.848 117.597,-103.053"/>
</g>
<!-- 2030919452128 -->
<g id="node4" class="node"><title>2030919452128</title>
<ellipse fill="none" stroke="black" cx="171" cy="-90" rx="27" ry="18"/>
<text text-anchor="middle" x="171" y="-86.5" font-family="Times New Roman,serif" font-size="15.00">xor</text>
</g>
<!-- 2030919454528&#45;&#45;2030919452128 -->
<g id="edge5" class="edge"><title>2030919454528&#45;&#45;2030919452128</title>
<path fill="none" stroke="black" d="M198.65,-144.765C192.835,-133.456 185.11,-118.437 179.304,-107.147"/>
</g>
<!-- 2030919451936 -->
<g id="node7" class="node"><title>2030919451936</title>
<ellipse fill="none" stroke="black" cx="243" cy="-90" rx="27" ry="18"/>
<text text-anchor="middle" x="243" y="-86.5" font-family="Times New Roman,serif" font-size="15.00">B2</text>
</g>
<!-- 2030919454528&#45;&#45;2030919451936 -->
<g id="edge6" class="edge"><title>2030919454528&#45;&#45;2030919451936</title>
<path fill="none" stroke="black" d="M215.35,-144.765C221.165,-133.456 228.89,-118.437 234.696,-107.147"/>
</g>
<!-- 2030919451504 -->
<g id="node8" class="node"><title>2030919451504</title>
<ellipse fill="none" stroke="black" cx="315" cy="-90" rx="27" ry="18"/>
<text text-anchor="middle" x="315" y="-86.5" font-family="Times New Roman,serif" font-size="15.00">C</text>
</g>
<!-- 2030919454528&#45;&#45;2030919451504 -->
<g id="edge7" class="edge"><title>2030919454528&#45;&#45;2030919451504</title>
<path fill="none" stroke="black" d="M225.812,-148.807C245.635,-135.959 276.662,-115.848 296.403,-103.053"/>
</g>
<!-- 2030919451360 -->
<g id="node9" class="node"><title>2030919451360</title>
<ellipse fill="none" stroke="black" cx="387" cy="-90" rx="27" ry="18"/>
<text text-anchor="middle" x="387" y="-86.5" font-family="Times New Roman,serif" font-size="15.00">xor</text>
</g>
<!-- 2030919454528&#45;&#45;2030919451360 -->
<g id="edge10" class="edge"><title>2030919454528&#45;&#45;2030919451360</title>
<path fill="none" stroke="black" d="M229.797,-152.134C264.326,-138.706 329.517,-113.355 364.104,-99.9038"/>
</g>
<!-- 2030919451840 -->
<g id="node5" class="node"><title>2030919451840</title>
<ellipse fill="none" stroke="black" cx="135" cy="-18" rx="27" ry="18"/>
<text text-anchor="middle" x="135" y="-14.5" font-family="Times New Roman,serif" font-size="15.00">D2</text>
</g>
<!-- 2030919452128&#45;&#45;2030919451840 -->
<g id="edge3" class="edge"><title>2030919452128&#45;&#45;2030919451840</title>
<path fill="none" stroke="black" d="M162.65,-72.7646C156.835,-61.456 149.11,-46.4367 143.304,-35.1473"/>
</g>
<!-- 2030919451696 -->
<g id="node6" class="node"><title>2030919451696</title>
<ellipse fill="none" stroke="black" cx="207" cy="-18" rx="27" ry="18"/>
<text text-anchor="middle" x="207" y="-14.5" font-family="Times New Roman,serif" font-size="15.00">D</text>
</g>
<!-- 2030919452128&#45;&#45;2030919451696 -->
<g id="edge4" class="edge"><title>2030919452128&#45;&#45;2030919451696</title>
<path fill="none" stroke="black" d="M179.35,-72.7646C185.165,-61.456 192.89,-46.4367 198.696,-35.1473"/>
</g>
<!-- 2030919451120 -->
<g id="node10" class="node"><title>2030919451120</title>
<ellipse fill="none" stroke="black" cx="351" cy="-18" rx="27" ry="18"/>
<text text-anchor="middle" x="351" y="-14.5" font-family="Times New Roman,serif" font-size="15.00">E</text>
</g>
<!-- 2030919451360&#45;&#45;2030919451120 -->
<g id="edge8" class="edge"><title>2030919451360&#45;&#45;2030919451120</title>
<path fill="none" stroke="black" d="M378.65,-72.7646C372.835,-61.456 365.11,-46.4367 359.304,-35.1473"/>
</g>
<!-- 2030919450976 -->
<g id="node11" class="node"><title>2030919450976</title>
<ellipse fill="none" stroke="black" cx="423" cy="-18" rx="27" ry="18"/>
<text text-anchor="middle" x="423" y="-14.5" font-family="Times New Roman,serif" font-size="15.00">F</text>
</g>
<!-- 2030919451360&#45;&#45;2030919450976 -->
<g id="edge9" class="edge"><title>2030919451360&#45;&#45;2030919450976</title>
<path fill="none" stroke="black" d="M395.35,-72.7646C401.165,-61.456 408.89,-46.4367 414.696,-35.1473"/>
</g>
</g>
</svg>
