<?xml version="1.0" encoding="UTF-8" standalone="no"?>
<!DOCTYPE svg PUBLIC "-//W3C//DTD SVG 1.1//EN"
 "http://www.w3.org/Graphics/SVG/1.1/DTD/svg11.dtd">
<!-- Generated by graphviz version 2.38.0 (20140413.2041)
 -->
<!-- Title: pt Pages: 1 -->
<svg width="494pt" height="188pt"
 viewBox="0.00 0.00 494.00 188.00" xmlns="http://www.w3.org/2000/svg" xmlns:xlink="http://www.w3.org/1999/xlink">
<g id="graph0" class="graph" transform="scale(1 1) rotate(0) translate(4 184)">
<title>pt</title>
<!-- 2399482152368 -->
<g id="node1" class="node"><title>2399482152368</title>
<ellipse fill="none" stroke="black" cx="243" cy="-162" rx="27" ry="18"/>
<text text-anchor="middle" x="243" y="-158.5" font-family="Times New Roman,serif" font-size="15.00">seq</text>
</g>
<!-- 2399482152464 -->
<g id="node2" class="node"><title>2399482152464</title>
<ellipse fill="none" stroke="black" cx="27" cy="-90" rx="27" ry="18"/>
<text text-anchor="middle" x="27" y="-86.5" font-family="Times New Roman,serif" font-size="15.00">xor</text>
</g>
<!-- 2399482152368&#45;&#45;2399482152464 -->
<g id="edge3" class="edge"><title>2399482152368&#45;&#45;2399482152464</title>
<path fill="none" stroke="black" d="M219.059,-153.241C177.429,-139.75 92.193,-112.127 50.7191,-98.6867"/>
</g>
<!-- 2399482152800 -->
<g id="node5" class="node"><title>2399482152800</title>
<ellipse fill="none" stroke="black" cx="99" cy="-90" rx="27" ry="18"/>
<text text-anchor="middle" x="99" y="-86.5" font-family="Times New Roman,serif" font-size="15.00">B</text>
</g>
<!-- 2399482152368&#45;&#45;2399482152800 -->
<g id="edge4" class="edge"><title>2399482152368&#45;&#45;2399482152800</title>
<path fill="none" stroke="black" d="M221.752,-150.671C194.527,-137.437 147.602,-114.626 120.335,-101.371"/>
</g>
<!-- 2399482154144 -->
<g id="node6" class="node"><title>2399482154144</title>
<ellipse fill="none" stroke="black" cx="171" cy="-90" rx="27" ry="18"/>
<text text-anchor="middle" x="171" y="-86.5" font-family="Times New Roman,serif" font-size="15.00">C</text>
</g>
<!-- 2399482152368&#45;&#45;2399482154144 -->
<g id="edge5" class="edge"><title>2399482152368&#45;&#45;2399482154144</title>
<path fill="none" stroke="black" d="M228.43,-146.834C216.02,-134.77 198.269,-117.512 185.796,-105.385"/>
</g>
<!-- 2399482154288 -->
<g id="node7" class="node"><title>2399482154288</title>
<ellipse fill="none" stroke="black" cx="243" cy="-90" rx="27" ry="18"/>
<text text-anchor="middle" x="243" y="-86.5" font-family="Times New Roman,serif" font-size="15.00">xor</text>
</g>
<!-- 2399482152368&#45;&#45;2399482154288 -->
<g id="edge8" class="edge"><title>2399482152368&#45;&#45;2399482154288</title>
<path fill="none" stroke="black" d="M243,-143.697C243,-132.846 243,-118.917 243,-108.104"/>
</g>
<!-- 2399482154432 -->
<g id="node10" class="node"><title>2399482154432</title>
<ellipse fill="none" stroke="black" cx="315" cy="-90" rx="27" ry="18"/>
<text text-anchor="middle" x="315" y="-86.5" font-family="Times New Roman,serif" font-size="15.00">E1</text>
</g>
<!-- 2399482152368&#45;&#45;2399482154432 -->
<g id="edge9" class="edge"><title>2399482152368&#45;&#45;2399482154432</title>
<path fill="none" stroke="black" d="M257.57,-146.834C269.98,-134.77 287.731,-117.512 300.204,-105.385"/>
</g>
<!-- 2399482154864 -->
<g id="node11" class="node"><title>2399482154864</title>
<ellipse fill="none" stroke="black" cx="387" cy="-90" rx="27" ry="18"/>
<text text-anchor="middle" x="387" y="-86.5" font-family="Times New Roman,serif" font-size="15.00">E2</text>
</g>
<!-- 2399482152368&#45;&#45;2399482154864 -->
<g id="edge10" class="edge"><title>2399482152368&#45;&#45;2399482154864</title>
<path fill="none" stroke="black" d="M264.248,-150.671C291.473,-137.437 338.398,-114.626 365.665,-101.371"/>
</g>
<!-- 2399482323008 -->
<g id="node12" class="node"><title>2399482323008</title>
<ellipse fill="none" stroke="black" cx="459" cy="-90" rx="27" ry="18"/>
<text text-anchor="middle" x="459" y="-86.5" font-family="Times New Roman,serif" font-size="15.00">F</text>
</g>
<!-- 2399482152368&#45;&#45;2399482323008 -->
<g id="edge11" class="edge"><title>2399482152368&#45;&#45;2399482323008</title>
<path fill="none" stroke="black" d="M266.941,-153.241C308.571,-139.75 393.807,-112.127 435.281,-98.6867"/>
</g>
<!-- 2399482153568 -->
<g id="node3" class="node"><title>2399482153568</title>
<ellipse fill="none" stroke="black" cx="27" cy="-18" rx="27" ry="18"/>
<text text-anchor="middle" x="27" y="-14.5" font-family="Times New Roman,serif" font-size="15.00">A1</text>
</g>
<!-- 2399482152464&#45;&#45;2399482153568 -->
<g id="edge1" class="edge"><title>2399482152464&#45;&#45;2399482153568</title>
<path fill="none" stroke="black" d="M27,-71.6966C27,-60.8463 27,-46.9167 27,-36.1043"/>
</g>
<!-- 2399482153952 -->
<g id="node4" class="node"><title>2399482153952</title>
<ellipse fill="none" stroke="black" cx="99" cy="-18" rx="27" ry="18"/>
<text text-anchor="middle" x="99" y="-14.5" font-family="Times New Roman,serif" font-size="15.00">A2</text>
</g>
<!-- 2399482152464&#45;&#45;2399482153952 -->
<g id="edge2" class="edge"><title>2399482152464&#45;&#45;2399482153952</title>
<path fill="none" stroke="black" d="M41.5703,-74.8345C53.9798,-62.7697 71.7306,-45.5119 84.2043,-33.3847"/>
</g>
<!-- 2399482154528 -->
<g id="node8" class="node"><title>2399482154528</title>
<ellipse fill="none" stroke="black" cx="207" cy="-18" rx="27" ry="18"/>
<text text-anchor="middle" x="207" y="-14.5" font-family="Times New Roman,serif" font-size="15.00">D1</text>
</g>
<!-- 2399482154288&#45;&#45;2399482154528 -->
<g id="edge6" class="edge"><title>2399482154288&#45;&#45;2399482154528</title>
<path fill="none" stroke="black" d="M234.65,-72.7646C228.835,-61.456 221.11,-46.4367 215.304,-35.1473"/>
</g>
<!-- 2399482154672 -->
<g id="node9" class="node"><title>2399482154672</title>
<ellipse fill="none" stroke="black" cx="279" cy="-18" rx="27" ry="18"/>
<text text-anchor="middle" x="279" y="-14.5" font-family="Times New Roman,serif" font-size="15.00">D2</text>
</g>
<!-- 2399482154288&#45;&#45;2399482154672 -->
<g id="edge7" class="edge"><title>2399482154288&#45;&#45;2399482154672</title>
<path fill="none" stroke="black" d="M251.35,-72.7646C257.165,-61.456 264.89,-46.4367 270.696,-35.1473"/>
</g>
</g>
</svg>
