<?xml version="1.0" encoding="UTF-8" standalone="no"?>
<!DOCTYPE svg PUBLIC "-//W3C//DTD SVG 1.1//EN"
 "http://www.w3.org/Graphics/SVG/1.1/DTD/svg11.dtd">
<!-- Generated by graphviz version 2.38.0 (20140413.2041)
 -->
<!-- Title: pt Pages: 1 -->
<svg width="927pt" height="476pt"
 viewBox="0.00 0.00 927.00 476.00" xmlns="http://www.w3.org/2000/svg" xmlns:xlink="http://www.w3.org/1999/xlink">
<g id="graph0" class="graph" transform="scale(1 1) rotate(0) translate(4 472)">
<title>pt</title>
<!-- 2699320399568 -->
<g id="node1" class="node"><title>2699320399568</title>
<ellipse fill="none" stroke="black" cx="487" cy="-450" rx="27" ry="18"/>
<text text-anchor="middle" x="487" y="-446.5" font-family="Times New Roman,serif" font-size="15.00">seq</text>
</g>
<!-- 2699320399472 -->
<g id="node2" class="node"><title>2699320399472</title>
<ellipse fill="none" stroke="black" cx="243" cy="-378" rx="27" ry="18"/>
<text text-anchor="middle" x="243" y="-374.5" font-family="Times New Roman,serif" font-size="15.00">xor</text>
</g>
<!-- 2699320399568&#45;&#45;2699320399472 -->
<g id="edge10" class="edge"><title>2699320399568&#45;&#45;2699320399472</title>
<path fill="none" stroke="black" d="M462.712,-442.032C416.063,-428.649 314.408,-399.486 267.552,-386.043"/>
</g>
<!-- 2699323758672 -->
<g id="node12" class="node"><title>2699323758672</title>
<ellipse fill="none" stroke="black" cx="441" cy="-378" rx="46.6143" ry="18"/>
<text text-anchor="middle" x="441" y="-374.5" font-family="Times New Roman,serif" font-size="15.00">xor loop</text>
</g>
<!-- 2699320399568&#45;&#45;2699323758672 -->
<g id="edge20" class="edge"><title>2699320399568&#45;&#45;2699323758672</title>
<path fill="none" stroke="black" d="M476.562,-433.116C469.246,-421.983 459.483,-407.127 452.038,-395.797"/>
</g>
<!-- 2699323759248 -->
<g id="node22" class="node"><title>2699323759248</title>
<ellipse fill="none" stroke="black" cx="533" cy="-378" rx="27" ry="18"/>
<text text-anchor="middle" x="533" y="-374.5" font-family="Times New Roman,serif" font-size="15.00">and</text>
</g>
<!-- 2699320399568&#45;&#45;2699323759248 -->
<g id="edge25" class="edge"><title>2699320399568&#45;&#45;2699323759248</title>
<path fill="none" stroke="black" d="M497.438,-433.116C504.966,-421.66 515.085,-406.263 522.603,-394.821"/>
</g>
<!-- 2699324395776 -->
<g id="node27" class="node"><title>2699324395776</title>
<ellipse fill="none" stroke="black" cx="667" cy="-378" rx="27" ry="18"/>
<text text-anchor="middle" x="667" y="-374.5" font-family="Times New Roman,serif" font-size="15.00">xor</text>
</g>
<!-- 2699320399568&#45;&#45;2699324395776 -->
<g id="edge38" class="edge"><title>2699320399568&#45;&#45;2699324395776</title>
<path fill="none" stroke="black" d="M509.797,-440.134C544.326,-426.706 609.517,-401.355 644.104,-387.904"/>
</g>
<!-- 2699323760400 -->
<g id="node3" class="node"><title>2699323760400</title>
<ellipse fill="none" stroke="black" cx="99" cy="-306" rx="27" ry="18"/>
<text text-anchor="middle" x="99" y="-302.5" font-family="Times New Roman,serif" font-size="15.00">seq</text>
</g>
<!-- 2699320399472&#45;&#45;2699323760400 -->
<g id="edge3" class="edge"><title>2699320399472&#45;&#45;2699323760400</title>
<path fill="none" stroke="black" d="M221.752,-366.671C194.527,-353.437 147.602,-330.626 120.335,-317.371"/>
</g>
<!-- 2699323758384 -->
<g id="node6" class="node"><title>2699323758384</title>
<ellipse fill="none" stroke="black" cx="243" cy="-306" rx="27" ry="18"/>
<text text-anchor="middle" x="243" y="-302.5" font-family="Times New Roman,serif" font-size="15.00">seq</text>
</g>
<!-- 2699320399472&#45;&#45;2699323758384 -->
<g id="edge9" class="edge"><title>2699320399472&#45;&#45;2699323758384</title>
<path fill="none" stroke="black" d="M243,-359.697C243,-348.846 243,-334.917 243,-324.104"/>
</g>
<!-- 2699323758000 -->
<g id="node4" class="node"><title>2699323758000</title>
<ellipse fill="none" stroke="black" cx="27" cy="-234" rx="27" ry="18"/>
<text text-anchor="middle" x="27" y="-230.5" font-family="Times New Roman,serif" font-size="15.00">A</text>
</g>
<!-- 2699323760400&#45;&#45;2699323758000 -->
<g id="edge1" class="edge"><title>2699323760400&#45;&#45;2699323758000</title>
<path fill="none" stroke="black" d="M84.4297,-290.834C72.0202,-278.77 54.2694,-261.512 41.7957,-249.385"/>
</g>
<!-- 2699323759296 -->
<g id="node5" class="node"><title>2699323759296</title>
<ellipse fill="none" stroke="black" cx="99" cy="-234" rx="27" ry="18"/>
<text text-anchor="middle" x="99" y="-230.5" font-family="Times New Roman,serif" font-size="15.00">B</text>
</g>
<!-- 2699323760400&#45;&#45;2699323759296 -->
<g id="edge2" class="edge"><title>2699323760400&#45;&#45;2699323759296</title>
<path fill="none" stroke="black" d="M99,-287.697C99,-276.846 99,-262.917 99,-252.104"/>
</g>
<!-- 2699323758864 -->
<g id="node7" class="node"><title>2699323758864</title>
<ellipse fill="none" stroke="black" cx="171" cy="-234" rx="27" ry="18"/>
<text text-anchor="middle" x="171" y="-230.5" font-family="Times New Roman,serif" font-size="15.00">C</text>
</g>
<!-- 2699323758384&#45;&#45;2699323758864 -->
<g id="edge4" class="edge"><title>2699323758384&#45;&#45;2699323758864</title>
<path fill="none" stroke="black" d="M228.43,-290.834C216.02,-278.77 198.269,-261.512 185.796,-249.385"/>
</g>
<!-- 2699323757952 -->
<g id="node8" class="node"><title>2699323757952</title>
<ellipse fill="none" stroke="black" cx="243" cy="-234" rx="27" ry="18"/>
<text text-anchor="middle" x="243" y="-230.5" font-family="Times New Roman,serif" font-size="15.00">D</text>
</g>
<!-- 2699323758384&#45;&#45;2699323757952 -->
<g id="edge5" class="edge"><title>2699323758384&#45;&#45;2699323757952</title>
<path fill="none" stroke="black" d="M243,-287.697C243,-276.846 243,-262.917 243,-252.104"/>
</g>
<!-- 2699323759008 -->
<g id="node9" class="node"><title>2699323759008</title>
<ellipse fill="none" stroke="black" cx="315" cy="-234" rx="27" ry="18"/>
<text text-anchor="middle" x="315" y="-230.5" font-family="Times New Roman,serif" font-size="15.00">xor</text>
</g>
<!-- 2699323758384&#45;&#45;2699323759008 -->
<g id="edge8" class="edge"><title>2699323758384&#45;&#45;2699323759008</title>
<path fill="none" stroke="black" d="M257.57,-290.834C269.98,-278.77 287.731,-261.512 300.204,-249.385"/>
</g>
<!-- 2699323759584 -->
<g id="node10" class="node"><title>2699323759584</title>
<ellipse fill="none" stroke="black" cx="243" cy="-162" rx="27" ry="18"/>
<text text-anchor="middle" x="243" y="-158.5" font-family="Times New Roman,serif" font-size="15.00">E</text>
</g>
<!-- 2699323759008&#45;&#45;2699323759584 -->
<g id="edge6" class="edge"><title>2699323759008&#45;&#45;2699323759584</title>
<path fill="none" stroke="black" d="M300.43,-218.834C288.02,-206.77 270.269,-189.512 257.796,-177.385"/>
</g>
<!-- 2699323759488 -->
<g id="node11" class="node"><title>2699323759488</title>
<ellipse fill="none" stroke="black" cx="315" cy="-162" rx="27" ry="18"/>
<text text-anchor="middle" x="315" y="-158.5" font-family="Times New Roman,serif" font-size="15.00">F</text>
</g>
<!-- 2699323759008&#45;&#45;2699323759488 -->
<g id="edge7" class="edge"><title>2699323759008&#45;&#45;2699323759488</title>
<path fill="none" stroke="black" d="M315,-215.697C315,-204.846 315,-190.917 315,-180.104"/>
</g>
<!-- 2699323759872 -->
<g id="node13" class="node"><title>2699323759872</title>
<ellipse fill="none" stroke="black" cx="379" cy="-306" rx="27" ry="18"/>
<text text-anchor="middle" x="379" y="-302.5" font-family="Times New Roman,serif" font-size="15.00">Q</text>
</g>
<!-- 2699323758672&#45;&#45;2699323759872 -->
<g id="edge11" class="edge"><title>2699323758672&#45;&#45;2699323759872</title>
<path fill="none" stroke="black" d="M426.62,-360.765C416.318,-349.133 402.538,-333.575 392.453,-322.189"/>
</g>
<!-- 2699323760112 -->
<g id="node14" class="node"><title>2699323760112</title>
<ellipse fill="none" stroke="black" cx="451" cy="-306" rx="27" ry="18"/>
<text text-anchor="middle" x="451" y="-302.5" font-family="Times New Roman,serif" font-size="15.00">seq</text>
</g>
<!-- 2699323758672&#45;&#45;2699323760112 -->
<g id="edge19" class="edge"><title>2699323758672&#45;&#45;2699323760112</title>
<path fill="none" stroke="black" d="M443.472,-359.697C445.022,-348.846 447.012,-334.917 448.557,-324.104"/>
</g>
<!-- 2699323760304 -->
<g id="node15" class="node"><title>2699323760304</title>
<ellipse fill="none" stroke="black" cx="387" cy="-234" rx="27" ry="18"/>
<text text-anchor="middle" x="387" y="-230.5" font-family="Times New Roman,serif" font-size="15.00">xor</text>
</g>
<!-- 2699323760112&#45;&#45;2699323760304 -->
<g id="edge14" class="edge"><title>2699323760112&#45;&#45;2699323760304</title>
<path fill="none" stroke="black" d="M437.427,-290.155C426.566,-278.276 411.409,-261.697 400.553,-249.824"/>
</g>
<!-- 2699323760592 -->
<g id="node18" class="node"><title>2699323760592</title>
<ellipse fill="none" stroke="black" cx="459" cy="-234" rx="27" ry="18"/>
<text text-anchor="middle" x="459" y="-230.5" font-family="Times New Roman,serif" font-size="15.00">P</text>
</g>
<!-- 2699323760112&#45;&#45;2699323760592 -->
<g id="edge15" class="edge"><title>2699323760112&#45;&#45;2699323760592</title>
<path fill="none" stroke="black" d="M452.978,-287.697C454.218,-276.846 455.81,-262.917 457.045,-252.104"/>
</g>
<!-- 2699324395632 -->
<g id="node19" class="node"><title>2699324395632</title>
<ellipse fill="none" stroke="black" cx="531" cy="-234" rx="27" ry="18"/>
<text text-anchor="middle" x="531" y="-230.5" font-family="Times New Roman,serif" font-size="15.00">xor</text>
</g>
<!-- 2699323760112&#45;&#45;2699324395632 -->
<g id="edge18" class="edge"><title>2699323760112&#45;&#45;2699324395632</title>
<path fill="none" stroke="black" d="M466.805,-291.17C480.831,-278.898 501.212,-261.064 515.227,-248.801"/>
</g>
<!-- 2699323757520 -->
<g id="node16" class="node"><title>2699323757520</title>
<ellipse fill="none" stroke="black" cx="387" cy="-162" rx="27" ry="18"/>
<text text-anchor="middle" x="387" y="-158.5" font-family="Times New Roman,serif" font-size="15.00">H</text>
</g>
<!-- 2699323760304&#45;&#45;2699323757520 -->
<g id="edge12" class="edge"><title>2699323760304&#45;&#45;2699323757520</title>
<path fill="none" stroke="black" d="M387,-215.697C387,-204.846 387,-190.917 387,-180.104"/>
</g>
<!-- 2699323757376 -->
<g id="node17" class="node"><title>2699323757376</title>
<ellipse fill="none" stroke="black" cx="459" cy="-162" rx="27" ry="18"/>
<text text-anchor="middle" x="459" y="-158.5" font-family="Times New Roman,serif" font-size="15.00">G</text>
</g>
<!-- 2699323760304&#45;&#45;2699323757376 -->
<g id="edge13" class="edge"><title>2699323760304&#45;&#45;2699323757376</title>
<path fill="none" stroke="black" d="M401.57,-218.834C413.98,-206.77 431.731,-189.512 444.204,-177.385"/>
</g>
<!-- 2699324395872 -->
<g id="node20" class="node"><title>2699324395872</title>
<ellipse fill="none" stroke="black" cx="531" cy="-162" rx="27" ry="18"/>
<text text-anchor="middle" x="531" y="-158.5" font-family="Times New Roman,serif" font-size="15.00">I</text>
</g>
<!-- 2699324395632&#45;&#45;2699324395872 -->
<g id="edge16" class="edge"><title>2699324395632&#45;&#45;2699324395872</title>
<path fill="none" stroke="black" d="M531,-215.697C531,-204.846 531,-190.917 531,-180.104"/>
</g>
<!-- 2699324396016 -->
<g id="node21" class="node"><title>2699324396016</title>
<ellipse fill="none" stroke="black" cx="603" cy="-162" rx="27" ry="18"/>
<text text-anchor="middle" x="603" y="-158.5" font-family="Times New Roman,serif" font-size="15.00">J</text>
</g>
<!-- 2699324395632&#45;&#45;2699324396016 -->
<g id="edge17" class="edge"><title>2699324395632&#45;&#45;2699324396016</title>
<path fill="none" stroke="black" d="M545.57,-218.834C557.98,-206.77 575.731,-189.512 588.204,-177.385"/>
</g>
<!-- 2699324396160 -->
<g id="node23" class="node"><title>2699324396160</title>
<ellipse fill="none" stroke="black" cx="523" cy="-306" rx="27" ry="18"/>
<text text-anchor="middle" x="523" y="-302.5" font-family="Times New Roman,serif" font-size="15.00">K</text>
</g>
<!-- 2699323759248&#45;&#45;2699324396160 -->
<g id="edge21" class="edge"><title>2699323759248&#45;&#45;2699324396160</title>
<path fill="none" stroke="black" d="M530.579,-360.055C529.03,-349.211 527.026,-335.183 525.468,-324.275"/>
</g>
<!-- 2699324396304 -->
<g id="node24" class="node"><title>2699324396304</title>
<ellipse fill="none" stroke="black" cx="595" cy="-306" rx="27" ry="18"/>
<text text-anchor="middle" x="595" y="-302.5" font-family="Times New Roman,serif" font-size="15.00">xor</text>
</g>
<!-- 2699323759248&#45;&#45;2699324396304 -->
<g id="edge24" class="edge"><title>2699323759248&#45;&#45;2699324396304</title>
<path fill="none" stroke="black" d="M546.149,-362.155C556.67,-350.276 571.354,-333.697 581.87,-321.824"/>
</g>
<!-- 2699324396544 -->
<g id="node25" class="node"><title>2699324396544</title>
<ellipse fill="black" stroke="black" cx="588" cy="-234" rx="2.7" ry="2.7"/>
</g>
<!-- 2699324396304&#45;&#45;2699324396544 -->
<g id="edge22" class="edge"><title>2699324396304&#45;&#45;2699324396544</title>
<path fill="none" stroke="black" d="M593.27,-287.697C591.488,-269.883 588.877,-243.769 588.178,-236.776"/>
</g>
<!-- 2699324396688 -->
<g id="node26" class="node"><title>2699324396688</title>
<ellipse fill="none" stroke="black" cx="636" cy="-234" rx="27" ry="18"/>
<text text-anchor="middle" x="636" y="-230.5" font-family="Times New Roman,serif" font-size="15.00">L</text>
</g>
<!-- 2699324396304&#45;&#45;2699324396688 -->
<g id="edge23" class="edge"><title>2699324396304&#45;&#45;2699324396688</title>
<path fill="none" stroke="black" d="M604.509,-288.765C611.133,-277.456 619.93,-262.437 626.542,-251.147"/>
</g>
<!-- 2699324396928 -->
<g id="node28" class="node"><title>2699324396928</title>
<ellipse fill="none" stroke="black" cx="667" cy="-306" rx="27" ry="18"/>
<text text-anchor="middle" x="667" y="-302.5" font-family="Times New Roman,serif" font-size="15.00">T</text>
</g>
<!-- 2699324395776&#45;&#45;2699324396928 -->
<g id="edge26" class="edge"><title>2699324395776&#45;&#45;2699324396928</title>
<path fill="none" stroke="black" d="M667,-359.697C667,-348.846 667,-334.917 667,-324.104"/>
</g>
<!-- 2699324397072 -->
<g id="node29" class="node"><title>2699324397072</title>
<ellipse fill="none" stroke="black" cx="739" cy="-306" rx="27" ry="18"/>
<text text-anchor="middle" x="739" y="-302.5" font-family="Times New Roman,serif" font-size="15.00">seq</text>
</g>
<!-- 2699324395776&#45;&#45;2699324397072 -->
<g id="edge37" class="edge"><title>2699324395776&#45;&#45;2699324397072</title>
<path fill="none" stroke="black" d="M681.57,-362.834C693.98,-350.77 711.731,-333.512 724.204,-321.385"/>
</g>
<!-- 2699324397312 -->
<g id="node30" class="node"><title>2699324397312</title>
<ellipse fill="none" stroke="black" cx="728" cy="-234" rx="27" ry="18"/>
<text text-anchor="middle" x="728" y="-230.5" font-family="Times New Roman,serif" font-size="15.00">xor</text>
</g>
<!-- 2699324397072&#45;&#45;2699324397312 -->
<g id="edge33" class="edge"><title>2699324397072&#45;&#45;2699324397312</title>
<path fill="none" stroke="black" d="M736.337,-288.055C734.633,-277.211 732.429,-263.183 730.715,-252.275"/>
</g>
<!-- 2699324397456 -->
<g id="node37" class="node"><title>2699324397456</title>
<ellipse fill="none" stroke="black" cx="820" cy="-234" rx="27" ry="18"/>
<text text-anchor="middle" x="820" y="-230.5" font-family="Times New Roman,serif" font-size="15.00">xor</text>
</g>
<!-- 2699324397072&#45;&#45;2699324397456 -->
<g id="edge36" class="edge"><title>2699324397072&#45;&#45;2699324397456</title>
<path fill="none" stroke="black" d="M755.003,-291.17C769.203,-278.898 789.84,-261.064 804.03,-248.801"/>
</g>
<!-- 2699324397552 -->
<g id="node31" class="node"><title>2699324397552</title>
<ellipse fill="black" stroke="black" cx="661" cy="-162" rx="2.7" ry="2.7"/>
</g>
<!-- 2699324397312&#45;&#45;2699324397552 -->
<g id="edge27" class="edge"><title>2699324397312&#45;&#45;2699324397552</title>
<path fill="none" stroke="black" d="M714.118,-218.496C696.946,-200.555 669.157,-171.522 662.477,-164.544"/>
</g>
<!-- 2699324396880 -->
<g id="node32" class="node"><title>2699324396880</title>
<ellipse fill="none" stroke="black" cx="728" cy="-162" rx="46.6143" ry="18"/>
<text text-anchor="middle" x="728" y="-158.5" font-family="Times New Roman,serif" font-size="15.00">xor loop</text>
</g>
<!-- 2699324397312&#45;&#45;2699324396880 -->
<g id="edge32" class="edge"><title>2699324397312&#45;&#45;2699324396880</title>
<path fill="none" stroke="black" d="M728,-215.697C728,-204.846 728,-190.917 728,-180.104"/>
</g>
<!-- 2699324397936 -->
<g id="node33" class="node"><title>2699324397936</title>
<ellipse fill="none" stroke="black" cx="692" cy="-90" rx="27" ry="18"/>
<text text-anchor="middle" x="692" y="-86.5" font-family="Times New Roman,serif" font-size="15.00">M</text>
</g>
<!-- 2699324396880&#45;&#45;2699324397936 -->
<g id="edge28" class="edge"><title>2699324396880&#45;&#45;2699324397936</title>
<path fill="none" stroke="black" d="M719.285,-144.055C713.542,-132.887 706.062,-118.343 700.386,-107.307"/>
</g>
<!-- 2699324398080 -->
<g id="node34" class="node"><title>2699324398080</title>
<ellipse fill="none" stroke="black" cx="764" cy="-90" rx="27" ry="18"/>
<text text-anchor="middle" x="764" y="-86.5" font-family="Times New Roman,serif" font-size="15.00">seq</text>
</g>
<!-- 2699324396880&#45;&#45;2699324398080 -->
<g id="edge31" class="edge"><title>2699324396880&#45;&#45;2699324398080</title>
<path fill="none" stroke="black" d="M736.715,-144.055C742.458,-132.887 749.938,-118.343 755.614,-107.307"/>
</g>
<!-- 2699324398320 -->
<g id="node35" class="node"><title>2699324398320</title>
<ellipse fill="none" stroke="black" cx="728" cy="-18" rx="27" ry="18"/>
<text text-anchor="middle" x="728" y="-14.5" font-family="Times New Roman,serif" font-size="15.00">N</text>
</g>
<!-- 2699324398080&#45;&#45;2699324398320 -->
<g id="edge29" class="edge"><title>2699324398080&#45;&#45;2699324398320</title>
<path fill="none" stroke="black" d="M755.65,-72.7646C749.835,-61.456 742.11,-46.4367 736.304,-35.1473"/>
</g>
<!-- 2699324398464 -->
<g id="node36" class="node"><title>2699324398464</title>
<ellipse fill="none" stroke="black" cx="800" cy="-18" rx="27" ry="18"/>
<text text-anchor="middle" x="800" y="-14.5" font-family="Times New Roman,serif" font-size="15.00">O</text>
</g>
<!-- 2699324398080&#45;&#45;2699324398464 -->
<g id="edge30" class="edge"><title>2699324398080&#45;&#45;2699324398464</title>
<path fill="none" stroke="black" d="M772.35,-72.7646C778.165,-61.456 785.89,-46.4367 791.696,-35.1473"/>
</g>
<!-- 2699324398560 -->
<g id="node38" class="node"><title>2699324398560</title>
<ellipse fill="none" stroke="black" cx="820" cy="-162" rx="27" ry="18"/>
<text text-anchor="middle" x="820" y="-158.5" font-family="Times New Roman,serif" font-size="15.00">S</text>
</g>
<!-- 2699324397456&#45;&#45;2699324398560 -->
<g id="edge34" class="edge"><title>2699324397456&#45;&#45;2699324398560</title>
<path fill="none" stroke="black" d="M820,-215.697C820,-204.846 820,-190.917 820,-180.104"/>
</g>
<!-- 2699324398992 -->
<g id="node39" class="node"><title>2699324398992</title>
<ellipse fill="none" stroke="black" cx="892" cy="-162" rx="27" ry="18"/>
<text text-anchor="middle" x="892" y="-158.5" font-family="Times New Roman,serif" font-size="15.00">R</text>
</g>
<!-- 2699324397456&#45;&#45;2699324398992 -->
<g id="edge35" class="edge"><title>2699324397456&#45;&#45;2699324398992</title>
<path fill="none" stroke="black" d="M834.57,-218.834C846.98,-206.77 864.731,-189.512 877.204,-177.385"/>
</g>
</g>
</svg>
