<?xml version="1.0" encoding="UTF-8" standalone="no"?>
<!DOCTYPE svg PUBLIC "-//W3C//DTD SVG 1.1//EN"
 "http://www.w3.org/Graphics/SVG/1.1/DTD/svg11.dtd">
<!-- Generated by graphviz version 2.38.0 (20140413.2041)
 -->
<!-- Title: pt Pages: 1 -->
<svg width="440pt" height="332pt"
 viewBox="0.00 0.00 440.00 332.00" xmlns="http://www.w3.org/2000/svg" xmlns:xlink="http://www.w3.org/1999/xlink">
<g id="graph0" class="graph" transform="scale(1 1) rotate(0) translate(4 328)">
<title>pt</title>
<!-- 2497169521488 -->
<g id="node1" class="node"><title>2497169521488</title>
<ellipse fill="none" stroke="black" cx="234" cy="-306" rx="27" ry="18"/>
<text text-anchor="middle" x="234" y="-302.5" font-family="Times New Roman,serif" font-size="15.00">seq</text>
</g>
<!-- 2497169520816 -->
<g id="node2" class="node"><title>2497169520816</title>
<ellipse fill="none" stroke="black" cx="162" cy="-234" rx="27" ry="18"/>
<text text-anchor="middle" x="162" y="-230.5" font-family="Times New Roman,serif" font-size="15.00">xor</text>
</g>
<!-- 2497169521488&#45;&#45;2497169520816 -->
<g id="edge11" class="edge"><title>2497169521488&#45;&#45;2497169520816</title>
<path fill="none" stroke="black" d="M219.43,-290.834C207.02,-278.77 189.269,-261.512 176.796,-249.385"/>
</g>
<!-- 2497169519472 -->
<g id="node13" class="node"><title>2497169519472</title>
<ellipse fill="none" stroke="black" cx="234" cy="-234" rx="27" ry="18"/>
<text text-anchor="middle" x="234" y="-230.5" font-family="Times New Roman,serif" font-size="15.00">G</text>
</g>
<!-- 2497169521488&#45;&#45;2497169519472 -->
<g id="edge12" class="edge"><title>2497169521488&#45;&#45;2497169519472</title>
<path fill="none" stroke="black" d="M234,-287.697C234,-276.846 234,-262.917 234,-252.104"/>
</g>
<!-- 2497173333856 -->
<g id="node14" class="node"><title>2497173333856</title>
<ellipse fill="none" stroke="black" cx="306" cy="-234" rx="27" ry="18"/>
<text text-anchor="middle" x="306" y="-230.5" font-family="Times New Roman,serif" font-size="15.00">xor</text>
</g>
<!-- 2497169521488&#45;&#45;2497173333856 -->
<g id="edge17" class="edge"><title>2497169521488&#45;&#45;2497173333856</title>
<path fill="none" stroke="black" d="M248.57,-290.834C260.98,-278.77 278.731,-261.512 291.204,-249.385"/>
</g>
<!-- 2497169521920 -->
<g id="node3" class="node"><title>2497169521920</title>
<ellipse fill="none" stroke="black" cx="99" cy="-162" rx="27" ry="18"/>
<text text-anchor="middle" x="99" y="-158.5" font-family="Times New Roman,serif" font-size="15.00">seq</text>
</g>
<!-- 2497169520816&#45;&#45;2497169521920 -->
<g id="edge5" class="edge"><title>2497169520816&#45;&#45;2497169521920</title>
<path fill="none" stroke="black" d="M148.639,-218.155C137.948,-206.276 123.028,-189.697 112.341,-177.824"/>
</g>
<!-- 2497171123024 -->
<g id="node8" class="node"><title>2497171123024</title>
<ellipse fill="none" stroke="black" cx="171" cy="-162" rx="27" ry="18"/>
<text text-anchor="middle" x="171" y="-158.5" font-family="Times New Roman,serif" font-size="15.00">seq</text>
</g>
<!-- 2497169520816&#45;&#45;2497171123024 -->
<g id="edge10" class="edge"><title>2497169520816&#45;&#45;2497171123024</title>
<path fill="none" stroke="black" d="M164.179,-216.055C165.573,-205.211 167.376,-191.183 168.779,-180.275"/>
</g>
<!-- 2497173333904 -->
<g id="node4" class="node"><title>2497173333904</title>
<ellipse fill="none" stroke="black" cx="27" cy="-90" rx="27" ry="18"/>
<text text-anchor="middle" x="27" y="-86.5" font-family="Times New Roman,serif" font-size="15.00">A</text>
</g>
<!-- 2497169521920&#45;&#45;2497173333904 -->
<g id="edge1" class="edge"><title>2497169521920&#45;&#45;2497173333904</title>
<path fill="none" stroke="black" d="M84.4297,-146.834C72.0202,-134.77 54.2694,-117.512 41.7957,-105.385"/>
</g>
<!-- 2497173333184 -->
<g id="node5" class="node"><title>2497173333184</title>
<ellipse fill="none" stroke="black" cx="99" cy="-90" rx="27" ry="18"/>
<text text-anchor="middle" x="99" y="-86.5" font-family="Times New Roman,serif" font-size="15.00">and</text>
</g>
<!-- 2497169521920&#45;&#45;2497173333184 -->
<g id="edge4" class="edge"><title>2497169521920&#45;&#45;2497173333184</title>
<path fill="none" stroke="black" d="M99,-143.697C99,-132.846 99,-118.917 99,-108.104"/>
</g>
<!-- 2497173333232 -->
<g id="node6" class="node"><title>2497173333232</title>
<ellipse fill="none" stroke="black" cx="45" cy="-18" rx="27" ry="18"/>
<text text-anchor="middle" x="45" y="-14.5" font-family="Times New Roman,serif" font-size="15.00">C</text>
</g>
<!-- 2497173333184&#45;&#45;2497173333232 -->
<g id="edge2" class="edge"><title>2497173333184&#45;&#45;2497173333232</title>
<path fill="none" stroke="black" d="M87.0156,-73.4647C78.0669,-61.8645 65.8915,-46.0816 56.9508,-34.4918"/>
</g>
<!-- 2497173333568 -->
<g id="node7" class="node"><title>2497173333568</title>
<ellipse fill="none" stroke="black" cx="117" cy="-18" rx="27" ry="18"/>
<text text-anchor="middle" x="117" y="-14.5" font-family="Times New Roman,serif" font-size="15.00">E</text>
</g>
<!-- 2497173333184&#45;&#45;2497173333568 -->
<g id="edge3" class="edge"><title>2497173333184&#45;&#45;2497173333568</title>
<path fill="none" stroke="black" d="M103.357,-72.055C106.187,-61.0492 109.861,-46.7636 112.683,-35.789"/>
</g>
<!-- 2497173334960 -->
<g id="node9" class="node"><title>2497173334960</title>
<ellipse fill="none" stroke="black" cx="171" cy="-90" rx="27" ry="18"/>
<text text-anchor="middle" x="171" y="-86.5" font-family="Times New Roman,serif" font-size="15.00">B</text>
</g>
<!-- 2497171123024&#45;&#45;2497173334960 -->
<g id="edge6" class="edge"><title>2497171123024&#45;&#45;2497173334960</title>
<path fill="none" stroke="black" d="M171,-143.697C171,-132.846 171,-118.917 171,-108.104"/>
</g>
<!-- 2497173332896 -->
<g id="node10" class="node"><title>2497173332896</title>
<ellipse fill="none" stroke="black" cx="243" cy="-90" rx="27" ry="18"/>
<text text-anchor="middle" x="243" y="-86.5" font-family="Times New Roman,serif" font-size="15.00">and</text>
</g>
<!-- 2497171123024&#45;&#45;2497173332896 -->
<g id="edge9" class="edge"><title>2497171123024&#45;&#45;2497173332896</title>
<path fill="none" stroke="black" d="M185.57,-146.834C197.98,-134.77 215.731,-117.512 228.204,-105.385"/>
</g>
<!-- 2497173334096 -->
<g id="node11" class="node"><title>2497173334096</title>
<ellipse fill="none" stroke="black" cx="225" cy="-18" rx="27" ry="18"/>
<text text-anchor="middle" x="225" y="-14.5" font-family="Times New Roman,serif" font-size="15.00">F</text>
</g>
<!-- 2497173332896&#45;&#45;2497173334096 -->
<g id="edge7" class="edge"><title>2497173332896&#45;&#45;2497173334096</title>
<path fill="none" stroke="black" d="M238.643,-72.055C235.813,-61.0492 232.139,-46.7636 229.317,-35.789"/>
</g>
<!-- 2497173334432 -->
<g id="node12" class="node"><title>2497173334432</title>
<ellipse fill="none" stroke="black" cx="297" cy="-18" rx="27" ry="18"/>
<text text-anchor="middle" x="297" y="-14.5" font-family="Times New Roman,serif" font-size="15.00">D</text>
</g>
<!-- 2497173332896&#45;&#45;2497173334432 -->
<g id="edge8" class="edge"><title>2497173332896&#45;&#45;2497173334432</title>
<path fill="none" stroke="black" d="M254.984,-73.4647C263.933,-61.8645 276.108,-46.0816 285.049,-34.4918"/>
</g>
<!-- 2497173334768 -->
<g id="node15" class="node"><title>2497173334768</title>
<ellipse fill="none" stroke="black" cx="270" cy="-162" rx="27" ry="18"/>
<text text-anchor="middle" x="270" y="-158.5" font-family="Times New Roman,serif" font-size="15.00">J</text>
</g>
<!-- 2497173333856&#45;&#45;2497173334768 -->
<g id="edge13" class="edge"><title>2497173333856&#45;&#45;2497173334768</title>
<path fill="none" stroke="black" d="M297.65,-216.765C291.835,-205.456 284.11,-190.437 278.304,-179.147"/>
</g>
<!-- 2497173335056 -->
<g id="node16" class="node"><title>2497173335056</title>
<ellipse fill="none" stroke="black" cx="342" cy="-162" rx="27" ry="18"/>
<text text-anchor="middle" x="342" y="-158.5" font-family="Times New Roman,serif" font-size="15.00">and</text>
</g>
<!-- 2497173333856&#45;&#45;2497173335056 -->
<g id="edge16" class="edge"><title>2497173333856&#45;&#45;2497173335056</title>
<path fill="none" stroke="black" d="M314.35,-216.765C320.165,-205.456 327.89,-190.437 333.696,-179.147"/>
</g>
<!-- 2497173335200 -->
<g id="node17" class="node"><title>2497173335200</title>
<ellipse fill="none" stroke="black" cx="333" cy="-90" rx="27" ry="18"/>
<text text-anchor="middle" x="333" y="-86.5" font-family="Times New Roman,serif" font-size="15.00">H</text>
</g>
<!-- 2497173335056&#45;&#45;2497173335200 -->
<g id="edge14" class="edge"><title>2497173335056&#45;&#45;2497173335200</title>
<path fill="none" stroke="black" d="M339.821,-144.055C338.427,-133.211 336.624,-119.183 335.221,-108.275"/>
</g>
<!-- 2497173335392 -->
<g id="node18" class="node"><title>2497173335392</title>
<ellipse fill="none" stroke="black" cx="405" cy="-90" rx="27" ry="18"/>
<text text-anchor="middle" x="405" y="-86.5" font-family="Times New Roman,serif" font-size="15.00">I</text>
</g>
<!-- 2497173335056&#45;&#45;2497173335392 -->
<g id="edge15" class="edge"><title>2497173335056&#45;&#45;2497173335392</title>
<path fill="none" stroke="black" d="M355.361,-146.155C366.052,-134.276 380.972,-117.697 391.659,-105.824"/>
</g>
</g>
</svg>
