<?xml version="1.0" encoding="UTF-8" standalone="no"?>
<!DOCTYPE svg PUBLIC "-//W3C//DTD SVG 1.1//EN"
 "http://www.w3.org/Graphics/SVG/1.1/DTD/svg11.dtd">
<!-- Generated by graphviz version 2.38.0 (20140413.2041)
 -->
<!-- Title: pt Pages: 1 -->
<svg width="314pt" height="188pt"
 viewBox="0.00 0.00 314.00 188.00" xmlns="http://www.w3.org/2000/svg" xmlns:xlink="http://www.w3.org/1999/xlink">
<g id="graph0" class="graph" transform="scale(1 1) rotate(0) translate(4 184)">
<title>pt</title>
<!-- 2711878993376 -->
<g id="node1" class="node"><title>2711878993376</title>
<ellipse fill="none" stroke="black" cx="171" cy="-162" rx="27" ry="18"/>
<text text-anchor="middle" x="171" y="-158.5" font-family="Times New Roman,serif" font-size="15.00">seq</text>
</g>
<!-- 2711878994288 -->
<g id="node2" class="node"><title>2711878994288</title>
<ellipse fill="none" stroke="black" cx="63" cy="-90" rx="27" ry="18"/>
<text text-anchor="middle" x="63" y="-86.5" font-family="Times New Roman,serif" font-size="15.00">xor</text>
</g>
<!-- 2711878993376&#45;&#45;2711878994288 -->
<g id="edge3" class="edge"><title>2711878993376&#45;&#45;2711878994288</title>
<path fill="none" stroke="black" d="M152.188,-148.807C132.365,-135.959 101.338,-115.848 81.5966,-103.053"/>
</g>
<!-- 2711878992704 -->
<g id="node5" class="node"><title>2711878992704</title>
<ellipse fill="none" stroke="black" cx="135" cy="-90" rx="27" ry="18"/>
<text text-anchor="middle" x="135" y="-86.5" font-family="Times New Roman,serif" font-size="15.00">C</text>
</g>
<!-- 2711878993376&#45;&#45;2711878992704 -->
<g id="edge4" class="edge"><title>2711878993376&#45;&#45;2711878992704</title>
<path fill="none" stroke="black" d="M162.65,-144.765C156.835,-133.456 149.11,-118.437 143.304,-107.147"/>
</g>
<!-- 2711878992464 -->
<g id="node6" class="node"><title>2711878992464</title>
<ellipse fill="none" stroke="black" cx="207" cy="-90" rx="27" ry="18"/>
<text text-anchor="middle" x="207" y="-86.5" font-family="Times New Roman,serif" font-size="15.00">xor</text>
</g>
<!-- 2711878993376&#45;&#45;2711878992464 -->
<g id="edge7" class="edge"><title>2711878993376&#45;&#45;2711878992464</title>
<path fill="none" stroke="black" d="M179.35,-144.765C185.165,-133.456 192.89,-118.437 198.696,-107.147"/>
</g>
<!-- 2711878992080 -->
<g id="node9" class="node"><title>2711878992080</title>
<ellipse fill="none" stroke="black" cx="279" cy="-90" rx="27" ry="18"/>
<text text-anchor="middle" x="279" y="-86.5" font-family="Times New Roman,serif" font-size="15.00">F</text>
</g>
<!-- 2711878993376&#45;&#45;2711878992080 -->
<g id="edge8" class="edge"><title>2711878993376&#45;&#45;2711878992080</title>
<path fill="none" stroke="black" d="M189.812,-148.807C209.635,-135.959 240.662,-115.848 260.403,-103.053"/>
</g>
<!-- 2711878995776 -->
<g id="node3" class="node"><title>2711878995776</title>
<ellipse fill="none" stroke="black" cx="27" cy="-18" rx="27" ry="18"/>
<text text-anchor="middle" x="27" y="-14.5" font-family="Times New Roman,serif" font-size="15.00">A</text>
</g>
<!-- 2711878994288&#45;&#45;2711878995776 -->
<g id="edge1" class="edge"><title>2711878994288&#45;&#45;2711878995776</title>
<path fill="none" stroke="black" d="M54.6504,-72.7646C48.8345,-61.456 41.1103,-46.4367 35.3043,-35.1473"/>
</g>
<!-- 2711878993520 -->
<g id="node4" class="node"><title>2711878993520</title>
<ellipse fill="none" stroke="black" cx="99" cy="-18" rx="27" ry="18"/>
<text text-anchor="middle" x="99" y="-14.5" font-family="Times New Roman,serif" font-size="15.00">B</text>
</g>
<!-- 2711878994288&#45;&#45;2711878993520 -->
<g id="edge2" class="edge"><title>2711878994288&#45;&#45;2711878993520</title>
<path fill="none" stroke="black" d="M71.3496,-72.7646C77.1655,-61.456 84.8897,-46.4367 90.6957,-35.1473"/>
</g>
<!-- 2711878992320 -->
<g id="node7" class="node"><title>2711878992320</title>
<ellipse fill="none" stroke="black" cx="189" cy="-18" rx="27" ry="18"/>
<text text-anchor="middle" x="189" y="-14.5" font-family="Times New Roman,serif" font-size="15.00">E</text>
</g>
<!-- 2711878992464&#45;&#45;2711878992320 -->
<g id="edge5" class="edge"><title>2711878992464&#45;&#45;2711878992320</title>
<path fill="none" stroke="black" d="M202.643,-72.055C199.813,-61.0492 196.139,-46.7636 193.317,-35.789"/>
</g>
<!-- 2711878992800 -->
<g id="node8" class="node"><title>2711878992800</title>
<ellipse fill="none" stroke="black" cx="261" cy="-18" rx="27" ry="18"/>
<text text-anchor="middle" x="261" y="-14.5" font-family="Times New Roman,serif" font-size="15.00">D</text>
</g>
<!-- 2711878992464&#45;&#45;2711878992800 -->
<g id="edge6" class="edge"><title>2711878992464&#45;&#45;2711878992800</title>
<path fill="none" stroke="black" d="M218.984,-73.4647C227.933,-61.8645 240.108,-46.0816 249.049,-34.4918"/>
</g>
</g>
</svg>
