<?xml version="1.0" encoding="UTF-8" standalone="no"?>
<!DOCTYPE svg PUBLIC "-//W3C//DTD SVG 1.1//EN"
 "http://www.w3.org/Graphics/SVG/1.1/DTD/svg11.dtd">
<!-- Generated by graphviz version 2.38.0 (20140413.2041)
 -->
<!-- Title: pt Pages: 1 -->
<svg width="966pt" height="476pt"
 viewBox="0.00 0.00 966.00 476.00" xmlns="http://www.w3.org/2000/svg" xmlns:xlink="http://www.w3.org/1999/xlink">
<g id="graph0" class="graph" transform="scale(1 1) rotate(0) translate(4 472)">
<title>pt</title>
<!-- 1609208557472 -->
<g id="node1" class="node"><title>1609208557472</title>
<ellipse fill="none" stroke="black" cx="505" cy="-450" rx="27" ry="18"/>
<text text-anchor="middle" x="505" y="-446.5" font-family="Times New Roman,serif" font-size="15.00">seq</text>
</g>
<!-- 1609238838816 -->
<g id="node2" class="node"><title>1609238838816</title>
<ellipse fill="none" stroke="black" cx="243" cy="-378" rx="27" ry="18"/>
<text text-anchor="middle" x="243" y="-374.5" font-family="Times New Roman,serif" font-size="15.00">xor</text>
</g>
<!-- 1609208557472&#45;&#45;1609238838816 -->
<g id="edge10" class="edge"><title>1609208557472&#45;&#45;1609238838816</title>
<path fill="none" stroke="black" d="M480.352,-442.415C430.417,-429.073 317.813,-398.988 267.774,-385.619"/>
</g>
<!-- 1609056055008 -->
<g id="node12" class="node"><title>1609056055008</title>
<ellipse fill="none" stroke="black" cx="459" cy="-378" rx="46.6143" ry="18"/>
<text text-anchor="middle" x="459" y="-374.5" font-family="Times New Roman,serif" font-size="15.00">xor loop</text>
</g>
<!-- 1609208557472&#45;&#45;1609056055008 -->
<g id="edge20" class="edge"><title>1609208557472&#45;&#45;1609056055008</title>
<path fill="none" stroke="black" d="M494.562,-433.116C487.246,-421.983 477.483,-407.127 470.038,-395.797"/>
</g>
<!-- 1608933443040 -->
<g id="node22" class="node"><title>1608933443040</title>
<ellipse fill="none" stroke="black" cx="551" cy="-378" rx="27" ry="18"/>
<text text-anchor="middle" x="551" y="-374.5" font-family="Times New Roman,serif" font-size="15.00">and</text>
</g>
<!-- 1609208557472&#45;&#45;1608933443040 -->
<g id="edge25" class="edge"><title>1609208557472&#45;&#45;1608933443040</title>
<path fill="none" stroke="black" d="M515.438,-433.116C522.966,-421.66 533.085,-406.263 540.603,-394.821"/>
</g>
<!-- 1609238870480 -->
<g id="node27" class="node"><title>1609238870480</title>
<ellipse fill="none" stroke="black" cx="693" cy="-378" rx="27" ry="18"/>
<text text-anchor="middle" x="693" y="-374.5" font-family="Times New Roman,serif" font-size="15.00">xor</text>
</g>
<!-- 1609208557472&#45;&#45;1609238870480 -->
<g id="edge38" class="edge"><title>1609208557472&#45;&#45;1609238870480</title>
<path fill="none" stroke="black" d="M528.052,-440.417C564.233,-426.945 633.938,-400.991 670.053,-387.544"/>
</g>
<!-- 1609056055200 -->
<g id="node3" class="node"><title>1609056055200</title>
<ellipse fill="none" stroke="black" cx="99" cy="-306" rx="27" ry="18"/>
<text text-anchor="middle" x="99" y="-302.5" font-family="Times New Roman,serif" font-size="15.00">seq</text>
</g>
<!-- 1609238838816&#45;&#45;1609056055200 -->
<g id="edge3" class="edge"><title>1609238838816&#45;&#45;1609056055200</title>
<path fill="none" stroke="black" d="M221.752,-366.671C194.527,-353.437 147.602,-330.626 120.335,-317.371"/>
</g>
<!-- 1608933443136 -->
<g id="node6" class="node"><title>1608933443136</title>
<ellipse fill="none" stroke="black" cx="243" cy="-306" rx="27" ry="18"/>
<text text-anchor="middle" x="243" y="-302.5" font-family="Times New Roman,serif" font-size="15.00">seq</text>
</g>
<!-- 1609238838816&#45;&#45;1608933443136 -->
<g id="edge9" class="edge"><title>1609238838816&#45;&#45;1608933443136</title>
<path fill="none" stroke="black" d="M243,-359.697C243,-348.846 243,-334.917 243,-324.104"/>
</g>
<!-- 1608933443328 -->
<g id="node4" class="node"><title>1608933443328</title>
<ellipse fill="none" stroke="black" cx="27" cy="-234" rx="27" ry="18"/>
<text text-anchor="middle" x="27" y="-230.5" font-family="Times New Roman,serif" font-size="15.00">A</text>
</g>
<!-- 1609056055200&#45;&#45;1608933443328 -->
<g id="edge1" class="edge"><title>1609056055200&#45;&#45;1608933443328</title>
<path fill="none" stroke="black" d="M84.4297,-290.834C72.0202,-278.77 54.2694,-261.512 41.7957,-249.385"/>
</g>
<!-- 1608933441600 -->
<g id="node5" class="node"><title>1608933441600</title>
<ellipse fill="none" stroke="black" cx="99" cy="-234" rx="27" ry="18"/>
<text text-anchor="middle" x="99" y="-230.5" font-family="Times New Roman,serif" font-size="15.00">B</text>
</g>
<!-- 1609056055200&#45;&#45;1608933441600 -->
<g id="edge2" class="edge"><title>1609056055200&#45;&#45;1608933441600</title>
<path fill="none" stroke="black" d="M99,-287.697C99,-276.846 99,-262.917 99,-252.104"/>
</g>
<!-- 1608933444960 -->
<g id="node7" class="node"><title>1608933444960</title>
<ellipse fill="none" stroke="black" cx="171" cy="-234" rx="27" ry="18"/>
<text text-anchor="middle" x="171" y="-230.5" font-family="Times New Roman,serif" font-size="15.00">C</text>
</g>
<!-- 1608933443136&#45;&#45;1608933444960 -->
<g id="edge4" class="edge"><title>1608933443136&#45;&#45;1608933444960</title>
<path fill="none" stroke="black" d="M228.43,-290.834C216.02,-278.77 198.269,-261.512 185.796,-249.385"/>
</g>
<!-- 1608933443856 -->
<g id="node8" class="node"><title>1608933443856</title>
<ellipse fill="none" stroke="black" cx="243" cy="-234" rx="27" ry="18"/>
<text text-anchor="middle" x="243" y="-230.5" font-family="Times New Roman,serif" font-size="15.00">D</text>
</g>
<!-- 1608933443136&#45;&#45;1608933443856 -->
<g id="edge5" class="edge"><title>1608933443136&#45;&#45;1608933443856</title>
<path fill="none" stroke="black" d="M243,-287.697C243,-276.846 243,-262.917 243,-252.104"/>
</g>
<!-- 1608933442800 -->
<g id="node9" class="node"><title>1608933442800</title>
<ellipse fill="none" stroke="black" cx="315" cy="-234" rx="27" ry="18"/>
<text text-anchor="middle" x="315" y="-230.5" font-family="Times New Roman,serif" font-size="15.00">xor</text>
</g>
<!-- 1608933443136&#45;&#45;1608933442800 -->
<g id="edge8" class="edge"><title>1608933443136&#45;&#45;1608933442800</title>
<path fill="none" stroke="black" d="M257.57,-290.834C269.98,-278.77 287.731,-261.512 300.204,-249.385"/>
</g>
<!-- 1608933443712 -->
<g id="node10" class="node"><title>1608933443712</title>
<ellipse fill="none" stroke="black" cx="243" cy="-162" rx="27" ry="18"/>
<text text-anchor="middle" x="243" y="-158.5" font-family="Times New Roman,serif" font-size="15.00">E</text>
</g>
<!-- 1608933442800&#45;&#45;1608933443712 -->
<g id="edge6" class="edge"><title>1608933442800&#45;&#45;1608933443712</title>
<path fill="none" stroke="black" d="M300.43,-218.834C288.02,-206.77 270.269,-189.512 257.796,-177.385"/>
</g>
<!-- 1608933445152 -->
<g id="node11" class="node"><title>1608933445152</title>
<ellipse fill="none" stroke="black" cx="315" cy="-162" rx="27" ry="18"/>
<text text-anchor="middle" x="315" y="-158.5" font-family="Times New Roman,serif" font-size="15.00">F</text>
</g>
<!-- 1608933442800&#45;&#45;1608933445152 -->
<g id="edge7" class="edge"><title>1608933442800&#45;&#45;1608933445152</title>
<path fill="none" stroke="black" d="M315,-215.697C315,-204.846 315,-190.917 315,-180.104"/>
</g>
<!-- 1608933443616 -->
<g id="node13" class="node"><title>1608933443616</title>
<ellipse fill="none" stroke="black" cx="392" cy="-306" rx="27" ry="18"/>
<text text-anchor="middle" x="392" y="-302.5" font-family="Times New Roman,serif" font-size="15.00">Q</text>
</g>
<!-- 1609056055008&#45;&#45;1608933443616 -->
<g id="edge11" class="edge"><title>1609056055008&#45;&#45;1608933443616</title>
<path fill="none" stroke="black" d="M443.46,-360.765C432.173,-348.971 417.022,-333.142 406.086,-321.717"/>
</g>
<!-- 1608933445200 -->
<g id="node14" class="node"><title>1608933445200</title>
<ellipse fill="none" stroke="black" cx="464" cy="-306" rx="27" ry="18"/>
<text text-anchor="middle" x="464" y="-302.5" font-family="Times New Roman,serif" font-size="15.00">seq</text>
</g>
<!-- 1609056055008&#45;&#45;1608933445200 -->
<g id="edge19" class="edge"><title>1609056055008&#45;&#45;1608933445200</title>
<path fill="none" stroke="black" d="M460.236,-359.697C461.011,-348.846 462.006,-334.917 462.778,-324.104"/>
</g>
<!-- 1609238868512 -->
<g id="node15" class="node"><title>1609238868512</title>
<ellipse fill="none" stroke="black" cx="392" cy="-234" rx="27" ry="18"/>
<text text-anchor="middle" x="392" y="-230.5" font-family="Times New Roman,serif" font-size="15.00">xor</text>
</g>
<!-- 1608933445200&#45;&#45;1609238868512 -->
<g id="edge14" class="edge"><title>1608933445200&#45;&#45;1609238868512</title>
<path fill="none" stroke="black" d="M449.43,-290.834C437.02,-278.77 419.269,-261.512 406.796,-249.385"/>
</g>
<!-- 1609238871632 -->
<g id="node18" class="node"><title>1609238871632</title>
<ellipse fill="none" stroke="black" cx="464" cy="-234" rx="27" ry="18"/>
<text text-anchor="middle" x="464" y="-230.5" font-family="Times New Roman,serif" font-size="15.00">P</text>
</g>
<!-- 1608933445200&#45;&#45;1609238871632 -->
<g id="edge15" class="edge"><title>1608933445200&#45;&#45;1609238871632</title>
<path fill="none" stroke="black" d="M464,-287.697C464,-276.846 464,-262.917 464,-252.104"/>
</g>
<!-- 1609238871008 -->
<g id="node19" class="node"><title>1609238871008</title>
<ellipse fill="none" stroke="black" cx="536" cy="-234" rx="27" ry="18"/>
<text text-anchor="middle" x="536" y="-230.5" font-family="Times New Roman,serif" font-size="15.00">xor</text>
</g>
<!-- 1608933445200&#45;&#45;1609238871008 -->
<g id="edge18" class="edge"><title>1608933445200&#45;&#45;1609238871008</title>
<path fill="none" stroke="black" d="M478.57,-290.834C490.98,-278.77 508.731,-261.512 521.204,-249.385"/>
</g>
<!-- 1609238870672 -->
<g id="node16" class="node"><title>1609238870672</title>
<ellipse fill="none" stroke="black" cx="387" cy="-162" rx="27" ry="18"/>
<text text-anchor="middle" x="387" y="-158.5" font-family="Times New Roman,serif" font-size="15.00">H</text>
</g>
<!-- 1609238868512&#45;&#45;1609238870672 -->
<g id="edge12" class="edge"><title>1609238868512&#45;&#45;1609238870672</title>
<path fill="none" stroke="black" d="M390.764,-215.697C389.989,-204.846 388.994,-190.917 388.222,-180.104"/>
</g>
<!-- 1609238871728 -->
<g id="node17" class="node"><title>1609238871728</title>
<ellipse fill="none" stroke="black" cx="459" cy="-162" rx="27" ry="18"/>
<text text-anchor="middle" x="459" y="-158.5" font-family="Times New Roman,serif" font-size="15.00">G</text>
</g>
<!-- 1609238868512&#45;&#45;1609238871728 -->
<g id="edge13" class="edge"><title>1609238868512&#45;&#45;1609238871728</title>
<path fill="none" stroke="black" d="M405.882,-218.496C417.381,-206.482 433.641,-189.494 445.135,-177.485"/>
</g>
<!-- 1609238868416 -->
<g id="node20" class="node"><title>1609238868416</title>
<ellipse fill="none" stroke="black" cx="531" cy="-162" rx="27" ry="18"/>
<text text-anchor="middle" x="531" y="-158.5" font-family="Times New Roman,serif" font-size="15.00">I</text>
</g>
<!-- 1609238871008&#45;&#45;1609238868416 -->
<g id="edge16" class="edge"><title>1609238871008&#45;&#45;1609238868416</title>
<path fill="none" stroke="black" d="M534.764,-215.697C533.989,-204.846 532.994,-190.917 532.222,-180.104"/>
</g>
<!-- 1609238868368 -->
<g id="node21" class="node"><title>1609238868368</title>
<ellipse fill="none" stroke="black" cx="603" cy="-162" rx="27" ry="18"/>
<text text-anchor="middle" x="603" y="-158.5" font-family="Times New Roman,serif" font-size="15.00">J</text>
</g>
<!-- 1609238871008&#45;&#45;1609238868368 -->
<g id="edge17" class="edge"><title>1609238871008&#45;&#45;1609238868368</title>
<path fill="none" stroke="black" d="M549.882,-218.496C561.381,-206.482 577.641,-189.494 589.135,-177.485"/>
</g>
<!-- 1609238868800 -->
<g id="node23" class="node"><title>1609238868800</title>
<ellipse fill="none" stroke="black" cx="547" cy="-306" rx="27" ry="18"/>
<text text-anchor="middle" x="547" y="-302.5" font-family="Times New Roman,serif" font-size="15.00">K</text>
</g>
<!-- 1608933443040&#45;&#45;1609238868800 -->
<g id="edge21" class="edge"><title>1608933443040&#45;&#45;1609238868800</title>
<path fill="none" stroke="black" d="M550.011,-359.697C549.391,-348.846 548.595,-334.917 547.977,-324.104"/>
</g>
<!-- 1609238870912 -->
<g id="node24" class="node"><title>1609238870912</title>
<ellipse fill="none" stroke="black" cx="619" cy="-306" rx="27" ry="18"/>
<text text-anchor="middle" x="619" y="-302.5" font-family="Times New Roman,serif" font-size="15.00">xor</text>
</g>
<!-- 1608933443040&#45;&#45;1609238870912 -->
<g id="edge24" class="edge"><title>1608933443040&#45;&#45;1609238870912</title>
<path fill="none" stroke="black" d="M565.09,-362.496C576.76,-350.482 593.263,-333.494 604.928,-321.485"/>
</g>
<!-- 1609238869376 -->
<g id="node25" class="node"><title>1609238869376</title>
<ellipse fill="none" stroke="black" cx="618" cy="-234" rx="27" ry="18"/>
<text text-anchor="middle" x="618" y="-230.5" font-family="Times New Roman,serif" font-size="15.00">U</text>
</g>
<!-- 1609238870912&#45;&#45;1609238869376 -->
<g id="edge22" class="edge"><title>1609238870912&#45;&#45;1609238869376</title>
<path fill="none" stroke="black" d="M618.753,-287.697C618.598,-276.846 618.399,-262.917 618.244,-252.104"/>
</g>
<!-- 1609238871248 -->
<g id="node26" class="node"><title>1609238871248</title>
<ellipse fill="none" stroke="black" cx="690" cy="-234" rx="27" ry="18"/>
<text text-anchor="middle" x="690" y="-230.5" font-family="Times New Roman,serif" font-size="15.00">L</text>
</g>
<!-- 1609238870912&#45;&#45;1609238871248 -->
<g id="edge23" class="edge"><title>1609238870912&#45;&#45;1609238871248</title>
<path fill="none" stroke="black" d="M633.711,-290.496C645.897,-278.482 663.127,-261.494 675.308,-249.485"/>
</g>
<!-- 1609238870960 -->
<g id="node28" class="node"><title>1609238870960</title>
<ellipse fill="none" stroke="black" cx="693" cy="-306" rx="27" ry="18"/>
<text text-anchor="middle" x="693" y="-302.5" font-family="Times New Roman,serif" font-size="15.00">T</text>
</g>
<!-- 1609238870480&#45;&#45;1609238870960 -->
<g id="edge26" class="edge"><title>1609238870480&#45;&#45;1609238870960</title>
<path fill="none" stroke="black" d="M693,-359.697C693,-348.846 693,-334.917 693,-324.104"/>
</g>
<!-- 1609238870816 -->
<g id="node29" class="node"><title>1609238870816</title>
<ellipse fill="none" stroke="black" cx="766" cy="-306" rx="27" ry="18"/>
<text text-anchor="middle" x="766" y="-302.5" font-family="Times New Roman,serif" font-size="15.00">seq</text>
</g>
<!-- 1609238870480&#45;&#45;1609238870816 -->
<g id="edge37" class="edge"><title>1609238870480&#45;&#45;1609238870816</title>
<path fill="none" stroke="black" d="M707.773,-362.834C720.438,-350.69 738.591,-333.283 751.249,-321.144"/>
</g>
<!-- 1609238871584 -->
<g id="node30" class="node"><title>1609238871584</title>
<ellipse fill="none" stroke="black" cx="766" cy="-234" rx="27" ry="18"/>
<text text-anchor="middle" x="766" y="-230.5" font-family="Times New Roman,serif" font-size="15.00">xor</text>
</g>
<!-- 1609238870816&#45;&#45;1609238871584 -->
<g id="edge33" class="edge"><title>1609238870816&#45;&#45;1609238871584</title>
<path fill="none" stroke="black" d="M766,-287.697C766,-276.846 766,-262.917 766,-252.104"/>
</g>
<!-- 1609238870096 -->
<g id="node37" class="node"><title>1609238870096</title>
<ellipse fill="none" stroke="black" cx="859" cy="-234" rx="27" ry="18"/>
<text text-anchor="middle" x="859" y="-230.5" font-family="Times New Roman,serif" font-size="15.00">xor</text>
</g>
<!-- 1609238870816&#45;&#45;1609238870096 -->
<g id="edge36" class="edge"><title>1609238870816&#45;&#45;1609238870096</title>
<path fill="none" stroke="black" d="M783.493,-291.834C800.12,-279.319 824.985,-260.603 841.586,-248.107"/>
</g>
<!-- 1609238868704 -->
<g id="node31" class="node"><title>1609238868704</title>
<ellipse fill="none" stroke="black" cx="675" cy="-162" rx="27" ry="18"/>
<text text-anchor="middle" x="675" y="-158.5" font-family="Times New Roman,serif" font-size="15.00">V</text>
</g>
<!-- 1609238871584&#45;&#45;1609238868704 -->
<g id="edge27" class="edge"><title>1609238871584&#45;&#45;1609238868704</title>
<path fill="none" stroke="black" d="M748.884,-219.834C732.614,-207.319 708.284,-188.603 692.04,-176.107"/>
</g>
<!-- 1609228339232 -->
<g id="node32" class="node"><title>1609228339232</title>
<ellipse fill="none" stroke="black" cx="767" cy="-162" rx="46.6143" ry="18"/>
<text text-anchor="middle" x="767" y="-158.5" font-family="Times New Roman,serif" font-size="15.00">xor loop</text>
</g>
<!-- 1609238871584&#45;&#45;1609228339232 -->
<g id="edge32" class="edge"><title>1609238871584&#45;&#45;1609228339232</title>
<path fill="none" stroke="black" d="M766.247,-215.697C766.402,-204.846 766.601,-190.917 766.756,-180.104"/>
</g>
<!-- 1609228338944 -->
<g id="node33" class="node"><title>1609228338944</title>
<ellipse fill="none" stroke="black" cx="731" cy="-90" rx="27" ry="18"/>
<text text-anchor="middle" x="731" y="-86.5" font-family="Times New Roman,serif" font-size="15.00">M</text>
</g>
<!-- 1609228339232&#45;&#45;1609228338944 -->
<g id="edge28" class="edge"><title>1609228339232&#45;&#45;1609228338944</title>
<path fill="none" stroke="black" d="M758.285,-144.055C752.542,-132.887 745.062,-118.343 739.386,-107.307"/>
</g>
<!-- 1609228339376 -->
<g id="node34" class="node"><title>1609228339376</title>
<ellipse fill="none" stroke="black" cx="803" cy="-90" rx="27" ry="18"/>
<text text-anchor="middle" x="803" y="-86.5" font-family="Times New Roman,serif" font-size="15.00">seq</text>
</g>
<!-- 1609228339232&#45;&#45;1609228339376 -->
<g id="edge31" class="edge"><title>1609228339232&#45;&#45;1609228339376</title>
<path fill="none" stroke="black" d="M775.715,-144.055C781.458,-132.887 788.938,-118.343 794.614,-107.307"/>
</g>
<!-- 1609228340384 -->
<g id="node35" class="node"><title>1609228340384</title>
<ellipse fill="none" stroke="black" cx="767" cy="-18" rx="27" ry="18"/>
<text text-anchor="middle" x="767" y="-14.5" font-family="Times New Roman,serif" font-size="15.00">N</text>
</g>
<!-- 1609228339376&#45;&#45;1609228340384 -->
<g id="edge29" class="edge"><title>1609228339376&#45;&#45;1609228340384</title>
<path fill="none" stroke="black" d="M794.65,-72.7646C788.835,-61.456 781.11,-46.4367 775.304,-35.1473"/>
</g>
<!-- 1609228338896 -->
<g id="node36" class="node"><title>1609228338896</title>
<ellipse fill="none" stroke="black" cx="839" cy="-18" rx="27" ry="18"/>
<text text-anchor="middle" x="839" y="-14.5" font-family="Times New Roman,serif" font-size="15.00">O</text>
</g>
<!-- 1609228339376&#45;&#45;1609228338896 -->
<g id="edge30" class="edge"><title>1609228339376&#45;&#45;1609228338896</title>
<path fill="none" stroke="black" d="M811.35,-72.7646C817.165,-61.456 824.89,-46.4367 830.696,-35.1473"/>
</g>
<!-- 1609228340096 -->
<g id="node38" class="node"><title>1609228340096</title>
<ellipse fill="none" stroke="black" cx="859" cy="-162" rx="27" ry="18"/>
<text text-anchor="middle" x="859" y="-158.5" font-family="Times New Roman,serif" font-size="15.00">S</text>
</g>
<!-- 1609238870096&#45;&#45;1609228340096 -->
<g id="edge34" class="edge"><title>1609238870096&#45;&#45;1609228340096</title>
<path fill="none" stroke="black" d="M859,-215.697C859,-204.846 859,-190.917 859,-180.104"/>
</g>
<!-- 1609228341008 -->
<g id="node39" class="node"><title>1609228341008</title>
<ellipse fill="none" stroke="black" cx="931" cy="-162" rx="27" ry="18"/>
<text text-anchor="middle" x="931" y="-158.5" font-family="Times New Roman,serif" font-size="15.00">R</text>
</g>
<!-- 1609238870096&#45;&#45;1609228341008 -->
<g id="edge35" class="edge"><title>1609238870096&#45;&#45;1609228341008</title>
<path fill="none" stroke="black" d="M873.57,-218.834C885.98,-206.77 903.731,-189.512 916.204,-177.385"/>
</g>
</g>
</svg>
