<?xml version="1.0" encoding="UTF-8" standalone="no"?>
<!DOCTYPE svg PUBLIC "-//W3C//DTD SVG 1.1//EN"
 "http://www.w3.org/Graphics/SVG/1.1/DTD/svg11.dtd">
<!-- Generated by graphviz version 2.38.0 (20140413.2041)
 -->
<!-- Title: pt Pages: 1 -->
<svg width="946pt" height="476pt"
 viewBox="0.00 0.00 946.00 476.00" xmlns="http://www.w3.org/2000/svg" xmlns:xlink="http://www.w3.org/1999/xlink">
<g id="graph0" class="graph" transform="scale(1 1) rotate(0) translate(4 472)">
<title>pt</title>
<!-- 1950577766656 -->
<g id="node1" class="node"><title>1950577766656</title>
<ellipse fill="none" stroke="black" cx="495" cy="-450" rx="27" ry="18"/>
<text text-anchor="middle" x="495" y="-446.5" font-family="Times New Roman,serif" font-size="15.00">seq</text>
</g>
<!-- 1950577766704 -->
<g id="node2" class="node"><title>1950577766704</title>
<ellipse fill="none" stroke="black" cx="243" cy="-378" rx="27" ry="18"/>
<text text-anchor="middle" x="243" y="-374.5" font-family="Times New Roman,serif" font-size="15.00">xor</text>
</g>
<!-- 1950577766656&#45;&#45;1950577766704 -->
<g id="edge10" class="edge"><title>1950577766656&#45;&#45;1950577766704</title>
<path fill="none" stroke="black" d="M470.378,-442.161C422.202,-428.778 315.978,-399.272 267.722,-385.867"/>
</g>
<!-- 1950577767664 -->
<g id="node12" class="node"><title>1950577767664</title>
<ellipse fill="none" stroke="black" cx="449" cy="-378" rx="46.6143" ry="18"/>
<text text-anchor="middle" x="449" y="-374.5" font-family="Times New Roman,serif" font-size="15.00">xor loop</text>
</g>
<!-- 1950577766656&#45;&#45;1950577767664 -->
<g id="edge20" class="edge"><title>1950577766656&#45;&#45;1950577767664</title>
<path fill="none" stroke="black" d="M484.562,-433.116C477.246,-421.983 467.483,-407.127 460.038,-395.797"/>
</g>
<!-- 1950571433552 -->
<g id="node22" class="node"><title>1950571433552</title>
<ellipse fill="none" stroke="black" cx="541" cy="-378" rx="27" ry="18"/>
<text text-anchor="middle" x="541" y="-374.5" font-family="Times New Roman,serif" font-size="15.00">and</text>
</g>
<!-- 1950577766656&#45;&#45;1950571433552 -->
<g id="edge25" class="edge"><title>1950577766656&#45;&#45;1950571433552</title>
<path fill="none" stroke="black" d="M505.438,-433.116C512.966,-421.66 523.085,-406.263 530.603,-394.821"/>
</g>
<!-- 1950571431488 -->
<g id="node27" class="node"><title>1950571431488</title>
<ellipse fill="none" stroke="black" cx="675" cy="-378" rx="27" ry="18"/>
<text text-anchor="middle" x="675" y="-374.5" font-family="Times New Roman,serif" font-size="15.00">xor</text>
</g>
<!-- 1950577766656&#45;&#45;1950571431488 -->
<g id="edge38" class="edge"><title>1950577766656&#45;&#45;1950571431488</title>
<path fill="none" stroke="black" d="M517.797,-440.134C552.326,-426.706 617.517,-401.355 652.104,-387.904"/>
</g>
<!-- 1950577768048 -->
<g id="node3" class="node"><title>1950577768048</title>
<ellipse fill="none" stroke="black" cx="99" cy="-306" rx="27" ry="18"/>
<text text-anchor="middle" x="99" y="-302.5" font-family="Times New Roman,serif" font-size="15.00">seq</text>
</g>
<!-- 1950577766704&#45;&#45;1950577768048 -->
<g id="edge3" class="edge"><title>1950577766704&#45;&#45;1950577768048</title>
<path fill="none" stroke="black" d="M221.752,-366.671C194.527,-353.437 147.602,-330.626 120.335,-317.371"/>
</g>
<!-- 1950577767328 -->
<g id="node6" class="node"><title>1950577767328</title>
<ellipse fill="none" stroke="black" cx="243" cy="-306" rx="27" ry="18"/>
<text text-anchor="middle" x="243" y="-302.5" font-family="Times New Roman,serif" font-size="15.00">seq</text>
</g>
<!-- 1950577766704&#45;&#45;1950577767328 -->
<g id="edge9" class="edge"><title>1950577766704&#45;&#45;1950577767328</title>
<path fill="none" stroke="black" d="M243,-359.697C243,-348.846 243,-334.917 243,-324.104"/>
</g>
<!-- 1950577766512 -->
<g id="node4" class="node"><title>1950577766512</title>
<ellipse fill="none" stroke="black" cx="27" cy="-234" rx="27" ry="18"/>
<text text-anchor="middle" x="27" y="-230.5" font-family="Times New Roman,serif" font-size="15.00">A</text>
</g>
<!-- 1950577768048&#45;&#45;1950577766512 -->
<g id="edge1" class="edge"><title>1950577768048&#45;&#45;1950577766512</title>
<path fill="none" stroke="black" d="M84.4297,-290.834C72.0202,-278.77 54.2694,-261.512 41.7957,-249.385"/>
</g>
<!-- 1950571432496 -->
<g id="node5" class="node"><title>1950571432496</title>
<ellipse fill="none" stroke="black" cx="99" cy="-234" rx="27" ry="18"/>
<text text-anchor="middle" x="99" y="-230.5" font-family="Times New Roman,serif" font-size="15.00">B</text>
</g>
<!-- 1950577768048&#45;&#45;1950571432496 -->
<g id="edge2" class="edge"><title>1950577768048&#45;&#45;1950571432496</title>
<path fill="none" stroke="black" d="M99,-287.697C99,-276.846 99,-262.917 99,-252.104"/>
</g>
<!-- 1950571432976 -->
<g id="node7" class="node"><title>1950571432976</title>
<ellipse fill="none" stroke="black" cx="171" cy="-234" rx="27" ry="18"/>
<text text-anchor="middle" x="171" y="-230.5" font-family="Times New Roman,serif" font-size="15.00">C</text>
</g>
<!-- 1950577767328&#45;&#45;1950571432976 -->
<g id="edge4" class="edge"><title>1950577767328&#45;&#45;1950571432976</title>
<path fill="none" stroke="black" d="M228.43,-290.834C216.02,-278.77 198.269,-261.512 185.796,-249.385"/>
</g>
<!-- 1950571433168 -->
<g id="node8" class="node"><title>1950571433168</title>
<ellipse fill="none" stroke="black" cx="243" cy="-234" rx="27" ry="18"/>
<text text-anchor="middle" x="243" y="-230.5" font-family="Times New Roman,serif" font-size="15.00">D</text>
</g>
<!-- 1950577767328&#45;&#45;1950571433168 -->
<g id="edge5" class="edge"><title>1950577767328&#45;&#45;1950571433168</title>
<path fill="none" stroke="black" d="M243,-287.697C243,-276.846 243,-262.917 243,-252.104"/>
</g>
<!-- 1950571433072 -->
<g id="node9" class="node"><title>1950571433072</title>
<ellipse fill="none" stroke="black" cx="315" cy="-234" rx="27" ry="18"/>
<text text-anchor="middle" x="315" y="-230.5" font-family="Times New Roman,serif" font-size="15.00">xor</text>
</g>
<!-- 1950577767328&#45;&#45;1950571433072 -->
<g id="edge8" class="edge"><title>1950577767328&#45;&#45;1950571433072</title>
<path fill="none" stroke="black" d="M257.57,-290.834C269.98,-278.77 287.731,-261.512 300.204,-249.385"/>
</g>
<!-- 1950571432544 -->
<g id="node10" class="node"><title>1950571432544</title>
<ellipse fill="none" stroke="black" cx="243" cy="-162" rx="27" ry="18"/>
<text text-anchor="middle" x="243" y="-158.5" font-family="Times New Roman,serif" font-size="15.00">E</text>
</g>
<!-- 1950571433072&#45;&#45;1950571432544 -->
<g id="edge6" class="edge"><title>1950571433072&#45;&#45;1950571432544</title>
<path fill="none" stroke="black" d="M300.43,-218.834C288.02,-206.77 270.269,-189.512 257.796,-177.385"/>
</g>
<!-- 1950571432400 -->
<g id="node11" class="node"><title>1950571432400</title>
<ellipse fill="none" stroke="black" cx="315" cy="-162" rx="27" ry="18"/>
<text text-anchor="middle" x="315" y="-158.5" font-family="Times New Roman,serif" font-size="15.00">F</text>
</g>
<!-- 1950571433072&#45;&#45;1950571432400 -->
<g id="edge7" class="edge"><title>1950571433072&#45;&#45;1950571432400</title>
<path fill="none" stroke="black" d="M315,-215.697C315,-204.846 315,-190.917 315,-180.104"/>
</g>
<!-- 1950571433888 -->
<g id="node13" class="node"><title>1950571433888</title>
<ellipse fill="none" stroke="black" cx="387" cy="-306" rx="27" ry="18"/>
<text text-anchor="middle" x="387" y="-302.5" font-family="Times New Roman,serif" font-size="15.00">Q</text>
</g>
<!-- 1950577767664&#45;&#45;1950571433888 -->
<g id="edge11" class="edge"><title>1950577767664&#45;&#45;1950571433888</title>
<path fill="none" stroke="black" d="M434.62,-360.765C424.318,-349.133 410.538,-333.575 400.453,-322.189"/>
</g>
<!-- 1950571433696 -->
<g id="node14" class="node"><title>1950571433696</title>
<ellipse fill="none" stroke="black" cx="459" cy="-306" rx="27" ry="18"/>
<text text-anchor="middle" x="459" y="-302.5" font-family="Times New Roman,serif" font-size="15.00">seq</text>
</g>
<!-- 1950577767664&#45;&#45;1950571433696 -->
<g id="edge19" class="edge"><title>1950577767664&#45;&#45;1950571433696</title>
<path fill="none" stroke="black" d="M451.472,-359.697C453.022,-348.846 455.012,-334.917 456.557,-324.104"/>
</g>
<!-- 1950571432688 -->
<g id="node15" class="node"><title>1950571432688</title>
<ellipse fill="none" stroke="black" cx="387" cy="-234" rx="27" ry="18"/>
<text text-anchor="middle" x="387" y="-230.5" font-family="Times New Roman,serif" font-size="15.00">xor</text>
</g>
<!-- 1950571433696&#45;&#45;1950571432688 -->
<g id="edge14" class="edge"><title>1950571433696&#45;&#45;1950571432688</title>
<path fill="none" stroke="black" d="M444.43,-290.834C432.02,-278.77 414.269,-261.512 401.796,-249.385"/>
</g>
<!-- 1950571433120 -->
<g id="node18" class="node"><title>1950571433120</title>
<ellipse fill="none" stroke="black" cx="459" cy="-234" rx="27" ry="18"/>
<text text-anchor="middle" x="459" y="-230.5" font-family="Times New Roman,serif" font-size="15.00">P</text>
</g>
<!-- 1950571433696&#45;&#45;1950571433120 -->
<g id="edge15" class="edge"><title>1950571433696&#45;&#45;1950571433120</title>
<path fill="none" stroke="black" d="M459,-287.697C459,-276.846 459,-262.917 459,-252.104"/>
</g>
<!-- 1950571431584 -->
<g id="node19" class="node"><title>1950571431584</title>
<ellipse fill="none" stroke="black" cx="531" cy="-234" rx="27" ry="18"/>
<text text-anchor="middle" x="531" y="-230.5" font-family="Times New Roman,serif" font-size="15.00">xor</text>
</g>
<!-- 1950571433696&#45;&#45;1950571431584 -->
<g id="edge18" class="edge"><title>1950571433696&#45;&#45;1950571431584</title>
<path fill="none" stroke="black" d="M473.57,-290.834C485.98,-278.77 503.731,-261.512 516.204,-249.385"/>
</g>
<!-- 1950571432112 -->
<g id="node16" class="node"><title>1950571432112</title>
<ellipse fill="none" stroke="black" cx="387" cy="-162" rx="27" ry="18"/>
<text text-anchor="middle" x="387" y="-158.5" font-family="Times New Roman,serif" font-size="15.00">H</text>
</g>
<!-- 1950571432688&#45;&#45;1950571432112 -->
<g id="edge12" class="edge"><title>1950571432688&#45;&#45;1950571432112</title>
<path fill="none" stroke="black" d="M387,-215.697C387,-204.846 387,-190.917 387,-180.104"/>
</g>
<!-- 1950571431824 -->
<g id="node17" class="node"><title>1950571431824</title>
<ellipse fill="none" stroke="black" cx="459" cy="-162" rx="27" ry="18"/>
<text text-anchor="middle" x="459" y="-158.5" font-family="Times New Roman,serif" font-size="15.00">G</text>
</g>
<!-- 1950571432688&#45;&#45;1950571431824 -->
<g id="edge13" class="edge"><title>1950571432688&#45;&#45;1950571431824</title>
<path fill="none" stroke="black" d="M401.57,-218.834C413.98,-206.77 431.731,-189.512 444.204,-177.385"/>
</g>
<!-- 1950571431680 -->
<g id="node20" class="node"><title>1950571431680</title>
<ellipse fill="none" stroke="black" cx="531" cy="-162" rx="27" ry="18"/>
<text text-anchor="middle" x="531" y="-158.5" font-family="Times New Roman,serif" font-size="15.00">I</text>
</g>
<!-- 1950571431584&#45;&#45;1950571431680 -->
<g id="edge16" class="edge"><title>1950571431584&#45;&#45;1950571431680</title>
<path fill="none" stroke="black" d="M531,-215.697C531,-204.846 531,-190.917 531,-180.104"/>
</g>
<!-- 1950571431392 -->
<g id="node21" class="node"><title>1950571431392</title>
<ellipse fill="none" stroke="black" cx="603" cy="-162" rx="27" ry="18"/>
<text text-anchor="middle" x="603" y="-158.5" font-family="Times New Roman,serif" font-size="15.00">J</text>
</g>
<!-- 1950571431584&#45;&#45;1950571431392 -->
<g id="edge17" class="edge"><title>1950571431584&#45;&#45;1950571431392</title>
<path fill="none" stroke="black" d="M545.57,-218.834C557.98,-206.77 575.731,-189.512 588.204,-177.385"/>
</g>
<!-- 1950571431296 -->
<g id="node23" class="node"><title>1950571431296</title>
<ellipse fill="none" stroke="black" cx="531" cy="-306" rx="27" ry="18"/>
<text text-anchor="middle" x="531" y="-302.5" font-family="Times New Roman,serif" font-size="15.00">K</text>
</g>
<!-- 1950571433552&#45;&#45;1950571431296 -->
<g id="edge21" class="edge"><title>1950571433552&#45;&#45;1950571431296</title>
<path fill="none" stroke="black" d="M538.579,-360.055C537.03,-349.211 535.026,-335.183 533.468,-324.275"/>
</g>
<!-- 1950571430912 -->
<g id="node24" class="node"><title>1950571430912</title>
<ellipse fill="none" stroke="black" cx="603" cy="-306" rx="27" ry="18"/>
<text text-anchor="middle" x="603" y="-302.5" font-family="Times New Roman,serif" font-size="15.00">xor</text>
</g>
<!-- 1950571433552&#45;&#45;1950571430912 -->
<g id="edge24" class="edge"><title>1950571433552&#45;&#45;1950571430912</title>
<path fill="none" stroke="black" d="M554.149,-362.155C564.67,-350.276 579.354,-333.697 589.87,-321.824"/>
</g>
<!-- 1950571431008 -->
<g id="node25" class="node"><title>1950571431008</title>
<ellipse fill="none" stroke="black" cx="603" cy="-234" rx="27" ry="18"/>
<text text-anchor="middle" x="603" y="-230.5" font-family="Times New Roman,serif" font-size="15.00">U</text>
</g>
<!-- 1950571430912&#45;&#45;1950571431008 -->
<g id="edge22" class="edge"><title>1950571430912&#45;&#45;1950571431008</title>
<path fill="none" stroke="black" d="M603,-287.697C603,-276.846 603,-262.917 603,-252.104"/>
</g>
<!-- 1950571430720 -->
<g id="node26" class="node"><title>1950571430720</title>
<ellipse fill="none" stroke="black" cx="675" cy="-234" rx="27" ry="18"/>
<text text-anchor="middle" x="675" y="-230.5" font-family="Times New Roman,serif" font-size="15.00">L</text>
</g>
<!-- 1950571430912&#45;&#45;1950571430720 -->
<g id="edge23" class="edge"><title>1950571430912&#45;&#45;1950571430720</title>
<path fill="none" stroke="black" d="M617.57,-290.834C629.98,-278.77 647.731,-261.512 660.204,-249.385"/>
</g>
<!-- 1950571430672 -->
<g id="node28" class="node"><title>1950571430672</title>
<ellipse fill="none" stroke="black" cx="675" cy="-306" rx="27" ry="18"/>
<text text-anchor="middle" x="675" y="-302.5" font-family="Times New Roman,serif" font-size="15.00">T</text>
</g>
<!-- 1950571431488&#45;&#45;1950571430672 -->
<g id="edge26" class="edge"><title>1950571431488&#45;&#45;1950571430672</title>
<path fill="none" stroke="black" d="M675,-359.697C675,-348.846 675,-334.917 675,-324.104"/>
</g>
<!-- 1950571430384 -->
<g id="node29" class="node"><title>1950571430384</title>
<ellipse fill="none" stroke="black" cx="747" cy="-306" rx="27" ry="18"/>
<text text-anchor="middle" x="747" y="-302.5" font-family="Times New Roman,serif" font-size="15.00">seq</text>
</g>
<!-- 1950571431488&#45;&#45;1950571430384 -->
<g id="edge37" class="edge"><title>1950571431488&#45;&#45;1950571430384</title>
<path fill="none" stroke="black" d="M689.57,-362.834C701.98,-350.77 719.731,-333.512 732.204,-321.385"/>
</g>
<!-- 1950571430048 -->
<g id="node30" class="node"><title>1950571430048</title>
<ellipse fill="none" stroke="black" cx="747" cy="-234" rx="27" ry="18"/>
<text text-anchor="middle" x="747" y="-230.5" font-family="Times New Roman,serif" font-size="15.00">xor</text>
</g>
<!-- 1950571430384&#45;&#45;1950571430048 -->
<g id="edge33" class="edge"><title>1950571430384&#45;&#45;1950571430048</title>
<path fill="none" stroke="black" d="M747,-287.697C747,-276.846 747,-262.917 747,-252.104"/>
</g>
<!-- 1950571430000 -->
<g id="node37" class="node"><title>1950571430000</title>
<ellipse fill="none" stroke="black" cx="839" cy="-234" rx="27" ry="18"/>
<text text-anchor="middle" x="839" y="-230.5" font-family="Times New Roman,serif" font-size="15.00">xor</text>
</g>
<!-- 1950571430384&#45;&#45;1950571430000 -->
<g id="edge36" class="edge"><title>1950571430384&#45;&#45;1950571430000</title>
<path fill="none" stroke="black" d="M764.304,-291.834C780.753,-279.319 805.351,-260.603 821.773,-248.107"/>
</g>
<!-- 1950576184912 -->
<g id="node31" class="node"><title>1950576184912</title>
<ellipse fill="black" stroke="black" cx="680" cy="-162" rx="2.7" ry="2.7"/>
</g>
<!-- 1950571430048&#45;&#45;1950576184912 -->
<g id="edge27" class="edge"><title>1950571430048&#45;&#45;1950576184912</title>
<path fill="none" stroke="black" d="M733.118,-218.496C715.946,-200.555 688.157,-171.522 681.477,-164.544"/>
</g>
<!-- 1950576184624 -->
<g id="node32" class="node"><title>1950576184624</title>
<ellipse fill="none" stroke="black" cx="747" cy="-162" rx="46.6143" ry="18"/>
<text text-anchor="middle" x="747" y="-158.5" font-family="Times New Roman,serif" font-size="15.00">xor loop</text>
</g>
<!-- 1950571430048&#45;&#45;1950576184624 -->
<g id="edge32" class="edge"><title>1950571430048&#45;&#45;1950576184624</title>
<path fill="none" stroke="black" d="M747,-215.697C747,-204.846 747,-190.917 747,-180.104"/>
</g>
<!-- 1950576184528 -->
<g id="node33" class="node"><title>1950576184528</title>
<ellipse fill="none" stroke="black" cx="711" cy="-90" rx="27" ry="18"/>
<text text-anchor="middle" x="711" y="-86.5" font-family="Times New Roman,serif" font-size="15.00">M</text>
</g>
<!-- 1950576184624&#45;&#45;1950576184528 -->
<g id="edge28" class="edge"><title>1950576184624&#45;&#45;1950576184528</title>
<path fill="none" stroke="black" d="M738.285,-144.055C732.542,-132.887 725.062,-118.343 719.386,-107.307"/>
</g>
<!-- 1950576185200 -->
<g id="node34" class="node"><title>1950576185200</title>
<ellipse fill="none" stroke="black" cx="783" cy="-90" rx="27" ry="18"/>
<text text-anchor="middle" x="783" y="-86.5" font-family="Times New Roman,serif" font-size="15.00">seq</text>
</g>
<!-- 1950576184624&#45;&#45;1950576185200 -->
<g id="edge31" class="edge"><title>1950576184624&#45;&#45;1950576185200</title>
<path fill="none" stroke="black" d="M755.715,-144.055C761.458,-132.887 768.938,-118.343 774.614,-107.307"/>
</g>
<!-- 1950576184816 -->
<g id="node35" class="node"><title>1950576184816</title>
<ellipse fill="none" stroke="black" cx="747" cy="-18" rx="27" ry="18"/>
<text text-anchor="middle" x="747" y="-14.5" font-family="Times New Roman,serif" font-size="15.00">N</text>
</g>
<!-- 1950576185200&#45;&#45;1950576184816 -->
<g id="edge29" class="edge"><title>1950576185200&#45;&#45;1950576184816</title>
<path fill="none" stroke="black" d="M774.65,-72.7646C768.835,-61.456 761.11,-46.4367 755.304,-35.1473"/>
</g>
<!-- 1950571550608 -->
<g id="node36" class="node"><title>1950571550608</title>
<ellipse fill="none" stroke="black" cx="819" cy="-18" rx="27" ry="18"/>
<text text-anchor="middle" x="819" y="-14.5" font-family="Times New Roman,serif" font-size="15.00">O</text>
</g>
<!-- 1950576185200&#45;&#45;1950571550608 -->
<g id="edge30" class="edge"><title>1950576185200&#45;&#45;1950571550608</title>
<path fill="none" stroke="black" d="M791.35,-72.7646C797.165,-61.456 804.89,-46.4367 810.696,-35.1473"/>
</g>
<!-- 1950571550752 -->
<g id="node38" class="node"><title>1950571550752</title>
<ellipse fill="none" stroke="black" cx="839" cy="-162" rx="27" ry="18"/>
<text text-anchor="middle" x="839" y="-158.5" font-family="Times New Roman,serif" font-size="15.00">S</text>
</g>
<!-- 1950571430000&#45;&#45;1950571550752 -->
<g id="edge34" class="edge"><title>1950571430000&#45;&#45;1950571550752</title>
<path fill="none" stroke="black" d="M839,-215.697C839,-204.846 839,-190.917 839,-180.104"/>
</g>
<!-- 1950571551664 -->
<g id="node39" class="node"><title>1950571551664</title>
<ellipse fill="none" stroke="black" cx="911" cy="-162" rx="27" ry="18"/>
<text text-anchor="middle" x="911" y="-158.5" font-family="Times New Roman,serif" font-size="15.00">R</text>
</g>
<!-- 1950571430000&#45;&#45;1950571551664 -->
<g id="edge35" class="edge"><title>1950571430000&#45;&#45;1950571551664</title>
<path fill="none" stroke="black" d="M853.57,-218.834C865.98,-206.77 883.731,-189.512 896.204,-177.385"/>
</g>
</g>
</svg>
