<?xml version="1.0" encoding="UTF-8" standalone="no"?>
<!DOCTYPE svg PUBLIC "-//W3C//DTD SVG 1.1//EN"
 "http://www.w3.org/Graphics/SVG/1.1/DTD/svg11.dtd">
<!-- Generated by graphviz version 2.38.0 (20140413.2041)
 -->
<!-- Title: pt Pages: 1 -->
<svg width="1070pt" height="332pt"
 viewBox="0.00 0.00 1070.00 332.00" xmlns="http://www.w3.org/2000/svg" xmlns:xlink="http://www.w3.org/1999/xlink">
<g id="graph0" class="graph" transform="scale(1 1) rotate(0) translate(4 328)">
<title>pt</title>
<!-- 2699321942944 -->
<g id="node1" class="node"><title>2699321942944</title>
<ellipse fill="none" stroke="black" cx="284" cy="-306" rx="27" ry="18"/>
<text text-anchor="middle" x="284" y="-302.5" font-family="Times New Roman,serif" font-size="15.00">seq</text>
</g>
<!-- 2699321942224 -->
<g id="node2" class="node"><title>2699321942224</title>
<ellipse fill="none" stroke="black" cx="161" cy="-234" rx="27" ry="18"/>
<text text-anchor="middle" x="161" y="-230.5" font-family="Times New Roman,serif" font-size="15.00">xor</text>
</g>
<!-- 2699321942944&#45;&#45;2699321942224 -->
<g id="edge8" class="edge"><title>2699321942944&#45;&#45;2699321942224</title>
<path fill="none" stroke="black" d="M263.964,-293.597C241.092,-280.581 203.896,-259.413 181.027,-246.398"/>
</g>
<!-- 2699320934112 -->
<g id="node10" class="node"><title>2699320934112</title>
<ellipse fill="none" stroke="black" cx="284" cy="-234" rx="46.6143" ry="18"/>
<text text-anchor="middle" x="284" y="-230.5" font-family="Times New Roman,serif" font-size="15.00">xor loop</text>
</g>
<!-- 2699321942944&#45;&#45;2699320934112 -->
<g id="edge19" class="edge"><title>2699321942944&#45;&#45;2699320934112</title>
<path fill="none" stroke="black" d="M284,-287.697C284,-276.846 284,-262.917 284,-252.104"/>
</g>
<!-- 2699322137088 -->
<g id="node21" class="node"><title>2699322137088</title>
<ellipse fill="none" stroke="black" cx="603" cy="-234" rx="46.6143" ry="18"/>
<text text-anchor="middle" x="603" y="-230.5" font-family="Times New Roman,serif" font-size="15.00">xor loop</text>
</g>
<!-- 2699321942944&#45;&#45;2699322137088 -->
<g id="edge32" class="edge"><title>2699321942944&#45;&#45;2699322137088</title>
<path fill="none" stroke="black" d="M309.298,-299.449C364.707,-287.29 497.129,-258.232 563.569,-243.652"/>
</g>
<!-- 2699322137376 -->
<g id="node3" class="node"><title>2699322137376</title>
<ellipse fill="none" stroke="black" cx="89" cy="-162" rx="27" ry="18"/>
<text text-anchor="middle" x="89" y="-158.5" font-family="Times New Roman,serif" font-size="15.00">A</text>
</g>
<!-- 2699321942224&#45;&#45;2699322137376 -->
<g id="edge1" class="edge"><title>2699321942224&#45;&#45;2699322137376</title>
<path fill="none" stroke="black" d="M146.43,-218.834C134.02,-206.77 116.269,-189.512 103.796,-177.385"/>
</g>
<!-- 2699322138480 -->
<g id="node4" class="node"><title>2699322138480</title>
<ellipse fill="none" stroke="black" cx="161" cy="-162" rx="27" ry="18"/>
<text text-anchor="middle" x="161" y="-158.5" font-family="Times New Roman,serif" font-size="15.00">seq</text>
</g>
<!-- 2699321942224&#45;&#45;2699322138480 -->
<g id="edge7" class="edge"><title>2699321942224&#45;&#45;2699322138480</title>
<path fill="none" stroke="black" d="M161,-215.697C161,-204.846 161,-190.917 161,-180.104"/>
</g>
<!-- 2699322137472 -->
<g id="node5" class="node"><title>2699322137472</title>
<ellipse fill="none" stroke="black" cx="27" cy="-90" rx="27" ry="18"/>
<text text-anchor="middle" x="27" y="-86.5" font-family="Times New Roman,serif" font-size="15.00">C</text>
</g>
<!-- 2699322138480&#45;&#45;2699322137472 -->
<g id="edge2" class="edge"><title>2699322138480&#45;&#45;2699322137472</title>
<path fill="none" stroke="black" d="M140.356,-150.216C115.249,-137.1 73.1056,-115.085 47.8881,-101.912"/>
</g>
<!-- 2699322138336 -->
<g id="node6" class="node"><title>2699322138336</title>
<ellipse fill="none" stroke="black" cx="99" cy="-90" rx="27" ry="18"/>
<text text-anchor="middle" x="99" y="-86.5" font-family="Times New Roman,serif" font-size="15.00">D</text>
</g>
<!-- 2699322138480&#45;&#45;2699322138336 -->
<g id="edge3" class="edge"><title>2699322138480&#45;&#45;2699322138336</title>
<path fill="none" stroke="black" d="M147.851,-146.155C137.33,-134.276 122.646,-117.697 112.13,-105.824"/>
</g>
<!-- 2699322137808 -->
<g id="node7" class="node"><title>2699322137808</title>
<ellipse fill="none" stroke="black" cx="171" cy="-90" rx="27" ry="18"/>
<text text-anchor="middle" x="171" y="-86.5" font-family="Times New Roman,serif" font-size="15.00">xor</text>
</g>
<!-- 2699322138480&#45;&#45;2699322137808 -->
<g id="edge6" class="edge"><title>2699322138480&#45;&#45;2699322137808</title>
<path fill="none" stroke="black" d="M163.421,-144.055C164.97,-133.211 166.974,-119.183 168.532,-108.275"/>
</g>
<!-- 2699322137856 -->
<g id="node8" class="node"><title>2699322137856</title>
<ellipse fill="none" stroke="black" cx="99" cy="-18" rx="27" ry="18"/>
<text text-anchor="middle" x="99" y="-14.5" font-family="Times New Roman,serif" font-size="15.00">E</text>
</g>
<!-- 2699322137808&#45;&#45;2699322137856 -->
<g id="edge4" class="edge"><title>2699322137808&#45;&#45;2699322137856</title>
<path fill="none" stroke="black" d="M156.43,-74.8345C144.02,-62.7697 126.269,-45.5119 113.796,-33.3847"/>
</g>
<!-- 2699322138144 -->
<g id="node9" class="node"><title>2699322138144</title>
<ellipse fill="none" stroke="black" cx="171" cy="-18" rx="27" ry="18"/>
<text text-anchor="middle" x="171" y="-14.5" font-family="Times New Roman,serif" font-size="15.00">F</text>
</g>
<!-- 2699322137808&#45;&#45;2699322138144 -->
<g id="edge5" class="edge"><title>2699322137808&#45;&#45;2699322138144</title>
<path fill="none" stroke="black" d="M171,-71.6966C171,-60.8463 171,-46.9167 171,-36.1043"/>
</g>
<!-- 2699322138240 -->
<g id="node11" class="node"><title>2699322138240</title>
<ellipse fill="none" stroke="black" cx="264" cy="-162" rx="27" ry="18"/>
<text text-anchor="middle" x="264" y="-158.5" font-family="Times New Roman,serif" font-size="15.00">Q</text>
</g>
<!-- 2699320934112&#45;&#45;2699322138240 -->
<g id="edge9" class="edge"><title>2699320934112&#45;&#45;2699322138240</title>
<path fill="none" stroke="black" d="M279.159,-216.055C276.014,-205.049 271.932,-190.764 268.797,-179.789"/>
</g>
<!-- 2699322138096 -->
<g id="node12" class="node"><title>2699322138096</title>
<ellipse fill="none" stroke="black" cx="336" cy="-162" rx="27" ry="18"/>
<text text-anchor="middle" x="336" y="-158.5" font-family="Times New Roman,serif" font-size="15.00">seq</text>
</g>
<!-- 2699320934112&#45;&#45;2699322138096 -->
<g id="edge18" class="edge"><title>2699320934112&#45;&#45;2699322138096</title>
<path fill="none" stroke="black" d="M296.323,-216.411C304.853,-204.929 316.128,-189.751 324.478,-178.511"/>
</g>
<!-- 2699327744944 -->
<g id="node13" class="node"><title>2699327744944</title>
<ellipse fill="none" stroke="black" cx="243" cy="-90" rx="27" ry="18"/>
<text text-anchor="middle" x="243" y="-86.5" font-family="Times New Roman,serif" font-size="15.00">X</text>
</g>
<!-- 2699322138096&#45;&#45;2699327744944 -->
<g id="edge10" class="edge"><title>2699322138096&#45;&#45;2699327744944</title>
<path fill="none" stroke="black" d="M318.507,-147.834C301.88,-135.319 277.015,-116.603 260.414,-104.107"/>
</g>
<!-- 2699321315440 -->
<g id="node14" class="node"><title>2699321315440</title>
<ellipse fill="none" stroke="black" cx="315" cy="-90" rx="27" ry="18"/>
<text text-anchor="middle" x="315" y="-86.5" font-family="Times New Roman,serif" font-size="15.00">xor</text>
</g>
<!-- 2699322138096&#45;&#45;2699321315440 -->
<g id="edge13" class="edge"><title>2699322138096&#45;&#45;2699321315440</title>
<path fill="none" stroke="black" d="M330.916,-144.055C327.615,-133.049 323.329,-118.764 320.037,-107.789"/>
</g>
<!-- 2699321315584 -->
<g id="node17" class="node"><title>2699321315584</title>
<ellipse fill="none" stroke="black" cx="387" cy="-90" rx="27" ry="18"/>
<text text-anchor="middle" x="387" y="-86.5" font-family="Times New Roman,serif" font-size="15.00">P</text>
</g>
<!-- 2699322138096&#45;&#45;2699321315584 -->
<g id="edge14" class="edge"><title>2699322138096&#45;&#45;2699321315584</title>
<path fill="none" stroke="black" d="M347.319,-145.465C355.77,-133.865 367.269,-118.082 375.713,-106.492"/>
</g>
<!-- 2699321316064 -->
<g id="node18" class="node"><title>2699321316064</title>
<ellipse fill="none" stroke="black" cx="459" cy="-90" rx="27" ry="18"/>
<text text-anchor="middle" x="459" y="-86.5" font-family="Times New Roman,serif" font-size="15.00">xor</text>
</g>
<!-- 2699322138096&#45;&#45;2699321316064 -->
<g id="edge17" class="edge"><title>2699322138096&#45;&#45;2699321316064</title>
<path fill="none" stroke="black" d="M356.036,-149.597C378.908,-136.581 416.104,-115.413 438.973,-102.398"/>
</g>
<!-- 2699321315680 -->
<g id="node15" class="node"><title>2699321315680</title>
<ellipse fill="none" stroke="black" cx="243" cy="-18" rx="27" ry="18"/>
<text text-anchor="middle" x="243" y="-14.5" font-family="Times New Roman,serif" font-size="15.00">H</text>
</g>
<!-- 2699321315440&#45;&#45;2699321315680 -->
<g id="edge11" class="edge"><title>2699321315440&#45;&#45;2699321315680</title>
<path fill="none" stroke="black" d="M300.43,-74.8345C288.02,-62.7697 270.269,-45.5119 257.796,-33.3847"/>
</g>
<!-- 2699321315824 -->
<g id="node16" class="node"><title>2699321315824</title>
<ellipse fill="none" stroke="black" cx="315" cy="-18" rx="27" ry="18"/>
<text text-anchor="middle" x="315" y="-14.5" font-family="Times New Roman,serif" font-size="15.00">G</text>
</g>
<!-- 2699321315440&#45;&#45;2699321315824 -->
<g id="edge12" class="edge"><title>2699321315440&#45;&#45;2699321315824</title>
<path fill="none" stroke="black" d="M315,-71.6966C315,-60.8463 315,-46.9167 315,-36.1043"/>
</g>
<!-- 2699321316304 -->
<g id="node19" class="node"><title>2699321316304</title>
<ellipse fill="none" stroke="black" cx="387" cy="-18" rx="27" ry="18"/>
<text text-anchor="middle" x="387" y="-14.5" font-family="Times New Roman,serif" font-size="15.00">I</text>
</g>
<!-- 2699321316064&#45;&#45;2699321316304 -->
<g id="edge15" class="edge"><title>2699321316064&#45;&#45;2699321316304</title>
<path fill="none" stroke="black" d="M444.43,-74.8345C432.02,-62.7697 414.269,-45.5119 401.796,-33.3847"/>
</g>
<!-- 2699321316448 -->
<g id="node20" class="node"><title>2699321316448</title>
<ellipse fill="none" stroke="black" cx="459" cy="-18" rx="27" ry="18"/>
<text text-anchor="middle" x="459" y="-14.5" font-family="Times New Roman,serif" font-size="15.00">J</text>
</g>
<!-- 2699321316064&#45;&#45;2699321316448 -->
<g id="edge16" class="edge"><title>2699321316064&#45;&#45;2699321316448</title>
<path fill="none" stroke="black" d="M459,-71.6966C459,-60.8463 459,-46.9167 459,-36.1043"/>
</g>
<!-- 2699321316544 -->
<g id="node22" class="node"><title>2699321316544</title>
<ellipse fill="none" stroke="black" cx="603" cy="-162" rx="46.6143" ry="18"/>
<text text-anchor="middle" x="603" y="-158.5" font-family="Times New Roman,serif" font-size="15.00">xor loop</text>
</g>
<!-- 2699322137088&#45;&#45;2699321316544 -->
<g id="edge30" class="edge"><title>2699322137088&#45;&#45;2699321316544</title>
<path fill="none" stroke="black" d="M603,-215.697C603,-204.846 603,-190.917 603,-180.104"/>
</g>
<!-- 2699321316688 -->
<g id="node33" class="node"><title>2699321316688</title>
<ellipse fill="black" stroke="black" cx="670" cy="-162" rx="2.7" ry="2.7"/>
</g>
<!-- 2699322137088&#45;&#45;2699321316688 -->
<g id="edge31" class="edge"><title>2699322137088&#45;&#45;2699321316688</title>
<path fill="none" stroke="black" d="M618.54,-216.765C635.858,-198.671 662.269,-171.078 668.601,-164.462"/>
</g>
<!-- 2699321315968 -->
<g id="node23" class="node"><title>2699321315968</title>
<ellipse fill="black" stroke="black" cx="603" cy="-90" rx="2.7" ry="2.7"/>
</g>
<!-- 2699321316544&#45;&#45;2699321315968 -->
<g id="edge20" class="edge"><title>2699321316544&#45;&#45;2699321315968</title>
<path fill="none" stroke="black" d="M603,-143.697C603,-125.883 603,-99.7686 603,-92.7764"/>
</g>
<!-- 2699321316928 -->
<g id="node24" class="node"><title>2699321316928</title>
<ellipse fill="none" stroke="black" cx="747" cy="-90" rx="27" ry="18"/>
<text text-anchor="middle" x="747" y="-86.5" font-family="Times New Roman,serif" font-size="15.00">xor</text>
</g>
<!-- 2699321316544&#45;&#45;2699321316928 -->
<g id="edge29" class="edge"><title>2699321316544&#45;&#45;2699321316928</title>
<path fill="none" stroke="black" d="M630.765,-147.503C658.552,-133.995 700.692,-113.511 725.868,-101.272"/>
</g>
<!-- 2699321317168 -->
<g id="node25" class="node"><title>2699321317168</title>
<ellipse fill="none" stroke="black" cx="531" cy="-18" rx="27" ry="18"/>
<text text-anchor="middle" x="531" y="-14.5" font-family="Times New Roman,serif" font-size="15.00">S</text>
</g>
<!-- 2699321316928&#45;&#45;2699321317168 -->
<g id="edge21" class="edge"><title>2699321316928&#45;&#45;2699321317168</title>
<path fill="none" stroke="black" d="M723.059,-81.2413C681.429,-67.7503 596.193,-40.1274 554.719,-26.6867"/>
</g>
<!-- 2699321317312 -->
<g id="node26" class="node"><title>2699321317312</title>
<ellipse fill="none" stroke="black" cx="603" cy="-18" rx="27" ry="18"/>
<text text-anchor="middle" x="603" y="-14.5" font-family="Times New Roman,serif" font-size="15.00">M</text>
</g>
<!-- 2699321316928&#45;&#45;2699321317312 -->
<g id="edge22" class="edge"><title>2699321316928&#45;&#45;2699321317312</title>
<path fill="none" stroke="black" d="M725.752,-78.6713C698.527,-65.4366 651.602,-42.6262 624.335,-29.3711"/>
</g>
<!-- 2699321317456 -->
<g id="node27" class="node"><title>2699321317456</title>
<ellipse fill="none" stroke="black" cx="675" cy="-18" rx="27" ry="18"/>
<text text-anchor="middle" x="675" y="-14.5" font-family="Times New Roman,serif" font-size="15.00">N</text>
</g>
<!-- 2699321316928&#45;&#45;2699321317456 -->
<g id="edge23" class="edge"><title>2699321316928&#45;&#45;2699321317456</title>
<path fill="none" stroke="black" d="M732.43,-74.8345C720.02,-62.7697 702.269,-45.5119 689.796,-33.3847"/>
</g>
<!-- 2699321317600 -->
<g id="node28" class="node"><title>2699321317600</title>
<ellipse fill="none" stroke="black" cx="747" cy="-18" rx="27" ry="18"/>
<text text-anchor="middle" x="747" y="-14.5" font-family="Times New Roman,serif" font-size="15.00">K</text>
</g>
<!-- 2699321316928&#45;&#45;2699321317600 -->
<g id="edge24" class="edge"><title>2699321316928&#45;&#45;2699321317600</title>
<path fill="none" stroke="black" d="M747,-71.6966C747,-60.8463 747,-46.9167 747,-36.1043"/>
</g>
<!-- 2699321318128 -->
<g id="node29" class="node"><title>2699321318128</title>
<ellipse fill="none" stroke="black" cx="819" cy="-18" rx="27" ry="18"/>
<text text-anchor="middle" x="819" y="-14.5" font-family="Times New Roman,serif" font-size="15.00">T</text>
</g>
<!-- 2699321316928&#45;&#45;2699321318128 -->
<g id="edge25" class="edge"><title>2699321316928&#45;&#45;2699321318128</title>
<path fill="none" stroke="black" d="M761.57,-74.8345C773.98,-62.7697 791.731,-45.5119 804.204,-33.3847"/>
</g>
<!-- 2699328971152 -->
<g id="node30" class="node"><title>2699328971152</title>
<ellipse fill="none" stroke="black" cx="891" cy="-18" rx="27" ry="18"/>
<text text-anchor="middle" x="891" y="-14.5" font-family="Times New Roman,serif" font-size="15.00">L</text>
</g>
<!-- 2699321316928&#45;&#45;2699328971152 -->
<g id="edge26" class="edge"><title>2699321316928&#45;&#45;2699328971152</title>
<path fill="none" stroke="black" d="M768.248,-78.6713C795.473,-65.4366 842.398,-42.6262 869.665,-29.3711"/>
</g>
<!-- 2699325247056 -->
<g id="node31" class="node"><title>2699325247056</title>
<ellipse fill="none" stroke="black" cx="963" cy="-18" rx="27" ry="18"/>
<text text-anchor="middle" x="963" y="-14.5" font-family="Times New Roman,serif" font-size="15.00">R</text>
</g>
<!-- 2699321316928&#45;&#45;2699325247056 -->
<g id="edge27" class="edge"><title>2699321316928&#45;&#45;2699325247056</title>
<path fill="none" stroke="black" d="M770.941,-81.2413C812.571,-67.7503 897.807,-40.1274 939.281,-26.6867"/>
</g>
<!-- 2699325247152 -->
<g id="node32" class="node"><title>2699325247152</title>
<ellipse fill="none" stroke="black" cx="1035" cy="-18" rx="27" ry="18"/>
<text text-anchor="middle" x="1035" y="-14.5" font-family="Times New Roman,serif" font-size="15.00">O</text>
</g>
<!-- 2699321316928&#45;&#45;2699325247152 -->
<g id="edge28" class="edge"><title>2699321316928&#45;&#45;2699325247152</title>
<path fill="none" stroke="black" d="M772.054,-82.9104C826.522,-69.6718 955.198,-38.3964 1009.8,-25.1254"/>
</g>
</g>
</svg>
