<?xml version="1.0" encoding="UTF-8" standalone="no"?>
<!DOCTYPE svg PUBLIC "-//W3C//DTD SVG 1.1//EN"
 "http://www.w3.org/Graphics/SVG/1.1/DTD/svg11.dtd">
<!-- Generated by graphviz version 2.38.0 (20140413.2041)
 -->
<!-- Title: pt Pages: 1 -->
<svg width="422pt" height="332pt"
 viewBox="0.00 0.00 422.00 332.00" xmlns="http://www.w3.org/2000/svg" xmlns:xlink="http://www.w3.org/1999/xlink">
<g id="graph0" class="graph" transform="scale(1 1) rotate(0) translate(4 328)">
<title>pt</title>
<!-- 2415463978080 -->
<g id="node1" class="node"><title>2415463978080</title>
<ellipse fill="none" stroke="black" cx="243" cy="-306" rx="27" ry="18"/>
<text text-anchor="middle" x="243" y="-302.5" font-family="Times New Roman,serif" font-size="15.00">seq</text>
</g>
<!-- 2415463978704 -->
<g id="node2" class="node"><title>2415463978704</title>
<ellipse fill="none" stroke="black" cx="171" cy="-234" rx="27" ry="18"/>
<text text-anchor="middle" x="171" y="-230.5" font-family="Times New Roman,serif" font-size="15.00">xor</text>
</g>
<!-- 2415463978080&#45;&#45;2415463978704 -->
<g id="edge11" class="edge"><title>2415463978080&#45;&#45;2415463978704</title>
<path fill="none" stroke="black" d="M228.43,-290.834C216.02,-278.77 198.269,-261.512 185.796,-249.385"/>
</g>
<!-- 2415463978992 -->
<g id="node13" class="node"><title>2415463978992</title>
<ellipse fill="none" stroke="black" cx="243" cy="-234" rx="27" ry="18"/>
<text text-anchor="middle" x="243" y="-230.5" font-family="Times New Roman,serif" font-size="15.00">F</text>
</g>
<!-- 2415463978080&#45;&#45;2415463978992 -->
<g id="edge12" class="edge"><title>2415463978080&#45;&#45;2415463978992</title>
<path fill="none" stroke="black" d="M243,-287.697C243,-276.846 243,-262.917 243,-252.104"/>
</g>
<!-- 2415463387728 -->
<g id="node14" class="node"><title>2415463387728</title>
<ellipse fill="none" stroke="black" cx="315" cy="-234" rx="27" ry="18"/>
<text text-anchor="middle" x="315" y="-230.5" font-family="Times New Roman,serif" font-size="15.00">xor</text>
</g>
<!-- 2415463978080&#45;&#45;2415463387728 -->
<g id="edge15" class="edge"><title>2415463978080&#45;&#45;2415463387728</title>
<path fill="none" stroke="black" d="M257.57,-290.834C269.98,-278.77 287.731,-261.512 300.204,-249.385"/>
</g>
<!-- 2415463980528 -->
<g id="node3" class="node"><title>2415463980528</title>
<ellipse fill="none" stroke="black" cx="27" cy="-162" rx="27" ry="18"/>
<text text-anchor="middle" x="27" y="-158.5" font-family="Times New Roman,serif" font-size="15.00">A</text>
</g>
<!-- 2415463978704&#45;&#45;2415463980528 -->
<g id="edge1" class="edge"><title>2415463978704&#45;&#45;2415463980528</title>
<path fill="none" stroke="black" d="M149.752,-222.671C122.527,-209.437 75.6024,-186.626 48.3349,-173.371"/>
</g>
<!-- 2415463980672 -->
<g id="node4" class="node"><title>2415463980672</title>
<ellipse fill="none" stroke="black" cx="99" cy="-162" rx="27" ry="18"/>
<text text-anchor="middle" x="99" y="-158.5" font-family="Times New Roman,serif" font-size="15.00">B</text>
</g>
<!-- 2415463978704&#45;&#45;2415463980672 -->
<g id="edge2" class="edge"><title>2415463978704&#45;&#45;2415463980672</title>
<path fill="none" stroke="black" d="M156.43,-218.834C144.02,-206.77 126.269,-189.512 113.796,-177.385"/>
</g>
<!-- 2415463980816 -->
<g id="node5" class="node"><title>2415463980816</title>
<ellipse fill="none" stroke="black" cx="171" cy="-162" rx="27" ry="18"/>
<text text-anchor="middle" x="171" y="-158.5" font-family="Times New Roman,serif" font-size="15.00">I</text>
</g>
<!-- 2415463978704&#45;&#45;2415463980816 -->
<g id="edge3" class="edge"><title>2415463978704&#45;&#45;2415463980816</title>
<path fill="none" stroke="black" d="M171,-215.697C171,-204.846 171,-190.917 171,-180.104"/>
</g>
<!-- 2415463980960 -->
<g id="node6" class="node"><title>2415463980960</title>
<ellipse fill="none" stroke="black" cx="243" cy="-162" rx="27" ry="18"/>
<text text-anchor="middle" x="243" y="-158.5" font-family="Times New Roman,serif" font-size="15.00">seq</text>
</g>
<!-- 2415463978704&#45;&#45;2415463980960 -->
<g id="edge10" class="edge"><title>2415463978704&#45;&#45;2415463980960</title>
<path fill="none" stroke="black" d="M185.57,-218.834C197.98,-206.77 215.731,-189.512 228.204,-177.385"/>
</g>
<!-- 2415463387200 -->
<g id="node7" class="node"><title>2415463387200</title>
<ellipse fill="none" stroke="black" cx="207" cy="-90" rx="27" ry="18"/>
<text text-anchor="middle" x="207" y="-86.5" font-family="Times New Roman,serif" font-size="15.00">xor</text>
</g>
<!-- 2415463980960&#45;&#45;2415463387200 -->
<g id="edge6" class="edge"><title>2415463980960&#45;&#45;2415463387200</title>
<path fill="none" stroke="black" d="M234.65,-144.765C228.835,-133.456 221.11,-118.437 215.304,-107.147"/>
</g>
<!-- 2415463387344 -->
<g id="node10" class="node"><title>2415463387344</title>
<ellipse fill="none" stroke="black" cx="279" cy="-90" rx="27" ry="18"/>
<text text-anchor="middle" x="279" y="-86.5" font-family="Times New Roman,serif" font-size="15.00">and</text>
</g>
<!-- 2415463980960&#45;&#45;2415463387344 -->
<g id="edge9" class="edge"><title>2415463980960&#45;&#45;2415463387344</title>
<path fill="none" stroke="black" d="M251.35,-144.765C257.165,-133.456 264.89,-118.437 270.696,-107.147"/>
</g>
<!-- 2415463387488 -->
<g id="node8" class="node"><title>2415463387488</title>
<ellipse fill="none" stroke="black" cx="135" cy="-18" rx="27" ry="18"/>
<text text-anchor="middle" x="135" y="-14.5" font-family="Times New Roman,serif" font-size="15.00">C</text>
</g>
<!-- 2415463387200&#45;&#45;2415463387488 -->
<g id="edge4" class="edge"><title>2415463387200&#45;&#45;2415463387488</title>
<path fill="none" stroke="black" d="M192.43,-74.8345C180.02,-62.7697 162.269,-45.5119 149.796,-33.3847"/>
</g>
<!-- 2415463387632 -->
<g id="node9" class="node"><title>2415463387632</title>
<ellipse fill="none" stroke="black" cx="207" cy="-18" rx="27" ry="18"/>
<text text-anchor="middle" x="207" y="-14.5" font-family="Times New Roman,serif" font-size="15.00">c</text>
</g>
<!-- 2415463387200&#45;&#45;2415463387632 -->
<g id="edge5" class="edge"><title>2415463387200&#45;&#45;2415463387632</title>
<path fill="none" stroke="black" d="M207,-71.6966C207,-60.8463 207,-46.9167 207,-36.1043"/>
</g>
<!-- 2415463387968 -->
<g id="node11" class="node"><title>2415463387968</title>
<ellipse fill="none" stroke="black" cx="279" cy="-18" rx="27" ry="18"/>
<text text-anchor="middle" x="279" y="-14.5" font-family="Times New Roman,serif" font-size="15.00">E</text>
</g>
<!-- 2415463387344&#45;&#45;2415463387968 -->
<g id="edge7" class="edge"><title>2415463387344&#45;&#45;2415463387968</title>
<path fill="none" stroke="black" d="M279,-71.6966C279,-60.8463 279,-46.9167 279,-36.1043"/>
</g>
<!-- 2415463388064 -->
<g id="node12" class="node"><title>2415463388064</title>
<ellipse fill="none" stroke="black" cx="351" cy="-18" rx="27" ry="18"/>
<text text-anchor="middle" x="351" y="-14.5" font-family="Times New Roman,serif" font-size="15.00">D</text>
</g>
<!-- 2415463387344&#45;&#45;2415463388064 -->
<g id="edge8" class="edge"><title>2415463387344&#45;&#45;2415463388064</title>
<path fill="none" stroke="black" d="M293.57,-74.8345C305.98,-62.7697 323.731,-45.5119 336.204,-33.3847"/>
</g>
<!-- 2415463388112 -->
<g id="node15" class="node"><title>2415463388112</title>
<ellipse fill="none" stroke="black" cx="315" cy="-162" rx="27" ry="18"/>
<text text-anchor="middle" x="315" y="-158.5" font-family="Times New Roman,serif" font-size="15.00">H</text>
</g>
<!-- 2415463387728&#45;&#45;2415463388112 -->
<g id="edge13" class="edge"><title>2415463387728&#45;&#45;2415463388112</title>
<path fill="none" stroke="black" d="M315,-215.697C315,-204.846 315,-190.917 315,-180.104"/>
</g>
<!-- 2415463388496 -->
<g id="node16" class="node"><title>2415463388496</title>
<ellipse fill="none" stroke="black" cx="387" cy="-162" rx="27" ry="18"/>
<text text-anchor="middle" x="387" y="-158.5" font-family="Times New Roman,serif" font-size="15.00">G</text>
</g>
<!-- 2415463387728&#45;&#45;2415463388496 -->
<g id="edge14" class="edge"><title>2415463387728&#45;&#45;2415463388496</title>
<path fill="none" stroke="black" d="M329.57,-218.834C341.98,-206.77 359.731,-189.512 372.204,-177.385"/>
</g>
</g>
</svg>
