<?xml version="1.0" encoding="UTF-8" standalone="no"?>
<!DOCTYPE svg PUBLIC "-//W3C//DTD SVG 1.1//EN"
 "http://www.w3.org/Graphics/SVG/1.1/DTD/svg11.dtd">
<!-- Generated by graphviz version 2.38.0 (20140413.2041)
 -->
<!-- Title: pt Pages: 1 -->
<svg width="440pt" height="332pt"
 viewBox="0.00 0.00 440.00 332.00" xmlns="http://www.w3.org/2000/svg" xmlns:xlink="http://www.w3.org/1999/xlink">
<g id="graph0" class="graph" transform="scale(1 1) rotate(0) translate(4 328)">
<title>pt</title>
<!-- 2415464087360 -->
<g id="node1" class="node"><title>2415464087360</title>
<ellipse fill="none" stroke="black" cx="297" cy="-306" rx="27" ry="18"/>
<text text-anchor="middle" x="297" y="-302.5" font-family="Times New Roman,serif" font-size="15.00">seq</text>
</g>
<!-- 2415468056880 -->
<g id="node2" class="node"><title>2415468056880</title>
<ellipse fill="none" stroke="black" cx="225" cy="-234" rx="27" ry="18"/>
<text text-anchor="middle" x="225" y="-230.5" font-family="Times New Roman,serif" font-size="15.00">xor</text>
</g>
<!-- 2415464087360&#45;&#45;2415468056880 -->
<g id="edge11" class="edge"><title>2415464087360&#45;&#45;2415468056880</title>
<path fill="none" stroke="black" d="M282.43,-290.834C270.02,-278.77 252.269,-261.512 239.796,-249.385"/>
</g>
<!-- 2415469460832 -->
<g id="node13" class="node"><title>2415469460832</title>
<ellipse fill="none" stroke="black" cx="297" cy="-234" rx="27" ry="18"/>
<text text-anchor="middle" x="297" y="-230.5" font-family="Times New Roman,serif" font-size="15.00">H</text>
</g>
<!-- 2415464087360&#45;&#45;2415469460832 -->
<g id="edge12" class="edge"><title>2415464087360&#45;&#45;2415469460832</title>
<path fill="none" stroke="black" d="M297,-287.697C297,-276.846 297,-262.917 297,-252.104"/>
</g>
<!-- 2415469772608 -->
<g id="node14" class="node"><title>2415469772608</title>
<ellipse fill="none" stroke="black" cx="369" cy="-234" rx="27" ry="18"/>
<text text-anchor="middle" x="369" y="-230.5" font-family="Times New Roman,serif" font-size="15.00">xor</text>
</g>
<!-- 2415464087360&#45;&#45;2415469772608 -->
<g id="edge15" class="edge"><title>2415464087360&#45;&#45;2415469772608</title>
<path fill="none" stroke="black" d="M311.57,-290.834C323.98,-278.77 341.731,-261.512 354.204,-249.385"/>
</g>
<!-- 2415469771744 -->
<g id="node3" class="node"><title>2415469771744</title>
<ellipse fill="none" stroke="black" cx="135" cy="-162" rx="27" ry="18"/>
<text text-anchor="middle" x="135" y="-158.5" font-family="Times New Roman,serif" font-size="15.00">and</text>
</g>
<!-- 2415468056880&#45;&#45;2415469771744 -->
<g id="edge4" class="edge"><title>2415468056880&#45;&#45;2415469771744</title>
<path fill="none" stroke="black" d="M208.072,-219.834C191.981,-207.319 167.918,-188.603 151.852,-176.107"/>
</g>
<!-- 2415469771600 -->
<g id="node7" class="node"><title>2415469771600</title>
<ellipse fill="none" stroke="black" cx="243" cy="-162" rx="27" ry="18"/>
<text text-anchor="middle" x="243" y="-158.5" font-family="Times New Roman,serif" font-size="15.00">seq</text>
</g>
<!-- 2415468056880&#45;&#45;2415469771600 -->
<g id="edge10" class="edge"><title>2415468056880&#45;&#45;2415469771600</title>
<path fill="none" stroke="black" d="M229.357,-216.055C232.187,-205.049 235.861,-190.764 238.683,-179.789"/>
</g>
<!-- 2415469771840 -->
<g id="node4" class="node"><title>2415469771840</title>
<ellipse fill="none" stroke="black" cx="27" cy="-90" rx="27" ry="18"/>
<text text-anchor="middle" x="27" y="-86.5" font-family="Times New Roman,serif" font-size="15.00">E</text>
</g>
<!-- 2415469771744&#45;&#45;2415469771840 -->
<g id="edge1" class="edge"><title>2415469771744&#45;&#45;2415469771840</title>
<path fill="none" stroke="black" d="M116.188,-148.807C96.3652,-135.959 65.3376,-115.848 45.5966,-103.053"/>
</g>
<!-- 2415469771168 -->
<g id="node5" class="node"><title>2415469771168</title>
<ellipse fill="none" stroke="black" cx="99" cy="-90" rx="27" ry="18"/>
<text text-anchor="middle" x="99" y="-86.5" font-family="Times New Roman,serif" font-size="15.00">F</text>
</g>
<!-- 2415469771744&#45;&#45;2415469771168 -->
<g id="edge2" class="edge"><title>2415469771744&#45;&#45;2415469771168</title>
<path fill="none" stroke="black" d="M126.65,-144.765C120.835,-133.456 113.11,-118.437 107.304,-107.147"/>
</g>
<!-- 2415469771312 -->
<g id="node6" class="node"><title>2415469771312</title>
<ellipse fill="none" stroke="black" cx="171" cy="-90" rx="27" ry="18"/>
<text text-anchor="middle" x="171" y="-86.5" font-family="Times New Roman,serif" font-size="15.00">G</text>
</g>
<!-- 2415469771744&#45;&#45;2415469771312 -->
<g id="edge3" class="edge"><title>2415469771744&#45;&#45;2415469771312</title>
<path fill="none" stroke="black" d="M143.35,-144.765C149.165,-133.456 156.89,-118.437 162.696,-107.147"/>
</g>
<!-- 2415469770640 -->
<g id="node8" class="node"><title>2415469770640</title>
<ellipse fill="none" stroke="black" cx="243" cy="-90" rx="27" ry="18"/>
<text text-anchor="middle" x="243" y="-86.5" font-family="Times New Roman,serif" font-size="15.00">and</text>
</g>
<!-- 2415469771600&#45;&#45;2415469770640 -->
<g id="edge8" class="edge"><title>2415469771600&#45;&#45;2415469770640</title>
<path fill="none" stroke="black" d="M243,-143.697C243,-132.846 243,-118.917 243,-108.104"/>
</g>
<!-- 2415469772128 -->
<g id="node12" class="node"><title>2415469772128</title>
<ellipse fill="none" stroke="black" cx="315" cy="-90" rx="27" ry="18"/>
<text text-anchor="middle" x="315" y="-86.5" font-family="Times New Roman,serif" font-size="15.00">D</text>
</g>
<!-- 2415469771600&#45;&#45;2415469772128 -->
<g id="edge9" class="edge"><title>2415469771600&#45;&#45;2415469772128</title>
<path fill="none" stroke="black" d="M257.57,-146.834C269.98,-134.77 287.731,-117.512 300.204,-105.385"/>
</g>
<!-- 2415469770592 -->
<g id="node9" class="node"><title>2415469770592</title>
<ellipse fill="none" stroke="black" cx="171" cy="-18" rx="27" ry="18"/>
<text text-anchor="middle" x="171" y="-14.5" font-family="Times New Roman,serif" font-size="15.00">C</text>
</g>
<!-- 2415469770640&#45;&#45;2415469770592 -->
<g id="edge5" class="edge"><title>2415469770640&#45;&#45;2415469770592</title>
<path fill="none" stroke="black" d="M228.43,-74.8345C216.02,-62.7697 198.269,-45.5119 185.796,-33.3847"/>
</g>
<!-- 2415469770544 -->
<g id="node10" class="node"><title>2415469770544</title>
<ellipse fill="none" stroke="black" cx="243" cy="-18" rx="27" ry="18"/>
<text text-anchor="middle" x="243" y="-14.5" font-family="Times New Roman,serif" font-size="15.00">A</text>
</g>
<!-- 2415469770640&#45;&#45;2415469770544 -->
<g id="edge6" class="edge"><title>2415469770640&#45;&#45;2415469770544</title>
<path fill="none" stroke="black" d="M243,-71.6966C243,-60.8463 243,-46.9167 243,-36.1043"/>
</g>
<!-- 2415469772512 -->
<g id="node11" class="node"><title>2415469772512</title>
<ellipse fill="none" stroke="black" cx="315" cy="-18" rx="27" ry="18"/>
<text text-anchor="middle" x="315" y="-14.5" font-family="Times New Roman,serif" font-size="15.00">B</text>
</g>
<!-- 2415469770640&#45;&#45;2415469772512 -->
<g id="edge7" class="edge"><title>2415469770640&#45;&#45;2415469772512</title>
<path fill="none" stroke="black" d="M257.57,-74.8345C269.98,-62.7697 287.731,-45.5119 300.204,-33.3847"/>
</g>
<!-- 2415469838448 -->
<g id="node15" class="node"><title>2415469838448</title>
<ellipse fill="none" stroke="black" cx="333" cy="-162" rx="27" ry="18"/>
<text text-anchor="middle" x="333" y="-158.5" font-family="Times New Roman,serif" font-size="15.00">I</text>
</g>
<!-- 2415469772608&#45;&#45;2415469838448 -->
<g id="edge13" class="edge"><title>2415469772608&#45;&#45;2415469838448</title>
<path fill="none" stroke="black" d="M360.65,-216.765C354.835,-205.456 347.11,-190.437 341.304,-179.147"/>
</g>
<!-- 2415469838592 -->
<g id="node16" class="node"><title>2415469838592</title>
<ellipse fill="none" stroke="black" cx="405" cy="-162" rx="27" ry="18"/>
<text text-anchor="middle" x="405" y="-158.5" font-family="Times New Roman,serif" font-size="15.00">J</text>
</g>
<!-- 2415469772608&#45;&#45;2415469838592 -->
<g id="edge14" class="edge"><title>2415469772608&#45;&#45;2415469838592</title>
<path fill="none" stroke="black" d="M377.35,-216.765C383.165,-205.456 390.89,-190.437 396.696,-179.147"/>
</g>
</g>
</svg>
