<?xml version="1.0" encoding="UTF-8" standalone="no"?>
<!DOCTYPE svg PUBLIC "-//W3C//DTD SVG 1.1//EN"
 "http://www.w3.org/Graphics/SVG/1.1/DTD/svg11.dtd">
<!-- Generated by graphviz version 2.38.0 (20140413.2041)
 -->
<!-- Title: pt Pages: 1 -->
<svg width="422pt" height="260pt"
 viewBox="0.00 0.00 422.00 260.00" xmlns="http://www.w3.org/2000/svg" xmlns:xlink="http://www.w3.org/1999/xlink">
<g id="graph0" class="graph" transform="scale(1 1) rotate(0) translate(4 256)">
<title>pt</title>
<!-- 1760989331072 -->
<g id="node1" class="node"><title>1760989331072</title>
<ellipse fill="none" stroke="black" cx="243" cy="-234" rx="27" ry="18"/>
<text text-anchor="middle" x="243" y="-230.5" font-family="Times New Roman,serif" font-size="15.00">seq</text>
</g>
<!-- 1760989329776 -->
<g id="node2" class="node"><title>1760989329776</title>
<ellipse fill="none" stroke="black" cx="171" cy="-162" rx="27" ry="18"/>
<text text-anchor="middle" x="171" y="-158.5" font-family="Times New Roman,serif" font-size="15.00">xor</text>
</g>
<!-- 1760989331072&#45;&#45;1760989329776 -->
<g id="edge7" class="edge"><title>1760989331072&#45;&#45;1760989329776</title>
<path fill="none" stroke="black" d="M228.43,-218.834C216.02,-206.77 198.269,-189.512 185.796,-177.385"/>
</g>
<!-- 1760989409392 -->
<g id="node9" class="node"><title>1760989409392</title>
<ellipse fill="none" stroke="black" cx="243" cy="-162" rx="27" ry="18"/>
<text text-anchor="middle" x="243" y="-158.5" font-family="Times New Roman,serif" font-size="15.00">G</text>
</g>
<!-- 1760989331072&#45;&#45;1760989409392 -->
<g id="edge8" class="edge"><title>1760989331072&#45;&#45;1760989409392</title>
<path fill="none" stroke="black" d="M243,-215.697C243,-204.846 243,-190.917 243,-180.104"/>
</g>
<!-- 1760989410448 -->
<g id="node10" class="node"><title>1760989410448</title>
<ellipse fill="none" stroke="black" cx="315" cy="-162" rx="27" ry="18"/>
<text text-anchor="middle" x="315" y="-158.5" font-family="Times New Roman,serif" font-size="15.00">xor</text>
</g>
<!-- 1760989331072&#45;&#45;1760989410448 -->
<g id="edge13" class="edge"><title>1760989331072&#45;&#45;1760989410448</title>
<path fill="none" stroke="black" d="M257.57,-218.834C269.98,-206.77 287.731,-189.512 300.204,-177.385"/>
</g>
<!-- 1760989409488 -->
<g id="node3" class="node"><title>1760989409488</title>
<ellipse fill="none" stroke="black" cx="99" cy="-90" rx="27" ry="18"/>
<text text-anchor="middle" x="99" y="-86.5" font-family="Times New Roman,serif" font-size="15.00">seq</text>
</g>
<!-- 1760989329776&#45;&#45;1760989409488 -->
<g id="edge3" class="edge"><title>1760989329776&#45;&#45;1760989409488</title>
<path fill="none" stroke="black" d="M156.43,-146.834C144.02,-134.77 126.269,-117.512 113.796,-105.385"/>
</g>
<!-- 1760989409632 -->
<g id="node6" class="node"><title>1760989409632</title>
<ellipse fill="none" stroke="black" cx="171" cy="-90" rx="27" ry="18"/>
<text text-anchor="middle" x="171" y="-86.5" font-family="Times New Roman,serif" font-size="15.00">and</text>
</g>
<!-- 1760989329776&#45;&#45;1760989409632 -->
<g id="edge6" class="edge"><title>1760989329776&#45;&#45;1760989409632</title>
<path fill="none" stroke="black" d="M171,-143.697C171,-132.846 171,-118.917 171,-108.104"/>
</g>
<!-- 1760989409728 -->
<g id="node4" class="node"><title>1760989409728</title>
<ellipse fill="none" stroke="black" cx="27" cy="-18" rx="27" ry="18"/>
<text text-anchor="middle" x="27" y="-14.5" font-family="Times New Roman,serif" font-size="15.00">C</text>
</g>
<!-- 1760989409488&#45;&#45;1760989409728 -->
<g id="edge1" class="edge"><title>1760989409488&#45;&#45;1760989409728</title>
<path fill="none" stroke="black" d="M84.4297,-74.8345C72.0202,-62.7697 54.2694,-45.5119 41.7957,-33.3847"/>
</g>
<!-- 1760989409872 -->
<g id="node5" class="node"><title>1760989409872</title>
<ellipse fill="none" stroke="black" cx="99" cy="-18" rx="27" ry="18"/>
<text text-anchor="middle" x="99" y="-14.5" font-family="Times New Roman,serif" font-size="15.00">D</text>
</g>
<!-- 1760989409488&#45;&#45;1760989409872 -->
<g id="edge2" class="edge"><title>1760989409488&#45;&#45;1760989409872</title>
<path fill="none" stroke="black" d="M99,-71.6966C99,-60.8463 99,-46.9167 99,-36.1043"/>
</g>
<!-- 1760989410208 -->
<g id="node7" class="node"><title>1760989410208</title>
<ellipse fill="none" stroke="black" cx="171" cy="-18" rx="27" ry="18"/>
<text text-anchor="middle" x="171" y="-14.5" font-family="Times New Roman,serif" font-size="15.00">A</text>
</g>
<!-- 1760989409632&#45;&#45;1760989410208 -->
<g id="edge4" class="edge"><title>1760989409632&#45;&#45;1760989410208</title>
<path fill="none" stroke="black" d="M171,-71.6966C171,-60.8463 171,-46.9167 171,-36.1043"/>
</g>
<!-- 1760989410352 -->
<g id="node8" class="node"><title>1760989410352</title>
<ellipse fill="none" stroke="black" cx="243" cy="-18" rx="27" ry="18"/>
<text text-anchor="middle" x="243" y="-14.5" font-family="Times New Roman,serif" font-size="15.00">B</text>
</g>
<!-- 1760989409632&#45;&#45;1760989410352 -->
<g id="edge5" class="edge"><title>1760989409632&#45;&#45;1760989410352</title>
<path fill="none" stroke="black" d="M185.57,-74.8345C197.98,-62.7697 215.731,-45.5119 228.204,-33.3847"/>
</g>
<!-- 1760989410688 -->
<g id="node11" class="node"><title>1760989410688</title>
<ellipse fill="none" stroke="black" cx="315" cy="-90" rx="27" ry="18"/>
<text text-anchor="middle" x="315" y="-86.5" font-family="Times New Roman,serif" font-size="15.00">seq</text>
</g>
<!-- 1760989410448&#45;&#45;1760989410688 -->
<g id="edge11" class="edge"><title>1760989410448&#45;&#45;1760989410688</title>
<path fill="none" stroke="black" d="M315,-143.697C315,-132.846 315,-118.917 315,-108.104"/>
</g>
<!-- 1760989410832 -->
<g id="node14" class="node"><title>1760989410832</title>
<ellipse fill="none" stroke="black" cx="387" cy="-90" rx="27" ry="18"/>
<text text-anchor="middle" x="387" y="-86.5" font-family="Times New Roman,serif" font-size="15.00">H</text>
</g>
<!-- 1760989410448&#45;&#45;1760989410832 -->
<g id="edge12" class="edge"><title>1760989410448&#45;&#45;1760989410832</title>
<path fill="none" stroke="black" d="M329.57,-146.834C341.98,-134.77 359.731,-117.512 372.204,-105.385"/>
</g>
<!-- 1760989410928 -->
<g id="node12" class="node"><title>1760989410928</title>
<ellipse fill="none" stroke="black" cx="315" cy="-18" rx="27" ry="18"/>
<text text-anchor="middle" x="315" y="-14.5" font-family="Times New Roman,serif" font-size="15.00">E</text>
</g>
<!-- 1760989410688&#45;&#45;1760989410928 -->
<g id="edge9" class="edge"><title>1760989410688&#45;&#45;1760989410928</title>
<path fill="none" stroke="black" d="M315,-71.6966C315,-60.8463 315,-46.9167 315,-36.1043"/>
</g>
<!-- 1760989411072 -->
<g id="node13" class="node"><title>1760989411072</title>
<ellipse fill="none" stroke="black" cx="387" cy="-18" rx="27" ry="18"/>
<text text-anchor="middle" x="387" y="-14.5" font-family="Times New Roman,serif" font-size="15.00">F</text>
</g>
<!-- 1760989410688&#45;&#45;1760989411072 -->
<g id="edge10" class="edge"><title>1760989410688&#45;&#45;1760989411072</title>
<path fill="none" stroke="black" d="M329.57,-74.8345C341.98,-62.7697 359.731,-45.5119 372.204,-33.3847"/>
</g>
</g>
</svg>
