<?xml version="1.0" encoding="UTF-8" standalone="no"?>
<!DOCTYPE svg PUBLIC "-//W3C//DTD SVG 1.1//EN"
 "http://www.w3.org/Graphics/SVG/1.1/DTD/svg11.dtd">
<!-- Generated by graphviz version 2.38.0 (20140413.2041)
 -->
<!-- Title: pt Pages: 1 -->
<svg width="449pt" height="188pt"
 viewBox="0.00 0.00 449.00 188.00" xmlns="http://www.w3.org/2000/svg" xmlns:xlink="http://www.w3.org/1999/xlink">
<g id="graph0" class="graph" transform="scale(1 1) rotate(0) translate(4 184)">
<title>pt</title>
<!-- 2399482000720 -->
<g id="node1" class="node"><title>2399482000720</title>
<ellipse fill="none" stroke="black" cx="207" cy="-162" rx="27" ry="18"/>
<text text-anchor="middle" x="207" y="-158.5" font-family="Times New Roman,serif" font-size="15.00">seq</text>
</g>
<!-- 2399482001536 -->
<g id="node2" class="node"><title>2399482001536</title>
<ellipse fill="none" stroke="black" cx="63" cy="-90" rx="27" ry="18"/>
<text text-anchor="middle" x="63" y="-86.5" font-family="Times New Roman,serif" font-size="15.00">xor</text>
</g>
<!-- 2399482000720&#45;&#45;2399482001536 -->
<g id="edge3" class="edge"><title>2399482000720&#45;&#45;2399482001536</title>
<path fill="none" stroke="black" d="M185.752,-150.671C158.527,-137.437 111.602,-114.626 84.3349,-101.371"/>
</g>
<!-- 2399481999856 -->
<g id="node5" class="node"><title>2399481999856</title>
<ellipse fill="none" stroke="black" cx="135" cy="-90" rx="27" ry="18"/>
<text text-anchor="middle" x="135" y="-86.5" font-family="Times New Roman,serif" font-size="15.00">C</text>
</g>
<!-- 2399482000720&#45;&#45;2399481999856 -->
<g id="edge4" class="edge"><title>2399482000720&#45;&#45;2399481999856</title>
<path fill="none" stroke="black" d="M192.43,-146.834C180.02,-134.77 162.269,-117.512 149.796,-105.385"/>
</g>
<!-- 2399482002448 -->
<g id="node6" class="node"><title>2399482002448</title>
<ellipse fill="none" stroke="black" cx="207" cy="-90" rx="27" ry="18"/>
<text text-anchor="middle" x="207" y="-86.5" font-family="Times New Roman,serif" font-size="15.00">xor</text>
</g>
<!-- 2399482000720&#45;&#45;2399482002448 -->
<g id="edge7" class="edge"><title>2399482000720&#45;&#45;2399482002448</title>
<path fill="none" stroke="black" d="M207,-143.697C207,-132.846 207,-118.917 207,-108.104"/>
</g>
<!-- 2399482002592 -->
<g id="node9" class="node"><title>2399482002592</title>
<ellipse fill="none" stroke="black" cx="279" cy="-90" rx="27" ry="18"/>
<text text-anchor="middle" x="279" y="-86.5" font-family="Times New Roman,serif" font-size="15.00">F</text>
</g>
<!-- 2399482000720&#45;&#45;2399482002592 -->
<g id="edge8" class="edge"><title>2399482000720&#45;&#45;2399482002592</title>
<path fill="none" stroke="black" d="M221.57,-146.834C233.98,-134.77 251.731,-117.512 264.204,-105.385"/>
</g>
<!-- 2399481966208 -->
<g id="node10" class="node"><title>2399481966208</title>
<ellipse fill="none" stroke="black" cx="351" cy="-90" rx="27" ry="18"/>
<text text-anchor="middle" x="351" y="-86.5" font-family="Times New Roman,serif" font-size="15.00">xor</text>
</g>
<!-- 2399482000720&#45;&#45;2399481966208 -->
<g id="edge11" class="edge"><title>2399482000720&#45;&#45;2399481966208</title>
<path fill="none" stroke="black" d="M228.248,-150.671C255.473,-137.437 302.398,-114.626 329.665,-101.371"/>
</g>
<!-- 2399481999808 -->
<g id="node3" class="node"><title>2399481999808</title>
<ellipse fill="none" stroke="black" cx="27" cy="-18" rx="27" ry="18"/>
<text text-anchor="middle" x="27" y="-14.5" font-family="Times New Roman,serif" font-size="15.00">A</text>
</g>
<!-- 2399482001536&#45;&#45;2399481999808 -->
<g id="edge1" class="edge"><title>2399482001536&#45;&#45;2399481999808</title>
<path fill="none" stroke="black" d="M54.6504,-72.7646C48.8345,-61.456 41.1103,-46.4367 35.3043,-35.1473"/>
</g>
<!-- 2399482002976 -->
<g id="node4" class="node"><title>2399482002976</title>
<ellipse fill="none" stroke="black" cx="99" cy="-18" rx="27" ry="18"/>
<text text-anchor="middle" x="99" y="-14.5" font-family="Times New Roman,serif" font-size="15.00">B</text>
</g>
<!-- 2399482001536&#45;&#45;2399482002976 -->
<g id="edge2" class="edge"><title>2399482001536&#45;&#45;2399482002976</title>
<path fill="none" stroke="black" d="M71.3496,-72.7646C77.1655,-61.456 84.8897,-46.4367 90.6957,-35.1473"/>
</g>
<!-- 2399482002688 -->
<g id="node7" class="node"><title>2399482002688</title>
<ellipse fill="none" stroke="black" cx="189" cy="-18" rx="27" ry="18"/>
<text text-anchor="middle" x="189" y="-14.5" font-family="Times New Roman,serif" font-size="15.00">E</text>
</g>
<!-- 2399482002448&#45;&#45;2399482002688 -->
<g id="edge5" class="edge"><title>2399482002448&#45;&#45;2399482002688</title>
<path fill="none" stroke="black" d="M202.643,-72.055C199.813,-61.0492 196.139,-46.7636 193.317,-35.789"/>
</g>
<!-- 2399482002784 -->
<g id="node8" class="node"><title>2399482002784</title>
<ellipse fill="none" stroke="black" cx="261" cy="-18" rx="27" ry="18"/>
<text text-anchor="middle" x="261" y="-14.5" font-family="Times New Roman,serif" font-size="15.00">D</text>
</g>
<!-- 2399482002448&#45;&#45;2399482002784 -->
<g id="edge6" class="edge"><title>2399482002448&#45;&#45;2399482002784</title>
<path fill="none" stroke="black" d="M218.984,-73.4647C227.933,-61.8645 240.108,-46.0816 249.049,-34.4918"/>
</g>
<!-- 2399481965968 -->
<g id="node11" class="node"><title>2399481965968</title>
<ellipse fill="none" stroke="black" cx="342" cy="-18" rx="27" ry="18"/>
<text text-anchor="middle" x="342" y="-14.5" font-family="Times New Roman,serif" font-size="15.00">H</text>
</g>
<!-- 2399481966208&#45;&#45;2399481965968 -->
<g id="edge9" class="edge"><title>2399481966208&#45;&#45;2399481965968</title>
<path fill="none" stroke="black" d="M348.821,-72.055C347.427,-61.2111 345.624,-47.183 344.221,-36.2753"/>
</g>
<!-- 2399481965824 -->
<g id="node12" class="node"><title>2399481965824</title>
<ellipse fill="none" stroke="black" cx="414" cy="-18" rx="27" ry="18"/>
<text text-anchor="middle" x="414" y="-14.5" font-family="Times New Roman,serif" font-size="15.00">G</text>
</g>
<!-- 2399481966208&#45;&#45;2399481965824 -->
<g id="edge10" class="edge"><title>2399481966208&#45;&#45;2399481965824</title>
<path fill="none" stroke="black" d="M364.361,-74.1548C375.052,-62.2756 389.972,-45.6974 400.659,-33.8238"/>
</g>
</g>
</svg>
