<?xml version="1.0" encoding="UTF-8" standalone="no"?>
<!DOCTYPE svg PUBLIC "-//W3C//DTD SVG 1.1//EN"
 "http://www.w3.org/Graphics/SVG/1.1/DTD/svg11.dtd">
<!-- Generated by graphviz version 2.38.0 (20140413.2041)
 -->
<!-- Title: pt Pages: 1 -->
<svg width="952pt" height="476pt"
 viewBox="0.00 0.00 952.00 476.00" xmlns="http://www.w3.org/2000/svg" xmlns:xlink="http://www.w3.org/1999/xlink">
<g id="graph0" class="graph" transform="scale(1 1) rotate(0) translate(4 472)">
<title>pt</title>
<!-- 2395621629616 -->
<g id="node1" class="node"><title>2395621629616</title>
<ellipse fill="none" stroke="black" cx="522" cy="-450" rx="27" ry="18"/>
<text text-anchor="middle" x="522" y="-446.5" font-family="Times New Roman,serif" font-size="15.00">seq</text>
</g>
<!-- 2395621628800 -->
<g id="node2" class="node"><title>2395621628800</title>
<ellipse fill="none" stroke="black" cx="243" cy="-378" rx="27" ry="18"/>
<text text-anchor="middle" x="243" y="-374.5" font-family="Times New Roman,serif" font-size="15.00">xor</text>
</g>
<!-- 2395621629616&#45;&#45;2395621628800 -->
<g id="edge10" class="edge"><title>2395621629616&#45;&#45;2395621628800</title>
<path fill="none" stroke="black" d="M497.241,-442.788C444.429,-429.538 321.222,-398.626 268.105,-385.299"/>
</g>
<!-- 2395621628608 -->
<g id="node12" class="node"><title>2395621628608</title>
<ellipse fill="none" stroke="black" cx="473" cy="-378" rx="46.6143" ry="18"/>
<text text-anchor="middle" x="473" y="-374.5" font-family="Times New Roman,serif" font-size="15.00">xor loop</text>
</g>
<!-- 2395621629616&#45;&#45;2395621628608 -->
<g id="edge20" class="edge"><title>2395621629616&#45;&#45;2395621628608</title>
<path fill="none" stroke="black" d="M511.125,-433.465C503.231,-422.187 492.569,-406.955 484.527,-395.467"/>
</g>
<!-- 2395621626400 -->
<g id="node22" class="node"><title>2395621626400</title>
<ellipse fill="none" stroke="black" cx="572" cy="-378" rx="27" ry="18"/>
<text text-anchor="middle" x="572" y="-374.5" font-family="Times New Roman,serif" font-size="15.00">and</text>
</g>
<!-- 2395621629616&#45;&#45;2395621626400 -->
<g id="edge25" class="edge"><title>2395621629616&#45;&#45;2395621626400</title>
<path fill="none" stroke="black" d="M533.097,-433.465C541.382,-421.865 552.656,-406.082 560.934,-394.492"/>
</g>
<!-- 2395621506640 -->
<g id="node27" class="node"><title>2395621506640</title>
<ellipse fill="none" stroke="black" cx="716" cy="-378" rx="27" ry="18"/>
<text text-anchor="middle" x="716" y="-374.5" font-family="Times New Roman,serif" font-size="15.00">xor</text>
</g>
<!-- 2395621629616&#45;&#45;2395621506640 -->
<g id="edge38" class="edge"><title>2395621629616&#45;&#45;2395621506640</title>
<path fill="none" stroke="black" d="M545.401,-440.556C582.789,-427.066 655.568,-400.805 692.818,-387.365"/>
</g>
<!-- 2395621628704 -->
<g id="node3" class="node"><title>2395621628704</title>
<ellipse fill="none" stroke="black" cx="99" cy="-306" rx="27" ry="18"/>
<text text-anchor="middle" x="99" y="-302.5" font-family="Times New Roman,serif" font-size="15.00">seq</text>
</g>
<!-- 2395621628800&#45;&#45;2395621628704 -->
<g id="edge3" class="edge"><title>2395621628800&#45;&#45;2395621628704</title>
<path fill="none" stroke="black" d="M221.752,-366.671C194.527,-353.437 147.602,-330.626 120.335,-317.371"/>
</g>
<!-- 2395621628032 -->
<g id="node6" class="node"><title>2395621628032</title>
<ellipse fill="none" stroke="black" cx="243" cy="-306" rx="27" ry="18"/>
<text text-anchor="middle" x="243" y="-302.5" font-family="Times New Roman,serif" font-size="15.00">seq</text>
</g>
<!-- 2395621628800&#45;&#45;2395621628032 -->
<g id="edge9" class="edge"><title>2395621628800&#45;&#45;2395621628032</title>
<path fill="none" stroke="black" d="M243,-359.697C243,-348.846 243,-334.917 243,-324.104"/>
</g>
<!-- 2395621628512 -->
<g id="node4" class="node"><title>2395621628512</title>
<ellipse fill="none" stroke="black" cx="27" cy="-234" rx="27" ry="18"/>
<text text-anchor="middle" x="27" y="-230.5" font-family="Times New Roman,serif" font-size="15.00">a</text>
</g>
<!-- 2395621628704&#45;&#45;2395621628512 -->
<g id="edge1" class="edge"><title>2395621628704&#45;&#45;2395621628512</title>
<path fill="none" stroke="black" d="M84.4297,-290.834C72.0202,-278.77 54.2694,-261.512 41.7957,-249.385"/>
</g>
<!-- 2395621628368 -->
<g id="node5" class="node"><title>2395621628368</title>
<ellipse fill="none" stroke="black" cx="99" cy="-234" rx="27" ry="18"/>
<text text-anchor="middle" x="99" y="-230.5" font-family="Times New Roman,serif" font-size="15.00">b</text>
</g>
<!-- 2395621628704&#45;&#45;2395621628368 -->
<g id="edge2" class="edge"><title>2395621628704&#45;&#45;2395621628368</title>
<path fill="none" stroke="black" d="M99,-287.697C99,-276.846 99,-262.917 99,-252.104"/>
</g>
<!-- 2395621628224 -->
<g id="node7" class="node"><title>2395621628224</title>
<ellipse fill="none" stroke="black" cx="171" cy="-234" rx="27" ry="18"/>
<text text-anchor="middle" x="171" y="-230.5" font-family="Times New Roman,serif" font-size="15.00">c</text>
</g>
<!-- 2395621628032&#45;&#45;2395621628224 -->
<g id="edge4" class="edge"><title>2395621628032&#45;&#45;2395621628224</title>
<path fill="none" stroke="black" d="M228.43,-290.834C216.02,-278.77 198.269,-261.512 185.796,-249.385"/>
</g>
<!-- 2395621629376 -->
<g id="node8" class="node"><title>2395621629376</title>
<ellipse fill="none" stroke="black" cx="243" cy="-234" rx="27" ry="18"/>
<text text-anchor="middle" x="243" y="-230.5" font-family="Times New Roman,serif" font-size="15.00">d</text>
</g>
<!-- 2395621628032&#45;&#45;2395621629376 -->
<g id="edge5" class="edge"><title>2395621628032&#45;&#45;2395621629376</title>
<path fill="none" stroke="black" d="M243,-287.697C243,-276.846 243,-262.917 243,-252.104"/>
</g>
<!-- 2395621626544 -->
<g id="node9" class="node"><title>2395621626544</title>
<ellipse fill="none" stroke="black" cx="315" cy="-234" rx="27" ry="18"/>
<text text-anchor="middle" x="315" y="-230.5" font-family="Times New Roman,serif" font-size="15.00">xor</text>
</g>
<!-- 2395621628032&#45;&#45;2395621626544 -->
<g id="edge8" class="edge"><title>2395621628032&#45;&#45;2395621626544</title>
<path fill="none" stroke="black" d="M257.57,-290.834C269.98,-278.77 287.731,-261.512 300.204,-249.385"/>
</g>
<!-- 2395621626304 -->
<g id="node10" class="node"><title>2395621626304</title>
<ellipse fill="none" stroke="black" cx="243" cy="-162" rx="27" ry="18"/>
<text text-anchor="middle" x="243" y="-158.5" font-family="Times New Roman,serif" font-size="15.00">f</text>
</g>
<!-- 2395621626544&#45;&#45;2395621626304 -->
<g id="edge6" class="edge"><title>2395621626544&#45;&#45;2395621626304</title>
<path fill="none" stroke="black" d="M300.43,-218.834C288.02,-206.77 270.269,-189.512 257.796,-177.385"/>
</g>
<!-- 2395621626160 -->
<g id="node11" class="node"><title>2395621626160</title>
<ellipse fill="none" stroke="black" cx="315" cy="-162" rx="27" ry="18"/>
<text text-anchor="middle" x="315" y="-158.5" font-family="Times New Roman,serif" font-size="15.00">e</text>
</g>
<!-- 2395621626544&#45;&#45;2395621626160 -->
<g id="edge7" class="edge"><title>2395621626544&#45;&#45;2395621626160</title>
<path fill="none" stroke="black" d="M315,-215.697C315,-204.846 315,-190.917 315,-180.104"/>
</g>
<!-- 2395621626016 -->
<g id="node13" class="node"><title>2395621626016</title>
<ellipse fill="none" stroke="black" cx="401" cy="-306" rx="27" ry="18"/>
<text text-anchor="middle" x="401" y="-302.5" font-family="Times New Roman,serif" font-size="15.00">q</text>
</g>
<!-- 2395621628608&#45;&#45;2395621626016 -->
<g id="edge11" class="edge"><title>2395621628608&#45;&#45;2395621626016</title>
<path fill="none" stroke="black" d="M456.662,-361.116C444.381,-349.176 427.696,-332.954 415.804,-321.393"/>
</g>
<!-- 2395621506544 -->
<g id="node14" class="node"><title>2395621506544</title>
<ellipse fill="none" stroke="black" cx="473" cy="-306" rx="27" ry="18"/>
<text text-anchor="middle" x="473" y="-302.5" font-family="Times New Roman,serif" font-size="15.00">seq</text>
</g>
<!-- 2395621628608&#45;&#45;2395621506544 -->
<g id="edge19" class="edge"><title>2395621628608&#45;&#45;2395621506544</title>
<path fill="none" stroke="black" d="M473,-359.697C473,-348.846 473,-334.917 473,-324.104"/>
</g>
<!-- 2395621505344 -->
<g id="node15" class="node"><title>2395621505344</title>
<ellipse fill="none" stroke="black" cx="387" cy="-234" rx="27" ry="18"/>
<text text-anchor="middle" x="387" y="-230.5" font-family="Times New Roman,serif" font-size="15.00">xor</text>
</g>
<!-- 2395621506544&#45;&#45;2395621505344 -->
<g id="edge14" class="edge"><title>2395621506544&#45;&#45;2395621505344</title>
<path fill="none" stroke="black" d="M456.418,-291.503C441.19,-279.108 418.743,-260.838 403.531,-248.455"/>
</g>
<!-- 2395621506016 -->
<g id="node18" class="node"><title>2395621506016</title>
<ellipse fill="none" stroke="black" cx="459" cy="-234" rx="27" ry="18"/>
<text text-anchor="middle" x="459" y="-230.5" font-family="Times New Roman,serif" font-size="15.00">p</text>
</g>
<!-- 2395621506544&#45;&#45;2395621506016 -->
<g id="edge15" class="edge"><title>2395621506544&#45;&#45;2395621506016</title>
<path fill="none" stroke="black" d="M469.611,-288.055C467.442,-277.211 464.637,-263.183 462.455,-252.275"/>
</g>
<!-- 2395621505248 -->
<g id="node19" class="node"><title>2395621505248</title>
<ellipse fill="none" stroke="black" cx="531" cy="-234" rx="27" ry="18"/>
<text text-anchor="middle" x="531" y="-230.5" font-family="Times New Roman,serif" font-size="15.00">xor</text>
</g>
<!-- 2395621506544&#45;&#45;2395621505248 -->
<g id="edge18" class="edge"><title>2395621506544&#45;&#45;2395621505248</title>
<path fill="none" stroke="black" d="M485.585,-289.811C495.314,-278.07 508.717,-261.893 518.439,-250.159"/>
</g>
<!-- 2395621505632 -->
<g id="node16" class="node"><title>2395621505632</title>
<ellipse fill="none" stroke="black" cx="387" cy="-162" rx="27" ry="18"/>
<text text-anchor="middle" x="387" y="-158.5" font-family="Times New Roman,serif" font-size="15.00">h</text>
</g>
<!-- 2395621505344&#45;&#45;2395621505632 -->
<g id="edge12" class="edge"><title>2395621505344&#45;&#45;2395621505632</title>
<path fill="none" stroke="black" d="M387,-215.697C387,-204.846 387,-190.917 387,-180.104"/>
</g>
<!-- 2395621505296 -->
<g id="node17" class="node"><title>2395621505296</title>
<ellipse fill="none" stroke="black" cx="459" cy="-162" rx="27" ry="18"/>
<text text-anchor="middle" x="459" y="-158.5" font-family="Times New Roman,serif" font-size="15.00">g</text>
</g>
<!-- 2395621505344&#45;&#45;2395621505296 -->
<g id="edge13" class="edge"><title>2395621505344&#45;&#45;2395621505296</title>
<path fill="none" stroke="black" d="M401.57,-218.834C413.98,-206.77 431.731,-189.512 444.204,-177.385"/>
</g>
<!-- 2395621506880 -->
<g id="node20" class="node"><title>2395621506880</title>
<ellipse fill="none" stroke="black" cx="531" cy="-162" rx="27" ry="18"/>
<text text-anchor="middle" x="531" y="-158.5" font-family="Times New Roman,serif" font-size="15.00">j</text>
</g>
<!-- 2395621505248&#45;&#45;2395621506880 -->
<g id="edge16" class="edge"><title>2395621505248&#45;&#45;2395621506880</title>
<path fill="none" stroke="black" d="M531,-215.697C531,-204.846 531,-190.917 531,-180.104"/>
</g>
<!-- 2395621506784 -->
<g id="node21" class="node"><title>2395621506784</title>
<ellipse fill="none" stroke="black" cx="603" cy="-162" rx="27" ry="18"/>
<text text-anchor="middle" x="603" y="-158.5" font-family="Times New Roman,serif" font-size="15.00">i</text>
</g>
<!-- 2395621505248&#45;&#45;2395621506784 -->
<g id="edge17" class="edge"><title>2395621505248&#45;&#45;2395621506784</title>
<path fill="none" stroke="black" d="M545.57,-218.834C557.98,-206.77 575.731,-189.512 588.204,-177.385"/>
</g>
<!-- 2395621506496 -->
<g id="node23" class="node"><title>2395621506496</title>
<ellipse fill="none" stroke="black" cx="572" cy="-306" rx="27" ry="18"/>
<text text-anchor="middle" x="572" y="-302.5" font-family="Times New Roman,serif" font-size="15.00">xor</text>
</g>
<!-- 2395621626400&#45;&#45;2395621506496 -->
<g id="edge23" class="edge"><title>2395621626400&#45;&#45;2395621506496</title>
<path fill="none" stroke="black" d="M572,-359.697C572,-348.846 572,-334.917 572,-324.104"/>
</g>
<!-- 2395621506688 -->
<g id="node26" class="node"><title>2395621506688</title>
<ellipse fill="none" stroke="black" cx="644" cy="-306" rx="27" ry="18"/>
<text text-anchor="middle" x="644" y="-302.5" font-family="Times New Roman,serif" font-size="15.00">k</text>
</g>
<!-- 2395621626400&#45;&#45;2395621506688 -->
<g id="edge24" class="edge"><title>2395621626400&#45;&#45;2395621506688</title>
<path fill="none" stroke="black" d="M586.57,-362.834C598.98,-350.77 616.731,-333.512 629.204,-321.385"/>
</g>
<!-- 2395621506352 -->
<g id="node24" class="node"><title>2395621506352</title>
<ellipse fill="black" stroke="black" cx="579" cy="-234" rx="2.7" ry="2.7"/>
</g>
<!-- 2395621506496&#45;&#45;2395621506352 -->
<g id="edge21" class="edge"><title>2395621506496&#45;&#45;2395621506352</title>
<path fill="none" stroke="black" d="M573.73,-287.697C575.512,-269.883 578.123,-243.769 578.822,-236.776"/>
</g>
<!-- 2395621505104 -->
<g id="node25" class="node"><title>2395621505104</title>
<ellipse fill="none" stroke="black" cx="627" cy="-234" rx="27" ry="18"/>
<text text-anchor="middle" x="627" y="-230.5" font-family="Times New Roman,serif" font-size="15.00">l</text>
</g>
<!-- 2395621506496&#45;&#45;2395621505104 -->
<g id="edge22" class="edge"><title>2395621506496&#45;&#45;2395621505104</title>
<path fill="none" stroke="black" d="M583.934,-289.811C593.16,-278.07 605.87,-261.893 615.089,-250.159"/>
</g>
<!-- 2395621505968 -->
<g id="node28" class="node"><title>2395621505968</title>
<ellipse fill="none" stroke="black" cx="716" cy="-306" rx="27" ry="18"/>
<text text-anchor="middle" x="716" y="-302.5" font-family="Times New Roman,serif" font-size="15.00">t</text>
</g>
<!-- 2395621506640&#45;&#45;2395621505968 -->
<g id="edge26" class="edge"><title>2395621506640&#45;&#45;2395621505968</title>
<path fill="none" stroke="black" d="M716,-359.697C716,-348.846 716,-334.917 716,-324.104"/>
</g>
<!-- 2395621506208 -->
<g id="node29" class="node"><title>2395621506208</title>
<ellipse fill="none" stroke="black" cx="788" cy="-306" rx="27" ry="18"/>
<text text-anchor="middle" x="788" y="-302.5" font-family="Times New Roman,serif" font-size="15.00">seq</text>
</g>
<!-- 2395621506640&#45;&#45;2395621506208 -->
<g id="edge37" class="edge"><title>2395621506640&#45;&#45;2395621506208</title>
<path fill="none" stroke="black" d="M730.57,-362.834C742.98,-350.77 760.731,-333.512 773.204,-321.385"/>
</g>
<!-- 2395612398832 -->
<g id="node30" class="node"><title>2395612398832</title>
<ellipse fill="none" stroke="black" cx="753" cy="-234" rx="27" ry="18"/>
<text text-anchor="middle" x="753" y="-230.5" font-family="Times New Roman,serif" font-size="15.00">xor</text>
</g>
<!-- 2395621506208&#45;&#45;2395612398832 -->
<g id="edge33" class="edge"><title>2395621506208&#45;&#45;2395612398832</title>
<path fill="none" stroke="black" d="M779.882,-288.765C774.309,-277.618 766.933,-262.865 761.317,-251.633"/>
</g>
<!-- 2395612398784 -->
<g id="node37" class="node"><title>2395612398784</title>
<ellipse fill="none" stroke="black" cx="845" cy="-234" rx="27" ry="18"/>
<text text-anchor="middle" x="845" y="-230.5" font-family="Times New Roman,serif" font-size="15.00">xor</text>
</g>
<!-- 2395621506208&#45;&#45;2395612398784 -->
<g id="edge36" class="edge"><title>2395621506208&#45;&#45;2395612398784</title>
<path fill="none" stroke="black" d="M800.368,-289.811C809.929,-278.07 823.101,-261.893 832.656,-250.159"/>
</g>
<!-- 2395612400032 -->
<g id="node31" class="node"><title>2395612400032</title>
<ellipse fill="black" stroke="black" cx="686" cy="-162" rx="2.7" ry="2.7"/>
</g>
<!-- 2395612398832&#45;&#45;2395612400032 -->
<g id="edge27" class="edge"><title>2395612398832&#45;&#45;2395612400032</title>
<path fill="none" stroke="black" d="M739.118,-218.496C721.946,-200.555 694.157,-171.522 687.477,-164.544"/>
</g>
<!-- 2395612398400 -->
<g id="node32" class="node"><title>2395612398400</title>
<ellipse fill="none" stroke="black" cx="753" cy="-162" rx="46.6143" ry="18"/>
<text text-anchor="middle" x="753" y="-158.5" font-family="Times New Roman,serif" font-size="15.00">xor loop</text>
</g>
<!-- 2395612398832&#45;&#45;2395612398400 -->
<g id="edge32" class="edge"><title>2395612398832&#45;&#45;2395612398400</title>
<path fill="none" stroke="black" d="M753,-215.697C753,-204.846 753,-190.917 753,-180.104"/>
</g>
<!-- 2395612399216 -->
<g id="node33" class="node"><title>2395612399216</title>
<ellipse fill="none" stroke="black" cx="717" cy="-90" rx="27" ry="18"/>
<text text-anchor="middle" x="717" y="-86.5" font-family="Times New Roman,serif" font-size="15.00">m</text>
</g>
<!-- 2395612398400&#45;&#45;2395612399216 -->
<g id="edge28" class="edge"><title>2395612398400&#45;&#45;2395612399216</title>
<path fill="none" stroke="black" d="M744.285,-144.055C738.542,-132.887 731.062,-118.343 725.386,-107.307"/>
</g>
<!-- 2395612399600 -->
<g id="node34" class="node"><title>2395612399600</title>
<ellipse fill="none" stroke="black" cx="789" cy="-90" rx="27" ry="18"/>
<text text-anchor="middle" x="789" y="-86.5" font-family="Times New Roman,serif" font-size="15.00">seq</text>
</g>
<!-- 2395612398400&#45;&#45;2395612399600 -->
<g id="edge31" class="edge"><title>2395612398400&#45;&#45;2395612399600</title>
<path fill="none" stroke="black" d="M761.715,-144.055C767.458,-132.887 774.938,-118.343 780.614,-107.307"/>
</g>
<!-- 2395612399648 -->
<g id="node35" class="node"><title>2395612399648</title>
<ellipse fill="none" stroke="black" cx="753" cy="-18" rx="27" ry="18"/>
<text text-anchor="middle" x="753" y="-14.5" font-family="Times New Roman,serif" font-size="15.00">n</text>
</g>
<!-- 2395612399600&#45;&#45;2395612399648 -->
<g id="edge29" class="edge"><title>2395612399600&#45;&#45;2395612399648</title>
<path fill="none" stroke="black" d="M780.65,-72.7646C774.835,-61.456 767.11,-46.4367 761.304,-35.1473"/>
</g>
<!-- 2395612398016 -->
<g id="node36" class="node"><title>2395612398016</title>
<ellipse fill="none" stroke="black" cx="825" cy="-18" rx="27" ry="18"/>
<text text-anchor="middle" x="825" y="-14.5" font-family="Times New Roman,serif" font-size="15.00">o</text>
</g>
<!-- 2395612399600&#45;&#45;2395612398016 -->
<g id="edge30" class="edge"><title>2395612399600&#45;&#45;2395612398016</title>
<path fill="none" stroke="black" d="M797.35,-72.7646C803.165,-61.456 810.89,-46.4367 816.696,-35.1473"/>
</g>
<!-- 2395612401568 -->
<g id="node38" class="node"><title>2395612401568</title>
<ellipse fill="none" stroke="black" cx="845" cy="-162" rx="27" ry="18"/>
<text text-anchor="middle" x="845" y="-158.5" font-family="Times New Roman,serif" font-size="15.00">s</text>
</g>
<!-- 2395612398784&#45;&#45;2395612401568 -->
<g id="edge34" class="edge"><title>2395612398784&#45;&#45;2395612401568</title>
<path fill="none" stroke="black" d="M845,-215.697C845,-204.846 845,-190.917 845,-180.104"/>
</g>
<!-- 2395612400752 -->
<g id="node39" class="node"><title>2395612400752</title>
<ellipse fill="none" stroke="black" cx="917" cy="-162" rx="27" ry="18"/>
<text text-anchor="middle" x="917" y="-158.5" font-family="Times New Roman,serif" font-size="15.00">r</text>
</g>
<!-- 2395612398784&#45;&#45;2395612400752 -->
<g id="edge35" class="edge"><title>2395612398784&#45;&#45;2395612400752</title>
<path fill="none" stroke="black" d="M859.57,-218.834C871.98,-206.77 889.731,-189.512 902.204,-177.385"/>
</g>
</g>
</svg>
