<?xml version="1.0" encoding="UTF-8" standalone="no"?>
<!DOCTYPE svg PUBLIC "-//W3C//DTD SVG 1.1//EN"
 "http://www.w3.org/Graphics/SVG/1.1/DTD/svg11.dtd">
<!-- Generated by graphviz version 2.38.0 (20140413.2041)
 -->
<!-- Title: pt Pages: 1 -->
<svg width="296pt" height="260pt"
 viewBox="0.00 0.00 296.00 260.00" xmlns="http://www.w3.org/2000/svg" xmlns:xlink="http://www.w3.org/1999/xlink">
<g id="graph0" class="graph" transform="scale(1 1) rotate(0) translate(4 256)">
<title>pt</title>
<!-- 2796902060624 -->
<g id="node1" class="node"><title>2796902060624</title>
<ellipse fill="none" stroke="black" cx="159" cy="-234" rx="46.6143" ry="18"/>
<text text-anchor="middle" x="159" y="-230.5" font-family="Times New Roman,serif" font-size="15.00">xor loop</text>
</g>
<!-- 2796902061104 -->
<g id="node2" class="node"><title>2796902061104</title>
<ellipse fill="none" stroke="black" cx="135" cy="-162" rx="27" ry="18"/>
<text text-anchor="middle" x="135" y="-158.5" font-family="Times New Roman,serif" font-size="15.00">seq</text>
</g>
<!-- 2796902060624&#45;&#45;2796902061104 -->
<g id="edge8" class="edge"><title>2796902060624&#45;&#45;2796902061104</title>
<path fill="none" stroke="black" d="M153.19,-216.055C149.417,-205.049 144.519,-190.764 140.756,-179.789"/>
</g>
<!-- 2796790155008 -->
<g id="node10" class="node"><title>2796790155008</title>
<ellipse fill="black" stroke="black" cx="183" cy="-162" rx="2.7" ry="2.7"/>
</g>
<!-- 2796902060624&#45;&#45;2796790155008 -->
<g id="edge9" class="edge"><title>2796902060624&#45;&#45;2796790155008</title>
<path fill="none" stroke="black" d="M164.81,-216.055C170.914,-198.252 179.96,-171.865 182.384,-164.796"/>
</g>
<!-- 2796790153616 -->
<g id="node3" class="node"><title>2796790153616</title>
<ellipse fill="none" stroke="black" cx="63" cy="-90" rx="27" ry="18"/>
<text text-anchor="middle" x="63" y="-86.5" font-family="Times New Roman,serif" font-size="15.00">xor</text>
</g>
<!-- 2796902061104&#45;&#45;2796790153616 -->
<g id="edge3" class="edge"><title>2796902061104&#45;&#45;2796790153616</title>
<path fill="none" stroke="black" d="M120.43,-146.834C108.02,-134.77 90.2694,-117.512 77.7957,-105.385"/>
</g>
<!-- 2796790153376 -->
<g id="node6" class="node"><title>2796790153376</title>
<ellipse fill="none" stroke="black" cx="135" cy="-90" rx="27" ry="18"/>
<text text-anchor="middle" x="135" y="-86.5" font-family="Times New Roman,serif" font-size="15.00">C</text>
</g>
<!-- 2796902061104&#45;&#45;2796790153376 -->
<g id="edge4" class="edge"><title>2796902061104&#45;&#45;2796790153376</title>
<path fill="none" stroke="black" d="M135,-143.697C135,-132.846 135,-118.917 135,-108.104"/>
</g>
<!-- 2796790153280 -->
<g id="node7" class="node"><title>2796790153280</title>
<ellipse fill="none" stroke="black" cx="207" cy="-90" rx="27" ry="18"/>
<text text-anchor="middle" x="207" y="-86.5" font-family="Times New Roman,serif" font-size="15.00">xor</text>
</g>
<!-- 2796902061104&#45;&#45;2796790153280 -->
<g id="edge7" class="edge"><title>2796902061104&#45;&#45;2796790153280</title>
<path fill="none" stroke="black" d="M149.57,-146.834C161.98,-134.77 179.731,-117.512 192.204,-105.385"/>
</g>
<!-- 2796790155584 -->
<g id="node4" class="node"><title>2796790155584</title>
<ellipse fill="none" stroke="black" cx="27" cy="-18" rx="27" ry="18"/>
<text text-anchor="middle" x="27" y="-14.5" font-family="Times New Roman,serif" font-size="15.00">A</text>
</g>
<!-- 2796790153616&#45;&#45;2796790155584 -->
<g id="edge1" class="edge"><title>2796790153616&#45;&#45;2796790155584</title>
<path fill="none" stroke="black" d="M54.6504,-72.7646C48.8345,-61.456 41.1103,-46.4367 35.3043,-35.1473"/>
</g>
<!-- 2796790153328 -->
<g id="node5" class="node"><title>2796790153328</title>
<ellipse fill="none" stroke="black" cx="99" cy="-18" rx="27" ry="18"/>
<text text-anchor="middle" x="99" y="-14.5" font-family="Times New Roman,serif" font-size="15.00">B</text>
</g>
<!-- 2796790153616&#45;&#45;2796790153328 -->
<g id="edge2" class="edge"><title>2796790153616&#45;&#45;2796790153328</title>
<path fill="none" stroke="black" d="M71.3496,-72.7646C77.1655,-61.456 84.8897,-46.4367 90.6957,-35.1473"/>
</g>
<!-- 2796790155200 -->
<g id="node8" class="node"><title>2796790155200</title>
<ellipse fill="none" stroke="black" cx="189" cy="-18" rx="27" ry="18"/>
<text text-anchor="middle" x="189" y="-14.5" font-family="Times New Roman,serif" font-size="15.00">E</text>
</g>
<!-- 2796790153280&#45;&#45;2796790155200 -->
<g id="edge5" class="edge"><title>2796790153280&#45;&#45;2796790155200</title>
<path fill="none" stroke="black" d="M202.643,-72.055C199.813,-61.0492 196.139,-46.7636 193.317,-35.789"/>
</g>
<!-- 2796791623840 -->
<g id="node9" class="node"><title>2796791623840</title>
<ellipse fill="none" stroke="black" cx="261" cy="-18" rx="27" ry="18"/>
<text text-anchor="middle" x="261" y="-14.5" font-family="Times New Roman,serif" font-size="15.00">D</text>
</g>
<!-- 2796790153280&#45;&#45;2796791623840 -->
<g id="edge6" class="edge"><title>2796790153280&#45;&#45;2796791623840</title>
<path fill="none" stroke="black" d="M218.984,-73.4647C227.933,-61.8645 240.108,-46.0816 249.049,-34.4918"/>
</g>
</g>
</svg>
