<?xml version="1.0" encoding="UTF-8" standalone="no"?>
<!DOCTYPE svg PUBLIC "-//W3C//DTD SVG 1.1//EN"
 "http://www.w3.org/Graphics/SVG/1.1/DTD/svg11.dtd">
<!-- Generated by graphviz version 2.38.0 (20140413.2041)
 -->
<!-- Title: pt Pages: 1 -->
<svg width="949pt" height="332pt"
 viewBox="0.00 0.00 949.42 332.00" xmlns="http://www.w3.org/2000/svg" xmlns:xlink="http://www.w3.org/1999/xlink">
<g id="graph0" class="graph" transform="scale(1 1) rotate(0) translate(4 328)">
<title>pt</title>
<!-- 2848840027104 -->
<g id="node1" class="node"><title>2848840027104</title>
<ellipse fill="none" stroke="black" cx="425.014" cy="-306" rx="27" ry="18"/>
<text text-anchor="middle" x="425.014" y="-302.5" font-family="Times New Roman,serif" font-size="15.00">seq</text>
</g>
<!-- 2848840167088 -->
<g id="node2" class="node"><title>2848840167088</title>
<ellipse fill="none" stroke="black" cx="191.014" cy="-234" rx="55.6813" ry="18"/>
<text text-anchor="middle" x="191.014" y="-230.5" font-family="Times New Roman,serif" font-size="15.00">Admission</text>
</g>
<!-- 2848840027104&#45;&#45;2848840167088 -->
<g id="edge1" class="edge"><title>2848840027104&#45;&#45;2848840167088</title>
<path fill="none" stroke="black" d="M400.853,-297.772C360.567,-285.721 279.296,-261.409 230.566,-246.832"/>
</g>
<!-- 2849205945440 -->
<g id="node3" class="node"><title>2849205945440</title>
<ellipse fill="none" stroke="black" cx="292.014" cy="-234" rx="27" ry="18"/>
<text text-anchor="middle" x="292.014" y="-230.5" font-family="Times New Roman,serif" font-size="15.00">xor</text>
</g>
<!-- 2848840027104&#45;&#45;2849205945440 -->
<g id="edge10" class="edge"><title>2848840027104&#45;&#45;2849205945440</title>
<path fill="none" stroke="black" d="M404.524,-294.216C379.604,-281.1 337.775,-259.085 312.746,-245.912"/>
</g>
<!-- 2848837269296 -->
<g id="node12" class="node"><title>2848837269296</title>
<ellipse fill="none" stroke="black" cx="381.014" cy="-234" rx="43.5563" ry="18"/>
<text text-anchor="middle" x="381.014" y="-230.5" font-family="Times New Roman,serif" font-size="15.00">Waiting</text>
</g>
<!-- 2848840027104&#45;&#45;2848837269296 -->
<g id="edge11" class="edge"><title>2848840027104&#45;&#45;2848837269296</title>
<path fill="none" stroke="black" d="M415.03,-289.116C408.032,-277.983 398.694,-263.127 391.572,-251.797"/>
</g>
<!-- 2849205977392 -->
<g id="node13" class="node"><title>2849205977392</title>
<ellipse fill="none" stroke="black" cx="470.014" cy="-234" rx="27" ry="18"/>
<text text-anchor="middle" x="470.014" y="-230.5" font-family="Times New Roman,serif" font-size="15.00">xor</text>
</g>
<!-- 2848840027104&#45;&#45;2849205977392 -->
<g id="edge14" class="edge"><title>2848840027104&#45;&#45;2849205977392</title>
<path fill="none" stroke="black" d="M435.225,-289.116C442.59,-277.66 452.488,-262.263 459.843,-250.821"/>
</g>
<!-- 2849205978880 -->
<g id="node16" class="node"><title>2849205978880</title>
<ellipse fill="none" stroke="black" cx="562.014" cy="-234" rx="47.0053" ry="18"/>
<text text-anchor="middle" x="562.014" y="-230.5" font-family="Times New Roman,serif" font-size="15.00">Checkup</text>
</g>
<!-- 2848840027104&#45;&#45;2849205978880 -->
<g id="edge15" class="edge"><title>2848840027104&#45;&#45;2849205978880</title>
<path fill="none" stroke="black" d="M445.821,-294.369C469.625,-282.206 508.682,-262.25 534.863,-248.873"/>
</g>
<!-- 2849205979696 -->
<g id="node17" class="node"><title>2849205979696</title>
<ellipse fill="none" stroke="black" cx="735.014" cy="-234" rx="27" ry="18"/>
<text text-anchor="middle" x="735.014" y="-230.5" font-family="Times New Roman,serif" font-size="15.00">xor</text>
</g>
<!-- 2848840027104&#45;&#45;2849205979696 -->
<g id="edge18" class="edge"><title>2848840027104&#45;&#45;2849205979696</title>
<path fill="none" stroke="black" d="M450.12,-299.331C508.209,-286.214 651.357,-253.89 709.673,-240.722"/>
</g>
<!-- 2848837269392 -->
<g id="node4" class="node"><title>2848837269392</title>
<ellipse fill="none" stroke="black" cx="66.0138" cy="-162" rx="66.0276" ry="18"/>
<text text-anchor="middle" x="66.0138" y="-158.5" font-family="Times New Roman,serif" font-size="15.00">Doctor Exam</text>
</g>
<!-- 2849205945440&#45;&#45;2848837269392 -->
<g id="edge2" class="edge"><title>2849205945440&#45;&#45;2848837269392</title>
<path fill="none" stroke="black" d="M267.828,-225.509C229.681,-213.693 155.056,-190.579 108.018,-176.01"/>
</g>
<!-- 2848837269920 -->
<g id="node5" class="node"><title>2848837269920</title>
<ellipse fill="none" stroke="black" cx="212.014" cy="-162" rx="61.6894" ry="18"/>
<text text-anchor="middle" x="212.014" y="-158.5" font-family="Times New Roman,serif" font-size="15.00">Nurse Exam</text>
</g>
<!-- 2849205945440&#45;&#45;2848837269920 -->
<g id="edge3" class="edge"><title>2849205945440&#45;&#45;2848837269920</title>
<path fill="none" stroke="black" d="M276.208,-219.17C263.094,-207.695 244.422,-191.357 230.594,-179.257"/>
</g>
<!-- 2849534727024 -->
<g id="node6" class="node"><title>2849534727024</title>
<ellipse fill="none" stroke="black" cx="319.014" cy="-162" rx="27" ry="18"/>
<text text-anchor="middle" x="319.014" y="-158.5" font-family="Times New Roman,serif" font-size="15.00">seq</text>
</g>
<!-- 2849205945440&#45;&#45;2849534727024 -->
<g id="edge9" class="edge"><title>2849205945440&#45;&#45;2849534727024</title>
<path fill="none" stroke="black" d="M298.412,-216.411C302.654,-205.414 308.203,-191.027 312.474,-179.956"/>
</g>
<!-- 2849534726832 -->
<g id="node7" class="node"><title>2849534726832</title>
<ellipse fill="none" stroke="black" cx="168.014" cy="-90" rx="105.744" ry="18"/>
<text text-anchor="middle" x="168.014" y="-86.5" font-family="Times New Roman,serif" font-size="15.00">Equipment preparation</text>
</g>
<!-- 2849534727024&#45;&#45;2849534726832 -->
<g id="edge4" class="edge"><title>2849534727024&#45;&#45;2849534726832</title>
<path fill="none" stroke="black" d="M297.379,-150.971C272.67,-139.516 231.9,-120.616 202.732,-107.094"/>
</g>
<!-- 2849205980032 -->
<g id="node8" class="node"><title>2849205980032</title>
<ellipse fill="none" stroke="black" cx="319.014" cy="-90" rx="27" ry="18"/>
<text text-anchor="middle" x="319.014" y="-86.5" font-family="Times New Roman,serif" font-size="15.00">xor</text>
</g>
<!-- 2849534727024&#45;&#45;2849205980032 -->
<g id="edge7" class="edge"><title>2849534727024&#45;&#45;2849205980032</title>
<path fill="none" stroke="black" d="M319.014,-143.697C319.014,-132.846 319.014,-118.917 319.014,-108.104"/>
</g>
<!-- 2849205980224 -->
<g id="node11" class="node"><title>2849205980224</title>
<ellipse fill="none" stroke="black" cx="422.014" cy="-90" rx="57.851" ry="18"/>
<text text-anchor="middle" x="422.014" y="-86.5" font-family="Times New Roman,serif" font-size="15.00">Report edit</text>
</g>
<!-- 2849534727024&#45;&#45;2849205980224 -->
<g id="edge8" class="edge"><title>2849534727024&#45;&#45;2849205980224</title>
<path fill="none" stroke="black" d="M337.428,-148.485C354.672,-136.767 380.497,-119.215 399.073,-106.591"/>
</g>
<!-- 2849205979360 -->
<g id="node9" class="node"><title>2849205979360</title>
<ellipse fill="none" stroke="black" cx="272.014" cy="-18" rx="30.6498" ry="18"/>
<text text-anchor="middle" x="272.014" y="-14.5" font-family="Times New Roman,serif" font-size="15.00">MRI</text>
</g>
<!-- 2849205980032&#45;&#45;2849205979360 -->
<g id="edge5" class="edge"><title>2849205980032&#45;&#45;2849205979360</title>
<path fill="none" stroke="black" d="M308.349,-73.1159C300.765,-61.8213 290.609,-46.6956 282.963,-35.307"/>
</g>
<!-- 2849205979600 -->
<g id="node10" class="node"><title>2849205979600</title>
<ellipse fill="none" stroke="black" cx="365.014" cy="-18" rx="44.445" ry="18"/>
<text text-anchor="middle" x="365.014" y="-14.5" font-family="Times New Roman,serif" font-size="15.00">Scanner</text>
</g>
<!-- 2849205980032&#45;&#45;2849205979600 -->
<g id="edge6" class="edge"><title>2849205980032&#45;&#45;2849205979600</title>
<path fill="none" stroke="black" d="M329.452,-73.1159C336.768,-61.9827 346.53,-47.127 353.976,-35.7973"/>
</g>
<!-- 2849205977488 -->
<g id="node14" class="node"><title>2849205977488</title>
<ellipse fill="none" stroke="black" cx="443.014" cy="-162" rx="79.4338" ry="18"/>
<text text-anchor="middle" x="443.014" y="-158.5" font-family="Times New Roman,serif" font-size="15.00">Operating Room</text>
</g>
<!-- 2849205977392&#45;&#45;2849205977488 -->
<g id="edge12" class="edge"><title>2849205977392&#45;&#45;2849205977488</title>
<path fill="none" stroke="black" d="M463.615,-216.411C459.374,-205.414 453.824,-191.027 449.554,-179.956"/>
</g>
<!-- 2849205979024 -->
<g id="node15" class="node"><title>2849205979024</title>
<ellipse fill="none" stroke="black" cx="602.014" cy="-162" rx="61.6894" ry="18"/>
<text text-anchor="middle" x="602.014" y="-158.5" font-family="Times New Roman,serif" font-size="15.00">Observation</text>
</g>
<!-- 2849205977392&#45;&#45;2849205979024 -->
<g id="edge13" class="edge"><title>2849205977392&#45;&#45;2849205979024</title>
<path fill="none" stroke="black" d="M490.639,-222.063C512.972,-210.219 548.74,-191.252 573.697,-178.017"/>
</g>
<!-- 2849445587792 -->
<g id="node18" class="node"><title>2849445587792</title>
<ellipse fill="none" stroke="black" cx="735.014" cy="-162" rx="53.5119" ry="18"/>
<text text-anchor="middle" x="735.014" y="-158.5" font-family="Times New Roman,serif" font-size="15.00">Discharge</text>
</g>
<!-- 2849205979696&#45;&#45;2849445587792 -->
<g id="edge16" class="edge"><title>2849205979696&#45;&#45;2849445587792</title>
<path fill="none" stroke="black" d="M735.014,-215.697C735.014,-204.846 735.014,-190.917 735.014,-180.104"/>
</g>
<!-- 2849445588128 -->
<g id="node19" class="node"><title>2849445588128</title>
<ellipse fill="none" stroke="black" cx="874.014" cy="-162" rx="67.3073" ry="18"/>
<text text-anchor="middle" x="874.014" y="-158.5" font-family="Times New Roman,serif" font-size="15.00">Complication</text>
</g>
<!-- 2849205979696&#45;&#45;2849445588128 -->
<g id="edge17" class="edge"><title>2849205979696&#45;&#45;2849445588128</title>
<path fill="none" stroke="black" d="M755.824,-222.52C779.15,-210.773 817.182,-191.62 843.786,-178.223"/>
</g>
</g>
</svg>
