<?xml version="1.0" encoding="UTF-8" standalone="no"?>
<!DOCTYPE svg PUBLIC "-//W3C//DTD SVG 1.1//EN"
 "http://www.w3.org/Graphics/SVG/1.1/DTD/svg11.dtd">
<!-- Generated by graphviz version 2.38.0 (20140413.2041)
 -->
<!-- Title: pt Pages: 1 -->
<svg width="784pt" height="1196pt"
 viewBox="0.00 0.00 784.26 1196.00" xmlns="http://www.w3.org/2000/svg" xmlns:xlink="http://www.w3.org/1999/xlink">
<g id="graph0" class="graph" transform="scale(1 1) rotate(0) translate(4 1192)">
<title>pt</title>
<!-- 1608498500512 -->
<g id="node1" class="node"><title>1608498500512</title>
<ellipse fill="none" stroke="black" cx="134.7" cy="-1170" rx="27" ry="18"/>
<text text-anchor="middle" x="134.7" y="-1166.5" font-family="Times New Roman,serif" font-size="15.00">seq</text>
</g>
<!-- 1608498503632 -->
<g id="node2" class="node"><title>1608498503632</title>
<ellipse fill="none" stroke="black" cx="88.7" cy="-1098" rx="46.6143" ry="18"/>
<text text-anchor="middle" x="88.7" y="-1094.5" font-family="Times New Roman,serif" font-size="15.00">xor loop</text>
</g>
<!-- 1608498500512&#45;&#45;1608498503632 -->
<g id="edge3" class="edge"><title>1608498500512&#45;&#45;1608498503632</title>
<path fill="none" stroke="black" d="M124.262,-1153.12C116.946,-1141.98 107.183,-1127.13 99.7383,-1115.8"/>
</g>
<!-- 1608498500656 -->
<g id="node5" class="node"><title>1608498500656</title>
<ellipse fill="none" stroke="black" cx="180.7" cy="-1098" rx="27" ry="18"/>
<text text-anchor="middle" x="180.7" y="-1094.5" font-family="Times New Roman,serif" font-size="15.00">xor</text>
</g>
<!-- 1608498500512&#45;&#45;1608498500656 -->
<g id="edge60" class="edge"><title>1608498500512&#45;&#45;1608498500656</title>
<path fill="none" stroke="black" d="M145.138,-1153.12C152.666,-1141.66 162.785,-1126.26 170.303,-1114.82"/>
</g>
<!-- 1608498492224 -->
<g id="node3" class="node"><title>1608498492224</title>
<ellipse fill="none" stroke="black" cx="61.7" cy="-1026" rx="34.99" ry="18"/>
<text text-anchor="middle" x="61.7" y="-1022.5" font-family="Times New Roman,serif" font-size="15.00">NEW</text>
</g>
<!-- 1608498503632&#45;&#45;1608498492224 -->
<g id="edge1" class="edge"><title>1608498503632&#45;&#45;1608498492224</title>
<path fill="none" stroke="black" d="M82.1641,-1080.05C77.919,-1069.05 72.4088,-1054.76 68.1758,-1043.79"/>
</g>
<!-- 1608498491552 -->
<g id="node4" class="node"><title>1608498491552</title>
<ellipse fill="black" stroke="black" cx="116.7" cy="-1026" rx="2.7" ry="2.7"/>
</g>
<!-- 1608498503632&#45;&#45;1608498491552 -->
<g id="edge2" class="edge"><title>1608498503632&#45;&#45;1608498491552</title>
<path fill="none" stroke="black" d="M95.478,-1080.05C102.599,-1062.25 113.154,-1035.87 115.981,-1028.8"/>
</g>
<!-- 1609238870912 -->
<g id="node6" class="node"><title>1609238870912</title>
<ellipse fill="black" stroke="black" cx="146.7" cy="-1026" rx="2.7" ry="2.7"/>
</g>
<!-- 1608498500656&#45;&#45;1609238870912 -->
<g id="edge4" class="edge"><title>1608498500656&#45;&#45;1609238870912</title>
<path fill="none" stroke="black" d="M172.814,-1080.76C164.183,-1062.99 151.101,-1036.06 147.592,-1028.84"/>
</g>
<!-- 1609238869520 -->
<g id="node7" class="node"><title>1609238869520</title>
<ellipse fill="none" stroke="black" cx="213.7" cy="-1026" rx="46.6143" ry="18"/>
<text text-anchor="middle" x="213.7" y="-1022.5" font-family="Times New Roman,serif" font-size="15.00">xor loop</text>
</g>
<!-- 1608498500656&#45;&#45;1609238869520 -->
<g id="edge59" class="edge"><title>1608498500656&#45;&#45;1609238869520</title>
<path fill="none" stroke="black" d="M188.521,-1080.41C193.705,-1069.41 200.487,-1055.03 205.706,-1043.96"/>
</g>
<!-- 1609238869904 -->
<g id="node8" class="node"><title>1609238869904</title>
<ellipse fill="none" stroke="black" cx="189.7" cy="-954" rx="27" ry="18"/>
<text text-anchor="middle" x="189.7" y="-950.5" font-family="Times New Roman,serif" font-size="15.00">seq</text>
</g>
<!-- 1609238869520&#45;&#45;1609238869904 -->
<g id="edge57" class="edge"><title>1609238869520&#45;&#45;1609238869904</title>
<path fill="none" stroke="black" d="M207.89,-1008.05C204.117,-997.049 199.219,-982.764 195.456,-971.789"/>
</g>
<!-- 1609238870000 -->
<g id="node61" class="node"><title>1609238870000</title>
<ellipse fill="black" stroke="black" cx="237.7" cy="-954" rx="2.7" ry="2.7"/>
</g>
<!-- 1609238869520&#45;&#45;1609238870000 -->
<g id="edge58" class="edge"><title>1609238869520&#45;&#45;1609238870000</title>
<path fill="none" stroke="black" d="M219.51,-1008.05C225.614,-990.252 234.66,-963.865 237.084,-956.796"/>
</g>
<!-- 1609238870096 -->
<g id="node9" class="node"><title>1609238870096</title>
<ellipse fill="none" stroke="black" cx="79.7" cy="-882" rx="27" ry="18"/>
<text text-anchor="middle" x="79.7" y="-878.5" font-family="Times New Roman,serif" font-size="15.00">xor</text>
</g>
<!-- 1609238869904&#45;&#45;1609238870096 -->
<g id="edge7" class="edge"><title>1609238869904&#45;&#45;1609238870096</title>
<path fill="none" stroke="black" d="M170.539,-940.807C150.35,-927.959 118.748,-907.848 98.641,-895.053"/>
</g>
<!-- 1609238869760 -->
<g id="node12" class="node"><title>1609238869760</title>
<ellipse fill="none" stroke="black" cx="189.7" cy="-882" rx="27" ry="18"/>
<text text-anchor="middle" x="189.7" y="-878.5" font-family="Times New Roman,serif" font-size="15.00">xor</text>
</g>
<!-- 1609238869904&#45;&#45;1609238869760 -->
<g id="edge51" class="edge"><title>1609238869904&#45;&#45;1609238869760</title>
<path fill="none" stroke="black" d="M189.7,-935.697C189.7,-924.846 189.7,-910.917 189.7,-900.104"/>
</g>
<!-- 1609238871248 -->
<g id="node56" class="node"><title>1609238871248</title>
<ellipse fill="none" stroke="black" cx="360.7" cy="-882" rx="27" ry="18"/>
<text text-anchor="middle" x="360.7" y="-878.5" font-family="Times New Roman,serif" font-size="15.00">xor</text>
</g>
<!-- 1609238869904&#45;&#45;1609238871248 -->
<g id="edge56" class="edge"><title>1609238869904&#45;&#45;1609238871248</title>
<path fill="none" stroke="black" d="M212.055,-943.849C244.827,-930.433 305.564,-905.57 338.339,-892.154"/>
</g>
<!-- 1609238871008 -->
<g id="node10" class="node"><title>1609238871008</title>
<ellipse fill="black" stroke="black" cx="2.7" cy="-810" rx="2.7" ry="2.7"/>
</g>
<!-- 1609238870096&#45;&#45;1609238871008 -->
<g id="edge5" class="edge"><title>1609238870096&#45;&#45;1609238871008</title>
<path fill="none" stroke="black" d="M64.1179,-866.834C44.4307,-848.937 12.173,-819.612 4.41621,-812.56"/>
</g>
<!-- 1609238871056 -->
<g id="node11" class="node"><title>1609238871056</title>
<ellipse fill="none" stroke="black" cx="79.7" cy="-810" rx="56.0717" ry="18"/>
<text text-anchor="middle" x="79.7" y="-806.5" font-family="Times New Roman,serif" font-size="15.00">JOIN&#45;PAT</text>
</g>
<!-- 1609238870096&#45;&#45;1609238871056 -->
<g id="edge6" class="edge"><title>1609238870096&#45;&#45;1609238871056</title>
<path fill="none" stroke="black" d="M79.7,-863.697C79.7,-852.846 79.7,-838.917 79.7,-828.104"/>
</g>
<!-- 1609238871344 -->
<g id="node13" class="node"><title>1609238871344</title>
<ellipse fill="black" stroke="black" cx="156.7" cy="-810" rx="2.7" ry="2.7"/>
</g>
<!-- 1609238869760&#45;&#45;1609238871344 -->
<g id="edge8" class="edge"><title>1609238869760&#45;&#45;1609238871344</title>
<path fill="none" stroke="black" d="M181.879,-864.411C173.493,-846.622 160.925,-819.962 157.556,-812.816"/>
</g>
<!-- 1609238871584 -->
<g id="node14" class="node"><title>1609238871584</title>
<ellipse fill="none" stroke="black" cx="223.7" cy="-810" rx="46.6143" ry="18"/>
<text text-anchor="middle" x="223.7" y="-806.5" font-family="Times New Roman,serif" font-size="15.00">xor loop</text>
</g>
<!-- 1609238869760&#45;&#45;1609238871584 -->
<g id="edge50" class="edge"><title>1609238869760&#45;&#45;1609238871584</title>
<path fill="none" stroke="black" d="M197.586,-864.765C202.922,-853.779 209.958,-839.292 215.383,-828.124"/>
</g>
<!-- 1609238871728 -->
<g id="node15" class="node"><title>1609238871728</title>
<ellipse fill="none" stroke="black" cx="199.7" cy="-738" rx="27" ry="18"/>
<text text-anchor="middle" x="199.7" y="-734.5" font-family="Times New Roman,serif" font-size="15.00">xor</text>
</g>
<!-- 1609238871584&#45;&#45;1609238871728 -->
<g id="edge48" class="edge"><title>1609238871584&#45;&#45;1609238871728</title>
<path fill="none" stroke="black" d="M217.89,-792.055C214.117,-781.049 209.219,-766.764 205.456,-755.789"/>
</g>
<!-- 1609238871968 -->
<g id="node55" class="node"><title>1609238871968</title>
<ellipse fill="black" stroke="black" cx="247.7" cy="-738" rx="2.7" ry="2.7"/>
</g>
<!-- 1609238871584&#45;&#45;1609238871968 -->
<g id="edge49" class="edge"><title>1609238871584&#45;&#45;1609238871968</title>
<path fill="none" stroke="black" d="M229.51,-792.055C235.614,-774.252 244.66,-747.865 247.084,-740.796"/>
</g>
<!-- 1609238872016 -->
<g id="node16" class="node"><title>1609238872016</title>
<ellipse fill="none" stroke="black" cx="138.7" cy="-666" rx="77.2641" ry="18"/>
<text text-anchor="middle" x="138.7" y="-662.5" font-family="Times New Roman,serif" font-size="15.00">CHANGE END</text>
</g>
<!-- 1609238871728&#45;&#45;1609238872016 -->
<g id="edge9" class="edge"><title>1609238871728&#45;&#45;1609238872016</title>
<path fill="none" stroke="black" d="M186.763,-722.155C176.971,-710.918 163.515,-695.476 153.33,-683.789"/>
</g>
<!-- 1609223708784 -->
<g id="node17" class="node"><title>1609223708784</title>
<ellipse fill="none" stroke="black" cx="260.7" cy="-666" rx="27" ry="18"/>
<text text-anchor="middle" x="260.7" y="-662.5" font-family="Times New Roman,serif" font-size="15.00">seq</text>
</g>
<!-- 1609238871728&#45;&#45;1609223708784 -->
<g id="edge47" class="edge"><title>1609238871728&#45;&#45;1609223708784</title>
<path fill="none" stroke="black" d="M212.637,-722.155C222.988,-710.276 237.435,-693.697 247.782,-681.824"/>
</g>
<!-- 1609223709120 -->
<g id="node18" class="node"><title>1609223709120</title>
<ellipse fill="none" stroke="black" cx="224.7" cy="-594" rx="27" ry="18"/>
<text text-anchor="middle" x="224.7" y="-590.5" font-family="Times New Roman,serif" font-size="15.00">xor</text>
</g>
<!-- 1609223708784&#45;&#45;1609223709120 -->
<g id="edge41" class="edge"><title>1609223708784&#45;&#45;1609223709120</title>
<path fill="none" stroke="black" d="M252.35,-648.765C246.535,-637.456 238.81,-622.437 233.004,-611.147"/>
</g>
<!-- 1609223709168 -->
<g id="node50" class="node"><title>1609223709168</title>
<ellipse fill="none" stroke="black" cx="296.7" cy="-594" rx="27" ry="18"/>
<text text-anchor="middle" x="296.7" y="-590.5" font-family="Times New Roman,serif" font-size="15.00">xor</text>
</g>
<!-- 1609223708784&#45;&#45;1609223709168 -->
<g id="edge46" class="edge"><title>1609223708784&#45;&#45;1609223709168</title>
<path fill="none" stroke="black" d="M269.05,-648.765C274.865,-637.456 282.59,-622.437 288.396,-611.147"/>
</g>
<!-- 1609223709264 -->
<g id="node19" class="node"><title>1609223709264</title>
<ellipse fill="none" stroke="black" cx="137.7" cy="-522" rx="47.8938" ry="18"/>
<text text-anchor="middle" x="137.7" y="-518.5" font-family="Times New Roman,serif" font-size="15.00">REJECT</text>
</g>
<!-- 1609223709120&#45;&#45;1609223709264 -->
<g id="edge10" class="edge"><title>1609223709120&#45;&#45;1609223709264</title>
<path fill="none" stroke="black" d="M207.926,-579.503C193.409,-567.823 172.408,-550.926 157.157,-538.655"/>
</g>
<!-- 1609223709504 -->
<g id="node20" class="node"><title>1609223709504</title>
<ellipse fill="none" stroke="black" cx="230.7" cy="-522" rx="27" ry="18"/>
<text text-anchor="middle" x="230.7" y="-518.5" font-family="Times New Roman,serif" font-size="15.00">seq</text>
</g>
<!-- 1609223709120&#45;&#45;1609223709504 -->
<g id="edge40" class="edge"><title>1609223709120&#45;&#45;1609223709504</title>
<path fill="none" stroke="black" d="M226.183,-575.697C227.113,-564.846 228.307,-550.917 229.234,-540.104"/>
</g>
<!-- 1609223709648 -->
<g id="node21" class="node"><title>1609223709648</title>
<ellipse fill="none" stroke="black" cx="154.7" cy="-450" rx="27" ry="18"/>
<text text-anchor="middle" x="154.7" y="-446.5" font-family="Times New Roman,serif" font-size="15.00">xor</text>
</g>
<!-- 1609223709504&#45;&#45;1609223709648 -->
<g id="edge13" class="edge"><title>1609223709504&#45;&#45;1609223709648</title>
<path fill="none" stroke="black" d="M215.32,-506.834C202.135,-494.69 183.236,-477.283 170.057,-465.144"/>
</g>
<!-- 1609223709888 -->
<g id="node24" class="node"><title>1609223709888</title>
<ellipse fill="none" stroke="black" cx="245.7" cy="-450" rx="27" ry="18"/>
<text text-anchor="middle" x="245.7" y="-446.5" font-family="Times New Roman,serif" font-size="15.00">xor</text>
</g>
<!-- 1609223709504&#45;&#45;1609223709888 -->
<g id="edge39" class="edge"><title>1609223709504&#45;&#45;1609223709888</title>
<path fill="none" stroke="black" d="M234.331,-504.055C236.655,-493.211 239.661,-479.183 241.998,-468.275"/>
</g>
<!-- 1609223710608 -->
<g id="node22" class="node"><title>1609223710608</title>
<ellipse fill="black" stroke="black" cx="63.7" cy="-378" rx="2.7" ry="2.7"/>
</g>
<!-- 1609223709648&#45;&#45;1609223710608 -->
<g id="edge11" class="edge"><title>1609223709648&#45;&#45;1609223710608</title>
<path fill="none" stroke="black" d="M137.584,-435.834C114.106,-417.774 73.8425,-386.802 65.3157,-380.243"/>
</g>
<!-- 1609223710752 -->
<g id="node23" class="node"><title>1609223710752</title>
<ellipse fill="none" stroke="black" cx="154.7" cy="-378" rx="70.3667" ry="18"/>
<text text-anchor="middle" x="154.7" y="-374.5" font-family="Times New Roman,serif" font-size="15.00">SET STATUS</text>
</g>
<!-- 1609223709648&#45;&#45;1609223710752 -->
<g id="edge12" class="edge"><title>1609223709648&#45;&#45;1609223710752</title>
<path fill="none" stroke="black" d="M154.7,-431.697C154.7,-420.846 154.7,-406.917 154.7,-396.104"/>
</g>
<!-- 1609223711040 -->
<g id="node25" class="node"><title>1609223711040</title>
<ellipse fill="black" stroke="black" cx="245.7" cy="-378" rx="2.7" ry="2.7"/>
</g>
<!-- 1609223709888&#45;&#45;1609223711040 -->
<g id="edge14" class="edge"><title>1609223709888&#45;&#45;1609223711040</title>
<path fill="none" stroke="black" d="M245.7,-431.697C245.7,-413.883 245.7,-387.769 245.7,-380.776"/>
</g>
<!-- 1609223711280 -->
<g id="node26" class="node"><title>1609223711280</title>
<ellipse fill="none" stroke="black" cx="312.7" cy="-378" rx="46.6143" ry="18"/>
<text text-anchor="middle" x="312.7" y="-374.5" font-family="Times New Roman,serif" font-size="15.00">xor loop</text>
</g>
<!-- 1609223709888&#45;&#45;1609223711280 -->
<g id="edge38" class="edge"><title>1609223709888&#45;&#45;1609223711280</title>
<path fill="none" stroke="black" d="M259.582,-434.496C270.545,-423.043 285.834,-407.069 297.196,-395.198"/>
</g>
<!-- 1609223711136 -->
<g id="node27" class="node"><title>1609223711136</title>
<ellipse fill="none" stroke="black" cx="288.7" cy="-306" rx="27" ry="18"/>
<text text-anchor="middle" x="288.7" y="-302.5" font-family="Times New Roman,serif" font-size="15.00">seq</text>
</g>
<!-- 1609223711280&#45;&#45;1609223711136 -->
<g id="edge36" class="edge"><title>1609223711280&#45;&#45;1609223711136</title>
<path fill="none" stroke="black" d="M306.89,-360.055C303.117,-349.049 298.219,-334.764 294.456,-323.789"/>
</g>
<!-- 1609223711424 -->
<g id="node49" class="node"><title>1609223711424</title>
<ellipse fill="black" stroke="black" cx="336.7" cy="-306" rx="2.7" ry="2.7"/>
</g>
<!-- 1609223711280&#45;&#45;1609223711424 -->
<g id="edge37" class="edge"><title>1609223711280&#45;&#45;1609223711424</title>
<path fill="none" stroke="black" d="M318.51,-360.055C324.614,-342.252 333.66,-315.865 336.084,-308.796"/>
</g>
<!-- 1609223711760 -->
<g id="node28" class="node"><title>1609223711760</title>
<ellipse fill="none" stroke="black" cx="170.7" cy="-234" rx="27" ry="18"/>
<text text-anchor="middle" x="170.7" y="-230.5" font-family="Times New Roman,serif" font-size="15.00">xor</text>
</g>
<!-- 1609223711136&#45;&#45;1609223711760 -->
<g id="edge17" class="edge"><title>1609223711136&#45;&#45;1609223711760</title>
<path fill="none" stroke="black" d="M269.215,-293.441C247.351,-280.471 212.09,-259.553 190.214,-246.576"/>
</g>
<!-- 1609223711712 -->
<g id="node31" class="node"><title>1609223711712</title>
<ellipse fill="none" stroke="black" cx="288.7" cy="-234" rx="27" ry="18"/>
<text text-anchor="middle" x="288.7" y="-230.5" font-family="Times New Roman,serif" font-size="15.00">xor</text>
</g>
<!-- 1609223711136&#45;&#45;1609223711712 -->
<g id="edge26" class="edge"><title>1609223711136&#45;&#45;1609223711712</title>
<path fill="none" stroke="black" d="M288.7,-287.697C288.7,-276.846 288.7,-262.917 288.7,-252.104"/>
</g>
<!-- 1609223712336 -->
<g id="node40" class="node"><title>1609223712336</title>
<ellipse fill="none" stroke="black" cx="466.7" cy="-234" rx="27" ry="18"/>
<text text-anchor="middle" x="466.7" y="-230.5" font-family="Times New Roman,serif" font-size="15.00">xor</text>
</g>
<!-- 1609223711136&#45;&#45;1609223712336 -->
<g id="edge35" class="edge"><title>1609223711136&#45;&#45;1609223712336</title>
<path fill="none" stroke="black" d="M311.606,-295.992C345.784,-282.551 409.755,-257.394 443.882,-243.973"/>
</g>
<!-- 1609223711808 -->
<g id="node29" class="node"><title>1609223711808</title>
<ellipse fill="black" stroke="black" cx="85.7" cy="-162" rx="2.7" ry="2.7"/>
</g>
<!-- 1609223711760&#45;&#45;1609223711808 -->
<g id="edge15" class="edge"><title>1609223711760&#45;&#45;1609223711808</title>
<path fill="none" stroke="black" d="M154.311,-219.503C132.699,-201.705 96.3776,-171.793 87.635,-164.594"/>
</g>
<!-- 1609223712144 -->
<g id="node30" class="node"><title>1609223712144</title>
<ellipse fill="none" stroke="black" cx="170.7" cy="-162" rx="63.8584" ry="18"/>
<text text-anchor="middle" x="170.7" y="-158.5" font-family="Times New Roman,serif" font-size="15.00">CODE NOK</text>
</g>
<!-- 1609223711760&#45;&#45;1609223712144 -->
<g id="edge16" class="edge"><title>1609223711760&#45;&#45;1609223712144</title>
<path fill="none" stroke="black" d="M170.7,-215.697C170.7,-204.846 170.7,-190.917 170.7,-180.104"/>
</g>
<!-- 1609223712432 -->
<g id="node32" class="node"><title>1609223712432</title>
<ellipse fill="black" stroke="black" cx="255.7" cy="-162" rx="2.7" ry="2.7"/>
</g>
<!-- 1609223711712&#45;&#45;1609223712432 -->
<g id="edge18" class="edge"><title>1609223711712&#45;&#45;1609223712432</title>
<path fill="none" stroke="black" d="M280.879,-216.411C272.493,-198.622 259.925,-171.962 256.556,-164.816"/>
</g>
<!-- 1609223712384 -->
<g id="node33" class="node"><title>1609223712384</title>
<ellipse fill="none" stroke="black" cx="322.7" cy="-162" rx="46.6143" ry="18"/>
<text text-anchor="middle" x="322.7" y="-158.5" font-family="Times New Roman,serif" font-size="15.00">xor loop</text>
</g>
<!-- 1609223711712&#45;&#45;1609223712384 -->
<g id="edge25" class="edge"><title>1609223711712&#45;&#45;1609223712384</title>
<path fill="none" stroke="black" d="M296.586,-216.765C301.922,-205.779 308.958,-191.292 314.383,-180.124"/>
</g>
<!-- 1609223710320 -->
<g id="node34" class="node"><title>1609223710320</title>
<ellipse fill="none" stroke="black" cx="298.7" cy="-90" rx="27" ry="18"/>
<text text-anchor="middle" x="298.7" y="-86.5" font-family="Times New Roman,serif" font-size="15.00">xor</text>
</g>
<!-- 1609223712384&#45;&#45;1609223710320 -->
<g id="edge23" class="edge"><title>1609223712384&#45;&#45;1609223710320</title>
<path fill="none" stroke="black" d="M316.89,-144.055C313.117,-133.049 308.219,-118.764 304.456,-107.789"/>
</g>
<!-- 1609223710656 -->
<g id="node39" class="node"><title>1609223710656</title>
<ellipse fill="black" stroke="black" cx="346.7" cy="-90" rx="2.7" ry="2.7"/>
</g>
<!-- 1609223712384&#45;&#45;1609223710656 -->
<g id="edge24" class="edge"><title>1609223712384&#45;&#45;1609223710656</title>
<path fill="none" stroke="black" d="M328.51,-144.055C334.614,-126.252 343.66,-99.8653 346.084,-92.7963"/>
</g>
<!-- 1609223710704 -->
<g id="node35" class="node"><title>1609223710704</title>
<ellipse fill="none" stroke="black" cx="120.7" cy="-18" rx="75.9851" ry="18"/>
<text text-anchor="middle" x="120.7" y="-14.5" font-family="Times New Roman,serif" font-size="15.00">CODE ERROR</text>
</g>
<!-- 1609223710320&#45;&#45;1609223710704 -->
<g id="edge19" class="edge"><title>1609223710320&#45;&#45;1609223710704</title>
<path fill="none" stroke="black" d="M275.794,-79.992C246.029,-68.2866 193.668,-47.6954 158.102,-33.7086"/>
</g>
<!-- 1609209581776 -->
<g id="node36" class="node"><title>1609209581776</title>
<ellipse fill="none" stroke="black" cx="265.7" cy="-18" rx="51.3427" ry="18"/>
<text text-anchor="middle" x="265.7" y="-14.5" font-family="Times New Roman,serif" font-size="15.00">REOPEN</text>
</g>
<!-- 1609223710320&#45;&#45;1609209581776 -->
<g id="edge20" class="edge"><title>1609223710320&#45;&#45;1609209581776</title>
<path fill="none" stroke="black" d="M290.879,-72.411C285.695,-61.4141 278.913,-47.0274 273.694,-35.9562"/>
</g>
<!-- 1609209581824 -->
<g id="node37" class="node"><title>1609209581824</title>
<ellipse fill="none" stroke="black" cx="390.7" cy="-18" rx="55.6813" ry="18"/>
<text text-anchor="middle" x="390.7" y="-14.5" font-family="Times New Roman,serif" font-size="15.00">RELEASE</text>
</g>
<!-- 1609223710320&#45;&#45;1609209581824 -->
<g id="edge21" class="edge"><title>1609223710320&#45;&#45;1609209581824</title>
<path fill="none" stroke="black" d="M316.004,-75.8335C331.308,-64.1899 353.665,-47.1787 369.93,-34.8035"/>
</g>
<!-- 1609209582064 -->
<g id="node38" class="node"><title>1609209582064</title>
<ellipse fill="none" stroke="black" cx="491.7" cy="-18" rx="27.5921" ry="18"/>
<text text-anchor="middle" x="491.7" y="-14.5" font-family="Times New Roman,serif" font-size="15.00">FIN</text>
</g>
<!-- 1609223710320&#45;&#45;1609209582064 -->
<g id="edge22" class="edge"><title>1609223710320&#45;&#45;1609209582064</title>
<path fill="none" stroke="black" d="M321.98,-80.5564C358.976,-67.1384 430.8,-41.088 468.035,-27.5831"/>
</g>
<!-- 1609209582208 -->
<g id="node41" class="node"><title>1609209582208</title>
<ellipse fill="black" stroke="black" cx="389.7" cy="-162" rx="2.7" ry="2.7"/>
</g>
<!-- 1609223712336&#45;&#45;1609209582208 -->
<g id="edge27" class="edge"><title>1609223712336&#45;&#45;1609209582208</title>
<path fill="none" stroke="black" d="M451.118,-218.834C431.431,-200.937 399.173,-171.612 391.416,-164.56"/>
</g>
<!-- 1609209582448 -->
<g id="node42" class="node"><title>1609209582448</title>
<ellipse fill="none" stroke="black" cx="466.7" cy="-162" rx="56.0717" ry="18"/>
<text text-anchor="middle" x="466.7" y="-158.5" font-family="Times New Roman,serif" font-size="15.00">CODE OK</text>
</g>
<!-- 1609223712336&#45;&#45;1609209582448 -->
<g id="edge28" class="edge"><title>1609223712336&#45;&#45;1609209582448</title>
<path fill="none" stroke="black" d="M466.7,-215.697C466.7,-204.846 466.7,-190.917 466.7,-180.104"/>
</g>
<!-- 1609209582688 -->
<g id="node43" class="node"><title>1609209582688</title>
<ellipse fill="none" stroke="black" cx="595.7" cy="-162" rx="54.7916" ry="18"/>
<text text-anchor="middle" x="595.7" y="-158.5" font-family="Times New Roman,serif" font-size="15.00">MANUAL</text>
</g>
<!-- 1609223712336&#45;&#45;1609209582688 -->
<g id="edge29" class="edge"><title>1609223712336&#45;&#45;1609209582688</title>
<path fill="none" stroke="black" d="M487.14,-221.908C509.164,-209.957 544.316,-190.883 568.624,-177.692"/>
</g>
<!-- 1609209582880 -->
<g id="node44" class="node"><title>1609209582880</title>
<ellipse fill="none" stroke="black" cx="695.7" cy="-162" rx="27" ry="18"/>
<text text-anchor="middle" x="695.7" y="-158.5" font-family="Times New Roman,serif" font-size="15.00">seq</text>
</g>
<!-- 1609223712336&#45;&#45;1609209582880 -->
<g id="edge34" class="edge"><title>1609223712336&#45;&#45;1609209582880</title>
<path fill="none" stroke="black" d="M490.774,-225.641C534.756,-212.197 627.608,-183.814 671.605,-170.365"/>
</g>
<!-- 1609209583216 -->
<g id="node45" class="node"><title>1609209583216</title>
<ellipse fill="none" stroke="black" cx="637.7" cy="-90" rx="27" ry="18"/>
<text text-anchor="middle" x="637.7" y="-86.5" font-family="Times New Roman,serif" font-size="15.00">xor</text>
</g>
<!-- 1609209582880&#45;&#45;1609209583216 -->
<g id="edge32" class="edge"><title>1609209582880&#45;&#45;1609209583216</title>
<path fill="none" stroke="black" d="M683.115,-145.811C673.386,-134.07 659.983,-117.893 650.261,-106.159"/>
</g>
<!-- 1609209583264 -->
<g id="node48" class="node"><title>1609209583264</title>
<ellipse fill="none" stroke="black" cx="729.7" cy="-90" rx="46.6143" ry="18"/>
<text text-anchor="middle" x="729.7" y="-86.5" font-family="Times New Roman,serif" font-size="15.00">BILLED</text>
</g>
<!-- 1609209582880&#45;&#45;1609209583264 -->
<g id="edge33" class="edge"><title>1609209582880&#45;&#45;1609209583264</title>
<path fill="none" stroke="black" d="M703.586,-144.765C708.922,-133.779 715.958,-119.292 721.383,-108.124"/>
</g>
<!-- 1609209583360 -->
<g id="node46" class="node"><title>1609209583360</title>
<ellipse fill="black" stroke="black" cx="571.7" cy="-18" rx="2.7" ry="2.7"/>
</g>
<!-- 1609209583216&#45;&#45;1609209583360 -->
<g id="edge30" class="edge"><title>1609209583216&#45;&#45;1609209583360</title>
<path fill="none" stroke="black" d="M623.703,-74.1548C606.751,-56.1754 579.65,-27.4321 573.14,-20.5271"/>
</g>
<!-- 1609209583600 -->
<g id="node47" class="node"><title>1609209583600</title>
<ellipse fill="none" stroke="black" cx="670.7" cy="-18" rx="78.5434" ry="18"/>
<text text-anchor="middle" x="670.7" y="-14.5" font-family="Times New Roman,serif" font-size="15.00">ZDBC_BEHAN</text>
</g>
<!-- 1609209583216&#45;&#45;1609209583600 -->
<g id="edge31" class="edge"><title>1609209583216&#45;&#45;1609209583600</title>
<path fill="none" stroke="black" d="M645.521,-72.411C650.705,-61.4141 657.487,-47.0274 662.706,-35.9562"/>
</g>
<!-- 1609223711184 -->
<g id="node51" class="node"><title>1609223711184</title>
<ellipse fill="black" stroke="black" cx="290.7" cy="-522" rx="2.7" ry="2.7"/>
</g>
<!-- 1609223709168&#45;&#45;1609223711184 -->
<g id="edge42" class="edge"><title>1609223709168&#45;&#45;1609223711184</title>
<path fill="none" stroke="black" d="M295.217,-575.697C293.69,-557.883 291.452,-531.769 290.852,-524.776"/>
</g>
<!-- 1609209582976 -->
<g id="node52" class="node"><title>1609209582976</title>
<ellipse fill="none" stroke="black" cx="357.7" cy="-522" rx="46.6143" ry="18"/>
<text text-anchor="middle" x="357.7" y="-518.5" font-family="Times New Roman,serif" font-size="15.00">xor loop</text>
</g>
<!-- 1609223709168&#45;&#45;1609209582976 -->
<g id="edge45" class="edge"><title>1609223709168&#45;&#45;1609209582976</title>
<path fill="none" stroke="black" d="M309.637,-578.155C319.569,-566.757 333.271,-551.034 343.504,-539.29"/>
</g>
<!-- 1609209583888 -->
<g id="node53" class="node"><title>1609209583888</title>
<ellipse fill="none" stroke="black" cx="349.7" cy="-450" rx="52.2326" ry="18"/>
<text text-anchor="middle" x="349.7" y="-446.5" font-family="Times New Roman,serif" font-size="15.00">STORNO</text>
</g>
<!-- 1609209582976&#45;&#45;1609209583888 -->
<g id="edge43" class="edge"><title>1609209582976&#45;&#45;1609209583888</title>
<path fill="none" stroke="black" d="M355.722,-503.697C354.482,-492.846 352.89,-478.917 351.655,-468.104"/>
</g>
<!-- 1609209583936 -->
<g id="node54" class="node"><title>1609209583936</title>
<ellipse fill="black" stroke="black" cx="422.7" cy="-450" rx="2.7" ry="2.7"/>
</g>
<!-- 1609209582976&#45;&#45;1609209583936 -->
<g id="edge44" class="edge"><title>1609209582976&#45;&#45;1609209583936</title>
<path fill="none" stroke="black" d="M372.776,-504.765C389.577,-486.671 415.199,-459.078 421.342,-452.462"/>
</g>
<!-- 1609223711088 -->
<g id="node57" class="node"><title>1609223711088</title>
<ellipse fill="black" stroke="black" cx="290.7" cy="-810" rx="2.7" ry="2.7"/>
</g>
<!-- 1609238871248&#45;&#45;1609223711088 -->
<g id="edge52" class="edge"><title>1609238871248&#45;&#45;1609223711088</title>
<path fill="none" stroke="black" d="M346.196,-866.496C328.255,-848.555 299.222,-819.522 292.244,-812.544"/>
</g>
<!-- 1609209584032 -->
<g id="node58" class="node"><title>1609209584032</title>
<ellipse fill="none" stroke="black" cx="360.7" cy="-810" rx="49.1738" ry="18"/>
<text text-anchor="middle" x="360.7" y="-806.5" font-family="Times New Roman,serif" font-size="15.00">DELETE</text>
</g>
<!-- 1609238871248&#45;&#45;1609209584032 -->
<g id="edge53" class="edge"><title>1609238871248&#45;&#45;1609209584032</title>
<path fill="none" stroke="black" d="M360.7,-863.697C360.7,-852.846 360.7,-838.917 360.7,-828.104"/>
</g>
<!-- 1609209584272 -->
<g id="node59" class="node"><title>1609209584272</title>
<ellipse fill="none" stroke="black" cx="516.7" cy="-810" rx="88.8899" ry="18"/>
<text text-anchor="middle" x="516.7" y="-806.5" font-family="Times New Roman,serif" font-size="15.00">CHANGE DIAGN</text>
</g>
<!-- 1609238871248&#45;&#45;1609209584272 -->
<g id="edge54" class="edge"><title>1609238871248&#45;&#45;1609209584272</title>
<path fill="none" stroke="black" d="M382.391,-871.267C408.093,-859.734 451.261,-840.364 481.709,-826.701"/>
</g>
<!-- 1609209584320 -->
<g id="node60" class="node"><title>1609209584320</title>
<ellipse fill="none" stroke="black" cx="669.7" cy="-810" rx="45.7249" ry="18"/>
<text text-anchor="middle" x="669.7" y="-806.5" font-family="Times New Roman,serif" font-size="15.00">EMPTY</text>
</g>
<!-- 1609238871248&#45;&#45;1609209584320 -->
<g id="edge55" class="edge"><title>1609238871248&#45;&#45;1609209584320</title>
<path fill="none" stroke="black" d="M385.987,-875.272C439.966,-863.043 566.77,-834.318 630.984,-819.771"/>
</g>
</g>
</svg>
