<?xml version="1.0" encoding="UTF-8" standalone="no"?>
<!DOCTYPE svg PUBLIC "-//W3C//DTD SVG 1.1//EN"
 "http://www.w3.org/Graphics/SVG/1.1/DTD/svg11.dtd">
<!-- Generated by graphviz version 2.38.0 (20140413.2041)
 -->
<!-- Title: pt Pages: 1 -->
<svg width="1202pt" height="404pt"
 viewBox="0.00 0.00 1201.93 404.00" xmlns="http://www.w3.org/2000/svg" xmlns:xlink="http://www.w3.org/1999/xlink">
<g id="graph0" class="graph" transform="scale(1 1) rotate(0) translate(4 400)">
<title>pt</title>
<!-- 2811422009904 -->
<g id="node1" class="node"><title>2811422009904</title>
<ellipse fill="none" stroke="black" cx="715.234" cy="-378" rx="27" ry="18"/>
<text text-anchor="middle" x="715.234" y="-374.5" font-family="Times New Roman,serif" font-size="15.00">seq</text>
</g>
<!-- 2811422007888 -->
<g id="node2" class="node"><title>2811422007888</title>
<ellipse fill="none" stroke="black" cx="226.234" cy="-306" rx="46.6143" ry="18"/>
<text text-anchor="middle" x="226.234" y="-302.5" font-family="Times New Roman,serif" font-size="15.00">xor loop</text>
</g>
<!-- 2811422009904&#45;&#45;2811422007888 -->
<g id="edge3" class="edge"><title>2811422009904&#45;&#45;2811422007888</title>
<path fill="none" stroke="black" d="M688.944,-373.236C608.997,-361.792 368.236,-327.327 269.348,-313.172"/>
</g>
<!-- 2811421990336 -->
<g id="node5" class="node"><title>2811421990336</title>
<ellipse fill="none" stroke="black" cx="458.234" cy="-306" rx="27" ry="18"/>
<text text-anchor="middle" x="458.234" y="-302.5" font-family="Times New Roman,serif" font-size="15.00">and</text>
</g>
<!-- 2811422009904&#45;&#45;2811421990336 -->
<g id="edge13" class="edge"><title>2811422009904&#45;&#45;2811421990336</title>
<path fill="none" stroke="black" d="M690.592,-370.288C641.469,-356.908 531.864,-327.055 482.802,-313.692"/>
</g>
<!-- 2811421990672 -->
<g id="node15" class="node"><title>2811421990672</title>
<ellipse fill="none" stroke="black" cx="660.234" cy="-306" rx="46.6143" ry="18"/>
<text text-anchor="middle" x="660.234" y="-302.5" font-family="Times New Roman,serif" font-size="15.00">xor loop</text>
</g>
<!-- 2811422009904&#45;&#45;2811421990672 -->
<g id="edge16" class="edge"><title>2811422009904&#45;&#45;2811421990672</title>
<path fill="none" stroke="black" d="M703.3,-361.811C694.454,-350.552 682.403,-335.215 673.299,-323.628"/>
</g>
<!-- 2811421988608 -->
<g id="node18" class="node"><title>2811421988608</title>
<ellipse fill="none" stroke="black" cx="771.234" cy="-306" rx="46.6143" ry="18"/>
<text text-anchor="middle" x="771.234" y="-302.5" font-family="Times New Roman,serif" font-size="15.00">xor loop</text>
</g>
<!-- 2811422009904&#45;&#45;2811421988608 -->
<g id="edge19" class="edge"><title>2811422009904&#45;&#45;2811421988608</title>
<path fill="none" stroke="black" d="M727.385,-361.811C736.393,-350.552 748.662,-335.215 757.932,-323.628"/>
</g>
<!-- 2811421988176 -->
<g id="node21" class="node"><title>2811421988176</title>
<ellipse fill="none" stroke="black" cx="863.234" cy="-306" rx="27" ry="18"/>
<text text-anchor="middle" x="863.234" y="-302.5" font-family="Times New Roman,serif" font-size="15.00">xor</text>
</g>
<!-- 2811422009904&#45;&#45;2811421988176 -->
<g id="edge30" class="edge"><title>2811422009904&#45;&#45;2811421988176</title>
<path fill="none" stroke="black" d="M736.755,-366.821C764.815,-353.55 813.615,-330.468 841.688,-317.191"/>
</g>
<!-- 2811421987744 -->
<g id="node32" class="node"><title>2811421987744</title>
<ellipse fill="none" stroke="black" cx="1032.23" cy="-306" rx="27" ry="18"/>
<text text-anchor="middle" x="1032.23" y="-302.5" font-family="Times New Roman,serif" font-size="15.00">xor</text>
</g>
<!-- 2811422009904&#45;&#45;2811421987744 -->
<g id="edge37" class="edge"><title>2811422009904&#45;&#45;2811421987744</title>
<path fill="none" stroke="black" d="M740.64,-371.39C799.995,-358.283 947.233,-325.77 1006.71,-312.637"/>
</g>
<!-- 2811421990432 -->
<g id="node3" class="node"><title>2811421990432</title>
<ellipse fill="none" stroke="black" cx="126.234" cy="-234" rx="79.4338" ry="18"/>
<text text-anchor="middle" x="126.234" y="-230.5" font-family="Times New Roman,serif" font-size="15.00">invite reviewers</text>
</g>
<!-- 2811422007888&#45;&#45;2811421990432 -->
<g id="edge1" class="edge"><title>2811422007888&#45;&#45;2811421990432</title>
<path fill="none" stroke="black" d="M204.536,-289.811C188.337,-278.472 166.229,-262.996 149.634,-251.38"/>
</g>
<!-- 2811421990576 -->
<g id="node4" class="node"><title>2811421990576</title>
<ellipse fill="black" stroke="black" cx="226.234" cy="-234" rx="2.7" ry="2.7"/>
</g>
<!-- 2811422007888&#45;&#45;2811421990576 -->
<g id="edge2" class="edge"><title>2811422007888&#45;&#45;2811421990576</title>
<path fill="none" stroke="black" d="M226.234,-287.697C226.234,-269.883 226.234,-243.769 226.234,-236.776"/>
</g>
<!-- 2811421990096 -->
<g id="node6" class="node"><title>2811421990096</title>
<ellipse fill="none" stroke="black" cx="274.234" cy="-234" rx="27" ry="18"/>
<text text-anchor="middle" x="274.234" y="-230.5" font-family="Times New Roman,serif" font-size="15.00">xor</text>
</g>
<!-- 2811421990336&#45;&#45;2811421990096 -->
<g id="edge6" class="edge"><title>2811421990336&#45;&#45;2811421990096</title>
<path fill="none" stroke="black" d="M435.303,-296.276C399.947,-282.825 332.52,-257.174 297.165,-243.724"/>
</g>
<!-- 2811421989904 -->
<g id="node9" class="node"><title>2811421989904</title>
<ellipse fill="none" stroke="black" cx="422.234" cy="-234" rx="27" ry="18"/>
<text text-anchor="middle" x="422.234" y="-230.5" font-family="Times New Roman,serif" font-size="15.00">xor</text>
</g>
<!-- 2811421990336&#45;&#45;2811421989904 -->
<g id="edge9" class="edge"><title>2811421990336&#45;&#45;2811421989904</title>
<path fill="none" stroke="black" d="M449.885,-288.765C444.069,-277.456 436.345,-262.437 430.539,-251.147"/>
</g>
<!-- 2811421989376 -->
<g id="node12" class="node"><title>2811421989376</title>
<ellipse fill="none" stroke="black" cx="494.234" cy="-234" rx="27" ry="18"/>
<text text-anchor="middle" x="494.234" y="-230.5" font-family="Times New Roman,serif" font-size="15.00">xor</text>
</g>
<!-- 2811421990336&#45;&#45;2811421989376 -->
<g id="edge12" class="edge"><title>2811421990336&#45;&#45;2811421989376</title>
<path fill="none" stroke="black" d="M466.584,-288.765C472.4,-277.456 480.124,-262.437 485.93,-251.147"/>
</g>
<!-- 2811421989712 -->
<g id="node7" class="node"><title>2811421989712</title>
<ellipse fill="none" stroke="black" cx="63.2343" cy="-162" rx="63.4694" ry="18"/>
<text text-anchor="middle" x="63.2343" y="-158.5" font-family="Times New Roman,serif" font-size="15.00">get review 2</text>
</g>
<!-- 2811421990096&#45;&#45;2811421989712 -->
<g id="edge4" class="edge"><title>2811421990096&#45;&#45;2811421989712</title>
<path fill="none" stroke="black" d="M250.44,-225.106C214.55,-213.2 146.156,-190.509 102.72,-176.099"/>
</g>
<!-- 2811421989568 -->
<g id="node8" class="node"><title>2811421989568</title>
<ellipse fill="none" stroke="black" cx="198.234" cy="-162" rx="53.5119" ry="18"/>
<text text-anchor="middle" x="198.234" y="-158.5" font-family="Times New Roman,serif" font-size="15.00">time&#45;out 2</text>
</g>
<!-- 2811421990096&#45;&#45;2811421989568 -->
<g id="edge5" class="edge"><title>2811421990096&#45;&#45;2811421989568</title>
<path fill="none" stroke="black" d="M258.855,-218.834C246.363,-207.329 228.744,-191.101 215.718,-179.103"/>
</g>
<!-- 2811421989280 -->
<g id="node10" class="node"><title>2811421989280</title>
<ellipse fill="none" stroke="black" cx="323.234" cy="-162" rx="53.5119" ry="18"/>
<text text-anchor="middle" x="323.234" y="-158.5" font-family="Times New Roman,serif" font-size="15.00">time&#45;out 1</text>
</g>
<!-- 2811421989904&#45;&#45;2811421989280 -->
<g id="edge7" class="edge"><title>2811421989904&#45;&#45;2811421989280</title>
<path fill="none" stroke="black" d="M404.076,-220.161C387.441,-208.399 362.785,-190.965 345.079,-178.446"/>
</g>
<!-- 2811421989136 -->
<g id="node11" class="node"><title>2811421989136</title>
<ellipse fill="none" stroke="black" cx="458.234" cy="-162" rx="63.4694" ry="18"/>
<text text-anchor="middle" x="458.234" y="-158.5" font-family="Times New Roman,serif" font-size="15.00">get review 1</text>
</g>
<!-- 2811421989904&#45;&#45;2811421989136 -->
<g id="edge8" class="edge"><title>2811421989904&#45;&#45;2811421989136</title>
<path fill="none" stroke="black" d="M430.584,-216.765C436.234,-205.779 443.684,-191.292 449.428,-180.124"/>
</g>
<!-- 2811421988848 -->
<g id="node13" class="node"><title>2811421988848</title>
<ellipse fill="none" stroke="black" cx="602.234" cy="-162" rx="63.4694" ry="18"/>
<text text-anchor="middle" x="602.234" y="-158.5" font-family="Times New Roman,serif" font-size="15.00">get review 3</text>
</g>
<!-- 2811421989376&#45;&#45;2811421988848 -->
<g id="edge10" class="edge"><title>2811421989376&#45;&#45;2811421988848</title>
<path fill="none" stroke="black" d="M513.046,-220.807C531.056,-209.134 558.315,-191.466 577.955,-178.737"/>
</g>
<!-- 2811421988704 -->
<g id="node14" class="node"><title>2811421988704</title>
<ellipse fill="none" stroke="black" cx="737.234" cy="-162" rx="53.5119" ry="18"/>
<text text-anchor="middle" x="737.234" y="-158.5" font-family="Times New Roman,serif" font-size="15.00">time&#45;out 3</text>
</g>
<!-- 2811421989376&#45;&#45;2811421988704 -->
<g id="edge11" class="edge"><title>2811421989376&#45;&#45;2811421988704</title>
<path fill="none" stroke="black" d="M518.872,-225.903C560.982,-213.772 647.143,-188.952 697.735,-174.378"/>
</g>
<!-- 2811421988512 -->
<g id="node16" class="node"><title>2811421988512</title>
<ellipse fill="none" stroke="black" cx="615.234" cy="-234" rx="75.9851" ry="18"/>
<text text-anchor="middle" x="615.234" y="-230.5" font-family="Times New Roman,serif" font-size="15.00">collect reviews</text>
</g>
<!-- 2811421990672&#45;&#45;2811421988512 -->
<g id="edge14" class="edge"><title>2811421990672&#45;&#45;2811421988512</title>
<path fill="none" stroke="black" d="M649.57,-288.411C642.501,-277.414 633.252,-263.027 626.135,-251.956"/>
</g>
<!-- 2811421988368 -->
<g id="node17" class="node"><title>2811421988368</title>
<ellipse fill="black" stroke="black" cx="711.234" cy="-234" rx="2.7" ry="2.7"/>
</g>
<!-- 2811421990672&#45;&#45;2811421988368 -->
<g id="edge15" class="edge"><title>2811421990672&#45;&#45;2811421988368</title>
<path fill="none" stroke="black" d="M672.321,-288.411C685.281,-270.622 704.705,-243.962 709.911,-236.816"/>
</g>
<!-- 2811421988080 -->
<g id="node19" class="node"><title>2811421988080</title>
<ellipse fill="none" stroke="black" cx="771.234" cy="-234" rx="38.827" ry="18"/>
<text text-anchor="middle" x="771.234" y="-230.5" font-family="Times New Roman,serif" font-size="15.00">decide</text>
</g>
<!-- 2811421988608&#45;&#45;2811421988080 -->
<g id="edge17" class="edge"><title>2811421988608&#45;&#45;2811421988080</title>
<path fill="none" stroke="black" d="M771.234,-287.697C771.234,-276.846 771.234,-262.917 771.234,-252.104"/>
</g>
<!-- 2811421987936 -->
<g id="node20" class="node"><title>2811421987936</title>
<ellipse fill="black" stroke="black" cx="831.234" cy="-234" rx="2.7" ry="2.7"/>
</g>
<!-- 2811421988608&#45;&#45;2811421987936 -->
<g id="edge18" class="edge"><title>2811421988608&#45;&#45;2811421987936</title>
<path fill="none" stroke="black" d="M785.15,-288.765C800.659,-270.671 824.311,-243.078 829.981,-236.462"/>
</g>
<!-- 2811421987648 -->
<g id="node22" class="node"><title>2811421987648</title>
<ellipse fill="black" stroke="black" cx="854.234" cy="-234" rx="2.7" ry="2.7"/>
</g>
<!-- 2811421988176&#45;&#45;2811421987648 -->
<g id="edge20" class="edge"><title>2811421988176&#45;&#45;2811421987648</title>
<path fill="none" stroke="black" d="M861.056,-288.055C858.767,-270.252 855.374,-243.865 854.465,-236.796"/>
</g>
<!-- 2811421987504 -->
<g id="node23" class="node"><title>2811421987504</title>
<ellipse fill="none" stroke="black" cx="921.234" cy="-234" rx="46.6143" ry="18"/>
<text text-anchor="middle" x="921.234" y="-230.5" font-family="Times New Roman,serif" font-size="15.00">xor loop</text>
</g>
<!-- 2811421988176&#45;&#45;2811421987504 -->
<g id="edge29" class="edge"><title>2811421988176&#45;&#45;2811421987504</title>
<path fill="none" stroke="black" d="M875.819,-289.811C885.148,-278.552 897.856,-263.215 907.457,-251.628"/>
</g>
<!-- 2811421987264 -->
<g id="node24" class="node"><title>2811421987264</title>
<ellipse fill="none" stroke="black" cx="879.234" cy="-162" rx="27" ry="18"/>
<text text-anchor="middle" x="879.234" y="-158.5" font-family="Times New Roman,serif" font-size="15.00">seq</text>
</g>
<!-- 2811421987504&#45;&#45;2811421987264 -->
<g id="edge27" class="edge"><title>2811421987504&#45;&#45;2811421987264</title>
<path fill="none" stroke="black" d="M911.281,-216.411C904.489,-205.091 895.541,-190.178 888.827,-178.988"/>
</g>
<!-- 2811421987120 -->
<g id="node31" class="node"><title>2811421987120</title>
<ellipse fill="black" stroke="black" cx="927.234" cy="-162" rx="2.7" ry="2.7"/>
</g>
<!-- 2811421987504&#45;&#45;2811421987120 -->
<g id="edge28" class="edge"><title>2811421987504&#45;&#45;2811421987120</title>
<path fill="none" stroke="black" d="M922.717,-215.697C924.244,-197.883 926.483,-171.769 927.082,-164.776"/>
</g>
<!-- 2811421987024 -->
<g id="node25" class="node"><title>2811421987024</title>
<ellipse fill="none" stroke="black" cx="833.234" cy="-90" rx="46.6143" ry="18"/>
<text text-anchor="middle" x="833.234" y="-86.5" font-family="Times New Roman,serif" font-size="15.00">xor loop</text>
</g>
<!-- 2811421987264&#45;&#45;2811421987024 -->
<g id="edge23" class="edge"><title>2811421987264&#45;&#45;2811421987024</title>
<path fill="none" stroke="black" d="M868.796,-145.116C861.48,-133.983 851.718,-119.127 844.273,-107.797"/>
</g>
<!-- 2811421986880 -->
<g id="node28" class="node"><title>2811421986880</title>
<ellipse fill="none" stroke="black" cx="925.234" cy="-90" rx="27" ry="18"/>
<text text-anchor="middle" x="925.234" y="-86.5" font-family="Times New Roman,serif" font-size="15.00">xor</text>
</g>
<!-- 2811421987264&#45;&#45;2811421986880 -->
<g id="edge26" class="edge"><title>2811421987264&#45;&#45;2811421986880</title>
<path fill="none" stroke="black" d="M889.672,-145.116C897.201,-133.66 907.319,-118.263 914.837,-106.821"/>
</g>
<!-- 2811422832672 -->
<g id="node26" class="node"><title>2811422832672</title>
<ellipse fill="none" stroke="black" cx="695.234" cy="-18" rx="119.54" ry="18"/>
<text text-anchor="middle" x="695.234" y="-14.5" font-family="Times New Roman,serif" font-size="15.00">invite additional reviewer</text>
</g>
<!-- 2811421987024&#45;&#45;2811422832672 -->
<g id="edge21" class="edge"><title>2811421987024&#45;&#45;2811422832672</title>
<path fill="none" stroke="black" d="M805.97,-75.1703C783.426,-63.735 751.362,-47.4703 727.533,-35.3836"/>
</g>
<!-- 2811422834496 -->
<g id="node27" class="node"><title>2811422834496</title>
<ellipse fill="black" stroke="black" cx="835.234" cy="-18" rx="2.7" ry="2.7"/>
</g>
<!-- 2811421987024&#45;&#45;2811422834496 -->
<g id="edge22" class="edge"><title>2811421987024&#45;&#45;2811422834496</title>
<path fill="none" stroke="black" d="M833.729,-71.6966C834.238,-53.8826 834.984,-27.7686 835.184,-20.7764"/>
</g>
<!-- 2811422833872 -->
<g id="node29" class="node"><title>2811422833872</title>
<ellipse fill="none" stroke="black" cx="924.234" cy="-18" rx="65.1384" ry="18"/>
<text text-anchor="middle" x="924.234" y="-14.5" font-family="Times New Roman,serif" font-size="15.00">get review X</text>
</g>
<!-- 2811421986880&#45;&#45;2811422833872 -->
<g id="edge24" class="edge"><title>2811421986880&#45;&#45;2811422833872</title>
<path fill="none" stroke="black" d="M924.987,-71.6966C924.832,-60.8463 924.633,-46.9167 924.479,-36.1043"/>
</g>
<!-- 2811422834640 -->
<g id="node30" class="node"><title>2811422834640</title>
<ellipse fill="none" stroke="black" cx="1063.23" cy="-18" rx="55.6813" ry="18"/>
<text text-anchor="middle" x="1063.23" y="-14.5" font-family="Times New Roman,serif" font-size="15.00">time&#45;out X</text>
</g>
<!-- 2811421986880&#45;&#45;2811422834640 -->
<g id="edge25" class="edge"><title>2811421986880&#45;&#45;2811422834640</title>
<path fill="none" stroke="black" d="M946.194,-78.3685C969.794,-66.3973 1008.28,-46.8754 1034.63,-33.5087"/>
</g>
<!-- 2811422833344 -->
<g id="node33" class="node"><title>2811422833344</title>
<ellipse fill="none" stroke="black" cx="1032.23" cy="-234" rx="46.6143" ry="18"/>
<text text-anchor="middle" x="1032.23" y="-230.5" font-family="Times New Roman,serif" font-size="15.00">xor loop</text>
</g>
<!-- 2811421987744&#45;&#45;2811422833344 -->
<g id="edge33" class="edge"><title>2811421987744&#45;&#45;2811422833344</title>
<path fill="none" stroke="black" d="M1032.23,-287.697C1032.23,-276.846 1032.23,-262.917 1032.23,-252.104"/>
</g>
<!-- 2811422834208 -->
<g id="node36" class="node"><title>2811422834208</title>
<ellipse fill="none" stroke="black" cx="1143.23" cy="-234" rx="46.6143" ry="18"/>
<text text-anchor="middle" x="1143.23" y="-230.5" font-family="Times New Roman,serif" font-size="15.00">xor loop</text>
</g>
<!-- 2811421987744&#45;&#45;2811422834208 -->
<g id="edge36" class="edge"><title>2811421987744&#45;&#45;2811422834208</title>
<path fill="none" stroke="black" d="M1051.32,-292.967C1070.28,-281.005 1099.41,-262.636 1119.78,-249.791"/>
</g>
<!-- 2811422833104 -->
<g id="node34" class="node"><title>2811422833104</title>
<ellipse fill="none" stroke="black" cx="998.234" cy="-162" rx="38.4383" ry="18"/>
<text text-anchor="middle" x="998.234" y="-158.5" font-family="Times New Roman,serif" font-size="15.00">accept</text>
</g>
<!-- 2811422833344&#45;&#45;2811422833104 -->
<g id="edge31" class="edge"><title>2811422833344&#45;&#45;2811422833104</title>
<path fill="none" stroke="black" d="M1024,-216.055C1018.66,-205.049 1011.72,-190.764 1006.39,-179.789"/>
</g>
<!-- 2811422834160 -->
<g id="node35" class="node"><title>2811422834160</title>
<ellipse fill="black" stroke="black" cx="1057.23" cy="-162" rx="2.7" ry="2.7"/>
</g>
<!-- 2811422833344&#45;&#45;2811422834160 -->
<g id="edge32" class="edge"><title>2811422833344&#45;&#45;2811422834160</title>
<path fill="none" stroke="black" d="M1038.29,-216.055C1044.64,-198.252 1054.07,-171.865 1056.59,-164.796"/>
</g>
<!-- 2811422833632 -->
<g id="node37" class="node"><title>2811422833632</title>
<ellipse fill="none" stroke="black" cx="1136.23" cy="-162" rx="34.99" ry="18"/>
<text text-anchor="middle" x="1136.23" y="-158.5" font-family="Times New Roman,serif" font-size="15.00">reject</text>
</g>
<!-- 2811422834208&#45;&#45;2811422833632 -->
<g id="edge34" class="edge"><title>2811422834208&#45;&#45;2811422833632</title>
<path fill="none" stroke="black" d="M1141.5,-215.697C1140.42,-204.846 1139.03,-190.917 1137.94,-180.104"/>
</g>
<!-- 2811422832864 -->
<g id="node38" class="node"><title>2811422832864</title>
<ellipse fill="black" stroke="black" cx="1191.23" cy="-162" rx="2.7" ry="2.7"/>
</g>
<!-- 2811422834208&#45;&#45;2811422832864 -->
<g id="edge35" class="edge"><title>2811422834208&#45;&#45;2811422832864</title>
<path fill="none" stroke="black" d="M1154.61,-216.411C1166.81,-198.622 1185.09,-171.962 1189.99,-164.816"/>
</g>
</g>
</svg>
