<?xml version="1.0" encoding="UTF-8" standalone="no"?>
<!DOCTYPE svg PUBLIC "-//W3C//DTD SVG 1.1//EN"
 "http://www.w3.org/Graphics/SVG/1.1/DTD/svg11.dtd">
<!-- Generated by graphviz version 2.38.0 (20140413.2041)
 -->
<!-- Title: pt Pages: 1 -->
<svg width="494pt" height="260pt"
 viewBox="0.00 0.00 494.00 260.00" xmlns="http://www.w3.org/2000/svg" xmlns:xlink="http://www.w3.org/1999/xlink">
<g id="graph0" class="graph" transform="scale(1 1) rotate(0) translate(4 256)">
<title>pt</title>
<!-- 1729295255344 -->
<g id="node1" class="node"><title>1729295255344</title>
<ellipse fill="none" stroke="black" cx="243" cy="-234" rx="27" ry="18"/>
<text text-anchor="middle" x="243" y="-230.5" font-family="Times New Roman,serif" font-size="15.00">seq</text>
</g>
<!-- 1729295256928 -->
<g id="node2" class="node"><title>1729295256928</title>
<ellipse fill="none" stroke="black" cx="99" cy="-162" rx="27" ry="18"/>
<text text-anchor="middle" x="99" y="-158.5" font-family="Times New Roman,serif" font-size="15.00">xor</text>
</g>
<!-- 1729295255344&#45;&#45;1729295256928 -->
<g id="edge3" class="edge"><title>1729295255344&#45;&#45;1729295256928</title>
<path fill="none" stroke="black" d="M221.752,-222.671C194.527,-209.437 147.602,-186.626 120.335,-173.371"/>
</g>
<!-- 1729278117200 -->
<g id="node5" class="node"><title>1729278117200</title>
<ellipse fill="none" stroke="black" cx="171" cy="-162" rx="27" ry="18"/>
<text text-anchor="middle" x="171" y="-158.5" font-family="Times New Roman,serif" font-size="15.00">D</text>
</g>
<!-- 1729295255344&#45;&#45;1729278117200 -->
<g id="edge4" class="edge"><title>1729295255344&#45;&#45;1729278117200</title>
<path fill="none" stroke="black" d="M228.43,-218.834C216.02,-206.77 198.269,-189.512 185.796,-177.385"/>
</g>
<!-- 1729278117344 -->
<g id="node6" class="node"><title>1729278117344</title>
<ellipse fill="none" stroke="black" cx="243" cy="-162" rx="27" ry="18"/>
<text text-anchor="middle" x="243" y="-158.5" font-family="Times New Roman,serif" font-size="15.00">xor</text>
</g>
<!-- 1729295255344&#45;&#45;1729278117344 -->
<g id="edge9" class="edge"><title>1729295255344&#45;&#45;1729278117344</title>
<path fill="none" stroke="black" d="M243,-215.697C243,-204.846 243,-190.917 243,-180.104"/>
</g>
<!-- 1729278117392 -->
<g id="node11" class="node"><title>1729278117392</title>
<ellipse fill="none" stroke="black" cx="315" cy="-162" rx="27" ry="18"/>
<text text-anchor="middle" x="315" y="-158.5" font-family="Times New Roman,serif" font-size="15.00">M</text>
</g>
<!-- 1729295255344&#45;&#45;1729278117392 -->
<g id="edge10" class="edge"><title>1729295255344&#45;&#45;1729278117392</title>
<path fill="none" stroke="black" d="M257.57,-218.834C269.98,-206.77 287.731,-189.512 300.204,-177.385"/>
</g>
<!-- 1729278117440 -->
<g id="node12" class="node"><title>1729278117440</title>
<ellipse fill="none" stroke="black" cx="387" cy="-162" rx="27" ry="18"/>
<text text-anchor="middle" x="387" y="-158.5" font-family="Times New Roman,serif" font-size="15.00">xor</text>
</g>
<!-- 1729295255344&#45;&#45;1729278117440 -->
<g id="edge14" class="edge"><title>1729295255344&#45;&#45;1729278117440</title>
<path fill="none" stroke="black" d="M264.248,-222.671C291.473,-209.437 338.398,-186.626 365.665,-173.371"/>
</g>
<!-- 1729278117536 -->
<g id="node3" class="node"><title>1729278117536</title>
<ellipse fill="none" stroke="black" cx="27" cy="-90" rx="27" ry="18"/>
<text text-anchor="middle" x="27" y="-86.5" font-family="Times New Roman,serif" font-size="15.00">A</text>
</g>
<!-- 1729295256928&#45;&#45;1729278117536 -->
<g id="edge1" class="edge"><title>1729295256928&#45;&#45;1729278117536</title>
<path fill="none" stroke="black" d="M84.4297,-146.834C72.0202,-134.77 54.2694,-117.512 41.7957,-105.385"/>
</g>
<!-- 1729278117872 -->
<g id="node4" class="node"><title>1729278117872</title>
<ellipse fill="none" stroke="black" cx="99" cy="-90" rx="27" ry="18"/>
<text text-anchor="middle" x="99" y="-86.5" font-family="Times New Roman,serif" font-size="15.00">B</text>
</g>
<!-- 1729295256928&#45;&#45;1729278117872 -->
<g id="edge2" class="edge"><title>1729295256928&#45;&#45;1729278117872</title>
<path fill="none" stroke="black" d="M99,-143.697C99,-132.846 99,-118.917 99,-108.104"/>
</g>
<!-- 1729278118544 -->
<g id="node7" class="node"><title>1729278118544</title>
<ellipse fill="none" stroke="black" cx="171" cy="-90" rx="27" ry="18"/>
<text text-anchor="middle" x="171" y="-86.5" font-family="Times New Roman,serif" font-size="15.00">L</text>
</g>
<!-- 1729278117344&#45;&#45;1729278118544 -->
<g id="edge5" class="edge"><title>1729278117344&#45;&#45;1729278118544</title>
<path fill="none" stroke="black" d="M228.43,-146.834C216.02,-134.77 198.269,-117.512 185.796,-105.385"/>
</g>
<!-- 1729278118208 -->
<g id="node8" class="node"><title>1729278118208</title>
<ellipse fill="none" stroke="black" cx="243" cy="-90" rx="27" ry="18"/>
<text text-anchor="middle" x="243" y="-86.5" font-family="Times New Roman,serif" font-size="15.00">seq</text>
</g>
<!-- 1729278117344&#45;&#45;1729278118208 -->
<g id="edge8" class="edge"><title>1729278117344&#45;&#45;1729278118208</title>
<path fill="none" stroke="black" d="M243,-143.697C243,-132.846 243,-118.917 243,-108.104"/>
</g>
<!-- 1729278118016 -->
<g id="node9" class="node"><title>1729278118016</title>
<ellipse fill="none" stroke="black" cx="207" cy="-18" rx="27" ry="18"/>
<text text-anchor="middle" x="207" y="-14.5" font-family="Times New Roman,serif" font-size="15.00">J</text>
</g>
<!-- 1729278118208&#45;&#45;1729278118016 -->
<g id="edge6" class="edge"><title>1729278118208&#45;&#45;1729278118016</title>
<path fill="none" stroke="black" d="M234.65,-72.7646C228.835,-61.456 221.11,-46.4367 215.304,-35.1473"/>
</g>
<!-- 1729278118784 -->
<g id="node10" class="node"><title>1729278118784</title>
<ellipse fill="none" stroke="black" cx="279" cy="-18" rx="27" ry="18"/>
<text text-anchor="middle" x="279" y="-14.5" font-family="Times New Roman,serif" font-size="15.00">K</text>
</g>
<!-- 1729278118208&#45;&#45;1729278118784 -->
<g id="edge7" class="edge"><title>1729278118208&#45;&#45;1729278118784</title>
<path fill="none" stroke="black" d="M251.35,-72.7646C257.165,-61.456 264.89,-46.4367 270.696,-35.1473"/>
</g>
<!-- 1729278117728 -->
<g id="node13" class="node"><title>1729278117728</title>
<ellipse fill="none" stroke="black" cx="315" cy="-90" rx="27" ry="18"/>
<text text-anchor="middle" x="315" y="-86.5" font-family="Times New Roman,serif" font-size="15.00">H</text>
</g>
<!-- 1729278117440&#45;&#45;1729278117728 -->
<g id="edge11" class="edge"><title>1729278117440&#45;&#45;1729278117728</title>
<path fill="none" stroke="black" d="M372.43,-146.834C360.02,-134.77 342.269,-117.512 329.796,-105.385"/>
</g>
<!-- 1729278119312 -->
<g id="node14" class="node"><title>1729278119312</title>
<ellipse fill="none" stroke="black" cx="387" cy="-90" rx="27" ry="18"/>
<text text-anchor="middle" x="387" y="-86.5" font-family="Times New Roman,serif" font-size="15.00">I</text>
</g>
<!-- 1729278117440&#45;&#45;1729278119312 -->
<g id="edge12" class="edge"><title>1729278117440&#45;&#45;1729278119312</title>
<path fill="none" stroke="black" d="M387,-143.697C387,-132.846 387,-118.917 387,-108.104"/>
</g>
<!-- 1729278119024 -->
<g id="node15" class="node"><title>1729278119024</title>
<ellipse fill="none" stroke="black" cx="459" cy="-90" rx="27" ry="18"/>
<text text-anchor="middle" x="459" y="-86.5" font-family="Times New Roman,serif" font-size="15.00">G</text>
</g>
<!-- 1729278117440&#45;&#45;1729278119024 -->
<g id="edge13" class="edge"><title>1729278117440&#45;&#45;1729278119024</title>
<path fill="none" stroke="black" d="M401.57,-146.834C413.98,-134.77 431.731,-117.512 444.204,-105.385"/>
</g>
</g>
</svg>
