<?xml version="1.0" encoding="UTF-8" standalone="no"?>
<!DOCTYPE svg PUBLIC "-//W3C//DTD SVG 1.1//EN"
 "http://www.w3.org/Graphics/SVG/1.1/DTD/svg11.dtd">
<!-- Generated by graphviz version 2.38.0 (20140413.2041)
 -->
<!-- Title: &#45;&gt;( &#39;O_Create Offer&#39;, &#39;O_Created&#39;, X( &#39;O_Sent (mail and online)&#39;, &#39;O_Sent (online only)&#39; ), X( *tau*, &#39;O_Returned&#39; ), X( &#39;O_Cancelled&#39;, &#39;O_Accepted&#39;, &#39;O_Refused&#39; ) ) Pages: 1 -->
<svg width="2568pt" height="152pt"
 viewBox="0.00 0.00 2568.00 152.00" xmlns="http://www.w3.org/2000/svg" xmlns:xlink="http://www.w3.org/1999/xlink">
<g id="graph0" class="graph" transform="scale(1 1) rotate(0) translate(4 148)">
<title>&#45;&gt;( &#39;O_Create Offer&#39;, &#39;O_Created&#39;, X( &#39;O_Sent (mail and online)&#39;, &#39;O_Sent (online only)&#39; ), X( *tau*, &#39;O_Returned&#39; ), X( &#39;O_Cancelled&#39;, &#39;O_Accepted&#39;, &#39;O_Refused&#39; ) )</title>
<!-- 2552235189440 -->
<g id="node1" class="node"><title>2552235189440</title>
<polygon fill="none" stroke="black" points="359,-90 270,-90 270,-54 359,-54 359,-90"/>
<text text-anchor="middle" x="314.5" y="-68.9" font-family="Times New Roman,serif" font-size="12.00">O_Create Offer</text>
</g>
<!-- 2552235241680 -->
<g id="node28" class="node"><title>2552235241680</title>
<ellipse fill="none" stroke="black" cx="422" cy="-72" rx="27" ry="27"/>
</g>
<!-- 2552235189440&#45;&gt;2552235241680 -->
<g id="edge2" class="edge"><title>2552235189440&#45;&gt;2552235241680</title>
<path fill="none" stroke="black" d="M359.02,-72C367.561,-72 376.434,-72 384.708,-72"/>
<polygon fill="black" stroke="black" points="384.796,-75.5001 394.796,-72 384.796,-68.5001 384.796,-75.5001"/>
</g>
<!-- 2552235189632 -->
<g id="node2" class="node"><title>2552235189632</title>
<polygon fill="none" stroke="black" points="553,-90 485,-90 485,-54 553,-54 553,-90"/>
<text text-anchor="middle" x="519" y="-68.9" font-family="Times New Roman,serif" font-size="12.00">O_Created</text>
</g>
<!-- 2552235242880 -->
<g id="node29" class="node"><title>2552235242880</title>
<ellipse fill="none" stroke="black" cx="616" cy="-72" rx="27" ry="27"/>
</g>
<!-- 2552235189632&#45;&gt;2552235242880 -->
<g id="edge3" class="edge"><title>2552235189632&#45;&gt;2552235242880</title>
<path fill="none" stroke="black" d="M553.226,-72C561.428,-72 570.255,-72 578.599,-72"/>
<polygon fill="black" stroke="black" points="578.825,-75.5001 588.825,-72 578.825,-68.5001 578.825,-75.5001"/>
</g>
<!-- 2552235190496 -->
<g id="node3" class="node"><title>2552235190496</title>
<polygon fill="none" stroke="black" points="988,-117 859,-117 859,-81 988,-81 988,-117"/>
<text text-anchor="middle" x="923.5" y="-95.9" font-family="Times New Roman,serif" font-size="12.00">O_Sent (mail and online)</text>
</g>
<!-- 2552235191216 -->
<g id="node26" class="node"><title>2552235191216</title>
<ellipse fill="none" stroke="black" cx="1051" cy="-72" rx="27" ry="27"/>
</g>
<!-- 2552235190496&#45;&gt;2552235191216 -->
<g id="edge1" class="edge"><title>2552235190496&#45;&gt;2552235191216</title>
<path fill="none" stroke="black" d="M988.353,-85.2627C997.379,-83.3208 1006.37,-81.3855 1014.59,-79.6175"/>
<polygon fill="black" stroke="black" points="1015.49,-83.0047 1024.53,-77.4796 1014.02,-76.1612 1015.49,-83.0047"/>
</g>
<!-- 2552235190208 -->
<g id="node4" class="node"><title>2552235190208</title>
<polygon fill="none" stroke="black" points="978.5,-63 868.5,-63 868.5,-27 978.5,-27 978.5,-63"/>
<text text-anchor="middle" x="923.5" y="-41.9" font-family="Times New Roman,serif" font-size="12.00">O_Sent (online only)</text>
</g>
<!-- 2552235190208&#45;&gt;2552235191216 -->
<g id="edge4" class="edge"><title>2552235190208&#45;&gt;2552235191216</title>
<path fill="none" stroke="black" d="M978.816,-56.6856C990.989,-59.3044 1003.59,-62.016 1014.75,-64.4165"/>
<polygon fill="black" stroke="black" points="1014.02,-67.8403 1024.54,-66.5219 1015.5,-60.9969 1014.02,-67.8403"/>
</g>
<!-- 2552235241536 -->
<g id="node5" class="node"><title>2552235241536</title>
<polygon fill="black" stroke="black" points="1537.5,-117 1483.5,-117 1483.5,-81 1537.5,-81 1537.5,-117"/>
</g>
<!-- 2552235241872 -->
<g id="node24" class="node"><title>2552235241872</title>
<ellipse fill="none" stroke="black" cx="1610" cy="-72" rx="27" ry="27"/>
</g>
<!-- 2552235241536&#45;&gt;2552235241872 -->
<g id="edge6" class="edge"><title>2552235241536&#45;&gt;2552235241872</title>
<path fill="none" stroke="black" d="M1537.63,-91.7645C1548.82,-88.6648 1562.06,-84.9989 1574.08,-81.6714"/>
<polygon fill="black" stroke="black" points="1575.11,-85.0176 1583.81,-78.9757 1573.24,-78.2715 1575.11,-85.0176"/>
</g>
<!-- 2552235241728 -->
<g id="node6" class="node"><title>2552235241728</title>
<polygon fill="none" stroke="black" points="1547,-63 1474,-63 1474,-27 1547,-27 1547,-63"/>
<text text-anchor="middle" x="1510.5" y="-41.9" font-family="Times New Roman,serif" font-size="12.00">O_Returned</text>
</g>
<!-- 2552235241728&#45;&gt;2552235241872 -->
<g id="edge7" class="edge"><title>2552235241728&#45;&gt;2552235241872</title>
<path fill="none" stroke="black" d="M1547.25,-54.9005C1555.92,-57.302 1565.19,-59.8674 1573.83,-62.2613"/>
<polygon fill="black" stroke="black" points="1573.05,-65.6769 1583.62,-64.9727 1574.92,-58.9308 1573.05,-65.6769"/>
</g>
<!-- 2552235242784 -->
<g id="node7" class="node"><title>2552235242784</title>
<polygon fill="none" stroke="black" points="2110,-144 2033,-144 2033,-108 2110,-108 2110,-144"/>
<text text-anchor="middle" x="2071.5" y="-122.9" font-family="Times New Roman,serif" font-size="12.00">O_Cancelled</text>
</g>
<!-- 2552235243312 -->
<g id="node25" class="node"><title>2552235243312</title>
<ellipse fill="none" stroke="black" cx="2173" cy="-72" rx="27" ry="27"/>
</g>
<!-- 2552235242784&#45;&gt;2552235243312 -->
<g id="edge8" class="edge"><title>2552235242784&#45;&gt;2552235243312</title>
<path fill="none" stroke="black" d="M2105.91,-107.869C2116.94,-101.884 2129.17,-95.246 2140.08,-89.3236"/>
<polygon fill="black" stroke="black" points="2141.76,-92.3934 2148.88,-84.5473 2138.42,-86.2411 2141.76,-92.3934"/>
</g>
<!-- 2552235243168 -->
<g id="node8" class="node"><title>2552235243168</title>
<polygon fill="none" stroke="black" points="2105.5,-90 2037.5,-90 2037.5,-54 2105.5,-54 2105.5,-90"/>
<text text-anchor="middle" x="2071.5" y="-68.9" font-family="Times New Roman,serif" font-size="12.00">O_Refused</text>
</g>
<!-- 2552235243168&#45;&gt;2552235243312 -->
<g id="edge5" class="edge"><title>2552235243168&#45;&gt;2552235243312</title>
<path fill="none" stroke="black" d="M2105.63,-72C2115.26,-72 2125.83,-72 2135.65,-72"/>
<polygon fill="black" stroke="black" points="2135.93,-75.5001 2145.93,-72 2135.93,-68.5001 2135.93,-75.5001"/>
</g>
<!-- 2552235242976 -->
<g id="node9" class="node"><title>2552235242976</title>
<polygon fill="none" stroke="black" points="2109.5,-36 2033.5,-36 2033.5,-0 2109.5,-0 2109.5,-36"/>
<text text-anchor="middle" x="2071.5" y="-14.9" font-family="Times New Roman,serif" font-size="12.00">O_Accepted</text>
</g>
<!-- 2552235242976&#45;&gt;2552235243312 -->
<g id="edge9" class="edge"><title>2552235242976&#45;&gt;2552235243312</title>
<path fill="none" stroke="black" d="M2105.91,-36.1314C2116.94,-42.1158 2129.17,-48.754 2140.08,-54.6764"/>
<polygon fill="black" stroke="black" points="2138.42,-57.7589 2148.88,-59.4527 2141.76,-51.6066 2138.42,-57.7589"/>
</g>
<!-- 2552235192080 -->
<g id="node10" class="node"><title>2552235192080</title>
<polygon fill="black" stroke="black" points="1168,-90 1114,-90 1114,-54 1168,-54 1168,-90"/>
</g>
<!-- 2552235244368 -->
<g id="node30" class="node"><title>2552235244368</title>
<ellipse fill="none" stroke="black" cx="1231" cy="-72" rx="27" ry="27"/>
</g>
<!-- 2552235192080&#45;&gt;2552235244368 -->
<g id="edge31" class="edge"><title>2552235192080&#45;&gt;2552235244368</title>
<path fill="none" stroke="black" d="M1168.4,-72C1176.39,-72 1185.31,-72 1193.82,-72"/>
<polygon fill="black" stroke="black" points="1193.92,-75.5001 1203.92,-72 1193.92,-68.5001 1193.92,-75.5001"/>
</g>
<!-- 2552235191504 -->
<g id="node11" class="node"><title>2552235191504</title>
<polygon fill="black" stroke="black" points="733,-90 679,-90 679,-54 733,-54 733,-90"/>
</g>
<!-- 2552235189824 -->
<g id="node19" class="node"><title>2552235189824</title>
<ellipse fill="none" stroke="black" cx="796" cy="-72" rx="27" ry="27"/>
</g>
<!-- 2552235191504&#45;&gt;2552235189824 -->
<g id="edge30" class="edge"><title>2552235191504&#45;&gt;2552235189824</title>
<path fill="none" stroke="black" d="M733.403,-72C741.393,-72 750.311,-72 758.824,-72"/>
<polygon fill="black" stroke="black" points="758.919,-75.5001 768.919,-72 758.919,-68.5001 758.919,-75.5001"/>
</g>
<!-- 2552235242544 -->
<g id="node12" class="node"><title>2552235242544</title>
<polygon fill="black" stroke="black" points="1727,-90 1673,-90 1673,-54 1727,-54 1727,-90"/>
</g>
<!-- 2552235244464 -->
<g id="node22" class="node"><title>2552235244464</title>
<ellipse fill="none" stroke="black" cx="1790" cy="-72" rx="27" ry="27"/>
</g>
<!-- 2552235242544&#45;&gt;2552235244464 -->
<g id="edge33" class="edge"><title>2552235242544&#45;&gt;2552235244464</title>
<path fill="none" stroke="black" d="M1727.4,-72C1735.39,-72 1744.31,-72 1752.82,-72"/>
<polygon fill="black" stroke="black" points="1752.92,-75.5001 1762.92,-72 1752.92,-68.5001 1752.92,-75.5001"/>
</g>
<!-- 2552235241968 -->
<g id="node13" class="node"><title>2552235241968</title>
<polygon fill="black" stroke="black" points="1348,-90 1294,-90 1294,-54 1348,-54 1348,-90"/>
</g>
<!-- 2552235189968 -->
<g id="node21" class="node"><title>2552235189968</title>
<ellipse fill="none" stroke="black" cx="1411" cy="-72" rx="27" ry="27"/>
</g>
<!-- 2552235241968&#45;&gt;2552235189968 -->
<g id="edge29" class="edge"><title>2552235241968&#45;&gt;2552235189968</title>
<path fill="none" stroke="black" d="M1348.4,-72C1356.39,-72 1365.31,-72 1373.82,-72"/>
<polygon fill="black" stroke="black" points="1373.92,-75.5001 1383.92,-72 1373.92,-68.5001 1373.92,-75.5001"/>
</g>
<!-- 2552235243408 -->
<g id="node14" class="node"><title>2552235243408</title>
<polygon fill="black" stroke="black" points="1907,-90 1853,-90 1853,-54 1907,-54 1907,-90"/>
</g>
<!-- 2552235241632 -->
<g id="node20" class="node"><title>2552235241632</title>
<ellipse fill="none" stroke="black" cx="1970" cy="-72" rx="27" ry="27"/>
</g>
<!-- 2552235243408&#45;&gt;2552235241632 -->
<g id="edge32" class="edge"><title>2552235243408&#45;&gt;2552235241632</title>
<path fill="none" stroke="black" d="M1907.4,-72C1915.39,-72 1924.31,-72 1932.82,-72"/>
<polygon fill="black" stroke="black" points="1932.92,-75.5001 1942.92,-72 1932.92,-68.5001 1932.92,-75.5001"/>
</g>
<!-- 2552235244176 -->
<g id="node15" class="node"><title>2552235244176</title>
<polygon fill="black" stroke="black" points="2290,-90 2236,-90 2236,-54 2290,-54 2290,-90"/>
</g>
<!-- 2552235244560 -->
<g id="node23" class="node"><title>2552235244560</title>
<ellipse fill="none" stroke="black" cx="2353" cy="-72" rx="27" ry="27"/>
</g>
<!-- 2552235244176&#45;&gt;2552235244560 -->
<g id="edge34" class="edge"><title>2552235244176&#45;&gt;2552235244560</title>
<path fill="none" stroke="black" d="M2290.4,-72C2298.39,-72 2307.31,-72 2315.82,-72"/>
<polygon fill="black" stroke="black" points="2315.92,-75.5001 2325.92,-72 2315.92,-68.5001 2315.92,-75.5001"/>
</g>
<!-- 2552235257968 -->
<g id="node16" class="node"><title>2552235257968</title>
<polygon fill="black" stroke="black" points="144,-90 90,-90 90,-54 144,-54 144,-90"/>
</g>
<!-- 2552235243072 -->
<g id="node27" class="node"><title>2552235243072</title>
<ellipse fill="none" stroke="black" cx="207" cy="-72" rx="27" ry="27"/>
</g>
<!-- 2552235257968&#45;&gt;2552235243072 -->
<g id="edge27" class="edge"><title>2552235257968&#45;&gt;2552235243072</title>
<path fill="none" stroke="black" d="M144.403,-72C152.393,-72 161.311,-72 169.824,-72"/>
<polygon fill="black" stroke="black" points="169.919,-75.5001 179.919,-72 169.919,-68.5001 169.919,-75.5001"/>
</g>
<!-- 2552235258160 -->
<g id="node17" class="node"><title>2552235258160</title>
<polygon fill="black" stroke="black" points="2470,-90 2416,-90 2416,-54 2470,-54 2470,-90"/>
</g>
<!-- 2552235258400 -->
<g id="node31" class="node"><title>2552235258400</title>
<ellipse fill="orange" stroke="black" cx="2533" cy="-72" rx="27" ry="27"/>
</g>
<!-- 2552235258160&#45;&gt;2552235258400 -->
<g id="edge28" class="edge"><title>2552235258160&#45;&gt;2552235258400</title>
<path fill="none" stroke="black" d="M2470.4,-72C2478.39,-72 2487.31,-72 2495.82,-72"/>
<polygon fill="black" stroke="black" points="2495.92,-75.5001 2505.92,-72 2495.92,-68.5001 2495.92,-75.5001"/>
</g>
<!-- 2552235108768 -->
<g id="node18" class="node"><title>2552235108768</title>
<ellipse fill="green" stroke="black" cx="27" cy="-72" rx="27" ry="27"/>
<text text-anchor="middle" x="27" y="-68.9" font-family="Times New Roman,serif" font-size="12.00">1</text>
</g>
<!-- 2552235108768&#45;&gt;2552235257968 -->
<g id="edge19" class="edge"><title>2552235108768&#45;&gt;2552235257968</title>
<path fill="none" stroke="black" d="M54.4029,-72C62.3932,-72 71.3106,-72 79.8241,-72"/>
<polygon fill="black" stroke="black" points="79.919,-75.5001 89.919,-72 79.919,-68.5001 79.919,-75.5001"/>
</g>
<!-- 2552235189824&#45;&gt;2552235190496 -->
<g id="edge10" class="edge"><title>2552235189824&#45;&gt;2552235190496</title>
<path fill="none" stroke="black" d="M822.7,-77.529C830.577,-79.2237 839.668,-81.1795 849.089,-83.2063"/>
<polygon fill="black" stroke="black" points="848.476,-86.6546 858.989,-85.3362 849.949,-79.8112 848.476,-86.6546"/>
</g>
<!-- 2552235189824&#45;&gt;2552235190208 -->
<g id="edge11" class="edge"><title>2552235189824&#45;&gt;2552235190208</title>
<path fill="none" stroke="black" d="M822.7,-66.471C833.111,-64.231 845.643,-61.5349 858.256,-58.8215"/>
<polygon fill="black" stroke="black" points="859.309,-62.1751 868.349,-56.65 857.837,-55.3316 859.309,-62.1751"/>
</g>
<!-- 2552235241632&#45;&gt;2552235242784 -->
<g id="edge13" class="edge"><title>2552235241632&#45;&gt;2552235242784</title>
<path fill="none" stroke="black" d="M1994.08,-84.5244C2004.23,-90.0362 2016.49,-96.6906 2028.19,-103.04"/>
<polygon fill="black" stroke="black" points="2026.53,-106.118 2036.99,-107.812 2029.87,-99.966 2026.53,-106.118"/>
</g>
<!-- 2552235241632&#45;&gt;2552235243168 -->
<g id="edge12" class="edge"><title>2552235241632&#45;&gt;2552235243168</title>
<path fill="none" stroke="black" d="M1997.14,-72C2006.38,-72 2017.04,-72 2027.32,-72"/>
<polygon fill="black" stroke="black" points="2027.4,-75.5001 2037.4,-72 2027.4,-68.5001 2027.4,-75.5001"/>
</g>
<!-- 2552235241632&#45;&gt;2552235242976 -->
<g id="edge14" class="edge"><title>2552235241632&#45;&gt;2552235242976</title>
<path fill="none" stroke="black" d="M1994.08,-59.4756C2004.23,-53.9638 2016.49,-47.3094 2028.19,-40.9599"/>
<polygon fill="black" stroke="black" points="2029.87,-44.034 2036.99,-36.1878 2026.53,-37.8817 2029.87,-44.034"/>
</g>
<!-- 2552235189968&#45;&gt;2552235241536 -->
<g id="edge15" class="edge"><title>2552235189968&#45;&gt;2552235241536</title>
<path fill="none" stroke="black" d="M1437.11,-78.9532C1448.22,-82.0293 1461.49,-85.7038 1473.61,-89.0617"/>
<polygon fill="black" stroke="black" points="1472.88,-92.492 1483.46,-91.7878 1474.75,-85.7459 1472.88,-92.492"/>
</g>
<!-- 2552235189968&#45;&gt;2552235241728 -->
<g id="edge16" class="edge"><title>2552235189968&#45;&gt;2552235241728</title>
<path fill="none" stroke="black" d="M1437.11,-65.0468C1445.31,-62.7749 1454.7,-60.1765 1463.93,-57.6204"/>
<polygon fill="black" stroke="black" points="1465.12,-60.9227 1473.82,-54.8808 1463.25,-54.1766 1465.12,-60.9227"/>
</g>
<!-- 2552235244464&#45;&gt;2552235243408 -->
<g id="edge17" class="edge"><title>2552235244464&#45;&gt;2552235243408</title>
<path fill="none" stroke="black" d="M1817.4,-72C1825.39,-72 1834.31,-72 1842.82,-72"/>
<polygon fill="black" stroke="black" points="1842.92,-75.5001 1852.92,-72 1842.92,-68.5001 1842.92,-75.5001"/>
</g>
<!-- 2552235244560&#45;&gt;2552235258160 -->
<g id="edge18" class="edge"><title>2552235244560&#45;&gt;2552235258160</title>
<path fill="none" stroke="black" d="M2380.4,-72C2388.39,-72 2397.31,-72 2405.82,-72"/>
<polygon fill="black" stroke="black" points="2405.92,-75.5001 2415.92,-72 2405.92,-68.5001 2405.92,-75.5001"/>
</g>
<!-- 2552235241872&#45;&gt;2552235242544 -->
<g id="edge20" class="edge"><title>2552235241872&#45;&gt;2552235242544</title>
<path fill="none" stroke="black" d="M1637.4,-72C1645.39,-72 1654.31,-72 1662.82,-72"/>
<polygon fill="black" stroke="black" points="1662.92,-75.5001 1672.92,-72 1662.92,-68.5001 1662.92,-75.5001"/>
</g>
<!-- 2552235243312&#45;&gt;2552235244176 -->
<g id="edge21" class="edge"><title>2552235243312&#45;&gt;2552235244176</title>
<path fill="none" stroke="black" d="M2200.4,-72C2208.39,-72 2217.31,-72 2225.82,-72"/>
<polygon fill="black" stroke="black" points="2225.92,-75.5001 2235.92,-72 2225.92,-68.5001 2225.92,-75.5001"/>
</g>
<!-- 2552235191216&#45;&gt;2552235192080 -->
<g id="edge22" class="edge"><title>2552235191216&#45;&gt;2552235192080</title>
<path fill="none" stroke="black" d="M1078.4,-72C1086.39,-72 1095.31,-72 1103.82,-72"/>
<polygon fill="black" stroke="black" points="1103.92,-75.5001 1113.92,-72 1103.92,-68.5001 1103.92,-75.5001"/>
</g>
<!-- 2552235243072&#45;&gt;2552235189440 -->
<g id="edge23" class="edge"><title>2552235243072&#45;&gt;2552235189440</title>
<path fill="none" stroke="black" d="M234.079,-72C241.881,-72 250.741,-72 259.642,-72"/>
<polygon fill="black" stroke="black" points="259.656,-75.5001 269.656,-72 259.656,-68.5001 259.656,-75.5001"/>
</g>
<!-- 2552235241680&#45;&gt;2552235189632 -->
<g id="edge24" class="edge"><title>2552235241680&#45;&gt;2552235189632</title>
<path fill="none" stroke="black" d="M449.211,-72C457.106,-72 465.99,-72 474.685,-72"/>
<polygon fill="black" stroke="black" points="474.736,-75.5001 484.736,-72 474.736,-68.5001 474.736,-75.5001"/>
</g>
<!-- 2552235242880&#45;&gt;2552235191504 -->
<g id="edge25" class="edge"><title>2552235242880&#45;&gt;2552235191504</title>
<path fill="none" stroke="black" d="M643.403,-72C651.393,-72 660.311,-72 668.824,-72"/>
<polygon fill="black" stroke="black" points="668.919,-75.5001 678.919,-72 668.919,-68.5001 668.919,-75.5001"/>
</g>
<!-- 2552235244368&#45;&gt;2552235241968 -->
<g id="edge26" class="edge"><title>2552235244368&#45;&gt;2552235241968</title>
<path fill="none" stroke="black" d="M1258.4,-72C1266.39,-72 1275.31,-72 1283.82,-72"/>
<polygon fill="black" stroke="black" points="1283.92,-75.5001 1293.92,-72 1283.92,-68.5001 1283.92,-75.5001"/>
</g>
</g>
</svg>
