<?xml version="1.0" encoding="UTF-8" standalone="no"?>
<!DOCTYPE svg PUBLIC "-//W3C//DTD SVG 1.1//EN"
 "http://www.w3.org/Graphics/SVG/1.1/DTD/svg11.dtd">
<!-- Generated by graphviz version 2.38.0 (20140413.2041)
 -->
<!-- Title: &#45;&gt;( &#39;O_Create Offer&#39;, &#39;O_Created&#39;, X( &#39;O_Sent (mail and online)&#39;, &#39;O_Sent (online only)&#39; ), X( *tau*, &#39;O_Returned&#39; ), X( &#39;O_Cancelled&#39;, &#39;O_Accepted&#39;, &#39;O_Refused&#39; ) ) Pages: 1 -->
<svg width="2568pt" height="258pt"
 viewBox="0.00 0.00 2568.00 258.00" xmlns="http://www.w3.org/2000/svg" xmlns:xlink="http://www.w3.org/1999/xlink">
<g id="graph0" class="graph" transform="scale(1 1) rotate(0) translate(4 254)">
<title>&#45;&gt;( &#39;O_Create Offer&#39;, &#39;O_Created&#39;, X( &#39;O_Sent (mail and online)&#39;, &#39;O_Sent (online only)&#39; ), X( *tau*, &#39;O_Returned&#39; ), X( &#39;O_Cancelled&#39;, &#39;O_Accepted&#39;, &#39;O_Refused&#39; ) )</title>
<!-- 2848840123008 -->
<g id="node1" class="node"><title>2848840123008</title>
<polygon fill="none" stroke="black" points="553,-131 485,-131 485,-95 553,-95 553,-131"/>
<text text-anchor="middle" x="519" y="-109.9" font-family="Times New Roman,serif" font-size="12.00">O_Created</text>
</g>
<!-- 2848840016032 -->
<g id="node32" class="node"><title>2848840016032</title>
<ellipse fill="none" stroke="black" cx="616" cy="-113" rx="27" ry="27"/>
</g>
<!-- 2848840123008&#45;&gt;2848840016032 -->
<g id="edge4" class="edge"><title>2848840123008&#45;&gt;2848840016032</title>
<path fill="none" stroke="black" d="M553.226,-113C561.428,-113 570.255,-113 578.599,-113"/>
<polygon fill="black" stroke="black" points="578.825,-116.5 588.825,-113 578.825,-109.5 578.825,-116.5"/>
</g>
<!-- 2848840016128 -->
<g id="node2" class="node"><title>2848840016128</title>
<polygon fill="none" stroke="black" points="2109.5,-178 2033.5,-178 2033.5,-142 2109.5,-142 2109.5,-178"/>
<text text-anchor="middle" x="2071.5" y="-156.9" font-family="Times New Roman,serif" font-size="12.00">O_Accepted</text>
</g>
<!-- 2848840016368 -->
<g id="node29" class="node"><title>2848840016368</title>
<ellipse fill="none" stroke="black" cx="2173" cy="-106" rx="27" ry="27"/>
</g>
<!-- 2848840016128&#45;&gt;2848840016368 -->
<g id="edge11" class="edge"><title>2848840016128&#45;&gt;2848840016368</title>
<path fill="none" stroke="black" d="M2105.91,-141.869C2116.94,-135.884 2129.17,-129.246 2140.08,-123.324"/>
<polygon fill="black" stroke="black" points="2141.76,-126.393 2148.88,-118.547 2138.42,-120.241 2141.76,-126.393"/>
</g>
<!-- 2848840179968 -->
<g id="node3" class="node"><title>2848840179968</title>
<polygon fill="black" stroke="black" points="1907,-173 1853,-173 1853,-137 1907,-137 1907,-173"/>
</g>
<!-- 2848840123104 -->
<g id="node37" class="node"><title>2848840123104</title>
<ellipse fill="none" stroke="black" cx="1970" cy="-151" rx="27" ry="27"/>
</g>
<!-- 2848840179968&#45;&gt;2848840123104 -->
<g id="edge45" class="edge"><title>2848840179968&#45;&gt;2848840123104</title>
<path fill="none" stroke="black" d="M1907.4,-153.8C1915.39,-153.437 1924.31,-153.031 1932.82,-152.644"/>
<polygon fill="black" stroke="black" points="1933.09,-156.136 1942.92,-152.186 1932.77,-149.143 1933.09,-156.136"/>
</g>
<!-- 2848840125456 -->
<g id="node4" class="node"><title>2848840125456</title>
<polygon fill="black" stroke="black" points="1537.5,-88 1483.5,-88 1483.5,-52 1537.5,-52 1537.5,-88"/>
</g>
<!-- 2848840125696 -->
<g id="node28" class="node"><title>2848840125696</title>
<ellipse fill="none" stroke="black" cx="1610" cy="-79" rx="27" ry="27"/>
</g>
<!-- 2848840125456&#45;&gt;2848840125696 -->
<g id="edge8" class="edge"><title>2848840125456&#45;&gt;2848840125696</title>
<path fill="none" stroke="black" d="M1537.63,-72.4118C1548.34,-73.4005 1560.92,-74.5619 1572.51,-75.632"/>
<polygon fill="black" stroke="black" points="1572.52,-79.1474 1582.8,-76.5815 1573.16,-72.1771 1572.52,-79.1474"/>
</g>
<!-- 2848840016272 -->
<g id="node5" class="node"><title>2848840016272</title>
<polygon fill="none" stroke="black" points="2105.5,-70 2037.5,-70 2037.5,-34 2105.5,-34 2105.5,-70"/>
<text text-anchor="middle" x="2071.5" y="-48.9" font-family="Times New Roman,serif" font-size="12.00">O_Refused</text>
</g>
<!-- 2848840016272&#45;&gt;2848840016368 -->
<g id="edge7" class="edge"><title>2848840016272&#45;&gt;2848840016368</title>
<path fill="none" stroke="black" d="M2105.63,-69.9812C2116.67,-75.9736 2128.95,-82.6356 2139.91,-88.5843"/>
<polygon fill="black" stroke="black" points="2138.29,-91.6893 2148.75,-93.3831 2141.63,-85.5369 2138.29,-91.6893"/>
</g>
<!-- 2848840018576 -->
<g id="node6" class="node"><title>2848840018576</title>
<polygon fill="black" stroke="black" points="144,-131 90,-131 90,-95 144,-95 144,-131"/>
</g>
<!-- 2848840125408 -->
<g id="node30" class="node"><title>2848840125408</title>
<ellipse fill="none" stroke="black" cx="207" cy="-113" rx="27" ry="27"/>
</g>
<!-- 2848840018576&#45;&gt;2848840125408 -->
<g id="edge35" class="edge"><title>2848840018576&#45;&gt;2848840125408</title>
<path fill="none" stroke="black" d="M144.403,-113C152.393,-113 161.311,-113 169.824,-113"/>
<polygon fill="black" stroke="black" points="169.919,-116.5 179.919,-113 169.919,-109.5 169.919,-116.5"/>
</g>
<!-- 2848840019728 -->
<g id="node7" class="node"><title>2848840019728</title>
<polygon fill="black" stroke="black" points="1258,-52 1204,-52 1204,-16 1258,-16 1258,-52"/>
</g>
<!-- 2848840019872 -->
<g id="node38" class="node"><title>2848840019872</title>
<ellipse fill="none" stroke="black" cx="1321" cy="-27" rx="27" ry="27"/>
</g>
<!-- 2848840019728&#45;&gt;2848840019872 -->
<g id="edge43" class="edge"><title>2848840019728&#45;&gt;2848840019872</title>
<path fill="none" stroke="black" d="M1258.4,-31.8998C1266.39,-31.2642 1275.31,-30.5548 1283.82,-29.8776"/>
<polygon fill="black" stroke="black" points="1284.23,-33.3566 1293.92,-29.0746 1283.67,-26.3787 1284.23,-33.3566"/>
</g>
<!-- 2848840123680 -->
<g id="node8" class="node"><title>2848840123680</title>
<polygon fill="black" stroke="black" points="733,-131 679,-131 679,-95 733,-95 733,-131"/>
</g>
<!-- 2848840123200 -->
<g id="node22" class="node"><title>2848840123200</title>
<ellipse fill="none" stroke="black" cx="796" cy="-113" rx="27" ry="27"/>
</g>
<!-- 2848840123680&#45;&gt;2848840123200 -->
<g id="edge37" class="edge"><title>2848840123680&#45;&gt;2848840123200</title>
<path fill="none" stroke="black" d="M733.403,-113C741.393,-113 750.311,-113 758.824,-113"/>
<polygon fill="black" stroke="black" points="758.919,-116.5 768.919,-113 758.919,-109.5 758.919,-116.5"/>
</g>
<!-- 2848840125600 -->
<g id="node9" class="node"><title>2848840125600</title>
<polygon fill="none" stroke="black" points="1547,-142 1474,-142 1474,-106 1547,-106 1547,-142"/>
<text text-anchor="middle" x="1510.5" y="-120.9" font-family="Times New Roman,serif" font-size="12.00">O_Returned</text>
</g>
<!-- 2848840125600&#45;&gt;2848840125696 -->
<g id="edge9" class="edge"><title>2848840125600&#45;&gt;2848840125696</title>
<path fill="none" stroke="black" d="M1547.25,-107.499C1556.61,-103.18 1566.66,-98.5427 1575.87,-94.2897"/>
<polygon fill="black" stroke="black" points="1577.5,-97.3947 1585.11,-90.0262 1574.56,-91.039 1577.5,-97.3947"/>
</g>
<!-- 2848840017184 -->
<g id="node10" class="node"><title>2848840017184</title>
<polygon fill="black" stroke="black" points="2290,-124 2236,-124 2236,-88 2290,-88 2290,-124"/>
</g>
<!-- 2848840017520 -->
<g id="node26" class="node"><title>2848840017520</title>
<ellipse fill="none" stroke="black" cx="2353" cy="-106" rx="27" ry="27"/>
</g>
<!-- 2848840017184&#45;&gt;2848840017520 -->
<g id="edge42" class="edge"><title>2848840017184&#45;&gt;2848840017520</title>
<path fill="none" stroke="black" d="M2290.4,-106C2298.39,-106 2307.31,-106 2315.82,-106"/>
<polygon fill="black" stroke="black" points="2315.92,-109.5 2325.92,-106 2315.92,-102.5 2315.92,-109.5"/>
</g>
<!-- 2848840018720 -->
<g id="node11" class="node"><title>2848840018720</title>
<polygon fill="black" stroke="black" points="2470,-124 2416,-124 2416,-88 2470,-88 2470,-124"/>
</g>
<!-- 2848840018912 -->
<g id="node39" class="node"><title>2848840018912</title>
<ellipse fill="orange" stroke="black" cx="2533" cy="-106" rx="27" ry="27"/>
</g>
<!-- 2848840018720&#45;&gt;2848840018912 -->
<g id="edge36" class="edge"><title>2848840018720&#45;&gt;2848840018912</title>
<path fill="none" stroke="black" d="M2470.4,-106C2478.39,-106 2487.31,-106 2495.82,-106"/>
<polygon fill="black" stroke="black" points="2495.92,-109.5 2505.92,-106 2495.92,-102.5 2495.92,-109.5"/>
</g>
<!-- 2848840124592 -->
<g id="node12" class="node"><title>2848840124592</title>
<polygon fill="none" stroke="black" points="359,-131 270,-131 270,-95 359,-95 359,-131"/>
<text text-anchor="middle" x="314.5" y="-109.9" font-family="Times New Roman,serif" font-size="12.00">O_Create Offer</text>
</g>
<!-- 2848840016224 -->
<g id="node31" class="node"><title>2848840016224</title>
<ellipse fill="none" stroke="black" cx="422" cy="-113" rx="27" ry="27"/>
</g>
<!-- 2848840124592&#45;&gt;2848840016224 -->
<g id="edge3" class="edge"><title>2848840124592&#45;&gt;2848840016224</title>
<path fill="none" stroke="black" d="M359.02,-113C367.561,-113 376.434,-113 384.708,-113"/>
<polygon fill="black" stroke="black" points="384.796,-116.5 394.796,-113 384.796,-109.5 384.796,-116.5"/>
</g>
<!-- 2848840180400 -->
<g id="node13" class="node"><title>2848840180400</title>
<polygon fill="black" stroke="black" points="1907,-236 1853,-236 1853,-200 1907,-200 1907,-236"/>
</g>
<!-- 2848840019440 -->
<g id="node36" class="node"><title>2848840019440</title>
<ellipse fill="none" stroke="black" cx="1970" cy="-223" rx="27" ry="27"/>
</g>
<!-- 2848840180400&#45;&gt;2848840019440 -->
<g id="edge44" class="edge"><title>2848840180400&#45;&gt;2848840019440</title>
<path fill="none" stroke="black" d="M1907.4,-219.5C1915.39,-219.954 1924.31,-220.461 1932.82,-220.945"/>
<polygon fill="black" stroke="black" points="1932.74,-224.445 1942.92,-221.518 1933.13,-217.456 1932.74,-224.445"/>
</g>
<!-- 2848840123344 -->
<g id="node14" class="node"><title>2848840123344</title>
<polygon fill="none" stroke="black" points="988,-104 859,-104 859,-68 988,-68 988,-104"/>
<text text-anchor="middle" x="923.5" y="-82.9" font-family="Times New Roman,serif" font-size="12.00">O_Sent (mail and online)</text>
</g>
<!-- 2848840123584 -->
<g id="node27" class="node"><title>2848840123584</title>
<ellipse fill="none" stroke="black" cx="1051" cy="-113" rx="27" ry="27"/>
</g>
<!-- 2848840123344&#45;&gt;2848840123584 -->
<g id="edge1" class="edge"><title>2848840123344&#45;&gt;2848840123584</title>
<path fill="none" stroke="black" d="M988.353,-99.7373C997.379,-101.679 1006.37,-103.615 1014.59,-105.383"/>
<polygon fill="black" stroke="black" points="1014.02,-108.839 1024.53,-107.52 1015.49,-101.995 1014.02,-108.839"/>
</g>
<!-- 2848840024800 -->
<g id="node34" class="node"><title>2848840024800</title>
<ellipse fill="none" stroke="black" cx="1141" cy="-36" rx="27" ry="27"/>
</g>
<!-- 2848840123344&#45;&gt;2848840024800 -->
<g id="edge2" class="edge"><title>2848840123344&#45;&gt;2848840024800</title>
<path fill="none" stroke="black" d="M988.282,-71.2013C1026.19,-62.4049 1072.87,-51.5746 1104.36,-44.2685"/>
<polygon fill="black" stroke="black" points="1105.47,-47.6036 1114.42,-41.9339 1103.89,-40.7847 1105.47,-47.6036"/>
</g>
<!-- 2848840125264 -->
<g id="node15" class="node"><title>2848840125264</title>
<polygon fill="black" stroke="black" points="1168,-131 1114,-131 1114,-95 1168,-95 1168,-131"/>
</g>
<!-- 2848840017328 -->
<g id="node33" class="node"><title>2848840017328</title>
<ellipse fill="none" stroke="black" cx="1231" cy="-113" rx="27" ry="27"/>
</g>
<!-- 2848840125264&#45;&gt;2848840017328 -->
<g id="edge41" class="edge"><title>2848840125264&#45;&gt;2848840017328</title>
<path fill="none" stroke="black" d="M1168.4,-113C1176.39,-113 1185.31,-113 1193.82,-113"/>
<polygon fill="black" stroke="black" points="1193.92,-116.5 1203.92,-113 1193.92,-109.5 1193.92,-116.5"/>
</g>
<!-- 2848840016464 -->
<g id="node16" class="node"><title>2848840016464</title>
<polygon fill="black" stroke="black" points="1907,-97 1853,-97 1853,-61 1907,-61 1907,-97"/>
</g>
<!-- 2848840123296 -->
<g id="node24" class="node"><title>2848840123296</title>
<ellipse fill="none" stroke="black" cx="1970" cy="-79" rx="27" ry="27"/>
</g>
<!-- 2848840016464&#45;&gt;2848840123296 -->
<g id="edge39" class="edge"><title>2848840016464&#45;&gt;2848840123296</title>
<path fill="none" stroke="black" d="M1907.4,-79C1915.39,-79 1924.31,-79 1932.82,-79"/>
<polygon fill="black" stroke="black" points="1932.92,-82.5001 1942.92,-79 1932.92,-75.5001 1932.92,-82.5001"/>
</g>
<!-- 2848840123488 -->
<g id="node17" class="node"><title>2848840123488</title>
<polygon fill="none" stroke="black" points="978.5,-158 868.5,-158 868.5,-122 978.5,-122 978.5,-158"/>
<text text-anchor="middle" x="923.5" y="-136.9" font-family="Times New Roman,serif" font-size="12.00">O_Sent (online only)</text>
</g>
<!-- 2848840123488&#45;&gt;2848840123584 -->
<g id="edge5" class="edge"><title>2848840123488&#45;&gt;2848840123584</title>
<path fill="none" stroke="black" d="M978.816,-128.314C990.989,-125.696 1003.59,-122.984 1014.75,-120.584"/>
<polygon fill="black" stroke="black" points="1015.5,-124.003 1024.54,-118.478 1014.02,-117.16 1015.5,-124.003"/>
</g>
<!-- 2848840180112 -->
<g id="node35" class="node"><title>2848840180112</title>
<ellipse fill="none" stroke="black" cx="1790" cy="-170" rx="27" ry="27"/>
</g>
<!-- 2848840123488&#45;&gt;2848840180112 -->
<g id="edge6" class="edge"><title>2848840123488&#45;&gt;2848840180112</title>
<path fill="none" stroke="black" d="M978.679,-151.771C1022.09,-160.175 1084.66,-170 1140,-170 1140,-170 1140,-170 1611,-170 1660.08,-170 1716.77,-170 1752.74,-170"/>
<polygon fill="black" stroke="black" points="1752.76,-173.5 1762.76,-170 1752.76,-166.5 1752.76,-173.5"/>
</g>
<!-- 2848840125792 -->
<g id="node18" class="node"><title>2848840125792</title>
<polygon fill="black" stroke="black" points="1348,-131 1294,-131 1294,-95 1348,-95 1348,-131"/>
</g>
<!-- 2848840123248 -->
<g id="node23" class="node"><title>2848840123248</title>
<ellipse fill="none" stroke="black" cx="1411" cy="-113" rx="27" ry="27"/>
</g>
<!-- 2848840125792&#45;&gt;2848840123248 -->
<g id="edge38" class="edge"><title>2848840125792&#45;&gt;2848840123248</title>
<path fill="none" stroke="black" d="M1348.4,-113C1356.39,-113 1365.31,-113 1373.82,-113"/>
<polygon fill="black" stroke="black" points="1373.92,-116.5 1383.92,-113 1373.92,-109.5 1373.92,-116.5"/>
</g>
<!-- 2848840126320 -->
<g id="node19" class="node"><title>2848840126320</title>
<polygon fill="black" stroke="black" points="1727,-97 1673,-97 1673,-61 1727,-61 1727,-97"/>
</g>
<!-- 2848840017424 -->
<g id="node25" class="node"><title>2848840017424</title>
<ellipse fill="none" stroke="black" cx="1790" cy="-79" rx="27" ry="27"/>
</g>
<!-- 2848840126320&#45;&gt;2848840017424 -->
<g id="edge40" class="edge"><title>2848840126320&#45;&gt;2848840017424</title>
<path fill="none" stroke="black" d="M1727.4,-79C1735.39,-79 1744.31,-79 1752.82,-79"/>
<polygon fill="black" stroke="black" points="1752.92,-82.5001 1762.92,-79 1752.92,-75.5001 1752.92,-82.5001"/>
</g>
<!-- 2848840015984 -->
<g id="node20" class="node"><title>2848840015984</title>
<polygon fill="none" stroke="black" points="2110,-124 2033,-124 2033,-88 2110,-88 2110,-124"/>
<text text-anchor="middle" x="2071.5" y="-102.9" font-family="Times New Roman,serif" font-size="12.00">O_Cancelled</text>
</g>
<!-- 2848840015984&#45;&gt;2848840016368 -->
<g id="edge10" class="edge"><title>2848840015984&#45;&gt;2848840016368</title>
<path fill="none" stroke="black" d="M2110.12,-106C2118.47,-106 2127.32,-106 2135.63,-106"/>
<polygon fill="black" stroke="black" points="2135.78,-109.5 2145.78,-106 2135.78,-102.5 2135.78,-109.5"/>
</g>
<!-- 2848840024368 -->
<g id="node21" class="node"><title>2848840024368</title>
<ellipse fill="green" stroke="black" cx="27" cy="-113" rx="27" ry="27"/>
<text text-anchor="middle" x="27" y="-109.9" font-family="Times New Roman,serif" font-size="12.00">1</text>
</g>
<!-- 2848840024368&#45;&gt;2848840018576 -->
<g id="edge21" class="edge"><title>2848840024368&#45;&gt;2848840018576</title>
<path fill="none" stroke="black" d="M54.4029,-113C62.3932,-113 71.3106,-113 79.8241,-113"/>
<polygon fill="black" stroke="black" points="79.919,-116.5 89.919,-113 79.919,-109.5 79.919,-116.5"/>
</g>
<!-- 2848840123200&#45;&gt;2848840123344 -->
<g id="edge12" class="edge"><title>2848840123200&#45;&gt;2848840123344</title>
<path fill="none" stroke="black" d="M822.7,-107.471C830.577,-105.776 839.668,-103.821 849.089,-101.794"/>
<polygon fill="black" stroke="black" points="849.949,-105.189 858.989,-99.6638 848.476,-98.3454 849.949,-105.189"/>
</g>
<!-- 2848840123200&#45;&gt;2848840123488 -->
<g id="edge13" class="edge"><title>2848840123200&#45;&gt;2848840123488</title>
<path fill="none" stroke="black" d="M822.7,-118.529C833.111,-120.769 845.643,-123.465 858.256,-126.179"/>
<polygon fill="black" stroke="black" points="857.837,-129.668 868.349,-128.35 859.309,-122.825 857.837,-129.668"/>
</g>
<!-- 2848840123248&#45;&gt;2848840125456 -->
<g id="edge14" class="edge"><title>2848840123248&#45;&gt;2848840125456</title>
<path fill="none" stroke="black" d="M1436.1,-102.371C1447.52,-97.3369 1461.38,-91.2241 1473.96,-85.6721"/>
<polygon fill="black" stroke="black" points="1475.54,-88.8007 1483.28,-81.563 1472.72,-82.3959 1475.54,-88.8007"/>
</g>
<!-- 2848840123248&#45;&gt;2848840125600 -->
<g id="edge15" class="edge"><title>2848840123248&#45;&gt;2848840125600</title>
<path fill="none" stroke="black" d="M1437.87,-115.919C1445.91,-116.825 1455.01,-117.853 1463.97,-118.864"/>
<polygon fill="black" stroke="black" points="1463.63,-122.347 1473.96,-119.991 1464.42,-115.391 1463.63,-122.347"/>
</g>
<!-- 2848840123296&#45;&gt;2848840016128 -->
<g id="edge18" class="edge"><title>2848840123296&#45;&gt;2848840016128</title>
<path fill="none" stroke="black" d="M1990.43,-96.7425C2002.45,-107.516 2018.35,-121.384 2033,-133 2034.03,-133.813 2035.07,-134.632 2036.13,-135.453"/>
<polygon fill="black" stroke="black" points="2034.35,-138.493 2044.45,-141.717 2038.57,-132.903 2034.35,-138.493"/>
</g>
<!-- 2848840123296&#45;&gt;2848840016272 -->
<g id="edge16" class="edge"><title>2848840123296&#45;&gt;2848840016272</title>
<path fill="none" stroke="black" d="M1996.37,-72.1169C2005.79,-69.5595 2016.77,-66.5811 2027.34,-63.7124"/>
<polygon fill="black" stroke="black" points="2028.55,-67.0097 2037.29,-61.0129 2026.72,-60.254 2028.55,-67.0097"/>
</g>
<!-- 2848840123296&#45;&gt;2848840015984 -->
<g id="edge17" class="edge"><title>2848840123296&#45;&gt;2848840015984</title>
<path fill="none" stroke="black" d="M1996.37,-85.8831C2004.48,-88.0861 2013.75,-90.6013 2022.92,-93.0899"/>
<polygon fill="black" stroke="black" points="2022.21,-96.5225 2032.78,-95.7636 2024.04,-89.7668 2022.21,-96.5225"/>
</g>
<!-- 2848840017424&#45;&gt;2848840016464 -->
<g id="edge19" class="edge"><title>2848840017424&#45;&gt;2848840016464</title>
<path fill="none" stroke="black" d="M1817.4,-79C1825.39,-79 1834.31,-79 1842.82,-79"/>
<polygon fill="black" stroke="black" points="1842.92,-82.5001 1852.92,-79 1842.92,-75.5001 1842.92,-82.5001"/>
</g>
<!-- 2848840017520&#45;&gt;2848840018720 -->
<g id="edge20" class="edge"><title>2848840017520&#45;&gt;2848840018720</title>
<path fill="none" stroke="black" d="M2380.4,-106C2388.39,-106 2397.31,-106 2405.82,-106"/>
<polygon fill="black" stroke="black" points="2405.92,-109.5 2415.92,-106 2405.92,-102.5 2405.92,-109.5"/>
</g>
<!-- 2848840123584&#45;&gt;2848840125264 -->
<g id="edge22" class="edge"><title>2848840123584&#45;&gt;2848840125264</title>
<path fill="none" stroke="black" d="M1078.4,-113C1086.39,-113 1095.31,-113 1103.82,-113"/>
<polygon fill="black" stroke="black" points="1103.92,-116.5 1113.92,-113 1103.92,-109.5 1103.92,-116.5"/>
</g>
<!-- 2848840125696&#45;&gt;2848840126320 -->
<g id="edge23" class="edge"><title>2848840125696&#45;&gt;2848840126320</title>
<path fill="none" stroke="black" d="M1637.4,-79C1645.39,-79 1654.31,-79 1662.82,-79"/>
<polygon fill="black" stroke="black" points="1662.92,-82.5001 1672.92,-79 1662.92,-75.5001 1662.92,-82.5001"/>
</g>
<!-- 2848840016368&#45;&gt;2848840017184 -->
<g id="edge24" class="edge"><title>2848840016368&#45;&gt;2848840017184</title>
<path fill="none" stroke="black" d="M2200.4,-106C2208.39,-106 2217.31,-106 2225.82,-106"/>
<polygon fill="black" stroke="black" points="2225.92,-109.5 2235.92,-106 2225.92,-102.5 2225.92,-109.5"/>
</g>
<!-- 2848840125408&#45;&gt;2848840124592 -->
<g id="edge25" class="edge"><title>2848840125408&#45;&gt;2848840124592</title>
<path fill="none" stroke="black" d="M234.079,-113C241.881,-113 250.741,-113 259.642,-113"/>
<polygon fill="black" stroke="black" points="259.656,-116.5 269.656,-113 259.656,-109.5 259.656,-116.5"/>
</g>
<!-- 2848840016224&#45;&gt;2848840123008 -->
<g id="edge26" class="edge"><title>2848840016224&#45;&gt;2848840123008</title>
<path fill="none" stroke="black" d="M449.211,-113C457.106,-113 465.99,-113 474.685,-113"/>
<polygon fill="black" stroke="black" points="474.736,-116.5 484.736,-113 474.736,-109.5 474.736,-116.5"/>
</g>
<!-- 2848840016032&#45;&gt;2848840123680 -->
<g id="edge27" class="edge"><title>2848840016032&#45;&gt;2848840123680</title>
<path fill="none" stroke="black" d="M643.403,-113C651.393,-113 660.311,-113 668.824,-113"/>
<polygon fill="black" stroke="black" points="668.919,-116.5 678.919,-113 668.919,-109.5 668.919,-116.5"/>
</g>
<!-- 2848840017328&#45;&gt;2848840125792 -->
<g id="edge28" class="edge"><title>2848840017328&#45;&gt;2848840125792</title>
<path fill="none" stroke="black" d="M1258.4,-113C1266.39,-113 1275.31,-113 1283.82,-113"/>
<polygon fill="black" stroke="black" points="1283.92,-116.5 1293.92,-113 1283.92,-109.5 1283.92,-116.5"/>
</g>
<!-- 2848840024800&#45;&gt;2848840019728 -->
<g id="edge29" class="edge"><title>2848840024800&#45;&gt;2848840019728</title>
<path fill="none" stroke="black" d="M1168.4,-35.3999C1176.39,-35.2183 1185.31,-35.0157 1193.82,-34.8222"/>
<polygon fill="black" stroke="black" points="1194,-38.3192 1203.92,-34.5928 1193.84,-31.321 1194,-38.3192"/>
</g>
<!-- 2848840180112&#45;&gt;2848840179968 -->
<g id="edge31" class="edge"><title>2848840180112&#45;&gt;2848840179968</title>
<path fill="none" stroke="black" d="M1816.93,-165.581C1825.09,-164.189 1834.26,-162.627 1842.99,-161.138"/>
<polygon fill="black" stroke="black" points="1843.68,-164.57 1852.95,-159.44 1842.51,-157.67 1843.68,-164.57"/>
</g>
<!-- 2848840180112&#45;&gt;2848840180400 -->
<g id="edge30" class="edge"><title>2848840180112&#45;&gt;2848840180400</title>
<path fill="none" stroke="black" d="M1814.12,-182.611C1823.24,-187.588 1833.93,-193.415 1843.96,-198.887"/>
<polygon fill="black" stroke="black" points="1842.47,-202.063 1852.93,-203.779 1845.83,-195.918 1842.47,-202.063"/>
</g>
<!-- 2848840019440&#45;&gt;2848840016128 -->
<g id="edge32" class="edge"><title>2848840019440&#45;&gt;2848840016128</title>
<path fill="none" stroke="black" d="M1993.58,-208.704C2005.34,-201.259 2020.02,-191.964 2033.39,-183.496"/>
<polygon fill="black" stroke="black" points="2035.37,-186.385 2041.95,-178.078 2031.63,-180.471 2035.37,-186.385"/>
</g>
<!-- 2848840123104&#45;&gt;2848840015984 -->
<g id="edge33" class="edge"><title>2848840123104&#45;&gt;2848840015984</title>
<path fill="none" stroke="black" d="M1994.83,-140.221C2003.55,-136.28 2013.74,-131.672 2023.76,-127.139"/>
<polygon fill="black" stroke="black" points="2025.2,-130.327 2032.87,-123.017 2022.32,-123.949 2025.2,-130.327"/>
</g>
<!-- 2848840019872&#45;&gt;2848840016272 -->
<g id="edge34" class="edge"><title>2848840019872&#45;&gt;2848840016272</title>
<path fill="none" stroke="black" d="M1348.08,-26.3193C1384.3,-25.4341 1451.88,-24 1509.5,-24 1509.5,-24 1509.5,-24 1881,-24 1931.46,-24 1988.68,-33.8366 2026.91,-41.8493"/>
<polygon fill="black" stroke="black" points="2026.66,-45.3748 2037.17,-44.0512 2028.13,-38.5307 2026.66,-45.3748"/>
</g>
</g>
</svg>
