<?xml version="1.0" encoding="UTF-8" standalone="no"?>
<!DOCTYPE svg PUBLIC "-//W3C//DTD SVG 1.1//EN"
 "http://www.w3.org/Graphics/SVG/1.1/DTD/svg11.dtd">
<!-- Generated by graphviz version 2.38.0 (20140413.2041)
 -->
<!-- Title: &#45;&gt;( &#39;O_Create Offer&#39;, &#39;O_Created&#39;, X( &#39;O_Sent (mail and online)&#39;, &#39;O_Sent (online only)&#39; ), X( *tau*, &#39;O_Returned&#39; ), X( &#39;O_Cancelled&#39;, &#39;O_Accepted&#39;, &#39;O_Refused&#39; ) ) Pages: 1 -->
<svg width="2568pt" height="278pt"
 viewBox="0.00 0.00 2568.00 278.00" xmlns="http://www.w3.org/2000/svg" xmlns:xlink="http://www.w3.org/1999/xlink">
<g id="graph0" class="graph" transform="scale(1 1) rotate(0) translate(4 274)">
<title>&#45;&gt;( &#39;O_Create Offer&#39;, &#39;O_Created&#39;, X( &#39;O_Sent (mail and online)&#39;, &#39;O_Sent (online only)&#39; ), X( *tau*, &#39;O_Returned&#39; ), X( &#39;O_Cancelled&#39;, &#39;O_Accepted&#39;, &#39;O_Refused&#39; ) )</title>
<!-- 2503145314816 -->
<g id="node1" class="node"><title>2503145314816</title>
<polygon fill="none" stroke="black" points="1547,-180 1474,-180 1474,-144 1547,-144 1547,-180"/>
<text text-anchor="middle" x="1510.5" y="-158.9" font-family="Times New Roman,serif" font-size="12.00">O_Returned</text>
</g>
<!-- 2503145314912 -->
<g id="node29" class="node"><title>2503145314912</title>
<ellipse fill="none" stroke="black" cx="1610" cy="-135" rx="27" ry="27"/>
</g>
<!-- 2503145314816&#45;&gt;2503145314912 -->
<g id="edge9" class="edge"><title>2503145314816&#45;&gt;2503145314912</title>
<path fill="none" stroke="black" d="M1547.25,-152.1C1555.92,-149.698 1565.19,-147.133 1573.83,-144.739"/>
<polygon fill="black" stroke="black" points="1574.92,-148.069 1583.62,-142.027 1573.05,-141.323 1574.92,-148.069"/>
</g>
<!-- 2502775152256 -->
<g id="node2" class="node"><title>2502775152256</title>
<polygon fill="black" stroke="black" points="1907,-207 1853,-207 1853,-171 1907,-171 1907,-207"/>
</g>
<!-- 2503143870720 -->
<g id="node38" class="node"><title>2503143870720</title>
<ellipse fill="none" stroke="black" cx="1970" cy="-171" rx="27" ry="27"/>
</g>
<!-- 2502775152256&#45;&gt;2503143870720 -->
<g id="edge44" class="edge"><title>2502775152256&#45;&gt;2503143870720</title>
<path fill="none" stroke="black" d="M1907.4,-183.599C1915.55,-181.932 1924.67,-180.068 1933.34,-178.295"/>
<polygon fill="black" stroke="black" points="1934.13,-181.706 1943.22,-176.273 1932.72,-174.848 1934.13,-181.706"/>
</g>
<!-- 2503143871632 -->
<g id="node3" class="node"><title>2503143871632</title>
<polygon fill="none" stroke="black" points="553,-153 485,-153 485,-117 553,-117 553,-153"/>
<text text-anchor="middle" x="519" y="-131.9" font-family="Times New Roman,serif" font-size="12.00">O_Created</text>
</g>
<!-- 2503143726192 -->
<g id="node33" class="node"><title>2503143726192</title>
<ellipse fill="none" stroke="black" cx="616" cy="-135" rx="27" ry="27"/>
</g>
<!-- 2503143871632&#45;&gt;2503143726192 -->
<g id="edge4" class="edge"><title>2503143871632&#45;&gt;2503143726192</title>
<path fill="none" stroke="black" d="M553.226,-135C561.428,-135 570.255,-135 578.599,-135"/>
<polygon fill="black" stroke="black" points="578.825,-138.5 588.825,-135 578.825,-131.5 578.825,-138.5"/>
</g>
<!-- 2503144678928 -->
<g id="node4" class="node"><title>2503144678928</title>
<polygon fill="black" stroke="black" points="1907,-153 1853,-153 1853,-117 1907,-117 1907,-153"/>
</g>
<!-- 2503145313760 -->
<g id="node23" class="node"><title>2503145313760</title>
<ellipse fill="none" stroke="black" cx="1970" cy="-99" rx="27" ry="27"/>
</g>
<!-- 2503144678928&#45;&gt;2503145313760 -->
<g id="edge42" class="edge"><title>2503144678928&#45;&gt;2503145313760</title>
<path fill="none" stroke="black" d="M1907.4,-124.199C1916.2,-120.602 1926.11,-116.546 1935.37,-112.756"/>
<polygon fill="black" stroke="black" points="1936.79,-115.959 1944.72,-108.933 1934.14,-109.48 1936.79,-115.959"/>
</g>
<!-- 2503143726480 -->
<g id="node5" class="node"><title>2503143726480</title>
<polygon fill="none" stroke="black" points="2105.5,-198 2037.5,-198 2037.5,-162 2105.5,-162 2105.5,-198"/>
<text text-anchor="middle" x="2071.5" y="-176.9" font-family="Times New Roman,serif" font-size="12.00">O_Refused</text>
</g>
<!-- 2503143726384 -->
<g id="node30" class="node"><title>2503143726384</title>
<ellipse fill="none" stroke="black" cx="2173" cy="-126" rx="27" ry="27"/>
</g>
<!-- 2503143726480&#45;&gt;2503143726384 -->
<g id="edge7" class="edge"><title>2503143726480&#45;&gt;2503143726384</title>
<path fill="none" stroke="black" d="M2105.63,-162.019C2116.67,-156.026 2128.95,-149.364 2139.91,-143.416"/>
<polygon fill="black" stroke="black" points="2141.63,-146.463 2148.75,-138.617 2138.29,-140.311 2141.63,-146.463"/>
</g>
<!-- 2503143874080 -->
<g id="node6" class="node"><title>2503143874080</title>
<polygon fill="none" stroke="black" points="978.5,-126 868.5,-126 868.5,-90 978.5,-90 978.5,-126"/>
<text text-anchor="middle" x="923.5" y="-104.9" font-family="Times New Roman,serif" font-size="12.00">O_Sent (online only)</text>
</g>
<!-- 2503143639456 -->
<g id="node28" class="node"><title>2503143639456</title>
<ellipse fill="none" stroke="black" cx="1051" cy="-135" rx="27" ry="27"/>
</g>
<!-- 2503143874080&#45;&gt;2503143639456 -->
<g id="edge5" class="edge"><title>2503143874080&#45;&gt;2503143639456</title>
<path fill="none" stroke="black" d="M978.816,-119.686C990.989,-122.304 1003.59,-125.016 1014.75,-127.416"/>
<polygon fill="black" stroke="black" points="1014.02,-130.84 1024.54,-129.522 1015.5,-123.997 1014.02,-130.84"/>
</g>
<!-- 2503143902512 -->
<g id="node36" class="node"><title>2503143902512</title>
<ellipse fill="none" stroke="black" cx="1790" cy="-62" rx="27" ry="27"/>
</g>
<!-- 2503143874080&#45;&gt;2503143902512 -->
<g id="edge6" class="edge"><title>2503143874080&#45;&gt;2503143902512</title>
<path fill="none" stroke="black" d="M978.291,-89.9516C1021.48,-77.0644 1083.95,-62 1140,-62 1140,-62 1140,-62 1611,-62 1660.08,-62 1716.77,-62 1752.74,-62"/>
<polygon fill="black" stroke="black" points="1752.76,-65.5001 1762.76,-62 1752.76,-58.5001 1752.76,-65.5001"/>
</g>
<!-- 2503145313952 -->
<g id="node7" class="node"><title>2503145313952</title>
<polygon fill="black" stroke="black" points="733,-153 679,-153 679,-117 733,-117 733,-153"/>
</g>
<!-- 2503143870672 -->
<g id="node25" class="node"><title>2503143870672</title>
<ellipse fill="none" stroke="black" cx="796" cy="-135" rx="27" ry="27"/>
</g>
<!-- 2503145313952&#45;&gt;2503143870672 -->
<g id="edge38" class="edge"><title>2503145313952&#45;&gt;2503143870672</title>
<path fill="none" stroke="black" d="M733.403,-135C741.393,-135 750.311,-135 758.824,-135"/>
<polygon fill="black" stroke="black" points="758.919,-138.5 768.919,-135 758.919,-131.5 758.919,-138.5"/>
</g>
<!-- 2503145314336 -->
<g id="node8" class="node"><title>2503145314336</title>
<polygon fill="black" stroke="black" points="1348,-153 1294,-153 1294,-117 1348,-117 1348,-153"/>
</g>
<!-- 2503143872976 -->
<g id="node24" class="node"><title>2503143872976</title>
<ellipse fill="none" stroke="black" cx="1411" cy="-135" rx="27" ry="27"/>
</g>
<!-- 2503145314336&#45;&gt;2503143872976 -->
<g id="edge39" class="edge"><title>2503145314336&#45;&gt;2503143872976</title>
<path fill="none" stroke="black" d="M1348.4,-135C1356.39,-135 1365.31,-135 1373.82,-135"/>
<polygon fill="black" stroke="black" points="1373.92,-138.5 1383.92,-135 1373.92,-131.5 1373.92,-138.5"/>
</g>
<!-- 2503143726240 -->
<g id="node9" class="node"><title>2503143726240</title>
<polygon fill="none" stroke="black" points="2109.5,-90 2033.5,-90 2033.5,-54 2109.5,-54 2109.5,-90"/>
<text text-anchor="middle" x="2071.5" y="-68.9" font-family="Times New Roman,serif" font-size="12.00">O_Accepted</text>
</g>
<!-- 2503143726240&#45;&gt;2503143726384 -->
<g id="edge11" class="edge"><title>2503143726240&#45;&gt;2503143726384</title>
<path fill="none" stroke="black" d="M2105.91,-90.1314C2116.94,-96.1158 2129.17,-102.754 2140.08,-108.676"/>
<polygon fill="black" stroke="black" points="2138.42,-111.759 2148.88,-113.453 2141.76,-105.607 2138.42,-111.759"/>
</g>
<!-- 2503143901216 -->
<g id="node10" class="node"><title>2503143901216</title>
<polygon fill="black" stroke="black" points="144,-153 90,-153 90,-117 144,-117 144,-153"/>
</g>
<!-- 2503145315056 -->
<g id="node31" class="node"><title>2503145315056</title>
<ellipse fill="none" stroke="black" cx="207" cy="-135" rx="27" ry="27"/>
</g>
<!-- 2503143901216&#45;&gt;2503145315056 -->
<g id="edge36" class="edge"><title>2503143901216&#45;&gt;2503145315056</title>
<path fill="none" stroke="black" d="M144.403,-135C152.393,-135 161.311,-135 169.824,-135"/>
<polygon fill="black" stroke="black" points="169.919,-138.5 179.919,-135 169.919,-131.5 169.919,-138.5"/>
</g>
<!-- 2503143902368 -->
<g id="node11" class="node"><title>2503143902368</title>
<polygon fill="black" stroke="black" points="1907,-99 1853,-99 1853,-63 1907,-63 1907,-99"/>
</g>
<!-- 2503143902368&#45;&gt;2503143870720 -->
<g id="edge47" class="edge"><title>2503143902368&#45;&gt;2503143870720</title>
<path fill="none" stroke="black" d="M1898.81,-99.2128C1911.64,-112.335 1929.14,-130.234 1943.46,-144.877"/>
<polygon fill="black" stroke="black" points="1941.12,-147.492 1950.61,-152.195 1946.12,-142.598 1941.12,-147.492"/>
</g>
<!-- 2503145314480 -->
<g id="node12" class="node"><title>2503145314480</title>
<polygon fill="black" stroke="black" points="1168,-153 1114,-153 1114,-117 1168,-117 1168,-153"/>
</g>
<!-- 2503143899968 -->
<g id="node34" class="node"><title>2503143899968</title>
<ellipse fill="none" stroke="black" cx="1231" cy="-135" rx="27" ry="27"/>
</g>
<!-- 2503145314480&#45;&gt;2503143899968 -->
<g id="edge41" class="edge"><title>2503145314480&#45;&gt;2503143899968</title>
<path fill="none" stroke="black" d="M1168.4,-135C1176.39,-135 1185.31,-135 1193.82,-135"/>
<polygon fill="black" stroke="black" points="1193.92,-138.5 1203.92,-135 1193.92,-131.5 1193.92,-138.5"/>
</g>
<!-- 2503143899824 -->
<g id="node13" class="node"><title>2503143899824</title>
<polygon fill="black" stroke="black" points="2290,-144 2236,-144 2236,-108 2290,-108 2290,-144"/>
</g>
<!-- 2503143900160 -->
<g id="node27" class="node"><title>2503143900160</title>
<ellipse fill="none" stroke="black" cx="2353" cy="-126" rx="27" ry="27"/>
</g>
<!-- 2503143899824&#45;&gt;2503143900160 -->
<g id="edge43" class="edge"><title>2503143899824&#45;&gt;2503143900160</title>
<path fill="none" stroke="black" d="M2290.4,-126C2298.39,-126 2307.31,-126 2315.82,-126"/>
<polygon fill="black" stroke="black" points="2315.92,-129.5 2325.92,-126 2315.92,-122.5 2315.92,-129.5"/>
</g>
<!-- 2503143901360 -->
<g id="node14" class="node"><title>2503143901360</title>
<polygon fill="black" stroke="black" points="2470,-144 2416,-144 2416,-108 2470,-108 2470,-144"/>
</g>
<!-- 2503143901552 -->
<g id="node40" class="node"><title>2503143901552</title>
<ellipse fill="orange" stroke="black" cx="2533" cy="-126" rx="27" ry="27"/>
</g>
<!-- 2503143901360&#45;&gt;2503143901552 -->
<g id="edge37" class="edge"><title>2503143901360&#45;&gt;2503143901552</title>
<path fill="none" stroke="black" d="M2470.4,-126C2478.39,-126 2487.31,-126 2495.82,-126"/>
<polygon fill="black" stroke="black" points="2495.92,-129.5 2505.92,-126 2495.92,-122.5 2495.92,-129.5"/>
</g>
<!-- 2503143726912 -->
<g id="node15" class="node"><title>2503143726912</title>
<polygon fill="none" stroke="black" points="2110,-144 2033,-144 2033,-108 2110,-108 2110,-144"/>
<text text-anchor="middle" x="2071.5" y="-122.9" font-family="Times New Roman,serif" font-size="12.00">O_Cancelled</text>
</g>
<!-- 2503143726912&#45;&gt;2503143726384 -->
<g id="edge10" class="edge"><title>2503143726912&#45;&gt;2503143726384</title>
<path fill="none" stroke="black" d="M2110.12,-126C2118.47,-126 2127.32,-126 2135.63,-126"/>
<polygon fill="black" stroke="black" points="2135.78,-129.5 2145.78,-126 2135.78,-122.5 2135.78,-129.5"/>
</g>
<!-- 2503145314000 -->
<g id="node16" class="node"><title>2503145314000</title>
<polygon fill="black" stroke="black" points="1537.5,-126 1483.5,-126 1483.5,-90 1537.5,-90 1537.5,-126"/>
</g>
<!-- 2503145314000&#45;&gt;2503145314912 -->
<g id="edge8" class="edge"><title>2503145314000&#45;&gt;2503145314912</title>
<path fill="none" stroke="black" d="M1537.63,-115.236C1548.82,-118.335 1562.06,-122.001 1574.08,-125.329"/>
<polygon fill="black" stroke="black" points="1573.24,-128.729 1583.81,-128.024 1575.11,-121.982 1573.24,-128.729"/>
</g>
<!-- 2503143902800 -->
<g id="node17" class="node"><title>2503143902800</title>
<polygon fill="black" stroke="black" points="1907,-45 1853,-45 1853,-9 1907,-9 1907,-45"/>
</g>
<!-- 2503143902944 -->
<g id="node37" class="node"><title>2503143902944</title>
<ellipse fill="none" stroke="black" cx="1970" cy="-27" rx="27" ry="27"/>
</g>
<!-- 2503143902800&#45;&gt;2503143902944 -->
<g id="edge46" class="edge"><title>2503143902800&#45;&gt;2503143902944</title>
<path fill="none" stroke="black" d="M1907.4,-27C1915.39,-27 1924.31,-27 1932.82,-27"/>
<polygon fill="black" stroke="black" points="1932.92,-30.5001 1942.92,-27 1932.92,-23.5001 1932.92,-30.5001"/>
</g>
<!-- 2503143870816 -->
<g id="node18" class="node"><title>2503143870816</title>
<polygon fill="none" stroke="black" points="359,-153 270,-153 270,-117 359,-117 359,-153"/>
<text text-anchor="middle" x="314.5" y="-131.9" font-family="Times New Roman,serif" font-size="12.00">O_Create Offer</text>
</g>
<!-- 2503143726576 -->
<g id="node32" class="node"><title>2503143726576</title>
<ellipse fill="none" stroke="black" cx="422" cy="-135" rx="27" ry="27"/>
</g>
<!-- 2503143870816&#45;&gt;2503143726576 -->
<g id="edge3" class="edge"><title>2503143870816&#45;&gt;2503143726576</title>
<path fill="none" stroke="black" d="M359.02,-135C367.561,-135 376.434,-135 384.708,-135"/>
<polygon fill="black" stroke="black" points="384.796,-138.5 394.796,-135 384.796,-131.5 384.796,-138.5"/>
</g>
<!-- 2503143873888 -->
<g id="node19" class="node"><title>2503143873888</title>
<polygon fill="none" stroke="black" points="988,-180 859,-180 859,-144 988,-144 988,-180"/>
<text text-anchor="middle" x="923.5" y="-158.9" font-family="Times New Roman,serif" font-size="12.00">O_Sent (mail and online)</text>
</g>
<!-- 2503143873888&#45;&gt;2503143639456 -->
<g id="edge1" class="edge"><title>2503143873888&#45;&gt;2503143639456</title>
<path fill="none" stroke="black" d="M988.353,-148.263C997.379,-146.321 1006.37,-144.385 1014.59,-142.617"/>
<polygon fill="black" stroke="black" points="1015.49,-146.005 1024.53,-140.48 1014.02,-139.161 1015.49,-146.005"/>
</g>
<!-- 2503145315104 -->
<g id="node35" class="node"><title>2503145315104</title>
<ellipse fill="none" stroke="black" cx="1790" cy="-208" rx="27" ry="27"/>
</g>
<!-- 2503143873888&#45;&gt;2503145315104 -->
<g id="edge2" class="edge"><title>2503143873888&#45;&gt;2503145315104</title>
<path fill="none" stroke="black" d="M978.291,-180.048C1021.48,-192.936 1083.95,-208 1140,-208 1140,-208 1140,-208 1611,-208 1660.08,-208 1716.77,-208 1752.74,-208"/>
<polygon fill="black" stroke="black" points="1752.76,-211.5 1762.76,-208 1752.76,-204.5 1752.76,-211.5"/>
</g>
<!-- 2503143726960 -->
<g id="node20" class="node"><title>2503143726960</title>
<polygon fill="black" stroke="black" points="1727,-153 1673,-153 1673,-117 1727,-117 1727,-153"/>
</g>
<!-- 2503143900064 -->
<g id="node26" class="node"><title>2503143900064</title>
<ellipse fill="none" stroke="black" cx="1790" cy="-135" rx="27" ry="27"/>
</g>
<!-- 2503143726960&#45;&gt;2503143900064 -->
<g id="edge40" class="edge"><title>2503143726960&#45;&gt;2503143900064</title>
<path fill="none" stroke="black" d="M1727.4,-135C1735.39,-135 1744.31,-135 1752.82,-135"/>
<polygon fill="black" stroke="black" points="1752.92,-138.5 1762.92,-135 1752.92,-131.5 1752.92,-138.5"/>
</g>
<!-- 2503143901936 -->
<g id="node21" class="node"><title>2503143901936</title>
<polygon fill="black" stroke="black" points="1907,-261 1853,-261 1853,-225 1907,-225 1907,-261"/>
</g>
<!-- 2503143902080 -->
<g id="node39" class="node"><title>2503143902080</title>
<ellipse fill="none" stroke="black" cx="1970" cy="-243" rx="27" ry="27"/>
</g>
<!-- 2503143901936&#45;&gt;2503143902080 -->
<g id="edge45" class="edge"><title>2503143901936&#45;&gt;2503143902080</title>
<path fill="none" stroke="black" d="M1907.4,-243C1915.39,-243 1924.31,-243 1932.82,-243"/>
<polygon fill="black" stroke="black" points="1932.92,-246.5 1942.92,-243 1932.92,-239.5 1932.92,-246.5"/>
</g>
<!-- 2503143873792 -->
<g id="node22" class="node"><title>2503143873792</title>
<ellipse fill="green" stroke="black" cx="27" cy="-135" rx="27" ry="27"/>
<text text-anchor="middle" x="27" y="-131.9" font-family="Times New Roman,serif" font-size="12.00">1</text>
</g>
<!-- 2503143873792&#45;&gt;2503143901216 -->
<g id="edge21" class="edge"><title>2503143873792&#45;&gt;2503143901216</title>
<path fill="none" stroke="black" d="M54.4029,-135C62.3932,-135 71.3106,-135 79.8241,-135"/>
<polygon fill="black" stroke="black" points="79.919,-138.5 89.919,-135 79.919,-131.5 79.919,-138.5"/>
</g>
<!-- 2503145313760&#45;&gt;2503143726480 -->
<g id="edge12" class="edge"><title>2503145313760&#45;&gt;2503143726480</title>
<path fill="none" stroke="black" d="M1990.43,-116.743C2002.45,-127.516 2018.35,-141.384 2033,-153 2034.03,-153.813 2035.07,-154.632 2036.13,-155.453"/>
<polygon fill="black" stroke="black" points="2034.35,-158.493 2044.45,-161.717 2038.57,-152.903 2034.35,-158.493"/>
</g>
<!-- 2503145313760&#45;&gt;2503143726240 -->
<g id="edge14" class="edge"><title>2503145313760&#45;&gt;2503143726240</title>
<path fill="none" stroke="black" d="M1996.37,-92.1169C2004.57,-89.891 2013.95,-87.3462 2023.21,-84.8324"/>
<polygon fill="black" stroke="black" points="2024.42,-88.1301 2033.16,-82.1333 2022.59,-81.3744 2024.42,-88.1301"/>
</g>
<!-- 2503145313760&#45;&gt;2503143726912 -->
<g id="edge13" class="edge"><title>2503145313760&#45;&gt;2503143726912</title>
<path fill="none" stroke="black" d="M1996.37,-105.883C2004.48,-108.086 2013.75,-110.601 2022.92,-113.09"/>
<polygon fill="black" stroke="black" points="2022.21,-116.522 2032.78,-115.764 2024.04,-109.767 2022.21,-116.522"/>
</g>
<!-- 2503143872976&#45;&gt;2503145314816 -->
<g id="edge16" class="edge"><title>2503143872976&#45;&gt;2503145314816</title>
<path fill="none" stroke="black" d="M1437.11,-141.953C1445.31,-144.225 1454.7,-146.823 1463.93,-149.38"/>
<polygon fill="black" stroke="black" points="1463.25,-152.823 1473.82,-152.119 1465.12,-146.077 1463.25,-152.823"/>
</g>
<!-- 2503143872976&#45;&gt;2503145314000 -->
<g id="edge15" class="edge"><title>2503143872976&#45;&gt;2503145314000</title>
<path fill="none" stroke="black" d="M1437.11,-128.047C1448.22,-124.971 1461.49,-121.296 1473.61,-117.938"/>
<polygon fill="black" stroke="black" points="1474.75,-121.254 1483.46,-115.212 1472.88,-114.508 1474.75,-121.254"/>
</g>
<!-- 2503143870672&#45;&gt;2503143874080 -->
<g id="edge18" class="edge"><title>2503143870672&#45;&gt;2503143874080</title>
<path fill="none" stroke="black" d="M822.7,-129.471C833.111,-127.231 845.643,-124.535 858.256,-121.821"/>
<polygon fill="black" stroke="black" points="859.309,-125.175 868.349,-119.65 857.837,-118.332 859.309,-125.175"/>
</g>
<!-- 2503143870672&#45;&gt;2503143873888 -->
<g id="edge17" class="edge"><title>2503143870672&#45;&gt;2503143873888</title>
<path fill="none" stroke="black" d="M822.7,-140.529C830.577,-142.224 839.668,-144.179 849.089,-146.206"/>
<polygon fill="black" stroke="black" points="848.476,-149.655 858.989,-148.336 849.949,-142.811 848.476,-149.655"/>
</g>
<!-- 2503143900064&#45;&gt;2503144678928 -->
<g id="edge19" class="edge"><title>2503143900064&#45;&gt;2503144678928</title>
<path fill="none" stroke="black" d="M1817.4,-135C1825.39,-135 1834.31,-135 1842.82,-135"/>
<polygon fill="black" stroke="black" points="1842.92,-138.5 1852.92,-135 1842.92,-131.5 1842.92,-138.5"/>
</g>
<!-- 2503143900160&#45;&gt;2503143901360 -->
<g id="edge20" class="edge"><title>2503143900160&#45;&gt;2503143901360</title>
<path fill="none" stroke="black" d="M2380.4,-126C2388.39,-126 2397.31,-126 2405.82,-126"/>
<polygon fill="black" stroke="black" points="2405.92,-129.5 2415.92,-126 2405.92,-122.5 2405.92,-129.5"/>
</g>
<!-- 2503143639456&#45;&gt;2503145314480 -->
<g id="edge22" class="edge"><title>2503143639456&#45;&gt;2503145314480</title>
<path fill="none" stroke="black" d="M1078.4,-135C1086.39,-135 1095.31,-135 1103.82,-135"/>
<polygon fill="black" stroke="black" points="1103.92,-138.5 1113.92,-135 1103.92,-131.5 1103.92,-138.5"/>
</g>
<!-- 2503145314912&#45;&gt;2503143726960 -->
<g id="edge23" class="edge"><title>2503145314912&#45;&gt;2503143726960</title>
<path fill="none" stroke="black" d="M1637.4,-135C1645.39,-135 1654.31,-135 1662.82,-135"/>
<polygon fill="black" stroke="black" points="1662.92,-138.5 1672.92,-135 1662.92,-131.5 1662.92,-138.5"/>
</g>
<!-- 2503143726384&#45;&gt;2503143899824 -->
<g id="edge24" class="edge"><title>2503143726384&#45;&gt;2503143899824</title>
<path fill="none" stroke="black" d="M2200.4,-126C2208.39,-126 2217.31,-126 2225.82,-126"/>
<polygon fill="black" stroke="black" points="2225.92,-129.5 2235.92,-126 2225.92,-122.5 2225.92,-129.5"/>
</g>
<!-- 2503145315056&#45;&gt;2503143870816 -->
<g id="edge25" class="edge"><title>2503145315056&#45;&gt;2503143870816</title>
<path fill="none" stroke="black" d="M234.079,-135C241.881,-135 250.741,-135 259.642,-135"/>
<polygon fill="black" stroke="black" points="259.656,-138.5 269.656,-135 259.656,-131.5 259.656,-138.5"/>
</g>
<!-- 2503143726576&#45;&gt;2503143871632 -->
<g id="edge26" class="edge"><title>2503143726576&#45;&gt;2503143871632</title>
<path fill="none" stroke="black" d="M449.211,-135C457.106,-135 465.99,-135 474.685,-135"/>
<polygon fill="black" stroke="black" points="474.736,-138.5 484.736,-135 474.736,-131.5 474.736,-138.5"/>
</g>
<!-- 2503143726192&#45;&gt;2503145313952 -->
<g id="edge27" class="edge"><title>2503143726192&#45;&gt;2503145313952</title>
<path fill="none" stroke="black" d="M643.403,-135C651.393,-135 660.311,-135 668.824,-135"/>
<polygon fill="black" stroke="black" points="668.919,-138.5 678.919,-135 668.919,-131.5 668.919,-138.5"/>
</g>
<!-- 2503143899968&#45;&gt;2503145314336 -->
<g id="edge28" class="edge"><title>2503143899968&#45;&gt;2503145314336</title>
<path fill="none" stroke="black" d="M1258.4,-135C1266.39,-135 1275.31,-135 1283.82,-135"/>
<polygon fill="black" stroke="black" points="1283.92,-138.5 1293.92,-135 1283.92,-131.5 1283.92,-138.5"/>
</g>
<!-- 2503145315104&#45;&gt;2502775152256 -->
<g id="edge29" class="edge"><title>2503145315104&#45;&gt;2502775152256</title>
<path fill="none" stroke="black" d="M1816.45,-202.504C1824.79,-200.705 1834.21,-198.67 1843.16,-196.737"/>
<polygon fill="black" stroke="black" points="1843.96,-200.147 1852.99,-194.615 1842.48,-193.304 1843.96,-200.147"/>
</g>
<!-- 2503145315104&#45;&gt;2503143901936 -->
<g id="edge30" class="edge"><title>2503145315104&#45;&gt;2503143901936</title>
<path fill="none" stroke="black" d="M1815.51,-217.749C1824.12,-221.172 1833.97,-225.091 1843.31,-228.803"/>
<polygon fill="black" stroke="black" points="1842.19,-232.125 1852.77,-232.568 1844.77,-225.62 1842.19,-232.125"/>
</g>
<!-- 2503143902512&#45;&gt;2503143902368 -->
<g id="edge32" class="edge"><title>2503143902512&#45;&gt;2503143902368</title>
<path fill="none" stroke="black" d="M1816.45,-67.4956C1824.79,-69.2952 1834.21,-71.3295 1843.16,-73.2629"/>
<polygon fill="black" stroke="black" points="1842.48,-76.6955 1852.99,-75.3849 1843.96,-69.8532 1842.48,-76.6955"/>
</g>
<!-- 2503143902512&#45;&gt;2503143902800 -->
<g id="edge31" class="edge"><title>2503143902512&#45;&gt;2503143902800</title>
<path fill="none" stroke="black" d="M1815.51,-52.2505C1824.12,-48.8278 1833.97,-44.9093 1843.31,-41.1966"/>
<polygon fill="black" stroke="black" points="1844.77,-44.3795 1852.77,-37.4315 1842.19,-37.8751 1844.77,-44.3795"/>
</g>
<!-- 2503143902944&#45;&gt;2503143726240 -->
<g id="edge33" class="edge"><title>2503143902944&#45;&gt;2503143726240</title>
<path fill="none" stroke="black" d="M1994.83,-37.7786C2003.64,-41.7601 2013.94,-46.421 2024.06,-50.9988"/>
<polygon fill="black" stroke="black" points="2022.71,-54.2259 2033.26,-55.1577 2025.59,-47.8478 2022.71,-54.2259"/>
</g>
<!-- 2503143870720&#45;&gt;2503143726912 -->
<g id="edge34" class="edge"><title>2503143870720&#45;&gt;2503143726912</title>
<path fill="none" stroke="black" d="M1994.83,-160.221C2003.55,-156.28 2013.74,-151.672 2023.76,-147.139"/>
<polygon fill="black" stroke="black" points="2025.2,-150.327 2032.87,-143.017 2022.32,-143.949 2025.2,-150.327"/>
</g>
<!-- 2503143902080&#45;&gt;2503143726480 -->
<g id="edge35" class="edge"><title>2503143902080&#45;&gt;2503143726480</title>
<path fill="none" stroke="black" d="M1993.58,-228.704C2005.34,-221.259 2020.02,-211.964 2033.39,-203.496"/>
<polygon fill="black" stroke="black" points="2035.37,-206.385 2041.95,-198.078 2031.63,-200.471 2035.37,-206.385"/>
</g>
</g>
</svg>
