<?xml version="1.0" encoding="UTF-8" standalone="no"?>
<!DOCTYPE svg PUBLIC "-//W3C//DTD SVG 1.1//EN"
 "http://www.w3.org/Graphics/SVG/1.1/DTD/svg11.dtd">
<!-- Generated by graphviz version 2.38.0 (20140413.2041)
 -->
<!-- Title: &#45;&gt;( X( &#39;A&#39;, &#39;B&#39; ), &#39;G&#39;, X( &#39;E&#39;, &#39;F&#39;, &#39;D&#39; ), &#39;I&#39; ) Pages: 1 -->
<svg width="1862pt" height="152pt"
 viewBox="0.00 0.00 1862.00 152.00" xmlns="http://www.w3.org/2000/svg" xmlns:xlink="http://www.w3.org/1999/xlink">
<g id="graph0" class="graph" transform="scale(1 1) rotate(0) translate(4 148)">
<title>&#45;&gt;( X( &#39;A&#39;, &#39;B&#39; ), &#39;G&#39;, X( &#39;E&#39;, &#39;F&#39;, &#39;D&#39; ), &#39;I&#39; )</title>
<!-- 1729270442880 -->
<g id="node1" class="node"><title>1729270442880</title>
<polygon fill="black" stroke="black" points="324,-90 270,-90 270,-54 324,-54 324,-90"/>
</g>
<!-- 1729270442400 -->
<g id="node15" class="node"><title>1729270442400</title>
<ellipse fill="none" stroke="black" cx="387" cy="-72" rx="27" ry="27"/>
</g>
<!-- 1729270442880&#45;&gt;1729270442400 -->
<g id="edge23" class="edge"><title>1729270442880&#45;&gt;1729270442400</title>
<path fill="none" stroke="black" d="M324.403,-72C332.393,-72 341.311,-72 349.824,-72"/>
<polygon fill="black" stroke="black" points="349.919,-75.5001 359.919,-72 349.919,-68.5001 349.919,-75.5001"/>
</g>
<!-- 1729268725216 -->
<g id="node2" class="node"><title>1729268725216</title>
<polygon fill="black" stroke="black" points="684,-90 630,-90 630,-54 684,-54 684,-90"/>
</g>
<!-- 1729289829296 -->
<g id="node20" class="node"><title>1729289829296</title>
<ellipse fill="none" stroke="black" cx="747" cy="-72" rx="27" ry="27"/>
</g>
<!-- 1729268725216&#45;&gt;1729289829296 -->
<g id="edge24" class="edge"><title>1729268725216&#45;&gt;1729289829296</title>
<path fill="none" stroke="black" d="M684.403,-72C692.393,-72 701.311,-72 709.824,-72"/>
<polygon fill="black" stroke="black" points="709.919,-75.5001 719.919,-72 709.919,-68.5001 709.919,-75.5001"/>
</g>
<!-- 1729270442688 -->
<g id="node3" class="node"><title>1729270442688</title>
<polygon fill="none" stroke="black" points="504,-117 450,-117 450,-81 504,-81 504,-117"/>
<text text-anchor="middle" x="477" y="-95.9" font-family="Times New Roman,serif" font-size="12.00">B</text>
</g>
<!-- 1729270442784 -->
<g id="node17" class="node"><title>1729270442784</title>
<ellipse fill="none" stroke="black" cx="567" cy="-72" rx="27" ry="27"/>
</g>
<!-- 1729270442688&#45;&gt;1729270442784 -->
<g id="edge1" class="edge"><title>1729270442688&#45;&gt;1729270442784</title>
<path fill="none" stroke="black" d="M504.403,-90.8991C512.79,-88.3259 522.197,-85.4394 531.088,-82.7117"/>
<polygon fill="black" stroke="black" points="532.29,-86.004 540.823,-79.7247 530.236,-79.3119 532.29,-86.004"/>
</g>
<!-- 1729289829344 -->
<g id="node4" class="node"><title>1729289829344</title>
<polygon fill="none" stroke="black" points="1224,-144 1170,-144 1170,-108 1224,-108 1224,-144"/>
<text text-anchor="middle" x="1197" y="-122.9" font-family="Times New Roman,serif" font-size="12.00">E</text>
</g>
<!-- 1729289829632 -->
<g id="node18" class="node"><title>1729289829632</title>
<ellipse fill="none" stroke="black" cx="1287" cy="-72" rx="27" ry="27"/>
</g>
<!-- 1729289829344&#45;&gt;1729289829632 -->
<g id="edge5" class="edge"><title>1729289829344&#45;&gt;1729289829632</title>
<path fill="none" stroke="black" d="M1224.4,-109.798C1233.94,-103.947 1244.79,-97.2858 1254.71,-91.2023"/>
<polygon fill="black" stroke="black" points="1256.79,-94.031 1263.48,-85.8176 1253.13,-88.0647 1256.79,-94.031"/>
</g>
<!-- 1729289829728 -->
<g id="node5" class="node"><title>1729289829728</title>
<polygon fill="black" stroke="black" points="1044,-90 990,-90 990,-54 1044,-54 1044,-90"/>
</g>
<!-- 1729270576608 -->
<g id="node16" class="node"><title>1729270576608</title>
<ellipse fill="none" stroke="black" cx="1107" cy="-72" rx="27" ry="27"/>
</g>
<!-- 1729289829728&#45;&gt;1729270576608 -->
<g id="edge25" class="edge"><title>1729289829728&#45;&gt;1729270576608</title>
<path fill="none" stroke="black" d="M1044.4,-72C1052.39,-72 1061.31,-72 1069.82,-72"/>
<polygon fill="black" stroke="black" points="1069.92,-75.5001 1079.92,-72 1069.92,-68.5001 1069.92,-75.5001"/>
</g>
<!-- 1729289829536 -->
<g id="node6" class="node"><title>1729289829536</title>
<polygon fill="none" stroke="black" points="1224,-90 1170,-90 1170,-54 1224,-54 1224,-90"/>
<text text-anchor="middle" x="1197" y="-68.9" font-family="Times New Roman,serif" font-size="12.00">D</text>
</g>
<!-- 1729289829536&#45;&gt;1729289829632 -->
<g id="edge6" class="edge"><title>1729289829536&#45;&gt;1729289829632</title>
<path fill="none" stroke="black" d="M1224.4,-72C1232.39,-72 1241.31,-72 1249.82,-72"/>
<polygon fill="black" stroke="black" points="1249.92,-75.5001 1259.92,-72 1249.92,-68.5001 1249.92,-75.5001"/>
</g>
<!-- 1729289829152 -->
<g id="node7" class="node"><title>1729289829152</title>
<polygon fill="none" stroke="black" points="1584,-90 1530,-90 1530,-54 1584,-54 1584,-90"/>
<text text-anchor="middle" x="1557" y="-68.9" font-family="Times New Roman,serif" font-size="12.00">I</text>
</g>
<!-- 1729271288304 -->
<g id="node23" class="node"><title>1729271288304</title>
<ellipse fill="none" stroke="black" cx="1647" cy="-72" rx="27" ry="27"/>
</g>
<!-- 1729289829152&#45;&gt;1729271288304 -->
<g id="edge3" class="edge"><title>1729289829152&#45;&gt;1729271288304</title>
<path fill="none" stroke="black" d="M1584.4,-72C1592.39,-72 1601.31,-72 1609.82,-72"/>
<polygon fill="black" stroke="black" points="1609.92,-75.5001 1619.92,-72 1609.92,-68.5001 1609.92,-75.5001"/>
</g>
<!-- 1729271289312 -->
<g id="node8" class="node"><title>1729271289312</title>
<polygon fill="black" stroke="black" points="1764,-90 1710,-90 1710,-54 1764,-54 1764,-90"/>
</g>
<!-- 1729271289504 -->
<g id="node24" class="node"><title>1729271289504</title>
<ellipse fill="orange" stroke="black" cx="1827" cy="-72" rx="27" ry="27"/>
</g>
<!-- 1729271289312&#45;&gt;1729271289504 -->
<g id="edge22" class="edge"><title>1729271289312&#45;&gt;1729271289504</title>
<path fill="none" stroke="black" d="M1764.4,-72C1772.39,-72 1781.31,-72 1789.82,-72"/>
<polygon fill="black" stroke="black" points="1789.92,-75.5001 1799.92,-72 1789.92,-68.5001 1789.92,-75.5001"/>
</g>
<!-- 1729270442544 -->
<g id="node9" class="node"><title>1729270442544</title>
<polygon fill="none" stroke="black" points="504,-63 450,-63 450,-27 504,-27 504,-63"/>
<text text-anchor="middle" x="477" y="-41.9" font-family="Times New Roman,serif" font-size="12.00">A</text>
</g>
<!-- 1729270442544&#45;&gt;1729270442784 -->
<g id="edge4" class="edge"><title>1729270442544&#45;&gt;1729270442784</title>
<path fill="none" stroke="black" d="M504.403,-53.1009C512.79,-55.6741 522.197,-58.5606 531.088,-61.2883"/>
<polygon fill="black" stroke="black" points="530.236,-64.6881 540.823,-64.2753 532.29,-57.996 530.236,-64.6881"/>
</g>
<!-- 1729270442448 -->
<g id="node10" class="node"><title>1729270442448</title>
<polygon fill="none" stroke="black" points="864,-90 810,-90 810,-54 864,-54 864,-90"/>
<text text-anchor="middle" x="837" y="-68.9" font-family="Times New Roman,serif" font-size="12.00">G</text>
</g>
<!-- 1729271288112 -->
<g id="node21" class="node"><title>1729271288112</title>
<ellipse fill="none" stroke="black" cx="927" cy="-72" rx="27" ry="27"/>
</g>
<!-- 1729270442448&#45;&gt;1729271288112 -->
<g id="edge2" class="edge"><title>1729270442448&#45;&gt;1729271288112</title>
<path fill="none" stroke="black" d="M864.403,-72C872.393,-72 881.311,-72 889.824,-72"/>
<polygon fill="black" stroke="black" points="889.919,-75.5001 899.919,-72 889.919,-68.5001 889.919,-75.5001"/>
</g>
<!-- 1729289829392 -->
<g id="node11" class="node"><title>1729289829392</title>
<polygon fill="none" stroke="black" points="1224,-36 1170,-36 1170,-0 1224,-0 1224,-36"/>
<text text-anchor="middle" x="1197" y="-14.9" font-family="Times New Roman,serif" font-size="12.00">F</text>
</g>
<!-- 1729289829392&#45;&gt;1729289829632 -->
<g id="edge7" class="edge"><title>1729289829392&#45;&gt;1729289829632</title>
<path fill="none" stroke="black" d="M1224.4,-34.2018C1233.94,-40.053 1244.79,-46.7142 1254.71,-52.7977"/>
<polygon fill="black" stroke="black" points="1253.13,-55.9353 1263.48,-58.1824 1256.79,-49.969 1253.13,-55.9353"/>
</g>
<!-- 1729271287920 -->
<g id="node12" class="node"><title>1729271287920</title>
<polygon fill="black" stroke="black" points="1404,-90 1350,-90 1350,-54 1404,-54 1404,-90"/>
</g>
<!-- 1729271288208 -->
<g id="node22" class="node"><title>1729271288208</title>
<ellipse fill="none" stroke="black" cx="1467" cy="-72" rx="27" ry="27"/>
</g>
<!-- 1729271287920&#45;&gt;1729271288208 -->
<g id="edge26" class="edge"><title>1729271287920&#45;&gt;1729271288208</title>
<path fill="none" stroke="black" d="M1404.4,-72C1412.39,-72 1421.31,-72 1429.82,-72"/>
<polygon fill="black" stroke="black" points="1429.92,-75.5001 1439.92,-72 1429.92,-68.5001 1429.92,-75.5001"/>
</g>
<!-- 1729271289168 -->
<g id="node13" class="node"><title>1729271289168</title>
<polygon fill="black" stroke="black" points="144,-90 90,-90 90,-54 144,-54 144,-90"/>
</g>
<!-- 1729289829248 -->
<g id="node19" class="node"><title>1729289829248</title>
<ellipse fill="none" stroke="black" cx="207" cy="-72" rx="27" ry="27"/>
</g>
<!-- 1729271289168&#45;&gt;1729289829248 -->
<g id="edge21" class="edge"><title>1729271289168&#45;&gt;1729289829248</title>
<path fill="none" stroke="black" d="M144.403,-72C152.393,-72 161.311,-72 169.824,-72"/>
<polygon fill="black" stroke="black" points="169.919,-75.5001 179.919,-72 169.919,-68.5001 169.919,-75.5001"/>
</g>
<!-- 1729269177264 -->
<g id="node14" class="node"><title>1729269177264</title>
<ellipse fill="green" stroke="black" cx="27" cy="-72" rx="27" ry="27"/>
<text text-anchor="middle" x="27" y="-68.9" font-family="Times New Roman,serif" font-size="12.00">1</text>
</g>
<!-- 1729269177264&#45;&gt;1729271289168 -->
<g id="edge20" class="edge"><title>1729269177264&#45;&gt;1729271289168</title>
<path fill="none" stroke="black" d="M54.4029,-72C62.3932,-72 71.3106,-72 79.8241,-72"/>
<polygon fill="black" stroke="black" points="79.919,-75.5001 89.919,-72 79.919,-68.5001 79.919,-75.5001"/>
</g>
<!-- 1729270442400&#45;&gt;1729270442688 -->
<g id="edge8" class="edge"><title>1729270442400&#45;&gt;1729270442688</title>
<path fill="none" stroke="black" d="M412.982,-79.6649C421.415,-82.2524 431.003,-85.1941 440.111,-87.9885"/>
<polygon fill="black" stroke="black" points="439.141,-91.3519 449.727,-90.9391 441.194,-84.6598 439.141,-91.3519"/>
</g>
<!-- 1729270442400&#45;&gt;1729270442544 -->
<g id="edge9" class="edge"><title>1729270442400&#45;&gt;1729270442544</title>
<path fill="none" stroke="black" d="M412.982,-64.3351C421.415,-61.7476 431.003,-58.8059 440.111,-56.0115"/>
<polygon fill="black" stroke="black" points="441.194,-59.3402 449.727,-53.0609 439.141,-52.6481 441.194,-59.3402"/>
</g>
<!-- 1729270576608&#45;&gt;1729289829344 -->
<g id="edge10" class="edge"><title>1729270576608&#45;&gt;1729289829344</title>
<path fill="none" stroke="black" d="M1130.66,-85.9063C1139.96,-91.6104 1150.93,-98.3431 1161.2,-104.646"/>
<polygon fill="black" stroke="black" points="1159.63,-107.791 1169.99,-110.038 1163.3,-101.825 1159.63,-107.791"/>
</g>
<!-- 1729270576608&#45;&gt;1729289829536 -->
<g id="edge11" class="edge"><title>1729270576608&#45;&gt;1729289829536</title>
<path fill="none" stroke="black" d="M1134.4,-72C1142.39,-72 1151.31,-72 1159.82,-72"/>
<polygon fill="black" stroke="black" points="1159.92,-75.5001 1169.92,-72 1159.92,-68.5001 1159.92,-75.5001"/>
</g>
<!-- 1729270576608&#45;&gt;1729289829392 -->
<g id="edge12" class="edge"><title>1729270576608&#45;&gt;1729289829392</title>
<path fill="none" stroke="black" d="M1130.66,-58.0937C1139.96,-52.3896 1150.93,-45.6569 1161.2,-39.3538"/>
<polygon fill="black" stroke="black" points="1163.3,-42.1754 1169.99,-33.9621 1159.63,-36.2092 1163.3,-42.1754"/>
</g>
<!-- 1729270442784&#45;&gt;1729268725216 -->
<g id="edge13" class="edge"><title>1729270442784&#45;&gt;1729268725216</title>
<path fill="none" stroke="black" d="M594.403,-72C602.393,-72 611.311,-72 619.824,-72"/>
<polygon fill="black" stroke="black" points="619.919,-75.5001 629.919,-72 619.919,-68.5001 619.919,-75.5001"/>
</g>
<!-- 1729289829632&#45;&gt;1729271287920 -->
<g id="edge14" class="edge"><title>1729289829632&#45;&gt;1729271287920</title>
<path fill="none" stroke="black" d="M1314.4,-72C1322.39,-72 1331.31,-72 1339.82,-72"/>
<polygon fill="black" stroke="black" points="1339.92,-75.5001 1349.92,-72 1339.92,-68.5001 1339.92,-75.5001"/>
</g>
<!-- 1729289829248&#45;&gt;1729270442880 -->
<g id="edge15" class="edge"><title>1729289829248&#45;&gt;1729270442880</title>
<path fill="none" stroke="black" d="M234.403,-72C242.393,-72 251.311,-72 259.824,-72"/>
<polygon fill="black" stroke="black" points="259.919,-75.5001 269.919,-72 259.919,-68.5001 259.919,-75.5001"/>
</g>
<!-- 1729289829296&#45;&gt;1729270442448 -->
<g id="edge16" class="edge"><title>1729289829296&#45;&gt;1729270442448</title>
<path fill="none" stroke="black" d="M774.403,-72C782.393,-72 791.311,-72 799.824,-72"/>
<polygon fill="black" stroke="black" points="799.919,-75.5001 809.919,-72 799.919,-68.5001 799.919,-75.5001"/>
</g>
<!-- 1729271288112&#45;&gt;1729289829728 -->
<g id="edge17" class="edge"><title>1729271288112&#45;&gt;1729289829728</title>
<path fill="none" stroke="black" d="M954.403,-72C962.393,-72 971.311,-72 979.824,-72"/>
<polygon fill="black" stroke="black" points="979.919,-75.5001 989.919,-72 979.919,-68.5001 979.919,-75.5001"/>
</g>
<!-- 1729271288208&#45;&gt;1729289829152 -->
<g id="edge18" class="edge"><title>1729271288208&#45;&gt;1729289829152</title>
<path fill="none" stroke="black" d="M1494.4,-72C1502.39,-72 1511.31,-72 1519.82,-72"/>
<polygon fill="black" stroke="black" points="1519.92,-75.5001 1529.92,-72 1519.92,-68.5001 1519.92,-75.5001"/>
</g>
<!-- 1729271288304&#45;&gt;1729271289312 -->
<g id="edge19" class="edge"><title>1729271288304&#45;&gt;1729271289312</title>
<path fill="none" stroke="black" d="M1674.4,-72C1682.39,-72 1691.31,-72 1699.82,-72"/>
<polygon fill="black" stroke="black" points="1699.92,-75.5001 1709.92,-72 1699.92,-68.5001 1699.92,-75.5001"/>
</g>
</g>
</svg>
