<?xml version="1.0" encoding="UTF-8" standalone="no"?>
<!DOCTYPE svg PUBLIC "-//W3C//DTD SVG 1.1//EN"
 "http://www.w3.org/Graphics/SVG/1.1/DTD/svg11.dtd">
<!-- Generated by graphviz version 2.38.0 (20140413.2041)
 -->
<!-- Title: &#45;&gt;( X( &#39;A&#39;, &#39;B&#39; ), &#39;G&#39;, X( &#39;E&#39;, &#39;F&#39;, &#39;D&#39; ), &#39;I&#39; ) Pages: 1 -->
<svg width="1862pt" height="261pt"
 viewBox="0.00 0.00 1862.00 261.00" xmlns="http://www.w3.org/2000/svg" xmlns:xlink="http://www.w3.org/1999/xlink">
<g id="graph0" class="graph" transform="scale(1 1) rotate(0) translate(4 257)">
<title>&#45;&gt;( X( &#39;A&#39;, &#39;B&#39; ), &#39;G&#39;, X( &#39;E&#39;, &#39;F&#39;, &#39;D&#39; ), &#39;I&#39; )</title>
<!-- 2462846233856 -->
<g id="node1" class="node"><title>2462846233856</title>
<polygon fill="black" stroke="black" points="684,-115 630,-115 630,-79 684,-79 684,-115"/>
</g>
<!-- 2462846231504 -->
<g id="node23" class="node"><title>2462846231504</title>
<ellipse fill="none" stroke="black" cx="747" cy="-93" rx="27" ry="27"/>
</g>
<!-- 2462846233856&#45;&gt;2462846231504 -->
<g id="edge32" class="edge"><title>2462846233856&#45;&gt;2462846231504</title>
<path fill="none" stroke="black" d="M684.403,-95.7999C692.393,-95.4367 701.311,-95.0313 709.824,-94.6444"/>
<polygon fill="black" stroke="black" points="710.088,-98.1361 719.919,-94.1855 709.77,-91.1433 710.088,-98.1361"/>
</g>
<!-- 2462846150400 -->
<g id="node2" class="node"><title>2462846150400</title>
<polygon fill="black" stroke="black" points="1764,-127 1710,-127 1710,-91 1764,-91 1764,-127"/>
</g>
<!-- 2462846150064 -->
<g id="node32" class="node"><title>2462846150064</title>
<ellipse fill="orange" stroke="black" cx="1827" cy="-109" rx="27" ry="27"/>
</g>
<!-- 2462846150400&#45;&gt;2462846150064 -->
<g id="edge30" class="edge"><title>2462846150400&#45;&gt;2462846150064</title>
<path fill="none" stroke="black" d="M1764.4,-109C1772.39,-109 1781.31,-109 1789.82,-109"/>
<polygon fill="black" stroke="black" points="1789.92,-112.5 1799.92,-109 1789.92,-105.5 1789.92,-112.5"/>
</g>
<!-- 2462845823488 -->
<g id="node3" class="node"><title>2462845823488</title>
<polygon fill="black" stroke="black" points="1044,-235 990,-235 990,-199 1044,-199 1044,-235"/>
</g>
<!-- 2462846406272 -->
<g id="node29" class="node"><title>2462846406272</title>
<ellipse fill="none" stroke="black" cx="1107" cy="-226" rx="27" ry="27"/>
</g>
<!-- 2462845823488&#45;&gt;2462846406272 -->
<g id="edge36" class="edge"><title>2462845823488&#45;&gt;2462846406272</title>
<path fill="none" stroke="black" d="M1044.4,-219.7C1052.39,-220.517 1061.31,-221.429 1069.82,-222.3"/>
<polygon fill="black" stroke="black" points="1069.61,-225.797 1079.92,-223.333 1070.33,-218.833 1069.61,-225.797"/>
</g>
<!-- 2462845824400 -->
<g id="node4" class="node"><title>2462845824400</title>
<polygon fill="black" stroke="black" points="1044,-172 990,-172 990,-136 1044,-136 1044,-172"/>
</g>
<!-- 2462846404928 -->
<g id="node31" class="node"><title>2462846404928</title>
<ellipse fill="none" stroke="black" cx="1107" cy="-154" rx="27" ry="27"/>
</g>
<!-- 2462845824400&#45;&gt;2462846404928 -->
<g id="edge37" class="edge"><title>2462845824400&#45;&gt;2462846404928</title>
<path fill="none" stroke="black" d="M1044.4,-154C1052.39,-154 1061.31,-154 1069.82,-154"/>
<polygon fill="black" stroke="black" points="1069.92,-157.5 1079.92,-154 1069.92,-150.5 1069.92,-157.5"/>
</g>
<!-- 2462846233376 -->
<g id="node5" class="node"><title>2462846233376</title>
<polygon fill="none" stroke="black" points="1584,-127 1530,-127 1530,-91 1584,-91 1584,-127"/>
<text text-anchor="middle" x="1557" y="-105.9" font-family="Times New Roman,serif" font-size="12.00">I</text>
</g>
<!-- 2462846231792 -->
<g id="node26" class="node"><title>2462846231792</title>
<ellipse fill="none" stroke="black" cx="1647" cy="-109" rx="27" ry="27"/>
</g>
<!-- 2462846233376&#45;&gt;2462846231792 -->
<g id="edge6" class="edge"><title>2462846233376&#45;&gt;2462846231792</title>
<path fill="none" stroke="black" d="M1584.4,-109C1592.39,-109 1601.31,-109 1609.82,-109"/>
<polygon fill="black" stroke="black" points="1609.92,-112.5 1619.92,-109 1609.92,-105.5 1609.92,-112.5"/>
</g>
<!-- 2462846231360 -->
<g id="node6" class="node"><title>2462846231360</title>
<polygon fill="none" stroke="black" points="864,-109 810,-109 810,-73 864,-73 864,-109"/>
<text text-anchor="middle" x="837" y="-87.9" font-family="Times New Roman,serif" font-size="12.00">G</text>
</g>
<!-- 2462846231888 -->
<g id="node24" class="node"><title>2462846231888</title>
<ellipse fill="none" stroke="black" cx="927" cy="-82" rx="27" ry="27"/>
</g>
<!-- 2462846231360&#45;&gt;2462846231888 -->
<g id="edge1" class="edge"><title>2462846231360&#45;&gt;2462846231888</title>
<path fill="none" stroke="black" d="M864.403,-88.2997C872.393,-87.4825 881.311,-86.5705 889.824,-85.6998"/>
<polygon fill="black" stroke="black" points="890.327,-89.1667 899.919,-84.6674 889.615,-82.203 890.327,-89.1667"/>
</g>
<!-- 2462846232512 -->
<g id="node7" class="node"><title>2462846232512</title>
<polygon fill="none" stroke="black" points="1224,-181 1170,-181 1170,-145 1224,-145 1224,-181"/>
<text text-anchor="middle" x="1197" y="-159.9" font-family="Times New Roman,serif" font-size="12.00">D</text>
</g>
<!-- 2462846234096 -->
<g id="node20" class="node"><title>2462846234096</title>
<ellipse fill="none" stroke="black" cx="1287" cy="-109" rx="27" ry="27"/>
</g>
<!-- 2462846232512&#45;&gt;2462846234096 -->
<g id="edge9" class="edge"><title>2462846232512&#45;&gt;2462846234096</title>
<path fill="none" stroke="black" d="M1224.4,-146.798C1233.94,-140.947 1244.79,-134.286 1254.71,-128.202"/>
<polygon fill="black" stroke="black" points="1256.79,-131.031 1263.48,-122.818 1253.13,-125.065 1256.79,-131.031"/>
</g>
<!-- 2462846232272 -->
<g id="node8" class="node"><title>2462846232272</title>
<polygon fill="none" stroke="black" points="1224,-127 1170,-127 1170,-91 1224,-91 1224,-127"/>
<text text-anchor="middle" x="1197" y="-105.9" font-family="Times New Roman,serif" font-size="12.00">F</text>
</g>
<!-- 2462846232272&#45;&gt;2462846234096 -->
<g id="edge7" class="edge"><title>2462846232272&#45;&gt;2462846234096</title>
<path fill="none" stroke="black" d="M1224.4,-109C1232.39,-109 1241.31,-109 1249.82,-109"/>
<polygon fill="black" stroke="black" points="1249.92,-112.5 1259.92,-109 1249.92,-105.5 1249.92,-112.5"/>
</g>
<!-- 2462844786384 -->
<g id="node9" class="node"><title>2462844786384</title>
<polygon fill="black" stroke="black" points="684,-45 630,-45 630,-9 684,-9 684,-45"/>
</g>
<!-- 2462846149536 -->
<g id="node30" class="node"><title>2462846149536</title>
<ellipse fill="none" stroke="black" cx="837" cy="-27" rx="27" ry="27"/>
</g>
<!-- 2462844786384&#45;&gt;2462846149536 -->
<g id="edge35" class="edge"><title>2462844786384&#45;&gt;2462846149536</title>
<path fill="none" stroke="black" d="M684.265,-27C714.851,-27 765.551,-27 799.843,-27"/>
<polygon fill="black" stroke="black" points="799.918,-30.5001 809.918,-27 799.918,-23.5001 799.918,-30.5001"/>
</g>
<!-- 2462846231264 -->
<g id="node10" class="node"><title>2462846231264</title>
<polygon fill="none" stroke="black" points="504,-90 450,-90 450,-54 504,-54 504,-90"/>
<text text-anchor="middle" x="477" y="-68.9" font-family="Times New Roman,serif" font-size="12.00">A</text>
</g>
<!-- 2462846232752 -->
<g id="node21" class="node"><title>2462846232752</title>
<ellipse fill="none" stroke="black" cx="567" cy="-99" rx="27" ry="27"/>
</g>
<!-- 2462846231264&#45;&gt;2462846232752 -->
<g id="edge4" class="edge"><title>2462846231264&#45;&gt;2462846232752</title>
<path fill="none" stroke="black" d="M504.403,-80.1009C512.79,-82.6741 522.197,-85.5606 531.088,-88.2883"/>
<polygon fill="black" stroke="black" points="530.236,-91.6881 540.823,-91.2753 532.29,-84.996 530.236,-91.6881"/>
</g>
<!-- 2462846234384 -->
<g id="node27" class="node"><title>2462846234384</title>
<ellipse fill="none" stroke="black" cx="567" cy="-27" rx="27" ry="27"/>
</g>
<!-- 2462846231264&#45;&gt;2462846234384 -->
<g id="edge5" class="edge"><title>2462846231264&#45;&gt;2462846234384</title>
<path fill="none" stroke="black" d="M504.403,-58.4985C513.611,-53.79 524.049,-48.452 533.683,-43.5259"/>
<polygon fill="black" stroke="black" points="535.295,-46.6323 542.605,-38.9632 532.108,-40.3999 535.295,-46.6323"/>
</g>
<!-- 2462846234336 -->
<g id="node11" class="node"><title>2462846234336</title>
<polygon fill="none" stroke="black" points="1224,-73 1170,-73 1170,-37 1224,-37 1224,-73"/>
<text text-anchor="middle" x="1197" y="-51.9" font-family="Times New Roman,serif" font-size="12.00">E</text>
</g>
<!-- 2462846234336&#45;&gt;2462846234096 -->
<g id="edge8" class="edge"><title>2462846234336&#45;&gt;2462846234096</title>
<path fill="none" stroke="black" d="M1224.4,-71.2018C1233.94,-77.053 1244.79,-83.7142 1254.71,-89.7977"/>
<polygon fill="black" stroke="black" points="1253.13,-92.9353 1263.48,-95.1824 1256.79,-86.969 1253.13,-92.9353"/>
</g>
<!-- 2462846232800 -->
<g id="node12" class="node"><title>2462846232800</title>
<polygon fill="black" stroke="black" points="1404,-127 1350,-127 1350,-91 1404,-91 1404,-127"/>
</g>
<!-- 2462846231408 -->
<g id="node25" class="node"><title>2462846231408</title>
<ellipse fill="none" stroke="black" cx="1467" cy="-109" rx="27" ry="27"/>
</g>
<!-- 2462846232800&#45;&gt;2462846231408 -->
<g id="edge34" class="edge"><title>2462846232800&#45;&gt;2462846231408</title>
<path fill="none" stroke="black" d="M1404.4,-109C1412.39,-109 1421.31,-109 1429.82,-109"/>
<polygon fill="black" stroke="black" points="1429.92,-112.5 1439.92,-109 1429.92,-105.5 1429.92,-112.5"/>
</g>
<!-- 2462846149728 -->
<g id="node13" class="node"><title>2462846149728</title>
<polygon fill="black" stroke="black" points="144,-117 90,-117 90,-81 144,-81 144,-117"/>
</g>
<!-- 2462846232224 -->
<g id="node22" class="node"><title>2462846232224</title>
<ellipse fill="none" stroke="black" cx="207" cy="-99" rx="27" ry="27"/>
</g>
<!-- 2462846149728&#45;&gt;2462846232224 -->
<g id="edge29" class="edge"><title>2462846149728&#45;&gt;2462846232224</title>
<path fill="none" stroke="black" d="M144.403,-99C152.393,-99 161.311,-99 169.824,-99"/>
<polygon fill="black" stroke="black" points="169.919,-102.5 179.919,-99 169.919,-95.5001 169.919,-102.5"/>
</g>
<!-- 2462846232944 -->
<g id="node14" class="node"><title>2462846232944</title>
<polygon fill="none" stroke="black" points="504,-144 450,-144 450,-108 504,-108 504,-144"/>
<text text-anchor="middle" x="477" y="-122.9" font-family="Times New Roman,serif" font-size="12.00">B</text>
</g>
<!-- 2462846232944&#45;&gt;2462846232752 -->
<g id="edge2" class="edge"><title>2462846232944&#45;&gt;2462846232752</title>
<path fill="none" stroke="black" d="M504.403,-117.899C512.79,-115.326 522.197,-112.439 531.088,-109.712"/>
<polygon fill="black" stroke="black" points="532.29,-113.004 540.823,-106.725 530.236,-106.312 532.29,-113.004"/>
</g>
<!-- 2462845822960 -->
<g id="node28" class="node"><title>2462845822960</title>
<ellipse fill="none" stroke="black" cx="927" cy="-154" rx="27" ry="27"/>
</g>
<!-- 2462846232944&#45;&gt;2462845822960 -->
<g id="edge3" class="edge"><title>2462846232944&#45;&gt;2462845822960</title>
<path fill="none" stroke="black" d="M504.037,-132.707C538.538,-140.99 601.412,-154 656,-154 656,-154 656,-154 748,-154 797.08,-154 853.773,-154 889.742,-154"/>
<polygon fill="black" stroke="black" points="889.761,-157.5 899.761,-154 889.761,-150.5 889.761,-157.5"/>
</g>
<!-- 2462846233712 -->
<g id="node15" class="node"><title>2462846233712</title>
<polygon fill="black" stroke="black" points="324,-117 270,-117 270,-81 324,-81 324,-117"/>
</g>
<!-- 2462846233232 -->
<g id="node19" class="node"><title>2462846233232</title>
<ellipse fill="none" stroke="black" cx="387" cy="-99" rx="27" ry="27"/>
</g>
<!-- 2462846233712&#45;&gt;2462846233232 -->
<g id="edge31" class="edge"><title>2462846233712&#45;&gt;2462846233232</title>
<path fill="none" stroke="black" d="M324.403,-99C332.393,-99 341.311,-99 349.824,-99"/>
<polygon fill="black" stroke="black" points="349.919,-102.5 359.919,-99 349.919,-95.5001 349.919,-102.5"/>
</g>
<!-- 2462846232176 -->
<g id="node16" class="node"><title>2462846232176</title>
<polygon fill="black" stroke="black" points="1044,-100 990,-100 990,-64 1044,-64 1044,-100"/>
</g>
<!-- 2462846233328 -->
<g id="node18" class="node"><title>2462846233328</title>
<ellipse fill="none" stroke="black" cx="1107" cy="-82" rx="27" ry="27"/>
</g>
<!-- 2462846232176&#45;&gt;2462846233328 -->
<g id="edge33" class="edge"><title>2462846232176&#45;&gt;2462846233328</title>
<path fill="none" stroke="black" d="M1044.4,-82C1052.39,-82 1061.31,-82 1069.82,-82"/>
<polygon fill="black" stroke="black" points="1069.92,-85.5001 1079.92,-82 1069.92,-78.5001 1069.92,-85.5001"/>
</g>
<!-- 2462846234288 -->
<g id="node17" class="node"><title>2462846234288</title>
<ellipse fill="green" stroke="black" cx="27" cy="-99" rx="27" ry="27"/>
<text text-anchor="middle" x="27" y="-95.9" font-family="Times New Roman,serif" font-size="12.00">1</text>
</g>
<!-- 2462846234288&#45;&gt;2462846149728 -->
<g id="edge22" class="edge"><title>2462846234288&#45;&gt;2462846149728</title>
<path fill="none" stroke="black" d="M54.4029,-99C62.3932,-99 71.3106,-99 79.8241,-99"/>
<polygon fill="black" stroke="black" points="79.919,-102.5 89.919,-99 79.919,-95.5001 79.919,-102.5"/>
</g>
<!-- 2462846233328&#45;&gt;2462846232512 -->
<g id="edge12" class="edge"><title>2462846233328&#45;&gt;2462846232512</title>
<path fill="none" stroke="black" d="M1127.53,-99.9765C1139.64,-111.119 1155.37,-125.598 1168.69,-137.867"/>
<polygon fill="black" stroke="black" points="1166.49,-140.596 1176.22,-144.794 1171.23,-135.446 1166.49,-140.596"/>
</g>
<!-- 2462846233328&#45;&gt;2462846232272 -->
<g id="edge10" class="edge"><title>2462846233328&#45;&gt;2462846232272</title>
<path fill="none" stroke="black" d="M1132.98,-89.6649C1141.42,-92.2524 1151,-95.1941 1160.11,-97.9885"/>
<polygon fill="black" stroke="black" points="1159.14,-101.352 1169.73,-100.939 1161.19,-94.6598 1159.14,-101.352"/>
</g>
<!-- 2462846233328&#45;&gt;2462846234336 -->
<g id="edge11" class="edge"><title>2462846233328&#45;&gt;2462846234336</title>
<path fill="none" stroke="black" d="M1132.98,-74.3351C1141.42,-71.7476 1151,-68.8059 1160.11,-66.0115"/>
<polygon fill="black" stroke="black" points="1161.19,-69.3402 1169.73,-63.0609 1159.14,-62.6481 1161.19,-69.3402"/>
</g>
<!-- 2462846233232&#45;&gt;2462846231264 -->
<g id="edge14" class="edge"><title>2462846233232&#45;&gt;2462846231264</title>
<path fill="none" stroke="black" d="M412.982,-91.3351C421.415,-88.7476 431.003,-85.8059 440.111,-83.0115"/>
<polygon fill="black" stroke="black" points="441.194,-86.3402 449.727,-80.0609 439.141,-79.6481 441.194,-86.3402"/>
</g>
<!-- 2462846233232&#45;&gt;2462846232944 -->
<g id="edge13" class="edge"><title>2462846233232&#45;&gt;2462846232944</title>
<path fill="none" stroke="black" d="M412.982,-106.665C421.415,-109.252 431.003,-112.194 440.111,-114.989"/>
<polygon fill="black" stroke="black" points="439.141,-118.352 449.727,-117.939 441.194,-111.66 439.141,-118.352"/>
</g>
<!-- 2462846234096&#45;&gt;2462846232800 -->
<g id="edge15" class="edge"><title>2462846234096&#45;&gt;2462846232800</title>
<path fill="none" stroke="black" d="M1314.4,-109C1322.39,-109 1331.31,-109 1339.82,-109"/>
<polygon fill="black" stroke="black" points="1339.92,-112.5 1349.92,-109 1339.92,-105.5 1339.92,-112.5"/>
</g>
<!-- 2462846232752&#45;&gt;2462846233856 -->
<g id="edge16" class="edge"><title>2462846232752&#45;&gt;2462846233856</title>
<path fill="none" stroke="black" d="M594.403,-98.3999C602.393,-98.2183 611.311,-98.0157 619.824,-97.8222"/>
<polygon fill="black" stroke="black" points="620.001,-101.319 629.919,-97.5928 619.842,-94.321 620.001,-101.319"/>
</g>
<!-- 2462846232224&#45;&gt;2462846233712 -->
<g id="edge17" class="edge"><title>2462846232224&#45;&gt;2462846233712</title>
<path fill="none" stroke="black" d="M234.403,-99C242.393,-99 251.311,-99 259.824,-99"/>
<polygon fill="black" stroke="black" points="259.919,-102.5 269.919,-99 259.919,-95.5001 259.919,-102.5"/>
</g>
<!-- 2462846231504&#45;&gt;2462846231360 -->
<g id="edge18" class="edge"><title>2462846231504&#45;&gt;2462846231360</title>
<path fill="none" stroke="black" d="M774.403,-92.3999C782.393,-92.2183 791.311,-92.0157 799.824,-91.8222"/>
<polygon fill="black" stroke="black" points="800.001,-95.3192 809.919,-91.5928 799.842,-88.321 800.001,-95.3192"/>
</g>
<!-- 2462846231888&#45;&gt;2462846232176 -->
<g id="edge19" class="edge"><title>2462846231888&#45;&gt;2462846232176</title>
<path fill="none" stroke="black" d="M954.403,-82C962.393,-82 971.311,-82 979.824,-82"/>
<polygon fill="black" stroke="black" points="979.919,-85.5001 989.919,-82 979.919,-78.5001 979.919,-85.5001"/>
</g>
<!-- 2462846231408&#45;&gt;2462846233376 -->
<g id="edge20" class="edge"><title>2462846231408&#45;&gt;2462846233376</title>
<path fill="none" stroke="black" d="M1494.4,-109C1502.39,-109 1511.31,-109 1519.82,-109"/>
<polygon fill="black" stroke="black" points="1519.92,-112.5 1529.92,-109 1519.92,-105.5 1519.92,-112.5"/>
</g>
<!-- 2462846231792&#45;&gt;2462846150400 -->
<g id="edge21" class="edge"><title>2462846231792&#45;&gt;2462846150400</title>
<path fill="none" stroke="black" d="M1674.4,-109C1682.39,-109 1691.31,-109 1699.82,-109"/>
<polygon fill="black" stroke="black" points="1699.92,-112.5 1709.92,-109 1699.92,-105.5 1699.92,-112.5"/>
</g>
<!-- 2462846234384&#45;&gt;2462844786384 -->
<g id="edge23" class="edge"><title>2462846234384&#45;&gt;2462844786384</title>
<path fill="none" stroke="black" d="M594.403,-27C602.393,-27 611.311,-27 619.824,-27"/>
<polygon fill="black" stroke="black" points="619.919,-30.5001 629.919,-27 619.919,-23.5001 619.919,-30.5001"/>
</g>
<!-- 2462845822960&#45;&gt;2462845823488 -->
<g id="edge24" class="edge"><title>2462845822960&#45;&gt;2462845823488</title>
<path fill="none" stroke="black" d="M949.302,-169.251C959.274,-176.389 971.387,-185.061 982.54,-193.046"/>
<polygon fill="black" stroke="black" points="980.662,-196.006 990.831,-198.981 984.737,-190.314 980.662,-196.006"/>
</g>
<!-- 2462845822960&#45;&gt;2462845824400 -->
<g id="edge25" class="edge"><title>2462845822960&#45;&gt;2462845824400</title>
<path fill="none" stroke="black" d="M954.403,-154C962.393,-154 971.311,-154 979.824,-154"/>
<polygon fill="black" stroke="black" points="979.919,-157.5 989.919,-154 979.919,-150.5 979.919,-157.5"/>
</g>
<!-- 2462846406272&#45;&gt;2462846232512 -->
<g id="edge26" class="edge"><title>2462846406272&#45;&gt;2462846232512</title>
<path fill="none" stroke="black" d="M1129.3,-210.749C1139.27,-203.611 1151.39,-194.939 1162.54,-186.954"/>
<polygon fill="black" stroke="black" points="1164.74,-189.686 1170.83,-181.019 1160.66,-183.994 1164.74,-189.686"/>
</g>
<!-- 2462846149536&#45;&gt;2462846234336 -->
<g id="edge27" class="edge"><title>2462846149536&#45;&gt;2462846234336</title>
<path fill="none" stroke="black" d="M864.192,-27.9764C915.886,-30.0592 1034.64,-35.6165 1134,-46 1142.38,-46.8761 1151.37,-48.0464 1159.83,-49.2526"/>
<polygon fill="black" stroke="black" points="1159.41,-52.728 1169.81,-50.7243 1160.43,-45.8029 1159.41,-52.728"/>
</g>
<!-- 2462846404928&#45;&gt;2462846232272 -->
<g id="edge28" class="edge"><title>2462846404928&#45;&gt;2462846232272</title>
<path fill="none" stroke="black" d="M1131.58,-141.941C1140.53,-137.364 1150.93,-132.046 1160.73,-127.036"/>
<polygon fill="black" stroke="black" points="1162.56,-130.03 1169.87,-122.361 1159.38,-123.797 1162.56,-130.03"/>
</g>
</g>
</svg>
