<?xml version="1.0" encoding="UTF-8" standalone="no"?>
<!DOCTYPE svg PUBLIC "-//W3C//DTD SVG 1.1//EN"
 "http://www.w3.org/Graphics/SVG/1.1/DTD/svg11.dtd">
<!-- Generated by graphviz version 2.38.0 (20140413.2041)
 -->
<!-- Title: &#45;&gt;( X( &#39;A&#39;, &#39;B&#39; ), &#39;C&#39;, X( &#39;E&#39;, &#39;D&#39; ) ) Pages: 1 -->
<svg width="1682pt" height="98pt"
 viewBox="0.00 0.00 1682.00 98.00" xmlns="http://www.w3.org/2000/svg" xmlns:xlink="http://www.w3.org/1999/xlink">
<g id="graph0" class="graph" transform="scale(1 1) rotate(0) translate(4 94)">
<title>&#45;&gt;( X( &#39;A&#39;, &#39;B&#39; ), &#39;C&#39;, X( &#39;E&#39;, &#39;D&#39; ) )</title>
<!-- 1615652925056 -->
<g id="node1" class="node"><title>1615652925056</title>
<polygon fill="black" stroke="black" points="324,-63 270,-63 270,-27 324,-27 324,-63"/>
</g>
<!-- 1615653024288 -->
<g id="node14" class="node"><title>1615653024288</title>
<ellipse fill="none" stroke="black" cx="387" cy="-45" rx="27" ry="27"/>
</g>
<!-- 1615652925056&#45;&gt;1615653024288 -->
<g id="edge19" class="edge"><title>1615652925056&#45;&gt;1615653024288</title>
<path fill="none" stroke="black" d="M324.403,-45C332.393,-45 341.311,-45 349.824,-45"/>
<polygon fill="black" stroke="black" points="349.919,-48.5001 359.919,-45 349.919,-41.5001 349.919,-48.5001"/>
</g>
<!-- 1615652923808 -->
<g id="node2" class="node"><title>1615652923808</title>
<polygon fill="none" stroke="black" points="864,-63 810,-63 810,-27 864,-27 864,-63"/>
<text text-anchor="middle" x="837" y="-41.9" font-family="Times New Roman,serif" font-size="12.00">C</text>
</g>
<!-- 1615653024528 -->
<g id="node19" class="node"><title>1615653024528</title>
<ellipse fill="none" stroke="black" cx="927" cy="-45" rx="27" ry="27"/>
</g>
<!-- 1615652923808&#45;&gt;1615653024528 -->
<g id="edge1" class="edge"><title>1615652923808&#45;&gt;1615653024528</title>
<path fill="none" stroke="black" d="M864.403,-45C872.393,-45 881.311,-45 889.824,-45"/>
<polygon fill="black" stroke="black" points="889.919,-48.5001 899.919,-45 889.919,-41.5001 889.919,-48.5001"/>
</g>
<!-- 1615653024768 -->
<g id="node3" class="node"><title>1615653024768</title>
<polygon fill="black" stroke="black" points="1044,-63 990,-63 990,-27 1044,-27 1044,-63"/>
</g>
<!-- 1615652923328 -->
<g id="node13" class="node"><title>1615652923328</title>
<ellipse fill="none" stroke="black" cx="1107" cy="-45" rx="27" ry="27"/>
</g>
<!-- 1615653024768&#45;&gt;1615652923328 -->
<g id="edge18" class="edge"><title>1615653024768&#45;&gt;1615652923328</title>
<path fill="none" stroke="black" d="M1044.4,-45C1052.39,-45 1061.31,-45 1069.82,-45"/>
<polygon fill="black" stroke="black" points="1069.92,-48.5001 1079.92,-45 1069.92,-41.5001 1069.92,-48.5001"/>
</g>
<!-- 1615653024576 -->
<g id="node4" class="node"><title>1615653024576</title>
<polygon fill="none" stroke="black" points="1224,-90 1170,-90 1170,-54 1224,-54 1224,-90"/>
<text text-anchor="middle" x="1197" y="-68.9" font-family="Times New Roman,serif" font-size="12.00">D</text>
</g>
<!-- 1615653023808 -->
<g id="node15" class="node"><title>1615653023808</title>
<ellipse fill="none" stroke="black" cx="1287" cy="-45" rx="27" ry="27"/>
</g>
<!-- 1615653024576&#45;&gt;1615653023808 -->
<g id="edge4" class="edge"><title>1615653024576&#45;&gt;1615653023808</title>
<path fill="none" stroke="black" d="M1224.4,-63.8991C1232.79,-61.3259 1242.2,-58.4394 1251.09,-55.7117"/>
<polygon fill="black" stroke="black" points="1252.29,-59.004 1260.82,-52.7247 1250.24,-52.3119 1252.29,-59.004"/>
</g>
<!-- 1615653025344 -->
<g id="node5" class="node"><title>1615653025344</title>
<polygon fill="black" stroke="black" points="1404,-63 1350,-63 1350,-27 1404,-27 1404,-63"/>
</g>
<!-- 1615653025584 -->
<g id="node20" class="node"><title>1615653025584</title>
<ellipse fill="none" stroke="black" cx="1467" cy="-45" rx="27" ry="27"/>
</g>
<!-- 1615653025344&#45;&gt;1615653025584 -->
<g id="edge20" class="edge"><title>1615653025344&#45;&gt;1615653025584</title>
<path fill="none" stroke="black" d="M1404.4,-45C1412.39,-45 1421.31,-45 1429.82,-45"/>
<polygon fill="black" stroke="black" points="1429.92,-48.5001 1439.92,-45 1429.92,-41.5001 1429.92,-48.5001"/>
</g>
<!-- 1615653024432 -->
<g id="node6" class="node"><title>1615653024432</title>
<polygon fill="none" stroke="black" points="504,-90 450,-90 450,-54 504,-54 504,-90"/>
<text text-anchor="middle" x="477" y="-68.9" font-family="Times New Roman,serif" font-size="12.00">A</text>
</g>
<!-- 1615652708208 -->
<g id="node16" class="node"><title>1615652708208</title>
<ellipse fill="none" stroke="black" cx="567" cy="-45" rx="27" ry="27"/>
</g>
<!-- 1615653024432&#45;&gt;1615652708208 -->
<g id="edge2" class="edge"><title>1615653024432&#45;&gt;1615652708208</title>
<path fill="none" stroke="black" d="M504.403,-63.8991C512.79,-61.3259 522.197,-58.4394 531.088,-55.7117"/>
<polygon fill="black" stroke="black" points="532.29,-59.004 540.823,-52.7247 530.236,-52.3119 532.29,-59.004"/>
</g>
<!-- 1615653024624 -->
<g id="node7" class="node"><title>1615653024624</title>
<polygon fill="none" stroke="black" points="504,-36 450,-36 450,-0 504,-0 504,-36"/>
<text text-anchor="middle" x="477" y="-14.9" font-family="Times New Roman,serif" font-size="12.00">B</text>
</g>
<!-- 1615653024624&#45;&gt;1615652708208 -->
<g id="edge3" class="edge"><title>1615653024624&#45;&gt;1615652708208</title>
<path fill="none" stroke="black" d="M504.403,-26.1009C512.79,-28.6741 522.197,-31.5606 531.088,-34.2883"/>
<polygon fill="black" stroke="black" points="530.236,-37.6881 540.823,-37.2753 532.29,-30.996 530.236,-37.6881"/>
</g>
<!-- 1615652924624 -->
<g id="node8" class="node"><title>1615652924624</title>
<polygon fill="black" stroke="black" points="684,-63 630,-63 630,-27 684,-27 684,-63"/>
</g>
<!-- 1615652923424 -->
<g id="node18" class="node"><title>1615652923424</title>
<ellipse fill="none" stroke="black" cx="747" cy="-45" rx="27" ry="27"/>
</g>
<!-- 1615652924624&#45;&gt;1615652923424 -->
<g id="edge21" class="edge"><title>1615652924624&#45;&gt;1615652923424</title>
<path fill="none" stroke="black" d="M684.403,-45C692.393,-45 701.311,-45 709.824,-45"/>
<polygon fill="black" stroke="black" points="709.919,-48.5001 719.919,-45 709.919,-41.5001 709.919,-48.5001"/>
</g>
<!-- 1615652922800 -->
<g id="node9" class="node"><title>1615652922800</title>
<polygon fill="none" stroke="black" points="1224,-36 1170,-36 1170,-0 1224,-0 1224,-36"/>
<text text-anchor="middle" x="1197" y="-14.9" font-family="Times New Roman,serif" font-size="12.00">E</text>
</g>
<!-- 1615652922800&#45;&gt;1615653023808 -->
<g id="edge5" class="edge"><title>1615652922800&#45;&gt;1615653023808</title>
<path fill="none" stroke="black" d="M1224.4,-26.1009C1232.79,-28.6741 1242.2,-31.5606 1251.09,-34.2883"/>
<polygon fill="black" stroke="black" points="1250.24,-37.6881 1260.82,-37.2753 1252.29,-30.996 1250.24,-37.6881"/>
</g>
<!-- 1615653026256 -->
<g id="node10" class="node"><title>1615653026256</title>
<polygon fill="black" stroke="black" points="144,-63 90,-63 90,-27 144,-27 144,-63"/>
</g>
<!-- 1615652923232 -->
<g id="node17" class="node"><title>1615652923232</title>
<ellipse fill="none" stroke="black" cx="207" cy="-45" rx="27" ry="27"/>
</g>
<!-- 1615653026256&#45;&gt;1615652923232 -->
<g id="edge22" class="edge"><title>1615653026256&#45;&gt;1615652923232</title>
<path fill="none" stroke="black" d="M144.403,-45C152.393,-45 161.311,-45 169.824,-45"/>
<polygon fill="black" stroke="black" points="169.919,-48.5001 179.919,-45 169.919,-41.5001 169.919,-48.5001"/>
</g>
<!-- 1615653026448 -->
<g id="node11" class="node"><title>1615653026448</title>
<polygon fill="black" stroke="black" points="1584,-63 1530,-63 1530,-27 1584,-27 1584,-63"/>
</g>
<!-- 1615653026736 -->
<g id="node21" class="node"><title>1615653026736</title>
<ellipse fill="orange" stroke="black" cx="1647" cy="-45" rx="27" ry="27"/>
</g>
<!-- 1615653026448&#45;&gt;1615653026736 -->
<g id="edge17" class="edge"><title>1615653026448&#45;&gt;1615653026736</title>
<path fill="none" stroke="black" d="M1584.4,-45C1592.39,-45 1601.31,-45 1609.82,-45"/>
<polygon fill="black" stroke="black" points="1609.92,-48.5001 1619.92,-45 1609.92,-41.5001 1609.92,-48.5001"/>
</g>
<!-- 1615653026640 -->
<g id="node12" class="node"><title>1615653026640</title>
<ellipse fill="green" stroke="black" cx="27" cy="-45" rx="27" ry="27"/>
<text text-anchor="middle" x="27" y="-41.9" font-family="Times New Roman,serif" font-size="12.00">1</text>
</g>
<!-- 1615653026640&#45;&gt;1615653026256 -->
<g id="edge16" class="edge"><title>1615653026640&#45;&gt;1615653026256</title>
<path fill="none" stroke="black" d="M54.4029,-45C62.3932,-45 71.3106,-45 79.8241,-45"/>
<polygon fill="black" stroke="black" points="79.919,-48.5001 89.919,-45 79.919,-41.5001 79.919,-48.5001"/>
</g>
<!-- 1615652923328&#45;&gt;1615653024576 -->
<g id="edge6" class="edge"><title>1615652923328&#45;&gt;1615653024576</title>
<path fill="none" stroke="black" d="M1132.98,-52.6649C1141.42,-55.2524 1151,-58.1941 1160.11,-60.9885"/>
<polygon fill="black" stroke="black" points="1159.14,-64.3519 1169.73,-63.9391 1161.19,-57.6598 1159.14,-64.3519"/>
</g>
<!-- 1615652923328&#45;&gt;1615652922800 -->
<g id="edge7" class="edge"><title>1615652923328&#45;&gt;1615652922800</title>
<path fill="none" stroke="black" d="M1132.98,-37.3351C1141.42,-34.7476 1151,-31.8059 1160.11,-29.0115"/>
<polygon fill="black" stroke="black" points="1161.19,-32.3402 1169.73,-26.0609 1159.14,-25.6481 1161.19,-32.3402"/>
</g>
<!-- 1615653024288&#45;&gt;1615653024432 -->
<g id="edge8" class="edge"><title>1615653024288&#45;&gt;1615653024432</title>
<path fill="none" stroke="black" d="M412.982,-52.6649C421.415,-55.2524 431.003,-58.1941 440.111,-60.9885"/>
<polygon fill="black" stroke="black" points="439.141,-64.3519 449.727,-63.9391 441.194,-57.6598 439.141,-64.3519"/>
</g>
<!-- 1615653024288&#45;&gt;1615653024624 -->
<g id="edge9" class="edge"><title>1615653024288&#45;&gt;1615653024624</title>
<path fill="none" stroke="black" d="M412.982,-37.3351C421.415,-34.7476 431.003,-31.8059 440.111,-29.0115"/>
<polygon fill="black" stroke="black" points="441.194,-32.3402 449.727,-26.0609 439.141,-25.6481 441.194,-32.3402"/>
</g>
<!-- 1615653023808&#45;&gt;1615653025344 -->
<g id="edge10" class="edge"><title>1615653023808&#45;&gt;1615653025344</title>
<path fill="none" stroke="black" d="M1314.4,-45C1322.39,-45 1331.31,-45 1339.82,-45"/>
<polygon fill="black" stroke="black" points="1339.92,-48.5001 1349.92,-45 1339.92,-41.5001 1339.92,-48.5001"/>
</g>
<!-- 1615652708208&#45;&gt;1615652924624 -->
<g id="edge11" class="edge"><title>1615652708208&#45;&gt;1615652924624</title>
<path fill="none" stroke="black" d="M594.403,-45C602.393,-45 611.311,-45 619.824,-45"/>
<polygon fill="black" stroke="black" points="619.919,-48.5001 629.919,-45 619.919,-41.5001 619.919,-48.5001"/>
</g>
<!-- 1615652923232&#45;&gt;1615652925056 -->
<g id="edge12" class="edge"><title>1615652923232&#45;&gt;1615652925056</title>
<path fill="none" stroke="black" d="M234.403,-45C242.393,-45 251.311,-45 259.824,-45"/>
<polygon fill="black" stroke="black" points="259.919,-48.5001 269.919,-45 259.919,-41.5001 259.919,-48.5001"/>
</g>
<!-- 1615652923424&#45;&gt;1615652923808 -->
<g id="edge13" class="edge"><title>1615652923424&#45;&gt;1615652923808</title>
<path fill="none" stroke="black" d="M774.403,-45C782.393,-45 791.311,-45 799.824,-45"/>
<polygon fill="black" stroke="black" points="799.919,-48.5001 809.919,-45 799.919,-41.5001 799.919,-48.5001"/>
</g>
<!-- 1615653024528&#45;&gt;1615653024768 -->
<g id="edge14" class="edge"><title>1615653024528&#45;&gt;1615653024768</title>
<path fill="none" stroke="black" d="M954.403,-45C962.393,-45 971.311,-45 979.824,-45"/>
<polygon fill="black" stroke="black" points="979.919,-48.5001 989.919,-45 979.919,-41.5001 979.919,-48.5001"/>
</g>
<!-- 1615653025584&#45;&gt;1615653026448 -->
<g id="edge15" class="edge"><title>1615653025584&#45;&gt;1615653026448</title>
<path fill="none" stroke="black" d="M1494.4,-45C1502.39,-45 1511.31,-45 1519.82,-45"/>
<polygon fill="black" stroke="black" points="1519.92,-48.5001 1529.92,-45 1519.92,-41.5001 1519.92,-48.5001"/>
</g>
</g>
</svg>
