<?xml version="1.0" encoding="UTF-8" standalone="no"?>
<!DOCTYPE svg PUBLIC "-//W3C//DTD SVG 1.1//EN"
 "http://www.w3.org/Graphics/SVG/1.1/DTD/svg11.dtd">
<!-- Generated by graphviz version 2.38.0 (20140413.2041)
 -->
<!-- Title: &#45;&gt;( X( &#39;C&#39;, &#39;D&#39;, &#45;&gt;( &#39;G&#39;, &#39;B&#39; ) ), &#39;A&#39;, X( &#39;E&#39;, &#39;F&#39; ) ) Pages: 1 -->
<svg width="2222pt" height="162pt"
 viewBox="0.00 0.00 2222.00 162.00" xmlns="http://www.w3.org/2000/svg" xmlns:xlink="http://www.w3.org/1999/xlink">
<g id="graph0" class="graph" transform="scale(1 1) rotate(0) translate(4 158)">
<title>&#45;&gt;( X( &#39;C&#39;, &#39;D&#39;, &#45;&gt;( &#39;G&#39;, &#39;B&#39; ) ), &#39;A&#39;, X( &#39;E&#39;, &#39;F&#39; ) )</title>
<!-- 1729296099744 -->
<g id="node1" class="node"><title>1729296099744</title>
<polygon fill="none" stroke="black" points="594,-154 540,-154 540,-118 594,-118 594,-154"/>
<text text-anchor="middle" x="567" y="-132.9" font-family="Times New Roman,serif" font-size="12.00">D</text>
</g>
<!-- 1729296101136 -->
<g id="node24" class="node"><title>1729296101136</title>
<ellipse fill="none" stroke="black" cx="1107" cy="-73" rx="27" ry="27"/>
</g>
<!-- 1729296099744&#45;&gt;1729296101136 -->
<g id="edge2" class="edge"><title>1729296099744&#45;&gt;1729296101136</title>
<path fill="none" stroke="black" d="M594.222,-134.084C628.925,-131.717 692.02,-128 746,-128 746,-128 746,-128 928,-128 980.773,-128 1038.58,-105.659 1073.57,-89.4541"/>
<polygon fill="black" stroke="black" points="1075.28,-92.5187 1082.81,-85.07 1072.28,-86.1944 1075.28,-92.5187"/>
</g>
<!-- 1729296100992 -->
<g id="node2" class="node"><title>1729296100992</title>
<polygon fill="none" stroke="black" points="684,-91 630,-91 630,-55 684,-55 684,-91"/>
<text text-anchor="middle" x="657" y="-69.9" font-family="Times New Roman,serif" font-size="12.00">G</text>
</g>
<!-- 1729296100704 -->
<g id="node21" class="node"><title>1729296100704</title>
<ellipse fill="none" stroke="black" cx="747" cy="-73" rx="27" ry="27"/>
</g>
<!-- 1729296100992&#45;&gt;1729296100704 -->
<g id="edge4" class="edge"><title>1729296100992&#45;&gt;1729296100704</title>
<path fill="none" stroke="black" d="M684.403,-73C692.393,-73 701.311,-73 709.824,-73"/>
<polygon fill="black" stroke="black" points="709.919,-76.5001 719.919,-73 709.919,-69.5001 709.919,-76.5001"/>
</g>
<!-- 1729296099552 -->
<g id="node3" class="node"><title>1729296099552</title>
<polygon fill="black" stroke="black" points="504,-91 450,-91 450,-55 504,-55 504,-91"/>
</g>
<!-- 1729296101184 -->
<g id="node18" class="node"><title>1729296101184</title>
<ellipse fill="none" stroke="black" cx="567" cy="-73" rx="27" ry="27"/>
</g>
<!-- 1729296099552&#45;&gt;1729296101184 -->
<g id="edge25" class="edge"><title>1729296099552&#45;&gt;1729296101184</title>
<path fill="none" stroke="black" d="M504.403,-73C512.393,-73 521.311,-73 529.824,-73"/>
<polygon fill="black" stroke="black" points="529.919,-76.5001 539.919,-73 529.919,-69.5001 529.919,-76.5001"/>
</g>
<!-- 1729296101088 -->
<g id="node4" class="node"><title>1729296101088</title>
<polygon fill="none" stroke="black" points="864,-91 810,-91 810,-55 864,-55 864,-91"/>
<text text-anchor="middle" x="837" y="-69.9" font-family="Times New Roman,serif" font-size="12.00">B</text>
</g>
<!-- 1729296100464 -->
<g id="node22" class="node"><title>1729296100464</title>
<ellipse fill="none" stroke="black" cx="927" cy="-73" rx="27" ry="27"/>
</g>
<!-- 1729296101088&#45;&gt;1729296100464 -->
<g id="edge5" class="edge"><title>1729296101088&#45;&gt;1729296100464</title>
<path fill="none" stroke="black" d="M864.403,-73C872.393,-73 881.311,-73 889.824,-73"/>
<polygon fill="black" stroke="black" points="889.919,-76.5001 899.919,-73 889.919,-69.5001 889.919,-76.5001"/>
</g>
<!-- 1729296101280 -->
<g id="node5" class="node"><title>1729296101280</title>
<polygon fill="black" stroke="black" points="324,-91 270,-91 270,-55 324,-55 324,-91"/>
</g>
<!-- 1729296100032 -->
<g id="node23" class="node"><title>1729296100032</title>
<ellipse fill="none" stroke="black" cx="387" cy="-73" rx="27" ry="27"/>
</g>
<!-- 1729296101280&#45;&gt;1729296100032 -->
<g id="edge29" class="edge"><title>1729296101280&#45;&gt;1729296100032</title>
<path fill="none" stroke="black" d="M324.403,-73C332.393,-73 341.311,-73 349.824,-73"/>
<polygon fill="black" stroke="black" points="349.919,-76.5001 359.919,-73 349.919,-69.5001 349.919,-76.5001"/>
</g>
<!-- 1729289827232 -->
<g id="node6" class="node"><title>1729289827232</title>
<polygon fill="black" stroke="black" points="1224,-91 1170,-91 1170,-55 1224,-55 1224,-91"/>
</g>
<!-- 1729289827568 -->
<g id="node26" class="node"><title>1729289827568</title>
<ellipse fill="none" stroke="black" cx="1287" cy="-73" rx="27" ry="27"/>
</g>
<!-- 1729289827232&#45;&gt;1729289827568 -->
<g id="edge30" class="edge"><title>1729289827232&#45;&gt;1729289827568</title>
<path fill="none" stroke="black" d="M1224.4,-73C1232.39,-73 1241.31,-73 1249.82,-73"/>
<polygon fill="black" stroke="black" points="1249.92,-76.5001 1259.92,-73 1249.92,-69.5001 1249.92,-76.5001"/>
</g>
<!-- 1729289827616 -->
<g id="node7" class="node"><title>1729289827616</title>
<polygon fill="none" stroke="black" points="1764,-118 1710,-118 1710,-82 1764,-82 1764,-118"/>
<text text-anchor="middle" x="1737" y="-96.9" font-family="Times New Roman,serif" font-size="12.00">F</text>
</g>
<!-- 1729289827712 -->
<g id="node20" class="node"><title>1729289827712</title>
<ellipse fill="none" stroke="black" cx="1827" cy="-73" rx="27" ry="27"/>
</g>
<!-- 1729289827616&#45;&gt;1729289827712 -->
<g id="edge7" class="edge"><title>1729289827616&#45;&gt;1729289827712</title>
<path fill="none" stroke="black" d="M1764.4,-91.8991C1772.79,-89.3259 1782.2,-86.4394 1791.09,-83.7117"/>
<polygon fill="black" stroke="black" points="1792.29,-87.004 1800.82,-80.7247 1790.24,-80.3119 1792.29,-87.004"/>
</g>
<!-- 1729289827808 -->
<g id="node8" class="node"><title>1729289827808</title>
<polygon fill="black" stroke="black" points="1584,-91 1530,-91 1530,-55 1584,-55 1584,-91"/>
</g>
<!-- 1729296099792 -->
<g id="node17" class="node"><title>1729296099792</title>
<ellipse fill="none" stroke="black" cx="1647" cy="-73" rx="27" ry="27"/>
</g>
<!-- 1729289827808&#45;&gt;1729296099792 -->
<g id="edge26" class="edge"><title>1729289827808&#45;&gt;1729296099792</title>
<path fill="none" stroke="black" d="M1584.4,-73C1592.39,-73 1601.31,-73 1609.82,-73"/>
<polygon fill="black" stroke="black" points="1609.92,-76.5001 1619.92,-73 1609.92,-69.5001 1609.92,-76.5001"/>
</g>
<!-- 1729296099888 -->
<g id="node9" class="node"><title>1729296099888</title>
<polygon fill="none" stroke="black" points="684,-36 630,-36 630,-0 684,-0 684,-36"/>
<text text-anchor="middle" x="657" y="-14.9" font-family="Times New Roman,serif" font-size="12.00">C</text>
</g>
<!-- 1729296099888&#45;&gt;1729296101136 -->
<g id="edge1" class="edge"><title>1729296099888&#45;&gt;1729296101136</title>
<path fill="none" stroke="black" d="M684.239,-18C718.96,-18 782.075,-18 836,-18 836,-18 836,-18 928,-18 980.773,-18 1038.58,-40.3414 1073.57,-56.5459"/>
<polygon fill="black" stroke="black" points="1072.28,-59.8056 1082.81,-60.93 1075.28,-53.4813 1072.28,-59.8056"/>
</g>
<!-- 1729289826416 -->
<g id="node10" class="node"><title>1729289826416</title>
<polygon fill="black" stroke="black" points="1044,-91 990,-91 990,-55 1044,-55 1044,-91"/>
</g>
<!-- 1729289826416&#45;&gt;1729296101136 -->
<g id="edge28" class="edge"><title>1729289826416&#45;&gt;1729296101136</title>
<path fill="none" stroke="black" d="M1044.4,-73C1052.39,-73 1061.31,-73 1069.82,-73"/>
<polygon fill="black" stroke="black" points="1069.92,-76.5001 1079.92,-73 1069.92,-69.5001 1069.92,-76.5001"/>
</g>
<!-- 1729296099984 -->
<g id="node11" class="node"><title>1729296099984</title>
<polygon fill="none" stroke="black" points="1404,-91 1350,-91 1350,-55 1404,-55 1404,-91"/>
<text text-anchor="middle" x="1377" y="-69.9" font-family="Times New Roman,serif" font-size="12.00">A</text>
</g>
<!-- 1729289827424 -->
<g id="node27" class="node"><title>1729289827424</title>
<ellipse fill="none" stroke="black" cx="1467" cy="-73" rx="27" ry="27"/>
</g>
<!-- 1729296099984&#45;&gt;1729289827424 -->
<g id="edge3" class="edge"><title>1729296099984&#45;&gt;1729289827424</title>
<path fill="none" stroke="black" d="M1404.4,-73C1412.39,-73 1421.31,-73 1429.82,-73"/>
<polygon fill="black" stroke="black" points="1429.92,-76.5001 1439.92,-73 1429.92,-69.5001 1429.92,-76.5001"/>
</g>
<!-- 1729289827472 -->
<g id="node12" class="node"><title>1729289827472</title>
<polygon fill="none" stroke="black" points="1764,-64 1710,-64 1710,-28 1764,-28 1764,-64"/>
<text text-anchor="middle" x="1737" y="-42.9" font-family="Times New Roman,serif" font-size="12.00">E</text>
</g>
<!-- 1729289827472&#45;&gt;1729289827712 -->
<g id="edge6" class="edge"><title>1729289827472&#45;&gt;1729289827712</title>
<path fill="none" stroke="black" d="M1764.4,-54.1009C1772.79,-56.6741 1782.2,-59.5606 1791.09,-62.2883"/>
<polygon fill="black" stroke="black" points="1790.24,-65.6881 1800.82,-65.2753 1792.29,-58.996 1790.24,-65.6881"/>
</g>
<!-- 1729289828336 -->
<g id="node13" class="node"><title>1729289828336</title>
<polygon fill="black" stroke="black" points="1944,-91 1890,-91 1890,-55 1944,-55 1944,-91"/>
</g>
<!-- 1729289828528 -->
<g id="node19" class="node"><title>1729289828528</title>
<ellipse fill="none" stroke="black" cx="2007" cy="-73" rx="27" ry="27"/>
</g>
<!-- 1729289828336&#45;&gt;1729289828528 -->
<g id="edge27" class="edge"><title>1729289828336&#45;&gt;1729289828528</title>
<path fill="none" stroke="black" d="M1944.4,-73C1952.39,-73 1961.31,-73 1969.82,-73"/>
<polygon fill="black" stroke="black" points="1969.92,-76.5001 1979.92,-73 1969.92,-69.5001 1969.92,-76.5001"/>
</g>
<!-- 1729270555216 -->
<g id="node14" class="node"><title>1729270555216</title>
<polygon fill="black" stroke="black" points="144,-91 90,-91 90,-55 144,-55 144,-91"/>
</g>
<!-- 1729290031600 -->
<g id="node25" class="node"><title>1729290031600</title>
<ellipse fill="none" stroke="black" cx="207" cy="-73" rx="27" ry="27"/>
</g>
<!-- 1729270555216&#45;&gt;1729290031600 -->
<g id="edge23" class="edge"><title>1729270555216&#45;&gt;1729290031600</title>
<path fill="none" stroke="black" d="M144.403,-73C152.393,-73 161.311,-73 169.824,-73"/>
<polygon fill="black" stroke="black" points="169.919,-76.5001 179.919,-73 169.919,-69.5001 169.919,-76.5001"/>
</g>
<!-- 1729289970640 -->
<g id="node15" class="node"><title>1729289970640</title>
<polygon fill="black" stroke="black" points="2124,-91 2070,-91 2070,-55 2124,-55 2124,-91"/>
</g>
<!-- 1729295946560 -->
<g id="node28" class="node"><title>1729295946560</title>
<ellipse fill="orange" stroke="black" cx="2187" cy="-73" rx="27" ry="27"/>
</g>
<!-- 1729289970640&#45;&gt;1729295946560 -->
<g id="edge24" class="edge"><title>1729289970640&#45;&gt;1729295946560</title>
<path fill="none" stroke="black" d="M2124.4,-73C2132.39,-73 2141.31,-73 2149.82,-73"/>
<polygon fill="black" stroke="black" points="2149.92,-76.5001 2159.92,-73 2149.92,-69.5001 2149.92,-76.5001"/>
</g>
<!-- 1729295946608 -->
<g id="node16" class="node"><title>1729295946608</title>
<ellipse fill="green" stroke="black" cx="27" cy="-73" rx="27" ry="27"/>
<text text-anchor="middle" x="27" y="-69.9" font-family="Times New Roman,serif" font-size="12.00">1</text>
</g>
<!-- 1729295946608&#45;&gt;1729270555216 -->
<g id="edge12" class="edge"><title>1729295946608&#45;&gt;1729270555216</title>
<path fill="none" stroke="black" d="M54.4029,-73C62.3932,-73 71.3106,-73 79.8241,-73"/>
<polygon fill="black" stroke="black" points="79.919,-76.5001 89.919,-73 79.919,-69.5001 79.919,-76.5001"/>
</g>
<!-- 1729296099792&#45;&gt;1729289827616 -->
<g id="edge9" class="edge"><title>1729296099792&#45;&gt;1729289827616</title>
<path fill="none" stroke="black" d="M1672.98,-80.6649C1681.42,-83.2524 1691,-86.1941 1700.11,-88.9885"/>
<polygon fill="black" stroke="black" points="1699.14,-92.3519 1709.73,-91.9391 1701.19,-85.6598 1699.14,-92.3519"/>
</g>
<!-- 1729296099792&#45;&gt;1729289827472 -->
<g id="edge8" class="edge"><title>1729296099792&#45;&gt;1729289827472</title>
<path fill="none" stroke="black" d="M1672.98,-65.3351C1681.42,-62.7476 1691,-59.8059 1700.11,-57.0115"/>
<polygon fill="black" stroke="black" points="1701.19,-60.3402 1709.73,-54.0609 1699.14,-53.6481 1701.19,-60.3402"/>
</g>
<!-- 1729296101184&#45;&gt;1729296100992 -->
<g id="edge10" class="edge"><title>1729296101184&#45;&gt;1729296100992</title>
<path fill="none" stroke="black" d="M594.403,-73C602.393,-73 611.311,-73 619.824,-73"/>
<polygon fill="black" stroke="black" points="619.919,-76.5001 629.919,-73 619.919,-69.5001 619.919,-76.5001"/>
</g>
<!-- 1729289828528&#45;&gt;1729289970640 -->
<g id="edge11" class="edge"><title>1729289828528&#45;&gt;1729289970640</title>
<path fill="none" stroke="black" d="M2034.4,-73C2042.39,-73 2051.31,-73 2059.82,-73"/>
<polygon fill="black" stroke="black" points="2059.92,-76.5001 2069.92,-73 2059.92,-69.5001 2059.92,-76.5001"/>
</g>
<!-- 1729289827712&#45;&gt;1729289828336 -->
<g id="edge13" class="edge"><title>1729289827712&#45;&gt;1729289828336</title>
<path fill="none" stroke="black" d="M1854.4,-73C1862.39,-73 1871.31,-73 1879.82,-73"/>
<polygon fill="black" stroke="black" points="1879.92,-76.5001 1889.92,-73 1879.92,-69.5001 1879.92,-76.5001"/>
</g>
<!-- 1729296100704&#45;&gt;1729296101088 -->
<g id="edge14" class="edge"><title>1729296100704&#45;&gt;1729296101088</title>
<path fill="none" stroke="black" d="M774.403,-73C782.393,-73 791.311,-73 799.824,-73"/>
<polygon fill="black" stroke="black" points="799.919,-76.5001 809.919,-73 799.919,-69.5001 799.919,-76.5001"/>
</g>
<!-- 1729296100464&#45;&gt;1729289826416 -->
<g id="edge15" class="edge"><title>1729296100464&#45;&gt;1729289826416</title>
<path fill="none" stroke="black" d="M954.403,-73C962.393,-73 971.311,-73 979.824,-73"/>
<polygon fill="black" stroke="black" points="979.919,-76.5001 989.919,-73 979.919,-69.5001 979.919,-76.5001"/>
</g>
<!-- 1729296100032&#45;&gt;1729296099744 -->
<g id="edge17" class="edge"><title>1729296100032&#45;&gt;1729296099744</title>
<path fill="none" stroke="black" d="M411.893,-84.1363C423.308,-89.2673 437.234,-95.2558 450,-100 476.515,-109.854 507.095,-119.266 530.198,-125.994"/>
<polygon fill="black" stroke="black" points="529.347,-129.391 539.926,-128.796 531.286,-122.665 529.347,-129.391"/>
</g>
<!-- 1729296100032&#45;&gt;1729296099552 -->
<g id="edge18" class="edge"><title>1729296100032&#45;&gt;1729296099552</title>
<path fill="none" stroke="black" d="M414.403,-73C422.393,-73 431.311,-73 439.824,-73"/>
<polygon fill="black" stroke="black" points="439.919,-76.5001 449.919,-73 439.919,-69.5001 439.919,-76.5001"/>
</g>
<!-- 1729296100032&#45;&gt;1729296099888 -->
<g id="edge16" class="edge"><title>1729296100032&#45;&gt;1729296099888</title>
<path fill="none" stroke="black" d="M411.287,-61.0385C422.685,-55.6602 436.772,-49.7023 450,-46 508.032,-29.7574 577.994,-22.7914 619.638,-19.9106"/>
<polygon fill="black" stroke="black" points="620.091,-23.3887 629.843,-19.2478 619.638,-16.4034 620.091,-23.3887"/>
</g>
<!-- 1729296101136&#45;&gt;1729289827232 -->
<g id="edge19" class="edge"><title>1729296101136&#45;&gt;1729289827232</title>
<path fill="none" stroke="black" d="M1134.4,-73C1142.39,-73 1151.31,-73 1159.82,-73"/>
<polygon fill="black" stroke="black" points="1159.92,-76.5001 1169.92,-73 1159.92,-69.5001 1159.92,-76.5001"/>
</g>
<!-- 1729290031600&#45;&gt;1729296101280 -->
<g id="edge20" class="edge"><title>1729290031600&#45;&gt;1729296101280</title>
<path fill="none" stroke="black" d="M234.403,-73C242.393,-73 251.311,-73 259.824,-73"/>
<polygon fill="black" stroke="black" points="259.919,-76.5001 269.919,-73 259.919,-69.5001 259.919,-76.5001"/>
</g>
<!-- 1729289827568&#45;&gt;1729296099984 -->
<g id="edge21" class="edge"><title>1729289827568&#45;&gt;1729296099984</title>
<path fill="none" stroke="black" d="M1314.4,-73C1322.39,-73 1331.31,-73 1339.82,-73"/>
<polygon fill="black" stroke="black" points="1339.92,-76.5001 1349.92,-73 1339.92,-69.5001 1339.92,-76.5001"/>
</g>
<!-- 1729289827424&#45;&gt;1729289827808 -->
<g id="edge22" class="edge"><title>1729289827424&#45;&gt;1729289827808</title>
<path fill="none" stroke="black" d="M1494.4,-73C1502.39,-73 1511.31,-73 1519.82,-73"/>
<polygon fill="black" stroke="black" points="1519.92,-76.5001 1529.92,-73 1519.92,-69.5001 1519.92,-76.5001"/>
</g>
</g>
</svg>
