<?xml version="1.0" encoding="UTF-8" standalone="no"?>
<!DOCTYPE svg PUBLIC "-//W3C//DTD SVG 1.1//EN"
 "http://www.w3.org/Graphics/SVG/1.1/DTD/svg11.dtd">
<!-- Generated by graphviz version 2.38.0 (20140413.2041)
 -->
<!-- Title: &#45;&gt;( X( &#39;C&#39;, &#39;D&#39;, &#45;&gt;( &#39;G&#39;, &#39;B&#39; ) ), &#39;A&#39;, X( &#39;E&#39;, &#39;F&#39; ) ) Pages: 1 -->
<svg width="2222pt" height="266pt"
 viewBox="0.00 0.00 2222.00 266.00" xmlns="http://www.w3.org/2000/svg" xmlns:xlink="http://www.w3.org/1999/xlink">
<g id="graph0" class="graph" transform="scale(1 1) rotate(0) translate(4 262)">
<title>&#45;&gt;( X( &#39;C&#39;, &#39;D&#39;, &#45;&gt;( &#39;G&#39;, &#39;B&#39; ) ), &#39;A&#39;, X( &#39;E&#39;, &#39;F&#39; ) )</title>
<!-- 1609207440768 -->
<g id="node1" class="node"><title>1609207440768</title>
<polygon fill="black" stroke="black" points="2124,-186 2070,-186 2070,-150 2124,-150 2124,-186"/>
</g>
<!-- 1609207442976 -->
<g id="node36" class="node"><title>1609207442976</title>
<ellipse fill="orange" stroke="black" cx="2187" cy="-168" rx="27" ry="27"/>
</g>
<!-- 1609207440768&#45;&gt;1609207442976 -->
<g id="edge31" class="edge"><title>1609207440768&#45;&gt;1609207442976</title>
<path fill="none" stroke="black" d="M2124.4,-168C2132.39,-168 2141.31,-168 2149.82,-168"/>
<polygon fill="black" stroke="black" points="2149.92,-171.5 2159.92,-168 2149.92,-164.5 2149.92,-171.5"/>
</g>
<!-- 1609208554256 -->
<g id="node2" class="node"><title>1609208554256</title>
<polygon fill="none" stroke="black" points="1044,-216 990,-216 990,-180 1044,-180 1044,-216"/>
<text text-anchor="middle" x="1017" y="-194.9" font-family="Times New Roman,serif" font-size="12.00">D</text>
</g>
<!-- 1609206857584 -->
<g id="node27" class="node"><title>1609206857584</title>
<ellipse fill="none" stroke="black" cx="1107" cy="-171" rx="27" ry="27"/>
</g>
<!-- 1609208554256&#45;&gt;1609206857584 -->
<g id="edge4" class="edge"><title>1609208554256&#45;&gt;1609206857584</title>
<path fill="none" stroke="black" d="M1044.4,-189.899C1052.79,-187.326 1062.2,-184.439 1071.09,-181.712"/>
<polygon fill="black" stroke="black" points="1072.29,-185.004 1080.82,-178.725 1070.24,-178.312 1072.29,-185.004"/>
</g>
<!-- 1609207440672 -->
<g id="node32" class="node"><title>1609207440672</title>
<ellipse fill="none" stroke="black" cx="1197" cy="-231" rx="27" ry="27"/>
</g>
<!-- 1609208554256&#45;&gt;1609207440672 -->
<g id="edge5" class="edge"><title>1609208554256&#45;&gt;1609207440672</title>
<path fill="none" stroke="black" d="M1044.26,-202.869C1074.94,-208.556 1125.84,-217.993 1160.14,-224.351"/>
<polygon fill="black" stroke="black" points="1159.74,-227.836 1170.21,-226.218 1161.01,-220.954 1159.74,-227.836"/>
</g>
<!-- 1609206585616 -->
<g id="node3" class="node"><title>1609206585616</title>
<polygon fill="black" stroke="black" points="1224,-186 1170,-186 1170,-150 1224,-150 1224,-186"/>
</g>
<!-- 1609206586192 -->
<g id="node29" class="node"><title>1609206586192</title>
<ellipse fill="none" stroke="black" cx="1287" cy="-168" rx="27" ry="27"/>
</g>
<!-- 1609206585616&#45;&gt;1609206586192 -->
<g id="edge38" class="edge"><title>1609206585616&#45;&gt;1609206586192</title>
<path fill="none" stroke="black" d="M1224.4,-168C1232.39,-168 1241.31,-168 1249.82,-168"/>
<polygon fill="black" stroke="black" points="1249.92,-171.5 1259.92,-168 1249.92,-164.5 1249.92,-171.5"/>
</g>
<!-- 1609208557328 -->
<g id="node4" class="node"><title>1609208557328</title>
<polygon fill="none" stroke="black" points="1404,-186 1350,-186 1350,-150 1404,-150 1404,-186"/>
<text text-anchor="middle" x="1377" y="-164.9" font-family="Times New Roman,serif" font-size="12.00">A</text>
</g>
<!-- 1609206585952 -->
<g id="node30" class="node"><title>1609206585952</title>
<ellipse fill="none" stroke="black" cx="1467" cy="-168" rx="27" ry="27"/>
</g>
<!-- 1609208557328&#45;&gt;1609206585952 -->
<g id="edge1" class="edge"><title>1609208557328&#45;&gt;1609206585952</title>
<path fill="none" stroke="black" d="M1404.4,-168C1412.39,-168 1421.31,-168 1429.82,-168"/>
<polygon fill="black" stroke="black" points="1429.92,-171.5 1439.92,-168 1429.92,-164.5 1429.92,-171.5"/>
</g>
<!-- 1609207441296 -->
<g id="node5" class="node"><title>1609207441296</title>
<polygon fill="black" stroke="black" points="144,-161 90,-161 90,-125 144,-125 144,-161"/>
</g>
<!-- 1609208554640 -->
<g id="node28" class="node"><title>1609208554640</title>
<ellipse fill="none" stroke="black" cx="207" cy="-143" rx="27" ry="27"/>
</g>
<!-- 1609207441296&#45;&gt;1609208554640 -->
<g id="edge30" class="edge"><title>1609207441296&#45;&gt;1609208554640</title>
<path fill="none" stroke="black" d="M144.403,-143C152.393,-143 161.311,-143 169.824,-143"/>
<polygon fill="black" stroke="black" points="169.919,-146.5 179.919,-143 169.919,-139.5 169.919,-146.5"/>
</g>
<!-- 1609206586144 -->
<g id="node6" class="node"><title>1609206586144</title>
<polygon fill="black" stroke="black" points="1584,-186 1530,-186 1530,-150 1584,-150 1584,-186"/>
</g>
<!-- 1609208554352 -->
<g id="node20" class="node"><title>1609208554352</title>
<ellipse fill="none" stroke="black" cx="1647" cy="-168" rx="27" ry="27"/>
</g>
<!-- 1609206586144&#45;&gt;1609208554352 -->
<g id="edge32" class="edge"><title>1609206586144&#45;&gt;1609208554352</title>
<path fill="none" stroke="black" d="M1584.4,-168C1592.39,-168 1601.31,-168 1609.82,-168"/>
<polygon fill="black" stroke="black" points="1609.92,-171.5 1619.92,-168 1609.92,-164.5 1609.92,-171.5"/>
</g>
<!-- 1608498868128 -->
<g id="node7" class="node"><title>1608498868128</title>
<polygon fill="black" stroke="black" points="1224,-53 1170,-53 1170,-17 1224,-17 1224,-53"/>
</g>
<!-- 1609207440576 -->
<g id="node34" class="node"><title>1609207440576</title>
<ellipse fill="none" stroke="black" cx="1287" cy="-96" rx="27" ry="27"/>
</g>
<!-- 1608498868128&#45;&gt;1609207440576 -->
<g id="edge39" class="edge"><title>1608498868128&#45;&gt;1609207440576</title>
<path fill="none" stroke="black" d="M1224.4,-53.302C1234.37,-60.2111 1245.78,-68.1199 1256.05,-75.2382"/>
<polygon fill="black" stroke="black" points="1254.14,-78.1718 1264.35,-80.9923 1258.12,-72.4188 1254.14,-78.1718"/>
</g>
<!-- 1609208554544 -->
<g id="node8" class="node"><title>1609208554544</title>
<polygon fill="none" stroke="black" points="1044,-106 990,-106 990,-70 1044,-70 1044,-106"/>
<text text-anchor="middle" x="1017" y="-84.9" font-family="Times New Roman,serif" font-size="12.00">C</text>
</g>
<!-- 1609208554544&#45;&gt;1609206857584 -->
<g id="edge2" class="edge"><title>1609208554544&#45;&gt;1609206857584</title>
<path fill="none" stroke="black" d="M1037.09,-106.01C1049.35,-117.568 1065.45,-132.751 1079,-145.535"/>
<polygon fill="black" stroke="black" points="1076.96,-148.424 1086.64,-152.739 1081.77,-143.331 1076.96,-148.424"/>
</g>
<!-- 1609208553536 -->
<g id="node31" class="node"><title>1609208553536</title>
<ellipse fill="none" stroke="black" cx="1107" cy="-27" rx="27" ry="27"/>
</g>
<!-- 1609208554544&#45;&gt;1609208553536 -->
<g id="edge3" class="edge"><title>1609208554544&#45;&gt;1609208553536</title>
<path fill="none" stroke="black" d="M1044.4,-69.698C1054.37,-62.7889 1065.78,-54.8801 1076.05,-47.7618"/>
<polygon fill="black" stroke="black" points="1078.12,-50.5812 1084.35,-42.0077 1074.14,-44.8282 1078.12,-50.5812"/>
</g>
<!-- 1609206586672 -->
<g id="node9" class="node"><title>1609206586672</title>
<polygon fill="none" stroke="black" points="1764,-159 1710,-159 1710,-123 1764,-123 1764,-159"/>
<text text-anchor="middle" x="1737" y="-137.9" font-family="Times New Roman,serif" font-size="12.00">E</text>
</g>
<!-- 1609206587008 -->
<g id="node24" class="node"><title>1609206587008</title>
<ellipse fill="none" stroke="black" cx="1827" cy="-168" rx="27" ry="27"/>
</g>
<!-- 1609206586672&#45;&gt;1609206587008 -->
<g id="edge8" class="edge"><title>1609206586672&#45;&gt;1609206587008</title>
<path fill="none" stroke="black" d="M1764.4,-149.101C1772.79,-151.674 1782.2,-154.561 1791.09,-157.288"/>
<polygon fill="black" stroke="black" points="1790.24,-160.688 1800.82,-160.275 1792.29,-153.996 1790.24,-160.688"/>
</g>
<!-- 1609218827312 -->
<g id="node10" class="node"><title>1609218827312</title>
<polygon fill="black" stroke="black" points="1224,-115 1170,-115 1170,-79 1224,-79 1224,-115"/>
</g>
<!-- 1609218827312&#45;&gt;1609207440576 -->
<g id="edge41" class="edge"><title>1609218827312&#45;&gt;1609207440576</title>
<path fill="none" stroke="black" d="M1224.4,-96.7C1232.39,-96.6092 1241.31,-96.5078 1249.82,-96.4111"/>
<polygon fill="black" stroke="black" points="1249.96,-99.9099 1259.92,-96.2964 1249.88,-92.9103 1249.96,-99.9099"/>
</g>
<!-- 1609206857536 -->
<g id="node11" class="node"><title>1609206857536</title>
<polygon fill="none" stroke="black" points="864,-161 810,-161 810,-125 864,-125 864,-161"/>
<text text-anchor="middle" x="837" y="-139.9" font-family="Times New Roman,serif" font-size="12.00">B</text>
</g>
<!-- 1609206856288 -->
<g id="node25" class="node"><title>1609206856288</title>
<ellipse fill="none" stroke="black" cx="927" cy="-143" rx="27" ry="27"/>
</g>
<!-- 1609206857536&#45;&gt;1609206856288 -->
<g id="edge7" class="edge"><title>1609206857536&#45;&gt;1609206856288</title>
<path fill="none" stroke="black" d="M864.403,-143C872.393,-143 881.311,-143 889.824,-143"/>
<polygon fill="black" stroke="black" points="889.919,-146.5 899.919,-143 889.919,-139.5 889.919,-146.5"/>
</g>
<!-- 1609206583744 -->
<g id="node12" class="node"><title>1609206583744</title>
<polygon fill="black" stroke="black" points="1044,-161 990,-161 990,-125 1044,-125 1044,-161"/>
</g>
<!-- 1609206583744&#45;&gt;1609206857584 -->
<g id="edge35" class="edge"><title>1609206583744&#45;&gt;1609206857584</title>
<path fill="none" stroke="black" d="M1044.4,-151.401C1052.86,-154.093 1062.36,-157.115 1071.32,-159.966"/>
<polygon fill="black" stroke="black" points="1070.53,-163.388 1081.12,-163.085 1072.65,-156.717 1070.53,-163.388"/>
</g>
<!-- 1609218827504 -->
<g id="node33" class="node"><title>1609218827504</title>
<ellipse fill="none" stroke="black" cx="1107" cy="-99" rx="27" ry="27"/>
</g>
<!-- 1609206583744&#45;&gt;1609218827504 -->
<g id="edge36" class="edge"><title>1609206583744&#45;&gt;1609218827504</title>
<path fill="none" stroke="black" d="M1044.4,-129.799C1053.52,-125.242 1063.83,-120.083 1073.38,-115.308"/>
<polygon fill="black" stroke="black" points="1075.23,-118.3 1082.61,-110.697 1072.1,-112.039 1075.23,-118.3"/>
</g>
<!-- 1609206856384 -->
<g id="node13" class="node"><title>1609206856384</title>
<polygon fill="black" stroke="black" points="324,-161 270,-161 270,-125 324,-125 324,-161"/>
</g>
<!-- 1609208553632 -->
<g id="node26" class="node"><title>1609208553632</title>
<ellipse fill="none" stroke="black" cx="387" cy="-143" rx="27" ry="27"/>
</g>
<!-- 1609206856384&#45;&gt;1609208553632 -->
<g id="edge37" class="edge"><title>1609206856384&#45;&gt;1609208553632</title>
<path fill="none" stroke="black" d="M324.403,-143C332.393,-143 341.311,-143 349.824,-143"/>
<polygon fill="black" stroke="black" points="349.919,-146.5 359.919,-143 349.919,-139.5 349.919,-146.5"/>
</g>
<!-- 1609207442112 -->
<g id="node14" class="node"><title>1609207442112</title>
<polygon fill="black" stroke="black" points="1314,-249 1260,-249 1260,-213 1314,-213 1314,-249"/>
</g>
<!-- 1609207439808 -->
<g id="node35" class="node"><title>1609207439808</title>
<ellipse fill="none" stroke="black" cx="1377" cy="-231" rx="27" ry="27"/>
</g>
<!-- 1609207442112&#45;&gt;1609207439808 -->
<g id="edge40" class="edge"><title>1609207442112&#45;&gt;1609207439808</title>
<path fill="none" stroke="black" d="M1314.4,-231C1322.39,-231 1331.31,-231 1339.82,-231"/>
<polygon fill="black" stroke="black" points="1339.92,-234.5 1349.92,-231 1339.92,-227.5 1339.92,-234.5"/>
</g>
<!-- 1609206857680 -->
<g id="node15" class="node"><title>1609206857680</title>
<polygon fill="none" stroke="black" points="684,-161 630,-161 630,-125 684,-125 684,-161"/>
<text text-anchor="middle" x="657" y="-139.9" font-family="Times New Roman,serif" font-size="12.00">G</text>
</g>
<!-- 1609206857440 -->
<g id="node23" class="node"><title>1609206857440</title>
<ellipse fill="none" stroke="black" cx="747" cy="-143" rx="27" ry="27"/>
</g>
<!-- 1609206857680&#45;&gt;1609206857440 -->
<g id="edge6" class="edge"><title>1609206857680&#45;&gt;1609206857440</title>
<path fill="none" stroke="black" d="M684.403,-143C692.393,-143 701.311,-143 709.824,-143"/>
<polygon fill="black" stroke="black" points="709.919,-146.5 719.919,-143 709.919,-139.5 709.919,-146.5"/>
</g>
<!-- 1609206584800 -->
<g id="node16" class="node"><title>1609206584800</title>
<polygon fill="black" stroke="black" points="504,-161 450,-161 450,-125 504,-125 504,-161"/>
</g>
<!-- 1609206856576 -->
<g id="node21" class="node"><title>1609206856576</title>
<ellipse fill="none" stroke="black" cx="567" cy="-143" rx="27" ry="27"/>
</g>
<!-- 1609206584800&#45;&gt;1609206856576 -->
<g id="edge33" class="edge"><title>1609206584800&#45;&gt;1609206856576</title>
<path fill="none" stroke="black" d="M504.403,-143C512.393,-143 521.311,-143 529.824,-143"/>
<polygon fill="black" stroke="black" points="529.919,-146.5 539.919,-143 529.919,-139.5 529.919,-146.5"/>
</g>
<!-- 1609206584176 -->
<g id="node17" class="node"><title>1609206584176</title>
<polygon fill="black" stroke="black" points="1944,-186 1890,-186 1890,-150 1944,-150 1944,-186"/>
</g>
<!-- 1609206583792 -->
<g id="node22" class="node"><title>1609206583792</title>
<ellipse fill="none" stroke="black" cx="2007" cy="-168" rx="27" ry="27"/>
</g>
<!-- 1609206584176&#45;&gt;1609206583792 -->
<g id="edge34" class="edge"><title>1609206584176&#45;&gt;1609206583792</title>
<path fill="none" stroke="black" d="M1944.4,-168C1952.39,-168 1961.31,-168 1969.82,-168"/>
<polygon fill="black" stroke="black" points="1969.92,-171.5 1979.92,-168 1969.92,-164.5 1969.92,-171.5"/>
</g>
<!-- 1609206586480 -->
<g id="node18" class="node"><title>1609206586480</title>
<polygon fill="none" stroke="black" points="1764,-213 1710,-213 1710,-177 1764,-177 1764,-213"/>
<text text-anchor="middle" x="1737" y="-191.9" font-family="Times New Roman,serif" font-size="12.00">F</text>
</g>
<!-- 1609206586480&#45;&gt;1609206587008 -->
<g id="edge9" class="edge"><title>1609206586480&#45;&gt;1609206587008</title>
<path fill="none" stroke="black" d="M1764.4,-186.899C1772.79,-184.326 1782.2,-181.439 1791.09,-178.712"/>
<polygon fill="black" stroke="black" points="1792.29,-182.004 1800.82,-175.725 1790.24,-175.312 1792.29,-182.004"/>
</g>
<!-- 1609207441728 -->
<g id="node19" class="node"><title>1609207441728</title>
<ellipse fill="green" stroke="black" cx="27" cy="-143" rx="27" ry="27"/>
<text text-anchor="middle" x="27" y="-139.9" font-family="Times New Roman,serif" font-size="12.00">1</text>
</g>
<!-- 1609207441728&#45;&gt;1609207441296 -->
<g id="edge14" class="edge"><title>1609207441728&#45;&gt;1609207441296</title>
<path fill="none" stroke="black" d="M54.4029,-143C62.3932,-143 71.3106,-143 79.8241,-143"/>
<polygon fill="black" stroke="black" points="79.919,-146.5 89.919,-143 79.919,-139.5 79.919,-146.5"/>
</g>
<!-- 1609208554352&#45;&gt;1609206586672 -->
<g id="edge10" class="edge"><title>1609208554352&#45;&gt;1609206586672</title>
<path fill="none" stroke="black" d="M1672.98,-160.335C1681.42,-157.748 1691,-154.806 1700.11,-152.011"/>
<polygon fill="black" stroke="black" points="1701.19,-155.34 1709.73,-149.061 1699.14,-148.648 1701.19,-155.34"/>
</g>
<!-- 1609208554352&#45;&gt;1609206586480 -->
<g id="edge11" class="edge"><title>1609208554352&#45;&gt;1609206586480</title>
<path fill="none" stroke="black" d="M1672.98,-175.665C1681.42,-178.252 1691,-181.194 1700.11,-183.989"/>
<polygon fill="black" stroke="black" points="1699.14,-187.352 1709.73,-186.939 1701.19,-180.66 1699.14,-187.352"/>
</g>
<!-- 1609206856576&#45;&gt;1609206857680 -->
<g id="edge12" class="edge"><title>1609206856576&#45;&gt;1609206857680</title>
<path fill="none" stroke="black" d="M594.403,-143C602.393,-143 611.311,-143 619.824,-143"/>
<polygon fill="black" stroke="black" points="619.919,-146.5 629.919,-143 619.919,-139.5 619.919,-146.5"/>
</g>
<!-- 1609206583792&#45;&gt;1609207440768 -->
<g id="edge13" class="edge"><title>1609206583792&#45;&gt;1609207440768</title>
<path fill="none" stroke="black" d="M2034.4,-168C2042.39,-168 2051.31,-168 2059.82,-168"/>
<polygon fill="black" stroke="black" points="2059.92,-171.5 2069.92,-168 2059.92,-164.5 2059.92,-171.5"/>
</g>
<!-- 1609206857440&#45;&gt;1609206857536 -->
<g id="edge15" class="edge"><title>1609206857440&#45;&gt;1609206857536</title>
<path fill="none" stroke="black" d="M774.403,-143C782.393,-143 791.311,-143 799.824,-143"/>
<polygon fill="black" stroke="black" points="799.919,-146.5 809.919,-143 799.919,-139.5 799.919,-146.5"/>
</g>
<!-- 1609206587008&#45;&gt;1609206584176 -->
<g id="edge16" class="edge"><title>1609206587008&#45;&gt;1609206584176</title>
<path fill="none" stroke="black" d="M1854.4,-168C1862.39,-168 1871.31,-168 1879.82,-168"/>
<polygon fill="black" stroke="black" points="1879.92,-171.5 1889.92,-168 1879.92,-164.5 1879.92,-171.5"/>
</g>
<!-- 1609206856288&#45;&gt;1609206583744 -->
<g id="edge17" class="edge"><title>1609206856288&#45;&gt;1609206583744</title>
<path fill="none" stroke="black" d="M954.403,-143C962.393,-143 971.311,-143 979.824,-143"/>
<polygon fill="black" stroke="black" points="979.919,-146.5 989.919,-143 979.919,-139.5 979.919,-146.5"/>
</g>
<!-- 1609208553632&#45;&gt;1609208554256 -->
<g id="edge19" class="edge"><title>1609208553632&#45;&gt;1609208554256</title>
<path fill="none" stroke="black" d="M411.189,-155.07C444.504,-171.26 508.265,-198 566,-198 566,-198 566,-198 838,-198 887.08,-198 943.773,-198 979.742,-198"/>
<polygon fill="black" stroke="black" points="979.761,-201.5 989.761,-198 979.761,-194.5 979.761,-201.5"/>
</g>
<!-- 1609208553632&#45;&gt;1609208554544 -->
<g id="edge18" class="edge"><title>1609208553632&#45;&gt;1609208554544</title>
<path fill="none" stroke="black" d="M411.189,-130.93C444.504,-114.74 508.265,-88 566,-88 566,-88 566,-88 838,-88 887.08,-88 943.773,-88 979.742,-88"/>
<polygon fill="black" stroke="black" points="979.761,-91.5001 989.761,-88 979.761,-84.5001 979.761,-91.5001"/>
</g>
<!-- 1609208553632&#45;&gt;1609206584800 -->
<g id="edge20" class="edge"><title>1609208553632&#45;&gt;1609206584800</title>
<path fill="none" stroke="black" d="M414.403,-143C422.393,-143 431.311,-143 439.824,-143"/>
<polygon fill="black" stroke="black" points="439.919,-146.5 449.919,-143 439.919,-139.5 439.919,-146.5"/>
</g>
<!-- 1609206857584&#45;&gt;1609206585616 -->
<g id="edge21" class="edge"><title>1609206857584&#45;&gt;1609206585616</title>
<path fill="none" stroke="black" d="M1134.4,-170.1C1142.39,-169.828 1151.31,-169.524 1159.82,-169.233"/>
<polygon fill="black" stroke="black" points="1160.04,-172.728 1169.92,-168.889 1159.81,-165.732 1160.04,-172.728"/>
</g>
<!-- 1609208554640&#45;&gt;1609206856384 -->
<g id="edge22" class="edge"><title>1609208554640&#45;&gt;1609206856384</title>
<path fill="none" stroke="black" d="M234.403,-143C242.393,-143 251.311,-143 259.824,-143"/>
<polygon fill="black" stroke="black" points="259.919,-146.5 269.919,-143 259.919,-139.5 259.919,-146.5"/>
</g>
<!-- 1609206586192&#45;&gt;1609208557328 -->
<g id="edge23" class="edge"><title>1609206586192&#45;&gt;1609208557328</title>
<path fill="none" stroke="black" d="M1314.4,-168C1322.39,-168 1331.31,-168 1339.82,-168"/>
<polygon fill="black" stroke="black" points="1339.92,-171.5 1349.92,-168 1339.92,-164.5 1339.92,-171.5"/>
</g>
<!-- 1609206585952&#45;&gt;1609206586144 -->
<g id="edge24" class="edge"><title>1609206585952&#45;&gt;1609206586144</title>
<path fill="none" stroke="black" d="M1494.4,-168C1502.39,-168 1511.31,-168 1519.82,-168"/>
<polygon fill="black" stroke="black" points="1519.92,-171.5 1529.92,-168 1519.92,-164.5 1519.92,-171.5"/>
</g>
<!-- 1609208553536&#45;&gt;1608498868128 -->
<g id="edge25" class="edge"><title>1609208553536&#45;&gt;1608498868128</title>
<path fill="none" stroke="black" d="M1133.93,-29.357C1142.09,-30.099 1151.26,-30.9324 1159.99,-31.7263"/>
<polygon fill="black" stroke="black" points="1159.68,-35.2124 1169.95,-32.6322 1160.31,-28.2411 1159.68,-35.2124"/>
</g>
<!-- 1609207440672&#45;&gt;1609207442112 -->
<g id="edge26" class="edge"><title>1609207440672&#45;&gt;1609207442112</title>
<path fill="none" stroke="black" d="M1224.4,-231C1232.39,-231 1241.31,-231 1249.82,-231"/>
<polygon fill="black" stroke="black" points="1249.92,-234.5 1259.92,-231 1249.92,-227.5 1249.92,-234.5"/>
</g>
<!-- 1609218827504&#45;&gt;1609218827312 -->
<g id="edge27" class="edge"><title>1609218827504&#45;&gt;1609218827312</title>
<path fill="none" stroke="black" d="M1134.4,-98.3999C1142.39,-98.2183 1151.31,-98.0157 1159.82,-97.8222"/>
<polygon fill="black" stroke="black" points="1160,-101.319 1169.92,-97.5928 1159.84,-94.321 1160,-101.319"/>
</g>
<!-- 1609207440576&#45;&gt;1609206586672 -->
<g id="edge28" class="edge"><title>1609207440576&#45;&gt;1609206586672</title>
<path fill="none" stroke="black" d="M1313.92,-98.1329C1348.55,-100.794 1411.85,-105 1466,-105 1466,-105 1466,-105 1558,-105 1607.93,-105 1664.2,-118.777 1699.86,-129.285"/>
<polygon fill="black" stroke="black" points="1699.21,-132.744 1709.8,-132.285 1701.24,-126.043 1699.21,-132.744"/>
</g>
<!-- 1609207439808&#45;&gt;1609206586480 -->
<g id="edge29" class="edge"><title>1609207439808&#45;&gt;1609206586480</title>
<path fill="none" stroke="black" d="M1404.18,-229.082C1455.86,-225.193 1574.58,-215.742 1674,-204 1682.37,-203.011 1691.35,-201.797 1699.81,-200.583"/>
<polygon fill="black" stroke="black" points="1700.41,-204.033 1709.79,-199.119 1699.39,-197.108 1700.41,-204.033"/>
</g>
</g>
</svg>
