<?xml version="1.0" encoding="UTF-8" standalone="no"?>
<!DOCTYPE svg PUBLIC "-//W3C//DTD SVG 1.1//EN"
 "http://www.w3.org/Graphics/SVG/1.1/DTD/svg11.dtd">
<!-- Generated by graphviz version 2.38.0 (20140413.2041)
 -->
<!-- Title: *( &#45;&gt;( X( &#39;A&#39;, &#39;B&#39; ), &#39;C&#39;, X( &#39;F&#39;, &#39;D&#39; ) ), &#39;E&#39; ) Pages: 1 -->
<svg width="2132pt" height="342pt"
 viewBox="0.00 0.00 2132.00 342.14" xmlns="http://www.w3.org/2000/svg" xmlns:xlink="http://www.w3.org/1999/xlink">
<g id="graph0" class="graph" transform="scale(1 1) rotate(0) translate(4 338.141)">
<title>*( &#45;&gt;( X( &#39;A&#39;, &#39;B&#39; ), &#39;C&#39;, X( &#39;F&#39;, &#39;D&#39; ) ), &#39;E&#39; )</title>
<!-- 2946793065536 -->
<g id="node1" class="node"><title>2946793065536</title>
<polygon fill="none" stroke="black" points="54,-142.141 0,-142.141 0,-106.141 54,-106.141 54,-142.141"/>
<text text-anchor="middle" x="27" y="-121.041" font-family="Times New Roman,serif" font-size="12.00">A</text>
</g>
<!-- 2946792744224 -->
<g id="node21" class="node"><title>2946792744224</title>
<ellipse fill="none" stroke="black" cx="117" cy="-124.141" rx="27" ry="27"/>
</g>
<!-- 2946793065536&#45;&gt;2946792744224 -->
<g id="edge4" class="edge"><title>2946793065536&#45;&gt;2946792744224</title>
<path fill="none" stroke="black" d="M54.4029,-124.141C62.3932,-124.141 71.3106,-124.141 79.8241,-124.141"/>
<polygon fill="black" stroke="black" points="79.919,-127.641 89.919,-124.141 79.919,-120.641 79.919,-127.641"/>
</g>
<!-- 2946792744800 -->
<g id="node29" class="node"><title>2946792744800</title>
<ellipse fill="none" stroke="black" cx="477" cy="-41.1413" rx="27" ry="27"/>
</g>
<!-- 2946793065536&#45;&gt;2946792744800 -->
<g id="edge5" class="edge"><title>2946793065536&#45;&gt;2946792744800</title>
<path fill="none" stroke="black" d="M53.4526,-106.039C86.8156,-84.1312 147.935,-50.1413 206,-50.1413 206,-50.1413 206,-50.1413 298,-50.1413 347.284,-50.1413 404.146,-46.6573 440.078,-44.0247"/>
<polygon fill="black" stroke="black" points="440.37,-47.5127 450.08,-43.2741 439.846,-40.5324 440.37,-47.5127"/>
</g>
<!-- 2946792745472 -->
<g id="node2" class="node"><title>2946792745472</title>
<polygon fill="black" stroke="black" points="1674,-250.141 1620,-250.141 1620,-214.141 1674,-214.141 1674,-250.141"/>
</g>
<!-- 2946793063856 -->
<g id="node19" class="node"><title>2946793063856</title>
<ellipse fill="none" stroke="black" cx="1737" cy="-232.141" rx="27" ry="27"/>
</g>
<!-- 2946792745472&#45;&gt;2946793063856 -->
<g id="edge31" class="edge"><title>2946792745472&#45;&gt;2946793063856</title>
<path fill="none" stroke="black" d="M1674.4,-232.141C1682.39,-232.141 1691.31,-232.141 1699.82,-232.141"/>
<polygon fill="black" stroke="black" points="1699.92,-235.641 1709.92,-232.141 1699.92,-228.641 1699.92,-235.641"/>
</g>
<!-- 2946792743456 -->
<g id="node3" class="node"><title>2946792743456</title>
<polygon fill="none" stroke="black" points="1854,-186.141 1800,-186.141 1800,-150.141 1854,-150.141 1854,-186.141"/>
<text text-anchor="middle" x="1827" y="-165.041" font-family="Times New Roman,serif" font-size="12.00">B</text>
</g>
<!-- 2946792743456&#45;&gt;2946792744224 -->
<g id="edge2" class="edge"><title>2946792743456&#45;&gt;2946792744224</title>
<path fill="none" stroke="black" d="M1799.9,-150.158C1766.33,-128.832 1705.5,-96.1413 1648,-96.1413 296,-96.1413 296,-96.1413 296,-96.1413 246.031,-96.1413 189.12,-107.042 153.384,-115.241"/>
<polygon fill="black" stroke="black" points="152.381,-111.881 143.447,-117.577 153.983,-118.695 152.381,-111.881"/>
</g>
<!-- 2946796464496 -->
<g id="node30" class="node"><title>2946796464496</title>
<ellipse fill="none" stroke="black" cx="1917" cy="-168.141" rx="27" ry="27"/>
</g>
<!-- 2946792743456&#45;&gt;2946796464496 -->
<g id="edge3" class="edge"><title>2946792743456&#45;&gt;2946796464496</title>
<path fill="none" stroke="black" d="M1854.4,-168.141C1862.39,-168.141 1871.31,-168.141 1879.82,-168.141"/>
<polygon fill="black" stroke="black" points="1879.92,-171.641 1889.92,-168.141 1879.92,-164.641 1879.92,-171.641"/>
</g>
<!-- 2946792743744 -->
<g id="node4" class="node"><title>2946792743744</title>
<polygon fill="black" stroke="black" points="234,-165.141 180,-165.141 180,-129.141 234,-129.141 234,-165.141"/>
</g>
<!-- 2946792745184 -->
<g id="node24" class="node"><title>2946792745184</title>
<ellipse fill="none" stroke="black" cx="297" cy="-151.141" rx="27" ry="27"/>
</g>
<!-- 2946792743744&#45;&gt;2946792745184 -->
<g id="edge34" class="edge"><title>2946792743744&#45;&gt;2946792745184</title>
<path fill="none" stroke="black" d="M234.403,-148.341C242.393,-148.705 251.311,-149.11 259.824,-149.497"/>
<polygon fill="black" stroke="black" points="259.77,-152.998 269.919,-149.956 260.088,-146.005 259.77,-152.998"/>
</g>
<!-- 2946793066112 -->
<g id="node5" class="node"><title>2946793066112</title>
<polygon fill="none" stroke="black" points="414,-169.141 360,-169.141 360,-133.141 414,-133.141 414,-169.141"/>
<text text-anchor="middle" x="387" y="-148.041" font-family="Times New Roman,serif" font-size="12.00">C</text>
</g>
<!-- 2946792745088 -->
<g id="node25" class="node"><title>2946792745088</title>
<ellipse fill="none" stroke="black" cx="477" cy="-151.141" rx="27" ry="27"/>
</g>
<!-- 2946793066112&#45;&gt;2946792745088 -->
<g id="edge1" class="edge"><title>2946793066112&#45;&gt;2946792745088</title>
<path fill="none" stroke="black" d="M414.403,-151.141C422.393,-151.141 431.311,-151.141 439.824,-151.141"/>
<polygon fill="black" stroke="black" points="439.919,-154.641 449.919,-151.141 439.919,-147.641 439.919,-154.641"/>
</g>
<!-- 2946948774496 -->
<g id="node6" class="node"><title>2946948774496</title>
<polygon fill="black" stroke="black" points="954,-178.141 900,-178.141 900,-142.141 954,-142.141 954,-178.141"/>
</g>
<!-- 2946948775072 -->
<g id="node26" class="node"><title>2946948775072</title>
<ellipse fill="none" stroke="black" cx="1017" cy="-160.141" rx="27" ry="27"/>
</g>
<!-- 2946948774496&#45;&gt;2946948775072 -->
<g id="edge33" class="edge"><title>2946948774496&#45;&gt;2946948775072</title>
<path fill="none" stroke="black" d="M954.403,-160.141C962.393,-160.141 971.311,-160.141 979.824,-160.141"/>
<polygon fill="black" stroke="black" points="979.919,-163.641 989.919,-160.141 979.919,-156.641 979.919,-163.641"/>
</g>
<!-- 2946948775264 -->
<g id="node7" class="node"><title>2946948775264</title>
<polygon fill="none" stroke="black" points="774,-219.141 720,-219.141 720,-183.141 774,-183.141 774,-219.141"/>
<text text-anchor="middle" x="747" y="-198.041" font-family="Times New Roman,serif" font-size="12.00">D</text>
</g>
<!-- 2946948775504 -->
<g id="node22" class="node"><title>2946948775504</title>
<ellipse fill="none" stroke="black" cx="837" cy="-160.141" rx="27" ry="27"/>
</g>
<!-- 2946948775264&#45;&gt;2946948775504 -->
<g id="edge7" class="edge"><title>2946948775264&#45;&gt;2946948775504</title>
<path fill="none" stroke="black" d="M774.403,-188.84C783.44,-184.63 793.662,-179.867 803.146,-175.448"/>
<polygon fill="black" stroke="black" points="804.725,-178.574 812.311,-171.178 801.768,-172.229 804.725,-178.574"/>
</g>
<!-- 2946948774112 -->
<g id="node8" class="node"><title>2946948774112</title>
<polygon fill="black" stroke="black" points="594,-169.141 540,-169.141 540,-133.141 594,-133.141 594,-169.141"/>
</g>
<!-- 2946792745328 -->
<g id="node20" class="node"><title>2946792745328</title>
<ellipse fill="none" stroke="black" cx="657" cy="-151.141" rx="27" ry="27"/>
</g>
<!-- 2946948774112&#45;&gt;2946792745328 -->
<g id="edge32" class="edge"><title>2946948774112&#45;&gt;2946792745328</title>
<path fill="none" stroke="black" d="M594.403,-151.141C602.393,-151.141 611.311,-151.141 619.824,-151.141"/>
<polygon fill="black" stroke="black" points="619.919,-154.641 629.919,-151.141 619.919,-147.641 619.919,-154.641"/>
</g>
<!-- 2946948775360 -->
<g id="node9" class="node"><title>2946948775360</title>
<polygon fill="black" stroke="black" points="1134,-178.141 1080,-178.141 1080,-142.141 1134,-142.141 1134,-178.141"/>
</g>
<!-- 2946793066208 -->
<g id="node28" class="node"><title>2946793066208</title>
<ellipse fill="none" stroke="black" cx="1197" cy="-160.141" rx="27" ry="27"/>
</g>
<!-- 2946948775360&#45;&gt;2946793066208 -->
<g id="edge28" class="edge"><title>2946948775360&#45;&gt;2946793066208</title>
<path fill="none" stroke="black" d="M1134.4,-160.141C1142.39,-160.141 1151.31,-160.141 1159.82,-160.141"/>
<polygon fill="black" stroke="black" points="1159.92,-163.641 1169.92,-160.141 1159.92,-156.641 1159.92,-163.641"/>
</g>
<!-- 2946948772096 -->
<g id="node10" class="node"><title>2946948772096</title>
<polygon fill="black" stroke="black" points="1314,-268.141 1260,-268.141 1260,-232.141 1314,-232.141 1314,-268.141"/>
</g>
<!-- 2946793063568 -->
<g id="node27" class="node"><title>2946793063568</title>
<ellipse fill="none" stroke="black" cx="1377" cy="-232.141" rx="27" ry="27"/>
</g>
<!-- 2946948772096&#45;&gt;2946793063568 -->
<g id="edge29" class="edge"><title>2946948772096&#45;&gt;2946793063568</title>
<path fill="none" stroke="black" d="M1314.4,-244.741C1322.55,-243.073 1331.67,-241.209 1340.34,-239.436"/>
<polygon fill="black" stroke="black" points="1341.13,-242.847 1350.22,-237.414 1339.72,-235.989 1341.13,-242.847"/>
</g>
<!-- 2946796465408 -->
<g id="node11" class="node"><title>2946796465408</title>
<polygon fill="black" stroke="black" points="2034,-186.141 1980,-186.141 1980,-150.141 2034,-150.141 2034,-186.141"/>
</g>
<!-- 2946948773968 -->
<g id="node31" class="node"><title>2946948773968</title>
<ellipse fill="none" stroke="black" cx="2097" cy="-168.141" rx="27" ry="27"/>
</g>
<!-- 2946796465408&#45;&gt;2946948773968 -->
<g id="edge38" class="edge"><title>2946796465408&#45;&gt;2946948773968</title>
<path fill="none" stroke="black" d="M2034.4,-168.141C2042.39,-168.141 2051.31,-168.141 2059.82,-168.141"/>
<polygon fill="black" stroke="black" points="2059.92,-171.641 2069.92,-168.141 2059.92,-164.641 2059.92,-171.641"/>
</g>
<!-- 2946792743024 -->
<g id="node12" class="node"><title>2946792743024</title>
<polygon fill="none" stroke="black" points="774,-165.141 720,-165.141 720,-129.141 774,-129.141 774,-165.141"/>
<text text-anchor="middle" x="747" y="-144.041" font-family="Times New Roman,serif" font-size="12.00">F</text>
</g>
<!-- 2946792743024&#45;&gt;2946948775504 -->
<g id="edge8" class="edge"><title>2946792743024&#45;&gt;2946948775504</title>
<path fill="none" stroke="black" d="M774.403,-151.042C782.465,-152.233 791.471,-153.563 800.054,-154.831"/>
<polygon fill="black" stroke="black" points="799.817,-158.334 810.221,-156.333 800.84,-151.409 799.817,-158.334"/>
</g>
<!-- 2946948774928 -->
<g id="node13" class="node"><title>2946948774928</title>
<polygon fill="black" stroke="black" points="1494,-250.141 1440,-250.141 1440,-214.141 1494,-214.141 1494,-250.141"/>
</g>
<!-- 2946793066256 -->
<g id="node23" class="node"><title>2946793066256</title>
<ellipse fill="none" stroke="black" cx="1557" cy="-232.141" rx="27" ry="27"/>
</g>
<!-- 2946948774928&#45;&gt;2946793066256 -->
<g id="edge35" class="edge"><title>2946948774928&#45;&gt;2946793066256</title>
<path fill="none" stroke="black" d="M1494.4,-232.141C1502.39,-232.141 1511.31,-232.141 1519.82,-232.141"/>
<polygon fill="black" stroke="black" points="1519.92,-235.641 1529.92,-232.141 1519.92,-228.641 1519.92,-235.641"/>
</g>
<!-- 2946793065392 -->
<g id="node14" class="node"><title>2946793065392</title>
<polygon fill="none" stroke="black" points="1314,-214.141 1260,-214.141 1260,-178.141 1314,-178.141 1314,-214.141"/>
<text text-anchor="middle" x="1287" y="-193.041" font-family="Times New Roman,serif" font-size="12.00">E</text>
</g>
<!-- 2946793065392&#45;&gt;2946793063568 -->
<g id="edge6" class="edge"><title>2946793065392&#45;&gt;2946793063568</title>
<path fill="none" stroke="black" d="M1314.4,-206.942C1323.2,-210.539 1333.11,-214.595 1342.37,-218.385"/>
<polygon fill="black" stroke="black" points="1341.14,-221.661 1351.72,-222.208 1343.79,-215.182 1341.14,-221.661"/>
</g>
<!-- 2946948773584 -->
<g id="node15" class="node"><title>2946948773584</title>
<polygon fill="black" stroke="black" points="1314,-160.141 1260,-160.141 1260,-124.141 1314,-124.141 1314,-160.141"/>
</g>
<!-- 2946948773632 -->
<g id="node33" class="node"><title>2946948773632</title>
<ellipse fill="orange" stroke="black" cx="1377" cy="-151.141" rx="27" ry="27"/>
</g>
<!-- 2946948773584&#45;&gt;2946948773632 -->
<g id="edge30" class="edge"><title>2946948773584&#45;&gt;2946948773632</title>
<path fill="none" stroke="black" d="M1314.4,-144.842C1322.39,-145.659 1331.31,-146.571 1339.82,-147.441"/>
<polygon fill="black" stroke="black" points="1339.61,-150.938 1349.92,-148.474 1340.33,-143.975 1339.61,-150.938"/>
</g>
<!-- 2946792759408 -->
<g id="node16" class="node"><title>2946792759408</title>
<polygon fill="black" stroke="black" points="594,-59.1413 540,-59.1413 540,-23.1413 594,-23.1413 594,-59.1413"/>
</g>
<!-- 2946948775168 -->
<g id="node32" class="node"><title>2946948775168</title>
<ellipse fill="none" stroke="black" cx="657" cy="-41.1413" rx="27" ry="27"/>
</g>
<!-- 2946792759408&#45;&gt;2946948775168 -->
<g id="edge37" class="edge"><title>2946792759408&#45;&gt;2946948775168</title>
<path fill="none" stroke="black" d="M594.403,-41.1413C602.393,-41.1413 611.311,-41.1413 619.824,-41.1413"/>
<polygon fill="black" stroke="black" points="619.919,-44.6414 629.919,-41.1413 619.919,-37.6414 619.919,-44.6414"/>
</g>
<!-- 2946948773344 -->
<g id="node17" class="node"><title>2946948773344</title>
<polygon fill="black" stroke="black" points="864,-36.1413 810,-36.1413 810,-0.141257 864,-0.141257 864,-36.1413"/>
</g>
<!-- 2946948773344&#45;&gt;2946948773968 -->
<g id="edge36" class="edge"><title>2946948773344&#45;&gt;2946948773968</title>
<path fill="none" stroke="black" d="M864.273,-25.8876C898.769,-35.3581 961.367,-50.1413 1016,-50.1413 1016,-50.1413 1016,-50.1413 1918,-50.1413 1982.63,-50.1413 2041.77,-104.853 2072.94,-139.767"/>
<polygon fill="black" stroke="black" points="2070.31,-142.078 2079.52,-147.317 2075.59,-137.479 2070.31,-142.078"/>
</g>
<!-- 2946948773248 -->
<g id="node18" class="node"><title>2946948773248</title>
<ellipse fill="green" stroke="black" cx="1197" cy="-241.141" rx="27" ry="27"/>
<text text-anchor="middle" x="1197" y="-238.041" font-family="Times New Roman,serif" font-size="12.00">1</text>
</g>
<!-- 2946948773248&#45;&gt;2946948772096 -->
<g id="edge13" class="edge"><title>2946948773248&#45;&gt;2946948772096</title>
<path fill="none" stroke="black" d="M1223.93,-243.793C1232.09,-244.628 1241.26,-245.565 1249.99,-246.458"/>
<polygon fill="black" stroke="black" points="1249.65,-249.942 1259.95,-247.477 1250.36,-242.978 1249.65,-249.942"/>
</g>
<!-- 2946793063856&#45;&gt;2946793065536 -->
<g id="edge10" class="edge"><title>2946793063856&#45;&gt;2946793065536</title>
<path fill="none" stroke="black" d="M1717.72,-251.327C1687.51,-280.874 1623.89,-334.141 1558,-334.141 206,-334.141 206,-334.141 206,-334.141 111.544,-334.141 56.8425,-208.982 36.8091,-151.912"/>
<polygon fill="black" stroke="black" points="40.1104,-150.749 33.5744,-142.41 33.4839,-153.004 40.1104,-150.749"/>
</g>
<!-- 2946793063856&#45;&gt;2946792743456 -->
<g id="edge9" class="edge"><title>2946793063856&#45;&gt;2946792743456</title>
<path fill="none" stroke="black" d="M1759.3,-216.649C1769.35,-209.338 1781.58,-200.444 1792.81,-192.278"/>
<polygon fill="black" stroke="black" points="1795.12,-194.926 1801.15,-186.214 1791,-189.265 1795.12,-194.926"/>
</g>
<!-- 2946792745328&#45;&gt;2946948775264 -->
<g id="edge11" class="edge"><title>2946792745328&#45;&gt;2946948775264</title>
<path fill="none" stroke="black" d="M681.121,-164.278C690.244,-169.462 700.927,-175.531 710.96,-181.232"/>
<polygon fill="black" stroke="black" points="709.505,-184.431 719.928,-186.328 712.963,-178.345 709.505,-184.431"/>
</g>
<!-- 2946792745328&#45;&gt;2946792743024 -->
<g id="edge12" class="edge"><title>2946792745328&#45;&gt;2946792743024</title>
<path fill="none" stroke="black" d="M684.403,-149.941C692.393,-149.578 701.311,-149.173 709.824,-148.786"/>
<polygon fill="black" stroke="black" points="710.088,-152.277 719.919,-148.327 709.77,-145.285 710.088,-152.277"/>
</g>
<!-- 2946792744224&#45;&gt;2946792743744 -->
<g id="edge14" class="edge"><title>2946792744224&#45;&gt;2946792743744</title>
<path fill="none" stroke="black" d="M143.453,-130.794C151.788,-132.972 161.21,-135.435 170.165,-137.775"/>
<polygon fill="black" stroke="black" points="169.433,-141.202 179.993,-140.344 171.203,-134.429 169.433,-141.202"/>
</g>
<!-- 2946948775504&#45;&gt;2946948774496 -->
<g id="edge15" class="edge"><title>2946948775504&#45;&gt;2946948774496</title>
<path fill="none" stroke="black" d="M864.403,-160.141C872.393,-160.141 881.311,-160.141 889.824,-160.141"/>
<polygon fill="black" stroke="black" points="889.919,-163.641 899.919,-160.141 889.919,-156.641 889.919,-163.641"/>
</g>
<!-- 2946793066256&#45;&gt;2946792745472 -->
<g id="edge16" class="edge"><title>2946793066256&#45;&gt;2946792745472</title>
<path fill="none" stroke="black" d="M1584.4,-232.141C1592.39,-232.141 1601.31,-232.141 1609.82,-232.141"/>
<polygon fill="black" stroke="black" points="1609.92,-235.641 1619.92,-232.141 1609.92,-228.641 1609.92,-235.641"/>
</g>
<!-- 2946792745184&#45;&gt;2946793066112 -->
<g id="edge17" class="edge"><title>2946792745184&#45;&gt;2946793066112</title>
<path fill="none" stroke="black" d="M324.403,-151.141C332.393,-151.141 341.311,-151.141 349.824,-151.141"/>
<polygon fill="black" stroke="black" points="349.919,-154.641 359.919,-151.141 349.919,-147.641 349.919,-154.641"/>
</g>
<!-- 2946792745088&#45;&gt;2946948774112 -->
<g id="edge18" class="edge"><title>2946792745088&#45;&gt;2946948774112</title>
<path fill="none" stroke="black" d="M504.403,-151.141C512.393,-151.141 521.311,-151.141 529.824,-151.141"/>
<polygon fill="black" stroke="black" points="529.919,-154.641 539.919,-151.141 529.919,-147.641 529.919,-154.641"/>
</g>
<!-- 2946948775072&#45;&gt;2946948775360 -->
<g id="edge19" class="edge"><title>2946948775072&#45;&gt;2946948775360</title>
<path fill="none" stroke="black" d="M1044.4,-160.141C1052.39,-160.141 1061.31,-160.141 1069.82,-160.141"/>
<polygon fill="black" stroke="black" points="1069.92,-163.641 1079.92,-160.141 1069.92,-156.641 1069.92,-163.641"/>
</g>
<!-- 2946793063568&#45;&gt;2946948774928 -->
<g id="edge20" class="edge"><title>2946793063568&#45;&gt;2946948774928</title>
<path fill="none" stroke="black" d="M1404.4,-232.141C1412.39,-232.141 1421.31,-232.141 1429.82,-232.141"/>
<polygon fill="black" stroke="black" points="1429.92,-235.641 1439.92,-232.141 1429.92,-228.641 1429.92,-235.641"/>
</g>
<!-- 2946793066208&#45;&gt;2946793065392 -->
<g id="edge21" class="edge"><title>2946793066208&#45;&gt;2946793065392</title>
<path fill="none" stroke="black" d="M1222.51,-170.169C1231.12,-173.69 1240.97,-177.72 1250.31,-181.539"/>
<polygon fill="black" stroke="black" points="1249.19,-184.865 1259.77,-185.412 1251.84,-178.386 1249.19,-184.865"/>
</g>
<!-- 2946793066208&#45;&gt;2946948773584 -->
<g id="edge22" class="edge"><title>2946793066208&#45;&gt;2946948773584</title>
<path fill="none" stroke="black" d="M1223.93,-154.838C1232.09,-153.168 1241.26,-151.293 1249.99,-149.507"/>
<polygon fill="black" stroke="black" points="1250.86,-152.902 1259.95,-147.469 1249.46,-146.044 1250.86,-152.902"/>
</g>
<!-- 2946792744800&#45;&gt;2946792759408 -->
<g id="edge24" class="edge"><title>2946792744800&#45;&gt;2946792759408</title>
<path fill="none" stroke="black" d="M504.403,-41.1413C512.393,-41.1413 521.311,-41.1413 529.824,-41.1413"/>
<polygon fill="black" stroke="black" points="529.919,-44.6414 539.919,-41.1413 529.919,-37.6414 529.919,-44.6414"/>
</g>
<!-- 2946792744800&#45;&gt;2946948773344 -->
<g id="edge23" class="edge"><title>2946792744800&#45;&gt;2946948773344</title>
<path fill="none" stroke="black" d="M501.231,-28.9721C512.616,-23.5464 526.709,-17.6087 540,-14.1413 631.056,9.61346 743.284,-2.65917 799.816,-11.5746"/>
<polygon fill="black" stroke="black" points="799.272,-15.0321 809.705,-13.1908 800.401,-8.12373 799.272,-15.0321"/>
</g>
<!-- 2946796464496&#45;&gt;2946796465408 -->
<g id="edge25" class="edge"><title>2946796464496&#45;&gt;2946796465408</title>
<path fill="none" stroke="black" d="M1944.4,-168.141C1952.39,-168.141 1961.31,-168.141 1969.82,-168.141"/>
<polygon fill="black" stroke="black" points="1969.92,-171.641 1979.92,-168.141 1969.92,-164.641 1969.92,-171.641"/>
</g>
<!-- 2946948773968&#45;&gt;2946948775264 -->
<g id="edge26" class="edge"><title>2946948773968&#45;&gt;2946948775264</title>
<path fill="none" stroke="black" d="M2080.59,-189.855C2052.68,-226.374 1989.94,-296.141 1918,-296.141 926,-296.141 926,-296.141 926,-296.141 866.583,-296.141 807.757,-254.433 774.825,-226.288"/>
<polygon fill="black" stroke="black" points="776.854,-223.413 767.025,-219.458 772.243,-228.679 776.854,-223.413"/>
</g>
<!-- 2946948775168&#45;&gt;2946792743024 -->
<g id="edge27" class="edge"><title>2946948775168&#45;&gt;2946792743024</title>
<path fill="none" stroke="black" d="M674.967,-61.5791C689,-78.4824 709.023,-102.6 724.235,-120.924"/>
<polygon fill="black" stroke="black" points="721.767,-123.431 730.847,-128.889 727.153,-118.959 721.767,-123.431"/>
</g>
</g>
</svg>
