<?xml version="1.0" encoding="UTF-8" standalone="no"?>
<!DOCTYPE svg PUBLIC "-//W3C//DTD SVG 1.1//EN"
 "http://www.w3.org/Graphics/SVG/1.1/DTD/svg11.dtd">
<!-- Generated by graphviz version 2.38.0 (20140413.2041)
 -->
<!-- Title: &#45;&gt;( X( *tau*, &#39;a&#39;, &#39;b&#39; ), &#39;c&#39;, X( *tau*, &#39;d&#39; ) ) Pages: 1 -->
<svg width="1682pt" height="152pt"
 viewBox="0.00 0.00 1682.00 152.00" xmlns="http://www.w3.org/2000/svg" xmlns:xlink="http://www.w3.org/1999/xlink">
<g id="graph0" class="graph" transform="scale(1 1) rotate(0) translate(4 148)">
<title>&#45;&gt;( X( *tau*, &#39;a&#39;, &#39;b&#39; ), &#39;c&#39;, X( *tau*, &#39;d&#39; ) )</title>
<!-- 2591202549280 -->
<g id="node1" class="node"><title>2591202549280</title>
<polygon fill="black" stroke="black" points="504,-144 450,-144 450,-108 504,-108 504,-144"/>
</g>
<!-- 2591202611312 -->
<g id="node16" class="node"><title>2591202611312</title>
<ellipse fill="none" stroke="black" cx="567" cy="-72" rx="27" ry="27"/>
</g>
<!-- 2591202549280&#45;&gt;2591202611312 -->
<g id="edge2" class="edge"><title>2591202549280&#45;&gt;2591202611312</title>
<path fill="none" stroke="black" d="M504.403,-109.798C513.938,-103.947 524.793,-97.2858 534.707,-91.2023"/>
<polygon fill="black" stroke="black" points="536.79,-94.031 543.482,-85.8176 533.129,-88.0647 536.79,-94.031"/>
</g>
<!-- 2591202549472 -->
<g id="node2" class="node"><title>2591202549472</title>
<polygon fill="none" stroke="black" points="504,-90 450,-90 450,-54 504,-54 504,-90"/>
<text text-anchor="middle" x="477" y="-68.9" font-family="Times New Roman,serif" font-size="12.00">a</text>
</g>
<!-- 2591202549472&#45;&gt;2591202611312 -->
<g id="edge3" class="edge"><title>2591202549472&#45;&gt;2591202611312</title>
<path fill="none" stroke="black" d="M504.403,-72C512.393,-72 521.311,-72 529.824,-72"/>
<polygon fill="black" stroke="black" points="529.919,-75.5001 539.919,-72 529.919,-68.5001 529.919,-75.5001"/>
</g>
<!-- 2591202549664 -->
<g id="node3" class="node"><title>2591202549664</title>
<polygon fill="none" stroke="black" points="504,-36 450,-36 450,-0 504,-0 504,-36"/>
<text text-anchor="middle" x="477" y="-14.9" font-family="Times New Roman,serif" font-size="12.00">b</text>
</g>
<!-- 2591202549664&#45;&gt;2591202611312 -->
<g id="edge4" class="edge"><title>2591202549664&#45;&gt;2591202611312</title>
<path fill="none" stroke="black" d="M504.403,-34.2018C513.938,-40.053 524.793,-46.7142 534.707,-52.7977"/>
<polygon fill="black" stroke="black" points="533.129,-55.9353 543.482,-58.1824 536.79,-49.969 533.129,-55.9353"/>
</g>
<!-- 2591202549184 -->
<g id="node4" class="node"><title>2591202549184</title>
<polygon fill="none" stroke="black" points="864,-90 810,-90 810,-54 864,-54 864,-90"/>
<text text-anchor="middle" x="837" y="-68.9" font-family="Times New Roman,serif" font-size="12.00">c</text>
</g>
<!-- 2591202612464 -->
<g id="node20" class="node"><title>2591202612464</title>
<ellipse fill="none" stroke="black" cx="927" cy="-72" rx="27" ry="27"/>
</g>
<!-- 2591202549184&#45;&gt;2591202612464 -->
<g id="edge1" class="edge"><title>2591202549184&#45;&gt;2591202612464</title>
<path fill="none" stroke="black" d="M864.403,-72C872.393,-72 881.311,-72 889.824,-72"/>
<polygon fill="black" stroke="black" points="889.919,-75.5001 899.919,-72 889.919,-68.5001 889.919,-75.5001"/>
</g>
<!-- 2591202612512 -->
<g id="node5" class="node"><title>2591202612512</title>
<polygon fill="black" stroke="black" points="1224,-117 1170,-117 1170,-81 1224,-81 1224,-117"/>
</g>
<!-- 2591202612848 -->
<g id="node17" class="node"><title>2591202612848</title>
<ellipse fill="none" stroke="black" cx="1287" cy="-72" rx="27" ry="27"/>
</g>
<!-- 2591202612512&#45;&gt;2591202612848 -->
<g id="edge5" class="edge"><title>2591202612512&#45;&gt;2591202612848</title>
<path fill="none" stroke="black" d="M1224.4,-90.8991C1232.79,-88.3259 1242.2,-85.4394 1251.09,-82.7117"/>
<polygon fill="black" stroke="black" points="1252.29,-86.004 1260.82,-79.7247 1250.24,-79.3119 1252.29,-86.004"/>
</g>
<!-- 2591202612704 -->
<g id="node6" class="node"><title>2591202612704</title>
<polygon fill="none" stroke="black" points="1224,-63 1170,-63 1170,-27 1224,-27 1224,-63"/>
<text text-anchor="middle" x="1197" y="-41.9" font-family="Times New Roman,serif" font-size="12.00">d</text>
</g>
<!-- 2591202612704&#45;&gt;2591202612848 -->
<g id="edge6" class="edge"><title>2591202612704&#45;&gt;2591202612848</title>
<path fill="none" stroke="black" d="M1224.4,-53.1009C1232.79,-55.6741 1242.2,-58.5606 1251.09,-61.2883"/>
<polygon fill="black" stroke="black" points="1250.24,-64.6881 1260.82,-64.2753 1252.29,-57.996 1250.24,-64.6881"/>
</g>
<!-- 2591202614432 -->
<g id="node7" class="node"><title>2591202614432</title>
<polygon fill="black" stroke="black" points="144,-90 90,-90 90,-54 144,-54 144,-90"/>
</g>
<!-- 2591202546448 -->
<g id="node18" class="node"><title>2591202546448</title>
<ellipse fill="none" stroke="black" cx="207" cy="-72" rx="27" ry="27"/>
</g>
<!-- 2591202614432&#45;&gt;2591202546448 -->
<g id="edge19" class="edge"><title>2591202614432&#45;&gt;2591202546448</title>
<path fill="none" stroke="black" d="M144.403,-72C152.393,-72 161.311,-72 169.824,-72"/>
<polygon fill="black" stroke="black" points="169.919,-75.5001 179.919,-72 169.919,-68.5001 169.919,-75.5001"/>
</g>
<!-- 2591202614624 -->
<g id="node8" class="node"><title>2591202614624</title>
<polygon fill="black" stroke="black" points="1584,-90 1530,-90 1530,-54 1584,-54 1584,-90"/>
</g>
<!-- 2591202614912 -->
<g id="node22" class="node"><title>2591202614912</title>
<ellipse fill="orange" stroke="black" cx="1647" cy="-72" rx="27" ry="27"/>
</g>
<!-- 2591202614624&#45;&gt;2591202614912 -->
<g id="edge20" class="edge"><title>2591202614624&#45;&gt;2591202614912</title>
<path fill="none" stroke="black" d="M1584.4,-72C1592.39,-72 1601.31,-72 1609.82,-72"/>
<polygon fill="black" stroke="black" points="1609.92,-75.5001 1619.92,-72 1609.92,-68.5001 1609.92,-75.5001"/>
</g>
<!-- 2591202612176 -->
<g id="node9" class="node"><title>2591202612176</title>
<polygon fill="black" stroke="black" points="684,-90 630,-90 630,-54 684,-54 684,-90"/>
</g>
<!-- 2591202612656 -->
<g id="node19" class="node"><title>2591202612656</title>
<ellipse fill="none" stroke="black" cx="747" cy="-72" rx="27" ry="27"/>
</g>
<!-- 2591202612176&#45;&gt;2591202612656 -->
<g id="edge24" class="edge"><title>2591202612176&#45;&gt;2591202612656</title>
<path fill="none" stroke="black" d="M684.403,-72C692.393,-72 701.311,-72 709.824,-72"/>
<polygon fill="black" stroke="black" points="709.919,-75.5001 719.919,-72 709.919,-68.5001 709.919,-75.5001"/>
</g>
<!-- 2591202611408 -->
<g id="node10" class="node"><title>2591202611408</title>
<polygon fill="black" stroke="black" points="324,-90 270,-90 270,-54 324,-54 324,-90"/>
</g>
<!-- 2591202549136 -->
<g id="node14" class="node"><title>2591202549136</title>
<ellipse fill="none" stroke="black" cx="387" cy="-72" rx="27" ry="27"/>
</g>
<!-- 2591202611408&#45;&gt;2591202549136 -->
<g id="edge22" class="edge"><title>2591202611408&#45;&gt;2591202549136</title>
<path fill="none" stroke="black" d="M324.403,-72C332.393,-72 341.311,-72 349.824,-72"/>
<polygon fill="black" stroke="black" points="349.919,-75.5001 359.919,-72 349.919,-68.5001 349.919,-75.5001"/>
</g>
<!-- 2591202613520 -->
<g id="node11" class="node"><title>2591202613520</title>
<polygon fill="black" stroke="black" points="1404,-90 1350,-90 1350,-54 1404,-54 1404,-90"/>
</g>
<!-- 2591202613760 -->
<g id="node21" class="node"><title>2591202613760</title>
<ellipse fill="none" stroke="black" cx="1467" cy="-72" rx="27" ry="27"/>
</g>
<!-- 2591202613520&#45;&gt;2591202613760 -->
<g id="edge23" class="edge"><title>2591202613520&#45;&gt;2591202613760</title>
<path fill="none" stroke="black" d="M1404.4,-72C1412.39,-72 1421.31,-72 1429.82,-72"/>
<polygon fill="black" stroke="black" points="1429.92,-75.5001 1439.92,-72 1429.92,-68.5001 1429.92,-75.5001"/>
</g>
<!-- 2591202612944 -->
<g id="node12" class="node"><title>2591202612944</title>
<polygon fill="black" stroke="black" points="1044,-90 990,-90 990,-54 1044,-54 1044,-90"/>
</g>
<!-- 2591202612368 -->
<g id="node15" class="node"><title>2591202612368</title>
<ellipse fill="none" stroke="black" cx="1107" cy="-72" rx="27" ry="27"/>
</g>
<!-- 2591202612944&#45;&gt;2591202612368 -->
<g id="edge21" class="edge"><title>2591202612944&#45;&gt;2591202612368</title>
<path fill="none" stroke="black" d="M1044.4,-72C1052.39,-72 1061.31,-72 1069.82,-72"/>
<polygon fill="black" stroke="black" points="1069.92,-75.5001 1079.92,-72 1069.92,-68.5001 1069.92,-75.5001"/>
</g>
<!-- 2591202614816 -->
<g id="node13" class="node"><title>2591202614816</title>
<ellipse fill="green" stroke="black" cx="27" cy="-72" rx="27" ry="27"/>
<text text-anchor="middle" x="27" y="-68.9" font-family="Times New Roman,serif" font-size="12.00">1</text>
</g>
<!-- 2591202614816&#45;&gt;2591202614432 -->
<g id="edge18" class="edge"><title>2591202614816&#45;&gt;2591202614432</title>
<path fill="none" stroke="black" d="M54.4029,-72C62.3932,-72 71.3106,-72 79.8241,-72"/>
<polygon fill="black" stroke="black" points="79.919,-75.5001 89.919,-72 79.919,-68.5001 79.919,-75.5001"/>
</g>
<!-- 2591202549136&#45;&gt;2591202549280 -->
<g id="edge7" class="edge"><title>2591202549136&#45;&gt;2591202549280</title>
<path fill="none" stroke="black" d="M410.662,-85.9063C419.958,-91.6104 430.93,-98.3431 441.201,-104.646"/>
<polygon fill="black" stroke="black" points="439.634,-107.791 449.988,-110.038 443.295,-101.825 439.634,-107.791"/>
</g>
<!-- 2591202549136&#45;&gt;2591202549472 -->
<g id="edge8" class="edge"><title>2591202549136&#45;&gt;2591202549472</title>
<path fill="none" stroke="black" d="M414.403,-72C422.393,-72 431.311,-72 439.824,-72"/>
<polygon fill="black" stroke="black" points="439.919,-75.5001 449.919,-72 439.919,-68.5001 439.919,-75.5001"/>
</g>
<!-- 2591202549136&#45;&gt;2591202549664 -->
<g id="edge9" class="edge"><title>2591202549136&#45;&gt;2591202549664</title>
<path fill="none" stroke="black" d="M410.662,-58.0937C419.958,-52.3896 430.93,-45.6569 441.201,-39.3538"/>
<polygon fill="black" stroke="black" points="443.295,-42.1754 449.988,-33.9621 439.634,-36.2092 443.295,-42.1754"/>
</g>
<!-- 2591202612368&#45;&gt;2591202612512 -->
<g id="edge10" class="edge"><title>2591202612368&#45;&gt;2591202612512</title>
<path fill="none" stroke="black" d="M1132.98,-79.6649C1141.42,-82.2524 1151,-85.1941 1160.11,-87.9885"/>
<polygon fill="black" stroke="black" points="1159.14,-91.3519 1169.73,-90.9391 1161.19,-84.6598 1159.14,-91.3519"/>
</g>
<!-- 2591202612368&#45;&gt;2591202612704 -->
<g id="edge11" class="edge"><title>2591202612368&#45;&gt;2591202612704</title>
<path fill="none" stroke="black" d="M1132.98,-64.3351C1141.42,-61.7476 1151,-58.8059 1160.11,-56.0115"/>
<polygon fill="black" stroke="black" points="1161.19,-59.3402 1169.73,-53.0609 1159.14,-52.6481 1161.19,-59.3402"/>
</g>
<!-- 2591202611312&#45;&gt;2591202612176 -->
<g id="edge12" class="edge"><title>2591202611312&#45;&gt;2591202612176</title>
<path fill="none" stroke="black" d="M594.403,-72C602.393,-72 611.311,-72 619.824,-72"/>
<polygon fill="black" stroke="black" points="619.919,-75.5001 629.919,-72 619.919,-68.5001 619.919,-75.5001"/>
</g>
<!-- 2591202612848&#45;&gt;2591202613520 -->
<g id="edge13" class="edge"><title>2591202612848&#45;&gt;2591202613520</title>
<path fill="none" stroke="black" d="M1314.4,-72C1322.39,-72 1331.31,-72 1339.82,-72"/>
<polygon fill="black" stroke="black" points="1339.92,-75.5001 1349.92,-72 1339.92,-68.5001 1339.92,-75.5001"/>
</g>
<!-- 2591202546448&#45;&gt;2591202611408 -->
<g id="edge14" class="edge"><title>2591202546448&#45;&gt;2591202611408</title>
<path fill="none" stroke="black" d="M234.403,-72C242.393,-72 251.311,-72 259.824,-72"/>
<polygon fill="black" stroke="black" points="259.919,-75.5001 269.919,-72 259.919,-68.5001 259.919,-75.5001"/>
</g>
<!-- 2591202612656&#45;&gt;2591202549184 -->
<g id="edge15" class="edge"><title>2591202612656&#45;&gt;2591202549184</title>
<path fill="none" stroke="black" d="M774.403,-72C782.393,-72 791.311,-72 799.824,-72"/>
<polygon fill="black" stroke="black" points="799.919,-75.5001 809.919,-72 799.919,-68.5001 799.919,-75.5001"/>
</g>
<!-- 2591202612464&#45;&gt;2591202612944 -->
<g id="edge16" class="edge"><title>2591202612464&#45;&gt;2591202612944</title>
<path fill="none" stroke="black" d="M954.403,-72C962.393,-72 971.311,-72 979.824,-72"/>
<polygon fill="black" stroke="black" points="979.919,-75.5001 989.919,-72 979.919,-68.5001 979.919,-75.5001"/>
</g>
<!-- 2591202613760&#45;&gt;2591202614624 -->
<g id="edge17" class="edge"><title>2591202613760&#45;&gt;2591202614624</title>
<path fill="none" stroke="black" d="M1494.4,-72C1502.39,-72 1511.31,-72 1519.82,-72"/>
<polygon fill="black" stroke="black" points="1519.92,-75.5001 1529.92,-72 1519.92,-68.5001 1519.92,-75.5001"/>
</g>
</g>
</svg>
