<?xml version="1.0" encoding="UTF-8" standalone="no"?>
<!DOCTYPE svg PUBLIC "-//W3C//DTD SVG 1.1//EN"
 "http://www.w3.org/Graphics/SVG/1.1/DTD/svg11.dtd">
<!-- Generated by graphviz version 2.38.0 (20140413.2041)
 -->
<!-- Title: &#45;&gt;( &#39;A&#39;, &#39;B1&#39;, X( &#39;D2&#39;, &#39;D&#39; ), &#39;B2&#39;, &#39;C&#39;, X( &#39;E&#39;, &#39;F&#39; ) ) Pages: 1 -->
<svg width="2222pt" height="228pt"
 viewBox="0.00 0.00 2222.00 228.00" xmlns="http://www.w3.org/2000/svg" xmlns:xlink="http://www.w3.org/1999/xlink">
<g id="graph0" class="graph" transform="scale(1 1) rotate(0) translate(4 224)">
<title>&#45;&gt;( &#39;A&#39;, &#39;B1&#39;, X( &#39;D2&#39;, &#39;D&#39; ), &#39;B2&#39;, &#39;C&#39;, X( &#39;E&#39;, &#39;F&#39; ) )</title>
<!-- 2030919411744 -->
<g id="node1" class="node"><title>2030919411744</title>
<polygon fill="none" stroke="black" points="324,-117 270,-117 270,-81 324,-81 324,-117"/>
<text text-anchor="middle" x="297" y="-95.9" font-family="Times New Roman,serif" font-size="12.00">A</text>
</g>
<!-- 2030919342736 -->
<g id="node25" class="node"><title>2030919342736</title>
<ellipse fill="none" stroke="black" cx="387" cy="-99" rx="27" ry="27"/>
</g>
<!-- 2030919411744&#45;&gt;2030919342736 -->
<g id="edge1" class="edge"><title>2030919411744&#45;&gt;2030919342736</title>
<path fill="none" stroke="black" d="M324.403,-99C332.393,-99 341.311,-99 349.824,-99"/>
<polygon fill="black" stroke="black" points="349.919,-102.5 359.919,-99 349.919,-95.5001 349.919,-102.5"/>
</g>
<!-- 2030919342112 -->
<g id="node2" class="node"><title>2030919342112</title>
<polygon fill="none" stroke="black" points="864,-144 810,-144 810,-108 864,-108 864,-144"/>
<text text-anchor="middle" x="837" y="-122.9" font-family="Times New Roman,serif" font-size="12.00">D2</text>
</g>
<!-- 2030919342256 -->
<g id="node22" class="node"><title>2030919342256</title>
<ellipse fill="none" stroke="black" cx="927" cy="-99" rx="27" ry="27"/>
</g>
<!-- 2030919342112&#45;&gt;2030919342256 -->
<g id="edge7" class="edge"><title>2030919342112&#45;&gt;2030919342256</title>
<path fill="none" stroke="black" d="M864.403,-117.899C872.79,-115.326 882.197,-112.439 891.088,-109.712"/>
<polygon fill="black" stroke="black" points="892.29,-113.004 900.823,-106.725 890.236,-106.312 892.29,-113.004"/>
</g>
<!-- 2030919413328 -->
<g id="node30" class="node"><title>2030919413328</title>
<ellipse fill="none" stroke="black" cx="927" cy="-171" rx="27" ry="27"/>
</g>
<!-- 2030919342112&#45;&gt;2030919413328 -->
<g id="edge8" class="edge"><title>2030919342112&#45;&gt;2030919413328</title>
<path fill="none" stroke="black" d="M864.403,-139.501C873.611,-144.21 884.049,-149.548 893.683,-154.474"/>
<polygon fill="black" stroke="black" points="892.108,-157.6 902.605,-159.037 895.295,-151.368 892.108,-157.6"/>
</g>
<!-- 2030919341824 -->
<g id="node3" class="node"><title>2030919341824</title>
<polygon fill="none" stroke="black" points="864,-90 810,-90 810,-54 864,-54 864,-90"/>
<text text-anchor="middle" x="837" y="-68.9" font-family="Times New Roman,serif" font-size="12.00">D</text>
</g>
<!-- 2030919341824&#45;&gt;2030919342256 -->
<g id="edge4" class="edge"><title>2030919341824&#45;&gt;2030919342256</title>
<path fill="none" stroke="black" d="M864.403,-80.1009C872.79,-82.6741 882.197,-85.5606 891.088,-88.2883"/>
<polygon fill="black" stroke="black" points="890.236,-91.6881 900.823,-91.2753 892.29,-84.996 890.236,-91.6881"/>
</g>
<!-- 2030919452512 -->
<g id="node31" class="node"><title>2030919452512</title>
<ellipse fill="none" stroke="black" cx="927" cy="-27" rx="27" ry="27"/>
</g>
<!-- 2030919341824&#45;&gt;2030919452512 -->
<g id="edge5" class="edge"><title>2030919341824&#45;&gt;2030919452512</title>
<path fill="none" stroke="black" d="M864.403,-58.4985C873.611,-53.79 884.049,-48.452 893.683,-43.5259"/>
<polygon fill="black" stroke="black" points="895.295,-46.6323 902.605,-38.9632 892.108,-40.3999 895.295,-46.6323"/>
</g>
<!-- 2030919341056 -->
<g id="node4" class="node"><title>2030919341056</title>
<polygon fill="none" stroke="black" points="1224,-141 1170,-141 1170,-105 1224,-105 1224,-141"/>
<text text-anchor="middle" x="1197" y="-119.9" font-family="Times New Roman,serif" font-size="12.00">B2</text>
</g>
<!-- 2030918988320 -->
<g id="node28" class="node"><title>2030918988320</title>
<ellipse fill="none" stroke="black" cx="1287" cy="-123" rx="27" ry="27"/>
</g>
<!-- 2030919341056&#45;&gt;2030918988320 -->
<g id="edge3" class="edge"><title>2030919341056&#45;&gt;2030918988320</title>
<path fill="none" stroke="black" d="M1224.4,-123C1232.39,-123 1241.31,-123 1249.82,-123"/>
<polygon fill="black" stroke="black" points="1249.92,-126.5 1259.92,-123 1249.92,-119.5 1249.92,-126.5"/>
</g>
<!-- 2030919343744 -->
<g id="node5" class="node"><title>2030919343744</title>
<polygon fill="none" stroke="black" points="1404,-141 1350,-141 1350,-105 1404,-105 1404,-141"/>
<text text-anchor="middle" x="1377" y="-119.9" font-family="Times New Roman,serif" font-size="12.00">C</text>
</g>
<!-- 2030918988560 -->
<g id="node29" class="node"><title>2030918988560</title>
<ellipse fill="none" stroke="black" cx="1467" cy="-123" rx="27" ry="27"/>
</g>
<!-- 2030919343744&#45;&gt;2030918988560 -->
<g id="edge6" class="edge"><title>2030919343744&#45;&gt;2030918988560</title>
<path fill="none" stroke="black" d="M1404.4,-123C1412.39,-123 1421.31,-123 1429.82,-123"/>
<polygon fill="black" stroke="black" points="1429.92,-126.5 1439.92,-123 1429.92,-119.5 1429.92,-126.5"/>
</g>
<!-- 2030919342208 -->
<g id="node6" class="node"><title>2030919342208</title>
<polygon fill="none" stroke="black" points="1764,-168 1710,-168 1710,-132 1764,-132 1764,-168"/>
<text text-anchor="middle" x="1737" y="-146.9" font-family="Times New Roman,serif" font-size="12.00">F</text>
</g>
<!-- 2030919341248 -->
<g id="node23" class="node"><title>2030919341248</title>
<ellipse fill="none" stroke="black" cx="1827" cy="-123" rx="27" ry="27"/>
</g>
<!-- 2030919342208&#45;&gt;2030919341248 -->
<g id="edge10" class="edge"><title>2030919342208&#45;&gt;2030919341248</title>
<path fill="none" stroke="black" d="M1764.4,-141.899C1772.79,-139.326 1782.2,-136.439 1791.09,-133.712"/>
<polygon fill="black" stroke="black" points="1792.29,-137.004 1800.82,-130.725 1790.24,-130.312 1792.29,-137.004"/>
</g>
<!-- 2030918954336 -->
<g id="node7" class="node"><title>2030918954336</title>
<polygon fill="black" stroke="black" points="2124,-141 2070,-141 2070,-105 2124,-105 2124,-141"/>
</g>
<!-- 2030918952800 -->
<g id="node34" class="node"><title>2030918952800</title>
<ellipse fill="orange" stroke="black" cx="2187" cy="-123" rx="27" ry="27"/>
</g>
<!-- 2030918954336&#45;&gt;2030918952800 -->
<g id="edge31" class="edge"><title>2030918954336&#45;&gt;2030918952800</title>
<path fill="none" stroke="black" d="M2124.4,-123C2132.39,-123 2141.31,-123 2149.82,-123"/>
<polygon fill="black" stroke="black" points="2149.92,-126.5 2159.92,-123 2149.92,-119.5 2149.92,-126.5"/>
</g>
<!-- 2030918953952 -->
<g id="node8" class="node"><title>2030918953952</title>
<polygon fill="black" stroke="black" points="1044,-54 990,-54 990,-18 1044,-18 1044,-54"/>
</g>
<!-- 2030919343552 -->
<g id="node32" class="node"><title>2030919343552</title>
<ellipse fill="none" stroke="black" cx="1107" cy="-51" rx="27" ry="27"/>
</g>
<!-- 2030918953952&#45;&gt;2030919343552 -->
<g id="edge38" class="edge"><title>2030918953952&#45;&gt;2030919343552</title>
<path fill="none" stroke="black" d="M1044.4,-40.5005C1052.55,-41.8899 1061.67,-43.4436 1070.34,-44.9211"/>
<polygon fill="black" stroke="black" points="1069.78,-48.3758 1080.22,-46.6059 1070.95,-41.4753 1069.78,-48.3758"/>
</g>
<!-- 2030919411888 -->
<g id="node9" class="node"><title>2030919411888</title>
<polygon fill="none" stroke="black" points="504,-117 450,-117 450,-81 504,-81 504,-117"/>
<text text-anchor="middle" x="477" y="-95.9" font-family="Times New Roman,serif" font-size="12.00">B1</text>
</g>
<!-- 2030919342928 -->
<g id="node26" class="node"><title>2030919342928</title>
<ellipse fill="none" stroke="black" cx="567" cy="-99" rx="27" ry="27"/>
</g>
<!-- 2030919411888&#45;&gt;2030919342928 -->
<g id="edge2" class="edge"><title>2030919411888&#45;&gt;2030919342928</title>
<path fill="none" stroke="black" d="M504.403,-99C512.393,-99 521.311,-99 529.824,-99"/>
<polygon fill="black" stroke="black" points="529.919,-102.5 539.919,-99 529.919,-95.5001 529.919,-102.5"/>
</g>
<!-- 2030919340816 -->
<g id="node10" class="node"><title>2030919340816</title>
<polygon fill="black" stroke="black" points="1044,-112 990,-112 990,-76 1044,-76 1044,-112"/>
</g>
<!-- 2030918988128 -->
<g id="node27" class="node"><title>2030918988128</title>
<ellipse fill="none" stroke="black" cx="1107" cy="-123" rx="27" ry="27"/>
</g>
<!-- 2030919340816&#45;&gt;2030918988128 -->
<g id="edge34" class="edge"><title>2030919340816&#45;&gt;2030918988128</title>
<path fill="none" stroke="black" d="M1044.4,-102.701C1052.95,-105.519 1062.57,-108.687 1071.61,-111.667"/>
<polygon fill="black" stroke="black" points="1070.53,-114.996 1081.12,-114.802 1072.72,-108.348 1070.53,-114.996"/>
</g>
<!-- 2030919340720 -->
<g id="node11" class="node"><title>2030919340720</title>
<polygon fill="black" stroke="black" points="684,-117 630,-117 630,-81 684,-81 684,-117"/>
</g>
<!-- 2030919343216 -->
<g id="node20" class="node"><title>2030919343216</title>
<ellipse fill="none" stroke="black" cx="747" cy="-99" rx="27" ry="27"/>
</g>
<!-- 2030919340720&#45;&gt;2030919343216 -->
<g id="edge33" class="edge"><title>2030919340720&#45;&gt;2030919343216</title>
<path fill="none" stroke="black" d="M684.403,-99C692.393,-99 701.311,-99 709.824,-99"/>
<polygon fill="black" stroke="black" points="709.919,-102.5 719.919,-99 709.919,-95.5001 709.919,-102.5"/>
</g>
<!-- 2030919342544 -->
<g id="node12" class="node"><title>2030919342544</title>
<polygon fill="none" stroke="black" points="1764,-114 1710,-114 1710,-78 1764,-78 1764,-114"/>
<text text-anchor="middle" x="1737" y="-92.9" font-family="Times New Roman,serif" font-size="12.00">E</text>
</g>
<!-- 2030919342544&#45;&gt;2030919341248 -->
<g id="edge9" class="edge"><title>2030919342544&#45;&gt;2030919341248</title>
<path fill="none" stroke="black" d="M1764.4,-104.101C1772.79,-106.674 1782.2,-109.561 1791.09,-112.288"/>
<polygon fill="black" stroke="black" points="1790.24,-115.688 1800.82,-115.275 1792.29,-108.996 1790.24,-115.688"/>
</g>
<!-- 2030919342160 -->
<g id="node13" class="node"><title>2030919342160</title>
<polygon fill="black" stroke="black" points="1584,-141 1530,-141 1530,-105 1584,-105 1584,-141"/>
</g>
<!-- 2030919343504 -->
<g id="node19" class="node"><title>2030919343504</title>
<ellipse fill="none" stroke="black" cx="1647" cy="-123" rx="27" ry="27"/>
</g>
<!-- 2030919342160&#45;&gt;2030919343504 -->
<g id="edge32" class="edge"><title>2030919342160&#45;&gt;2030919343504</title>
<path fill="none" stroke="black" d="M1584.4,-123C1592.39,-123 1601.31,-123 1609.82,-123"/>
<polygon fill="black" stroke="black" points="1609.92,-126.5 1619.92,-123 1609.92,-119.5 1609.92,-126.5"/>
</g>
<!-- 2030918988368 -->
<g id="node14" class="node"><title>2030918988368</title>
<polygon fill="black" stroke="black" points="1944,-141 1890,-141 1890,-105 1944,-105 1944,-141"/>
</g>
<!-- 2030918952944 -->
<g id="node21" class="node"><title>2030918952944</title>
<ellipse fill="none" stroke="black" cx="2007" cy="-123" rx="27" ry="27"/>
</g>
<!-- 2030918988368&#45;&gt;2030918952944 -->
<g id="edge35" class="edge"><title>2030918988368&#45;&gt;2030918952944</title>
<path fill="none" stroke="black" d="M1944.4,-123C1952.39,-123 1961.31,-123 1969.82,-123"/>
<polygon fill="black" stroke="black" points="1969.92,-126.5 1979.92,-123 1969.92,-119.5 1969.92,-126.5"/>
</g>
<!-- 2030918954576 -->
<g id="node15" class="node"><title>2030918954576</title>
<polygon fill="black" stroke="black" points="144,-117 90,-117 90,-81 144,-81 144,-117"/>
</g>
<!-- 2030919410256 -->
<g id="node24" class="node"><title>2030919410256</title>
<ellipse fill="none" stroke="black" cx="207" cy="-99" rx="27" ry="27"/>
</g>
<!-- 2030918954576&#45;&gt;2030919410256 -->
<g id="edge30" class="edge"><title>2030918954576&#45;&gt;2030919410256</title>
<path fill="none" stroke="black" d="M144.403,-99C152.393,-99 161.311,-99 169.824,-99"/>
<polygon fill="black" stroke="black" points="169.919,-102.5 179.919,-99 169.919,-95.5001 169.919,-102.5"/>
</g>
<!-- 2030917341040 -->
<g id="node16" class="node"><title>2030917341040</title>
<polygon fill="black" stroke="black" points="1044,-166 990,-166 990,-130 1044,-130 1044,-166"/>
</g>
<!-- 2030917341040&#45;&gt;2030919343552 -->
<g id="edge36" class="edge"><title>2030917341040&#45;&gt;2030919343552</title>
<path fill="none" stroke="black" d="M1035.73,-129.798C1038.52,-126.875 1041.35,-123.868 1044,-121 1056.68,-107.272 1070.49,-91.7369 1081.85,-78.7952"/>
<polygon fill="black" stroke="black" points="1084.63,-80.9413 1088.58,-71.1117 1079.36,-76.3305 1084.63,-80.9413"/>
</g>
<!-- 2030918953328 -->
<g id="node17" class="node"><title>2030918953328</title>
<polygon fill="black" stroke="black" points="1044,-220 990,-220 990,-184 1044,-184 1044,-220"/>
</g>
<!-- 2030918954384 -->
<g id="node33" class="node"><title>2030918954384</title>
<ellipse fill="none" stroke="black" cx="1197" cy="-190" rx="27" ry="27"/>
</g>
<!-- 2030918953328&#45;&gt;2030918954384 -->
<g id="edge37" class="edge"><title>2030918953328&#45;&gt;2030918954384</title>
<path fill="none" stroke="black" d="M1044.26,-200.229C1074.85,-198.167 1125.55,-194.749 1159.84,-192.438"/>
<polygon fill="black" stroke="black" points="1160.18,-195.923 1169.92,-191.758 1159.7,-188.939 1160.18,-195.923"/>
</g>
<!-- 2030918951744 -->
<g id="node18" class="node"><title>2030918951744</title>
<ellipse fill="green" stroke="black" cx="27" cy="-99" rx="27" ry="27"/>
<text text-anchor="middle" x="27" y="-95.9" font-family="Times New Roman,serif" font-size="12.00">1</text>
</g>
<!-- 2030918951744&#45;&gt;2030918954576 -->
<g id="edge16" class="edge"><title>2030918951744&#45;&gt;2030918954576</title>
<path fill="none" stroke="black" d="M54.4029,-99C62.3932,-99 71.3106,-99 79.8241,-99"/>
<polygon fill="black" stroke="black" points="79.919,-102.5 89.919,-99 79.919,-95.5001 79.919,-102.5"/>
</g>
<!-- 2030919343504&#45;&gt;2030919342208 -->
<g id="edge12" class="edge"><title>2030919343504&#45;&gt;2030919342208</title>
<path fill="none" stroke="black" d="M1672.98,-130.665C1681.42,-133.252 1691,-136.194 1700.11,-138.989"/>
<polygon fill="black" stroke="black" points="1699.14,-142.352 1709.73,-141.939 1701.19,-135.66 1699.14,-142.352"/>
</g>
<!-- 2030919343504&#45;&gt;2030919342544 -->
<g id="edge11" class="edge"><title>2030919343504&#45;&gt;2030919342544</title>
<path fill="none" stroke="black" d="M1672.98,-115.335C1681.42,-112.748 1691,-109.806 1700.11,-107.011"/>
<polygon fill="black" stroke="black" points="1701.19,-110.34 1709.73,-104.061 1699.14,-103.648 1701.19,-110.34"/>
</g>
<!-- 2030919343216&#45;&gt;2030919342112 -->
<g id="edge14" class="edge"><title>2030919343216&#45;&gt;2030919342112</title>
<path fill="none" stroke="black" d="M772.982,-106.665C781.415,-109.252 791.003,-112.194 800.111,-114.989"/>
<polygon fill="black" stroke="black" points="799.141,-118.352 809.727,-117.939 801.194,-111.66 799.141,-118.352"/>
</g>
<!-- 2030919343216&#45;&gt;2030919341824 -->
<g id="edge13" class="edge"><title>2030919343216&#45;&gt;2030919341824</title>
<path fill="none" stroke="black" d="M772.982,-91.3351C781.415,-88.7476 791.003,-85.8059 800.111,-83.0115"/>
<polygon fill="black" stroke="black" points="801.194,-86.3402 809.727,-80.0609 799.141,-79.6481 801.194,-86.3402"/>
</g>
<!-- 2030918952944&#45;&gt;2030918954336 -->
<g id="edge15" class="edge"><title>2030918952944&#45;&gt;2030918954336</title>
<path fill="none" stroke="black" d="M2034.4,-123C2042.39,-123 2051.31,-123 2059.82,-123"/>
<polygon fill="black" stroke="black" points="2059.92,-126.5 2069.92,-123 2059.92,-119.5 2059.92,-126.5"/>
</g>
<!-- 2030919342256&#45;&gt;2030919340816 -->
<g id="edge17" class="edge"><title>2030919342256&#45;&gt;2030919340816</title>
<path fill="none" stroke="black" d="M954.403,-97.4998C962.393,-97.0458 971.311,-96.5392 979.824,-96.0555"/>
<polygon fill="black" stroke="black" points="980.134,-99.5436 989.919,-95.4819 979.737,-92.5549 980.134,-99.5436"/>
</g>
<!-- 2030919341248&#45;&gt;2030918988368 -->
<g id="edge18" class="edge"><title>2030919341248&#45;&gt;2030918988368</title>
<path fill="none" stroke="black" d="M1854.4,-123C1862.39,-123 1871.31,-123 1879.82,-123"/>
<polygon fill="black" stroke="black" points="1879.92,-126.5 1889.92,-123 1879.92,-119.5 1879.92,-126.5"/>
</g>
<!-- 2030919410256&#45;&gt;2030919411744 -->
<g id="edge19" class="edge"><title>2030919410256&#45;&gt;2030919411744</title>
<path fill="none" stroke="black" d="M234.403,-99C242.393,-99 251.311,-99 259.824,-99"/>
<polygon fill="black" stroke="black" points="259.919,-102.5 269.919,-99 259.919,-95.5001 259.919,-102.5"/>
</g>
<!-- 2030919342736&#45;&gt;2030919411888 -->
<g id="edge20" class="edge"><title>2030919342736&#45;&gt;2030919411888</title>
<path fill="none" stroke="black" d="M414.403,-99C422.393,-99 431.311,-99 439.824,-99"/>
<polygon fill="black" stroke="black" points="439.919,-102.5 449.919,-99 439.919,-95.5001 439.919,-102.5"/>
</g>
<!-- 2030919342928&#45;&gt;2030919340720 -->
<g id="edge21" class="edge"><title>2030919342928&#45;&gt;2030919340720</title>
<path fill="none" stroke="black" d="M594.403,-99C602.393,-99 611.311,-99 619.824,-99"/>
<polygon fill="black" stroke="black" points="619.919,-102.5 629.919,-99 619.919,-95.5001 619.919,-102.5"/>
</g>
<!-- 2030918988128&#45;&gt;2030919341056 -->
<g id="edge22" class="edge"><title>2030918988128&#45;&gt;2030919341056</title>
<path fill="none" stroke="black" d="M1134.4,-123C1142.39,-123 1151.31,-123 1159.82,-123"/>
<polygon fill="black" stroke="black" points="1159.92,-126.5 1169.92,-123 1159.92,-119.5 1159.92,-126.5"/>
</g>
<!-- 2030918988320&#45;&gt;2030919343744 -->
<g id="edge23" class="edge"><title>2030918988320&#45;&gt;2030919343744</title>
<path fill="none" stroke="black" d="M1314.4,-123C1322.39,-123 1331.31,-123 1339.82,-123"/>
<polygon fill="black" stroke="black" points="1339.92,-126.5 1349.92,-123 1339.92,-119.5 1339.92,-126.5"/>
</g>
<!-- 2030918988560&#45;&gt;2030919342160 -->
<g id="edge24" class="edge"><title>2030918988560&#45;&gt;2030919342160</title>
<path fill="none" stroke="black" d="M1494.4,-123C1502.39,-123 1511.31,-123 1519.82,-123"/>
<polygon fill="black" stroke="black" points="1519.92,-126.5 1529.92,-123 1519.92,-119.5 1519.92,-126.5"/>
</g>
<!-- 2030919413328&#45;&gt;2030917341040 -->
<g id="edge25" class="edge"><title>2030919413328&#45;&gt;2030917341040</title>
<path fill="none" stroke="black" d="M953.453,-164.347C961.788,-162.169 971.21,-159.706 980.165,-157.366"/>
<polygon fill="black" stroke="black" points="981.203,-160.712 989.993,-154.797 979.433,-153.94 981.203,-160.712"/>
</g>
<!-- 2030919413328&#45;&gt;2030918953328 -->
<g id="edge26" class="edge"><title>2030919413328&#45;&gt;2030918953328</title>
<path fill="none" stroke="black" d="M952.982,-179.8C961.415,-182.771 971.003,-186.149 980.111,-189.357"/>
<polygon fill="black" stroke="black" points="979.133,-192.723 989.727,-192.745 981.459,-186.121 979.133,-192.723"/>
</g>
<!-- 2030919452512&#45;&gt;2030918953952 -->
<g id="edge27" class="edge"><title>2030919452512&#45;&gt;2030918953952</title>
<path fill="none" stroke="black" d="M953.927,-29.6516C962.089,-30.4864 971.256,-31.4239 979.989,-32.317"/>
<polygon fill="black" stroke="black" points="979.65,-35.8006 989.954,-33.3362 980.362,-28.8369 979.65,-35.8006"/>
</g>
<!-- 2030919343552&#45;&gt;2030919342544 -->
<g id="edge28" class="edge"><title>2030919343552&#45;&gt;2030919342544</title>
<path fill="none" stroke="black" d="M1133.92,-53.1329C1168.55,-55.7943 1231.85,-60 1286,-60 1286,-60 1286,-60 1558,-60 1607.93,-60 1664.2,-73.7769 1699.86,-84.2854"/>
<polygon fill="black" stroke="black" points="1699.21,-87.7443 1709.8,-87.2854 1701.24,-81.0433 1699.21,-87.7443"/>
</g>
<!-- 2030918954384&#45;&gt;2030919342208 -->
<g id="edge29" class="edge"><title>2030918954384&#45;&gt;2030919342208</title>
<path fill="none" stroke="black" d="M1224.23,-188.563C1258.94,-186.788 1322.04,-184 1376,-184 1376,-184 1376,-184 1558,-184 1607.82,-184 1664.12,-170.988 1699.82,-161.064"/>
<polygon fill="black" stroke="black" points="1701.1,-164.337 1709.76,-158.23 1699.18,-157.605 1701.1,-164.337"/>
</g>
</g>
</svg>
