<?xml version="1.0" encoding="UTF-8" standalone="no"?>
<!DOCTYPE svg PUBLIC "-//W3C//DTD SVG 1.1//EN"
 "http://www.w3.org/Graphics/SVG/1.1/DTD/svg11.dtd">
<!-- Generated by graphviz version 2.38.0 (20140413.2041)
 -->
<!-- Title: &#45;&gt;( &#39;A&#39;, &#39;B1&#39;, X( &#39;D2&#39;, &#39;D&#39; ), &#39;B2&#39;, &#39;C&#39;, X( &#39;E&#39;, &#39;F&#39; ) ) Pages: 1 -->
<svg width="2222pt" height="195pt"
 viewBox="0.00 0.00 2222.00 195.00" xmlns="http://www.w3.org/2000/svg" xmlns:xlink="http://www.w3.org/1999/xlink">
<g id="graph0" class="graph" transform="scale(1 1) rotate(0) translate(4 191)">
<title>&#45;&gt;( &#39;A&#39;, &#39;B1&#39;, X( &#39;D2&#39;, &#39;D&#39; ), &#39;B2&#39;, &#39;C&#39;, X( &#39;E&#39;, &#39;F&#39; ) )</title>
<!-- 2848849467712 -->
<g id="node1" class="node"><title>2848849467712</title>
<polygon fill="none" stroke="black" points="324,-117 270,-117 270,-81 324,-81 324,-117"/>
<text text-anchor="middle" x="297" y="-95.9" font-family="Times New Roman,serif" font-size="12.00">A</text>
</g>
<!-- 2848849500288 -->
<g id="node24" class="node"><title>2848849500288</title>
<ellipse fill="none" stroke="black" cx="387" cy="-99" rx="27" ry="27"/>
</g>
<!-- 2848849467712&#45;&gt;2848849500288 -->
<g id="edge5" class="edge"><title>2848849467712&#45;&gt;2848849500288</title>
<path fill="none" stroke="black" d="M324.403,-99C332.393,-99 341.311,-99 349.824,-99"/>
<polygon fill="black" stroke="black" points="349.919,-102.5 359.919,-99 349.919,-95.5001 349.919,-102.5"/>
</g>
<!-- 2848849469344 -->
<g id="node2" class="node"><title>2848849469344</title>
<polygon fill="none" stroke="black" points="864,-144 810,-144 810,-108 864,-108 864,-144"/>
<text text-anchor="middle" x="837" y="-122.9" font-family="Times New Roman,serif" font-size="12.00">D2</text>
</g>
<!-- 2848849499088 -->
<g id="node22" class="node"><title>2848849499088</title>
<ellipse fill="none" stroke="black" cx="927" cy="-99" rx="27" ry="27"/>
</g>
<!-- 2848849469344&#45;&gt;2848849499088 -->
<g id="edge8" class="edge"><title>2848849469344&#45;&gt;2848849499088</title>
<path fill="none" stroke="black" d="M864.403,-117.899C872.79,-115.326 882.197,-112.439 891.088,-109.712"/>
<polygon fill="black" stroke="black" points="892.29,-113.004 900.823,-106.725 890.236,-106.312 892.29,-113.004"/>
</g>
<!-- 2848849499856 -->
<g id="node29" class="node"><title>2848849499856</title>
<ellipse fill="none" stroke="black" cx="1017" cy="-160" rx="27" ry="27"/>
</g>
<!-- 2848849469344&#45;&gt;2848849499856 -->
<g id="edge9" class="edge"><title>2848849469344&#45;&gt;2848849499856</title>
<path fill="none" stroke="black" d="M864.265,-131.017C894.939,-136.876 945.841,-146.599 980.137,-153.15"/>
<polygon fill="black" stroke="black" points="979.727,-156.635 990.206,-155.073 981.041,-149.759 979.727,-156.635"/>
</g>
<!-- 2848849499712 -->
<g id="node3" class="node"><title>2848849499712</title>
<polygon fill="black" stroke="black" points="1044,-115 990,-115 990,-79 1044,-79 1044,-115"/>
</g>
<!-- 2848849501248 -->
<g id="node26" class="node"><title>2848849501248</title>
<ellipse fill="none" stroke="black" cx="1107" cy="-97" rx="27" ry="27"/>
</g>
<!-- 2848849499712&#45;&gt;2848849501248 -->
<g id="edge34" class="edge"><title>2848849499712&#45;&gt;2848849501248</title>
<path fill="none" stroke="black" d="M1044.4,-97C1052.39,-97 1061.31,-97 1069.82,-97"/>
<polygon fill="black" stroke="black" points="1069.92,-100.5 1079.92,-97 1069.92,-93.5001 1069.92,-100.5"/>
</g>
<!-- 2848849499904 -->
<g id="node4" class="node"><title>2848849499904</title>
<polygon fill="none" stroke="black" points="1404,-117 1350,-117 1350,-81 1404,-81 1404,-117"/>
<text text-anchor="middle" x="1377" y="-95.9" font-family="Times New Roman,serif" font-size="12.00">C</text>
</g>
<!-- 2848849501440 -->
<g id="node28" class="node"><title>2848849501440</title>
<ellipse fill="none" stroke="black" cx="1467" cy="-99" rx="27" ry="27"/>
</g>
<!-- 2848849499904&#45;&gt;2848849501440 -->
<g id="edge1" class="edge"><title>2848849499904&#45;&gt;2848849501440</title>
<path fill="none" stroke="black" d="M1404.4,-99C1412.39,-99 1421.31,-99 1429.82,-99"/>
<polygon fill="black" stroke="black" points="1429.92,-102.5 1439.92,-99 1429.92,-95.5001 1429.92,-102.5"/>
</g>
<!-- 2848849500192 -->
<g id="node5" class="node"><title>2848849500192</title>
<polygon fill="none" stroke="black" points="1764,-90 1710,-90 1710,-54 1764,-54 1764,-90"/>
<text text-anchor="middle" x="1737" y="-68.9" font-family="Times New Roman,serif" font-size="12.00">E</text>
</g>
<!-- 2848849500432 -->
<g id="node21" class="node"><title>2848849500432</title>
<ellipse fill="none" stroke="black" cx="1827" cy="-99" rx="27" ry="27"/>
</g>
<!-- 2848849500192&#45;&gt;2848849500432 -->
<g id="edge2" class="edge"><title>2848849500192&#45;&gt;2848849500432</title>
<path fill="none" stroke="black" d="M1764.4,-80.1009C1772.79,-82.6741 1782.2,-85.5606 1791.09,-88.2883"/>
<polygon fill="black" stroke="black" points="1790.24,-91.6881 1800.82,-91.2753 1792.29,-84.996 1790.24,-91.6881"/>
</g>
<!-- 2848849501056 -->
<g id="node6" class="node"><title>2848849501056</title>
<polygon fill="black" stroke="black" points="1944,-117 1890,-117 1890,-81 1944,-81 1944,-117"/>
</g>
<!-- 2848849501536 -->
<g id="node20" class="node"><title>2848849501536</title>
<ellipse fill="none" stroke="black" cx="2007" cy="-99" rx="27" ry="27"/>
</g>
<!-- 2848849501056&#45;&gt;2848849501536 -->
<g id="edge33" class="edge"><title>2848849501056&#45;&gt;2848849501536</title>
<path fill="none" stroke="black" d="M1944.4,-99C1952.39,-99 1961.31,-99 1969.82,-99"/>
<polygon fill="black" stroke="black" points="1969.92,-102.5 1979.92,-99 1969.92,-95.5001 1969.92,-102.5"/>
</g>
<!-- 2848849523328 -->
<g id="node7" class="node"><title>2848849523328</title>
<polygon fill="black" stroke="black" points="144,-117 90,-117 90,-81 144,-81 144,-117"/>
</g>
<!-- 2848849468048 -->
<g id="node23" class="node"><title>2848849468048</title>
<ellipse fill="none" stroke="black" cx="207" cy="-99" rx="27" ry="27"/>
</g>
<!-- 2848849523328&#45;&gt;2848849468048 -->
<g id="edge29" class="edge"><title>2848849523328&#45;&gt;2848849468048</title>
<path fill="none" stroke="black" d="M144.403,-99C152.393,-99 161.311,-99 169.824,-99"/>
<polygon fill="black" stroke="black" points="169.919,-102.5 179.919,-99 169.919,-95.5001 169.919,-102.5"/>
</g>
<!-- 2848849500000 -->
<g id="node8" class="node"><title>2848849500000</title>
<polygon fill="black" stroke="black" points="1134,-178 1080,-178 1080,-142 1134,-142 1134,-178"/>
</g>
<!-- 2848849469248 -->
<g id="node32" class="node"><title>2848849469248</title>
<ellipse fill="none" stroke="black" cx="1197" cy="-160" rx="27" ry="27"/>
</g>
<!-- 2848849500000&#45;&gt;2848849469248 -->
<g id="edge35" class="edge"><title>2848849500000&#45;&gt;2848849469248</title>
<path fill="none" stroke="black" d="M1134.4,-160C1142.39,-160 1151.31,-160 1159.82,-160"/>
<polygon fill="black" stroke="black" points="1159.92,-163.5 1169.92,-160 1159.92,-156.5 1159.92,-163.5"/>
</g>
<!-- 2848849467616 -->
<g id="node9" class="node"><title>2848849467616</title>
<polygon fill="black" stroke="black" points="1134,-45 1080,-45 1080,-9 1134,-9 1134,-45"/>
</g>
<!-- 2848849467328 -->
<g id="node31" class="node"><title>2848849467328</title>
<ellipse fill="none" stroke="black" cx="1287" cy="-27" rx="27" ry="27"/>
</g>
<!-- 2848849467616&#45;&gt;2848849467328 -->
<g id="edge36" class="edge"><title>2848849467616&#45;&gt;2848849467328</title>
<path fill="none" stroke="black" d="M1134.26,-27C1164.85,-27 1215.55,-27 1249.84,-27"/>
<polygon fill="black" stroke="black" points="1249.92,-30.5001 1259.92,-27 1249.92,-23.5001 1249.92,-30.5001"/>
</g>
<!-- 2848849468336 -->
<g id="node10" class="node"><title>2848849468336</title>
<polygon fill="none" stroke="black" points="504,-117 450,-117 450,-81 504,-81 504,-117"/>
<text text-anchor="middle" x="477" y="-95.9" font-family="Times New Roman,serif" font-size="12.00">B1</text>
</g>
<!-- 2848849500144 -->
<g id="node25" class="node"><title>2848849500144</title>
<ellipse fill="none" stroke="black" cx="567" cy="-99" rx="27" ry="27"/>
</g>
<!-- 2848849468336&#45;&gt;2848849500144 -->
<g id="edge4" class="edge"><title>2848849468336&#45;&gt;2848849500144</title>
<path fill="none" stroke="black" d="M504.403,-99C512.393,-99 521.311,-99 529.824,-99"/>
<polygon fill="black" stroke="black" points="529.919,-102.5 539.919,-99 529.919,-95.5001 529.919,-102.5"/>
</g>
<!-- 2848849499280 -->
<g id="node11" class="node"><title>2848849499280</title>
<polygon fill="black" stroke="black" points="684,-117 630,-117 630,-81 684,-81 684,-117"/>
</g>
<!-- 2848849468528 -->
<g id="node19" class="node"><title>2848849468528</title>
<ellipse fill="none" stroke="black" cx="747" cy="-99" rx="27" ry="27"/>
</g>
<!-- 2848849499280&#45;&gt;2848849468528 -->
<g id="edge32" class="edge"><title>2848849499280&#45;&gt;2848849468528</title>
<path fill="none" stroke="black" d="M684.403,-99C692.393,-99 701.311,-99 709.824,-99"/>
<polygon fill="black" stroke="black" points="709.919,-102.5 719.919,-99 709.919,-95.5001 709.919,-102.5"/>
</g>
<!-- 2848849469104 -->
<g id="node12" class="node"><title>2848849469104</title>
<polygon fill="none" stroke="black" points="864,-90 810,-90 810,-54 864,-54 864,-90"/>
<text text-anchor="middle" x="837" y="-68.9" font-family="Times New Roman,serif" font-size="12.00">D</text>
</g>
<!-- 2848849469104&#45;&gt;2848849499088 -->
<g id="edge6" class="edge"><title>2848849469104&#45;&gt;2848849499088</title>
<path fill="none" stroke="black" d="M864.403,-80.1009C872.79,-82.6741 882.197,-85.5606 891.088,-88.2883"/>
<polygon fill="black" stroke="black" points="890.236,-91.6881 900.823,-91.2753 892.29,-84.996 890.236,-91.6881"/>
</g>
<!-- 2848849467184 -->
<g id="node30" class="node"><title>2848849467184</title>
<ellipse fill="none" stroke="black" cx="927" cy="-27" rx="27" ry="27"/>
</g>
<!-- 2848849469104&#45;&gt;2848849467184 -->
<g id="edge7" class="edge"><title>2848849469104&#45;&gt;2848849467184</title>
<path fill="none" stroke="black" d="M864.403,-58.4985C873.611,-53.79 884.049,-48.452 893.683,-43.5259"/>
<polygon fill="black" stroke="black" points="895.295,-46.6323 902.605,-38.9632 892.108,-40.3999 895.295,-46.6323"/>
</g>
<!-- 2848849469296 -->
<g id="node13" class="node"><title>2848849469296</title>
<polygon fill="none" stroke="black" points="1224,-115 1170,-115 1170,-79 1224,-79 1224,-115"/>
<text text-anchor="middle" x="1197" y="-93.9" font-family="Times New Roman,serif" font-size="12.00">B2</text>
</g>
<!-- 2848849501344 -->
<g id="node27" class="node"><title>2848849501344</title>
<ellipse fill="none" stroke="black" cx="1287" cy="-99" rx="27" ry="27"/>
</g>
<!-- 2848849469296&#45;&gt;2848849501344 -->
<g id="edge3" class="edge"><title>2848849469296&#45;&gt;2848849501344</title>
<path fill="none" stroke="black" d="M1224.4,-97.6001C1232.39,-97.7817 1241.31,-97.9843 1249.82,-98.1778"/>
<polygon fill="black" stroke="black" points="1249.84,-101.679 1259.92,-98.4072 1250,-94.6808 1249.84,-101.679"/>
</g>
<!-- 2848849500528 -->
<g id="node14" class="node"><title>2848849500528</title>
<polygon fill="black" stroke="black" points="1584,-117 1530,-117 1530,-81 1584,-81 1584,-117"/>
</g>
<!-- 2848849500048 -->
<g id="node18" class="node"><title>2848849500048</title>
<ellipse fill="none" stroke="black" cx="1647" cy="-99" rx="27" ry="27"/>
</g>
<!-- 2848849500528&#45;&gt;2848849500048 -->
<g id="edge31" class="edge"><title>2848849500528&#45;&gt;2848849500048</title>
<path fill="none" stroke="black" d="M1584.4,-99C1592.39,-99 1601.31,-99 1609.82,-99"/>
<polygon fill="black" stroke="black" points="1609.92,-102.5 1619.92,-99 1609.92,-95.5001 1609.92,-102.5"/>
</g>
<!-- 2848849500336 -->
<g id="node15" class="node"><title>2848849500336</title>
<polygon fill="none" stroke="black" points="1764,-144 1710,-144 1710,-108 1764,-108 1764,-144"/>
<text text-anchor="middle" x="1737" y="-122.9" font-family="Times New Roman,serif" font-size="12.00">F</text>
</g>
<!-- 2848849500336&#45;&gt;2848849500432 -->
<g id="edge10" class="edge"><title>2848849500336&#45;&gt;2848849500432</title>
<path fill="none" stroke="black" d="M1764.4,-117.899C1772.79,-115.326 1782.2,-112.439 1791.09,-109.712"/>
<polygon fill="black" stroke="black" points="1792.29,-113.004 1800.82,-106.725 1790.24,-106.312 1792.29,-113.004"/>
</g>
<!-- 2848849523472 -->
<g id="node16" class="node"><title>2848849523472</title>
<polygon fill="black" stroke="black" points="2124,-117 2070,-117 2070,-81 2124,-81 2124,-117"/>
</g>
<!-- 2848849523712 -->
<g id="node33" class="node"><title>2848849523712</title>
<ellipse fill="orange" stroke="black" cx="2187" cy="-99" rx="27" ry="27"/>
</g>
<!-- 2848849523472&#45;&gt;2848849523712 -->
<g id="edge30" class="edge"><title>2848849523472&#45;&gt;2848849523712</title>
<path fill="none" stroke="black" d="M2124.4,-99C2132.39,-99 2141.31,-99 2149.82,-99"/>
<polygon fill="black" stroke="black" points="2149.92,-102.5 2159.92,-99 2149.92,-95.5001 2149.92,-102.5"/>
</g>
<!-- 2848849523616 -->
<g id="node17" class="node"><title>2848849523616</title>
<ellipse fill="green" stroke="black" cx="27" cy="-99" rx="27" ry="27"/>
<text text-anchor="middle" x="27" y="-95.9" font-family="Times New Roman,serif" font-size="12.00">1</text>
</g>
<!-- 2848849523616&#45;&gt;2848849523328 -->
<g id="edge16" class="edge"><title>2848849523616&#45;&gt;2848849523328</title>
<path fill="none" stroke="black" d="M54.4029,-99C62.3932,-99 71.3106,-99 79.8241,-99"/>
<polygon fill="black" stroke="black" points="79.919,-102.5 89.919,-99 79.919,-95.5001 79.919,-102.5"/>
</g>
<!-- 2848849500048&#45;&gt;2848849500192 -->
<g id="edge11" class="edge"><title>2848849500048&#45;&gt;2848849500192</title>
<path fill="none" stroke="black" d="M1672.98,-91.3351C1681.42,-88.7476 1691,-85.8059 1700.11,-83.0115"/>
<polygon fill="black" stroke="black" points="1701.19,-86.3402 1709.73,-80.0609 1699.14,-79.6481 1701.19,-86.3402"/>
</g>
<!-- 2848849500048&#45;&gt;2848849500336 -->
<g id="edge12" class="edge"><title>2848849500048&#45;&gt;2848849500336</title>
<path fill="none" stroke="black" d="M1672.98,-106.665C1681.42,-109.252 1691,-112.194 1700.11,-114.989"/>
<polygon fill="black" stroke="black" points="1699.14,-118.352 1709.73,-117.939 1701.19,-111.66 1699.14,-118.352"/>
</g>
<!-- 2848849468528&#45;&gt;2848849469344 -->
<g id="edge14" class="edge"><title>2848849468528&#45;&gt;2848849469344</title>
<path fill="none" stroke="black" d="M772.982,-106.665C781.415,-109.252 791.003,-112.194 800.111,-114.989"/>
<polygon fill="black" stroke="black" points="799.141,-118.352 809.727,-117.939 801.194,-111.66 799.141,-118.352"/>
</g>
<!-- 2848849468528&#45;&gt;2848849469104 -->
<g id="edge13" class="edge"><title>2848849468528&#45;&gt;2848849469104</title>
<path fill="none" stroke="black" d="M772.982,-91.3351C781.415,-88.7476 791.003,-85.8059 800.111,-83.0115"/>
<polygon fill="black" stroke="black" points="801.194,-86.3402 809.727,-80.0609 799.141,-79.6481 801.194,-86.3402"/>
</g>
<!-- 2848849501536&#45;&gt;2848849523472 -->
<g id="edge15" class="edge"><title>2848849501536&#45;&gt;2848849523472</title>
<path fill="none" stroke="black" d="M2034.4,-99C2042.39,-99 2051.31,-99 2059.82,-99"/>
<polygon fill="black" stroke="black" points="2059.92,-102.5 2069.92,-99 2059.92,-95.5001 2059.92,-102.5"/>
</g>
<!-- 2848849500432&#45;&gt;2848849501056 -->
<g id="edge17" class="edge"><title>2848849500432&#45;&gt;2848849501056</title>
<path fill="none" stroke="black" d="M1854.4,-99C1862.39,-99 1871.31,-99 1879.82,-99"/>
<polygon fill="black" stroke="black" points="1879.92,-102.5 1889.92,-99 1879.92,-95.5001 1879.92,-102.5"/>
</g>
<!-- 2848849499088&#45;&gt;2848849499712 -->
<g id="edge18" class="edge"><title>2848849499088&#45;&gt;2848849499712</title>
<path fill="none" stroke="black" d="M954.403,-98.3999C962.393,-98.2183 971.311,-98.0157 979.824,-97.8222"/>
<polygon fill="black" stroke="black" points="980.001,-101.319 989.919,-97.5928 979.842,-94.321 980.001,-101.319"/>
</g>
<!-- 2848849468048&#45;&gt;2848849467712 -->
<g id="edge19" class="edge"><title>2848849468048&#45;&gt;2848849467712</title>
<path fill="none" stroke="black" d="M234.403,-99C242.393,-99 251.311,-99 259.824,-99"/>
<polygon fill="black" stroke="black" points="259.919,-102.5 269.919,-99 259.919,-95.5001 259.919,-102.5"/>
</g>
<!-- 2848849500288&#45;&gt;2848849468336 -->
<g id="edge20" class="edge"><title>2848849500288&#45;&gt;2848849468336</title>
<path fill="none" stroke="black" d="M414.403,-99C422.393,-99 431.311,-99 439.824,-99"/>
<polygon fill="black" stroke="black" points="439.919,-102.5 449.919,-99 439.919,-95.5001 439.919,-102.5"/>
</g>
<!-- 2848849500144&#45;&gt;2848849499280 -->
<g id="edge21" class="edge"><title>2848849500144&#45;&gt;2848849499280</title>
<path fill="none" stroke="black" d="M594.403,-99C602.393,-99 611.311,-99 619.824,-99"/>
<polygon fill="black" stroke="black" points="619.919,-102.5 629.919,-99 619.919,-95.5001 619.919,-102.5"/>
</g>
<!-- 2848849501248&#45;&gt;2848849469296 -->
<g id="edge22" class="edge"><title>2848849501248&#45;&gt;2848849469296</title>
<path fill="none" stroke="black" d="M1134.4,-97C1142.39,-97 1151.31,-97 1159.82,-97"/>
<polygon fill="black" stroke="black" points="1159.92,-100.5 1169.92,-97 1159.92,-93.5001 1159.92,-100.5"/>
</g>
<!-- 2848849501344&#45;&gt;2848849499904 -->
<g id="edge23" class="edge"><title>2848849501344&#45;&gt;2848849499904</title>
<path fill="none" stroke="black" d="M1314.4,-99C1322.39,-99 1331.31,-99 1339.82,-99"/>
<polygon fill="black" stroke="black" points="1339.92,-102.5 1349.92,-99 1339.92,-95.5001 1339.92,-102.5"/>
</g>
<!-- 2848849501440&#45;&gt;2848849500528 -->
<g id="edge24" class="edge"><title>2848849501440&#45;&gt;2848849500528</title>
<path fill="none" stroke="black" d="M1494.4,-99C1502.39,-99 1511.31,-99 1519.82,-99"/>
<polygon fill="black" stroke="black" points="1519.92,-102.5 1529.92,-99 1519.92,-95.5001 1519.92,-102.5"/>
</g>
<!-- 2848849499856&#45;&gt;2848849500000 -->
<g id="edge25" class="edge"><title>2848849499856&#45;&gt;2848849500000</title>
<path fill="none" stroke="black" d="M1044.4,-160C1052.39,-160 1061.31,-160 1069.82,-160"/>
<polygon fill="black" stroke="black" points="1069.92,-163.5 1079.92,-160 1069.92,-156.5 1069.92,-163.5"/>
</g>
<!-- 2848849467184&#45;&gt;2848849467616 -->
<g id="edge26" class="edge"><title>2848849467184&#45;&gt;2848849467616</title>
<path fill="none" stroke="black" d="M954.265,-27C984.851,-27 1035.55,-27 1069.84,-27"/>
<polygon fill="black" stroke="black" points="1069.92,-30.5001 1079.92,-27 1069.92,-23.5001 1069.92,-30.5001"/>
</g>
<!-- 2848849467328&#45;&gt;2848849500192 -->
<g id="edge27" class="edge"><title>2848849467328&#45;&gt;2848849500192</title>
<path fill="none" stroke="black" d="M1313.92,-29.1329C1348.55,-31.7943 1411.85,-36 1466,-36 1466,-36 1466,-36 1558,-36 1607.93,-36 1664.2,-49.7769 1699.86,-60.2854"/>
<polygon fill="black" stroke="black" points="1699.21,-63.7443 1709.8,-63.2854 1701.24,-57.0433 1699.21,-63.7443"/>
</g>
<!-- 2848849469248&#45;&gt;2848849500336 -->
<g id="edge28" class="edge"><title>2848849469248&#45;&gt;2848849500336</title>
<path fill="none" stroke="black" d="M1224.23,-159.042C1258.95,-157.859 1322.06,-156 1376,-156 1376,-156 1376,-156 1558,-156 1607.77,-156 1664.3,-144.453 1700.04,-135.687"/>
<polygon fill="black" stroke="black" points="1701.15,-139.018 1709.99,-133.186 1699.44,-132.229 1701.15,-139.018"/>
</g>
</g>
</svg>
