<?xml version="1.0" encoding="UTF-8" standalone="no"?>
<!DOCTYPE svg PUBLIC "-//W3C//DTD SVG 1.1//EN"
 "http://www.w3.org/Graphics/SVG/1.1/DTD/svg11.dtd">
<!-- Generated by graphviz version 2.38.0 (20140413.2041)
 -->
<!-- Title: &#45;&gt;( &#39;A&#39;, &#39;B1&#39;, X( &#39;D2&#39;, &#39;D&#39; ), &#39;B2&#39;, &#39;C&#39;, X( &#39;E&#39;, &#39;F&#39; ) ) Pages: 1 -->
<svg width="2222pt" height="98pt"
 viewBox="0.00 0.00 2222.00 98.00" xmlns="http://www.w3.org/2000/svg" xmlns:xlink="http://www.w3.org/1999/xlink">
<g id="graph0" class="graph" transform="scale(1 1) rotate(0) translate(4 94)">
<title>&#45;&gt;( &#39;A&#39;, &#39;B1&#39;, X( &#39;D2&#39;, &#39;D&#39; ), &#39;B2&#39;, &#39;C&#39;, X( &#39;E&#39;, &#39;F&#39; ) )</title>
<!-- 3227286931872 -->
<g id="node1" class="node"><title>3227286931872</title>
<polygon fill="none" stroke="black" points="324,-63 270,-63 270,-27 324,-27 324,-63"/>
<text text-anchor="middle" x="297" y="-41.9" font-family="Times New Roman,serif" font-size="12.00">A</text>
</g>
<!-- 3227288518912 -->
<g id="node22" class="node"><title>3227288518912</title>
<ellipse fill="none" stroke="black" cx="387" cy="-45" rx="27" ry="27"/>
</g>
<!-- 3227286931872&#45;&gt;3227288518912 -->
<g id="edge3" class="edge"><title>3227286931872&#45;&gt;3227288518912</title>
<path fill="none" stroke="black" d="M324.403,-45C332.393,-45 341.311,-45 349.824,-45"/>
<polygon fill="black" stroke="black" points="349.919,-48.5001 359.919,-45 349.919,-41.5001 349.919,-48.5001"/>
</g>
<!-- 3227286931296 -->
<g id="node2" class="node"><title>3227286931296</title>
<polygon fill="black" stroke="black" points="1044,-63 990,-63 990,-27 1044,-27 1044,-63"/>
</g>
<!-- 3227288519872 -->
<g id="node24" class="node"><title>3227288519872</title>
<ellipse fill="none" stroke="black" cx="1107" cy="-45" rx="27" ry="27"/>
</g>
<!-- 3227286931296&#45;&gt;3227288519872 -->
<g id="edge27" class="edge"><title>3227286931296&#45;&gt;3227288519872</title>
<path fill="none" stroke="black" d="M1044.4,-45C1052.39,-45 1061.31,-45 1069.82,-45"/>
<polygon fill="black" stroke="black" points="1069.92,-48.5001 1079.92,-45 1069.92,-41.5001 1069.92,-48.5001"/>
</g>
<!-- 3227286931584 -->
<g id="node3" class="node"><title>3227286931584</title>
<polygon fill="black" stroke="black" points="684,-63 630,-63 630,-27 684,-27 684,-63"/>
</g>
<!-- 3227286930864 -->
<g id="node17" class="node"><title>3227286930864</title>
<ellipse fill="none" stroke="black" cx="747" cy="-45" rx="27" ry="27"/>
</g>
<!-- 3227286931584&#45;&gt;3227286930864 -->
<g id="edge26" class="edge"><title>3227286931584&#45;&gt;3227286930864</title>
<path fill="none" stroke="black" d="M684.403,-45C692.393,-45 701.311,-45 709.824,-45"/>
<polygon fill="black" stroke="black" points="709.919,-48.5001 719.919,-45 709.919,-41.5001 709.919,-48.5001"/>
</g>
<!-- 3227286929760 -->
<g id="node4" class="node"><title>3227286929760</title>
<polygon fill="none" stroke="black" points="1224,-63 1170,-63 1170,-27 1224,-27 1224,-63"/>
<text text-anchor="middle" x="1197" y="-41.9" font-family="Times New Roman,serif" font-size="12.00">B2</text>
</g>
<!-- 3227288520208 -->
<g id="node25" class="node"><title>3227288520208</title>
<ellipse fill="none" stroke="black" cx="1287" cy="-45" rx="27" ry="27"/>
</g>
<!-- 3227286929760&#45;&gt;3227288520208 -->
<g id="edge8" class="edge"><title>3227286929760&#45;&gt;3227288520208</title>
<path fill="none" stroke="black" d="M1224.4,-45C1232.39,-45 1241.31,-45 1249.82,-45"/>
<polygon fill="black" stroke="black" points="1249.92,-48.5001 1259.92,-45 1249.92,-41.5001 1249.92,-48.5001"/>
</g>
<!-- 3227288518720 -->
<g id="node5" class="node"><title>3227288518720</title>
<polygon fill="none" stroke="black" points="1764,-90 1710,-90 1710,-54 1764,-54 1764,-90"/>
<text text-anchor="middle" x="1737" y="-68.9" font-family="Times New Roman,serif" font-size="12.00">F</text>
</g>
<!-- 3227288519344 -->
<g id="node20" class="node"><title>3227288519344</title>
<ellipse fill="none" stroke="black" cx="1827" cy="-45" rx="27" ry="27"/>
</g>
<!-- 3227288518720&#45;&gt;3227288519344 -->
<g id="edge1" class="edge"><title>3227288518720&#45;&gt;3227288519344</title>
<path fill="none" stroke="black" d="M1764.4,-63.8991C1772.79,-61.3259 1782.2,-58.4394 1791.09,-55.7117"/>
<polygon fill="black" stroke="black" points="1792.29,-59.004 1800.82,-52.7247 1790.24,-52.3119 1792.29,-59.004"/>
</g>
<!-- 3227288522368 -->
<g id="node6" class="node"><title>3227288522368</title>
<polygon fill="black" stroke="black" points="2124,-63 2070,-63 2070,-27 2124,-27 2124,-63"/>
</g>
<!-- 3227288521696 -->
<g id="node27" class="node"><title>3227288521696</title>
<ellipse fill="orange" stroke="black" cx="2187" cy="-45" rx="27" ry="27"/>
</g>
<!-- 3227288522368&#45;&gt;3227288521696 -->
<g id="edge24" class="edge"><title>3227288522368&#45;&gt;3227288521696</title>
<path fill="none" stroke="black" d="M2124.4,-45C2132.39,-45 2141.31,-45 2149.82,-45"/>
<polygon fill="black" stroke="black" points="2149.92,-48.5001 2159.92,-45 2149.92,-41.5001 2149.92,-48.5001"/>
</g>
<!-- 3227286930000 -->
<g id="node7" class="node"><title>3227286930000</title>
<polygon fill="none" stroke="black" points="504,-63 450,-63 450,-27 504,-27 504,-63"/>
<text text-anchor="middle" x="477" y="-41.9" font-family="Times New Roman,serif" font-size="12.00">B1</text>
</g>
<!-- 3227288519296 -->
<g id="node23" class="node"><title>3227288519296</title>
<ellipse fill="none" stroke="black" cx="567" cy="-45" rx="27" ry="27"/>
</g>
<!-- 3227286930000&#45;&gt;3227288519296 -->
<g id="edge7" class="edge"><title>3227286930000&#45;&gt;3227288519296</title>
<path fill="none" stroke="black" d="M504.403,-45C512.393,-45 521.311,-45 529.824,-45"/>
<polygon fill="black" stroke="black" points="529.919,-48.5001 539.919,-45 529.919,-41.5001 529.919,-48.5001"/>
</g>
<!-- 3227286932304 -->
<g id="node8" class="node"><title>3227286932304</title>
<polygon fill="none" stroke="black" points="864,-90 810,-90 810,-54 864,-54 864,-90"/>
<text text-anchor="middle" x="837" y="-68.9" font-family="Times New Roman,serif" font-size="12.00">D2</text>
</g>
<!-- 3227286930912 -->
<g id="node19" class="node"><title>3227286930912</title>
<ellipse fill="none" stroke="black" cx="927" cy="-45" rx="27" ry="27"/>
</g>
<!-- 3227286932304&#45;&gt;3227286930912 -->
<g id="edge6" class="edge"><title>3227286932304&#45;&gt;3227286930912</title>
<path fill="none" stroke="black" d="M864.403,-63.8991C872.79,-61.3259 882.197,-58.4394 891.088,-55.7117"/>
<polygon fill="black" stroke="black" points="892.29,-59.004 900.823,-52.7247 890.236,-52.3119 892.29,-59.004"/>
</g>
<!-- 3227286930384 -->
<g id="node9" class="node"><title>3227286930384</title>
<polygon fill="none" stroke="black" points="864,-36 810,-36 810,-0 864,-0 864,-36"/>
<text text-anchor="middle" x="837" y="-14.9" font-family="Times New Roman,serif" font-size="12.00">D</text>
</g>
<!-- 3227286930384&#45;&gt;3227286930912 -->
<g id="edge5" class="edge"><title>3227286930384&#45;&gt;3227286930912</title>
<path fill="none" stroke="black" d="M864.403,-26.1009C872.79,-28.6741 882.197,-31.5606 891.088,-34.2883"/>
<polygon fill="black" stroke="black" points="890.236,-37.6881 900.823,-37.2753 892.29,-30.996 890.236,-37.6881"/>
</g>
<!-- 3227286929904 -->
<g id="node10" class="node"><title>3227286929904</title>
<polygon fill="none" stroke="black" points="1404,-63 1350,-63 1350,-27 1404,-27 1404,-63"/>
<text text-anchor="middle" x="1377" y="-41.9" font-family="Times New Roman,serif" font-size="12.00">C</text>
</g>
<!-- 3227288521552 -->
<g id="node26" class="node"><title>3227288521552</title>
<ellipse fill="none" stroke="black" cx="1467" cy="-45" rx="27" ry="27"/>
</g>
<!-- 3227286929904&#45;&gt;3227288521552 -->
<g id="edge2" class="edge"><title>3227286929904&#45;&gt;3227288521552</title>
<path fill="none" stroke="black" d="M1404.4,-45C1412.39,-45 1421.31,-45 1429.82,-45"/>
<polygon fill="black" stroke="black" points="1429.92,-48.5001 1439.92,-45 1429.92,-41.5001 1429.92,-48.5001"/>
</g>
<!-- 3227288519536 -->
<g id="node11" class="node"><title>3227288519536</title>
<polygon fill="none" stroke="black" points="1764,-36 1710,-36 1710,-0 1764,-0 1764,-36"/>
<text text-anchor="middle" x="1737" y="-14.9" font-family="Times New Roman,serif" font-size="12.00">E</text>
</g>
<!-- 3227288519536&#45;&gt;3227288519344 -->
<g id="edge4" class="edge"><title>3227288519536&#45;&gt;3227288519344</title>
<path fill="none" stroke="black" d="M1764.4,-26.1009C1772.79,-28.6741 1782.2,-31.5606 1791.09,-34.2883"/>
<polygon fill="black" stroke="black" points="1790.24,-37.6881 1800.82,-37.2753 1792.29,-30.996 1790.24,-37.6881"/>
</g>
<!-- 3227288520016 -->
<g id="node12" class="node"><title>3227288520016</title>
<polygon fill="black" stroke="black" points="1944,-63 1890,-63 1890,-27 1944,-27 1944,-63"/>
</g>
<!-- 3227288519728 -->
<g id="node18" class="node"><title>3227288519728</title>
<ellipse fill="none" stroke="black" cx="2007" cy="-45" rx="27" ry="27"/>
</g>
<!-- 3227288520016&#45;&gt;3227288519728 -->
<g id="edge28" class="edge"><title>3227288520016&#45;&gt;3227288519728</title>
<path fill="none" stroke="black" d="M1944.4,-45C1952.39,-45 1961.31,-45 1969.82,-45"/>
<polygon fill="black" stroke="black" points="1969.92,-48.5001 1979.92,-45 1969.92,-41.5001 1969.92,-48.5001"/>
</g>
<!-- 3227288519920 -->
<g id="node13" class="node"><title>3227288519920</title>
<polygon fill="black" stroke="black" points="1584,-63 1530,-63 1530,-27 1584,-27 1584,-63"/>
</g>
<!-- 3227288519104 -->
<g id="node16" class="node"><title>3227288519104</title>
<ellipse fill="none" stroke="black" cx="1647" cy="-45" rx="27" ry="27"/>
</g>
<!-- 3227288519920&#45;&gt;3227288519104 -->
<g id="edge25" class="edge"><title>3227288519920&#45;&gt;3227288519104</title>
<path fill="none" stroke="black" d="M1584.4,-45C1592.39,-45 1601.31,-45 1609.82,-45"/>
<polygon fill="black" stroke="black" points="1609.92,-48.5001 1619.92,-45 1609.92,-41.5001 1609.92,-48.5001"/>
</g>
<!-- 3227288521264 -->
<g id="node14" class="node"><title>3227288521264</title>
<polygon fill="black" stroke="black" points="144,-63 90,-63 90,-27 144,-27 144,-63"/>
</g>
<!-- 3227288347984 -->
<g id="node21" class="node"><title>3227288347984</title>
<ellipse fill="none" stroke="black" cx="207" cy="-45" rx="27" ry="27"/>
</g>
<!-- 3227288521264&#45;&gt;3227288347984 -->
<g id="edge23" class="edge"><title>3227288521264&#45;&gt;3227288347984</title>
<path fill="none" stroke="black" d="M144.403,-45C152.393,-45 161.311,-45 169.824,-45"/>
<polygon fill="black" stroke="black" points="169.919,-48.5001 179.919,-45 169.919,-41.5001 169.919,-48.5001"/>
</g>
<!-- 3227288522656 -->
<g id="node15" class="node"><title>3227288522656</title>
<ellipse fill="green" stroke="black" cx="27" cy="-45" rx="27" ry="27"/>
<text text-anchor="middle" x="27" y="-41.9" font-family="Times New Roman,serif" font-size="12.00">1</text>
</g>
<!-- 3227288522656&#45;&gt;3227288521264 -->
<g id="edge14" class="edge"><title>3227288522656&#45;&gt;3227288521264</title>
<path fill="none" stroke="black" d="M54.4029,-45C62.3932,-45 71.3106,-45 79.8241,-45"/>
<polygon fill="black" stroke="black" points="79.919,-48.5001 89.919,-45 79.919,-41.5001 79.919,-48.5001"/>
</g>
<!-- 3227288519104&#45;&gt;3227288518720 -->
<g id="edge9" class="edge"><title>3227288519104&#45;&gt;3227288518720</title>
<path fill="none" stroke="black" d="M1672.98,-52.6649C1681.42,-55.2524 1691,-58.1941 1700.11,-60.9885"/>
<polygon fill="black" stroke="black" points="1699.14,-64.3519 1709.73,-63.9391 1701.19,-57.6598 1699.14,-64.3519"/>
</g>
<!-- 3227288519104&#45;&gt;3227288519536 -->
<g id="edge10" class="edge"><title>3227288519104&#45;&gt;3227288519536</title>
<path fill="none" stroke="black" d="M1672.98,-37.3351C1681.42,-34.7476 1691,-31.8059 1700.11,-29.0115"/>
<polygon fill="black" stroke="black" points="1701.19,-32.3402 1709.73,-26.0609 1699.14,-25.6481 1701.19,-32.3402"/>
</g>
<!-- 3227286930864&#45;&gt;3227286932304 -->
<g id="edge12" class="edge"><title>3227286930864&#45;&gt;3227286932304</title>
<path fill="none" stroke="black" d="M772.982,-52.6649C781.415,-55.2524 791.003,-58.1941 800.111,-60.9885"/>
<polygon fill="black" stroke="black" points="799.141,-64.3519 809.727,-63.9391 801.194,-57.6598 799.141,-64.3519"/>
</g>
<!-- 3227286930864&#45;&gt;3227286930384 -->
<g id="edge11" class="edge"><title>3227286930864&#45;&gt;3227286930384</title>
<path fill="none" stroke="black" d="M772.982,-37.3351C781.415,-34.7476 791.003,-31.8059 800.111,-29.0115"/>
<polygon fill="black" stroke="black" points="801.194,-32.3402 809.727,-26.0609 799.141,-25.6481 801.194,-32.3402"/>
</g>
<!-- 3227288519728&#45;&gt;3227288522368 -->
<g id="edge13" class="edge"><title>3227288519728&#45;&gt;3227288522368</title>
<path fill="none" stroke="black" d="M2034.4,-45C2042.39,-45 2051.31,-45 2059.82,-45"/>
<polygon fill="black" stroke="black" points="2059.92,-48.5001 2069.92,-45 2059.92,-41.5001 2059.92,-48.5001"/>
</g>
<!-- 3227286930912&#45;&gt;3227286931296 -->
<g id="edge15" class="edge"><title>3227286930912&#45;&gt;3227286931296</title>
<path fill="none" stroke="black" d="M954.403,-45C962.393,-45 971.311,-45 979.824,-45"/>
<polygon fill="black" stroke="black" points="979.919,-48.5001 989.919,-45 979.919,-41.5001 979.919,-48.5001"/>
</g>
<!-- 3227288519344&#45;&gt;3227288520016 -->
<g id="edge16" class="edge"><title>3227288519344&#45;&gt;3227288520016</title>
<path fill="none" stroke="black" d="M1854.4,-45C1862.39,-45 1871.31,-45 1879.82,-45"/>
<polygon fill="black" stroke="black" points="1879.92,-48.5001 1889.92,-45 1879.92,-41.5001 1879.92,-48.5001"/>
</g>
<!-- 3227288347984&#45;&gt;3227286931872 -->
<g id="edge17" class="edge"><title>3227288347984&#45;&gt;3227286931872</title>
<path fill="none" stroke="black" d="M234.403,-45C242.393,-45 251.311,-45 259.824,-45"/>
<polygon fill="black" stroke="black" points="259.919,-48.5001 269.919,-45 259.919,-41.5001 259.919,-48.5001"/>
</g>
<!-- 3227288518912&#45;&gt;3227286930000 -->
<g id="edge18" class="edge"><title>3227288518912&#45;&gt;3227286930000</title>
<path fill="none" stroke="black" d="M414.403,-45C422.393,-45 431.311,-45 439.824,-45"/>
<polygon fill="black" stroke="black" points="439.919,-48.5001 449.919,-45 439.919,-41.5001 439.919,-48.5001"/>
</g>
<!-- 3227288519296&#45;&gt;3227286931584 -->
<g id="edge19" class="edge"><title>3227288519296&#45;&gt;3227286931584</title>
<path fill="none" stroke="black" d="M594.403,-45C602.393,-45 611.311,-45 619.824,-45"/>
<polygon fill="black" stroke="black" points="619.919,-48.5001 629.919,-45 619.919,-41.5001 619.919,-48.5001"/>
</g>
<!-- 3227288519872&#45;&gt;3227286929760 -->
<g id="edge20" class="edge"><title>3227288519872&#45;&gt;3227286929760</title>
<path fill="none" stroke="black" d="M1134.4,-45C1142.39,-45 1151.31,-45 1159.82,-45"/>
<polygon fill="black" stroke="black" points="1159.92,-48.5001 1169.92,-45 1159.92,-41.5001 1159.92,-48.5001"/>
</g>
<!-- 3227288520208&#45;&gt;3227286929904 -->
<g id="edge21" class="edge"><title>3227288520208&#45;&gt;3227286929904</title>
<path fill="none" stroke="black" d="M1314.4,-45C1322.39,-45 1331.31,-45 1339.82,-45"/>
<polygon fill="black" stroke="black" points="1339.92,-48.5001 1349.92,-45 1339.92,-41.5001 1339.92,-48.5001"/>
</g>
<!-- 3227288521552&#45;&gt;3227288519920 -->
<g id="edge22" class="edge"><title>3227288521552&#45;&gt;3227288519920</title>
<path fill="none" stroke="black" d="M1494.4,-45C1502.39,-45 1511.31,-45 1519.82,-45"/>
<polygon fill="black" stroke="black" points="1519.92,-48.5001 1529.92,-45 1519.92,-41.5001 1519.92,-48.5001"/>
</g>
</g>
</svg>
