<?xml version="1.0" encoding="UTF-8" standalone="no"?>
<!DOCTYPE svg PUBLIC "-//W3C//DTD SVG 1.1//EN"
 "http://www.w3.org/Graphics/SVG/1.1/DTD/svg11.dtd">
<!-- Generated by graphviz version 2.38.0 (20140413.2041)
 -->
<!-- Title: &#45;&gt;( X( &#39;A&#39;, &#39;B&#39; ), X( &#39;C&#39;, &#39;D&#39; ), X( &#39;E&#39;, &#39;F&#39; ) ) Pages: 1 -->
<svg width="2042pt" height="98pt"
 viewBox="0.00 0.00 2042.00 98.00" xmlns="http://www.w3.org/2000/svg" xmlns:xlink="http://www.w3.org/1999/xlink">
<g id="graph0" class="graph" transform="scale(1 1) rotate(0) translate(4 94)">
<title>&#45;&gt;( X( &#39;A&#39;, &#39;B&#39; ), X( &#39;C&#39;, &#39;D&#39; ), X( &#39;E&#39;, &#39;F&#39; ) )</title>
<!-- 1729278126400 -->
<g id="node1" class="node"><title>1729278126400</title>
<polygon fill="none" stroke="black" points="504,-90 450,-90 450,-54 504,-54 504,-90"/>
<text text-anchor="middle" x="477" y="-68.9" font-family="Times New Roman,serif" font-size="12.00">A</text>
</g>
<!-- 1729278127408 -->
<g id="node19" class="node"><title>1729278127408</title>
<ellipse fill="none" stroke="black" cx="567" cy="-45" rx="27" ry="27"/>
</g>
<!-- 1729278126400&#45;&gt;1729278127408 -->
<g id="edge1" class="edge"><title>1729278126400&#45;&gt;1729278127408</title>
<path fill="none" stroke="black" d="M504.403,-63.8991C512.79,-61.3259 522.197,-58.4394 531.088,-55.7117"/>
<polygon fill="black" stroke="black" points="532.29,-59.004 540.823,-52.7247 530.236,-52.3119 532.29,-59.004"/>
</g>
<!-- 1729278125728 -->
<g id="node2" class="node"><title>1729278125728</title>
<polygon fill="black" stroke="black" points="324,-63 270,-63 270,-27 324,-27 324,-63"/>
</g>
<!-- 1729278124768 -->
<g id="node16" class="node"><title>1729278124768</title>
<ellipse fill="none" stroke="black" cx="387" cy="-45" rx="27" ry="27"/>
</g>
<!-- 1729278125728&#45;&gt;1729278124768 -->
<g id="edge23" class="edge"><title>1729278125728&#45;&gt;1729278124768</title>
<path fill="none" stroke="black" d="M324.403,-45C332.393,-45 341.311,-45 349.824,-45"/>
<polygon fill="black" stroke="black" points="349.919,-48.5001 359.919,-45 349.919,-41.5001 349.919,-48.5001"/>
</g>
<!-- 1729273961920 -->
<g id="node3" class="node"><title>1729273961920</title>
<polygon fill="black" stroke="black" points="1224,-63 1170,-63 1170,-27 1224,-27 1224,-63"/>
</g>
<!-- 1729273962208 -->
<g id="node24" class="node"><title>1729273962208</title>
<ellipse fill="none" stroke="black" cx="1287" cy="-45" rx="27" ry="27"/>
</g>
<!-- 1729273961920&#45;&gt;1729273962208 -->
<g id="edge27" class="edge"><title>1729273961920&#45;&gt;1729273962208</title>
<path fill="none" stroke="black" d="M1224.4,-45C1232.39,-45 1241.31,-45 1249.82,-45"/>
<polygon fill="black" stroke="black" points="1249.92,-48.5001 1259.92,-45 1249.92,-41.5001 1249.92,-48.5001"/>
</g>
<!-- 1729278124480 -->
<g id="node4" class="node"><title>1729278124480</title>
<polygon fill="none" stroke="black" points="1044,-90 990,-90 990,-54 1044,-54 1044,-90"/>
<text text-anchor="middle" x="1017" y="-68.9" font-family="Times New Roman,serif" font-size="12.00">D</text>
</g>
<!-- 1729278124336 -->
<g id="node21" class="node"><title>1729278124336</title>
<ellipse fill="none" stroke="black" cx="1107" cy="-45" rx="27" ry="27"/>
</g>
<!-- 1729278124480&#45;&gt;1729278124336 -->
<g id="edge4" class="edge"><title>1729278124480&#45;&gt;1729278124336</title>
<path fill="none" stroke="black" d="M1044.4,-63.8991C1052.79,-61.3259 1062.2,-58.4394 1071.09,-55.7117"/>
<polygon fill="black" stroke="black" points="1072.29,-59.004 1080.82,-52.7247 1070.24,-52.3119 1072.29,-59.004"/>
</g>
<!-- 1729273962304 -->
<g id="node5" class="node"><title>1729273962304</title>
<polygon fill="none" stroke="black" points="1584,-90 1530,-90 1530,-54 1584,-54 1584,-90"/>
<text text-anchor="middle" x="1557" y="-68.9" font-family="Times New Roman,serif" font-size="12.00">E</text>
</g>
<!-- 1729273962400 -->
<g id="node20" class="node"><title>1729273962400</title>
<ellipse fill="none" stroke="black" cx="1647" cy="-45" rx="27" ry="27"/>
</g>
<!-- 1729273962304&#45;&gt;1729273962400 -->
<g id="edge5" class="edge"><title>1729273962304&#45;&gt;1729273962400</title>
<path fill="none" stroke="black" d="M1584.4,-63.8991C1592.79,-61.3259 1602.2,-58.4394 1611.09,-55.7117"/>
<polygon fill="black" stroke="black" points="1612.29,-59.004 1620.82,-52.7247 1610.24,-52.3119 1612.29,-59.004"/>
</g>
<!-- 1729273961728 -->
<g id="node6" class="node"><title>1729273961728</title>
<polygon fill="none" stroke="black" points="1584,-36 1530,-36 1530,-0 1584,-0 1584,-36"/>
<text text-anchor="middle" x="1557" y="-14.9" font-family="Times New Roman,serif" font-size="12.00">F</text>
</g>
<!-- 1729273961728&#45;&gt;1729273962400 -->
<g id="edge6" class="edge"><title>1729273961728&#45;&gt;1729273962400</title>
<path fill="none" stroke="black" d="M1584.4,-26.1009C1592.79,-28.6741 1602.2,-31.5606 1611.09,-34.2883"/>
<polygon fill="black" stroke="black" points="1610.24,-37.6881 1620.82,-37.2753 1612.29,-30.996 1610.24,-37.6881"/>
</g>
<!-- 1729273960288 -->
<g id="node7" class="node"><title>1729273960288</title>
<polygon fill="black" stroke="black" points="1764,-63 1710,-63 1710,-27 1764,-27 1764,-63"/>
</g>
<!-- 1729273960672 -->
<g id="node25" class="node"><title>1729273960672</title>
<ellipse fill="none" stroke="black" cx="1827" cy="-45" rx="27" ry="27"/>
</g>
<!-- 1729273960288&#45;&gt;1729273960672 -->
<g id="edge28" class="edge"><title>1729273960288&#45;&gt;1729273960672</title>
<path fill="none" stroke="black" d="M1764.4,-45C1772.39,-45 1781.31,-45 1789.82,-45"/>
<polygon fill="black" stroke="black" points="1789.92,-48.5001 1799.92,-45 1789.92,-41.5001 1789.92,-48.5001"/>
</g>
<!-- 1729273961344 -->
<g id="node8" class="node"><title>1729273961344</title>
<polygon fill="black" stroke="black" points="1404,-63 1350,-63 1350,-27 1404,-27 1404,-63"/>
</g>
<!-- 1729278126352 -->
<g id="node18" class="node"><title>1729278126352</title>
<ellipse fill="none" stroke="black" cx="1467" cy="-45" rx="27" ry="27"/>
</g>
<!-- 1729273961344&#45;&gt;1729278126352 -->
<g id="edge25" class="edge"><title>1729273961344&#45;&gt;1729278126352</title>
<path fill="none" stroke="black" d="M1404.4,-45C1412.39,-45 1421.31,-45 1429.82,-45"/>
<polygon fill="black" stroke="black" points="1429.92,-48.5001 1439.92,-45 1429.92,-41.5001 1429.92,-48.5001"/>
</g>
<!-- 1729273959136 -->
<g id="node9" class="node"><title>1729273959136</title>
<polygon fill="black" stroke="black" points="144,-63 90,-63 90,-27 144,-27 144,-63"/>
</g>
<!-- 1729269997088 -->
<g id="node22" class="node"><title>1729269997088</title>
<ellipse fill="none" stroke="black" cx="207" cy="-45" rx="27" ry="27"/>
</g>
<!-- 1729273959136&#45;&gt;1729269997088 -->
<g id="edge21" class="edge"><title>1729273959136&#45;&gt;1729269997088</title>
<path fill="none" stroke="black" d="M144.403,-45C152.393,-45 161.311,-45 169.824,-45"/>
<polygon fill="black" stroke="black" points="169.919,-48.5001 179.919,-45 169.919,-41.5001 169.919,-48.5001"/>
</g>
<!-- 1729273961824 -->
<g id="node10" class="node"><title>1729273961824</title>
<polygon fill="black" stroke="black" points="1944,-63 1890,-63 1890,-27 1944,-27 1944,-63"/>
</g>
<!-- 1729278066448 -->
<g id="node26" class="node"><title>1729278066448</title>
<ellipse fill="orange" stroke="black" cx="2007" cy="-45" rx="27" ry="27"/>
</g>
<!-- 1729273961824&#45;&gt;1729278066448 -->
<g id="edge22" class="edge"><title>1729273961824&#45;&gt;1729278066448</title>
<path fill="none" stroke="black" d="M1944.4,-45C1952.39,-45 1961.31,-45 1969.82,-45"/>
<polygon fill="black" stroke="black" points="1969.92,-48.5001 1979.92,-45 1969.92,-41.5001 1969.92,-48.5001"/>
</g>
<!-- 1729278125872 -->
<g id="node11" class="node"><title>1729278125872</title>
<polygon fill="none" stroke="black" points="504,-36 450,-36 450,-0 504,-0 504,-36"/>
<text text-anchor="middle" x="477" y="-14.9" font-family="Times New Roman,serif" font-size="12.00">B</text>
</g>
<!-- 1729278125872&#45;&gt;1729278127408 -->
<g id="edge2" class="edge"><title>1729278125872&#45;&gt;1729278127408</title>
<path fill="none" stroke="black" d="M504.403,-26.1009C512.79,-28.6741 522.197,-31.5606 531.088,-34.2883"/>
<polygon fill="black" stroke="black" points="530.236,-37.6881 540.823,-37.2753 532.29,-30.996 530.236,-37.6881"/>
</g>
<!-- 1729278126736 -->
<g id="node12" class="node"><title>1729278126736</title>
<polygon fill="black" stroke="black" points="684,-63 630,-63 630,-27 684,-27 684,-63"/>
</g>
<!-- 1729273962256 -->
<g id="node23" class="node"><title>1729273962256</title>
<ellipse fill="none" stroke="black" cx="747" cy="-45" rx="27" ry="27"/>
</g>
<!-- 1729278126736&#45;&gt;1729273962256 -->
<g id="edge26" class="edge"><title>1729278126736&#45;&gt;1729273962256</title>
<path fill="none" stroke="black" d="M684.403,-45C692.393,-45 701.311,-45 709.824,-45"/>
<polygon fill="black" stroke="black" points="709.919,-48.5001 719.919,-45 709.919,-41.5001 709.919,-48.5001"/>
</g>
<!-- 1729278126448 -->
<g id="node13" class="node"><title>1729278126448</title>
<polygon fill="none" stroke="black" points="1044,-36 990,-36 990,-0 1044,-0 1044,-36"/>
<text text-anchor="middle" x="1017" y="-14.9" font-family="Times New Roman,serif" font-size="12.00">C</text>
</g>
<!-- 1729278126448&#45;&gt;1729278124336 -->
<g id="edge3" class="edge"><title>1729278126448&#45;&gt;1729278124336</title>
<path fill="none" stroke="black" d="M1044.4,-26.1009C1052.79,-28.6741 1062.2,-31.5606 1071.09,-34.2883"/>
<polygon fill="black" stroke="black" points="1070.24,-37.6881 1080.82,-37.2753 1072.29,-30.996 1070.24,-37.6881"/>
</g>
<!-- 1729278125584 -->
<g id="node14" class="node"><title>1729278125584</title>
<polygon fill="black" stroke="black" points="864,-63 810,-63 810,-27 864,-27 864,-63"/>
</g>
<!-- 1729278124864 -->
<g id="node17" class="node"><title>1729278124864</title>
<ellipse fill="none" stroke="black" cx="927" cy="-45" rx="27" ry="27"/>
</g>
<!-- 1729278125584&#45;&gt;1729278124864 -->
<g id="edge24" class="edge"><title>1729278125584&#45;&gt;1729278124864</title>
<path fill="none" stroke="black" d="M864.403,-45C872.393,-45 881.311,-45 889.824,-45"/>
<polygon fill="black" stroke="black" points="889.919,-48.5001 899.919,-45 889.919,-41.5001 889.919,-48.5001"/>
</g>
<!-- 1729278064336 -->
<g id="node15" class="node"><title>1729278064336</title>
<ellipse fill="green" stroke="black" cx="27" cy="-45" rx="27" ry="27"/>
<text text-anchor="middle" x="27" y="-41.9" font-family="Times New Roman,serif" font-size="12.00">1</text>
</g>
<!-- 1729278064336&#45;&gt;1729273959136 -->
<g id="edge13" class="edge"><title>1729278064336&#45;&gt;1729273959136</title>
<path fill="none" stroke="black" d="M54.4029,-45C62.3932,-45 71.3106,-45 79.8241,-45"/>
<polygon fill="black" stroke="black" points="79.919,-48.5001 89.919,-45 79.919,-41.5001 79.919,-48.5001"/>
</g>
<!-- 1729278124768&#45;&gt;1729278126400 -->
<g id="edge7" class="edge"><title>1729278124768&#45;&gt;1729278126400</title>
<path fill="none" stroke="black" d="M412.982,-52.6649C421.415,-55.2524 431.003,-58.1941 440.111,-60.9885"/>
<polygon fill="black" stroke="black" points="439.141,-64.3519 449.727,-63.9391 441.194,-57.6598 439.141,-64.3519"/>
</g>
<!-- 1729278124768&#45;&gt;1729278125872 -->
<g id="edge8" class="edge"><title>1729278124768&#45;&gt;1729278125872</title>
<path fill="none" stroke="black" d="M412.982,-37.3351C421.415,-34.7476 431.003,-31.8059 440.111,-29.0115"/>
<polygon fill="black" stroke="black" points="441.194,-32.3402 449.727,-26.0609 439.141,-25.6481 441.194,-32.3402"/>
</g>
<!-- 1729278124864&#45;&gt;1729278124480 -->
<g id="edge10" class="edge"><title>1729278124864&#45;&gt;1729278124480</title>
<path fill="none" stroke="black" d="M952.982,-52.6649C961.415,-55.2524 971.003,-58.1941 980.111,-60.9885"/>
<polygon fill="black" stroke="black" points="979.141,-64.3519 989.727,-63.9391 981.194,-57.6598 979.141,-64.3519"/>
</g>
<!-- 1729278124864&#45;&gt;1729278126448 -->
<g id="edge9" class="edge"><title>1729278124864&#45;&gt;1729278126448</title>
<path fill="none" stroke="black" d="M952.982,-37.3351C961.415,-34.7476 971.003,-31.8059 980.111,-29.0115"/>
<polygon fill="black" stroke="black" points="981.194,-32.3402 989.727,-26.0609 979.141,-25.6481 981.194,-32.3402"/>
</g>
<!-- 1729278126352&#45;&gt;1729273962304 -->
<g id="edge11" class="edge"><title>1729278126352&#45;&gt;1729273962304</title>
<path fill="none" stroke="black" d="M1492.98,-52.6649C1501.42,-55.2524 1511,-58.1941 1520.11,-60.9885"/>
<polygon fill="black" stroke="black" points="1519.14,-64.3519 1529.73,-63.9391 1521.19,-57.6598 1519.14,-64.3519"/>
</g>
<!-- 1729278126352&#45;&gt;1729273961728 -->
<g id="edge12" class="edge"><title>1729278126352&#45;&gt;1729273961728</title>
<path fill="none" stroke="black" d="M1492.98,-37.3351C1501.42,-34.7476 1511,-31.8059 1520.11,-29.0115"/>
<polygon fill="black" stroke="black" points="1521.19,-32.3402 1529.73,-26.0609 1519.14,-25.6481 1521.19,-32.3402"/>
</g>
<!-- 1729278127408&#45;&gt;1729278126736 -->
<g id="edge14" class="edge"><title>1729278127408&#45;&gt;1729278126736</title>
<path fill="none" stroke="black" d="M594.403,-45C602.393,-45 611.311,-45 619.824,-45"/>
<polygon fill="black" stroke="black" points="619.919,-48.5001 629.919,-45 619.919,-41.5001 619.919,-48.5001"/>
</g>
<!-- 1729273962400&#45;&gt;1729273960288 -->
<g id="edge15" class="edge"><title>1729273962400&#45;&gt;1729273960288</title>
<path fill="none" stroke="black" d="M1674.4,-45C1682.39,-45 1691.31,-45 1699.82,-45"/>
<polygon fill="black" stroke="black" points="1699.92,-48.5001 1709.92,-45 1699.92,-41.5001 1699.92,-48.5001"/>
</g>
<!-- 1729278124336&#45;&gt;1729273961920 -->
<g id="edge16" class="edge"><title>1729278124336&#45;&gt;1729273961920</title>
<path fill="none" stroke="black" d="M1134.4,-45C1142.39,-45 1151.31,-45 1159.82,-45"/>
<polygon fill="black" stroke="black" points="1159.92,-48.5001 1169.92,-45 1159.92,-41.5001 1159.92,-48.5001"/>
</g>
<!-- 1729269997088&#45;&gt;1729278125728 -->
<g id="edge17" class="edge"><title>1729269997088&#45;&gt;1729278125728</title>
<path fill="none" stroke="black" d="M234.403,-45C242.393,-45 251.311,-45 259.824,-45"/>
<polygon fill="black" stroke="black" points="259.919,-48.5001 269.919,-45 259.919,-41.5001 259.919,-48.5001"/>
</g>
<!-- 1729273962256&#45;&gt;1729278125584 -->
<g id="edge18" class="edge"><title>1729273962256&#45;&gt;1729278125584</title>
<path fill="none" stroke="black" d="M774.403,-45C782.393,-45 791.311,-45 799.824,-45"/>
<polygon fill="black" stroke="black" points="799.919,-48.5001 809.919,-45 799.919,-41.5001 799.919,-48.5001"/>
</g>
<!-- 1729273962208&#45;&gt;1729273961344 -->
<g id="edge19" class="edge"><title>1729273962208&#45;&gt;1729273961344</title>
<path fill="none" stroke="black" d="M1314.4,-45C1322.39,-45 1331.31,-45 1339.82,-45"/>
<polygon fill="black" stroke="black" points="1339.92,-48.5001 1349.92,-45 1339.92,-41.5001 1339.92,-48.5001"/>
</g>
<!-- 1729273960672&#45;&gt;1729273961824 -->
<g id="edge20" class="edge"><title>1729273960672&#45;&gt;1729273961824</title>
<path fill="none" stroke="black" d="M1854.4,-45C1862.39,-45 1871.31,-45 1879.82,-45"/>
<polygon fill="black" stroke="black" points="1879.92,-48.5001 1889.92,-45 1879.92,-41.5001 1879.92,-48.5001"/>
</g>
</g>
</svg>
