<?xml version="1.0" encoding="UTF-8" standalone="no"?>
<!DOCTYPE svg PUBLIC "-//W3C//DTD SVG 1.1//EN"
 "http://www.w3.org/Graphics/SVG/1.1/DTD/svg11.dtd">
<!-- Generated by graphviz version 2.38.0 (20140413.2041)
 -->
<!-- Title: &#45;&gt;( X( &#39;A&#39;, &#39;B&#39;, &#39;I&#39;, &#45;&gt;( X( &#39;C&#39;, &#39;c&#39; ), +( &#39;E&#39;, &#39;D&#39; ) ) ), &#39;F&#39;, X( &#39;H&#39;, &#39;G&#39; ) ) Pages: 1 -->
<svg width="2942pt" height="261pt"
 viewBox="0.00 0.00 2942.00 261.00" xmlns="http://www.w3.org/2000/svg" xmlns:xlink="http://www.w3.org/1999/xlink">
<g id="graph0" class="graph" transform="scale(1 1) rotate(0) translate(4 257)">
<title>&#45;&gt;( X( &#39;A&#39;, &#39;B&#39;, &#39;I&#39;, &#45;&gt;( X( &#39;C&#39;, &#39;c&#39; ), +( &#39;E&#39;, &#39;D&#39; ) ) ), &#39;F&#39;, X( &#39;H&#39;, &#39;G&#39; ) )</title>
<!-- 2711868582592 -->
<g id="node1" class="node"><title>2711868582592</title>
<polygon fill="none" stroke="black" points="594,-253 540,-253 540,-217 594,-217 594,-253"/>
<text text-anchor="middle" x="567" y="-231.9" font-family="Times New Roman,serif" font-size="12.00">A</text>
</g>
<!-- 2711868582160 -->
<g id="node27" class="node"><title>2711868582160</title>
<ellipse fill="none" stroke="black" cx="1827" cy="-173" rx="27" ry="27"/>
</g>
<!-- 2711868582592&#45;&gt;2711868582160 -->
<g id="edge10" class="edge"><title>2711868582592&#45;&gt;2711868582160</title>
<path fill="none" stroke="black" d="M594.238,-235.479C628.958,-236.071 692.071,-237 746,-237 746,-237 746,-237 1648,-237 1701.88,-237 1759.81,-210.711 1794.47,-191.83"/>
<polygon fill="black" stroke="black" points="1796.58,-194.661 1803.61,-186.73 1793.17,-188.549 1796.58,-194.661"/>
</g>
<!-- 2711868582400 -->
<g id="node2" class="node"><title>2711868582400</title>
<polygon fill="none" stroke="black" points="684,-209 630,-209 630,-173 684,-173 684,-209"/>
<text text-anchor="middle" x="657" y="-187.9" font-family="Times New Roman,serif" font-size="12.00">I</text>
</g>
<!-- 2711868582400&#45;&gt;2711868582160 -->
<g id="edge3" class="edge"><title>2711868582400&#45;&gt;2711868582160</title>
<path fill="none" stroke="black" d="M684.239,-191.24C718.959,-191.535 782.074,-192 836,-192 836,-192 836,-192 1648,-192 1697.5,-192 1754.31,-184.645 1790.17,-179.087"/>
<polygon fill="black" stroke="black" points="1790.82,-182.528 1800.15,-177.503 1789.73,-175.614 1790.82,-182.528"/>
</g>
<!-- 2711868583744 -->
<g id="node3" class="node"><title>2711868583744</title>
<polygon fill="none" stroke="black" points="774,-164 720,-164 720,-128 774,-128 774,-164"/>
<text text-anchor="middle" x="747" y="-142.9" font-family="Times New Roman,serif" font-size="12.00">B</text>
</g>
<!-- 2711868583744&#45;&gt;2711868582160 -->
<g id="edge7" class="edge"><title>2711868583744&#45;&gt;2711868582160</title>
<path fill="none" stroke="black" d="M774.222,-147.916C808.925,-150.283 872.02,-154 926,-154 926,-154 926,-154 1648,-154 1697.5,-154 1754.31,-161.355 1790.17,-166.913"/>
<polygon fill="black" stroke="black" points="1789.73,-170.386 1800.15,-168.497 1790.82,-163.472 1789.73,-170.386"/>
</g>
<!-- 2711868581632 -->
<g id="node4" class="node"><title>2711868581632</title>
<polygon fill="black" stroke="black" points="684,-102 630,-102 630,-66 684,-66 684,-102"/>
</g>
<!-- 2711868583552 -->
<g id="node25" class="node"><title>2711868583552</title>
<ellipse fill="none" stroke="black" cx="747" cy="-83" rx="27" ry="27"/>
</g>
<!-- 2711868581632&#45;&gt;2711868583552 -->
<g id="edge40" class="edge"><title>2711868581632&#45;&gt;2711868583552</title>
<path fill="none" stroke="black" d="M684.403,-83.7C692.393,-83.6092 701.311,-83.5078 709.824,-83.4111"/>
<polygon fill="black" stroke="black" points="709.959,-86.9099 719.919,-83.2964 709.88,-79.9103 709.959,-86.9099"/>
</g>
<!-- 2711868744128 -->
<g id="node5" class="node"><title>2711868744128</title>
<polygon fill="black" stroke="black" points="1044,-87 990,-87 990,-51 1044,-51 1044,-87"/>
</g>
<!-- 2711868744368 -->
<g id="node38" class="node"><title>2711868744368</title>
<ellipse fill="none" stroke="black" cx="1107" cy="-69" rx="27" ry="27"/>
</g>
<!-- 2711868744128&#45;&gt;2711868744368 -->
<g id="edge42" class="edge"><title>2711868744128&#45;&gt;2711868744368</title>
<path fill="none" stroke="black" d="M1044.4,-69C1052.39,-69 1061.31,-69 1069.82,-69"/>
<polygon fill="black" stroke="black" points="1069.92,-72.5001 1079.92,-69 1069.92,-65.5001 1069.92,-72.5001"/>
</g>
<!-- 2711868744320 -->
<g id="node6" class="node"><title>2711868744320</title>
<polygon fill="none" stroke="black" points="1404,-117 1350,-117 1350,-81 1404,-81 1404,-117"/>
<text text-anchor="middle" x="1377" y="-95.9" font-family="Times New Roman,serif" font-size="12.00">E</text>
</g>
<!-- 2711868744512 -->
<g id="node32" class="node"><title>2711868744512</title>
<ellipse fill="none" stroke="black" cx="1467" cy="-99" rx="27" ry="27"/>
</g>
<!-- 2711868744320&#45;&gt;2711868744512 -->
<g id="edge1" class="edge"><title>2711868744320&#45;&gt;2711868744512</title>
<path fill="none" stroke="black" d="M1404.4,-99C1412.39,-99 1421.31,-99 1429.82,-99"/>
<polygon fill="black" stroke="black" points="1429.92,-102.5 1439.92,-99 1429.92,-95.5001 1429.92,-102.5"/>
</g>
<!-- 2711868745280 -->
<g id="node7" class="node"><title>2711868745280</title>
<polygon fill="black" stroke="black" points="1584,-117 1530,-117 1530,-81 1584,-81 1584,-117"/>
</g>
<!-- 2711868744224 -->
<g id="node39" class="node"><title>2711868744224</title>
<ellipse fill="none" stroke="black" cx="1647" cy="-99" rx="27" ry="27"/>
</g>
<!-- 2711868745280&#45;&gt;2711868744224 -->
<g id="edge43" class="edge"><title>2711868745280&#45;&gt;2711868744224</title>
<path fill="none" stroke="black" d="M1584.4,-99C1592.39,-99 1601.31,-99 1609.82,-99"/>
<polygon fill="black" stroke="black" points="1609.92,-102.5 1619.92,-99 1609.92,-95.5001 1609.92,-102.5"/>
</g>
<!-- 2711873688192 -->
<g id="node8" class="node"><title>2711873688192</title>
<polygon fill="black" stroke="black" points="1944,-191 1890,-191 1890,-155 1944,-155 1944,-191"/>
</g>
<!-- 2711868582880 -->
<g id="node29" class="node"><title>2711868582880</title>
<ellipse fill="none" stroke="black" cx="2007" cy="-173" rx="27" ry="27"/>
</g>
<!-- 2711873688192&#45;&gt;2711868582880 -->
<g id="edge35" class="edge"><title>2711873688192&#45;&gt;2711868582880</title>
<path fill="none" stroke="black" d="M1944.4,-173C1952.39,-173 1961.31,-173 1969.82,-173"/>
<polygon fill="black" stroke="black" points="1969.92,-176.5 1979.92,-173 1969.92,-169.5 1969.92,-176.5"/>
</g>
<!-- 2711868744464 -->
<g id="node9" class="node"><title>2711868744464</title>
<polygon fill="none" stroke="black" points="1404,-45 1350,-45 1350,-9 1404,-9 1404,-45"/>
<text text-anchor="middle" x="1377" y="-23.9" font-family="Times New Roman,serif" font-size="12.00">D</text>
</g>
<!-- 2711868744944 -->
<g id="node36" class="node"><title>2711868744944</title>
<ellipse fill="none" stroke="black" cx="1467" cy="-27" rx="27" ry="27"/>
</g>
<!-- 2711868744464&#45;&gt;2711868744944 -->
<g id="edge6" class="edge"><title>2711868744464&#45;&gt;2711868744944</title>
<path fill="none" stroke="black" d="M1404.4,-27C1412.39,-27 1421.31,-27 1429.82,-27"/>
<polygon fill="black" stroke="black" points="1429.92,-30.5001 1439.92,-27 1429.92,-23.5001 1429.92,-30.5001"/>
</g>
<!-- 2711873625680 -->
<g id="node10" class="node"><title>2711873625680</title>
<polygon fill="black" stroke="black" points="1764,-122 1710,-122 1710,-86 1764,-86 1764,-122"/>
</g>
<!-- 2711873625680&#45;&gt;2711868582160 -->
<g id="edge46" class="edge"><title>2711873625680&#45;&gt;2711868582160</title>
<path fill="none" stroke="black" d="M1761.12,-122.129C1772.1,-130.74 1785.34,-141.122 1796.99,-150.256"/>
<polygon fill="black" stroke="black" points="1795.11,-153.226 1805.14,-156.642 1799.43,-147.718 1795.11,-153.226"/>
</g>
<!-- 2711873688336 -->
<g id="node11" class="node"><title>2711873688336</title>
<polygon fill="none" stroke="black" points="2484,-218 2430,-218 2430,-182 2484,-182 2484,-218"/>
<text text-anchor="middle" x="2457" y="-196.9" font-family="Times New Roman,serif" font-size="12.00">H</text>
</g>
<!-- 2711873688576 -->
<g id="node34" class="node"><title>2711873688576</title>
<ellipse fill="none" stroke="black" cx="2547" cy="-173" rx="27" ry="27"/>
</g>
<!-- 2711873688336&#45;&gt;2711873688576 -->
<g id="edge9" class="edge"><title>2711873688336&#45;&gt;2711873688576</title>
<path fill="none" stroke="black" d="M2484.4,-191.899C2492.79,-189.326 2502.2,-186.439 2511.09,-183.712"/>
<polygon fill="black" stroke="black" points="2512.29,-187.004 2520.82,-180.725 2510.24,-180.312 2512.29,-187.004"/>
</g>
<!-- 2711873690064 -->
<g id="node12" class="node"><title>2711873690064</title>
<polygon fill="black" stroke="black" points="144,-182 90,-182 90,-146 144,-146 144,-182"/>
</g>
<!-- 2711868582064 -->
<g id="node28" class="node"><title>2711868582064</title>
<ellipse fill="none" stroke="black" cx="207" cy="-164" rx="27" ry="27"/>
</g>
<!-- 2711873690064&#45;&gt;2711868582064 -->
<g id="edge36" class="edge"><title>2711873690064&#45;&gt;2711868582064</title>
<path fill="none" stroke="black" d="M144.403,-164C152.393,-164 161.311,-164 169.824,-164"/>
<polygon fill="black" stroke="black" points="169.919,-167.5 179.919,-164 169.919,-160.5 169.919,-167.5"/>
</g>
<!-- 2711868745184 -->
<g id="node13" class="node"><title>2711868745184</title>
<polygon fill="black" stroke="black" points="1224,-87 1170,-87 1170,-51 1224,-51 1224,-87"/>
</g>
<!-- 2711868582928 -->
<g id="node24" class="node"><title>2711868582928</title>
<ellipse fill="none" stroke="black" cx="1287" cy="-99" rx="27" ry="27"/>
</g>
<!-- 2711868745184&#45;&gt;2711868582928 -->
<g id="edge38" class="edge"><title>2711868745184&#45;&gt;2711868582928</title>
<path fill="none" stroke="black" d="M1224.4,-78.001C1232.95,-80.9162 1242.57,-84.1933 1251.61,-87.2763"/>
<polygon fill="black" stroke="black" points="1250.53,-90.6051 1261.12,-90.5191 1252.79,-83.9795 1250.53,-90.6051"/>
</g>
<!-- 2711868744848 -->
<g id="node35" class="node"><title>2711868744848</title>
<ellipse fill="none" stroke="black" cx="1287" cy="-27" rx="27" ry="27"/>
</g>
<!-- 2711868745184&#45;&gt;2711868744848 -->
<g id="edge39" class="edge"><title>2711868745184&#45;&gt;2711868744848</title>
<path fill="none" stroke="black" d="M1224.4,-56.3986C1233.44,-52.0856 1243.66,-47.2066 1253.15,-42.6805"/>
<polygon fill="black" stroke="black" points="1254.79,-45.7722 1262.31,-38.3062 1251.78,-39.4548 1254.79,-45.7722"/>
</g>
<!-- 2711873688672 -->
<g id="node14" class="node"><title>2711873688672</title>
<polygon fill="black" stroke="black" points="2304,-191 2250,-191 2250,-155 2304,-155 2304,-191"/>
</g>
<!-- 2711868582544 -->
<g id="node26" class="node"><title>2711868582544</title>
<ellipse fill="none" stroke="black" cx="2367" cy="-173" rx="27" ry="27"/>
</g>
<!-- 2711873688672&#45;&gt;2711868582544 -->
<g id="edge41" class="edge"><title>2711873688672&#45;&gt;2711868582544</title>
<path fill="none" stroke="black" d="M2304.4,-173C2312.39,-173 2321.31,-173 2329.82,-173"/>
<polygon fill="black" stroke="black" points="2329.92,-176.5 2339.92,-173 2329.92,-169.5 2329.92,-176.5"/>
</g>
<!-- 2711873688480 -->
<g id="node15" class="node"><title>2711873688480</title>
<polygon fill="none" stroke="black" points="2484,-164 2430,-164 2430,-128 2484,-128 2484,-164"/>
<text text-anchor="middle" x="2457" y="-142.9" font-family="Times New Roman,serif" font-size="12.00">G</text>
</g>
<!-- 2711873688480&#45;&gt;2711873688576 -->
<g id="edge8" class="edge"><title>2711873688480&#45;&gt;2711873688576</title>
<path fill="none" stroke="black" d="M2484.4,-154.101C2492.79,-156.674 2502.2,-159.561 2511.09,-162.288"/>
<polygon fill="black" stroke="black" points="2510.24,-165.688 2520.82,-165.275 2512.29,-158.996 2510.24,-165.688"/>
</g>
<!-- 2711873690208 -->
<g id="node16" class="node"><title>2711873690208</title>
<polygon fill="black" stroke="black" points="2844,-191 2790,-191 2790,-155 2844,-155 2844,-191"/>
</g>
<!-- 2711873690448 -->
<g id="node41" class="node"><title>2711873690448</title>
<ellipse fill="orange" stroke="black" cx="2907" cy="-173" rx="27" ry="27"/>
</g>
<!-- 2711873690208&#45;&gt;2711873690448 -->
<g id="edge37" class="edge"><title>2711873690208&#45;&gt;2711873690448</title>
<path fill="none" stroke="black" d="M2844.4,-173C2852.39,-173 2861.31,-173 2869.82,-173"/>
<polygon fill="black" stroke="black" points="2869.92,-176.5 2879.92,-173 2869.92,-169.5 2869.92,-176.5"/>
</g>
<!-- 2711868580720 -->
<g id="node17" class="node"><title>2711868580720</title>
<polygon fill="none" stroke="black" points="864,-114 810,-114 810,-78 864,-78 864,-114"/>
<text text-anchor="middle" x="837" y="-92.9" font-family="Times New Roman,serif" font-size="12.00">C</text>
</g>
<!-- 2711868582736 -->
<g id="node33" class="node"><title>2711868582736</title>
<ellipse fill="none" stroke="black" cx="927" cy="-69" rx="27" ry="27"/>
</g>
<!-- 2711868580720&#45;&gt;2711868582736 -->
<g id="edge4" class="edge"><title>2711868580720&#45;&gt;2711868582736</title>
<path fill="none" stroke="black" d="M864.403,-87.8991C872.79,-85.3259 882.197,-82.4394 891.088,-79.7117"/>
<polygon fill="black" stroke="black" points="892.29,-83.004 900.823,-76.7247 890.236,-76.3119 892.29,-83.004"/>
</g>
<!-- 2711868582256 -->
<g id="node18" class="node"><title>2711868582256</title>
<polygon fill="none" stroke="black" points="864,-60 810,-60 810,-24 864,-24 864,-60"/>
<text text-anchor="middle" x="837" y="-38.9" font-family="Times New Roman,serif" font-size="12.00">c</text>
</g>
<!-- 2711868582256&#45;&gt;2711868582736 -->
<g id="edge5" class="edge"><title>2711868582256&#45;&gt;2711868582736</title>
<path fill="none" stroke="black" d="M864.403,-50.1009C872.79,-52.6741 882.197,-55.5606 891.088,-58.2883"/>
<polygon fill="black" stroke="black" points="890.236,-61.6881 900.823,-61.2753 892.29,-54.996 890.236,-61.6881"/>
</g>
<!-- 2711873625392 -->
<g id="node19" class="node"><title>2711873625392</title>
<polygon fill="black" stroke="black" points="504,-113 450,-113 450,-77 504,-77 504,-113"/>
</g>
<!-- 2711868581152 -->
<g id="node37" class="node"><title>2711868581152</title>
<ellipse fill="none" stroke="black" cx="567" cy="-86" rx="27" ry="27"/>
</g>
<!-- 2711873625392&#45;&gt;2711868581152 -->
<g id="edge45" class="edge"><title>2711873625392&#45;&gt;2711868581152</title>
<path fill="none" stroke="black" d="M504.403,-92.2997C512.393,-91.4825 521.311,-90.5705 529.824,-89.6998"/>
<polygon fill="black" stroke="black" points="530.327,-93.1667 539.919,-88.6674 529.615,-86.203 530.327,-93.1667"/>
</g>
<!-- 2711868580912 -->
<g id="node20" class="node"><title>2711868580912</title>
<polygon fill="black" stroke="black" points="324,-182 270,-182 270,-146 324,-146 324,-182"/>
</g>
<!-- 2711868583312 -->
<g id="node40" class="node"><title>2711868583312</title>
<ellipse fill="none" stroke="black" cx="387" cy="-164" rx="27" ry="27"/>
</g>
<!-- 2711868580912&#45;&gt;2711868583312 -->
<g id="edge34" class="edge"><title>2711868580912&#45;&gt;2711868583312</title>
<path fill="none" stroke="black" d="M324.403,-164C332.393,-164 341.311,-164 349.824,-164"/>
<polygon fill="black" stroke="black" points="349.919,-167.5 359.919,-164 349.919,-160.5 349.919,-167.5"/>
</g>
<!-- 2711868583792 -->
<g id="node21" class="node"><title>2711868583792</title>
<polygon fill="none" stroke="black" points="2124,-191 2070,-191 2070,-155 2124,-155 2124,-191"/>
<text text-anchor="middle" x="2097" y="-169.9" font-family="Times New Roman,serif" font-size="12.00">F</text>
</g>
<!-- 2711873688432 -->
<g id="node30" class="node"><title>2711873688432</title>
<ellipse fill="none" stroke="black" cx="2187" cy="-173" rx="27" ry="27"/>
</g>
<!-- 2711868583792&#45;&gt;2711873688432 -->
<g id="edge2" class="edge"><title>2711868583792&#45;&gt;2711873688432</title>
<path fill="none" stroke="black" d="M2124.4,-173C2132.39,-173 2141.31,-173 2149.82,-173"/>
<polygon fill="black" stroke="black" points="2149.92,-176.5 2159.92,-173 2149.92,-169.5 2149.92,-176.5"/>
</g>
<!-- 2711873689200 -->
<g id="node22" class="node"><title>2711873689200</title>
<polygon fill="black" stroke="black" points="2664,-191 2610,-191 2610,-155 2664,-155 2664,-191"/>
</g>
<!-- 2711873689392 -->
<g id="node31" class="node"><title>2711873689392</title>
<ellipse fill="none" stroke="black" cx="2727" cy="-173" rx="27" ry="27"/>
</g>
<!-- 2711873689200&#45;&gt;2711873689392 -->
<g id="edge44" class="edge"><title>2711873689200&#45;&gt;2711873689392</title>
<path fill="none" stroke="black" d="M2664.4,-173C2672.39,-173 2681.31,-173 2689.82,-173"/>
<polygon fill="black" stroke="black" points="2689.92,-176.5 2699.92,-173 2689.92,-169.5 2689.92,-176.5"/>
</g>
<!-- 2711873690352 -->
<g id="node23" class="node"><title>2711873690352</title>
<ellipse fill="green" stroke="black" cx="27" cy="-164" rx="27" ry="27"/>
<text text-anchor="middle" x="27" y="-160.9" font-family="Times New Roman,serif" font-size="12.00">1</text>
</g>
<!-- 2711873690352&#45;&gt;2711873690064 -->
<g id="edge21" class="edge"><title>2711873690352&#45;&gt;2711873690064</title>
<path fill="none" stroke="black" d="M54.4029,-164C62.3932,-164 71.3106,-164 79.8241,-164"/>
<polygon fill="black" stroke="black" points="79.919,-167.5 89.919,-164 79.919,-160.5 79.919,-167.5"/>
</g>
<!-- 2711868582928&#45;&gt;2711868744320 -->
<g id="edge11" class="edge"><title>2711868582928&#45;&gt;2711868744320</title>
<path fill="none" stroke="black" d="M1314.4,-99C1322.39,-99 1331.31,-99 1339.82,-99"/>
<polygon fill="black" stroke="black" points="1339.92,-102.5 1349.92,-99 1339.92,-95.5001 1339.92,-102.5"/>
</g>
<!-- 2711868583552&#45;&gt;2711868580720 -->
<g id="edge12" class="edge"><title>2711868583552&#45;&gt;2711868580720</title>
<path fill="none" stroke="black" d="M773.927,-86.8301C782.089,-88.0359 791.256,-89.3901 799.989,-90.6802"/>
<polygon fill="black" stroke="black" points="799.55,-94.1533 809.954,-92.1523 800.573,-87.2284 799.55,-94.1533"/>
</g>
<!-- 2711868583552&#45;&gt;2711868582256 -->
<g id="edge13" class="edge"><title>2711868583552&#45;&gt;2711868582256</title>
<path fill="none" stroke="black" d="M772.046,-71.7966C780.825,-67.7067 790.947,-62.9904 800.512,-58.5341"/>
<polygon fill="black" stroke="black" points="802.234,-61.5931 809.82,-54.1973 799.278,-55.248 802.234,-61.5931"/>
</g>
<!-- 2711868582544&#45;&gt;2711873688336 -->
<g id="edge15" class="edge"><title>2711868582544&#45;&gt;2711873688336</title>
<path fill="none" stroke="black" d="M2392.98,-180.665C2401.42,-183.252 2411,-186.194 2420.11,-188.989"/>
<polygon fill="black" stroke="black" points="2419.14,-192.352 2429.73,-191.939 2421.19,-185.66 2419.14,-192.352"/>
</g>
<!-- 2711868582544&#45;&gt;2711873688480 -->
<g id="edge14" class="edge"><title>2711868582544&#45;&gt;2711873688480</title>
<path fill="none" stroke="black" d="M2392.98,-165.335C2401.42,-162.748 2411,-159.806 2420.11,-157.011"/>
<polygon fill="black" stroke="black" points="2421.19,-160.34 2429.73,-154.061 2419.14,-153.648 2421.19,-160.34"/>
</g>
<!-- 2711868582160&#45;&gt;2711873688192 -->
<g id="edge16" class="edge"><title>2711868582160&#45;&gt;2711873688192</title>
<path fill="none" stroke="black" d="M1854.4,-173C1862.39,-173 1871.31,-173 1879.82,-173"/>
<polygon fill="black" stroke="black" points="1879.92,-176.5 1889.92,-173 1879.92,-169.5 1879.92,-176.5"/>
</g>
<!-- 2711868582064&#45;&gt;2711868580912 -->
<g id="edge17" class="edge"><title>2711868582064&#45;&gt;2711868580912</title>
<path fill="none" stroke="black" d="M234.403,-164C242.393,-164 251.311,-164 259.824,-164"/>
<polygon fill="black" stroke="black" points="259.919,-167.5 269.919,-164 259.919,-160.5 259.919,-167.5"/>
</g>
<!-- 2711868582880&#45;&gt;2711868583792 -->
<g id="edge18" class="edge"><title>2711868582880&#45;&gt;2711868583792</title>
<path fill="none" stroke="black" d="M2034.4,-173C2042.39,-173 2051.31,-173 2059.82,-173"/>
<polygon fill="black" stroke="black" points="2059.92,-176.5 2069.92,-173 2059.92,-169.5 2059.92,-176.5"/>
</g>
<!-- 2711873688432&#45;&gt;2711873688672 -->
<g id="edge19" class="edge"><title>2711873688432&#45;&gt;2711873688672</title>
<path fill="none" stroke="black" d="M2214.4,-173C2222.39,-173 2231.31,-173 2239.82,-173"/>
<polygon fill="black" stroke="black" points="2239.92,-176.5 2249.92,-173 2239.92,-169.5 2239.92,-176.5"/>
</g>
<!-- 2711873689392&#45;&gt;2711873690208 -->
<g id="edge20" class="edge"><title>2711873689392&#45;&gt;2711873690208</title>
<path fill="none" stroke="black" d="M2754.4,-173C2762.39,-173 2771.31,-173 2779.82,-173"/>
<polygon fill="black" stroke="black" points="2779.92,-176.5 2789.92,-173 2779.92,-169.5 2779.92,-176.5"/>
</g>
<!-- 2711868744512&#45;&gt;2711868745280 -->
<g id="edge22" class="edge"><title>2711868744512&#45;&gt;2711868745280</title>
<path fill="none" stroke="black" d="M1494.4,-99C1502.39,-99 1511.31,-99 1519.82,-99"/>
<polygon fill="black" stroke="black" points="1519.92,-102.5 1529.92,-99 1519.92,-95.5001 1519.92,-102.5"/>
</g>
<!-- 2711868582736&#45;&gt;2711868744128 -->
<g id="edge23" class="edge"><title>2711868582736&#45;&gt;2711868744128</title>
<path fill="none" stroke="black" d="M954.403,-69C962.393,-69 971.311,-69 979.824,-69"/>
<polygon fill="black" stroke="black" points="979.919,-72.5001 989.919,-69 979.919,-65.5001 979.919,-72.5001"/>
</g>
<!-- 2711873688576&#45;&gt;2711873689200 -->
<g id="edge24" class="edge"><title>2711873688576&#45;&gt;2711873689200</title>
<path fill="none" stroke="black" d="M2574.4,-173C2582.39,-173 2591.31,-173 2599.82,-173"/>
<polygon fill="black" stroke="black" points="2599.92,-176.5 2609.92,-173 2599.92,-169.5 2599.92,-176.5"/>
</g>
<!-- 2711868744848&#45;&gt;2711868744464 -->
<g id="edge25" class="edge"><title>2711868744848&#45;&gt;2711868744464</title>
<path fill="none" stroke="black" d="M1314.4,-27C1322.39,-27 1331.31,-27 1339.82,-27"/>
<polygon fill="black" stroke="black" points="1339.92,-30.5001 1349.92,-27 1339.92,-23.5001 1339.92,-30.5001"/>
</g>
<!-- 2711868744944&#45;&gt;2711868745280 -->
<g id="edge26" class="edge"><title>2711868744944&#45;&gt;2711868745280</title>
<path fill="none" stroke="black" d="M1488.41,-43.6992C1499.57,-52.832 1513.61,-64.3176 1526,-74.4517"/>
<polygon fill="black" stroke="black" points="1523.89,-77.2543 1533.85,-80.8778 1528.33,-71.8366 1523.89,-77.2543"/>
</g>
<!-- 2711868581152&#45;&gt;2711868581632 -->
<g id="edge27" class="edge"><title>2711868581152&#45;&gt;2711868581632</title>
<path fill="none" stroke="black" d="M594.403,-85.3999C602.393,-85.2183 611.311,-85.0157 619.824,-84.8222"/>
<polygon fill="black" stroke="black" points="620.001,-88.3192 629.919,-84.5928 619.842,-81.321 620.001,-88.3192"/>
</g>
<!-- 2711868744368&#45;&gt;2711868745184 -->
<g id="edge28" class="edge"><title>2711868744368&#45;&gt;2711868745184</title>
<path fill="none" stroke="black" d="M1134.4,-69C1142.39,-69 1151.31,-69 1159.82,-69"/>
<polygon fill="black" stroke="black" points="1159.92,-72.5001 1169.92,-69 1159.92,-65.5001 1159.92,-72.5001"/>
</g>
<!-- 2711868744224&#45;&gt;2711873625680 -->
<g id="edge29" class="edge"><title>2711868744224&#45;&gt;2711873625680</title>
<path fill="none" stroke="black" d="M1674.4,-100.5C1682.39,-100.954 1691.31,-101.461 1699.82,-101.945"/>
<polygon fill="black" stroke="black" points="1699.74,-105.445 1709.92,-102.518 1700.13,-98.4564 1699.74,-105.445"/>
</g>
<!-- 2711868583312&#45;&gt;2711868582592 -->
<g id="edge32" class="edge"><title>2711868583312&#45;&gt;2711868582592</title>
<path fill="none" stroke="black" d="M409.658,-178.771C421.247,-186.192 435.984,-194.882 450,-201 475.802,-212.263 506.415,-221.058 529.713,-226.879"/>
<polygon fill="black" stroke="black" points="528.992,-230.306 539.535,-229.266 530.645,-223.504 528.992,-230.306"/>
</g>
<!-- 2711868583312&#45;&gt;2711868582400 -->
<g id="edge30" class="edge"><title>2711868583312&#45;&gt;2711868582400</title>
<path fill="none" stroke="black" d="M414.185,-166.638C462.318,-171.487 564.935,-181.826 619.736,-187.347"/>
<polygon fill="black" stroke="black" points="619.408,-190.831 629.709,-188.351 620.11,-183.866 619.408,-190.831"/>
</g>
<!-- 2711868583312&#45;&gt;2711868583744 -->
<g id="edge31" class="edge"><title>2711868583312&#45;&gt;2711868583744</title>
<path fill="none" stroke="black" d="M414.035,-162.691C476.912,-159.53 637.192,-151.471 709.561,-147.832"/>
<polygon fill="black" stroke="black" points="709.767,-151.326 719.579,-147.328 709.416,-144.335 709.767,-151.326"/>
</g>
<!-- 2711868583312&#45;&gt;2711873625392 -->
<g id="edge33" class="edge"><title>2711868583312&#45;&gt;2711873625392</title>
<path fill="none" stroke="black" d="M408.855,-147.648C419.592,-139.229 432.899,-128.795 444.828,-119.442"/>
<polygon fill="black" stroke="black" points="447.108,-122.102 452.818,-113.177 442.789,-116.593 447.108,-122.102"/>
</g>
</g>
</svg>
