<?xml version="1.0" encoding="UTF-8" standalone="no"?>
<!DOCTYPE svg PUBLIC "-//W3C//DTD SVG 1.1//EN"
 "http://www.w3.org/Graphics/SVG/1.1/DTD/svg11.dtd">
<!-- Generated by graphviz version 2.38.0 (20140413.2041)
 -->
<!-- Title: &#45;&gt;( X( &#39;A1&#39;, &#39;A2&#39; ), &#39;B&#39;, &#39;C&#39;, X( &#39;D1&#39;, &#39;D2&#39; ), &#39;E1&#39;, &#39;E2&#39;, &#39;F&#39; ) Pages: 1 -->
<svg width="2402pt" height="98pt"
 viewBox="0.00 0.00 2402.00 98.00" xmlns="http://www.w3.org/2000/svg" xmlns:xlink="http://www.w3.org/1999/xlink">
<g id="graph0" class="graph" transform="scale(1 1) rotate(0) translate(4 94)">
<title>&#45;&gt;( X( &#39;A1&#39;, &#39;A2&#39; ), &#39;B&#39;, &#39;C&#39;, X( &#39;D1&#39;, &#39;D2&#39; ), &#39;E1&#39;, &#39;E2&#39;, &#39;F&#39; )</title>
<!-- 1395579947232 -->
<g id="node1" class="node"><title>1395579947232</title>
<polygon fill="black" stroke="black" points="324,-63 270,-63 270,-27 324,-27 324,-63"/>
</g>
<!-- 1395579946080 -->
<g id="node17" class="node"><title>1395579946080</title>
<ellipse fill="none" stroke="black" cx="387" cy="-45" rx="27" ry="27"/>
</g>
<!-- 1395579947232&#45;&gt;1395579946080 -->
<g id="edge28" class="edge"><title>1395579947232&#45;&gt;1395579946080</title>
<path fill="none" stroke="black" d="M324.403,-45C332.393,-45 341.311,-45 349.824,-45"/>
<polygon fill="black" stroke="black" points="349.919,-48.5001 359.919,-45 349.919,-41.5001 349.919,-48.5001"/>
</g>
<!-- 1395580078880 -->
<g id="node2" class="node"><title>1395580078880</title>
<polygon fill="black" stroke="black" points="684,-63 630,-63 630,-27 684,-27 684,-63"/>
</g>
<!-- 1395578363424 -->
<g id="node24" class="node"><title>1395578363424</title>
<ellipse fill="none" stroke="black" cx="747" cy="-45" rx="27" ry="27"/>
</g>
<!-- 1395580078880&#45;&gt;1395578363424 -->
<g id="edge30" class="edge"><title>1395580078880&#45;&gt;1395578363424</title>
<path fill="none" stroke="black" d="M684.403,-45C692.393,-45 701.311,-45 709.824,-45"/>
<polygon fill="black" stroke="black" points="709.919,-48.5001 719.919,-45 709.919,-41.5001 709.919,-48.5001"/>
</g>
<!-- 1395579947904 -->
<g id="node3" class="node"><title>1395579947904</title>
<polygon fill="none" stroke="black" points="864,-63 810,-63 810,-27 864,-27 864,-63"/>
<text text-anchor="middle" x="837" y="-41.9" font-family="Times New Roman,serif" font-size="12.00">B</text>
</g>
<!-- 1395578632368 -->
<g id="node25" class="node"><title>1395578632368</title>
<ellipse fill="none" stroke="black" cx="927" cy="-45" rx="27" ry="27"/>
</g>
<!-- 1395579947904&#45;&gt;1395578632368 -->
<g id="edge2" class="edge"><title>1395579947904&#45;&gt;1395578632368</title>
<path fill="none" stroke="black" d="M864.403,-45C872.393,-45 881.311,-45 889.824,-45"/>
<polygon fill="black" stroke="black" points="889.919,-48.5001 899.919,-45 889.919,-41.5001 889.919,-48.5001"/>
</g>
<!-- 1395579949312 -->
<g id="node4" class="node"><title>1395579949312</title>
<polygon fill="none" stroke="black" points="1404,-90 1350,-90 1350,-54 1404,-54 1404,-90"/>
<text text-anchor="middle" x="1377" y="-68.9" font-family="Times New Roman,serif" font-size="12.00">D2</text>
</g>
<!-- 1395579949408 -->
<g id="node22" class="node"><title>1395579949408</title>
<ellipse fill="none" stroke="black" cx="1467" cy="-45" rx="27" ry="27"/>
</g>
<!-- 1395579949312&#45;&gt;1395579949408 -->
<g id="edge8" class="edge"><title>1395579949312&#45;&gt;1395579949408</title>
<path fill="none" stroke="black" d="M1404.4,-63.8991C1412.79,-61.3259 1422.2,-58.4394 1431.09,-55.7117"/>
<polygon fill="black" stroke="black" points="1432.29,-59.004 1440.82,-52.7247 1430.24,-52.3119 1432.29,-59.004"/>
</g>
<!-- 1395578632944 -->
<g id="node5" class="node"><title>1395578632944</title>
<polygon fill="black" stroke="black" points="2304,-63 2250,-63 2250,-27 2304,-27 2304,-63"/>
</g>
<!-- 1395577169712 -->
<g id="node29" class="node"><title>1395577169712</title>
<ellipse fill="orange" stroke="black" cx="2367" cy="-45" rx="27" ry="27"/>
</g>
<!-- 1395578632944&#45;&gt;1395577169712 -->
<g id="edge26" class="edge"><title>1395578632944&#45;&gt;1395577169712</title>
<path fill="none" stroke="black" d="M2304.4,-45C2312.39,-45 2321.31,-45 2329.82,-45"/>
<polygon fill="black" stroke="black" points="2329.92,-48.5001 2339.92,-45 2329.92,-41.5001 2329.92,-48.5001"/>
</g>
<!-- 1395579947952 -->
<g id="node6" class="node"><title>1395579947952</title>
<polygon fill="none" stroke="black" points="504,-90 450,-90 450,-54 504,-54 504,-90"/>
<text text-anchor="middle" x="477" y="-68.9" font-family="Times New Roman,serif" font-size="12.00">A1</text>
</g>
<!-- 1395579947136 -->
<g id="node21" class="node"><title>1395579947136</title>
<ellipse fill="none" stroke="black" cx="567" cy="-45" rx="27" ry="27"/>
</g>
<!-- 1395579947952&#45;&gt;1395579947136 -->
<g id="edge3" class="edge"><title>1395579947952&#45;&gt;1395579947136</title>
<path fill="none" stroke="black" d="M504.403,-63.8991C512.79,-61.3259 522.197,-58.4394 531.088,-55.7117"/>
<polygon fill="black" stroke="black" points="532.29,-59.004 540.823,-52.7247 530.236,-52.3119 532.29,-59.004"/>
</g>
<!-- 1395579946992 -->
<g id="node7" class="node"><title>1395579946992</title>
<polygon fill="none" stroke="black" points="504,-36 450,-36 450,-0 504,-0 504,-36"/>
<text text-anchor="middle" x="477" y="-14.9" font-family="Times New Roman,serif" font-size="12.00">A2</text>
</g>
<!-- 1395579946992&#45;&gt;1395579947136 -->
<g id="edge5" class="edge"><title>1395579946992&#45;&gt;1395579947136</title>
<path fill="none" stroke="black" d="M504.403,-26.1009C512.79,-28.6741 522.197,-31.5606 531.088,-34.2883"/>
<polygon fill="black" stroke="black" points="530.236,-37.6881 540.823,-37.2753 532.29,-30.996 530.236,-37.6881"/>
</g>
<!-- 1395580079312 -->
<g id="node8" class="node"><title>1395580079312</title>
<polygon fill="none" stroke="black" points="1044,-63 990,-63 990,-27 1044,-27 1044,-63"/>
<text text-anchor="middle" x="1017" y="-41.9" font-family="Times New Roman,serif" font-size="12.00">C</text>
</g>
<!-- 1395578632032 -->
<g id="node26" class="node"><title>1395578632032</title>
<ellipse fill="none" stroke="black" cx="1107" cy="-45" rx="27" ry="27"/>
</g>
<!-- 1395580079312&#45;&gt;1395578632032 -->
<g id="edge4" class="edge"><title>1395580079312&#45;&gt;1395578632032</title>
<path fill="none" stroke="black" d="M1044.4,-45C1052.39,-45 1061.31,-45 1069.82,-45"/>
<polygon fill="black" stroke="black" points="1069.92,-48.5001 1079.92,-45 1069.92,-41.5001 1069.92,-48.5001"/>
</g>
<!-- 1395579949168 -->
<g id="node9" class="node"><title>1395579949168</title>
<polygon fill="none" stroke="black" points="1404,-36 1350,-36 1350,-0 1404,-0 1404,-36"/>
<text text-anchor="middle" x="1377" y="-14.9" font-family="Times New Roman,serif" font-size="12.00">D1</text>
</g>
<!-- 1395579949168&#45;&gt;1395579949408 -->
<g id="edge7" class="edge"><title>1395579949168&#45;&gt;1395579949408</title>
<path fill="none" stroke="black" d="M1404.4,-26.1009C1412.79,-28.6741 1422.2,-31.5606 1431.09,-34.2883"/>
<polygon fill="black" stroke="black" points="1430.24,-37.6881 1440.82,-37.2753 1432.29,-30.996 1430.24,-37.6881"/>
</g>
<!-- 1395579949840 -->
<g id="node10" class="node"><title>1395579949840</title>
<polygon fill="black" stroke="black" points="1224,-63 1170,-63 1170,-27 1224,-27 1224,-63"/>
</g>
<!-- 1395580079408 -->
<g id="node18" class="node"><title>1395580079408</title>
<ellipse fill="none" stroke="black" cx="1287" cy="-45" rx="27" ry="27"/>
</g>
<!-- 1395579949840&#45;&gt;1395580079408 -->
<g id="edge27" class="edge"><title>1395579949840&#45;&gt;1395580079408</title>
<path fill="none" stroke="black" d="M1224.4,-45C1232.39,-45 1241.31,-45 1249.82,-45"/>
<polygon fill="black" stroke="black" points="1249.92,-48.5001 1259.92,-45 1249.92,-41.5001 1249.92,-48.5001"/>
</g>
<!-- 1395579950224 -->
<g id="node11" class="node"><title>1395579950224</title>
<polygon fill="black" stroke="black" points="1584,-63 1530,-63 1530,-27 1584,-27 1584,-63"/>
</g>
<!-- 1395578631264 -->
<g id="node27" class="node"><title>1395578631264</title>
<ellipse fill="none" stroke="black" cx="1647" cy="-45" rx="27" ry="27"/>
</g>
<!-- 1395579950224&#45;&gt;1395578631264 -->
<g id="edge29" class="edge"><title>1395579950224&#45;&gt;1395578631264</title>
<path fill="none" stroke="black" d="M1584.4,-45C1592.39,-45 1601.31,-45 1609.82,-45"/>
<polygon fill="black" stroke="black" points="1609.92,-48.5001 1619.92,-45 1609.92,-41.5001 1609.92,-48.5001"/>
</g>
<!-- 1395579949264 -->
<g id="node12" class="node"><title>1395579949264</title>
<polygon fill="none" stroke="black" points="1764,-63 1710,-63 1710,-27 1764,-27 1764,-63"/>
<text text-anchor="middle" x="1737" y="-41.9" font-family="Times New Roman,serif" font-size="12.00">E1</text>
</g>
<!-- 1395578632176 -->
<g id="node28" class="node"><title>1395578632176</title>
<ellipse fill="none" stroke="black" cx="1827" cy="-45" rx="27" ry="27"/>
</g>
<!-- 1395579949264&#45;&gt;1395578632176 -->
<g id="edge6" class="edge"><title>1395579949264&#45;&gt;1395578632176</title>
<path fill="none" stroke="black" d="M1764.4,-45C1772.39,-45 1781.31,-45 1789.82,-45"/>
<polygon fill="black" stroke="black" points="1789.92,-48.5001 1799.92,-45 1789.92,-41.5001 1789.92,-48.5001"/>
</g>
<!-- 1395578362320 -->
<g id="node13" class="node"><title>1395578362320</title>
<polygon fill="none" stroke="black" points="1944,-63 1890,-63 1890,-27 1944,-27 1944,-63"/>
<text text-anchor="middle" x="1917" y="-41.9" font-family="Times New Roman,serif" font-size="12.00">E2</text>
</g>
<!-- 1395578633520 -->
<g id="node19" class="node"><title>1395578633520</title>
<ellipse fill="none" stroke="black" cx="2007" cy="-45" rx="27" ry="27"/>
</g>
<!-- 1395578362320&#45;&gt;1395578633520 -->
<g id="edge1" class="edge"><title>1395578362320&#45;&gt;1395578633520</title>
<path fill="none" stroke="black" d="M1944.4,-45C1952.39,-45 1961.31,-45 1969.82,-45"/>
<polygon fill="black" stroke="black" points="1969.92,-48.5001 1979.92,-45 1969.92,-41.5001 1969.92,-48.5001"/>
</g>
<!-- 1395578362800 -->
<g id="node14" class="node"><title>1395578362800</title>
<polygon fill="none" stroke="black" points="2124,-63 2070,-63 2070,-27 2124,-27 2124,-63"/>
<text text-anchor="middle" x="2097" y="-41.9" font-family="Times New Roman,serif" font-size="12.00">F</text>
</g>
<!-- 1395578633664 -->
<g id="node20" class="node"><title>1395578633664</title>
<ellipse fill="none" stroke="black" cx="2187" cy="-45" rx="27" ry="27"/>
</g>
<!-- 1395578362800&#45;&gt;1395578633664 -->
<g id="edge9" class="edge"><title>1395578362800&#45;&gt;1395578633664</title>
<path fill="none" stroke="black" d="M2124.4,-45C2132.39,-45 2141.31,-45 2149.82,-45"/>
<polygon fill="black" stroke="black" points="2149.92,-48.5001 2159.92,-45 2149.92,-41.5001 2149.92,-48.5001"/>
</g>
<!-- 1395578633040 -->
<g id="node15" class="node"><title>1395578633040</title>
<polygon fill="black" stroke="black" points="144,-63 90,-63 90,-27 144,-27 144,-63"/>
</g>
<!-- 1395579947760 -->
<g id="node23" class="node"><title>1395579947760</title>
<ellipse fill="none" stroke="black" cx="207" cy="-45" rx="27" ry="27"/>
</g>
<!-- 1395578633040&#45;&gt;1395579947760 -->
<g id="edge25" class="edge"><title>1395578633040&#45;&gt;1395579947760</title>
<path fill="none" stroke="black" d="M144.403,-45C152.393,-45 161.311,-45 169.824,-45"/>
<polygon fill="black" stroke="black" points="169.919,-48.5001 179.919,-45 169.919,-41.5001 169.919,-48.5001"/>
</g>
<!-- 1395578630640 -->
<g id="node16" class="node"><title>1395578630640</title>
<ellipse fill="green" stroke="black" cx="27" cy="-45" rx="27" ry="27"/>
<text text-anchor="middle" x="27" y="-41.9" font-family="Times New Roman,serif" font-size="12.00">1</text>
</g>
<!-- 1395578630640&#45;&gt;1395578633040 -->
<g id="edge16" class="edge"><title>1395578630640&#45;&gt;1395578633040</title>
<path fill="none" stroke="black" d="M54.4029,-45C62.3932,-45 71.3106,-45 79.8241,-45"/>
<polygon fill="black" stroke="black" points="79.919,-48.5001 89.919,-45 79.919,-41.5001 79.919,-48.5001"/>
</g>
<!-- 1395579946080&#45;&gt;1395579947952 -->
<g id="edge10" class="edge"><title>1395579946080&#45;&gt;1395579947952</title>
<path fill="none" stroke="black" d="M412.982,-52.6649C421.415,-55.2524 431.003,-58.1941 440.111,-60.9885"/>
<polygon fill="black" stroke="black" points="439.141,-64.3519 449.727,-63.9391 441.194,-57.6598 439.141,-64.3519"/>
</g>
<!-- 1395579946080&#45;&gt;1395579946992 -->
<g id="edge11" class="edge"><title>1395579946080&#45;&gt;1395579946992</title>
<path fill="none" stroke="black" d="M412.982,-37.3351C421.415,-34.7476 431.003,-31.8059 440.111,-29.0115"/>
<polygon fill="black" stroke="black" points="441.194,-32.3402 449.727,-26.0609 439.141,-25.6481 441.194,-32.3402"/>
</g>
<!-- 1395580079408&#45;&gt;1395579949312 -->
<g id="edge13" class="edge"><title>1395580079408&#45;&gt;1395579949312</title>
<path fill="none" stroke="black" d="M1312.98,-52.6649C1321.42,-55.2524 1331,-58.1941 1340.11,-60.9885"/>
<polygon fill="black" stroke="black" points="1339.14,-64.3519 1349.73,-63.9391 1341.19,-57.6598 1339.14,-64.3519"/>
</g>
<!-- 1395580079408&#45;&gt;1395579949168 -->
<g id="edge12" class="edge"><title>1395580079408&#45;&gt;1395579949168</title>
<path fill="none" stroke="black" d="M1312.98,-37.3351C1321.42,-34.7476 1331,-31.8059 1340.11,-29.0115"/>
<polygon fill="black" stroke="black" points="1341.19,-32.3402 1349.73,-26.0609 1339.14,-25.6481 1341.19,-32.3402"/>
</g>
<!-- 1395578633520&#45;&gt;1395578362800 -->
<g id="edge14" class="edge"><title>1395578633520&#45;&gt;1395578362800</title>
<path fill="none" stroke="black" d="M2034.4,-45C2042.39,-45 2051.31,-45 2059.82,-45"/>
<polygon fill="black" stroke="black" points="2059.92,-48.5001 2069.92,-45 2059.92,-41.5001 2059.92,-48.5001"/>
</g>
<!-- 1395578633664&#45;&gt;1395578632944 -->
<g id="edge15" class="edge"><title>1395578633664&#45;&gt;1395578632944</title>
<path fill="none" stroke="black" d="M2214.4,-45C2222.39,-45 2231.31,-45 2239.82,-45"/>
<polygon fill="black" stroke="black" points="2239.92,-48.5001 2249.92,-45 2239.92,-41.5001 2239.92,-48.5001"/>
</g>
<!-- 1395579947136&#45;&gt;1395580078880 -->
<g id="edge17" class="edge"><title>1395579947136&#45;&gt;1395580078880</title>
<path fill="none" stroke="black" d="M594.403,-45C602.393,-45 611.311,-45 619.824,-45"/>
<polygon fill="black" stroke="black" points="619.919,-48.5001 629.919,-45 619.919,-41.5001 619.919,-48.5001"/>
</g>
<!-- 1395579949408&#45;&gt;1395579950224 -->
<g id="edge18" class="edge"><title>1395579949408&#45;&gt;1395579950224</title>
<path fill="none" stroke="black" d="M1494.4,-45C1502.39,-45 1511.31,-45 1519.82,-45"/>
<polygon fill="black" stroke="black" points="1519.92,-48.5001 1529.92,-45 1519.92,-41.5001 1519.92,-48.5001"/>
</g>
<!-- 1395579947760&#45;&gt;1395579947232 -->
<g id="edge19" class="edge"><title>1395579947760&#45;&gt;1395579947232</title>
<path fill="none" stroke="black" d="M234.403,-45C242.393,-45 251.311,-45 259.824,-45"/>
<polygon fill="black" stroke="black" points="259.919,-48.5001 269.919,-45 259.919,-41.5001 259.919,-48.5001"/>
</g>
<!-- 1395578363424&#45;&gt;1395579947904 -->
<g id="edge20" class="edge"><title>1395578363424&#45;&gt;1395579947904</title>
<path fill="none" stroke="black" d="M774.403,-45C782.393,-45 791.311,-45 799.824,-45"/>
<polygon fill="black" stroke="black" points="799.919,-48.5001 809.919,-45 799.919,-41.5001 799.919,-48.5001"/>
</g>
<!-- 1395578632368&#45;&gt;1395580079312 -->
<g id="edge21" class="edge"><title>1395578632368&#45;&gt;1395580079312</title>
<path fill="none" stroke="black" d="M954.403,-45C962.393,-45 971.311,-45 979.824,-45"/>
<polygon fill="black" stroke="black" points="979.919,-48.5001 989.919,-45 979.919,-41.5001 979.919,-48.5001"/>
</g>
<!-- 1395578632032&#45;&gt;1395579949840 -->
<g id="edge22" class="edge"><title>1395578632032&#45;&gt;1395579949840</title>
<path fill="none" stroke="black" d="M1134.4,-45C1142.39,-45 1151.31,-45 1159.82,-45"/>
<polygon fill="black" stroke="black" points="1159.92,-48.5001 1169.92,-45 1159.92,-41.5001 1159.92,-48.5001"/>
</g>
<!-- 1395578631264&#45;&gt;1395579949264 -->
<g id="edge23" class="edge"><title>1395578631264&#45;&gt;1395579949264</title>
<path fill="none" stroke="black" d="M1674.4,-45C1682.39,-45 1691.31,-45 1699.82,-45"/>
<polygon fill="black" stroke="black" points="1699.92,-48.5001 1709.92,-45 1699.92,-41.5001 1699.92,-48.5001"/>
</g>
<!-- 1395578632176&#45;&gt;1395578362320 -->
<g id="edge24" class="edge"><title>1395578632176&#45;&gt;1395578362320</title>
<path fill="none" stroke="black" d="M1854.4,-45C1862.39,-45 1871.31,-45 1879.82,-45"/>
<polygon fill="black" stroke="black" points="1879.92,-48.5001 1889.92,-45 1879.92,-41.5001 1879.92,-48.5001"/>
</g>
</g>
</svg>
