<?xml version="1.0" encoding="UTF-8" standalone="no"?>
<!DOCTYPE svg PUBLIC "-//W3C//DTD SVG 1.1//EN"
 "http://www.w3.org/Graphics/SVG/1.1/DTD/svg11.dtd">
<!-- Generated by graphviz version 2.38.0 (20140413.2041)
 -->
<!-- Title: &#45;&gt;( X( &#39;A&#39;, &#39;B&#39; ), &#39;C&#39;, X( &#39;E&#39;, &#39;D&#39; ), &#39;F&#39;, X( &#39;H&#39;, &#39;G&#39; ) ) Pages: 1 -->
<svg width="2402pt" height="98pt"
 viewBox="0.00 0.00 2402.00 98.00" xmlns="http://www.w3.org/2000/svg" xmlns:xlink="http://www.w3.org/1999/xlink">
<g id="graph0" class="graph" transform="scale(1 1) rotate(0) translate(4 94)">
<title>&#45;&gt;( X( &#39;A&#39;, &#39;B&#39; ), &#39;C&#39;, X( &#39;E&#39;, &#39;D&#39; ), &#39;F&#39;, X( &#39;H&#39;, &#39;G&#39; ) )</title>
<!-- 2399480485152 -->
<g id="node1" class="node"><title>2399480485152</title>
<polygon fill="black" stroke="black" points="684,-63 630,-63 630,-27 684,-27 684,-63"/>
</g>
<!-- 2399480486928 -->
<g id="node27" class="node"><title>2399480486928</title>
<ellipse fill="none" stroke="black" cx="747" cy="-45" rx="27" ry="27"/>
</g>
<!-- 2399480485152&#45;&gt;2399480486928 -->
<g id="edge30" class="edge"><title>2399480485152&#45;&gt;2399480486928</title>
<path fill="none" stroke="black" d="M684.403,-45C692.393,-45 701.311,-45 709.824,-45"/>
<polygon fill="black" stroke="black" points="709.919,-48.5001 719.919,-45 709.919,-41.5001 709.919,-48.5001"/>
</g>
<!-- 2399480484576 -->
<g id="node2" class="node"><title>2399480484576</title>
<polygon fill="black" stroke="black" points="324,-63 270,-63 270,-27 324,-27 324,-63"/>
</g>
<!-- 2399480484000 -->
<g id="node20" class="node"><title>2399480484000</title>
<ellipse fill="none" stroke="black" cx="387" cy="-45" rx="27" ry="27"/>
</g>
<!-- 2399480484576&#45;&gt;2399480484000 -->
<g id="edge27" class="edge"><title>2399480484576&#45;&gt;2399480484000</title>
<path fill="none" stroke="black" d="M324.403,-45C332.393,-45 341.311,-45 349.824,-45"/>
<polygon fill="black" stroke="black" points="349.919,-48.5001 359.919,-45 349.919,-41.5001 349.919,-48.5001"/>
</g>
<!-- 2399480486016 -->
<g id="node3" class="node"><title>2399480486016</title>
<polygon fill="black" stroke="black" points="1044,-63 990,-63 990,-27 1044,-27 1044,-63"/>
</g>
<!-- 2399480485440 -->
<g id="node19" class="node"><title>2399480485440</title>
<ellipse fill="none" stroke="black" cx="1107" cy="-45" rx="27" ry="27"/>
</g>
<!-- 2399480486016&#45;&gt;2399480485440 -->
<g id="edge28" class="edge"><title>2399480486016&#45;&gt;2399480485440</title>
<path fill="none" stroke="black" d="M1044.4,-45C1052.39,-45 1061.31,-45 1069.82,-45"/>
<polygon fill="black" stroke="black" points="1069.92,-48.5001 1079.92,-45 1069.92,-41.5001 1069.92,-48.5001"/>
</g>
<!-- 2399480486592 -->
<g id="node4" class="node"><title>2399480486592</title>
<polygon fill="black" stroke="black" points="1404,-63 1350,-63 1350,-27 1404,-27 1404,-63"/>
</g>
<!-- 2399480512960 -->
<g id="node29" class="node"><title>2399480512960</title>
<ellipse fill="none" stroke="black" cx="1467" cy="-45" rx="27" ry="27"/>
</g>
<!-- 2399480486592&#45;&gt;2399480512960 -->
<g id="edge31" class="edge"><title>2399480486592&#45;&gt;2399480512960</title>
<path fill="none" stroke="black" d="M1404.4,-45C1412.39,-45 1421.31,-45 1429.82,-45"/>
<polygon fill="black" stroke="black" points="1429.92,-48.5001 1439.92,-45 1429.92,-41.5001 1429.92,-48.5001"/>
</g>
<!-- 2399480487456 -->
<g id="node5" class="node"><title>2399480487456</title>
<polygon fill="black" stroke="black" points="1764,-63 1710,-63 1710,-27 1764,-27 1764,-63"/>
</g>
<!-- 2399480486880 -->
<g id="node18" class="node"><title>2399480486880</title>
<ellipse fill="none" stroke="black" cx="1827" cy="-45" rx="27" ry="27"/>
</g>
<!-- 2399480487456&#45;&gt;2399480486880 -->
<g id="edge29" class="edge"><title>2399480487456&#45;&gt;2399480486880</title>
<path fill="none" stroke="black" d="M1764.4,-45C1772.39,-45 1781.31,-45 1789.82,-45"/>
<polygon fill="black" stroke="black" points="1789.92,-48.5001 1799.92,-45 1789.92,-41.5001 1789.92,-48.5001"/>
</g>
<!-- 2399480512672 -->
<g id="node6" class="node"><title>2399480512672</title>
<polygon fill="black" stroke="black" points="2124,-63 2070,-63 2070,-27 2124,-27 2124,-63"/>
</g>
<!-- 2399480513152 -->
<g id="node22" class="node"><title>2399480513152</title>
<ellipse fill="none" stroke="black" cx="2187" cy="-45" rx="27" ry="27"/>
</g>
<!-- 2399480512672&#45;&gt;2399480513152 -->
<g id="edge32" class="edge"><title>2399480512672&#45;&gt;2399480513152</title>
<path fill="none" stroke="black" d="M2124.4,-45C2132.39,-45 2141.31,-45 2149.82,-45"/>
<polygon fill="black" stroke="black" points="2149.92,-48.5001 2159.92,-45 2149.92,-41.5001 2149.92,-48.5001"/>
</g>
<!-- 2399480514208 -->
<g id="node7" class="node"><title>2399480514208</title>
<polygon fill="black" stroke="black" points="144,-63 90,-63 90,-27 144,-27 144,-63"/>
</g>
<!-- 2399480487120 -->
<g id="node26" class="node"><title>2399480487120</title>
<ellipse fill="none" stroke="black" cx="207" cy="-45" rx="27" ry="27"/>
</g>
<!-- 2399480514208&#45;&gt;2399480487120 -->
<g id="edge25" class="edge"><title>2399480514208&#45;&gt;2399480487120</title>
<path fill="none" stroke="black" d="M144.403,-45C152.393,-45 161.311,-45 169.824,-45"/>
<polygon fill="black" stroke="black" points="169.919,-48.5001 179.919,-45 169.919,-41.5001 169.919,-48.5001"/>
</g>
<!-- 2399480514400 -->
<g id="node8" class="node"><title>2399480514400</title>
<polygon fill="black" stroke="black" points="2304,-63 2250,-63 2250,-27 2304,-27 2304,-63"/>
</g>
<!-- 2399480514640 -->
<g id="node30" class="node"><title>2399480514640</title>
<ellipse fill="orange" stroke="black" cx="2367" cy="-45" rx="27" ry="27"/>
</g>
<!-- 2399480514400&#45;&gt;2399480514640 -->
<g id="edge26" class="edge"><title>2399480514400&#45;&gt;2399480514640</title>
<path fill="none" stroke="black" d="M2304.4,-45C2312.39,-45 2321.31,-45 2329.82,-45"/>
<polygon fill="black" stroke="black" points="2329.92,-48.5001 2339.92,-45 2329.92,-41.5001 2329.92,-48.5001"/>
</g>
<!-- 2399480484144 -->
<g id="node9" class="node"><title>2399480484144</title>
<polygon fill="none" stroke="black" points="504,-90 450,-90 450,-54 504,-54 504,-90"/>
<text text-anchor="middle" x="477" y="-68.9" font-family="Times New Roman,serif" font-size="12.00">A</text>
</g>
<!-- 2399480484480 -->
<g id="node25" class="node"><title>2399480484480</title>
<ellipse fill="none" stroke="black" cx="567" cy="-45" rx="27" ry="27"/>
</g>
<!-- 2399480484144&#45;&gt;2399480484480 -->
<g id="edge3" class="edge"><title>2399480484144&#45;&gt;2399480484480</title>
<path fill="none" stroke="black" d="M504.403,-63.8991C512.79,-61.3259 522.197,-58.4394 531.088,-55.7117"/>
<polygon fill="black" stroke="black" points="532.29,-59.004 540.823,-52.7247 530.236,-52.3119 532.29,-59.004"/>
</g>
<!-- 2399480484336 -->
<g id="node10" class="node"><title>2399480484336</title>
<polygon fill="none" stroke="black" points="504,-36 450,-36 450,-0 504,-0 504,-36"/>
<text text-anchor="middle" x="477" y="-14.9" font-family="Times New Roman,serif" font-size="12.00">B</text>
</g>
<!-- 2399480484336&#45;&gt;2399480484480 -->
<g id="edge4" class="edge"><title>2399480484336&#45;&gt;2399480484480</title>
<path fill="none" stroke="black" d="M504.403,-26.1009C512.79,-28.6741 522.197,-31.5606 531.088,-34.2883"/>
<polygon fill="black" stroke="black" points="530.236,-37.6881 540.823,-37.2753 532.29,-30.996 530.236,-37.6881"/>
</g>
<!-- 2399480484048 -->
<g id="node11" class="node"><title>2399480484048</title>
<polygon fill="none" stroke="black" points="864,-63 810,-63 810,-27 864,-27 864,-63"/>
<text text-anchor="middle" x="837" y="-41.9" font-family="Times New Roman,serif" font-size="12.00">C</text>
</g>
<!-- 2399480512864 -->
<g id="node28" class="node"><title>2399480512864</title>
<ellipse fill="none" stroke="black" cx="927" cy="-45" rx="27" ry="27"/>
</g>
<!-- 2399480484048&#45;&gt;2399480512864 -->
<g id="edge2" class="edge"><title>2399480484048&#45;&gt;2399480512864</title>
<path fill="none" stroke="black" d="M864.403,-45C872.393,-45 881.311,-45 889.824,-45"/>
<polygon fill="black" stroke="black" points="889.919,-48.5001 899.919,-45 889.919,-41.5001 889.919,-48.5001"/>
</g>
<!-- 2399480485584 -->
<g id="node12" class="node"><title>2399480485584</title>
<polygon fill="none" stroke="black" points="1224,-90 1170,-90 1170,-54 1224,-54 1224,-90"/>
<text text-anchor="middle" x="1197" y="-68.9" font-family="Times New Roman,serif" font-size="12.00">E</text>
</g>
<!-- 2399480485920 -->
<g id="node23" class="node"><title>2399480485920</title>
<ellipse fill="none" stroke="black" cx="1287" cy="-45" rx="27" ry="27"/>
</g>
<!-- 2399480485584&#45;&gt;2399480485920 -->
<g id="edge6" class="edge"><title>2399480485584&#45;&gt;2399480485920</title>
<path fill="none" stroke="black" d="M1224.4,-63.8991C1232.79,-61.3259 1242.2,-58.4394 1251.09,-55.7117"/>
<polygon fill="black" stroke="black" points="1252.29,-59.004 1260.82,-52.7247 1250.24,-52.3119 1252.29,-59.004"/>
</g>
<!-- 2399480485776 -->
<g id="node13" class="node"><title>2399480485776</title>
<polygon fill="none" stroke="black" points="1224,-36 1170,-36 1170,-0 1224,-0 1224,-36"/>
<text text-anchor="middle" x="1197" y="-14.9" font-family="Times New Roman,serif" font-size="12.00">D</text>
</g>
<!-- 2399480485776&#45;&gt;2399480485920 -->
<g id="edge1" class="edge"><title>2399480485776&#45;&gt;2399480485920</title>
<path fill="none" stroke="black" d="M1224.4,-26.1009C1232.79,-28.6741 1242.2,-31.5606 1251.09,-34.2883"/>
<polygon fill="black" stroke="black" points="1250.24,-37.6881 1260.82,-37.2753 1252.29,-30.996 1250.24,-37.6881"/>
</g>
<!-- 2399480485488 -->
<g id="node14" class="node"><title>2399480485488</title>
<polygon fill="none" stroke="black" points="1584,-63 1530,-63 1530,-27 1584,-27 1584,-63"/>
<text text-anchor="middle" x="1557" y="-41.9" font-family="Times New Roman,serif" font-size="12.00">F</text>
</g>
<!-- 2399480513056 -->
<g id="node21" class="node"><title>2399480513056</title>
<ellipse fill="none" stroke="black" cx="1647" cy="-45" rx="27" ry="27"/>
</g>
<!-- 2399480485488&#45;&gt;2399480513056 -->
<g id="edge5" class="edge"><title>2399480485488&#45;&gt;2399480513056</title>
<path fill="none" stroke="black" d="M1584.4,-45C1592.39,-45 1601.31,-45 1609.82,-45"/>
<polygon fill="black" stroke="black" points="1609.92,-48.5001 1619.92,-45 1609.92,-41.5001 1609.92,-48.5001"/>
</g>
<!-- 2399480487024 -->
<g id="node15" class="node"><title>2399480487024</title>
<polygon fill="none" stroke="black" points="1944,-90 1890,-90 1890,-54 1944,-54 1944,-90"/>
<text text-anchor="middle" x="1917" y="-68.9" font-family="Times New Roman,serif" font-size="12.00">H</text>
</g>
<!-- 2399480487360 -->
<g id="node24" class="node"><title>2399480487360</title>
<ellipse fill="none" stroke="black" cx="2007" cy="-45" rx="27" ry="27"/>
</g>
<!-- 2399480487024&#45;&gt;2399480487360 -->
<g id="edge8" class="edge"><title>2399480487024&#45;&gt;2399480487360</title>
<path fill="none" stroke="black" d="M1944.4,-63.8991C1952.79,-61.3259 1962.2,-58.4394 1971.09,-55.7117"/>
<polygon fill="black" stroke="black" points="1972.29,-59.004 1980.82,-52.7247 1970.24,-52.3119 1972.29,-59.004"/>
</g>
<!-- 2399480487216 -->
<g id="node16" class="node"><title>2399480487216</title>
<polygon fill="none" stroke="black" points="1944,-36 1890,-36 1890,-0 1944,-0 1944,-36"/>
<text text-anchor="middle" x="1917" y="-14.9" font-family="Times New Roman,serif" font-size="12.00">G</text>
</g>
<!-- 2399480487216&#45;&gt;2399480487360 -->
<g id="edge7" class="edge"><title>2399480487216&#45;&gt;2399480487360</title>
<path fill="none" stroke="black" d="M1944.4,-26.1009C1952.79,-28.6741 1962.2,-31.5606 1971.09,-34.2883"/>
<polygon fill="black" stroke="black" points="1970.24,-37.6881 1980.82,-37.2753 1972.29,-30.996 1970.24,-37.6881"/>
</g>
<!-- 2399480438304 -->
<g id="node17" class="node"><title>2399480438304</title>
<ellipse fill="green" stroke="black" cx="27" cy="-45" rx="27" ry="27"/>
<text text-anchor="middle" x="27" y="-41.9" font-family="Times New Roman,serif" font-size="12.00">1</text>
</g>
<!-- 2399480438304&#45;&gt;2399480514208 -->
<g id="edge17" class="edge"><title>2399480438304&#45;&gt;2399480514208</title>
<path fill="none" stroke="black" d="M54.4029,-45C62.3932,-45 71.3106,-45 79.8241,-45"/>
<polygon fill="black" stroke="black" points="79.919,-48.5001 89.919,-45 79.919,-41.5001 79.919,-48.5001"/>
</g>
<!-- 2399480486880&#45;&gt;2399480487024 -->
<g id="edge10" class="edge"><title>2399480486880&#45;&gt;2399480487024</title>
<path fill="none" stroke="black" d="M1852.98,-52.6649C1861.42,-55.2524 1871,-58.1941 1880.11,-60.9885"/>
<polygon fill="black" stroke="black" points="1879.14,-64.3519 1889.73,-63.9391 1881.19,-57.6598 1879.14,-64.3519"/>
</g>
<!-- 2399480486880&#45;&gt;2399480487216 -->
<g id="edge9" class="edge"><title>2399480486880&#45;&gt;2399480487216</title>
<path fill="none" stroke="black" d="M1852.98,-37.3351C1861.42,-34.7476 1871,-31.8059 1880.11,-29.0115"/>
<polygon fill="black" stroke="black" points="1881.19,-32.3402 1889.73,-26.0609 1879.14,-25.6481 1881.19,-32.3402"/>
</g>
<!-- 2399480485440&#45;&gt;2399480485584 -->
<g id="edge12" class="edge"><title>2399480485440&#45;&gt;2399480485584</title>
<path fill="none" stroke="black" d="M1132.98,-52.6649C1141.42,-55.2524 1151,-58.1941 1160.11,-60.9885"/>
<polygon fill="black" stroke="black" points="1159.14,-64.3519 1169.73,-63.9391 1161.19,-57.6598 1159.14,-64.3519"/>
</g>
<!-- 2399480485440&#45;&gt;2399480485776 -->
<g id="edge11" class="edge"><title>2399480485440&#45;&gt;2399480485776</title>
<path fill="none" stroke="black" d="M1132.98,-37.3351C1141.42,-34.7476 1151,-31.8059 1160.11,-29.0115"/>
<polygon fill="black" stroke="black" points="1161.19,-32.3402 1169.73,-26.0609 1159.14,-25.6481 1161.19,-32.3402"/>
</g>
<!-- 2399480484000&#45;&gt;2399480484144 -->
<g id="edge13" class="edge"><title>2399480484000&#45;&gt;2399480484144</title>
<path fill="none" stroke="black" d="M412.982,-52.6649C421.415,-55.2524 431.003,-58.1941 440.111,-60.9885"/>
<polygon fill="black" stroke="black" points="439.141,-64.3519 449.727,-63.9391 441.194,-57.6598 439.141,-64.3519"/>
</g>
<!-- 2399480484000&#45;&gt;2399480484336 -->
<g id="edge14" class="edge"><title>2399480484000&#45;&gt;2399480484336</title>
<path fill="none" stroke="black" d="M412.982,-37.3351C421.415,-34.7476 431.003,-31.8059 440.111,-29.0115"/>
<polygon fill="black" stroke="black" points="441.194,-32.3402 449.727,-26.0609 439.141,-25.6481 441.194,-32.3402"/>
</g>
<!-- 2399480513056&#45;&gt;2399480487456 -->
<g id="edge15" class="edge"><title>2399480513056&#45;&gt;2399480487456</title>
<path fill="none" stroke="black" d="M1674.4,-45C1682.39,-45 1691.31,-45 1699.82,-45"/>
<polygon fill="black" stroke="black" points="1699.92,-48.5001 1709.92,-45 1699.92,-41.5001 1699.92,-48.5001"/>
</g>
<!-- 2399480513152&#45;&gt;2399480514400 -->
<g id="edge16" class="edge"><title>2399480513152&#45;&gt;2399480514400</title>
<path fill="none" stroke="black" d="M2214.4,-45C2222.39,-45 2231.31,-45 2239.82,-45"/>
<polygon fill="black" stroke="black" points="2239.92,-48.5001 2249.92,-45 2239.92,-41.5001 2239.92,-48.5001"/>
</g>
<!-- 2399480485920&#45;&gt;2399480486592 -->
<g id="edge18" class="edge"><title>2399480485920&#45;&gt;2399480486592</title>
<path fill="none" stroke="black" d="M1314.4,-45C1322.39,-45 1331.31,-45 1339.82,-45"/>
<polygon fill="black" stroke="black" points="1339.92,-48.5001 1349.92,-45 1339.92,-41.5001 1339.92,-48.5001"/>
</g>
<!-- 2399480487360&#45;&gt;2399480512672 -->
<g id="edge19" class="edge"><title>2399480487360&#45;&gt;2399480512672</title>
<path fill="none" stroke="black" d="M2034.4,-45C2042.39,-45 2051.31,-45 2059.82,-45"/>
<polygon fill="black" stroke="black" points="2059.92,-48.5001 2069.92,-45 2059.92,-41.5001 2059.92,-48.5001"/>
</g>
<!-- 2399480484480&#45;&gt;2399480485152 -->
<g id="edge20" class="edge"><title>2399480484480&#45;&gt;2399480485152</title>
<path fill="none" stroke="black" d="M594.403,-45C602.393,-45 611.311,-45 619.824,-45"/>
<polygon fill="black" stroke="black" points="619.919,-48.5001 629.919,-45 619.919,-41.5001 619.919,-48.5001"/>
</g>
<!-- 2399480487120&#45;&gt;2399480484576 -->
<g id="edge21" class="edge"><title>2399480487120&#45;&gt;2399480484576</title>
<path fill="none" stroke="black" d="M234.403,-45C242.393,-45 251.311,-45 259.824,-45"/>
<polygon fill="black" stroke="black" points="259.919,-48.5001 269.919,-45 259.919,-41.5001 259.919,-48.5001"/>
</g>
<!-- 2399480486928&#45;&gt;2399480484048 -->
<g id="edge22" class="edge"><title>2399480486928&#45;&gt;2399480484048</title>
<path fill="none" stroke="black" d="M774.403,-45C782.393,-45 791.311,-45 799.824,-45"/>
<polygon fill="black" stroke="black" points="799.919,-48.5001 809.919,-45 799.919,-41.5001 799.919,-48.5001"/>
</g>
<!-- 2399480512864&#45;&gt;2399480486016 -->
<g id="edge23" class="edge"><title>2399480512864&#45;&gt;2399480486016</title>
<path fill="none" stroke="black" d="M954.403,-45C962.393,-45 971.311,-45 979.824,-45"/>
<polygon fill="black" stroke="black" points="979.919,-48.5001 989.919,-45 979.919,-41.5001 979.919,-48.5001"/>
</g>
<!-- 2399480512960&#45;&gt;2399480485488 -->
<g id="edge24" class="edge"><title>2399480512960&#45;&gt;2399480485488</title>
<path fill="none" stroke="black" d="M1494.4,-45C1502.39,-45 1511.31,-45 1519.82,-45"/>
<polygon fill="black" stroke="black" points="1519.92,-48.5001 1529.92,-45 1519.92,-41.5001 1519.92,-48.5001"/>
</g>
</g>
</svg>
