<?xml version="1.0" encoding="UTF-8" standalone="no"?>
<!DOCTYPE svg PUBLIC "-//W3C//DTD SVG 1.1//EN"
 "http://www.w3.org/Graphics/SVG/1.1/DTD/svg11.dtd">
<!-- Generated by graphviz version 2.38.0 (20140413.2041)
 -->
<!-- Title: &#45;&gt;( X( &#45;&gt;( &#39;A&#39;, +( &#39;C&#39;, &#39;E&#39; ) ), &#45;&gt;( &#39;B&#39;, +( &#39;F&#39;, &#39;D&#39; ) ) ), &#39;G&#39;, X( &#39;J&#39;, +( &#39;H&#39;, &#39;I&#39; ) ) ) Pages: 1 -->
<svg width="2942pt" height="278pt"
 viewBox="0.00 0.00 2942.00 278.00" xmlns="http://www.w3.org/2000/svg" xmlns:xlink="http://www.w3.org/1999/xlink">
<g id="graph0" class="graph" transform="scale(1 1) rotate(0) translate(4 274)">
<title>&#45;&gt;( X( &#45;&gt;( &#39;A&#39;, +( &#39;C&#39;, &#39;E&#39; ) ), &#45;&gt;( &#39;B&#39;, +( &#39;F&#39;, &#39;D&#39; ) ) ), &#39;G&#39;, X( &#39;J&#39;, +( &#39;H&#39;, &#39;I&#39; ) ) )</title>
<!-- 2147321441344 -->
<g id="node1" class="node"><title>2147321441344</title>
<polygon fill="black" stroke="black" points="1224,-189 1170,-189 1170,-153 1224,-153 1224,-189"/>
</g>
<!-- 2147319903232 -->
<g id="node54" class="node"><title>2147319903232</title>
<ellipse fill="none" stroke="black" cx="1287" cy="-171" rx="27" ry="27"/>
</g>
<!-- 2147321441344&#45;&gt;2147319903232 -->
<g id="edge55" class="edge"><title>2147321441344&#45;&gt;2147319903232</title>
<path fill="none" stroke="black" d="M1224.4,-171C1232.39,-171 1241.31,-171 1249.82,-171"/>
<polygon fill="black" stroke="black" points="1249.92,-174.5 1259.92,-171 1249.92,-167.5 1249.92,-174.5"/>
</g>
<!-- 2147321440384 -->
<g id="node2" class="node"><title>2147321440384</title>
<polygon fill="black" stroke="black" points="324,-148 270,-148 270,-112 324,-112 324,-148"/>
</g>
<!-- 2147319711152 -->
<g id="node33" class="node"><title>2147319711152</title>
<ellipse fill="none" stroke="black" cx="387" cy="-130" rx="27" ry="27"/>
</g>
<!-- 2147321440384&#45;&gt;2147319711152 -->
<g id="edge44" class="edge"><title>2147321440384&#45;&gt;2147319711152</title>
<path fill="none" stroke="black" d="M324.403,-130C332.393,-130 341.311,-130 349.824,-130"/>
<polygon fill="black" stroke="black" points="349.919,-133.5 359.919,-130 349.919,-126.5 349.919,-133.5"/>
</g>
<!-- 2147322647936 -->
<g id="node3" class="node"><title>2147322647936</title>
<polygon fill="black" stroke="black" points="2664,-173 2610,-173 2610,-137 2664,-137 2664,-173"/>
</g>
<!-- 2147322647360 -->
<g id="node41" class="node"><title>2147322647360</title>
<ellipse fill="none" stroke="black" cx="2727" cy="-155" rx="27" ry="27"/>
</g>
<!-- 2147322647936&#45;&gt;2147322647360 -->
<g id="edge64" class="edge"><title>2147322647936&#45;&gt;2147322647360</title>
<path fill="none" stroke="black" d="M2664.4,-155C2672.39,-155 2681.31,-155 2689.82,-155"/>
<polygon fill="black" stroke="black" points="2689.92,-158.5 2699.92,-155 2689.92,-151.5 2689.92,-158.5"/>
</g>
<!-- 2147319903184 -->
<g id="node4" class="node"><title>2147319903184</title>
<polygon fill="none" stroke="black" points="1044,-261 990,-261 990,-225 1044,-225 1044,-261"/>
<text text-anchor="middle" x="1017" y="-239.9" font-family="Times New Roman,serif" font-size="12.00">C</text>
</g>
<!-- 2147321441440 -->
<g id="node36" class="node"><title>2147321441440</title>
<ellipse fill="none" stroke="black" cx="1107" cy="-243" rx="27" ry="27"/>
</g>
<!-- 2147319903184&#45;&gt;2147321441440 -->
<g id="edge3" class="edge"><title>2147319903184&#45;&gt;2147321441440</title>
<path fill="none" stroke="black" d="M1044.4,-243C1052.39,-243 1061.31,-243 1069.82,-243"/>
<polygon fill="black" stroke="black" points="1069.92,-246.5 1079.92,-243 1069.92,-239.5 1069.92,-246.5"/>
</g>
<!-- 2147321441296 -->
<g id="node5" class="node"><title>2147321441296</title>
<polygon fill="black" stroke="black" points="864,-189 810,-189 810,-153 864,-153 864,-189"/>
</g>
<!-- 2147319902992 -->
<g id="node31" class="node"><title>2147319902992</title>
<ellipse fill="none" stroke="black" cx="927" cy="-243" rx="27" ry="27"/>
</g>
<!-- 2147321441296&#45;&gt;2147319902992 -->
<g id="edge50" class="edge"><title>2147321441296&#45;&gt;2147319902992</title>
<path fill="none" stroke="black" d="M860.206,-189.169C871.541,-198.443 885.458,-209.83 897.569,-219.738"/>
<polygon fill="black" stroke="black" points="895.655,-222.694 905.611,-226.318 900.087,-217.277 895.655,-222.694"/>
</g>
<!-- 2147321440240 -->
<g id="node42" class="node"><title>2147321440240</title>
<ellipse fill="none" stroke="black" cx="927" cy="-171" rx="27" ry="27"/>
</g>
<!-- 2147321441296&#45;&gt;2147321440240 -->
<g id="edge51" class="edge"><title>2147321441296&#45;&gt;2147321440240</title>
<path fill="none" stroke="black" d="M864.403,-171C872.393,-171 881.311,-171 889.824,-171"/>
<polygon fill="black" stroke="black" points="889.919,-174.5 899.919,-171 889.919,-167.5 889.919,-174.5"/>
</g>
<!-- 2147320864528 -->
<g id="node6" class="node"><title>2147320864528</title>
<polygon fill="none" stroke="black" points="2304,-146 2250,-146 2250,-110 2304,-110 2304,-146"/>
<text text-anchor="middle" x="2277" y="-124.9" font-family="Times New Roman,serif" font-size="12.00">H</text>
</g>
<!-- 2147320864720 -->
<g id="node37" class="node"><title>2147320864720</title>
<ellipse fill="none" stroke="black" cx="2367" cy="-128" rx="27" ry="27"/>
</g>
<!-- 2147320864528&#45;&gt;2147320864720 -->
<g id="edge9" class="edge"><title>2147320864528&#45;&gt;2147320864720</title>
<path fill="none" stroke="black" d="M2304.4,-128C2312.39,-128 2321.31,-128 2329.82,-128"/>
<polygon fill="black" stroke="black" points="2329.92,-131.5 2339.92,-128 2329.92,-124.5 2329.92,-131.5"/>
</g>
<!-- 2147321023504 -->
<g id="node7" class="node"><title>2147321023504</title>
<polygon fill="black" stroke="black" points="2124,-130 2070,-130 2070,-94 2124,-94 2124,-130"/>
</g>
<!-- 2147320864480 -->
<g id="node32" class="node"><title>2147320864480</title>
<ellipse fill="none" stroke="black" cx="2187" cy="-128" rx="27" ry="27"/>
</g>
<!-- 2147321023504&#45;&gt;2147320864480 -->
<g id="edge52" class="edge"><title>2147321023504&#45;&gt;2147320864480</title>
<path fill="none" stroke="black" d="M2124.4,-116.801C2132.55,-118.283 2141.67,-119.94 2150.34,-121.516"/>
<polygon fill="black" stroke="black" points="2149.76,-124.968 2160.22,-123.313 2151.01,-118.08 2149.76,-124.968"/>
</g>
<!-- 2147320906272 -->
<g id="node44" class="node"><title>2147320906272</title>
<ellipse fill="none" stroke="black" cx="2187" cy="-56" rx="27" ry="27"/>
</g>
<!-- 2147321023504&#45;&gt;2147320906272 -->
<g id="edge53" class="edge"><title>2147321023504&#45;&gt;2147320906272</title>
<path fill="none" stroke="black" d="M2124.4,-95.1982C2134.11,-89.0185 2145.19,-81.9676 2155.25,-75.5655"/>
<polygon fill="black" stroke="black" points="2157.22,-78.4664 2163.77,-70.1447 2153.46,-72.5607 2157.22,-78.4664"/>
</g>
<!-- 2147322647888 -->
<g id="node8" class="node"><title>2147322647888</title>
<polygon fill="black" stroke="black" points="2844,-173 2790,-173 2790,-137 2844,-137 2844,-173"/>
</g>
<!-- 2147322647984 -->
<g id="node60" class="node"><title>2147322647984</title>
<ellipse fill="orange" stroke="black" cx="2907" cy="-155" rx="27" ry="27"/>
</g>
<!-- 2147322647888&#45;&gt;2147322647984 -->
<g id="edge47" class="edge"><title>2147322647888&#45;&gt;2147322647984</title>
<path fill="none" stroke="black" d="M2844.4,-155C2852.39,-155 2861.31,-155 2869.82,-155"/>
<polygon fill="black" stroke="black" points="2869.92,-158.5 2879.92,-155 2869.92,-151.5 2869.92,-158.5"/>
</g>
<!-- 2147322649808 -->
<g id="node9" class="node"><title>2147322649808</title>
<polygon fill="black" stroke="black" points="1674,-90 1620,-90 1620,-54 1674,-54 1674,-90"/>
</g>
<!-- 2147322649088 -->
<g id="node58" class="node"><title>2147322649088</title>
<ellipse fill="none" stroke="black" cx="1827" cy="-72" rx="27" ry="27"/>
</g>
<!-- 2147322649808&#45;&gt;2147322649088 -->
<g id="edge66" class="edge"><title>2147322649808&#45;&gt;2147322649088</title>
<path fill="none" stroke="black" d="M1674.26,-72C1704.85,-72 1755.55,-72 1789.84,-72"/>
<polygon fill="black" stroke="black" points="1789.92,-75.5001 1799.92,-72 1789.92,-68.5001 1789.92,-75.5001"/>
</g>
<!-- 2147319903328 -->
<g id="node10" class="node"><title>2147319903328</title>
<polygon fill="none" stroke="black" points="1044,-189 990,-189 990,-153 1044,-153 1044,-189"/>
<text text-anchor="middle" x="1017" y="-167.9" font-family="Times New Roman,serif" font-size="12.00">E</text>
</g>
<!-- 2147321440144 -->
<g id="node46" class="node"><title>2147321440144</title>
<ellipse fill="none" stroke="black" cx="1107" cy="-171" rx="27" ry="27"/>
</g>
<!-- 2147319903328&#45;&gt;2147321440144 -->
<g id="edge4" class="edge"><title>2147319903328&#45;&gt;2147321440144</title>
<path fill="none" stroke="black" d="M1044.4,-171C1052.39,-171 1061.31,-171 1069.82,-171"/>
<polygon fill="black" stroke="black" points="1069.92,-174.5 1079.92,-171 1069.92,-167.5 1069.92,-174.5"/>
</g>
<!-- 2147321441248 -->
<g id="node11" class="node"><title>2147321441248</title>
<polygon fill="black" stroke="black" points="504,-184 450,-184 450,-148 504,-148 504,-184"/>
</g>
<!-- 2147319710960 -->
<g id="node49" class="node"><title>2147319710960</title>
<ellipse fill="none" stroke="black" cx="567" cy="-171" rx="27" ry="27"/>
</g>
<!-- 2147321441248&#45;&gt;2147319710960 -->
<g id="edge57" class="edge"><title>2147321441248&#45;&gt;2147319710960</title>
<path fill="none" stroke="black" d="M504.403,-167.5C512.393,-167.954 521.311,-168.461 529.824,-168.945"/>
<polygon fill="black" stroke="black" points="529.737,-172.445 539.919,-169.518 530.134,-165.456 529.737,-172.445"/>
</g>
<!-- 2147320863712 -->
<g id="node12" class="node"><title>2147320863712</title>
<polygon fill="black" stroke="black" points="1584,-154 1530,-154 1530,-118 1584,-118 1584,-154"/>
</g>
<!-- 2147320864384 -->
<g id="node39" class="node"><title>2147320864384</title>
<ellipse fill="none" stroke="black" cx="1647" cy="-136" rx="27" ry="27"/>
</g>
<!-- 2147320863712&#45;&gt;2147320864384 -->
<g id="edge45" class="edge"><title>2147320863712&#45;&gt;2147320864384</title>
<path fill="none" stroke="black" d="M1584.4,-136C1592.39,-136 1601.31,-136 1609.82,-136"/>
<polygon fill="black" stroke="black" points="1609.92,-139.5 1619.92,-136 1609.92,-132.5 1609.92,-139.5"/>
</g>
<!-- 2147319710816 -->
<g id="node13" class="node"><title>2147319710816</title>
<polygon fill="none" stroke="black" points="1764,-154 1710,-154 1710,-118 1764,-118 1764,-154"/>
<text text-anchor="middle" x="1737" y="-132.9" font-family="Times New Roman,serif" font-size="12.00">G</text>
</g>
<!-- 2147320863808 -->
<g id="node40" class="node"><title>2147320863808</title>
<ellipse fill="none" stroke="black" cx="1827" cy="-144" rx="27" ry="27"/>
</g>
<!-- 2147319710816&#45;&gt;2147320863808 -->
<g id="edge2" class="edge"><title>2147319710816&#45;&gt;2147320863808</title>
<path fill="none" stroke="black" d="M1764.4,-138.4C1772.39,-139.127 1781.31,-139.937 1789.82,-140.711"/>
<polygon fill="black" stroke="black" points="1789.64,-144.209 1799.92,-141.629 1790.28,-137.238 1789.64,-144.209"/>
</g>
<!-- 2147320864288 -->
<g id="node14" class="node"><title>2147320864288</title>
<polygon fill="none" stroke="black" points="2124,-201 2070,-201 2070,-165 2124,-165 2124,-201"/>
<text text-anchor="middle" x="2097" y="-179.9" font-family="Times New Roman,serif" font-size="12.00">J</text>
</g>
<!-- 2147320863616 -->
<g id="node53" class="node"><title>2147320863616</title>
<ellipse fill="none" stroke="black" cx="2547" cy="-155" rx="27" ry="27"/>
</g>
<!-- 2147320864288&#45;&gt;2147320863616 -->
<g id="edge10" class="edge"><title>2147320864288&#45;&gt;2147320863616</title>
<path fill="none" stroke="black" d="M2124.24,-183C2158.96,-183 2222.07,-183 2276,-183 2276,-183 2276,-183 2368,-183 2417.97,-183 2474.88,-172.099 2510.62,-163.901"/>
<polygon fill="black" stroke="black" points="2511.62,-167.26 2520.55,-161.565 2510.02,-160.446 2511.62,-167.26"/>
</g>
<!-- 2147321023648 -->
<g id="node15" class="node"><title>2147321023648</title>
<polygon fill="black" stroke="black" points="2484,-146 2430,-146 2430,-110 2484,-110 2484,-146"/>
</g>
<!-- 2147321023648&#45;&gt;2147320863616 -->
<g id="edge56" class="edge"><title>2147321023648&#45;&gt;2147320863616</title>
<path fill="none" stroke="black" d="M2484.4,-136.101C2492.79,-138.674 2502.2,-141.561 2511.09,-144.288"/>
<polygon fill="black" stroke="black" points="2510.24,-147.688 2520.82,-147.275 2512.29,-140.996 2510.24,-147.688"/>
</g>
<!-- 2147320863904 -->
<g id="node16" class="node"><title>2147320863904</title>
<polygon fill="black" stroke="black" points="1944,-162 1890,-162 1890,-126 1944,-126 1944,-162"/>
</g>
<!-- 2147320863568 -->
<g id="node50" class="node"><title>2147320863568</title>
<ellipse fill="none" stroke="black" cx="2007" cy="-144" rx="27" ry="27"/>
</g>
<!-- 2147320863904&#45;&gt;2147320863568 -->
<g id="edge59" class="edge"><title>2147320863904&#45;&gt;2147320863568</title>
<path fill="none" stroke="black" d="M1944.4,-144C1952.39,-144 1961.31,-144 1969.82,-144"/>
<polygon fill="black" stroke="black" points="1969.92,-147.5 1979.92,-144 1969.92,-140.5 1969.92,-147.5"/>
</g>
<!-- 2147322647648 -->
<g id="node17" class="node"><title>2147322647648</title>
<polygon fill="black" stroke="black" points="144,-148 90,-148 90,-112 144,-112 144,-148"/>
</g>
<!-- 2147319711008 -->
<g id="node38" class="node"><title>2147319711008</title>
<ellipse fill="none" stroke="black" cx="207" cy="-130" rx="27" ry="27"/>
</g>
<!-- 2147322647648&#45;&gt;2147319711008 -->
<g id="edge46" class="edge"><title>2147322647648&#45;&gt;2147319711008</title>
<path fill="none" stroke="black" d="M144.403,-130C152.393,-130 161.311,-130 169.824,-130"/>
<polygon fill="black" stroke="black" points="169.919,-133.5 179.919,-130 169.919,-126.5 169.919,-133.5"/>
</g>
<!-- 2147320136416 -->
<g id="node18" class="node"><title>2147320136416</title>
<polygon fill="black" stroke="black" points="1674,-217 1620,-217 1620,-181 1674,-181 1674,-217"/>
</g>
<!-- 2147322646880 -->
<g id="node59" class="node"><title>2147322646880</title>
<ellipse fill="none" stroke="black" cx="1737" cy="-199" rx="27" ry="27"/>
</g>
<!-- 2147320136416&#45;&gt;2147322646880 -->
<g id="edge65" class="edge"><title>2147320136416&#45;&gt;2147322646880</title>
<path fill="none" stroke="black" d="M1674.4,-199C1682.39,-199 1691.31,-199 1699.82,-199"/>
<polygon fill="black" stroke="black" points="1699.92,-202.5 1709.92,-199 1699.92,-195.5 1699.92,-202.5"/>
</g>
<!-- 2147319903088 -->
<g id="node19" class="node"><title>2147319903088</title>
<polygon fill="none" stroke="black" points="684,-189 630,-189 630,-153 684,-153 684,-189"/>
<text text-anchor="middle" x="657" y="-167.9" font-family="Times New Roman,serif" font-size="12.00">A</text>
</g>
<!-- 2147319903280 -->
<g id="node52" class="node"><title>2147319903280</title>
<ellipse fill="none" stroke="black" cx="747" cy="-171" rx="27" ry="27"/>
</g>
<!-- 2147319903088&#45;&gt;2147319903280 -->
<g id="edge1" class="edge"><title>2147319903088&#45;&gt;2147319903280</title>
<path fill="none" stroke="black" d="M684.403,-171C692.393,-171 701.311,-171 709.824,-171"/>
<polygon fill="black" stroke="black" points="709.919,-174.5 719.919,-171 709.919,-167.5 709.919,-174.5"/>
</g>
<!-- 2147321441584 -->
<g id="node20" class="node"><title>2147321441584</title>
<polygon fill="black" stroke="black" points="1404,-189 1350,-189 1350,-153 1404,-153 1404,-189"/>
</g>
<!-- 2147321442208 -->
<g id="node34" class="node"><title>2147321442208</title>
<ellipse fill="none" stroke="black" cx="1467" cy="-144" rx="27" ry="27"/>
</g>
<!-- 2147321441584&#45;&gt;2147321442208 -->
<g id="edge62" class="edge"><title>2147321441584&#45;&gt;2147321442208</title>
<path fill="none" stroke="black" d="M1404.4,-162.899C1412.79,-160.326 1422.2,-157.439 1431.09,-154.712"/>
<polygon fill="black" stroke="black" points="1432.29,-158.004 1440.82,-151.725 1430.24,-151.312 1432.29,-158.004"/>
</g>
<!-- 2147320863760 -->
<g id="node56" class="node"><title>2147320863760</title>
<ellipse fill="none" stroke="black" cx="1557" cy="-199" rx="27" ry="27"/>
</g>
<!-- 2147321441584&#45;&gt;2147320863760 -->
<g id="edge63" class="edge"><title>2147321441584&#45;&gt;2147320863760</title>
<path fill="none" stroke="black" d="M1404.26,-175.131C1434.94,-179.957 1485.84,-187.964 1520.14,-193.359"/>
<polygon fill="black" stroke="black" points="1519.78,-196.846 1530.21,-194.943 1520.87,-189.931 1519.78,-196.846"/>
</g>
<!-- 2147321442160 -->
<g id="node21" class="node"><title>2147321442160</title>
<polygon fill="none" stroke="black" points="684,-117 630,-117 630,-81 684,-81 684,-117"/>
<text text-anchor="middle" x="657" y="-95.9" font-family="Times New Roman,serif" font-size="12.00">B</text>
</g>
<!-- 2147319426016 -->
<g id="node51" class="node"><title>2147319426016</title>
<ellipse fill="none" stroke="black" cx="747" cy="-99" rx="27" ry="27"/>
</g>
<!-- 2147321442160&#45;&gt;2147319426016 -->
<g id="edge5" class="edge"><title>2147321442160&#45;&gt;2147319426016</title>
<path fill="none" stroke="black" d="M684.403,-99C692.393,-99 701.311,-99 709.824,-99"/>
<polygon fill="black" stroke="black" points="709.919,-102.5 719.919,-99 709.919,-95.5001 709.919,-102.5"/>
</g>
<!-- 2147319425968 -->
<g id="node22" class="node"><title>2147319425968</title>
<polygon fill="none" stroke="black" points="1044,-117 990,-117 990,-81 1044,-81 1044,-117"/>
<text text-anchor="middle" x="1017" y="-95.9" font-family="Times New Roman,serif" font-size="12.00">F</text>
</g>
<!-- 2147319425728 -->
<g id="node35" class="node"><title>2147319425728</title>
<ellipse fill="none" stroke="black" cx="1107" cy="-99" rx="27" ry="27"/>
</g>
<!-- 2147319425968&#45;&gt;2147319425728 -->
<g id="edge7" class="edge"><title>2147319425968&#45;&gt;2147319425728</title>
<path fill="none" stroke="black" d="M1044.4,-99C1052.39,-99 1061.31,-99 1069.82,-99"/>
<polygon fill="black" stroke="black" points="1069.92,-102.5 1079.92,-99 1069.92,-95.5001 1069.92,-102.5"/>
</g>
<!-- 2147319426352 -->
<g id="node23" class="node"><title>2147319426352</title>
<polygon fill="none" stroke="black" points="1044,-45 990,-45 990,-9 1044,-9 1044,-45"/>
<text text-anchor="middle" x="1017" y="-23.9" font-family="Times New Roman,serif" font-size="12.00">D</text>
</g>
<!-- 2147319426160 -->
<g id="node45" class="node"><title>2147319426160</title>
<ellipse fill="none" stroke="black" cx="1107" cy="-27" rx="27" ry="27"/>
</g>
<!-- 2147319426352&#45;&gt;2147319426160 -->
<g id="edge6" class="edge"><title>2147319426352&#45;&gt;2147319426160</title>
<path fill="none" stroke="black" d="M1044.4,-27C1052.39,-27 1061.31,-27 1069.82,-27"/>
<polygon fill="black" stroke="black" points="1069.92,-30.5001 1079.92,-27 1069.92,-23.5001 1069.92,-30.5001"/>
</g>
<!-- 2147320726960 -->
<g id="node24" class="node"><title>2147320726960</title>
<polygon fill="black" stroke="black" points="1224,-103 1170,-103 1170,-67 1224,-67 1224,-103"/>
</g>
<!-- 2147319425872 -->
<g id="node55" class="node"><title>2147319425872</title>
<ellipse fill="none" stroke="black" cx="1287" cy="-85" rx="27" ry="27"/>
</g>
<!-- 2147320726960&#45;&gt;2147319425872 -->
<g id="edge54" class="edge"><title>2147320726960&#45;&gt;2147319425872</title>
<path fill="none" stroke="black" d="M1224.4,-85C1232.39,-85 1241.31,-85 1249.82,-85"/>
<polygon fill="black" stroke="black" points="1249.92,-88.5001 1259.92,-85 1249.92,-81.5001 1249.92,-88.5001"/>
</g>
<!-- 2147320726768 -->
<g id="node25" class="node"><title>2147320726768</title>
<polygon fill="black" stroke="black" points="864,-117 810,-117 810,-81 864,-81 864,-117"/>
</g>
<!-- 2147321441872 -->
<g id="node30" class="node"><title>2147321441872</title>
<ellipse fill="none" stroke="black" cx="927" cy="-99" rx="27" ry="27"/>
</g>
<!-- 2147320726768&#45;&gt;2147321441872 -->
<g id="edge48" class="edge"><title>2147320726768&#45;&gt;2147321441872</title>
<path fill="none" stroke="black" d="M864.403,-99C872.393,-99 881.311,-99 889.824,-99"/>
<polygon fill="black" stroke="black" points="889.919,-102.5 899.919,-99 889.919,-95.5001 889.919,-102.5"/>
</g>
<!-- 2147319425680 -->
<g id="node43" class="node"><title>2147319425680</title>
<ellipse fill="none" stroke="black" cx="927" cy="-27" rx="27" ry="27"/>
</g>
<!-- 2147320726768&#45;&gt;2147319425680 -->
<g id="edge49" class="edge"><title>2147320726768&#45;&gt;2147319425680</title>
<path fill="none" stroke="black" d="M860.206,-80.8314C871.541,-71.557 885.458,-60.1704 897.569,-50.2618"/>
<polygon fill="black" stroke="black" points="900.087,-52.7235 905.611,-43.6822 895.655,-47.3058 900.087,-52.7235"/>
</g>
<!-- 2147320726192 -->
<g id="node26" class="node"><title>2147320726192</title>
<polygon fill="black" stroke="black" points="504,-121 450,-121 450,-85 504,-85 504,-121"/>
</g>
<!-- 2147319903904 -->
<g id="node48" class="node"><title>2147319903904</title>
<ellipse fill="none" stroke="black" cx="567" cy="-99" rx="27" ry="27"/>
</g>
<!-- 2147320726192&#45;&gt;2147319903904 -->
<g id="edge58" class="edge"><title>2147320726192&#45;&gt;2147319903904</title>
<path fill="none" stroke="black" d="M504.403,-101.8C512.393,-101.437 521.311,-101.031 529.824,-100.644"/>
<polygon fill="black" stroke="black" points="530.088,-104.136 539.919,-100.186 529.77,-97.1433 530.088,-104.136"/>
</g>
<!-- 2147320725808 -->
<g id="node27" class="node"><title>2147320725808</title>
<polygon fill="black" stroke="black" points="1404,-103 1350,-103 1350,-67 1404,-67 1404,-103"/>
</g>
<!-- 2147320725808&#45;&gt;2147321442208 -->
<g id="edge60" class="edge"><title>2147320725808&#45;&gt;2147321442208</title>
<path fill="none" stroke="black" d="M1404.4,-102.702C1414.19,-109.265 1425.37,-116.761 1435.5,-123.549"/>
<polygon fill="black" stroke="black" points="1433.81,-126.63 1444.06,-129.291 1437.7,-120.815 1433.81,-126.63"/>
</g>
<!-- 2147322649520 -->
<g id="node57" class="node"><title>2147322649520</title>
<ellipse fill="none" stroke="black" cx="1467" cy="-72" rx="27" ry="27"/>
</g>
<!-- 2147320725808&#45;&gt;2147322649520 -->
<g id="edge61" class="edge"><title>2147320725808&#45;&gt;2147322649520</title>
<path fill="none" stroke="black" d="M1404.4,-81.0996C1412.47,-79.9085 1421.47,-78.5781 1430.05,-77.3102"/>
<polygon fill="black" stroke="black" points="1430.84,-80.7321 1440.22,-75.8082 1429.82,-73.8073 1430.84,-80.7321"/>
</g>
<!-- 2147320864432 -->
<g id="node28" class="node"><title>2147320864432</title>
<polygon fill="none" stroke="black" points="2304,-74 2250,-74 2250,-38 2304,-38 2304,-74"/>
<text text-anchor="middle" x="2277" y="-52.9" font-family="Times New Roman,serif" font-size="12.00">I</text>
</g>
<!-- 2147320905792 -->
<g id="node47" class="node"><title>2147320905792</title>
<ellipse fill="none" stroke="black" cx="2367" cy="-56" rx="27" ry="27"/>
</g>
<!-- 2147320864432&#45;&gt;2147320905792 -->
<g id="edge8" class="edge"><title>2147320864432&#45;&gt;2147320905792</title>
<path fill="none" stroke="black" d="M2304.4,-56C2312.39,-56 2321.31,-56 2329.82,-56"/>
<polygon fill="black" stroke="black" points="2329.92,-59.5001 2339.92,-56 2329.92,-52.5001 2329.92,-59.5001"/>
</g>
<!-- 2147322647696 -->
<g id="node29" class="node"><title>2147322647696</title>
<ellipse fill="green" stroke="black" cx="27" cy="-130" rx="27" ry="27"/>
<text text-anchor="middle" x="27" y="-126.9" font-family="Times New Roman,serif" font-size="12.00">1</text>
</g>
<!-- 2147322647696&#45;&gt;2147322647648 -->
<g id="edge24" class="edge"><title>2147322647696&#45;&gt;2147322647648</title>
<path fill="none" stroke="black" d="M54.4029,-130C62.3932,-130 71.3106,-130 79.8241,-130"/>
<polygon fill="black" stroke="black" points="79.919,-133.5 89.919,-130 79.919,-126.5 79.919,-133.5"/>
</g>
<!-- 2147321441872&#45;&gt;2147319425968 -->
<g id="edge11" class="edge"><title>2147321441872&#45;&gt;2147319425968</title>
<path fill="none" stroke="black" d="M954.403,-99C962.393,-99 971.311,-99 979.824,-99"/>
<polygon fill="black" stroke="black" points="979.919,-102.5 989.919,-99 979.919,-95.5001 979.919,-102.5"/>
</g>
<!-- 2147319902992&#45;&gt;2147319903184 -->
<g id="edge12" class="edge"><title>2147319902992&#45;&gt;2147319903184</title>
<path fill="none" stroke="black" d="M954.403,-243C962.393,-243 971.311,-243 979.824,-243"/>
<polygon fill="black" stroke="black" points="979.919,-246.5 989.919,-243 979.919,-239.5 979.919,-246.5"/>
</g>
<!-- 2147320864480&#45;&gt;2147320864528 -->
<g id="edge13" class="edge"><title>2147320864480&#45;&gt;2147320864528</title>
<path fill="none" stroke="black" d="M2214.4,-128C2222.39,-128 2231.31,-128 2239.82,-128"/>
<polygon fill="black" stroke="black" points="2239.92,-131.5 2249.92,-128 2239.92,-124.5 2239.92,-131.5"/>
</g>
<!-- 2147319711152&#45;&gt;2147321441248 -->
<g id="edge14" class="edge"><title>2147319711152&#45;&gt;2147321441248</title>
<path fill="none" stroke="black" d="M412.513,-140.028C421.119,-143.549 430.971,-147.579 440.306,-151.398"/>
<polygon fill="black" stroke="black" points="439.191,-154.723 449.772,-155.27 441.842,-148.245 439.191,-154.723"/>
</g>
<!-- 2147319711152&#45;&gt;2147320726192 -->
<g id="edge15" class="edge"><title>2147319711152&#45;&gt;2147320726192</title>
<path fill="none" stroke="black" d="M412.982,-122.335C421.415,-119.748 431.003,-116.806 440.111,-114.011"/>
<polygon fill="black" stroke="black" points="441.194,-117.34 449.727,-111.061 439.141,-110.648 441.194,-117.34"/>
</g>
<!-- 2147321442208&#45;&gt;2147320863712 -->
<g id="edge16" class="edge"><title>2147321442208&#45;&gt;2147320863712</title>
<path fill="none" stroke="black" d="M1493.93,-141.643C1502.09,-140.901 1511.26,-140.068 1519.99,-139.274"/>
<polygon fill="black" stroke="black" points="1520.31,-142.759 1529.95,-138.368 1519.68,-135.788 1520.31,-142.759"/>
</g>
<!-- 2147319425728&#45;&gt;2147320726960 -->
<g id="edge17" class="edge"><title>2147319425728&#45;&gt;2147320726960</title>
<path fill="none" stroke="black" d="M1133.93,-94.8753C1142.09,-93.5767 1151.26,-92.1183 1159.99,-90.729"/>
<polygon fill="black" stroke="black" points="1160.63,-94.1714 1169.95,-89.1436 1159.53,-87.2583 1160.63,-94.1714"/>
</g>
<!-- 2147321441440&#45;&gt;2147321441344 -->
<g id="edge18" class="edge"><title>2147321441440&#45;&gt;2147321441344</title>
<path fill="none" stroke="black" d="M1128.41,-226.301C1139.57,-217.168 1153.61,-205.682 1166,-195.548"/>
<polygon fill="black" stroke="black" points="1168.33,-198.163 1173.85,-189.122 1163.89,-192.746 1168.33,-198.163"/>
</g>
<!-- 2147320864720&#45;&gt;2147321023648 -->
<g id="edge19" class="edge"><title>2147320864720&#45;&gt;2147321023648</title>
<path fill="none" stroke="black" d="M2394.4,-128C2402.39,-128 2411.31,-128 2419.82,-128"/>
<polygon fill="black" stroke="black" points="2419.92,-131.5 2429.92,-128 2419.92,-124.5 2419.92,-131.5"/>
</g>
<!-- 2147319711008&#45;&gt;2147321440384 -->
<g id="edge20" class="edge"><title>2147319711008&#45;&gt;2147321440384</title>
<path fill="none" stroke="black" d="M234.403,-130C242.393,-130 251.311,-130 259.824,-130"/>
<polygon fill="black" stroke="black" points="259.919,-133.5 269.919,-130 259.919,-126.5 259.919,-133.5"/>
</g>
<!-- 2147320864384&#45;&gt;2147319710816 -->
<g id="edge21" class="edge"><title>2147320864384&#45;&gt;2147319710816</title>
<path fill="none" stroke="black" d="M1674.4,-136C1682.39,-136 1691.31,-136 1699.82,-136"/>
<polygon fill="black" stroke="black" points="1699.92,-139.5 1709.92,-136 1699.92,-132.5 1699.92,-139.5"/>
</g>
<!-- 2147320863808&#45;&gt;2147320863904 -->
<g id="edge22" class="edge"><title>2147320863808&#45;&gt;2147320863904</title>
<path fill="none" stroke="black" d="M1854.4,-144C1862.39,-144 1871.31,-144 1879.82,-144"/>
<polygon fill="black" stroke="black" points="1879.92,-147.5 1889.92,-144 1879.92,-140.5 1879.92,-147.5"/>
</g>
<!-- 2147322647360&#45;&gt;2147322647888 -->
<g id="edge23" class="edge"><title>2147322647360&#45;&gt;2147322647888</title>
<path fill="none" stroke="black" d="M2754.4,-155C2762.39,-155 2771.31,-155 2779.82,-155"/>
<polygon fill="black" stroke="black" points="2779.92,-158.5 2789.92,-155 2779.92,-151.5 2779.92,-158.5"/>
</g>
<!-- 2147321440240&#45;&gt;2147319903328 -->
<g id="edge25" class="edge"><title>2147321440240&#45;&gt;2147319903328</title>
<path fill="none" stroke="black" d="M954.403,-171C962.393,-171 971.311,-171 979.824,-171"/>
<polygon fill="black" stroke="black" points="979.919,-174.5 989.919,-171 979.919,-167.5 979.919,-174.5"/>
</g>
<!-- 2147319425680&#45;&gt;2147319426352 -->
<g id="edge26" class="edge"><title>2147319425680&#45;&gt;2147319426352</title>
<path fill="none" stroke="black" d="M954.403,-27C962.393,-27 971.311,-27 979.824,-27"/>
<polygon fill="black" stroke="black" points="979.919,-30.5001 989.919,-27 979.919,-23.5001 979.919,-30.5001"/>
</g>
<!-- 2147320906272&#45;&gt;2147320864432 -->
<g id="edge27" class="edge"><title>2147320906272&#45;&gt;2147320864432</title>
<path fill="none" stroke="black" d="M2214.4,-56C2222.39,-56 2231.31,-56 2239.82,-56"/>
<polygon fill="black" stroke="black" points="2239.92,-59.5001 2249.92,-56 2239.92,-52.5001 2239.92,-59.5001"/>
</g>
<!-- 2147319426160&#45;&gt;2147320726960 -->
<g id="edge28" class="edge"><title>2147319426160&#45;&gt;2147320726960</title>
<path fill="none" stroke="black" d="M1130.21,-41.6358C1139.59,-47.8232 1150.75,-55.1777 1161.19,-62.0564"/>
<polygon fill="black" stroke="black" points="1159.46,-65.1056 1169.73,-67.6865 1163.31,-59.2609 1159.46,-65.1056"/>
</g>
<!-- 2147321440144&#45;&gt;2147321441344 -->
<g id="edge29" class="edge"><title>2147321440144&#45;&gt;2147321441344</title>
<path fill="none" stroke="black" d="M1134.4,-171C1142.39,-171 1151.31,-171 1159.82,-171"/>
<polygon fill="black" stroke="black" points="1159.92,-174.5 1169.92,-171 1159.92,-167.5 1159.92,-174.5"/>
</g>
<!-- 2147320905792&#45;&gt;2147321023648 -->
<g id="edge30" class="edge"><title>2147320905792&#45;&gt;2147321023648</title>
<path fill="none" stroke="black" d="M2388.41,-72.6992C2399.57,-81.832 2413.61,-93.3176 2426,-103.452"/>
<polygon fill="black" stroke="black" points="2423.89,-106.254 2433.85,-109.878 2428.33,-100.837 2423.89,-106.254"/>
</g>
<!-- 2147319903904&#45;&gt;2147321442160 -->
<g id="edge31" class="edge"><title>2147319903904&#45;&gt;2147321442160</title>
<path fill="none" stroke="black" d="M594.403,-99C602.393,-99 611.311,-99 619.824,-99"/>
<polygon fill="black" stroke="black" points="619.919,-102.5 629.919,-99 619.919,-95.5001 619.919,-102.5"/>
</g>
<!-- 2147319710960&#45;&gt;2147319903088 -->
<g id="edge32" class="edge"><title>2147319710960&#45;&gt;2147319903088</title>
<path fill="none" stroke="black" d="M594.403,-171C602.393,-171 611.311,-171 619.824,-171"/>
<polygon fill="black" stroke="black" points="619.919,-174.5 629.919,-171 619.919,-167.5 619.919,-174.5"/>
</g>
<!-- 2147320863568&#45;&gt;2147321023504 -->
<g id="edge34" class="edge"><title>2147320863568&#45;&gt;2147321023504</title>
<path fill="none" stroke="black" d="M2032.51,-135.086C2041.12,-131.957 2050.97,-128.374 2060.31,-124.98"/>
<polygon fill="black" stroke="black" points="2061.57,-128.244 2069.77,-121.537 2059.18,-121.666 2061.57,-128.244"/>
</g>
<!-- 2147320863568&#45;&gt;2147320864288 -->
<g id="edge33" class="edge"><title>2147320863568&#45;&gt;2147320864288</title>
<path fill="none" stroke="black" d="M2032.05,-154.657C2040.82,-158.547 2050.95,-163.034 2060.51,-167.272"/>
<polygon fill="black" stroke="black" points="2059.26,-170.546 2069.82,-171.398 2062.1,-164.146 2059.26,-170.546"/>
</g>
<!-- 2147319426016&#45;&gt;2147320726768 -->
<g id="edge35" class="edge"><title>2147319426016&#45;&gt;2147320726768</title>
<path fill="none" stroke="black" d="M774.403,-99C782.393,-99 791.311,-99 799.824,-99"/>
<polygon fill="black" stroke="black" points="799.919,-102.5 809.919,-99 799.919,-95.5001 799.919,-102.5"/>
</g>
<!-- 2147319903280&#45;&gt;2147321441296 -->
<g id="edge36" class="edge"><title>2147319903280&#45;&gt;2147321441296</title>
<path fill="none" stroke="black" d="M774.403,-171C782.393,-171 791.311,-171 799.824,-171"/>
<polygon fill="black" stroke="black" points="799.919,-174.5 809.919,-171 799.919,-167.5 799.919,-174.5"/>
</g>
<!-- 2147320863616&#45;&gt;2147322647936 -->
<g id="edge37" class="edge"><title>2147320863616&#45;&gt;2147322647936</title>
<path fill="none" stroke="black" d="M2574.4,-155C2582.39,-155 2591.31,-155 2599.82,-155"/>
<polygon fill="black" stroke="black" points="2599.92,-158.5 2609.92,-155 2599.92,-151.5 2599.92,-158.5"/>
</g>
<!-- 2147319903232&#45;&gt;2147321441584 -->
<g id="edge38" class="edge"><title>2147319903232&#45;&gt;2147321441584</title>
<path fill="none" stroke="black" d="M1314.4,-171C1322.39,-171 1331.31,-171 1339.82,-171"/>
<polygon fill="black" stroke="black" points="1339.92,-174.5 1349.92,-171 1339.92,-167.5 1339.92,-174.5"/>
</g>
<!-- 2147319425872&#45;&gt;2147320725808 -->
<g id="edge39" class="edge"><title>2147319425872&#45;&gt;2147320725808</title>
<path fill="none" stroke="black" d="M1314.4,-85C1322.39,-85 1331.31,-85 1339.82,-85"/>
<polygon fill="black" stroke="black" points="1339.92,-88.5001 1349.92,-85 1339.92,-81.5001 1339.92,-88.5001"/>
</g>
<!-- 2147320863760&#45;&gt;2147320136416 -->
<g id="edge40" class="edge"><title>2147320863760&#45;&gt;2147320136416</title>
<path fill="none" stroke="black" d="M1584.4,-199C1592.39,-199 1601.31,-199 1609.82,-199"/>
<polygon fill="black" stroke="black" points="1609.92,-202.5 1619.92,-199 1609.92,-195.5 1609.92,-202.5"/>
</g>
<!-- 2147322649520&#45;&gt;2147322649808 -->
<g id="edge41" class="edge"><title>2147322649520&#45;&gt;2147322649808</title>
<path fill="none" stroke="black" d="M1494.26,-72C1524.85,-72 1575.55,-72 1609.84,-72"/>
<polygon fill="black" stroke="black" points="1609.92,-75.5001 1619.92,-72 1609.92,-68.5001 1609.92,-75.5001"/>
</g>
<!-- 2147322649088&#45;&gt;2147321023504 -->
<g id="edge42" class="edge"><title>2147322649088&#45;&gt;2147321023504</title>
<path fill="none" stroke="black" d="M1854.18,-75.9082C1902.32,-83.0923 2004.93,-98.4082 2059.74,-106.588"/>
<polygon fill="black" stroke="black" points="2059.3,-110.061 2069.71,-108.076 2060.34,-103.138 2059.3,-110.061"/>
</g>
<!-- 2147322646880&#45;&gt;2147320864288 -->
<g id="edge43" class="edge"><title>2147322646880&#45;&gt;2147320864288</title>
<path fill="none" stroke="black" d="M1764.03,-197.836C1826.91,-195.026 1987.19,-187.863 2059.56,-184.629"/>
<polygon fill="black" stroke="black" points="2059.75,-188.124 2069.58,-184.181 2059.43,-181.131 2059.75,-188.124"/>
</g>
</g>
</svg>
