<?xml version="1.0" encoding="UTF-8" standalone="no"?>
<!DOCTYPE svg PUBLIC "-//W3C//DTD SVG 1.1//EN"
 "http://www.w3.org/Graphics/SVG/1.1/DTD/svg11.dtd">
<!-- Generated by graphviz version 2.38.0 (20140413.2041)
 -->
<!-- Title: &#45;&gt;( X( &#39;A&#39;, &#39;B&#39;, &#39;I&#39;, &#45;&gt;( X( &#39;C&#39;, &#39;c&#39; ), +( &#39;E&#39;, &#39;D&#39; ) ) ), &#39;F&#39;, X( &#39;H&#39;, &#39;G&#39; ) ) Pages: 1 -->
<svg width="2942pt" height="365pt"
 viewBox="0.00 0.00 2942.00 365.00" xmlns="http://www.w3.org/2000/svg" xmlns:xlink="http://www.w3.org/1999/xlink">
<g id="graph0" class="graph" transform="scale(1 1) rotate(0) translate(4 361)">
<title>&#45;&gt;( X( &#39;A&#39;, &#39;B&#39;, &#39;I&#39;, &#45;&gt;( X( &#39;C&#39;, &#39;c&#39; ), +( &#39;E&#39;, &#39;D&#39; ) ) ), &#39;F&#39;, X( &#39;H&#39;, &#39;G&#39; ) )</title>
<!-- 2415464085824 -->
<g id="node1" class="node"><title>2415464085824</title>
<polygon fill="none" stroke="black" points="1764,-216 1710,-216 1710,-180 1764,-180 1764,-216"/>
<text text-anchor="middle" x="1737" y="-194.9" font-family="Times New Roman,serif" font-size="12.00">I</text>
</g>
<!-- 2415464085344 -->
<g id="node31" class="node"><title>2415464085344</title>
<ellipse fill="none" stroke="black" cx="1827" cy="-171" rx="27" ry="27"/>
</g>
<!-- 2415464085824&#45;&gt;2415464085344 -->
<g id="edge3" class="edge"><title>2415464085824&#45;&gt;2415464085344</title>
<path fill="none" stroke="black" d="M1764.4,-189.899C1772.79,-187.326 1782.2,-184.439 1791.09,-181.712"/>
<polygon fill="black" stroke="black" points="1792.29,-185.004 1800.82,-178.725 1790.24,-178.312 1792.29,-185.004"/>
</g>
<!-- 2415468769632 -->
<g id="node48" class="node"><title>2415468769632</title>
<ellipse fill="none" stroke="black" cx="1827" cy="-243" rx="27" ry="27"/>
</g>
<!-- 2415464085824&#45;&gt;2415468769632 -->
<g id="edge4" class="edge"><title>2415464085824&#45;&gt;2415468769632</title>
<path fill="none" stroke="black" d="M1764.4,-211.501C1773.61,-216.21 1784.05,-221.548 1793.68,-226.474"/>
<polygon fill="black" stroke="black" points="1792.11,-229.6 1802.61,-231.037 1795.3,-223.368 1792.11,-229.6"/>
</g>
<!-- 2415463973504 -->
<g id="node2" class="node"><title>2415463973504</title>
<polygon fill="black" stroke="black" points="684,-255 630,-255 630,-219 684,-219 684,-255"/>
</g>
<!-- 2415463972928 -->
<g id="node29" class="node"><title>2415463972928</title>
<ellipse fill="none" stroke="black" cx="747" cy="-237" rx="27" ry="27"/>
</g>
<!-- 2415463973504&#45;&gt;2415463972928 -->
<g id="edge47" class="edge"><title>2415463973504&#45;&gt;2415463972928</title>
<path fill="none" stroke="black" d="M684.403,-237C692.393,-237 701.311,-237 709.824,-237"/>
<polygon fill="black" stroke="black" points="709.919,-240.5 719.919,-237 709.919,-233.5 709.919,-240.5"/>
</g>
<!-- 2415463973312 -->
<g id="node3" class="node"><title>2415463973312</title>
<polygon fill="none" stroke="black" points="864,-304 810,-304 810,-268 864,-268 864,-304"/>
<text text-anchor="middle" x="837" y="-282.9" font-family="Times New Roman,serif" font-size="12.00">c</text>
</g>
<!-- 2415463973408 -->
<g id="node36" class="node"><title>2415463973408</title>
<ellipse fill="none" stroke="black" cx="927" cy="-258" rx="27" ry="27"/>
</g>
<!-- 2415463973312&#45;&gt;2415463973408 -->
<g id="edge2" class="edge"><title>2415463973312&#45;&gt;2415463973408</title>
<path fill="none" stroke="black" d="M864.403,-277.599C872.863,-274.907 882.363,-271.885 891.322,-269.034"/>
<polygon fill="black" stroke="black" points="892.655,-272.283 901.123,-265.915 890.532,-265.612 892.655,-272.283"/>
</g>
<!-- 2415463976192 -->
<g id="node4" class="node"><title>2415463976192</title>
<polygon fill="black" stroke="black" points="1764,-298 1710,-298 1710,-262 1764,-262 1764,-298"/>
</g>
<!-- 2415463976192&#45;&gt;2415464085344 -->
<g id="edge55" class="edge"><title>2415463976192&#45;&gt;2415464085344</title>
<path fill="none" stroke="black" d="M1752.93,-261.51C1766.57,-244.609 1786.97,-219.346 1802.75,-199.802"/>
<polygon fill="black" stroke="black" points="1805.64,-201.796 1809.19,-191.817 1800.19,-197.399 1805.64,-201.796"/>
</g>
<!-- 2415468770304 -->
<g id="node47" class="node"><title>2415468770304</title>
<ellipse fill="none" stroke="black" cx="1827" cy="-315" rx="27" ry="27"/>
</g>
<!-- 2415463976192&#45;&gt;2415468770304 -->
<g id="edge56" class="edge"><title>2415463976192&#45;&gt;2415468770304</title>
<path fill="none" stroke="black" d="M1764.4,-290.501C1773.2,-293.998 1783.11,-297.942 1792.37,-301.626"/>
<polygon fill="black" stroke="black" points="1791.13,-304.899 1801.72,-305.343 1793.72,-298.395 1791.13,-304.899"/>
</g>
<!-- 2415464026560 -->
<g id="node5" class="node"><title>2415464026560</title>
<polygon fill="none" stroke="black" points="2484,-216 2430,-216 2430,-180 2484,-180 2484,-216"/>
<text text-anchor="middle" x="2457" y="-194.9" font-family="Times New Roman,serif" font-size="12.00">H</text>
</g>
<!-- 2415464026800 -->
<g id="node38" class="node"><title>2415464026800</title>
<ellipse fill="none" stroke="black" cx="2547" cy="-171" rx="27" ry="27"/>
</g>
<!-- 2415464026560&#45;&gt;2415464026800 -->
<g id="edge13" class="edge"><title>2415464026560&#45;&gt;2415464026800</title>
<path fill="none" stroke="black" d="M2484.4,-189.899C2492.79,-187.326 2502.2,-184.439 2511.09,-181.712"/>
<polygon fill="black" stroke="black" points="2512.29,-185.004 2520.82,-178.725 2510.24,-178.312 2512.29,-185.004"/>
</g>
<!-- 2415464028288 -->
<g id="node6" class="node"><title>2415464028288</title>
<polygon fill="black" stroke="black" points="144,-181 90,-181 90,-145 144,-145 144,-181"/>
</g>
<!-- 2415468057696 -->
<g id="node32" class="node"><title>2415468057696</title>
<ellipse fill="none" stroke="black" cx="207" cy="-163" rx="27" ry="27"/>
</g>
<!-- 2415464028288&#45;&gt;2415468057696 -->
<g id="edge45" class="edge"><title>2415464028288&#45;&gt;2415468057696</title>
<path fill="none" stroke="black" d="M144.403,-163C152.393,-163 161.311,-163 169.824,-163"/>
<polygon fill="black" stroke="black" points="169.919,-166.5 179.919,-163 169.919,-159.5 169.919,-166.5"/>
</g>
<!-- 2415464029248 -->
<g id="node7" class="node"><title>2415464029248</title>
<polygon fill="black" stroke="black" points="1944,-117 1890,-117 1890,-81 1944,-81 1944,-117"/>
</g>
<!-- 2415464029392 -->
<g id="node49" class="node"><title>2415464029392</title>
<ellipse fill="none" stroke="black" cx="2007" cy="-99" rx="27" ry="27"/>
</g>
<!-- 2415464029248&#45;&gt;2415464029392 -->
<g id="edge57" class="edge"><title>2415464029248&#45;&gt;2415464029392</title>
<path fill="none" stroke="black" d="M1944.4,-99C1952.39,-99 1961.31,-99 1969.82,-99"/>
<polygon fill="black" stroke="black" points="1969.92,-102.5 1979.92,-99 1969.92,-95.5001 1969.92,-102.5"/>
</g>
<!-- 2415468769920 -->
<g id="node8" class="node"><title>2415468769920</title>
<polygon fill="black" stroke="black" points="1944,-252 1890,-252 1890,-216 1944,-216 1944,-252"/>
</g>
<!-- 2415468769920&#45;&gt;2415464029392 -->
<g id="edge60" class="edge"><title>2415468769920&#45;&gt;2415464029392</title>
<path fill="none" stroke="black" d="M1931.61,-215.948C1935.72,-210.289 1940.16,-203.963 1944,-198 1961.47,-170.89 1962.53,-162.11 1980,-135 1981.26,-133.052 1982.57,-131.064 1983.92,-129.074"/>
<polygon fill="black" stroke="black" points="1987.1,-130.647 1989.95,-120.443 1981.35,-126.641 1987.1,-130.647"/>
</g>
<!-- 2415463974032 -->
<g id="node9" class="node"><title>2415463974032</title>
<polygon fill="black" stroke="black" points="1044,-276 990,-276 990,-240 1044,-240 1044,-276"/>
</g>
<!-- 2415463974320 -->
<g id="node42" class="node"><title>2415463974320</title>
<ellipse fill="none" stroke="black" cx="1107" cy="-258" rx="27" ry="27"/>
</g>
<!-- 2415463974032&#45;&gt;2415463974320 -->
<g id="edge53" class="edge"><title>2415463974032&#45;&gt;2415463974320</title>
<path fill="none" stroke="black" d="M1044.4,-258C1052.39,-258 1061.31,-258 1069.82,-258"/>
<polygon fill="black" stroke="black" points="1069.92,-261.5 1079.92,-258 1069.92,-254.5 1069.92,-261.5"/>
</g>
<!-- 2415463974224 -->
<g id="node10" class="node"><title>2415463974224</title>
<polygon fill="none" stroke="black" points="1404,-348 1350,-348 1350,-312 1404,-312 1404,-348"/>
<text text-anchor="middle" x="1377" y="-326.9" font-family="Times New Roman,serif" font-size="12.00">E</text>
</g>
<!-- 2415463974464 -->
<g id="node37" class="node"><title>2415463974464</title>
<ellipse fill="none" stroke="black" cx="1467" cy="-330" rx="27" ry="27"/>
</g>
<!-- 2415463974224&#45;&gt;2415463974464 -->
<g id="edge7" class="edge"><title>2415463974224&#45;&gt;2415463974464</title>
<path fill="none" stroke="black" d="M1404.4,-330C1412.39,-330 1421.31,-330 1429.82,-330"/>
<polygon fill="black" stroke="black" points="1429.92,-333.5 1439.92,-330 1429.92,-326.5 1429.92,-333.5"/>
</g>
<!-- 2415463975184 -->
<g id="node11" class="node"><title>2415463975184</title>
<polygon fill="black" stroke="black" points="1584,-298 1530,-298 1530,-262 1584,-262 1584,-298"/>
</g>
<!-- 2415463974176 -->
<g id="node43" class="node"><title>2415463974176</title>
<ellipse fill="none" stroke="black" cx="1647" cy="-280" rx="27" ry="27"/>
</g>
<!-- 2415463975184&#45;&gt;2415463974176 -->
<g id="edge51" class="edge"><title>2415463975184&#45;&gt;2415463974176</title>
<path fill="none" stroke="black" d="M1584.4,-280C1592.39,-280 1601.31,-280 1609.82,-280"/>
<polygon fill="black" stroke="black" points="1609.92,-283.5 1619.92,-280 1609.92,-276.5 1609.92,-283.5"/>
</g>
<!-- 2415463973264 -->
<g id="node12" class="node"><title>2415463973264</title>
<polygon fill="black" stroke="black" points="324,-181 270,-181 270,-145 324,-145 324,-181"/>
</g>
<!-- 2415464086496 -->
<g id="node44" class="node"><title>2415464086496</title>
<ellipse fill="none" stroke="black" cx="387" cy="-163" rx="27" ry="27"/>
</g>
<!-- 2415463973264&#45;&gt;2415464086496 -->
<g id="edge43" class="edge"><title>2415463973264&#45;&gt;2415464086496</title>
<path fill="none" stroke="black" d="M324.403,-163C332.393,-163 341.311,-163 349.824,-163"/>
<polygon fill="black" stroke="black" points="349.919,-166.5 359.919,-163 349.919,-159.5 349.919,-166.5"/>
</g>
<!-- 2415464085584 -->
<g id="node13" class="node"><title>2415464085584</title>
<polygon fill="none" stroke="black" points="2124,-189 2070,-189 2070,-153 2124,-153 2124,-189"/>
<text text-anchor="middle" x="2097" y="-167.9" font-family="Times New Roman,serif" font-size="12.00">F</text>
</g>
<!-- 2415464026656 -->
<g id="node34" class="node"><title>2415464026656</title>
<ellipse fill="none" stroke="black" cx="2187" cy="-171" rx="27" ry="27"/>
</g>
<!-- 2415464085584&#45;&gt;2415464026656 -->
<g id="edge1" class="edge"><title>2415464085584&#45;&gt;2415464026656</title>
<path fill="none" stroke="black" d="M2124.4,-171C2132.39,-171 2141.31,-171 2149.82,-171"/>
<polygon fill="black" stroke="black" points="2149.92,-174.5 2159.92,-171 2149.92,-167.5 2149.92,-174.5"/>
</g>
<!-- 2415464026896 -->
<g id="node14" class="node"><title>2415464026896</title>
<polygon fill="black" stroke="black" points="2304,-189 2250,-189 2250,-153 2304,-153 2304,-189"/>
</g>
<!-- 2415464085632 -->
<g id="node28" class="node"><title>2415464085632</title>
<ellipse fill="none" stroke="black" cx="2367" cy="-171" rx="27" ry="27"/>
</g>
<!-- 2415464026896&#45;&gt;2415464085632 -->
<g id="edge48" class="edge"><title>2415464026896&#45;&gt;2415464085632</title>
<path fill="none" stroke="black" d="M2304.4,-171C2312.39,-171 2321.31,-171 2329.82,-171"/>
<polygon fill="black" stroke="black" points="2329.92,-174.5 2339.92,-171 2329.92,-167.5 2329.92,-174.5"/>
</g>
<!-- 2415464026704 -->
<g id="node15" class="node"><title>2415464026704</title>
<polygon fill="none" stroke="black" points="2484,-162 2430,-162 2430,-126 2484,-126 2484,-162"/>
<text text-anchor="middle" x="2457" y="-140.9" font-family="Times New Roman,serif" font-size="12.00">G</text>
</g>
<!-- 2415464026704&#45;&gt;2415464026800 -->
<g id="edge12" class="edge"><title>2415464026704&#45;&gt;2415464026800</title>
<path fill="none" stroke="black" d="M2484.4,-152.101C2492.79,-154.674 2502.2,-157.561 2511.09,-160.288"/>
<polygon fill="black" stroke="black" points="2510.24,-163.688 2520.82,-163.275 2512.29,-156.996 2510.24,-163.688"/>
</g>
<!-- 2415464028432 -->
<g id="node16" class="node"><title>2415464028432</title>
<polygon fill="black" stroke="black" points="2844,-189 2790,-189 2790,-153 2844,-153 2844,-189"/>
</g>
<!-- 2415464028672 -->
<g id="node51" class="node"><title>2415464028672</title>
<ellipse fill="orange" stroke="black" cx="2907" cy="-171" rx="27" ry="27"/>
</g>
<!-- 2415464028432&#45;&gt;2415464028672 -->
<g id="edge46" class="edge"><title>2415464028432&#45;&gt;2415464028672</title>
<path fill="none" stroke="black" d="M2844.4,-171C2852.39,-171 2861.31,-171 2869.82,-171"/>
<polygon fill="black" stroke="black" points="2869.92,-174.5 2879.92,-171 2869.92,-167.5 2869.92,-174.5"/>
</g>
<!-- 2415463974368 -->
<g id="node17" class="node"><title>2415463974368</title>
<polygon fill="none" stroke="black" points="1404,-276 1350,-276 1350,-240 1404,-240 1404,-276"/>
<text text-anchor="middle" x="1377" y="-254.9" font-family="Times New Roman,serif" font-size="12.00">D</text>
</g>
<!-- 2415463974848 -->
<g id="node40" class="node"><title>2415463974848</title>
<ellipse fill="none" stroke="black" cx="1467" cy="-258" rx="27" ry="27"/>
</g>
<!-- 2415463974368&#45;&gt;2415463974848 -->
<g id="edge6" class="edge"><title>2415463974368&#45;&gt;2415463974848</title>
<path fill="none" stroke="black" d="M1404.4,-258C1412.39,-258 1421.31,-258 1429.82,-258"/>
<polygon fill="black" stroke="black" points="1429.92,-261.5 1439.92,-258 1429.92,-254.5 1429.92,-261.5"/>
</g>
<!-- 2415463975136 -->
<g id="node18" class="node"><title>2415463975136</title>
<polygon fill="black" stroke="black" points="1224,-276 1170,-276 1170,-240 1224,-240 1224,-276"/>
</g>
<!-- 2415463973072 -->
<g id="node30" class="node"><title>2415463973072</title>
<ellipse fill="none" stroke="black" cx="1287" cy="-330" rx="27" ry="27"/>
</g>
<!-- 2415463975136&#45;&gt;2415463973072 -->
<g id="edge49" class="edge"><title>2415463975136&#45;&gt;2415463973072</title>
<path fill="none" stroke="black" d="M1220.21,-276.169C1231.54,-285.443 1245.46,-296.83 1257.57,-306.738"/>
<polygon fill="black" stroke="black" points="1255.65,-309.694 1265.61,-313.318 1260.09,-304.277 1255.65,-309.694"/>
</g>
<!-- 2415463974752 -->
<g id="node39" class="node"><title>2415463974752</title>
<ellipse fill="none" stroke="black" cx="1287" cy="-258" rx="27" ry="27"/>
</g>
<!-- 2415463975136&#45;&gt;2415463974752 -->
<g id="edge50" class="edge"><title>2415463975136&#45;&gt;2415463974752</title>
<path fill="none" stroke="black" d="M1224.4,-258C1232.39,-258 1241.31,-258 1249.82,-258"/>
<polygon fill="black" stroke="black" points="1249.92,-261.5 1259.92,-258 1249.92,-254.5 1249.92,-261.5"/>
</g>
<!-- 2415464027424 -->
<g id="node19" class="node"><title>2415464027424</title>
<polygon fill="black" stroke="black" points="2664,-189 2610,-189 2610,-153 2664,-153 2664,-189"/>
</g>
<!-- 2415464027616 -->
<g id="node35" class="node"><title>2415464027616</title>
<ellipse fill="none" stroke="black" cx="2727" cy="-171" rx="27" ry="27"/>
</g>
<!-- 2415464027424&#45;&gt;2415464027616 -->
<g id="edge52" class="edge"><title>2415464027424&#45;&gt;2415464027616</title>
<path fill="none" stroke="black" d="M2664.4,-171C2672.39,-171 2681.31,-171 2689.82,-171"/>
<polygon fill="black" stroke="black" points="2689.92,-174.5 2699.92,-171 2689.92,-167.5 2689.92,-174.5"/>
</g>
<!-- 2415464030112 -->
<g id="node20" class="node"><title>2415464030112</title>
<polygon fill="black" stroke="black" points="1944,-54 1890,-54 1890,-18 1944,-18 1944,-54"/>
</g>
<!-- 2415464030112&#45;&gt;2415464029392 -->
<g id="edge58" class="edge"><title>2415464030112&#45;&gt;2415464029392</title>
<path fill="none" stroke="black" d="M1943.45,-54.2222C1953.71,-61.563 1965.61,-70.0813 1976.26,-77.7054"/>
<polygon fill="black" stroke="black" points="1974.3,-80.6132 1984.47,-83.5885 1978.38,-74.9214 1974.3,-80.6132"/>
</g>
<!-- 2415464085680 -->
<g id="node21" class="node"><title>2415464085680</title>
<polygon fill="none" stroke="black" points="1764,-162 1710,-162 1710,-126 1764,-126 1764,-162"/>
<text text-anchor="middle" x="1737" y="-140.9" font-family="Times New Roman,serif" font-size="12.00">A</text>
</g>
<!-- 2415464085680&#45;&gt;2415464085344 -->
<g id="edge8" class="edge"><title>2415464085680&#45;&gt;2415464085344</title>
<path fill="none" stroke="black" d="M1764.4,-152.101C1772.79,-154.674 1782.2,-157.561 1791.09,-160.288"/>
<polygon fill="black" stroke="black" points="1790.24,-163.688 1800.82,-163.275 1792.29,-156.996 1790.24,-163.688"/>
</g>
<!-- 2415464085920 -->
<g id="node45" class="node"><title>2415464085920</title>
<ellipse fill="none" stroke="black" cx="1827" cy="-99" rx="27" ry="27"/>
</g>
<!-- 2415464085680&#45;&gt;2415464085920 -->
<g id="edge9" class="edge"><title>2415464085680&#45;&gt;2415464085920</title>
<path fill="none" stroke="black" d="M1764.4,-130.499C1773.61,-125.79 1784.05,-120.452 1793.68,-115.526"/>
<polygon fill="black" stroke="black" points="1795.3,-118.632 1802.61,-110.963 1792.11,-112.4 1795.3,-118.632"/>
</g>
<!-- 2415464086064 -->
<g id="node22" class="node"><title>2415464086064</title>
<polygon fill="none" stroke="black" points="1764,-108 1710,-108 1710,-72 1764,-72 1764,-108"/>
<text text-anchor="middle" x="1737" y="-86.9" font-family="Times New Roman,serif" font-size="12.00">B</text>
</g>
<!-- 2415464086064&#45;&gt;2415464085344 -->
<g id="edge10" class="edge"><title>2415464086064&#45;&gt;2415464085344</title>
<path fill="none" stroke="black" d="M1757.97,-108.38C1770.09,-119.539 1785.73,-133.931 1798.95,-146.103"/>
<polygon fill="black" stroke="black" points="1796.69,-148.774 1806.41,-152.972 1801.43,-143.624 1796.69,-148.774"/>
</g>
<!-- 2415464029824 -->
<g id="node46" class="node"><title>2415464029824</title>
<ellipse fill="none" stroke="black" cx="1827" cy="-27" rx="27" ry="27"/>
</g>
<!-- 2415464086064&#45;&gt;2415464029824 -->
<g id="edge11" class="edge"><title>2415464086064&#45;&gt;2415464029824</title>
<path fill="none" stroke="black" d="M1763.45,-71.7778C1773.71,-64.437 1785.61,-55.9187 1796.26,-48.2946"/>
<polygon fill="black" stroke="black" points="1798.38,-51.0786 1804.47,-42.4115 1794.3,-45.3868 1798.38,-51.0786"/>
</g>
<!-- 2415463973168 -->
<g id="node23" class="node"><title>2415463973168</title>
<polygon fill="none" stroke="black" points="864,-250 810,-250 810,-214 864,-214 864,-250"/>
<text text-anchor="middle" x="837" y="-228.9" font-family="Times New Roman,serif" font-size="12.00">C</text>
</g>
<!-- 2415463973168&#45;&gt;2415463973408 -->
<g id="edge5" class="edge"><title>2415463973168&#45;&gt;2415463973408</title>
<path fill="none" stroke="black" d="M864.403,-239.801C872.79,-242.279 882.197,-245.058 891.088,-247.685"/>
<polygon fill="black" stroke="black" points="890.241,-251.084 900.823,-250.561 892.225,-244.371 890.241,-251.084"/>
</g>
<!-- 2415463976048 -->
<g id="node24" class="node"><title>2415463976048</title>
<polygon fill="black" stroke="black" points="504,-250 450,-250 450,-214 504,-214 504,-250"/>
</g>
<!-- 2415464086112 -->
<g id="node41" class="node"><title>2415464086112</title>
<ellipse fill="none" stroke="black" cx="567" cy="-237" rx="27" ry="27"/>
</g>
<!-- 2415463976048&#45;&gt;2415464086112 -->
<g id="edge54" class="edge"><title>2415463976048&#45;&gt;2415464086112</title>
<path fill="none" stroke="black" d="M504.403,-233.5C512.393,-233.954 521.311,-234.461 529.824,-234.945"/>
<polygon fill="black" stroke="black" points="529.737,-238.445 539.919,-235.518 530.134,-231.456 529.737,-238.445"/>
</g>
<!-- 2415464026416 -->
<g id="node25" class="node"><title>2415464026416</title>
<polygon fill="black" stroke="black" points="1944,-189 1890,-189 1890,-153 1944,-153 1944,-189"/>
</g>
<!-- 2415464086784 -->
<g id="node33" class="node"><title>2415464086784</title>
<ellipse fill="none" stroke="black" cx="2007" cy="-171" rx="27" ry="27"/>
</g>
<!-- 2415464026416&#45;&gt;2415464086784 -->
<g id="edge44" class="edge"><title>2415464026416&#45;&gt;2415464086784</title>
<path fill="none" stroke="black" d="M1944.4,-171C1952.39,-171 1961.31,-171 1969.82,-171"/>
<polygon fill="black" stroke="black" points="1969.92,-174.5 1979.92,-171 1969.92,-167.5 1969.92,-174.5"/>
</g>
<!-- 2415468770160 -->
<g id="node26" class="node"><title>2415468770160</title>
<polygon fill="black" stroke="black" points="1944,-324 1890,-324 1890,-288 1944,-288 1944,-324"/>
</g>
<!-- 2415464028960 -->
<g id="node50" class="node"><title>2415464028960</title>
<ellipse fill="none" stroke="black" cx="2097" cy="-252" rx="27" ry="27"/>
</g>
<!-- 2415468770160&#45;&gt;2415464028960 -->
<g id="edge59" class="edge"><title>2415468770160&#45;&gt;2415464028960</title>
<path fill="none" stroke="black" d="M1944.26,-298.032C1975.33,-288.606 2027.16,-272.884 2061.46,-262.479"/>
<polygon fill="black" stroke="black" points="2062.51,-265.817 2071.07,-259.564 2060.48,-259.118 2062.51,-265.817"/>
</g>
<!-- 2415464028576 -->
<g id="node27" class="node"><title>2415464028576</title>
<ellipse fill="green" stroke="black" cx="27" cy="-163" rx="27" ry="27"/>
<text text-anchor="middle" x="27" y="-159.9" font-family="Times New Roman,serif" font-size="12.00">1</text>
</g>
<!-- 2415464028576&#45;&gt;2415464028288 -->
<g id="edge24" class="edge"><title>2415464028576&#45;&gt;2415464028288</title>
<path fill="none" stroke="black" d="M54.4029,-163C62.3932,-163 71.3106,-163 79.8241,-163"/>
<polygon fill="black" stroke="black" points="79.919,-166.5 89.919,-163 79.919,-159.5 79.919,-166.5"/>
</g>
<!-- 2415464085632&#45;&gt;2415464026560 -->
<g id="edge15" class="edge"><title>2415464085632&#45;&gt;2415464026560</title>
<path fill="none" stroke="black" d="M2392.98,-178.665C2401.42,-181.252 2411,-184.194 2420.11,-186.989"/>
<polygon fill="black" stroke="black" points="2419.14,-190.352 2429.73,-189.939 2421.19,-183.66 2419.14,-190.352"/>
</g>
<!-- 2415464085632&#45;&gt;2415464026704 -->
<g id="edge14" class="edge"><title>2415464085632&#45;&gt;2415464026704</title>
<path fill="none" stroke="black" d="M2392.98,-163.335C2401.42,-160.748 2411,-157.806 2420.11,-155.011"/>
<polygon fill="black" stroke="black" points="2421.19,-158.34 2429.73,-152.061 2419.14,-151.648 2421.19,-158.34"/>
</g>
<!-- 2415463972928&#45;&gt;2415463973312 -->
<g id="edge16" class="edge"><title>2415463972928&#45;&gt;2415463973312</title>
<path fill="none" stroke="black" d="M771.121,-249.874C780.244,-254.954 790.927,-260.902 800.96,-266.489"/>
<polygon fill="black" stroke="black" points="799.489,-269.676 809.928,-271.483 802.894,-263.56 799.489,-269.676"/>
</g>
<!-- 2415463972928&#45;&gt;2415463973168 -->
<g id="edge17" class="edge"><title>2415463972928&#45;&gt;2415463973168</title>
<path fill="none" stroke="black" d="M774.403,-235.5C782.393,-235.046 791.311,-234.539 799.824,-234.055"/>
<polygon fill="black" stroke="black" points="800.134,-237.544 809.919,-233.482 799.737,-230.555 800.134,-237.544"/>
</g>
<!-- 2415463973072&#45;&gt;2415463974224 -->
<g id="edge18" class="edge"><title>2415463973072&#45;&gt;2415463974224</title>
<path fill="none" stroke="black" d="M1314.4,-330C1322.39,-330 1331.31,-330 1339.82,-330"/>
<polygon fill="black" stroke="black" points="1339.92,-333.5 1349.92,-330 1339.92,-326.5 1339.92,-333.5"/>
</g>
<!-- 2415464085344&#45;&gt;2415464026416 -->
<g id="edge19" class="edge"><title>2415464085344&#45;&gt;2415464026416</title>
<path fill="none" stroke="black" d="M1854.4,-171C1862.39,-171 1871.31,-171 1879.82,-171"/>
<polygon fill="black" stroke="black" points="1879.92,-174.5 1889.92,-171 1879.92,-167.5 1879.92,-174.5"/>
</g>
<!-- 2415468057696&#45;&gt;2415463973264 -->
<g id="edge20" class="edge"><title>2415468057696&#45;&gt;2415463973264</title>
<path fill="none" stroke="black" d="M234.403,-163C242.393,-163 251.311,-163 259.824,-163"/>
<polygon fill="black" stroke="black" points="259.919,-166.5 269.919,-163 259.919,-159.5 259.919,-166.5"/>
</g>
<!-- 2415464086784&#45;&gt;2415464085584 -->
<g id="edge21" class="edge"><title>2415464086784&#45;&gt;2415464085584</title>
<path fill="none" stroke="black" d="M2034.4,-171C2042.39,-171 2051.31,-171 2059.82,-171"/>
<polygon fill="black" stroke="black" points="2059.92,-174.5 2069.92,-171 2059.92,-167.5 2059.92,-174.5"/>
</g>
<!-- 2415464026656&#45;&gt;2415464026896 -->
<g id="edge22" class="edge"><title>2415464026656&#45;&gt;2415464026896</title>
<path fill="none" stroke="black" d="M2214.4,-171C2222.39,-171 2231.31,-171 2239.82,-171"/>
<polygon fill="black" stroke="black" points="2239.92,-174.5 2249.92,-171 2239.92,-167.5 2239.92,-174.5"/>
</g>
<!-- 2415464027616&#45;&gt;2415464028432 -->
<g id="edge23" class="edge"><title>2415464027616&#45;&gt;2415464028432</title>
<path fill="none" stroke="black" d="M2754.4,-171C2762.39,-171 2771.31,-171 2779.82,-171"/>
<polygon fill="black" stroke="black" points="2779.92,-174.5 2789.92,-171 2779.92,-167.5 2779.92,-174.5"/>
</g>
<!-- 2415463973408&#45;&gt;2415463974032 -->
<g id="edge25" class="edge"><title>2415463973408&#45;&gt;2415463974032</title>
<path fill="none" stroke="black" d="M954.403,-258C962.393,-258 971.311,-258 979.824,-258"/>
<polygon fill="black" stroke="black" points="979.919,-261.5 989.919,-258 979.919,-254.5 979.919,-261.5"/>
</g>
<!-- 2415463974464&#45;&gt;2415463975184 -->
<g id="edge26" class="edge"><title>2415463974464&#45;&gt;2415463975184</title>
<path fill="none" stroke="black" d="M1491.12,-316.863C1500.24,-311.679 1510.93,-305.61 1520.96,-299.909"/>
<polygon fill="black" stroke="black" points="1522.96,-302.797 1529.93,-294.813 1519.5,-296.711 1522.96,-302.797"/>
</g>
<!-- 2415464026800&#45;&gt;2415464027424 -->
<g id="edge27" class="edge"><title>2415464026800&#45;&gt;2415464027424</title>
<path fill="none" stroke="black" d="M2574.4,-171C2582.39,-171 2591.31,-171 2599.82,-171"/>
<polygon fill="black" stroke="black" points="2599.92,-174.5 2609.92,-171 2599.92,-167.5 2599.92,-174.5"/>
</g>
<!-- 2415463974752&#45;&gt;2415463974368 -->
<g id="edge28" class="edge"><title>2415463974752&#45;&gt;2415463974368</title>
<path fill="none" stroke="black" d="M1314.4,-258C1322.39,-258 1331.31,-258 1339.82,-258"/>
<polygon fill="black" stroke="black" points="1339.92,-261.5 1349.92,-258 1339.92,-254.5 1339.92,-261.5"/>
</g>
<!-- 2415463974848&#45;&gt;2415463975184 -->
<g id="edge29" class="edge"><title>2415463974848&#45;&gt;2415463975184</title>
<path fill="none" stroke="black" d="M1493.45,-264.363C1501.79,-266.447 1511.21,-268.803 1520.16,-271.041"/>
<polygon fill="black" stroke="black" points="1519.44,-274.468 1529.99,-273.498 1521.14,-267.677 1519.44,-274.468"/>
</g>
<!-- 2415464086112&#45;&gt;2415463973504 -->
<g id="edge30" class="edge"><title>2415464086112&#45;&gt;2415463973504</title>
<path fill="none" stroke="black" d="M594.403,-237C602.393,-237 611.311,-237 619.824,-237"/>
<polygon fill="black" stroke="black" points="619.919,-240.5 629.919,-237 619.919,-233.5 619.919,-240.5"/>
</g>
<!-- 2415463974320&#45;&gt;2415463975136 -->
<g id="edge31" class="edge"><title>2415463974320&#45;&gt;2415463975136</title>
<path fill="none" stroke="black" d="M1134.4,-258C1142.39,-258 1151.31,-258 1159.82,-258"/>
<polygon fill="black" stroke="black" points="1159.92,-261.5 1169.92,-258 1159.92,-254.5 1159.92,-261.5"/>
</g>
<!-- 2415463974176&#45;&gt;2415463976192 -->
<g id="edge32" class="edge"><title>2415463974176&#45;&gt;2415463976192</title>
<path fill="none" stroke="black" d="M1674.4,-280C1682.39,-280 1691.31,-280 1699.82,-280"/>
<polygon fill="black" stroke="black" points="1699.92,-283.5 1709.92,-280 1699.92,-276.5 1699.92,-283.5"/>
</g>
<!-- 2415464086496&#45;&gt;2415464085824 -->
<g id="edge33" class="edge"><title>2415464086496&#45;&gt;2415464085824</title>
<path fill="none" stroke="black" d="M413.849,-167.503C448.404,-173.121 511.613,-182 566,-182 566,-182 566,-182 1558,-182 1607.28,-182 1663.92,-188.158 1699.83,-192.834"/>
<polygon fill="black" stroke="black" points="1699.45,-196.315 1709.83,-194.168 1700.38,-189.376 1699.45,-196.315"/>
</g>
<!-- 2415464086496&#45;&gt;2415464085680 -->
<g id="edge34" class="edge"><title>2415464086496&#45;&gt;2415464085680</title>
<path fill="none" stroke="black" d="M413.849,-158.497C448.404,-152.879 511.613,-144 566,-144 566,-144 566,-144 1558,-144 1607.08,-144 1663.77,-144 1699.74,-144"/>
<polygon fill="black" stroke="black" points="1699.76,-147.5 1709.76,-144 1699.76,-140.5 1699.76,-147.5"/>
</g>
<!-- 2415464086496&#45;&gt;2415464086064 -->
<g id="edge35" class="edge"><title>2415464086496&#45;&gt;2415464086064</title>
<path fill="none" stroke="black" d="M410.365,-149.056C443.194,-129.957 506.947,-98 566,-98 566,-98 566,-98 1558,-98 1607.13,-98 1663.81,-94.9208 1699.76,-92.5831"/>
<polygon fill="black" stroke="black" points="1700.03,-96.0731 1709.78,-91.9162 1699.57,-89.0886 1700.03,-96.0731"/>
</g>
<!-- 2415464086496&#45;&gt;2415463976048 -->
<g id="edge36" class="edge"><title>2415464086496&#45;&gt;2415463976048</title>
<path fill="none" stroke="black" d="M408.855,-179.352C419.592,-187.771 432.899,-198.205 444.828,-207.558"/>
<polygon fill="black" stroke="black" points="442.789,-210.407 452.818,-213.823 447.108,-204.898 442.789,-210.407"/>
</g>
<!-- 2415464085920&#45;&gt;2415464029248 -->
<g id="edge37" class="edge"><title>2415464085920&#45;&gt;2415464029248</title>
<path fill="none" stroke="black" d="M1854.4,-99C1862.39,-99 1871.31,-99 1879.82,-99"/>
<polygon fill="black" stroke="black" points="1879.92,-102.5 1889.92,-99 1879.92,-95.5001 1879.92,-102.5"/>
</g>
<!-- 2415464029824&#45;&gt;2415464030112 -->
<g id="edge38" class="edge"><title>2415464029824&#45;&gt;2415464030112</title>
<path fill="none" stroke="black" d="M1853.93,-29.6516C1862.09,-30.4864 1871.26,-31.4239 1879.99,-32.317"/>
<polygon fill="black" stroke="black" points="1879.65,-35.8006 1889.95,-33.3362 1880.36,-28.8369 1879.65,-35.8006"/>
</g>
<!-- 2415468770304&#45;&gt;2415468770160 -->
<g id="edge39" class="edge"><title>2415468770304&#45;&gt;2415468770160</title>
<path fill="none" stroke="black" d="M1853.93,-312.348C1862.09,-311.514 1871.26,-310.576 1879.99,-309.683"/>
<polygon fill="black" stroke="black" points="1880.36,-313.163 1889.95,-308.664 1879.65,-306.199 1880.36,-313.163"/>
</g>
<!-- 2415468769632&#45;&gt;2415468769920 -->
<g id="edge40" class="edge"><title>2415468769632&#45;&gt;2415468769920</title>
<path fill="none" stroke="black" d="M1853.93,-240.348C1862.09,-239.514 1871.26,-238.576 1879.99,-237.683"/>
<polygon fill="black" stroke="black" points="1880.36,-241.163 1889.95,-236.664 1879.65,-234.199 1880.36,-241.163"/>
</g>
<!-- 2415464029392&#45;&gt;2415464026704 -->
<g id="edge41" class="edge"><title>2415464029392&#45;&gt;2415464026704</title>
<path fill="none" stroke="black" d="M2033.92,-101.133C2068.55,-103.794 2131.85,-108 2186,-108 2186,-108 2186,-108 2278,-108 2327.93,-108 2384.2,-121.777 2419.86,-132.285"/>
<polygon fill="black" stroke="black" points="2419.21,-135.744 2429.8,-135.285 2421.24,-129.043 2419.21,-135.744"/>
</g>
<!-- 2415464028960&#45;&gt;2415464026560 -->
<g id="edge42" class="edge"><title>2415464028960&#45;&gt;2415464026560</title>
<path fill="none" stroke="black" d="M2123.75,-248.116C2186.4,-238.666 2346.96,-214.447 2419.48,-203.508"/>
<polygon fill="black" stroke="black" points="2420.15,-206.946 2429.52,-201.994 2419.11,-200.025 2420.15,-206.946"/>
</g>
</g>
</svg>
