<?xml version="1.0" encoding="UTF-8" standalone="no"?>
<!DOCTYPE svg PUBLIC "-//W3C//DTD SVG 1.1//EN"
 "http://www.w3.org/Graphics/SVG/1.1/DTD/svg11.dtd">
<!-- Generated by graphviz version 2.38.0 (20140413.2041)
 -->
<!-- Title: &#45;&gt;( X( +( &#39;E&#39;, &#39;F&#39;, &#39;G&#39; ), &#45;&gt;( +( &#39;C&#39;, &#39;A&#39;, &#39;B&#39; ), &#39;D&#39; ) ), &#39;H&#39;, X( &#39;I&#39;, &#39;J&#39; ) ) Pages: 1 -->
<svg width="2582pt" height="422pt"
 viewBox="0.00 0.00 2582.00 422.00" xmlns="http://www.w3.org/2000/svg" xmlns:xlink="http://www.w3.org/1999/xlink">
<g id="graph0" class="graph" transform="scale(1 1) rotate(0) translate(4 418)">
<title>&#45;&gt;( X( +( &#39;E&#39;, &#39;F&#39;, &#39;G&#39; ), &#45;&gt;( +( &#39;C&#39;, &#39;A&#39;, &#39;B&#39; ), &#39;D&#39; ) ), &#39;H&#39;, X( &#39;I&#39;, &#39;J&#39; ) )</title>
<!-- 2415469344512 -->
<g id="node1" class="node"><title>2415469344512</title>
<polygon fill="none" stroke="black" points="684,-261 630,-261 630,-225 684,-225 684,-261"/>
<text text-anchor="middle" x="657" y="-239.9" font-family="Times New Roman,serif" font-size="12.00">G</text>
</g>
<!-- 2415469345376 -->
<g id="node43" class="node"><title>2415469345376</title>
<ellipse fill="none" stroke="black" cx="747" cy="-243" rx="27" ry="27"/>
</g>
<!-- 2415469344512&#45;&gt;2415469345376 -->
<g id="edge6" class="edge"><title>2415469344512&#45;&gt;2415469345376</title>
<path fill="none" stroke="black" d="M684.403,-243C692.393,-243 701.311,-243 709.824,-243"/>
<polygon fill="black" stroke="black" points="709.919,-246.5 719.919,-243 709.919,-239.5 709.919,-246.5"/>
</g>
<!-- 2415469345664 -->
<g id="node2" class="node"><title>2415469345664</title>
<polygon fill="black" stroke="black" points="504,-297 450,-297 450,-261 504,-261 504,-297"/>
</g>
<!-- 2415469344080 -->
<g id="node24" class="node"><title>2415469344080</title>
<ellipse fill="none" stroke="black" cx="567" cy="-387" rx="27" ry="27"/>
</g>
<!-- 2415469345664&#45;&gt;2415469344080 -->
<g id="edge45" class="edge"><title>2415469345664&#45;&gt;2415469344080</title>
<path fill="none" stroke="black" d="M492.928,-297.321C506.572,-314.066 526.968,-339.097 542.747,-358.462"/>
<polygon fill="black" stroke="black" points="540.164,-360.833 549.194,-366.374 545.59,-356.411 540.164,-360.833"/>
</g>
<!-- 2415469344896 -->
<g id="node37" class="node"><title>2415469344896</title>
<ellipse fill="none" stroke="black" cx="567" cy="-315" rx="27" ry="27"/>
</g>
<!-- 2415469345664&#45;&gt;2415469344896 -->
<g id="edge46" class="edge"><title>2415469345664&#45;&gt;2415469344896</title>
<path fill="none" stroke="black" d="M504.403,-289.801C513.195,-293.398 523.11,-297.454 532.374,-301.244"/>
<polygon fill="black" stroke="black" points="531.138,-304.52 541.719,-305.067 533.789,-298.041 531.138,-304.52"/>
</g>
<!-- 2415469345280 -->
<g id="node41" class="node"><title>2415469345280</title>
<ellipse fill="none" stroke="black" cx="567" cy="-243" rx="27" ry="27"/>
</g>
<!-- 2415469345664&#45;&gt;2415469345280 -->
<g id="edge47" class="edge"><title>2415469345664&#45;&gt;2415469345280</title>
<path fill="none" stroke="black" d="M504.403,-268.199C513.195,-264.602 523.11,-260.546 532.374,-256.756"/>
<polygon fill="black" stroke="black" points="533.789,-259.959 541.719,-252.933 531.138,-253.48 533.789,-259.959"/>
</g>
<!-- 2415469346432 -->
<g id="node3" class="node"><title>2415469346432</title>
<polygon fill="none" stroke="black" points="864,-189 810,-189 810,-153 864,-153 864,-189"/>
<text text-anchor="middle" x="837" y="-167.9" font-family="Times New Roman,serif" font-size="12.00">C</text>
</g>
<!-- 2415469350976 -->
<g id="node32" class="node"><title>2415469350976</title>
<ellipse fill="none" stroke="black" cx="927" cy="-171" rx="27" ry="27"/>
</g>
<!-- 2415469346432&#45;&gt;2415469350976 -->
<g id="edge4" class="edge"><title>2415469346432&#45;&gt;2415469350976</title>
<path fill="none" stroke="black" d="M864.403,-171C872.393,-171 881.311,-171 889.824,-171"/>
<polygon fill="black" stroke="black" points="889.919,-174.5 899.919,-171 889.919,-167.5 889.919,-174.5"/>
</g>
<!-- 2415469346048 -->
<g id="node4" class="node"><title>2415469346048</title>
<polygon fill="none" stroke="black" points="1224,-179 1170,-179 1170,-143 1224,-143 1224,-179"/>
<text text-anchor="middle" x="1197" y="-157.9" font-family="Times New Roman,serif" font-size="12.00">D</text>
</g>
<!-- 2415469352416 -->
<g id="node46" class="node"><title>2415469352416</title>
<ellipse fill="none" stroke="black" cx="1287" cy="-185" rx="27" ry="27"/>
</g>
<!-- 2415469346048&#45;&gt;2415469352416 -->
<g id="edge2" class="edge"><title>2415469346048&#45;&gt;2415469352416</title>
<path fill="none" stroke="black" d="M1224.4,-168.201C1232.79,-170.488 1242.2,-173.054 1251.09,-175.478"/>
<polygon fill="black" stroke="black" points="1250.25,-178.879 1260.82,-178.134 1252.1,-172.126 1250.25,-178.879"/>
</g>
<!-- 2415469354624 -->
<g id="node5" class="node"><title>2415469354624</title>
<polygon fill="black" stroke="black" points="1944,-242 1890,-242 1890,-206 1944,-206 1944,-242"/>
</g>
<!-- 2415469354144 -->
<g id="node25" class="node"><title>2415469354144</title>
<ellipse fill="none" stroke="black" cx="2007" cy="-224" rx="27" ry="27"/>
</g>
<!-- 2415469354624&#45;&gt;2415469354144 -->
<g id="edge41" class="edge"><title>2415469354624&#45;&gt;2415469354144</title>
<path fill="none" stroke="black" d="M1944.4,-224C1952.39,-224 1961.31,-224 1969.82,-224"/>
<polygon fill="black" stroke="black" points="1969.92,-227.5 1979.92,-224 1969.92,-220.5 1969.92,-227.5"/>
</g>
<!-- 2415469354432 -->
<g id="node6" class="node"><title>2415469354432</title>
<polygon fill="none" stroke="black" points="2124,-269 2070,-269 2070,-233 2124,-233 2124,-269"/>
<text text-anchor="middle" x="2097" y="-247.9" font-family="Times New Roman,serif" font-size="12.00">J</text>
</g>
<!-- 2415469354528 -->
<g id="node31" class="node"><title>2415469354528</title>
<ellipse fill="none" stroke="black" cx="2187" cy="-224" rx="27" ry="27"/>
</g>
<!-- 2415469354432&#45;&gt;2415469354528 -->
<g id="edge8" class="edge"><title>2415469354432&#45;&gt;2415469354528</title>
<path fill="none" stroke="black" d="M2124.4,-242.899C2132.79,-240.326 2142.2,-237.439 2151.09,-234.712"/>
<polygon fill="black" stroke="black" points="2152.29,-238.004 2160.82,-231.725 2150.24,-231.312 2152.29,-238.004"/>
</g>
<!-- 2415469368512 -->
<g id="node7" class="node"><title>2415469368512</title>
<polygon fill="black" stroke="black" points="2484,-242 2430,-242 2430,-206 2484,-206 2484,-242"/>
</g>
<!-- 2415469368752 -->
<g id="node47" class="node"><title>2415469368752</title>
<ellipse fill="orange" stroke="black" cx="2547" cy="-224" rx="27" ry="27"/>
</g>
<!-- 2415469368512&#45;&gt;2415469368752 -->
<g id="edge40" class="edge"><title>2415469368512&#45;&gt;2415469368752</title>
<path fill="none" stroke="black" d="M2484.4,-224C2492.39,-224 2501.31,-224 2509.82,-224"/>
<polygon fill="black" stroke="black" points="2509.92,-227.5 2519.92,-224 2509.92,-220.5 2509.92,-227.5"/>
</g>
<!-- 2415469346576 -->
<g id="node8" class="node"><title>2415469346576</title>
<polygon fill="none" stroke="black" points="864,-117 810,-117 810,-81 864,-81 864,-117"/>
<text text-anchor="middle" x="837" y="-95.9" font-family="Times New Roman,serif" font-size="12.00">A</text>
</g>
<!-- 2415469351360 -->
<g id="node39" class="node"><title>2415469351360</title>
<ellipse fill="none" stroke="black" cx="927" cy="-99" rx="27" ry="27"/>
</g>
<!-- 2415469346576&#45;&gt;2415469351360 -->
<g id="edge5" class="edge"><title>2415469346576&#45;&gt;2415469351360</title>
<path fill="none" stroke="black" d="M864.403,-99C872.393,-99 881.311,-99 889.824,-99"/>
<polygon fill="black" stroke="black" points="889.919,-102.5 899.919,-99 889.919,-95.5001 889.919,-102.5"/>
</g>
<!-- 2415469352080 -->
<g id="node9" class="node"><title>2415469352080</title>
<polygon fill="black" stroke="black" points="1044,-123 990,-123 990,-87 1044,-87 1044,-123"/>
</g>
<!-- 2415469346480 -->
<g id="node45" class="node"><title>2415469346480</title>
<ellipse fill="none" stroke="black" cx="1107" cy="-112" rx="27" ry="27"/>
</g>
<!-- 2415469352080&#45;&gt;2415469346480 -->
<g id="edge50" class="edge"><title>2415469352080&#45;&gt;2415469346480</title>
<path fill="none" stroke="black" d="M1044.4,-107.1C1052.39,-107.736 1061.31,-108.445 1069.82,-109.122"/>
<polygon fill="black" stroke="black" points="1069.67,-112.621 1079.92,-109.925 1070.23,-105.643 1069.67,-112.621"/>
</g>
<!-- 2415469344272 -->
<g id="node10" class="node"><title>2415469344272</title>
<polygon fill="black" stroke="black" points="324,-283 270,-283 270,-247 324,-247 324,-283"/>
</g>
<!-- 2415469343936 -->
<g id="node27" class="node"><title>2415469343936</title>
<ellipse fill="none" stroke="black" cx="387" cy="-265" rx="27" ry="27"/>
</g>
<!-- 2415469344272&#45;&gt;2415469343936 -->
<g id="edge37" class="edge"><title>2415469344272&#45;&gt;2415469343936</title>
<path fill="none" stroke="black" d="M324.403,-265C332.393,-265 341.311,-265 349.824,-265"/>
<polygon fill="black" stroke="black" points="349.919,-268.5 359.919,-265 349.919,-261.5 349.919,-268.5"/>
</g>
<!-- 2415469367504 -->
<g id="node11" class="node"><title>2415469367504</title>
<polygon fill="black" stroke="black" points="2304,-242 2250,-242 2250,-206 2304,-206 2304,-242"/>
</g>
<!-- 2415469367696 -->
<g id="node35" class="node"><title>2415469367696</title>
<ellipse fill="none" stroke="black" cx="2367" cy="-224" rx="27" ry="27"/>
</g>
<!-- 2415469367504&#45;&gt;2415469367696 -->
<g id="edge48" class="edge"><title>2415469367504&#45;&gt;2415469367696</title>
<path fill="none" stroke="black" d="M2304.4,-224C2312.39,-224 2321.31,-224 2329.82,-224"/>
<polygon fill="black" stroke="black" points="2329.92,-227.5 2339.92,-224 2329.92,-220.5 2329.92,-227.5"/>
</g>
<!-- 2415469344224 -->
<g id="node12" class="node"><title>2415469344224</title>
<polygon fill="none" stroke="black" points="684,-405 630,-405 630,-369 684,-369 684,-405"/>
<text text-anchor="middle" x="657" y="-383.9" font-family="Times New Roman,serif" font-size="12.00">E</text>
</g>
<!-- 2415469344608 -->
<g id="node30" class="node"><title>2415469344608</title>
<ellipse fill="none" stroke="black" cx="747" cy="-387" rx="27" ry="27"/>
</g>
<!-- 2415469344224&#45;&gt;2415469344608 -->
<g id="edge10" class="edge"><title>2415469344224&#45;&gt;2415469344608</title>
<path fill="none" stroke="black" d="M684.403,-387C692.393,-387 701.311,-387 709.824,-387"/>
<polygon fill="black" stroke="black" points="709.919,-390.5 719.919,-387 709.919,-383.5 709.919,-390.5"/>
</g>
<!-- 2415469352032 -->
<g id="node13" class="node"><title>2415469352032</title>
<polygon fill="black" stroke="black" points="684,-130 630,-130 630,-94 684,-94 684,-130"/>
</g>
<!-- 2415469344320 -->
<g id="node26" class="node"><title>2415469344320</title>
<ellipse fill="none" stroke="black" cx="747" cy="-171" rx="27" ry="27"/>
</g>
<!-- 2415469352032&#45;&gt;2415469344320 -->
<g id="edge42" class="edge"><title>2415469352032&#45;&gt;2415469344320</title>
<path fill="none" stroke="black" d="M684.403,-129.702C694.192,-136.265 705.373,-143.761 715.497,-150.549"/>
<polygon fill="black" stroke="black" points="713.807,-153.63 724.062,-156.291 717.705,-147.815 713.807,-153.63"/>
</g>
<!-- 2415469351264 -->
<g id="node36" class="node"><title>2415469351264</title>
<ellipse fill="none" stroke="black" cx="747" cy="-99" rx="27" ry="27"/>
</g>
<!-- 2415469352032&#45;&gt;2415469351264 -->
<g id="edge43" class="edge"><title>2415469352032&#45;&gt;2415469351264</title>
<path fill="none" stroke="black" d="M684.403,-108.1C692.465,-106.909 701.471,-105.578 710.054,-104.31"/>
<polygon fill="black" stroke="black" points="710.84,-107.732 720.221,-102.808 709.817,-100.807 710.84,-107.732"/>
</g>
<!-- 2415469351648 -->
<g id="node40" class="node"><title>2415469351648</title>
<ellipse fill="none" stroke="black" cx="747" cy="-27" rx="27" ry="27"/>
</g>
<!-- 2415469352032&#45;&gt;2415469351648 -->
<g id="edge44" class="edge"><title>2415469352032&#45;&gt;2415469351648</title>
<path fill="none" stroke="black" d="M676.663,-93.9737C689.178,-81.885 705.842,-65.789 719.697,-52.4063"/>
<polygon fill="black" stroke="black" points="722.3,-54.7582 727.061,-45.2934 717.437,-49.7234 722.3,-54.7582"/>
</g>
<!-- 2415469346720 -->
<g id="node14" class="node"><title>2415469346720</title>
<polygon fill="none" stroke="black" points="864,-45 810,-45 810,-9 864,-9 864,-45"/>
<text text-anchor="middle" x="837" y="-23.9" font-family="Times New Roman,serif" font-size="12.00">B</text>
</g>
<!-- 2415469351744 -->
<g id="node42" class="node"><title>2415469351744</title>
<ellipse fill="none" stroke="black" cx="927" cy="-27" rx="27" ry="27"/>
</g>
<!-- 2415469346720&#45;&gt;2415469351744 -->
<g id="edge3" class="edge"><title>2415469346720&#45;&gt;2415469351744</title>
<path fill="none" stroke="black" d="M864.403,-27C872.393,-27 881.311,-27 889.824,-27"/>
<polygon fill="black" stroke="black" points="889.919,-30.5001 899.919,-27 889.919,-23.5001 889.919,-30.5001"/>
</g>
<!-- 2415469353184 -->
<g id="node15" class="node"><title>2415469353184</title>
<polygon fill="black" stroke="black" points="504,-211 450,-211 450,-175 504,-175 504,-211"/>
</g>
<!-- 2415469344128 -->
<g id="node44" class="node"><title>2415469344128</title>
<ellipse fill="none" stroke="black" cx="567" cy="-139" rx="27" ry="27"/>
</g>
<!-- 2415469353184&#45;&gt;2415469344128 -->
<g id="edge51" class="edge"><title>2415469353184&#45;&gt;2415469344128</title>
<path fill="none" stroke="black" d="M504.403,-176.798C513.938,-170.947 524.793,-164.286 534.707,-158.202"/>
<polygon fill="black" stroke="black" points="536.79,-161.031 543.482,-152.818 533.129,-155.065 536.79,-161.031"/>
</g>
<!-- 2415469353952 -->
<g id="node16" class="node"><title>2415469353952</title>
<polygon fill="black" stroke="black" points="1584,-242 1530,-242 1530,-206 1584,-206 1584,-242"/>
</g>
<!-- 2415469354384 -->
<g id="node33" class="node"><title>2415469354384</title>
<ellipse fill="none" stroke="black" cx="1647" cy="-224" rx="27" ry="27"/>
</g>
<!-- 2415469353952&#45;&gt;2415469354384 -->
<g id="edge38" class="edge"><title>2415469353952&#45;&gt;2415469354384</title>
<path fill="none" stroke="black" d="M1584.4,-224C1592.39,-224 1601.31,-224 1609.82,-224"/>
<polygon fill="black" stroke="black" points="1609.92,-227.5 1619.92,-224 1609.92,-220.5 1609.92,-227.5"/>
</g>
<!-- 2415469344368 -->
<g id="node17" class="node"><title>2415469344368</title>
<polygon fill="none" stroke="black" points="684,-333 630,-333 630,-297 684,-297 684,-333"/>
<text text-anchor="middle" x="657" y="-311.9" font-family="Times New Roman,serif" font-size="12.00">F</text>
</g>
<!-- 2415469344992 -->
<g id="node38" class="node"><title>2415469344992</title>
<ellipse fill="none" stroke="black" cx="747" cy="-315" rx="27" ry="27"/>
</g>
<!-- 2415469344368&#45;&gt;2415469344992 -->
<g id="edge9" class="edge"><title>2415469344368&#45;&gt;2415469344992</title>
<path fill="none" stroke="black" d="M684.403,-315C692.393,-315 701.311,-315 709.824,-315"/>
<polygon fill="black" stroke="black" points="709.919,-318.5 719.919,-315 709.919,-311.5 709.919,-318.5"/>
</g>
<!-- 2415469345712 -->
<g id="node18" class="node"><title>2415469345712</title>
<polygon fill="black" stroke="black" points="864,-297 810,-297 810,-261 864,-261 864,-297"/>
</g>
<!-- 2415469346672 -->
<g id="node28" class="node"><title>2415469346672</title>
<ellipse fill="none" stroke="black" cx="1467" cy="-224" rx="27" ry="27"/>
</g>
<!-- 2415469345712&#45;&gt;2415469346672 -->
<g id="edge49" class="edge"><title>2415469345712&#45;&gt;2415469346672</title>
<path fill="none" stroke="black" d="M864.051,-272.533C898.567,-264.545 961.458,-252 1016,-252 1016,-252 1016,-252 1288,-252 1337.97,-252 1394.88,-241.099 1430.62,-232.901"/>
<polygon fill="black" stroke="black" points="1431.62,-236.26 1440.55,-230.565 1430.02,-229.446 1431.62,-236.26"/>
</g>
<!-- 2415469353328 -->
<g id="node19" class="node"><title>2415469353328</title>
<polygon fill="black" stroke="black" points="1404,-214 1350,-214 1350,-178 1404,-178 1404,-214"/>
</g>
<!-- 2415469353328&#45;&gt;2415469346672 -->
<g id="edge52" class="edge"><title>2415469353328&#45;&gt;2415469346672</title>
<path fill="none" stroke="black" d="M1404.4,-204.401C1412.86,-207.093 1422.36,-210.115 1431.32,-212.966"/>
<polygon fill="black" stroke="black" points="1430.53,-216.388 1441.12,-216.085 1432.65,-209.717 1430.53,-216.388"/>
</g>
<!-- 2415469343984 -->
<g id="node20" class="node"><title>2415469343984</title>
<polygon fill="none" stroke="black" points="1764,-242 1710,-242 1710,-206 1764,-206 1764,-242"/>
<text text-anchor="middle" x="1737" y="-220.9" font-family="Times New Roman,serif" font-size="12.00">H</text>
</g>
<!-- 2415469354240 -->
<g id="node34" class="node"><title>2415469354240</title>
<ellipse fill="none" stroke="black" cx="1827" cy="-224" rx="27" ry="27"/>
</g>
<!-- 2415469343984&#45;&gt;2415469354240 -->
<g id="edge1" class="edge"><title>2415469343984&#45;&gt;2415469354240</title>
<path fill="none" stroke="black" d="M1764.4,-224C1772.39,-224 1781.31,-224 1789.82,-224"/>
<polygon fill="black" stroke="black" points="1789.92,-227.5 1799.92,-224 1789.92,-220.5 1789.92,-227.5"/>
</g>
<!-- 2415469354288 -->
<g id="node21" class="node"><title>2415469354288</title>
<polygon fill="none" stroke="black" points="2124,-215 2070,-215 2070,-179 2124,-179 2124,-215"/>
<text text-anchor="middle" x="2097" y="-193.9" font-family="Times New Roman,serif" font-size="12.00">I</text>
</g>
<!-- 2415469354288&#45;&gt;2415469354528 -->
<g id="edge7" class="edge"><title>2415469354288&#45;&gt;2415469354528</title>
<path fill="none" stroke="black" d="M2124.4,-205.101C2132.79,-207.674 2142.2,-210.561 2151.09,-213.288"/>
<polygon fill="black" stroke="black" points="2150.24,-216.688 2160.82,-216.275 2152.29,-209.996 2150.24,-216.688"/>
</g>
<!-- 2415469368368 -->
<g id="node22" class="node"><title>2415469368368</title>
<polygon fill="black" stroke="black" points="144,-283 90,-283 90,-247 144,-247 144,-283"/>
</g>
<!-- 2415466144624 -->
<g id="node29" class="node"><title>2415466144624</title>
<ellipse fill="none" stroke="black" cx="207" cy="-265" rx="27" ry="27"/>
</g>
<!-- 2415469368368&#45;&gt;2415466144624 -->
<g id="edge39" class="edge"><title>2415469368368&#45;&gt;2415466144624</title>
<path fill="none" stroke="black" d="M144.403,-265C152.393,-265 161.311,-265 169.824,-265"/>
<polygon fill="black" stroke="black" points="169.919,-268.5 179.919,-265 169.919,-261.5 169.919,-268.5"/>
</g>
<!-- 2415469368656 -->
<g id="node23" class="node"><title>2415469368656</title>
<ellipse fill="green" stroke="black" cx="27" cy="-265" rx="27" ry="27"/>
<text text-anchor="middle" x="27" y="-261.9" font-family="Times New Roman,serif" font-size="12.00">1</text>
</g>
<!-- 2415469368656&#45;&gt;2415469368368 -->
<g id="edge25" class="edge"><title>2415469368656&#45;&gt;2415469368368</title>
<path fill="none" stroke="black" d="M54.4029,-265C62.3932,-265 71.3106,-265 79.8241,-265"/>
<polygon fill="black" stroke="black" points="79.919,-268.5 89.919,-265 79.919,-261.5 79.919,-268.5"/>
</g>
<!-- 2415469344080&#45;&gt;2415469344224 -->
<g id="edge11" class="edge"><title>2415469344080&#45;&gt;2415469344224</title>
<path fill="none" stroke="black" d="M594.403,-387C602.393,-387 611.311,-387 619.824,-387"/>
<polygon fill="black" stroke="black" points="619.919,-390.5 629.919,-387 619.919,-383.5 619.919,-390.5"/>
</g>
<!-- 2415469354144&#45;&gt;2415469354432 -->
<g id="edge13" class="edge"><title>2415469354144&#45;&gt;2415469354432</title>
<path fill="none" stroke="black" d="M2032.98,-231.665C2041.42,-234.252 2051,-237.194 2060.11,-239.989"/>
<polygon fill="black" stroke="black" points="2059.14,-243.352 2069.73,-242.939 2061.19,-236.66 2059.14,-243.352"/>
</g>
<!-- 2415469354144&#45;&gt;2415469354288 -->
<g id="edge12" class="edge"><title>2415469354144&#45;&gt;2415469354288</title>
<path fill="none" stroke="black" d="M2032.98,-216.335C2041.42,-213.748 2051,-210.806 2060.11,-208.011"/>
<polygon fill="black" stroke="black" points="2061.19,-211.34 2069.73,-205.061 2059.14,-204.648 2061.19,-211.34"/>
</g>
<!-- 2415469344320&#45;&gt;2415469346432 -->
<g id="edge14" class="edge"><title>2415469344320&#45;&gt;2415469346432</title>
<path fill="none" stroke="black" d="M774.403,-171C782.393,-171 791.311,-171 799.824,-171"/>
<polygon fill="black" stroke="black" points="799.919,-174.5 809.919,-171 799.919,-167.5 799.919,-174.5"/>
</g>
<!-- 2415469343936&#45;&gt;2415469345664 -->
<g id="edge15" class="edge"><title>2415469343936&#45;&gt;2415469345664</title>
<path fill="none" stroke="black" d="M413.927,-269.125C422.089,-270.423 431.256,-271.882 439.989,-273.271"/>
<polygon fill="black" stroke="black" points="439.529,-276.742 449.954,-274.856 440.628,-269.829 439.529,-276.742"/>
</g>
<!-- 2415469343936&#45;&gt;2415469353184 -->
<g id="edge16" class="edge"><title>2415469343936&#45;&gt;2415469353184</title>
<path fill="none" stroke="black" d="M408.41,-248.301C419.572,-239.168 433.61,-227.682 445.997,-217.548"/>
<polygon fill="black" stroke="black" points="448.327,-220.163 453.851,-211.122 443.895,-214.746 448.327,-220.163"/>
</g>
<!-- 2415469346672&#45;&gt;2415469353952 -->
<g id="edge17" class="edge"><title>2415469346672&#45;&gt;2415469353952</title>
<path fill="none" stroke="black" d="M1494.4,-224C1502.39,-224 1511.31,-224 1519.82,-224"/>
<polygon fill="black" stroke="black" points="1519.92,-227.5 1529.92,-224 1519.92,-220.5 1519.92,-227.5"/>
</g>
<!-- 2415466144624&#45;&gt;2415469344272 -->
<g id="edge18" class="edge"><title>2415466144624&#45;&gt;2415469344272</title>
<path fill="none" stroke="black" d="M234.403,-265C242.393,-265 251.311,-265 259.824,-265"/>
<polygon fill="black" stroke="black" points="259.919,-268.5 269.919,-265 259.919,-261.5 259.919,-268.5"/>
</g>
<!-- 2415469344608&#45;&gt;2415469345712 -->
<g id="edge19" class="edge"><title>2415469344608&#45;&gt;2415469345712</title>
<path fill="none" stroke="black" d="M764.759,-366.432C778.921,-349.052 799.289,-324.055 814.622,-305.237"/>
<polygon fill="black" stroke="black" points="817.458,-307.296 821.062,-297.333 812.032,-302.875 817.458,-307.296"/>
</g>
<!-- 2415469354528&#45;&gt;2415469367504 -->
<g id="edge20" class="edge"><title>2415469354528&#45;&gt;2415469367504</title>
<path fill="none" stroke="black" d="M2214.4,-224C2222.39,-224 2231.31,-224 2239.82,-224"/>
<polygon fill="black" stroke="black" points="2239.92,-227.5 2249.92,-224 2239.92,-220.5 2239.92,-227.5"/>
</g>
<!-- 2415469350976&#45;&gt;2415469352080 -->
<g id="edge21" class="edge"><title>2415469350976&#45;&gt;2415469352080</title>
<path fill="none" stroke="black" d="M949.302,-155.023C959.617,-147.287 972.224,-137.832 983.689,-129.233"/>
<polygon fill="black" stroke="black" points="985.886,-131.96 991.786,-123.16 981.686,-126.36 985.886,-131.96"/>
</g>
<!-- 2415469354384&#45;&gt;2415469343984 -->
<g id="edge22" class="edge"><title>2415469354384&#45;&gt;2415469343984</title>
<path fill="none" stroke="black" d="M1674.4,-224C1682.39,-224 1691.31,-224 1699.82,-224"/>
<polygon fill="black" stroke="black" points="1699.92,-227.5 1709.92,-224 1699.92,-220.5 1699.92,-227.5"/>
</g>
<!-- 2415469354240&#45;&gt;2415469354624 -->
<g id="edge23" class="edge"><title>2415469354240&#45;&gt;2415469354624</title>
<path fill="none" stroke="black" d="M1854.4,-224C1862.39,-224 1871.31,-224 1879.82,-224"/>
<polygon fill="black" stroke="black" points="1879.92,-227.5 1889.92,-224 1879.92,-220.5 1879.92,-227.5"/>
</g>
<!-- 2415469367696&#45;&gt;2415469368512 -->
<g id="edge24" class="edge"><title>2415469367696&#45;&gt;2415469368512</title>
<path fill="none" stroke="black" d="M2394.4,-224C2402.39,-224 2411.31,-224 2419.82,-224"/>
<polygon fill="black" stroke="black" points="2419.92,-227.5 2429.92,-224 2419.92,-220.5 2419.92,-227.5"/>
</g>
<!-- 2415469351264&#45;&gt;2415469346576 -->
<g id="edge26" class="edge"><title>2415469351264&#45;&gt;2415469346576</title>
<path fill="none" stroke="black" d="M774.403,-99C782.393,-99 791.311,-99 799.824,-99"/>
<polygon fill="black" stroke="black" points="799.919,-102.5 809.919,-99 799.919,-95.5001 799.919,-102.5"/>
</g>
<!-- 2415469344896&#45;&gt;2415469344368 -->
<g id="edge27" class="edge"><title>2415469344896&#45;&gt;2415469344368</title>
<path fill="none" stroke="black" d="M594.403,-315C602.393,-315 611.311,-315 619.824,-315"/>
<polygon fill="black" stroke="black" points="619.919,-318.5 629.919,-315 619.919,-311.5 619.919,-318.5"/>
</g>
<!-- 2415469344992&#45;&gt;2415469345712 -->
<g id="edge28" class="edge"><title>2415469344992&#45;&gt;2415469345712</title>
<path fill="none" stroke="black" d="M772.513,-304.972C781.119,-301.451 790.971,-297.421 800.306,-293.602"/>
<polygon fill="black" stroke="black" points="801.842,-296.755 809.772,-289.73 799.191,-290.277 801.842,-296.755"/>
</g>
<!-- 2415469351360&#45;&gt;2415469352080 -->
<g id="edge29" class="edge"><title>2415469351360&#45;&gt;2415469352080</title>
<path fill="none" stroke="black" d="M954.403,-100.8C962.393,-101.345 971.311,-101.953 979.824,-102.533"/>
<polygon fill="black" stroke="black" points="979.704,-106.033 989.919,-103.222 980.18,-99.0495 979.704,-106.033"/>
</g>
<!-- 2415469351648&#45;&gt;2415469346720 -->
<g id="edge30" class="edge"><title>2415469351648&#45;&gt;2415469346720</title>
<path fill="none" stroke="black" d="M774.403,-27C782.393,-27 791.311,-27 799.824,-27"/>
<polygon fill="black" stroke="black" points="799.919,-30.5001 809.919,-27 799.919,-23.5001 799.919,-30.5001"/>
</g>
<!-- 2415469345280&#45;&gt;2415469344512 -->
<g id="edge31" class="edge"><title>2415469345280&#45;&gt;2415469344512</title>
<path fill="none" stroke="black" d="M594.403,-243C602.393,-243 611.311,-243 619.824,-243"/>
<polygon fill="black" stroke="black" points="619.919,-246.5 629.919,-243 619.919,-239.5 619.919,-246.5"/>
</g>
<!-- 2415469351744&#45;&gt;2415469352080 -->
<g id="edge32" class="edge"><title>2415469351744&#45;&gt;2415469352080</title>
<path fill="none" stroke="black" d="M947.969,-44.6994C959.727,-55.1217 974.788,-68.4716 987.749,-79.9597"/>
<polygon fill="black" stroke="black" points="985.695,-82.8155 995.5,-86.8293 990.338,-77.577 985.695,-82.8155"/>
</g>
<!-- 2415469345376&#45;&gt;2415469345712 -->
<g id="edge33" class="edge"><title>2415469345376&#45;&gt;2415469345712</title>
<path fill="none" stroke="black" d="M772.513,-253.028C781.119,-256.549 790.971,-260.579 800.306,-264.398"/>
<polygon fill="black" stroke="black" points="799.191,-267.723 809.772,-268.27 801.842,-261.245 799.191,-267.723"/>
</g>
<!-- 2415469344128&#45;&gt;2415469352032 -->
<g id="edge34" class="edge"><title>2415469344128&#45;&gt;2415469352032</title>
<path fill="none" stroke="black" d="M592.982,-131.335C601.415,-128.748 611.003,-125.806 620.111,-123.011"/>
<polygon fill="black" stroke="black" points="621.194,-126.34 629.727,-120.061 619.141,-119.648 621.194,-126.34"/>
</g>
<!-- 2415469346480&#45;&gt;2415469346048 -->
<g id="edge35" class="edge"><title>2415469346480&#45;&gt;2415469346048</title>
<path fill="none" stroke="black" d="M1131.12,-124.874C1140.24,-129.954 1150.93,-135.902 1160.96,-141.489"/>
<polygon fill="black" stroke="black" points="1159.49,-144.676 1169.93,-146.483 1162.89,-138.56 1159.49,-144.676"/>
</g>
<!-- 2415469352416&#45;&gt;2415469353328 -->
<g id="edge36" class="edge"><title>2415469352416&#45;&gt;2415469353328</title>
<path fill="none" stroke="black" d="M1313.93,-188.241C1322.09,-189.261 1331.26,-190.407 1339.99,-191.499"/>
<polygon fill="black" stroke="black" points="1339.6,-194.977 1349.95,-192.744 1340.47,-188.031 1339.6,-194.977"/>
</g>
</g>
</svg>
