<?xml version="1.0" encoding="UTF-8" standalone="no"?>
<!DOCTYPE svg PUBLIC "-//W3C//DTD SVG 1.1//EN"
 "http://www.w3.org/Graphics/SVG/1.1/DTD/svg11.dtd">
<!-- Generated by graphviz version 2.38.0 (20140413.2041)
 -->
<!-- Title: imported_1624915736.443104 Pages: 1 -->
<svg width="1862pt" height="228pt"
 viewBox="0.00 0.00 1862.00 228.00" xmlns="http://www.w3.org/2000/svg" xmlns:xlink="http://www.w3.org/1999/xlink">
<g id="graph0" class="graph" transform="scale(1 1) rotate(0) translate(4 224)">
<title>imported_1624915736.443104</title>
<!-- 2445068909632 -->
<g id="node1" class="node"><title>2445068909632</title>
<polygon fill="black" stroke="black" points="1404,-141 1350,-141 1350,-105 1404,-105 1404,-141"/>
</g>
<!-- 2445067877728 -->
<g id="node24" class="node"><title>2445067877728</title>
<ellipse fill="none" stroke="black" cx="1467" cy="-123" rx="27" ry="27"/>
</g>
<!-- 2445068909632&#45;&gt;2445067877728 -->
<g id="edge30" class="edge"><title>2445068909632&#45;&gt;2445067877728</title>
<path fill="none" stroke="black" d="M1404.4,-123C1412.39,-123 1421.31,-123 1429.82,-123"/>
<polygon fill="black" stroke="black" points="1429.92,-126.5 1439.92,-123 1429.92,-119.5 1429.92,-126.5"/>
</g>
<!-- 2445068909440 -->
<g id="node2" class="node"><title>2445068909440</title>
<polygon fill="none" stroke="black" points="504,-90 450,-90 450,-54 504,-54 504,-90"/>
<text text-anchor="middle" x="477" y="-68.9" font-family="Times New Roman,serif" font-size="12.00">A</text>
</g>
<!-- 2445067874608 -->
<g id="node19" class="node"><title>2445067874608</title>
<ellipse fill="none" stroke="black" cx="567" cy="-99" rx="27" ry="27"/>
</g>
<!-- 2445068909440&#45;&gt;2445067874608 -->
<g id="edge2" class="edge"><title>2445068909440&#45;&gt;2445067874608</title>
<path fill="none" stroke="black" d="M504.403,-80.1009C512.79,-82.6741 522.197,-85.5606 531.088,-88.2883"/>
<polygon fill="black" stroke="black" points="530.236,-91.6881 540.823,-91.2753 532.29,-84.996 530.236,-91.6881"/>
</g>
<!-- 2445065091200 -->
<g id="node27" class="node"><title>2445065091200</title>
<ellipse fill="none" stroke="black" cx="567" cy="-27" rx="27" ry="27"/>
</g>
<!-- 2445068909440&#45;&gt;2445065091200 -->
<g id="edge3" class="edge"><title>2445068909440&#45;&gt;2445065091200</title>
<path fill="none" stroke="black" d="M504.403,-58.4985C513.611,-53.79 524.049,-48.452 533.683,-43.5259"/>
<polygon fill="black" stroke="black" points="535.295,-46.6323 542.605,-38.9632 532.108,-40.3999 535.295,-46.6323"/>
</g>
<!-- 2445068909344 -->
<g id="node3" class="node"><title>2445068909344</title>
<polygon fill="none" stroke="black" points="864,-141 810,-141 810,-105 864,-105 864,-141"/>
<text text-anchor="middle" x="837" y="-119.9" font-family="Times New Roman,serif" font-size="12.00">C</text>
</g>
<!-- 2445067876960 -->
<g id="node23" class="node"><title>2445067876960</title>
<ellipse fill="none" stroke="black" cx="927" cy="-123" rx="27" ry="27"/>
</g>
<!-- 2445068909344&#45;&gt;2445067876960 -->
<g id="edge4" class="edge"><title>2445068909344&#45;&gt;2445067876960</title>
<path fill="none" stroke="black" d="M864.403,-123C872.393,-123 881.311,-123 889.824,-123"/>
<polygon fill="black" stroke="black" points="889.919,-126.5 899.919,-123 889.919,-119.5 889.919,-126.5"/>
</g>
<!-- 2445065091584 -->
<g id="node4" class="node"><title>2445065091584</title>
<polygon fill="black" stroke="black" points="684,-54 630,-54 630,-18 684,-18 684,-54"/>
</g>
<!-- 2445065091344 -->
<g id="node29" class="node"><title>2445065091344</title>
<ellipse fill="none" stroke="black" cx="747" cy="-51" rx="27" ry="27"/>
</g>
<!-- 2445065091584&#45;&gt;2445065091344 -->
<g id="edge32" class="edge"><title>2445065091584&#45;&gt;2445065091344</title>
<path fill="none" stroke="black" d="M684.403,-40.5005C692.554,-41.8899 701.669,-43.4436 710.337,-44.9211"/>
<polygon fill="black" stroke="black" points="709.775,-48.3758 720.221,-46.6059 710.952,-41.4753 709.775,-48.3758"/>
</g>
<!-- 2445068757648 -->
<g id="node5" class="node"><title>2445068757648</title>
<polygon fill="black" stroke="black" points="684,-220 630,-220 630,-184 684,-184 684,-220"/>
</g>
<!-- 2445065092352 -->
<g id="node30" class="node"><title>2445065092352</title>
<ellipse fill="none" stroke="black" cx="837" cy="-190" rx="27" ry="27"/>
</g>
<!-- 2445068757648&#45;&gt;2445065092352 -->
<g id="edge34" class="edge"><title>2445068757648&#45;&gt;2445065092352</title>
<path fill="none" stroke="black" d="M684.265,-200.229C714.851,-198.167 765.551,-194.749 799.843,-192.438"/>
<polygon fill="black" stroke="black" points="800.176,-195.923 809.918,-191.758 799.705,-188.939 800.176,-195.923"/>
</g>
<!-- 2445067878160 -->
<g id="node6" class="node"><title>2445067878160</title>
<polygon fill="none" stroke="black" points="504,-144 450,-144 450,-108 504,-108 504,-144"/>
<text text-anchor="middle" x="477" y="-122.9" font-family="Times New Roman,serif" font-size="12.00">B</text>
</g>
<!-- 2445067878160&#45;&gt;2445067874608 -->
<g id="edge5" class="edge"><title>2445067878160&#45;&gt;2445067874608</title>
<path fill="none" stroke="black" d="M504.403,-117.899C512.79,-115.326 522.197,-112.439 531.088,-109.712"/>
<polygon fill="black" stroke="black" points="532.29,-113.004 540.823,-106.725 530.236,-106.312 532.29,-113.004"/>
</g>
<!-- 2445068757984 -->
<g id="node28" class="node"><title>2445068757984</title>
<ellipse fill="none" stroke="black" cx="567" cy="-171" rx="27" ry="27"/>
</g>
<!-- 2445067878160&#45;&gt;2445068757984 -->
<g id="edge6" class="edge"><title>2445067878160&#45;&gt;2445068757984</title>
<path fill="none" stroke="black" d="M504.403,-139.501C513.611,-144.21 524.049,-149.548 533.683,-154.474"/>
<polygon fill="black" stroke="black" points="532.108,-157.6 542.605,-159.037 535.295,-151.368 532.108,-157.6"/>
</g>
<!-- 2444251253680 -->
<g id="node7" class="node"><title>2444251253680</title>
<polygon fill="none" stroke="black" points="1224,-168 1170,-168 1170,-132 1224,-132 1224,-168"/>
<text text-anchor="middle" x="1197" y="-146.9" font-family="Times New Roman,serif" font-size="12.00">E</text>
</g>
<!-- 2445067878256 -->
<g id="node20" class="node"><title>2445067878256</title>
<ellipse fill="none" stroke="black" cx="1287" cy="-123" rx="27" ry="27"/>
</g>
<!-- 2444251253680&#45;&gt;2445067878256 -->
<g id="edge1" class="edge"><title>2444251253680&#45;&gt;2445067878256</title>
<path fill="none" stroke="black" d="M1224.4,-141.899C1232.79,-139.326 1242.2,-136.439 1251.09,-133.712"/>
<polygon fill="black" stroke="black" points="1252.29,-137.004 1260.82,-130.725 1250.24,-130.312 1252.29,-137.004"/>
</g>
<!-- 2445068909200 -->
<g id="node8" class="node"><title>2445068909200</title>
<polygon fill="none" stroke="black" points="1584,-141 1530,-141 1530,-105 1584,-105 1584,-141"/>
<text text-anchor="middle" x="1557" y="-119.9" font-family="Times New Roman,serif" font-size="12.00">F</text>
</g>
<!-- 2445067876000 -->
<g id="node25" class="node"><title>2445067876000</title>
<ellipse fill="none" stroke="black" cx="1647" cy="-123" rx="27" ry="27"/>
</g>
<!-- 2445068909200&#45;&gt;2445067876000 -->
<g id="edge7" class="edge"><title>2445068909200&#45;&gt;2445067876000</title>
<path fill="none" stroke="black" d="M1584.4,-123C1592.39,-123 1601.31,-123 1609.82,-123"/>
<polygon fill="black" stroke="black" points="1609.92,-126.5 1619.92,-123 1609.92,-119.5 1609.92,-126.5"/>
</g>
<!-- 2445067876528 -->
<g id="node9" class="node"><title>2445067876528</title>
<polygon fill="black" stroke="black" points="324,-117 270,-117 270,-81 324,-81 324,-117"/>
</g>
<!-- 2445067875520 -->
<g id="node16" class="node"><title>2445067875520</title>
<ellipse fill="none" stroke="black" cx="387" cy="-99" rx="27" ry="27"/>
</g>
<!-- 2445067876528&#45;&gt;2445067875520 -->
<g id="edge28" class="edge"><title>2445067876528&#45;&gt;2445067875520</title>
<path fill="none" stroke="black" d="M324.403,-99C332.393,-99 341.311,-99 349.824,-99"/>
<polygon fill="black" stroke="black" points="349.919,-102.5 359.919,-99 349.919,-95.5001 349.919,-102.5"/>
</g>
<!-- 2445068909584 -->
<g id="node10" class="node"><title>2445068909584</title>
<polygon fill="black" stroke="black" points="144,-117 90,-117 90,-81 144,-81 144,-117"/>
</g>
<!-- 2445067877680 -->
<g id="node21" class="node"><title>2445067877680</title>
<ellipse fill="none" stroke="black" cx="207" cy="-99" rx="27" ry="27"/>
</g>
<!-- 2445068909584&#45;&gt;2445067877680 -->
<g id="edge26" class="edge"><title>2445068909584&#45;&gt;2445067877680</title>
<path fill="none" stroke="black" d="M144.403,-99C152.393,-99 161.311,-99 169.824,-99"/>
<polygon fill="black" stroke="black" points="169.919,-102.5 179.919,-99 169.919,-95.5001 169.919,-102.5"/>
</g>
<!-- 2445068908912 -->
<g id="node11" class="node"><title>2445068908912</title>
<polygon fill="black" stroke="black" points="684,-112 630,-112 630,-76 684,-76 684,-112"/>
</g>
<!-- 2445067874512 -->
<g id="node22" class="node"><title>2445067874512</title>
<ellipse fill="none" stroke="black" cx="747" cy="-123" rx="27" ry="27"/>
</g>
<!-- 2445068908912&#45;&gt;2445067874512 -->
<g id="edge31" class="edge"><title>2445068908912&#45;&gt;2445067874512</title>
<path fill="none" stroke="black" d="M684.403,-102.701C692.954,-105.519 702.567,-108.687 711.61,-111.667"/>
<polygon fill="black" stroke="black" points="710.53,-114.996 721.123,-114.802 712.721,-108.348 710.53,-114.996"/>
</g>
<!-- 2445068909104 -->
<g id="node12" class="node"><title>2445068909104</title>
<polygon fill="none" stroke="black" points="1224,-114 1170,-114 1170,-78 1224,-78 1224,-114"/>
<text text-anchor="middle" x="1197" y="-92.9" font-family="Times New Roman,serif" font-size="12.00">D</text>
</g>
<!-- 2445068909104&#45;&gt;2445067878256 -->
<g id="edge8" class="edge"><title>2445068909104&#45;&gt;2445067878256</title>
<path fill="none" stroke="black" d="M1224.4,-104.101C1232.79,-106.674 1242.2,-109.561 1251.09,-112.288"/>
<polygon fill="black" stroke="black" points="1250.24,-115.688 1260.82,-115.275 1252.29,-108.996 1250.24,-115.688"/>
</g>
<!-- 2445068909392 -->
<g id="node13" class="node"><title>2445068909392</title>
<polygon fill="black" stroke="black" points="1044,-141 990,-141 990,-105 1044,-105 1044,-141"/>
</g>
<!-- 2445067877968 -->
<g id="node17" class="node"><title>2445067877968</title>
<ellipse fill="none" stroke="black" cx="1107" cy="-123" rx="27" ry="27"/>
</g>
<!-- 2445068909392&#45;&gt;2445067877968 -->
<g id="edge29" class="edge"><title>2445068909392&#45;&gt;2445067877968</title>
<path fill="none" stroke="black" d="M1044.4,-123C1052.39,-123 1061.31,-123 1069.82,-123"/>
<polygon fill="black" stroke="black" points="1069.92,-126.5 1079.92,-123 1069.92,-119.5 1069.92,-126.5"/>
</g>
<!-- 2445069029136 -->
<g id="node14" class="node"><title>2445069029136</title>
<polygon fill="black" stroke="black" points="1764,-141 1710,-141 1710,-105 1764,-105 1764,-141"/>
</g>
<!-- 2445067875088 -->
<g id="node18" class="node"><title>2445067875088</title>
<ellipse fill="none" stroke="black" cx="1827" cy="-123" rx="27" ry="27"/>
</g>
<!-- 2445069029136&#45;&gt;2445067875088 -->
<g id="edge27" class="edge"><title>2445069029136&#45;&gt;2445067875088</title>
<path fill="none" stroke="black" d="M1764.4,-123C1772.39,-123 1781.31,-123 1789.82,-123"/>
<polygon fill="black" stroke="black" points="1789.92,-126.5 1799.92,-123 1789.92,-119.5 1789.92,-126.5"/>
</g>
<!-- 2445068758032 -->
<g id="node15" class="node"><title>2445068758032</title>
<polygon fill="black" stroke="black" points="684,-166 630,-166 630,-130 684,-130 684,-166"/>
</g>
<!-- 2445068758032&#45;&gt;2445065091344 -->
<g id="edge33" class="edge"><title>2445068758032&#45;&gt;2445065091344</title>
<path fill="none" stroke="black" d="M675.726,-129.798C678.515,-126.875 681.351,-123.868 684,-121 696.679,-107.272 710.491,-91.7369 721.854,-78.7952"/>
<polygon fill="black" stroke="black" points="724.627,-80.9413 728.58,-71.1117 719.36,-76.3305 724.627,-80.9413"/>
</g>
<!-- 2445067875520&#45;&gt;2445068909440 -->
<g id="edge9" class="edge"><title>2445067875520&#45;&gt;2445068909440</title>
<path fill="none" stroke="black" d="M412.982,-91.3351C421.415,-88.7476 431.003,-85.8059 440.111,-83.0115"/>
<polygon fill="black" stroke="black" points="441.194,-86.3402 449.727,-80.0609 439.141,-79.6481 441.194,-86.3402"/>
</g>
<!-- 2445067875520&#45;&gt;2445067878160 -->
<g id="edge10" class="edge"><title>2445067875520&#45;&gt;2445067878160</title>
<path fill="none" stroke="black" d="M412.982,-106.665C421.415,-109.252 431.003,-112.194 440.111,-114.989"/>
<polygon fill="black" stroke="black" points="439.141,-118.352 449.727,-117.939 441.194,-111.66 439.141,-118.352"/>
</g>
<!-- 2445067877968&#45;&gt;2444251253680 -->
<g id="edge11" class="edge"><title>2445067877968&#45;&gt;2444251253680</title>
<path fill="none" stroke="black" d="M1132.98,-130.665C1141.42,-133.252 1151,-136.194 1160.11,-138.989"/>
<polygon fill="black" stroke="black" points="1159.14,-142.352 1169.73,-141.939 1161.19,-135.66 1159.14,-142.352"/>
</g>
<!-- 2445067877968&#45;&gt;2445068909104 -->
<g id="edge12" class="edge"><title>2445067877968&#45;&gt;2445068909104</title>
<path fill="none" stroke="black" d="M1132.98,-115.335C1141.42,-112.748 1151,-109.806 1160.11,-107.011"/>
<polygon fill="black" stroke="black" points="1161.19,-110.34 1169.73,-104.061 1159.14,-103.648 1161.19,-110.34"/>
</g>
<!-- 2445067874608&#45;&gt;2445068908912 -->
<g id="edge13" class="edge"><title>2445067874608&#45;&gt;2445068908912</title>
<path fill="none" stroke="black" d="M594.403,-97.4998C602.393,-97.0458 611.311,-96.5392 619.824,-96.0555"/>
<polygon fill="black" stroke="black" points="620.134,-99.5436 629.919,-95.4819 619.737,-92.5549 620.134,-99.5436"/>
</g>
<!-- 2445067878256&#45;&gt;2445068909632 -->
<g id="edge14" class="edge"><title>2445067878256&#45;&gt;2445068909632</title>
<path fill="none" stroke="black" d="M1314.4,-123C1322.39,-123 1331.31,-123 1339.82,-123"/>
<polygon fill="black" stroke="black" points="1339.92,-126.5 1349.92,-123 1339.92,-119.5 1339.92,-126.5"/>
</g>
<!-- 2445067877680&#45;&gt;2445067876528 -->
<g id="edge15" class="edge"><title>2445067877680&#45;&gt;2445067876528</title>
<path fill="none" stroke="black" d="M234.403,-99C242.393,-99 251.311,-99 259.824,-99"/>
<polygon fill="black" stroke="black" points="259.919,-102.5 269.919,-99 259.919,-95.5001 259.919,-102.5"/>
</g>
<!-- 2445067874512&#45;&gt;2445068909344 -->
<g id="edge16" class="edge"><title>2445067874512&#45;&gt;2445068909344</title>
<path fill="none" stroke="black" d="M774.403,-123C782.393,-123 791.311,-123 799.824,-123"/>
<polygon fill="black" stroke="black" points="799.919,-126.5 809.919,-123 799.919,-119.5 799.919,-126.5"/>
</g>
<!-- 2445067876960&#45;&gt;2445068909392 -->
<g id="edge17" class="edge"><title>2445067876960&#45;&gt;2445068909392</title>
<path fill="none" stroke="black" d="M954.403,-123C962.393,-123 971.311,-123 979.824,-123"/>
<polygon fill="black" stroke="black" points="979.919,-126.5 989.919,-123 979.919,-119.5 979.919,-126.5"/>
</g>
<!-- 2445067877728&#45;&gt;2445068909200 -->
<g id="edge18" class="edge"><title>2445067877728&#45;&gt;2445068909200</title>
<path fill="none" stroke="black" d="M1494.4,-123C1502.39,-123 1511.31,-123 1519.82,-123"/>
<polygon fill="black" stroke="black" points="1519.92,-126.5 1529.92,-123 1519.92,-119.5 1519.92,-126.5"/>
</g>
<!-- 2445067876000&#45;&gt;2445069029136 -->
<g id="edge19" class="edge"><title>2445067876000&#45;&gt;2445069029136</title>
<path fill="none" stroke="black" d="M1674.4,-123C1682.39,-123 1691.31,-123 1699.82,-123"/>
<polygon fill="black" stroke="black" points="1699.92,-126.5 1709.92,-123 1699.92,-119.5 1699.92,-126.5"/>
</g>
<!-- 2445067878304 -->
<g id="node26" class="node"><title>2445067878304</title>
<ellipse fill="none" stroke="black" cx="27" cy="-99" rx="27" ry="27"/>
</g>
<!-- 2445067878304&#45;&gt;2445068909584 -->
<g id="edge20" class="edge"><title>2445067878304&#45;&gt;2445068909584</title>
<path fill="none" stroke="black" d="M54.4029,-99C62.3932,-99 71.3106,-99 79.8241,-99"/>
<polygon fill="black" stroke="black" points="79.919,-102.5 89.919,-99 79.919,-95.5001 79.919,-102.5"/>
</g>
<!-- 2445065091200&#45;&gt;2445065091584 -->
<g id="edge21" class="edge"><title>2445065091200&#45;&gt;2445065091584</title>
<path fill="none" stroke="black" d="M593.927,-29.6516C602.089,-30.4864 611.256,-31.4239 619.989,-32.317"/>
<polygon fill="black" stroke="black" points="619.65,-35.8006 629.954,-33.3362 620.362,-28.8369 619.65,-35.8006"/>
</g>
<!-- 2445068757984&#45;&gt;2445068757648 -->
<g id="edge23" class="edge"><title>2445068757984&#45;&gt;2445068757648</title>
<path fill="none" stroke="black" d="M592.982,-179.8C601.415,-182.771 611.003,-186.149 620.111,-189.357"/>
<polygon fill="black" stroke="black" points="619.133,-192.723 629.727,-192.745 621.459,-186.121 619.133,-192.723"/>
</g>
<!-- 2445068757984&#45;&gt;2445068758032 -->
<g id="edge22" class="edge"><title>2445068757984&#45;&gt;2445068758032</title>
<path fill="none" stroke="black" d="M593.453,-164.347C601.788,-162.169 611.21,-159.706 620.165,-157.366"/>
<polygon fill="black" stroke="black" points="621.203,-160.712 629.993,-154.797 619.433,-153.94 621.203,-160.712"/>
</g>
<!-- 2445065091344&#45;&gt;2445068909104 -->
<g id="edge24" class="edge"><title>2445065091344&#45;&gt;2445068909104</title>
<path fill="none" stroke="black" d="M773.92,-53.1329C808.554,-55.7943 871.851,-60 926,-60 926,-60 926,-60 1018,-60 1067.93,-60 1124.2,-73.7769 1159.86,-84.2854"/>
<polygon fill="black" stroke="black" points="1159.21,-87.7443 1169.8,-87.2854 1161.24,-81.0433 1159.21,-87.7443"/>
</g>
<!-- 2445065092352&#45;&gt;2444251253680 -->
<g id="edge25" class="edge"><title>2445065092352&#45;&gt;2444251253680</title>
<path fill="none" stroke="black" d="M864.173,-187.612C915.834,-182.82 1034.53,-171.423 1134,-159 1142.36,-157.955 1151.34,-156.719 1159.8,-155.502"/>
<polygon fill="black" stroke="black" points="1160.4,-158.952 1169.79,-154.041 1159.38,-152.026 1160.4,-158.952"/>
</g>
</g>
</svg>
