<?xml version="1.0" encoding="UTF-8" standalone="no"?>
<!DOCTYPE svg PUBLIC "-//W3C//DTD SVG 1.1//EN"
 "http://www.w3.org/Graphics/SVG/1.1/DTD/svg11.dtd">
<!-- Generated by graphviz version 2.38.0 (20140413.2041)
 -->
<!-- Title: &#45;&gt;( X( &#39;A&#39;, &#39;B&#39; ), &#39;C&#39;, X( &#39;E&#39;, &#39;D&#39; ) ) Pages: 1 -->
<svg width="1682pt" height="125pt"
 viewBox="0.00 0.00 1682.00 125.00" xmlns="http://www.w3.org/2000/svg" xmlns:xlink="http://www.w3.org/1999/xlink">
<g id="graph0" class="graph" transform="scale(1 1) rotate(0) translate(4 121)">
<title>&#45;&gt;( X( &#39;A&#39;, &#39;B&#39; ), &#39;C&#39;, X( &#39;E&#39;, &#39;D&#39; ) )</title>
<!-- 2380853853440 -->
<g id="node1" class="node"><title>2380853853440</title>
<polygon fill="none" stroke="black" points="504,-52 450,-52 450,-16 504,-16 504,-52"/>
<text text-anchor="middle" x="477" y="-30.9" font-family="Times New Roman,serif" font-size="12.00">B</text>
</g>
<!-- 2380851880096 -->
<g id="node17" class="node"><title>2380851880096</title>
<ellipse fill="none" stroke="black" cx="567" cy="-88" rx="27" ry="27"/>
</g>
<!-- 2380853853440&#45;&gt;2380851880096 -->
<g id="edge1" class="edge"><title>2380853853440&#45;&gt;2380851880096</title>
<path fill="none" stroke="black" d="M504.403,-50.2018C513.938,-56.053 524.793,-62.7142 534.707,-68.7977"/>
<polygon fill="black" stroke="black" points="533.129,-71.9353 543.482,-74.1824 536.79,-65.969 533.129,-71.9353"/>
</g>
<!-- 2380854052560 -->
<g id="node22" class="node"><title>2380854052560</title>
<ellipse fill="none" stroke="black" cx="657" cy="-27" rx="27" ry="27"/>
</g>
<!-- 2380853853440&#45;&gt;2380854052560 -->
<g id="edge2" class="edge"><title>2380853853440&#45;&gt;2380854052560</title>
<path fill="none" stroke="black" d="M504.265,-32.9671C534.851,-31.7643 585.551,-29.7705 619.843,-28.4219"/>
<polygon fill="black" stroke="black" points="620.063,-31.9161 629.918,-28.0257 619.788,-24.9215 620.063,-31.9161"/>
</g>
<!-- 2380851375936 -->
<g id="node2" class="node"><title>2380851375936</title>
<polygon fill="black" stroke="black" points="684,-108 630,-108 630,-72 684,-72 684,-108"/>
</g>
<!-- 2380854051504 -->
<g id="node19" class="node"><title>2380854051504</title>
<ellipse fill="none" stroke="black" cx="747" cy="-90" rx="27" ry="27"/>
</g>
<!-- 2380851375936&#45;&gt;2380854051504 -->
<g id="edge23" class="edge"><title>2380851375936&#45;&gt;2380854051504</title>
<path fill="none" stroke="black" d="M684.403,-90C692.393,-90 701.311,-90 709.824,-90"/>
<polygon fill="black" stroke="black" points="709.919,-93.5001 719.919,-90 709.919,-86.5001 709.919,-93.5001"/>
</g>
<!-- 2380850531200 -->
<g id="node3" class="node"><title>2380850531200</title>
<polygon fill="none" stroke="black" points="864,-108 810,-108 810,-72 864,-72 864,-108"/>
<text text-anchor="middle" x="837" y="-86.9" font-family="Times New Roman,serif" font-size="12.00">C</text>
</g>
<!-- 2380854053040 -->
<g id="node20" class="node"><title>2380854053040</title>
<ellipse fill="none" stroke="black" cx="927" cy="-89" rx="27" ry="27"/>
</g>
<!-- 2380850531200&#45;&gt;2380854053040 -->
<g id="edge6" class="edge"><title>2380850531200&#45;&gt;2380854053040</title>
<path fill="none" stroke="black" d="M864.403,-89.7C872.393,-89.6092 881.311,-89.5078 889.824,-89.4111"/>
<polygon fill="black" stroke="black" points="889.959,-92.9099 899.919,-89.2964 889.88,-85.9103 889.959,-92.9099"/>
</g>
<!-- 2380851374112 -->
<g id="node4" class="node"><title>2380851374112</title>
<polygon fill="none" stroke="black" points="1224,-50 1170,-50 1170,-14 1224,-14 1224,-50"/>
<text text-anchor="middle" x="1197" y="-28.9" font-family="Times New Roman,serif" font-size="12.00">E</text>
</g>
<!-- 2380854054432 -->
<g id="node16" class="node"><title>2380854054432</title>
<ellipse fill="none" stroke="black" cx="1287" cy="-59" rx="27" ry="27"/>
</g>
<!-- 2380851374112&#45;&gt;2380854054432 -->
<g id="edge4" class="edge"><title>2380851374112&#45;&gt;2380854054432</title>
<path fill="none" stroke="black" d="M1224.4,-40.1009C1232.79,-42.6741 1242.2,-45.5606 1251.09,-48.2883"/>
<polygon fill="black" stroke="black" points="1250.24,-51.6881 1260.82,-51.2753 1252.29,-44.996 1250.24,-51.6881"/>
</g>
<!-- 2380854054336 -->
<g id="node5" class="node"><title>2380854054336</title>
<polygon fill="black" stroke="black" points="1044,-105 990,-105 990,-69 1044,-69 1044,-105"/>
</g>
<!-- 2380854054528 -->
<g id="node15" class="node"><title>2380854054528</title>
<ellipse fill="none" stroke="black" cx="1107" cy="-86" rx="27" ry="27"/>
</g>
<!-- 2380854054336&#45;&gt;2380854054528 -->
<g id="edge21" class="edge"><title>2380854054336&#45;&gt;2380854054528</title>
<path fill="none" stroke="black" d="M1044.4,-86.7C1052.39,-86.6092 1061.31,-86.5078 1069.82,-86.4111"/>
<polygon fill="black" stroke="black" points="1069.96,-89.9099 1079.92,-86.2964 1069.88,-82.9103 1069.96,-89.9099"/>
</g>
<!-- 2380854053376 -->
<g id="node6" class="node"><title>2380854053376</title>
<polygon fill="black" stroke="black" points="1584,-77 1530,-77 1530,-41 1584,-41 1584,-77"/>
</g>
<!-- 2380854051120 -->
<g id="node24" class="node"><title>2380854051120</title>
<ellipse fill="orange" stroke="black" cx="1647" cy="-59" rx="27" ry="27"/>
</g>
<!-- 2380854053376&#45;&gt;2380854051120 -->
<g id="edge20" class="edge"><title>2380854053376&#45;&gt;2380854051120</title>
<path fill="none" stroke="black" d="M1584.4,-59C1592.39,-59 1601.31,-59 1609.82,-59"/>
<polygon fill="black" stroke="black" points="1609.92,-62.5001 1619.92,-59 1609.92,-55.5001 1609.92,-62.5001"/>
</g>
<!-- 2380854052704 -->
<g id="node7" class="node"><title>2380854052704</title>
<polygon fill="black" stroke="black" points="774,-45 720,-45 720,-9 774,-9 774,-45"/>
</g>
<!-- 2380854052416 -->
<g id="node23" class="node"><title>2380854052416</title>
<ellipse fill="none" stroke="black" cx="837" cy="-27" rx="27" ry="27"/>
</g>
<!-- 2380854052704&#45;&gt;2380854052416 -->
<g id="edge26" class="edge"><title>2380854052704&#45;&gt;2380854052416</title>
<path fill="none" stroke="black" d="M774.403,-27C782.393,-27 791.311,-27 799.824,-27"/>
<polygon fill="black" stroke="black" points="799.919,-30.5001 809.919,-27 799.919,-23.5001 799.919,-30.5001"/>
</g>
<!-- 2380850531440 -->
<g id="node8" class="node"><title>2380850531440</title>
<polygon fill="none" stroke="black" points="504,-106 450,-106 450,-70 504,-70 504,-106"/>
<text text-anchor="middle" x="477" y="-84.9" font-family="Times New Roman,serif" font-size="12.00">A</text>
</g>
<!-- 2380850531440&#45;&gt;2380851880096 -->
<g id="edge5" class="edge"><title>2380850531440&#45;&gt;2380851880096</title>
<path fill="none" stroke="black" d="M504.403,-88C512.393,-88 521.311,-88 529.824,-88"/>
<polygon fill="black" stroke="black" points="529.919,-91.5001 539.919,-88 529.919,-84.5001 529.919,-91.5001"/>
</g>
<!-- 2380851882256 -->
<g id="node9" class="node"><title>2380851882256</title>
<polygon fill="black" stroke="black" points="324,-79 270,-79 270,-43 324,-43 324,-79"/>
</g>
<!-- 2380852122384 -->
<g id="node14" class="node"><title>2380852122384</title>
<ellipse fill="none" stroke="black" cx="387" cy="-61" rx="27" ry="27"/>
</g>
<!-- 2380851882256&#45;&gt;2380852122384 -->
<g id="edge22" class="edge"><title>2380851882256&#45;&gt;2380852122384</title>
<path fill="none" stroke="black" d="M324.403,-61C332.393,-61 341.311,-61 349.824,-61"/>
<polygon fill="black" stroke="black" points="349.919,-64.5001 359.919,-61 349.919,-57.5001 349.919,-64.5001"/>
</g>
<!-- 2380854054480 -->
<g id="node10" class="node"><title>2380854054480</title>
<polygon fill="none" stroke="black" points="1224,-104 1170,-104 1170,-68 1224,-68 1224,-104"/>
<text text-anchor="middle" x="1197" y="-82.9" font-family="Times New Roman,serif" font-size="12.00">D</text>
</g>
<!-- 2380854054480&#45;&gt;2380854054432 -->
<g id="edge3" class="edge"><title>2380854054480&#45;&gt;2380854054432</title>
<path fill="none" stroke="black" d="M1224.4,-77.8991C1232.79,-75.3259 1242.2,-72.4394 1251.09,-69.7117"/>
<polygon fill="black" stroke="black" points="1252.29,-73.004 1260.82,-66.7247 1250.24,-66.3119 1252.29,-73.004"/>
</g>
<!-- 2380854053808 -->
<g id="node11" class="node"><title>2380854053808</title>
<polygon fill="black" stroke="black" points="1404,-77 1350,-77 1350,-41 1404,-41 1404,-77"/>
</g>
<!-- 2380854051408 -->
<g id="node21" class="node"><title>2380854051408</title>
<ellipse fill="none" stroke="black" cx="1467" cy="-59" rx="27" ry="27"/>
</g>
<!-- 2380854053808&#45;&gt;2380854051408 -->
<g id="edge24" class="edge"><title>2380854053808&#45;&gt;2380854051408</title>
<path fill="none" stroke="black" d="M1404.4,-59C1412.39,-59 1421.31,-59 1429.82,-59"/>
<polygon fill="black" stroke="black" points="1429.92,-62.5001 1439.92,-59 1429.92,-55.5001 1429.92,-62.5001"/>
</g>
<!-- 2380854051216 -->
<g id="node12" class="node"><title>2380854051216</title>
<polygon fill="black" stroke="black" points="144,-79 90,-79 90,-43 144,-43 144,-79"/>
</g>
<!-- 2380853870400 -->
<g id="node18" class="node"><title>2380853870400</title>
<ellipse fill="none" stroke="black" cx="207" cy="-61" rx="27" ry="27"/>
</g>
<!-- 2380854051216&#45;&gt;2380853870400 -->
<g id="edge25" class="edge"><title>2380854051216&#45;&gt;2380853870400</title>
<path fill="none" stroke="black" d="M144.403,-61C152.393,-61 161.311,-61 169.824,-61"/>
<polygon fill="black" stroke="black" points="169.919,-64.5001 179.919,-61 169.919,-57.5001 169.919,-64.5001"/>
</g>
<!-- 2380854053232 -->
<g id="node13" class="node"><title>2380854053232</title>
<ellipse fill="green" stroke="black" cx="27" cy="-61" rx="27" ry="27"/>
<text text-anchor="middle" x="27" y="-57.9" font-family="Times New Roman,serif" font-size="12.00">1</text>
</g>
<!-- 2380854053232&#45;&gt;2380854051216 -->
<g id="edge17" class="edge"><title>2380854053232&#45;&gt;2380854051216</title>
<path fill="none" stroke="black" d="M54.4029,-61C62.3932,-61 71.3106,-61 79.8241,-61"/>
<polygon fill="black" stroke="black" points="79.919,-64.5001 89.919,-61 79.919,-57.5001 79.919,-64.5001"/>
</g>
<!-- 2380852122384&#45;&gt;2380853853440 -->
<g id="edge7" class="edge"><title>2380852122384&#45;&gt;2380853853440</title>
<path fill="none" stroke="black" d="M412.982,-53.3351C421.415,-50.7476 431.003,-47.8059 440.111,-45.0115"/>
<polygon fill="black" stroke="black" points="441.194,-48.3402 449.727,-42.0609 439.141,-41.6481 441.194,-48.3402"/>
</g>
<!-- 2380852122384&#45;&gt;2380850531440 -->
<g id="edge8" class="edge"><title>2380852122384&#45;&gt;2380850531440</title>
<path fill="none" stroke="black" d="M412.982,-68.6649C421.415,-71.2524 431.003,-74.1941 440.111,-76.9885"/>
<polygon fill="black" stroke="black" points="439.141,-80.3519 449.727,-79.9391 441.194,-73.6598 439.141,-80.3519"/>
</g>
<!-- 2380854054528&#45;&gt;2380851374112 -->
<g id="edge10" class="edge"><title>2380854054528&#45;&gt;2380851374112</title>
<path fill="none" stroke="black" d="M1130.66,-72.0937C1139.96,-66.3896 1150.93,-59.6569 1161.2,-53.3538"/>
<polygon fill="black" stroke="black" points="1163.3,-56.1754 1169.99,-47.9621 1159.63,-50.2092 1163.3,-56.1754"/>
</g>
<!-- 2380854054528&#45;&gt;2380854054480 -->
<g id="edge9" class="edge"><title>2380854054528&#45;&gt;2380854054480</title>
<path fill="none" stroke="black" d="M1134.4,-86C1142.39,-86 1151.31,-86 1159.82,-86"/>
<polygon fill="black" stroke="black" points="1159.92,-89.5001 1169.92,-86 1159.92,-82.5001 1159.92,-89.5001"/>
</g>
<!-- 2380854054432&#45;&gt;2380854053808 -->
<g id="edge11" class="edge"><title>2380854054432&#45;&gt;2380854053808</title>
<path fill="none" stroke="black" d="M1314.4,-59C1322.39,-59 1331.31,-59 1339.82,-59"/>
<polygon fill="black" stroke="black" points="1339.92,-62.5001 1349.92,-59 1339.92,-55.5001 1339.92,-62.5001"/>
</g>
<!-- 2380851880096&#45;&gt;2380851375936 -->
<g id="edge12" class="edge"><title>2380851880096&#45;&gt;2380851375936</title>
<path fill="none" stroke="black" d="M594.403,-88.6001C602.393,-88.7817 611.311,-88.9843 619.824,-89.1778"/>
<polygon fill="black" stroke="black" points="619.842,-92.679 629.919,-89.4072 620.001,-85.6808 619.842,-92.679"/>
</g>
<!-- 2380853870400&#45;&gt;2380851882256 -->
<g id="edge13" class="edge"><title>2380853870400&#45;&gt;2380851882256</title>
<path fill="none" stroke="black" d="M234.403,-61C242.393,-61 251.311,-61 259.824,-61"/>
<polygon fill="black" stroke="black" points="259.919,-64.5001 269.919,-61 259.919,-57.5001 259.919,-64.5001"/>
</g>
<!-- 2380854051504&#45;&gt;2380850531200 -->
<g id="edge14" class="edge"><title>2380854051504&#45;&gt;2380850531200</title>
<path fill="none" stroke="black" d="M774.403,-90C782.393,-90 791.311,-90 799.824,-90"/>
<polygon fill="black" stroke="black" points="799.919,-93.5001 809.919,-90 799.919,-86.5001 799.919,-93.5001"/>
</g>
<!-- 2380854053040&#45;&gt;2380854054336 -->
<g id="edge15" class="edge"><title>2380854053040&#45;&gt;2380854054336</title>
<path fill="none" stroke="black" d="M954.403,-88.3999C962.393,-88.2183 971.311,-88.0157 979.824,-87.8222"/>
<polygon fill="black" stroke="black" points="980.001,-91.3192 989.919,-87.5928 979.842,-84.321 980.001,-91.3192"/>
</g>
<!-- 2380854051408&#45;&gt;2380854053376 -->
<g id="edge16" class="edge"><title>2380854051408&#45;&gt;2380854053376</title>
<path fill="none" stroke="black" d="M1494.4,-59C1502.39,-59 1511.31,-59 1519.82,-59"/>
<polygon fill="black" stroke="black" points="1519.92,-62.5001 1529.92,-59 1519.92,-55.5001 1519.92,-62.5001"/>
</g>
<!-- 2380854052560&#45;&gt;2380854052704 -->
<g id="edge18" class="edge"><title>2380854052560&#45;&gt;2380854052704</title>
<path fill="none" stroke="black" d="M684.403,-27C692.393,-27 701.311,-27 709.824,-27"/>
<polygon fill="black" stroke="black" points="709.919,-30.5001 719.919,-27 709.919,-23.5001 709.919,-30.5001"/>
</g>
<!-- 2380854052416&#45;&gt;2380851374112 -->
<g id="edge19" class="edge"><title>2380854052416&#45;&gt;2380851374112</title>
<path fill="none" stroke="black" d="M864.035,-27.3636C926.912,-28.2418 1087.19,-30.4803 1159.56,-31.4911"/>
<polygon fill="black" stroke="black" points="1159.53,-34.9909 1169.58,-31.631 1159.63,-27.9916 1159.53,-34.9909"/>
</g>
</g>
</svg>
