<?xml version="1.0" encoding="UTF-8" standalone="no"?>
<!DOCTYPE svg PUBLIC "-//W3C//DTD SVG 1.1//EN"
 "http://www.w3.org/Graphics/SVG/1.1/DTD/svg11.dtd">
<!-- Generated by graphviz version 2.38.0 (20140413.2041)
 -->
<!-- Title: &#45;&gt;( X( &#45;&gt;( &#39;A&#39;, +( &#39;C&#39;, &#39;E&#39; ) ), &#45;&gt;( &#39;B&#39;, +( &#39;F&#39;, &#39;D&#39; ) ) ), &#39;G&#39;, X( &#39;J&#39;, +( &#39;H&#39;, &#39;I&#39; ) ) ) Pages: 1 -->
<svg width="2942pt" height="278pt"
 viewBox="0.00 0.00 2942.00 278.00" xmlns="http://www.w3.org/2000/svg" xmlns:xlink="http://www.w3.org/1999/xlink">
<g id="graph0" class="graph" transform="scale(1 1) rotate(0) translate(4 274)">
<title>&#45;&gt;( X( &#45;&gt;( &#39;A&#39;, +( &#39;C&#39;, &#39;E&#39; ) ), &#45;&gt;( &#39;B&#39;, +( &#39;F&#39;, &#39;D&#39; ) ) ), &#39;G&#39;, X( &#39;J&#39;, +( &#39;H&#39;, &#39;I&#39; ) ) )</title>
<!-- 2042156083328 -->
<g id="node1" class="node"><title>2042156083328</title>
<polygon fill="none" stroke="black" points="684,-189 630,-189 630,-153 684,-153 684,-189"/>
<text text-anchor="middle" x="657" y="-167.9" font-family="Times New Roman,serif" font-size="12.00">A</text>
</g>
<!-- 2042156082128 -->
<g id="node49" class="node"><title>2042156082128</title>
<ellipse fill="none" stroke="black" cx="747" cy="-171" rx="27" ry="27"/>
</g>
<!-- 2042156083328&#45;&gt;2042156082128 -->
<g id="edge1" class="edge"><title>2042156083328&#45;&gt;2042156082128</title>
<path fill="none" stroke="black" d="M684.403,-171C692.393,-171 701.311,-171 709.824,-171"/>
<polygon fill="black" stroke="black" points="709.919,-174.5 719.919,-171 709.919,-167.5 709.919,-174.5"/>
</g>
<!-- 2042156081984 -->
<g id="node2" class="node"><title>2042156081984</title>
<polygon fill="none" stroke="black" points="1044,-261 990,-261 990,-225 1044,-225 1044,-261"/>
<text text-anchor="middle" x="1017" y="-239.9" font-family="Times New Roman,serif" font-size="12.00">C</text>
</g>
<!-- 2042155956640 -->
<g id="node33" class="node"><title>2042155956640</title>
<ellipse fill="none" stroke="black" cx="1107" cy="-243" rx="27" ry="27"/>
</g>
<!-- 2042156081984&#45;&gt;2042155956640 -->
<g id="edge3" class="edge"><title>2042156081984&#45;&gt;2042155956640</title>
<path fill="none" stroke="black" d="M1044.4,-243C1052.39,-243 1061.31,-243 1069.82,-243"/>
<polygon fill="black" stroke="black" points="1069.92,-246.5 1079.92,-243 1069.92,-239.5 1069.92,-246.5"/>
</g>
<!-- 2042155957504 -->
<g id="node3" class="node"><title>2042155957504</title>
<polygon fill="black" stroke="black" points="1224,-189 1170,-189 1170,-153 1224,-153 1224,-189"/>
</g>
<!-- 2042155958128 -->
<g id="node52" class="node"><title>2042155958128</title>
<ellipse fill="none" stroke="black" cx="1287" cy="-171" rx="27" ry="27"/>
</g>
<!-- 2042155957504&#45;&gt;2042155958128 -->
<g id="edge50" class="edge"><title>2042155957504&#45;&gt;2042155958128</title>
<path fill="none" stroke="black" d="M1224.4,-171C1232.39,-171 1241.31,-171 1249.82,-171"/>
<polygon fill="black" stroke="black" points="1249.92,-174.5 1259.92,-171 1249.92,-167.5 1249.92,-174.5"/>
</g>
<!-- 2042155957696 -->
<g id="node4" class="node"><title>2042155957696</title>
<polygon fill="black" stroke="black" points="864,-189 810,-189 810,-153 864,-153 864,-189"/>
</g>
<!-- 2042156081216 -->
<g id="node29" class="node"><title>2042156081216</title>
<ellipse fill="none" stroke="black" cx="927" cy="-243" rx="27" ry="27"/>
</g>
<!-- 2042155957696&#45;&gt;2042156081216 -->
<g id="edge44" class="edge"><title>2042155957696&#45;&gt;2042156081216</title>
<path fill="none" stroke="black" d="M860.206,-189.169C871.541,-198.443 885.458,-209.83 897.569,-219.738"/>
<polygon fill="black" stroke="black" points="895.655,-222.694 905.611,-226.318 900.087,-217.277 895.655,-222.694"/>
</g>
<!-- 2042155957168 -->
<g id="node40" class="node"><title>2042155957168</title>
<ellipse fill="none" stroke="black" cx="927" cy="-171" rx="27" ry="27"/>
</g>
<!-- 2042155957696&#45;&gt;2042155957168 -->
<g id="edge45" class="edge"><title>2042155957696&#45;&gt;2042155957168</title>
<path fill="none" stroke="black" d="M864.403,-171C872.393,-171 881.311,-171 889.824,-171"/>
<polygon fill="black" stroke="black" points="889.919,-174.5 899.919,-171 889.919,-167.5 889.919,-174.5"/>
</g>
<!-- 2042155955584 -->
<g id="node5" class="node"><title>2042155955584</title>
<polygon fill="black" stroke="black" points="504,-184 450,-184 450,-148 504,-148 504,-184"/>
</g>
<!-- 2042156081360 -->
<g id="node46" class="node"><title>2042156081360</title>
<ellipse fill="none" stroke="black" cx="567" cy="-171" rx="27" ry="27"/>
</g>
<!-- 2042155955584&#45;&gt;2042156081360 -->
<g id="edge53" class="edge"><title>2042155955584&#45;&gt;2042156081360</title>
<path fill="none" stroke="black" d="M504.403,-167.5C512.393,-167.954 521.311,-168.461 529.824,-168.945"/>
<polygon fill="black" stroke="black" points="529.737,-172.445 539.919,-169.518 530.134,-165.456 529.737,-172.445"/>
</g>
<!-- 2042154625728 -->
<g id="node6" class="node"><title>2042154625728</title>
<polygon fill="black" stroke="black" points="864,-117 810,-117 810,-81 864,-81 864,-117"/>
</g>
<!-- 2042154625536 -->
<g id="node28" class="node"><title>2042154625536</title>
<ellipse fill="none" stroke="black" cx="927" cy="-99" rx="27" ry="27"/>
</g>
<!-- 2042154625728&#45;&gt;2042154625536 -->
<g id="edge48" class="edge"><title>2042154625728&#45;&gt;2042154625536</title>
<path fill="none" stroke="black" d="M864.403,-99C872.393,-99 881.311,-99 889.824,-99"/>
<polygon fill="black" stroke="black" points="889.919,-102.5 899.919,-99 889.919,-95.5001 889.919,-102.5"/>
</g>
<!-- 2042154626736 -->
<g id="node41" class="node"><title>2042154626736</title>
<ellipse fill="none" stroke="black" cx="927" cy="-27" rx="27" ry="27"/>
</g>
<!-- 2042154625728&#45;&gt;2042154626736 -->
<g id="edge49" class="edge"><title>2042154625728&#45;&gt;2042154626736</title>
<path fill="none" stroke="black" d="M860.206,-80.8314C871.541,-71.557 885.458,-60.1704 897.569,-50.2618"/>
<polygon fill="black" stroke="black" points="900.087,-52.7235 905.611,-43.6822 895.655,-47.3058 900.087,-52.7235"/>
</g>
<!-- 2042154702400 -->
<g id="node7" class="node"><title>2042154702400</title>
<polygon fill="black" stroke="black" points="1404,-126 1350,-126 1350,-90 1404,-90 1404,-126"/>
</g>
<!-- 2042154626880 -->
<g id="node32" class="node"><title>2042154626880</title>
<ellipse fill="none" stroke="black" cx="1467" cy="-137" rx="27" ry="27"/>
</g>
<!-- 2042154702400&#45;&gt;2042154626880 -->
<g id="edge57" class="edge"><title>2042154702400&#45;&gt;2042154626880</title>
<path fill="none" stroke="black" d="M1404.4,-116.701C1412.95,-119.519 1422.57,-122.687 1431.61,-125.667"/>
<polygon fill="black" stroke="black" points="1430.53,-128.996 1441.12,-128.802 1432.72,-122.348 1430.53,-128.996"/>
</g>
<!-- 2042154700864 -->
<g id="node8" class="node"><title>2042154700864</title>
<polygon fill="black" stroke="black" points="1584,-155 1530,-155 1530,-119 1584,-119 1584,-155"/>
</g>
<!-- 2042156134560 -->
<g id="node37" class="node"><title>2042156134560</title>
<ellipse fill="none" stroke="black" cx="1647" cy="-137" rx="27" ry="27"/>
</g>
<!-- 2042154700864&#45;&gt;2042156134560 -->
<g id="edge41" class="edge"><title>2042154700864&#45;&gt;2042156134560</title>
<path fill="none" stroke="black" d="M1584.4,-137C1592.39,-137 1601.31,-137 1609.82,-137"/>
<polygon fill="black" stroke="black" points="1609.92,-140.5 1619.92,-137 1609.92,-133.5 1609.92,-140.5"/>
</g>
<!-- 2042156081408 -->
<g id="node9" class="node"><title>2042156081408</title>
<polygon fill="none" stroke="black" points="1764,-155 1710,-155 1710,-119 1764,-119 1764,-155"/>
<text text-anchor="middle" x="1737" y="-133.9" font-family="Times New Roman,serif" font-size="12.00">G</text>
</g>
<!-- 2042156134464 -->
<g id="node38" class="node"><title>2042156134464</title>
<ellipse fill="none" stroke="black" cx="1827" cy="-137" rx="27" ry="27"/>
</g>
<!-- 2042156081408&#45;&gt;2042156134464 -->
<g id="edge2" class="edge"><title>2042156081408&#45;&gt;2042156134464</title>
<path fill="none" stroke="black" d="M1764.4,-137C1772.39,-137 1781.31,-137 1789.82,-137"/>
<polygon fill="black" stroke="black" points="1789.92,-140.5 1799.92,-137 1789.92,-133.5 1789.92,-140.5"/>
</g>
<!-- 2042156137536 -->
<g id="node10" class="node"><title>2042156137536</title>
<polygon fill="black" stroke="black" points="144,-155 90,-155 90,-119 144,-119 144,-155"/>
</g>
<!-- 2042156081552 -->
<g id="node36" class="node"><title>2042156081552</title>
<ellipse fill="none" stroke="black" cx="207" cy="-137" rx="27" ry="27"/>
</g>
<!-- 2042156137536&#45;&gt;2042156081552 -->
<g id="edge42" class="edge"><title>2042156137536&#45;&gt;2042156081552</title>
<path fill="none" stroke="black" d="M144.403,-137C152.393,-137 161.311,-137 169.824,-137"/>
<polygon fill="black" stroke="black" points="169.919,-140.5 179.919,-137 169.919,-133.5 169.919,-140.5"/>
</g>
<!-- 2042154626832 -->
<g id="node11" class="node"><title>2042154626832</title>
<polygon fill="none" stroke="black" points="1044,-117 990,-117 990,-81 1044,-81 1044,-117"/>
<text text-anchor="middle" x="1017" y="-95.9" font-family="Times New Roman,serif" font-size="12.00">F</text>
</g>
<!-- 2042154626976 -->
<g id="node34" class="node"><title>2042154626976</title>
<ellipse fill="none" stroke="black" cx="1107" cy="-99" rx="27" ry="27"/>
</g>
<!-- 2042154626832&#45;&gt;2042154626976 -->
<g id="edge7" class="edge"><title>2042154626832&#45;&gt;2042154626976</title>
<path fill="none" stroke="black" d="M1044.4,-99C1052.39,-99 1061.31,-99 1069.82,-99"/>
<polygon fill="black" stroke="black" points="1069.92,-102.5 1079.92,-99 1069.92,-95.5001 1069.92,-102.5"/>
</g>
<!-- 2042154627024 -->
<g id="node12" class="node"><title>2042154627024</title>
<polygon fill="black" stroke="black" points="1224,-117 1170,-117 1170,-81 1224,-81 1224,-117"/>
</g>
<!-- 2042154626928 -->
<g id="node53" class="node"><title>2042154626928</title>
<ellipse fill="none" stroke="black" cx="1287" cy="-99" rx="27" ry="27"/>
</g>
<!-- 2042154627024&#45;&gt;2042154626928 -->
<g id="edge51" class="edge"><title>2042154627024&#45;&gt;2042154626928</title>
<path fill="none" stroke="black" d="M1224.4,-99C1232.39,-99 1241.31,-99 1249.82,-99"/>
<polygon fill="black" stroke="black" points="1249.92,-102.5 1259.92,-99 1249.92,-95.5001 1249.92,-102.5"/>
</g>
<!-- 2042156134800 -->
<g id="node13" class="node"><title>2042156134800</title>
<polygon fill="none" stroke="black" points="2304,-255 2250,-255 2250,-219 2304,-219 2304,-255"/>
<text text-anchor="middle" x="2277" y="-233.9" font-family="Times New Roman,serif" font-size="12.00">H</text>
</g>
<!-- 2042156135040 -->
<g id="node35" class="node"><title>2042156135040</title>
<ellipse fill="none" stroke="black" cx="2367" cy="-237" rx="27" ry="27"/>
</g>
<!-- 2042156134800&#45;&gt;2042156135040 -->
<g id="edge9" class="edge"><title>2042156134800&#45;&gt;2042156135040</title>
<path fill="none" stroke="black" d="M2304.4,-237C2312.39,-237 2321.31,-237 2329.82,-237"/>
<polygon fill="black" stroke="black" points="2329.92,-240.5 2339.92,-237 2329.92,-233.5 2329.92,-240.5"/>
</g>
<!-- 2042156135760 -->
<g id="node14" class="node"><title>2042156135760</title>
<polygon fill="black" stroke="black" points="2484,-183 2430,-183 2430,-147 2484,-147 2484,-183"/>
</g>
<!-- 2042156134896 -->
<g id="node51" class="node"><title>2042156134896</title>
<ellipse fill="none" stroke="black" cx="2547" cy="-138" rx="27" ry="27"/>
</g>
<!-- 2042156135760&#45;&gt;2042156134896 -->
<g id="edge52" class="edge"><title>2042156135760&#45;&gt;2042156134896</title>
<path fill="none" stroke="black" d="M2484.4,-156.899C2492.79,-154.326 2502.2,-151.439 2511.09,-148.712"/>
<polygon fill="black" stroke="black" points="2512.29,-152.004 2520.82,-145.725 2510.24,-145.312 2512.29,-152.004"/>
</g>
<!-- 2042156137680 -->
<g id="node15" class="node"><title>2042156137680</title>
<polygon fill="black" stroke="black" points="2844,-156 2790,-156 2790,-120 2844,-120 2844,-156"/>
</g>
<!-- 2042156137920 -->
<g id="node54" class="node"><title>2042156137920</title>
<ellipse fill="orange" stroke="black" cx="2907" cy="-138" rx="27" ry="27"/>
</g>
<!-- 2042156137680&#45;&gt;2042156137920 -->
<g id="edge43" class="edge"><title>2042156137680&#45;&gt;2042156137920</title>
<path fill="none" stroke="black" d="M2844.4,-138C2852.39,-138 2861.31,-138 2869.82,-138"/>
<polygon fill="black" stroke="black" points="2869.92,-141.5 2879.92,-138 2869.92,-134.5 2869.92,-141.5"/>
</g>
<!-- 2042154625248 -->
<g id="node16" class="node"><title>2042154625248</title>
<polygon fill="none" stroke="black" points="1044,-45 990,-45 990,-9 1044,-9 1044,-45"/>
<text text-anchor="middle" x="1017" y="-23.9" font-family="Times New Roman,serif" font-size="12.00">D</text>
</g>
<!-- 2042154626352 -->
<g id="node45" class="node"><title>2042154626352</title>
<ellipse fill="none" stroke="black" cx="1107" cy="-27" rx="27" ry="27"/>
</g>
<!-- 2042154625248&#45;&gt;2042154626352 -->
<g id="edge6" class="edge"><title>2042154625248&#45;&gt;2042154626352</title>
<path fill="none" stroke="black" d="M1044.4,-27C1052.39,-27 1061.31,-27 1069.82,-27"/>
<polygon fill="black" stroke="black" points="1069.92,-30.5001 1079.92,-27 1069.92,-23.5001 1069.92,-30.5001"/>
</g>
<!-- 2042154626784 -->
<g id="node17" class="node"><title>2042154626784</title>
<polygon fill="black" stroke="black" points="324,-155 270,-155 270,-119 324,-119 324,-155"/>
</g>
<!-- 2042156084864 -->
<g id="node31" class="node"><title>2042156084864</title>
<ellipse fill="none" stroke="black" cx="387" cy="-137" rx="27" ry="27"/>
</g>
<!-- 2042154626784&#45;&gt;2042156084864 -->
<g id="edge40" class="edge"><title>2042154626784&#45;&gt;2042156084864</title>
<path fill="none" stroke="black" d="M324.403,-137C332.393,-137 341.311,-137 349.824,-137"/>
<polygon fill="black" stroke="black" points="349.919,-140.5 359.919,-137 349.919,-133.5 349.919,-140.5"/>
</g>
<!-- 2042156134944 -->
<g id="node18" class="node"><title>2042156134944</title>
<polygon fill="none" stroke="black" points="2304,-183 2250,-183 2250,-147 2304,-147 2304,-183"/>
<text text-anchor="middle" x="2277" y="-161.9" font-family="Times New Roman,serif" font-size="12.00">I</text>
</g>
<!-- 2042156135424 -->
<g id="node44" class="node"><title>2042156135424</title>
<ellipse fill="none" stroke="black" cx="2367" cy="-165" rx="27" ry="27"/>
</g>
<!-- 2042156134944&#45;&gt;2042156135424 -->
<g id="edge8" class="edge"><title>2042156134944&#45;&gt;2042156135424</title>
<path fill="none" stroke="black" d="M2304.4,-165C2312.39,-165 2321.31,-165 2329.82,-165"/>
<polygon fill="black" stroke="black" points="2329.92,-168.5 2339.92,-165 2329.92,-161.5 2329.92,-168.5"/>
</g>
<!-- 2042156135712 -->
<g id="node19" class="node"><title>2042156135712</title>
<polygon fill="black" stroke="black" points="2124,-183 2070,-183 2070,-147 2124,-147 2124,-183"/>
</g>
<!-- 2042156134656 -->
<g id="node30" class="node"><title>2042156134656</title>
<ellipse fill="none" stroke="black" cx="2187" cy="-237" rx="27" ry="27"/>
</g>
<!-- 2042156135712&#45;&gt;2042156134656 -->
<g id="edge46" class="edge"><title>2042156135712&#45;&gt;2042156134656</title>
<path fill="none" stroke="black" d="M2120.21,-183.169C2131.54,-192.443 2145.46,-203.83 2157.57,-213.738"/>
<polygon fill="black" stroke="black" points="2155.65,-216.694 2165.61,-220.318 2160.09,-211.277 2155.65,-216.694"/>
</g>
<!-- 2042156135328 -->
<g id="node42" class="node"><title>2042156135328</title>
<ellipse fill="none" stroke="black" cx="2187" cy="-165" rx="27" ry="27"/>
</g>
<!-- 2042156135712&#45;&gt;2042156135328 -->
<g id="edge47" class="edge"><title>2042156135712&#45;&gt;2042156135328</title>
<path fill="none" stroke="black" d="M2124.4,-165C2132.39,-165 2141.31,-165 2149.82,-165"/>
<polygon fill="black" stroke="black" points="2149.92,-168.5 2159.92,-165 2149.92,-161.5 2149.92,-168.5"/>
</g>
<!-- 2042156134752 -->
<g id="node20" class="node"><title>2042156134752</title>
<polygon fill="black" stroke="black" points="1944,-155 1890,-155 1890,-119 1944,-119 1944,-155"/>
</g>
<!-- 2042155798288 -->
<g id="node47" class="node"><title>2042155798288</title>
<ellipse fill="none" stroke="black" cx="2007" cy="-137" rx="27" ry="27"/>
</g>
<!-- 2042156134752&#45;&gt;2042155798288 -->
<g id="edge55" class="edge"><title>2042156134752&#45;&gt;2042155798288</title>
<path fill="none" stroke="black" d="M1944.4,-137C1952.39,-137 1961.31,-137 1969.82,-137"/>
<polygon fill="black" stroke="black" points="1969.92,-140.5 1979.92,-137 1969.92,-133.5 1969.92,-140.5"/>
</g>
<!-- 2042156136672 -->
<g id="node21" class="node"><title>2042156136672</title>
<polygon fill="black" stroke="black" points="2664,-156 2610,-156 2610,-120 2664,-120 2664,-156"/>
</g>
<!-- 2042156136864 -->
<g id="node39" class="node"><title>2042156136864</title>
<ellipse fill="none" stroke="black" cx="2727" cy="-138" rx="27" ry="27"/>
</g>
<!-- 2042156136672&#45;&gt;2042156136864 -->
<g id="edge58" class="edge"><title>2042156136672&#45;&gt;2042156136864</title>
<path fill="none" stroke="black" d="M2664.4,-138C2672.39,-138 2681.31,-138 2689.82,-138"/>
<polygon fill="black" stroke="black" points="2689.92,-141.5 2699.92,-138 2689.92,-134.5 2689.92,-141.5"/>
</g>
<!-- 2042155957936 -->
<g id="node22" class="node"><title>2042155957936</title>
<polygon fill="none" stroke="black" points="1044,-189 990,-189 990,-153 1044,-153 1044,-189"/>
<text text-anchor="middle" x="1017" y="-167.9" font-family="Times New Roman,serif" font-size="12.00">E</text>
</g>
<!-- 2042155957312 -->
<g id="node43" class="node"><title>2042155957312</title>
<ellipse fill="none" stroke="black" cx="1107" cy="-171" rx="27" ry="27"/>
</g>
<!-- 2042155957936&#45;&gt;2042155957312 -->
<g id="edge4" class="edge"><title>2042155957936&#45;&gt;2042155957312</title>
<path fill="none" stroke="black" d="M1044.4,-171C1052.39,-171 1061.31,-171 1069.82,-171"/>
<polygon fill="black" stroke="black" points="1069.92,-174.5 1079.92,-171 1069.92,-167.5 1069.92,-174.5"/>
</g>
<!-- 2042155956016 -->
<g id="node23" class="node"><title>2042155956016</title>
<polygon fill="black" stroke="black" points="1404,-184 1350,-184 1350,-148 1404,-148 1404,-184"/>
</g>
<!-- 2042155956016&#45;&gt;2042154626880 -->
<g id="edge56" class="edge"><title>2042155956016&#45;&gt;2042154626880</title>
<path fill="none" stroke="black" d="M1404.4,-157.299C1412.95,-154.481 1422.57,-151.313 1431.61,-148.333"/>
<polygon fill="black" stroke="black" points="1432.72,-151.652 1441.12,-145.198 1430.53,-145.004 1432.72,-151.652"/>
</g>
<!-- 2042154625968 -->
<g id="node24" class="node"><title>2042154625968</title>
<polygon fill="none" stroke="black" points="684,-117 630,-117 630,-81 684,-81 684,-117"/>
<text text-anchor="middle" x="657" y="-95.9" font-family="Times New Roman,serif" font-size="12.00">B</text>
</g>
<!-- 2042154626592 -->
<g id="node50" class="node"><title>2042154626592</title>
<ellipse fill="none" stroke="black" cx="747" cy="-99" rx="27" ry="27"/>
</g>
<!-- 2042154625968&#45;&gt;2042154626592 -->
<g id="edge5" class="edge"><title>2042154625968&#45;&gt;2042154626592</title>
<path fill="none" stroke="black" d="M684.403,-99C692.393,-99 701.311,-99 709.824,-99"/>
<polygon fill="black" stroke="black" points="709.919,-102.5 719.919,-99 709.919,-95.5001 709.919,-102.5"/>
</g>
<!-- 2042154701872 -->
<g id="node25" class="node"><title>2042154701872</title>
<polygon fill="black" stroke="black" points="504,-126 450,-126 450,-90 504,-90 504,-126"/>
</g>
<!-- 2042156085008 -->
<g id="node48" class="node"><title>2042156085008</title>
<ellipse fill="none" stroke="black" cx="567" cy="-99" rx="27" ry="27"/>
</g>
<!-- 2042154701872&#45;&gt;2042156085008 -->
<g id="edge54" class="edge"><title>2042154701872&#45;&gt;2042156085008</title>
<path fill="none" stroke="black" d="M504.403,-105.3C512.393,-104.483 521.311,-103.571 529.824,-102.7"/>
<polygon fill="black" stroke="black" points="530.327,-106.167 539.919,-101.667 529.615,-99.203 530.327,-106.167"/>
</g>
<!-- 2042156134512 -->
<g id="node26" class="node"><title>2042156134512</title>
<polygon fill="none" stroke="black" points="2484,-129 2430,-129 2430,-93 2484,-93 2484,-129"/>
<text text-anchor="middle" x="2457" y="-107.9" font-family="Times New Roman,serif" font-size="12.00">J</text>
</g>
<!-- 2042156134512&#45;&gt;2042156134896 -->
<g id="edge10" class="edge"><title>2042156134512&#45;&gt;2042156134896</title>
<path fill="none" stroke="black" d="M2484.4,-119.101C2492.79,-121.674 2502.2,-124.561 2511.09,-127.288"/>
<polygon fill="black" stroke="black" points="2510.24,-130.688 2520.82,-130.275 2512.29,-123.996 2510.24,-130.688"/>
</g>
<!-- 2042156137824 -->
<g id="node27" class="node"><title>2042156137824</title>
<ellipse fill="green" stroke="black" cx="27" cy="-137" rx="27" ry="27"/>
<text text-anchor="middle" x="27" y="-133.9" font-family="Times New Roman,serif" font-size="12.00">1</text>
</g>
<!-- 2042156137824&#45;&gt;2042156137536 -->
<g id="edge24" class="edge"><title>2042156137824&#45;&gt;2042156137536</title>
<path fill="none" stroke="black" d="M54.4029,-137C62.3932,-137 71.3106,-137 79.8241,-137"/>
<polygon fill="black" stroke="black" points="79.919,-140.5 89.919,-137 79.919,-133.5 79.919,-140.5"/>
</g>
<!-- 2042154625536&#45;&gt;2042154626832 -->
<g id="edge11" class="edge"><title>2042154625536&#45;&gt;2042154626832</title>
<path fill="none" stroke="black" d="M954.403,-99C962.393,-99 971.311,-99 979.824,-99"/>
<polygon fill="black" stroke="black" points="979.919,-102.5 989.919,-99 979.919,-95.5001 979.919,-102.5"/>
</g>
<!-- 2042156081216&#45;&gt;2042156081984 -->
<g id="edge12" class="edge"><title>2042156081216&#45;&gt;2042156081984</title>
<path fill="none" stroke="black" d="M954.403,-243C962.393,-243 971.311,-243 979.824,-243"/>
<polygon fill="black" stroke="black" points="979.919,-246.5 989.919,-243 979.919,-239.5 979.919,-246.5"/>
</g>
<!-- 2042156134656&#45;&gt;2042156134800 -->
<g id="edge13" class="edge"><title>2042156134656&#45;&gt;2042156134800</title>
<path fill="none" stroke="black" d="M2214.4,-237C2222.39,-237 2231.31,-237 2239.82,-237"/>
<polygon fill="black" stroke="black" points="2239.92,-240.5 2249.92,-237 2239.92,-233.5 2239.92,-240.5"/>
</g>
<!-- 2042156084864&#45;&gt;2042155955584 -->
<g id="edge14" class="edge"><title>2042156084864&#45;&gt;2042155955584</title>
<path fill="none" stroke="black" d="M412.982,-145.233C421.415,-148.012 431.003,-151.171 440.111,-154.173"/>
<polygon fill="black" stroke="black" points="439.134,-157.536 449.727,-157.342 441.325,-150.888 439.134,-157.536"/>
</g>
<!-- 2042156084864&#45;&gt;2042154701872 -->
<g id="edge15" class="edge"><title>2042156084864&#45;&gt;2042154701872</title>
<path fill="none" stroke="black" d="M412.982,-128.767C421.415,-125.988 431.003,-122.829 440.111,-119.827"/>
<polygon fill="black" stroke="black" points="441.325,-123.112 449.727,-116.658 439.134,-116.464 441.325,-123.112"/>
</g>
<!-- 2042154626880&#45;&gt;2042154700864 -->
<g id="edge16" class="edge"><title>2042154626880&#45;&gt;2042154700864</title>
<path fill="none" stroke="black" d="M1494.4,-137C1502.39,-137 1511.31,-137 1519.82,-137"/>
<polygon fill="black" stroke="black" points="1519.92,-140.5 1529.92,-137 1519.92,-133.5 1519.92,-140.5"/>
</g>
<!-- 2042155956640&#45;&gt;2042155957504 -->
<g id="edge17" class="edge"><title>2042155956640&#45;&gt;2042155957504</title>
<path fill="none" stroke="black" d="M1128.41,-226.301C1139.57,-217.168 1153.61,-205.682 1166,-195.548"/>
<polygon fill="black" stroke="black" points="1168.33,-198.163 1173.85,-189.122 1163.89,-192.746 1168.33,-198.163"/>
</g>
<!-- 2042154626976&#45;&gt;2042154627024 -->
<g id="edge18" class="edge"><title>2042154626976&#45;&gt;2042154627024</title>
<path fill="none" stroke="black" d="M1134.4,-99C1142.39,-99 1151.31,-99 1159.82,-99"/>
<polygon fill="black" stroke="black" points="1159.92,-102.5 1169.92,-99 1159.92,-95.5001 1159.92,-102.5"/>
</g>
<!-- 2042156135040&#45;&gt;2042156135760 -->
<g id="edge19" class="edge"><title>2042156135040&#45;&gt;2042156135760</title>
<path fill="none" stroke="black" d="M2388.41,-220.301C2399.57,-211.168 2413.61,-199.682 2426,-189.548"/>
<polygon fill="black" stroke="black" points="2428.33,-192.163 2433.85,-183.122 2423.89,-186.746 2428.33,-192.163"/>
</g>
<!-- 2042156081552&#45;&gt;2042154626784 -->
<g id="edge20" class="edge"><title>2042156081552&#45;&gt;2042154626784</title>
<path fill="none" stroke="black" d="M234.403,-137C242.393,-137 251.311,-137 259.824,-137"/>
<polygon fill="black" stroke="black" points="259.919,-140.5 269.919,-137 259.919,-133.5 259.919,-140.5"/>
</g>
<!-- 2042156134560&#45;&gt;2042156081408 -->
<g id="edge21" class="edge"><title>2042156134560&#45;&gt;2042156081408</title>
<path fill="none" stroke="black" d="M1674.4,-137C1682.39,-137 1691.31,-137 1699.82,-137"/>
<polygon fill="black" stroke="black" points="1699.92,-140.5 1709.92,-137 1699.92,-133.5 1699.92,-140.5"/>
</g>
<!-- 2042156134464&#45;&gt;2042156134752 -->
<g id="edge22" class="edge"><title>2042156134464&#45;&gt;2042156134752</title>
<path fill="none" stroke="black" d="M1854.4,-137C1862.39,-137 1871.31,-137 1879.82,-137"/>
<polygon fill="black" stroke="black" points="1879.92,-140.5 1889.92,-137 1879.92,-133.5 1879.92,-140.5"/>
</g>
<!-- 2042156136864&#45;&gt;2042156137680 -->
<g id="edge23" class="edge"><title>2042156136864&#45;&gt;2042156137680</title>
<path fill="none" stroke="black" d="M2754.4,-138C2762.39,-138 2771.31,-138 2779.82,-138"/>
<polygon fill="black" stroke="black" points="2779.92,-141.5 2789.92,-138 2779.92,-134.5 2779.92,-141.5"/>
</g>
<!-- 2042155957168&#45;&gt;2042155957936 -->
<g id="edge25" class="edge"><title>2042155957168&#45;&gt;2042155957936</title>
<path fill="none" stroke="black" d="M954.403,-171C962.393,-171 971.311,-171 979.824,-171"/>
<polygon fill="black" stroke="black" points="979.919,-174.5 989.919,-171 979.919,-167.5 979.919,-174.5"/>
</g>
<!-- 2042154626736&#45;&gt;2042154625248 -->
<g id="edge26" class="edge"><title>2042154626736&#45;&gt;2042154625248</title>
<path fill="none" stroke="black" d="M954.403,-27C962.393,-27 971.311,-27 979.824,-27"/>
<polygon fill="black" stroke="black" points="979.919,-30.5001 989.919,-27 979.919,-23.5001 979.919,-30.5001"/>
</g>
<!-- 2042156135328&#45;&gt;2042156134944 -->
<g id="edge27" class="edge"><title>2042156135328&#45;&gt;2042156134944</title>
<path fill="none" stroke="black" d="M2214.4,-165C2222.39,-165 2231.31,-165 2239.82,-165"/>
<polygon fill="black" stroke="black" points="2239.92,-168.5 2249.92,-165 2239.92,-161.5 2239.92,-168.5"/>
</g>
<!-- 2042155957312&#45;&gt;2042155957504 -->
<g id="edge28" class="edge"><title>2042155957312&#45;&gt;2042155957504</title>
<path fill="none" stroke="black" d="M1134.4,-171C1142.39,-171 1151.31,-171 1159.82,-171"/>
<polygon fill="black" stroke="black" points="1159.92,-174.5 1169.92,-171 1159.92,-167.5 1159.92,-174.5"/>
</g>
<!-- 2042156135424&#45;&gt;2042156135760 -->
<g id="edge29" class="edge"><title>2042156135424&#45;&gt;2042156135760</title>
<path fill="none" stroke="black" d="M2394.4,-165C2402.39,-165 2411.31,-165 2419.82,-165"/>
<polygon fill="black" stroke="black" points="2419.92,-168.5 2429.92,-165 2419.92,-161.5 2419.92,-168.5"/>
</g>
<!-- 2042154626352&#45;&gt;2042154627024 -->
<g id="edge30" class="edge"><title>2042154626352&#45;&gt;2042154627024</title>
<path fill="none" stroke="black" d="M1128.41,-43.6992C1139.57,-52.832 1153.61,-64.3176 1166,-74.4517"/>
<polygon fill="black" stroke="black" points="1163.89,-77.2543 1173.85,-80.8778 1168.33,-71.8366 1163.89,-77.2543"/>
</g>
<!-- 2042156081360&#45;&gt;2042156083328 -->
<g id="edge31" class="edge"><title>2042156081360&#45;&gt;2042156083328</title>
<path fill="none" stroke="black" d="M594.403,-171C602.393,-171 611.311,-171 619.824,-171"/>
<polygon fill="black" stroke="black" points="619.919,-174.5 629.919,-171 619.919,-167.5 619.919,-174.5"/>
</g>
<!-- 2042155798288&#45;&gt;2042156135712 -->
<g id="edge33" class="edge"><title>2042155798288&#45;&gt;2042156135712</title>
<path fill="none" stroke="black" d="M2032.98,-144.949C2041.42,-147.632 2051,-150.683 2060.11,-153.581"/>
<polygon fill="black" stroke="black" points="2059.14,-156.944 2069.73,-156.641 2061.26,-150.273 2059.14,-156.944"/>
</g>
<!-- 2042155798288&#45;&gt;2042156134512 -->
<g id="edge32" class="edge"><title>2042155798288&#45;&gt;2042156134512</title>
<path fill="none" stroke="black" d="M2033.46,-130.67C2067.85,-122.689 2131.15,-110 2186,-110 2186,-110 2186,-110 2278,-110 2327.08,-110 2383.77,-110.385 2419.74,-110.677"/>
<polygon fill="black" stroke="black" points="2419.73,-114.177 2429.76,-110.76 2419.79,-107.177 2419.73,-114.177"/>
</g>
<!-- 2042156085008&#45;&gt;2042154625968 -->
<g id="edge34" class="edge"><title>2042156085008&#45;&gt;2042154625968</title>
<path fill="none" stroke="black" d="M594.403,-99C602.393,-99 611.311,-99 619.824,-99"/>
<polygon fill="black" stroke="black" points="619.919,-102.5 629.919,-99 619.919,-95.5001 619.919,-102.5"/>
</g>
<!-- 2042156082128&#45;&gt;2042155957696 -->
<g id="edge35" class="edge"><title>2042156082128&#45;&gt;2042155957696</title>
<path fill="none" stroke="black" d="M774.403,-171C782.393,-171 791.311,-171 799.824,-171"/>
<polygon fill="black" stroke="black" points="799.919,-174.5 809.919,-171 799.919,-167.5 799.919,-174.5"/>
</g>
<!-- 2042154626592&#45;&gt;2042154625728 -->
<g id="edge36" class="edge"><title>2042154626592&#45;&gt;2042154625728</title>
<path fill="none" stroke="black" d="M774.403,-99C782.393,-99 791.311,-99 799.824,-99"/>
<polygon fill="black" stroke="black" points="799.919,-102.5 809.919,-99 799.919,-95.5001 799.919,-102.5"/>
</g>
<!-- 2042156134896&#45;&gt;2042156136672 -->
<g id="edge37" class="edge"><title>2042156134896&#45;&gt;2042156136672</title>
<path fill="none" stroke="black" d="M2574.4,-138C2582.39,-138 2591.31,-138 2599.82,-138"/>
<polygon fill="black" stroke="black" points="2599.92,-141.5 2609.92,-138 2599.92,-134.5 2599.92,-141.5"/>
</g>
<!-- 2042155958128&#45;&gt;2042155956016 -->
<g id="edge38" class="edge"><title>2042155958128&#45;&gt;2042155956016</title>
<path fill="none" stroke="black" d="M1314.4,-169.5C1322.39,-169.046 1331.31,-168.539 1339.82,-168.055"/>
<polygon fill="black" stroke="black" points="1340.13,-171.544 1349.92,-167.482 1339.74,-164.555 1340.13,-171.544"/>
</g>
<!-- 2042154626928&#45;&gt;2042154702400 -->
<g id="edge39" class="edge"><title>2042154626928&#45;&gt;2042154702400</title>
<path fill="none" stroke="black" d="M1313.93,-101.652C1322.09,-102.486 1331.26,-103.424 1339.99,-104.317"/>
<polygon fill="black" stroke="black" points="1339.65,-107.801 1349.95,-105.336 1340.36,-100.837 1339.65,-107.801"/>
</g>
</g>
</svg>
