<?xml version="1.0" encoding="UTF-8" standalone="no"?>
<!DOCTYPE svg PUBLIC "-//W3C//DTD SVG 1.1//EN"
 "http://www.w3.org/Graphics/SVG/1.1/DTD/svg11.dtd">
<!-- Generated by graphviz version 2.38.0 (20140413.2041)
 -->
<!-- Title: &#45;&gt;( X( &#45;&gt;( &#39;C&#39;, &#39;D&#39; ), +( &#39;A&#39;, &#39;B&#39; ) ), &#39;G&#39;, X( &#45;&gt;( &#39;E&#39;, &#39;F&#39; ), &#39;H&#39; ) ) Pages: 1 -->
<svg width="2762pt" height="233pt"
 viewBox="0.00 0.00 2762.00 233.00" xmlns="http://www.w3.org/2000/svg" xmlns:xlink="http://www.w3.org/1999/xlink">
<g id="graph0" class="graph" transform="scale(1 1) rotate(0) translate(4 229)">
<title>&#45;&gt;( X( &#45;&gt;( &#39;C&#39;, &#39;D&#39; ), +( &#39;A&#39;, &#39;B&#39; ) ), &#39;G&#39;, X( &#45;&gt;( &#39;E&#39;, &#39;F&#39; ), &#39;H&#39; ) )</title>
<!-- 2711868297856 -->
<g id="node1" class="node"><title>2711868297856</title>
<polygon fill="none" stroke="black" points="864,-144 810,-144 810,-108 864,-108 864,-144"/>
<text text-anchor="middle" x="837" y="-122.9" font-family="Times New Roman,serif" font-size="12.00">A</text>
</g>
<!-- 2711867645520 -->
<g id="node33" class="node"><title>2711867645520</title>
<ellipse fill="none" stroke="black" cx="927" cy="-126" rx="27" ry="27"/>
</g>
<!-- 2711868297856&#45;&gt;2711867645520 -->
<g id="edge2" class="edge"><title>2711868297856&#45;&gt;2711867645520</title>
<path fill="none" stroke="black" d="M864.403,-126C872.393,-126 881.311,-126 889.824,-126"/>
<polygon fill="black" stroke="black" points="889.919,-129.5 899.919,-126 889.919,-122.5 889.919,-129.5"/>
</g>
<!-- 2711867642112 -->
<g id="node2" class="node"><title>2711867642112</title>
<polygon fill="black" stroke="black" points="1044,-158 990,-158 990,-122 1044,-122 1044,-158"/>
</g>
<!-- 2711868298288 -->
<g id="node41" class="node"><title>2711868298288</title>
<ellipse fill="none" stroke="black" cx="1107" cy="-82" rx="27" ry="27"/>
</g>
<!-- 2711867642112&#45;&gt;2711868298288 -->
<g id="edge42" class="edge"><title>2711867642112&#45;&gt;2711868298288</title>
<path fill="none" stroke="black" d="M1044.4,-122.598C1054.19,-116.146 1065.37,-108.777 1075.5,-102.104"/>
<polygon fill="black" stroke="black" points="1077.64,-104.885 1084.06,-96.4594 1073.79,-99.0402 1077.64,-104.885"/>
</g>
<!-- 2711869356880 -->
<g id="node42" class="node"><title>2711869356880</title>
<ellipse fill="none" stroke="black" cx="1107" cy="-154" rx="27" ry="27"/>
</g>
<!-- 2711867642112&#45;&gt;2711869356880 -->
<g id="edge43" class="edge"><title>2711867642112&#45;&gt;2711869356880</title>
<path fill="none" stroke="black" d="M1044.4,-144.2C1052.55,-145.497 1061.67,-146.947 1070.34,-148.326"/>
<polygon fill="black" stroke="black" points="1069.8,-151.784 1080.22,-149.899 1070.9,-144.871 1069.8,-151.784"/>
</g>
<!-- 2711867645568 -->
<g id="node3" class="node"><title>2711867645568</title>
<polygon fill="none" stroke="black" points="864,-216 810,-216 810,-180 864,-180 864,-216"/>
<text text-anchor="middle" x="837" y="-194.9" font-family="Times New Roman,serif" font-size="12.00">B</text>
</g>
<!-- 2711867645664 -->
<g id="node37" class="node"><title>2711867645664</title>
<ellipse fill="none" stroke="black" cx="927" cy="-198" rx="27" ry="27"/>
</g>
<!-- 2711867645568&#45;&gt;2711867645664 -->
<g id="edge3" class="edge"><title>2711867645568&#45;&gt;2711867645664</title>
<path fill="none" stroke="black" d="M864.403,-198C872.393,-198 881.311,-198 889.824,-198"/>
<polygon fill="black" stroke="black" points="889.919,-201.5 899.919,-198 889.919,-194.5 889.919,-201.5"/>
</g>
<!-- 2711868389120 -->
<g id="node4" class="node"><title>2711868389120</title>
<polygon fill="none" stroke="black" points="2124,-45 2070,-45 2070,-9 2124,-9 2124,-45"/>
<text text-anchor="middle" x="2097" y="-23.9" font-family="Times New Roman,serif" font-size="12.00">F</text>
</g>
<!-- 2711868389264 -->
<g id="node35" class="node"><title>2711868389264</title>
<ellipse fill="none" stroke="black" cx="2187" cy="-27" rx="27" ry="27"/>
</g>
<!-- 2711868389120&#45;&gt;2711868389264 -->
<g id="edge8" class="edge"><title>2711868389120&#45;&gt;2711868389264</title>
<path fill="none" stroke="black" d="M2124.4,-27C2132.39,-27 2141.31,-27 2149.82,-27"/>
<polygon fill="black" stroke="black" points="2149.92,-30.5001 2159.92,-27 2149.92,-23.5001 2149.92,-30.5001"/>
</g>
<!-- 2711868869888 -->
<g id="node5" class="node"><title>2711868869888</title>
<polygon fill="black" stroke="black" points="2304,-50 2250,-50 2250,-14 2304,-14 2304,-50"/>
</g>
<!-- 2711868869648 -->
<g id="node39" class="node"><title>2711868869648</title>
<ellipse fill="none" stroke="black" cx="2367" cy="-57" rx="27" ry="27"/>
</g>
<!-- 2711868869888&#45;&gt;2711868869648 -->
<g id="edge44" class="edge"><title>2711868869888&#45;&gt;2711868869648</title>
<path fill="none" stroke="black" d="M2304.4,-39.5008C2312.79,-41.8834 2322.2,-44.5561 2331.09,-47.0817"/>
<polygon fill="black" stroke="black" points="2330.25,-50.4814 2340.82,-49.8475 2332.16,-43.7479 2330.25,-50.4814"/>
</g>
<!-- 2711869357312 -->
<g id="node6" class="node"><title>2711869357312</title>
<polygon fill="black" stroke="black" points="144,-110 90,-110 90,-74 144,-74 144,-110"/>
</g>
<!-- 2711870385696 -->
<g id="node27" class="node"><title>2711870385696</title>
<ellipse fill="none" stroke="black" cx="207" cy="-92" rx="27" ry="27"/>
</g>
<!-- 2711869357312&#45;&gt;2711870385696 -->
<g id="edge34" class="edge"><title>2711869357312&#45;&gt;2711870385696</title>
<path fill="none" stroke="black" d="M144.403,-92C152.393,-92 161.311,-92 169.824,-92"/>
<polygon fill="black" stroke="black" points="169.919,-95.5001 179.919,-92 169.919,-88.5001 169.919,-95.5001"/>
</g>
<!-- 2711869342864 -->
<g id="node7" class="node"><title>2711869342864</title>
<polygon fill="none" stroke="black" points="864,-72 810,-72 810,-36 864,-36 864,-72"/>
<text text-anchor="middle" x="837" y="-50.9" font-family="Times New Roman,serif" font-size="12.00">D</text>
</g>
<!-- 2711869342000 -->
<g id="node34" class="node"><title>2711869342000</title>
<ellipse fill="none" stroke="black" cx="927" cy="-54" rx="27" ry="27"/>
</g>
<!-- 2711869342864&#45;&gt;2711869342000 -->
<g id="edge5" class="edge"><title>2711869342864&#45;&gt;2711869342000</title>
<path fill="none" stroke="black" d="M864.403,-54C872.393,-54 881.311,-54 889.824,-54"/>
<polygon fill="black" stroke="black" points="889.919,-57.5001 899.919,-54 889.919,-50.5001 889.919,-57.5001"/>
</g>
<!-- 2711868680080 -->
<g id="node8" class="node"><title>2711868680080</title>
<polygon fill="black" stroke="black" points="1224,-108 1170,-108 1170,-72 1224,-72 1224,-108"/>
</g>
<!-- 2711868389744 -->
<g id="node28" class="node"><title>2711868389744</title>
<ellipse fill="none" stroke="black" cx="1287" cy="-90" rx="27" ry="27"/>
</g>
<!-- 2711868680080&#45;&gt;2711868389744 -->
<g id="edge48" class="edge"><title>2711868680080&#45;&gt;2711868389744</title>
<path fill="none" stroke="black" d="M1224.4,-90C1232.39,-90 1241.31,-90 1249.82,-90"/>
<polygon fill="black" stroke="black" points="1249.92,-93.5001 1259.92,-90 1249.92,-86.5001 1249.92,-93.5001"/>
</g>
<!-- 2711869342096 -->
<g id="node9" class="node"><title>2711869342096</title>
<polygon fill="black" stroke="black" points="1314,-45 1260,-45 1260,-9 1314,-9 1314,-45"/>
</g>
<!-- 2711869354192 -->
<g id="node44" class="node"><title>2711869354192</title>
<ellipse fill="none" stroke="black" cx="1377" cy="-27" rx="27" ry="27"/>
</g>
<!-- 2711869342096&#45;&gt;2711869354192 -->
<g id="edge50" class="edge"><title>2711869342096&#45;&gt;2711869354192</title>
<path fill="none" stroke="black" d="M1314.4,-27C1322.39,-27 1331.31,-27 1339.82,-27"/>
<polygon fill="black" stroke="black" points="1339.92,-30.5001 1349.92,-27 1339.92,-23.5001 1339.92,-30.5001"/>
</g>
<!-- 2711867645856 -->
<g id="node10" class="node"><title>2711867645856</title>
<polygon fill="black" stroke="black" points="684,-144 630,-144 630,-108 684,-108 684,-144"/>
</g>
<!-- 2711869342768 -->
<g id="node26" class="node"><title>2711869342768</title>
<ellipse fill="none" stroke="black" cx="747" cy="-126" rx="27" ry="27"/>
</g>
<!-- 2711867645856&#45;&gt;2711869342768 -->
<g id="edge38" class="edge"><title>2711867645856&#45;&gt;2711869342768</title>
<path fill="none" stroke="black" d="M684.403,-126C692.393,-126 701.311,-126 709.824,-126"/>
<polygon fill="black" stroke="black" points="709.919,-129.5 719.919,-126 709.919,-122.5 709.919,-129.5"/>
</g>
<!-- 2711867645616 -->
<g id="node36" class="node"><title>2711867645616</title>
<ellipse fill="none" stroke="black" cx="747" cy="-198" rx="27" ry="27"/>
</g>
<!-- 2711867645856&#45;&gt;2711867645616 -->
<g id="edge39" class="edge"><title>2711867645856&#45;&gt;2711867645616</title>
<path fill="none" stroke="black" d="M680.206,-144.169C691.541,-153.443 705.458,-164.83 717.569,-174.738"/>
<polygon fill="black" stroke="black" points="715.655,-177.694 725.611,-181.318 720.087,-172.277 715.655,-177.694"/>
</g>
<!-- 2711868389024 -->
<g id="node11" class="node"><title>2711868389024</title>
<polygon fill="none" stroke="black" points="1944,-45 1890,-45 1890,-9 1944,-9 1944,-45"/>
<text text-anchor="middle" x="1917" y="-23.9" font-family="Times New Roman,serif" font-size="12.00">E</text>
</g>
<!-- 2711868389408 -->
<g id="node32" class="node"><title>2711868389408</title>
<ellipse fill="none" stroke="black" cx="2007" cy="-27" rx="27" ry="27"/>
</g>
<!-- 2711868389024&#45;&gt;2711868389408 -->
<g id="edge7" class="edge"><title>2711868389024&#45;&gt;2711868389408</title>
<path fill="none" stroke="black" d="M1944.4,-27C1952.39,-27 1961.31,-27 1969.82,-27"/>
<polygon fill="black" stroke="black" points="1969.92,-30.5001 1979.92,-27 1969.92,-23.5001 1969.92,-30.5001"/>
</g>
<!-- 2711869357984 -->
<g id="node12" class="node"><title>2711869357984</title>
<polygon fill="black" stroke="black" points="1314,-172 1260,-172 1260,-136 1314,-136 1314,-172"/>
</g>
<!-- 2711869355056 -->
<g id="node45" class="node"><title>2711869355056</title>
<ellipse fill="none" stroke="black" cx="1467" cy="-154" rx="27" ry="27"/>
</g>
<!-- 2711869357984&#45;&gt;2711869355056 -->
<g id="edge49" class="edge"><title>2711869357984&#45;&gt;2711869355056</title>
<path fill="none" stroke="black" d="M1314.26,-154C1344.85,-154 1395.55,-154 1429.84,-154"/>
<polygon fill="black" stroke="black" points="1429.92,-157.5 1439.92,-154 1429.92,-150.5 1429.92,-157.5"/>
</g>
<!-- 2711869343920 -->
<g id="node13" class="node"><title>2711869343920</title>
<polygon fill="none" stroke="black" points="684,-75 630,-75 630,-39 684,-39 684,-75"/>
<text text-anchor="middle" x="657" y="-53.9" font-family="Times New Roman,serif" font-size="12.00">C</text>
</g>
<!-- 2711869343872 -->
<g id="node31" class="node"><title>2711869343872</title>
<ellipse fill="none" stroke="black" cx="747" cy="-54" rx="27" ry="27"/>
</g>
<!-- 2711869343920&#45;&gt;2711869343872 -->
<g id="edge4" class="edge"><title>2711869343920&#45;&gt;2711869343872</title>
<path fill="none" stroke="black" d="M684.403,-56.0999C692.393,-55.8275 701.311,-55.5235 709.824,-55.2333"/>
<polygon fill="black" stroke="black" points="710.044,-58.7279 719.919,-54.8891 709.806,-51.732 710.044,-58.7279"/>
</g>
<!-- 2711868389168 -->
<g id="node14" class="node"><title>2711868389168</title>
<polygon fill="none" stroke="black" points="1764,-100 1710,-100 1710,-64 1764,-64 1764,-100"/>
<text text-anchor="middle" x="1737" y="-78.9" font-family="Times New Roman,serif" font-size="12.00">H</text>
</g>
<!-- 2711868389168&#45;&gt;2711868869648 -->
<g id="edge6" class="edge"><title>2711868389168&#45;&gt;2711868869648</title>
<path fill="none" stroke="black" d="M1764.24,-82C1798.96,-82 1862.07,-82 1916,-82 1916,-82 1916,-82 2188,-82 2237.85,-82 2294.79,-72.267 2330.56,-64.9469"/>
<polygon fill="black" stroke="black" points="2331.44,-68.3387 2340.51,-62.8614 2330.01,-61.4876 2331.44,-68.3387"/>
</g>
<!-- 2711868298048 -->
<g id="node15" class="node"><title>2711868298048</title>
<polygon fill="black" stroke="black" points="324,-110 270,-110 270,-74 324,-74 324,-110"/>
</g>
<!-- 2711870385600 -->
<g id="node40" class="node"><title>2711870385600</title>
<ellipse fill="none" stroke="black" cx="387" cy="-92" rx="27" ry="27"/>
</g>
<!-- 2711868298048&#45;&gt;2711870385600 -->
<g id="edge47" class="edge"><title>2711868298048&#45;&gt;2711870385600</title>
<path fill="none" stroke="black" d="M324.403,-92C332.393,-92 341.311,-92 349.824,-92"/>
<polygon fill="black" stroke="black" points="349.919,-95.5001 359.919,-92 349.919,-88.5001 349.919,-95.5001"/>
</g>
<!-- 2711868869696 -->
<g id="node16" class="node"><title>2711868869696</title>
<polygon fill="black" stroke="black" points="1584,-100 1530,-100 1530,-64 1584,-64 1584,-100"/>
</g>
<!-- 2711868679984 -->
<g id="node38" class="node"><title>2711868679984</title>
<ellipse fill="none" stroke="black" cx="1647" cy="-82" rx="27" ry="27"/>
</g>
<!-- 2711868869696&#45;&gt;2711868679984 -->
<g id="edge45" class="edge"><title>2711868869696&#45;&gt;2711868679984</title>
<path fill="none" stroke="black" d="M1584.4,-82C1592.39,-82 1601.31,-82 1609.82,-82"/>
<polygon fill="black" stroke="black" points="1609.92,-85.5001 1619.92,-82 1609.92,-78.5001 1609.92,-85.5001"/>
</g>
<!-- 2711869357120 -->
<g id="node17" class="node"><title>2711869357120</title>
<polygon fill="black" stroke="black" points="2664,-75 2610,-75 2610,-39 2664,-39 2664,-75"/>
</g>
<!-- 2711869358032 -->
<g id="node46" class="node"><title>2711869358032</title>
<ellipse fill="orange" stroke="black" cx="2727" cy="-57" rx="27" ry="27"/>
</g>
<!-- 2711869357120&#45;&gt;2711869358032 -->
<g id="edge35" class="edge"><title>2711869357120&#45;&gt;2711869358032</title>
<path fill="none" stroke="black" d="M2664.4,-57C2672.39,-57 2681.31,-57 2689.82,-57"/>
<polygon fill="black" stroke="black" points="2689.92,-60.5001 2699.92,-57 2689.92,-53.5001 2689.92,-60.5001"/>
</g>
<!-- 2711868298192 -->
<g id="node18" class="node"><title>2711868298192</title>
<polygon fill="black" stroke="black" points="1044,-72 990,-72 990,-36 1044,-36 1044,-72"/>
</g>
<!-- 2711868298192&#45;&gt;2711868298288 -->
<g id="edge40" class="edge"><title>2711868298192&#45;&gt;2711868298288</title>
<path fill="none" stroke="black" d="M1044.4,-62.4009C1052.86,-65.0928 1062.36,-68.1154 1071.32,-70.9659"/>
<polygon fill="black" stroke="black" points="1070.53,-74.3876 1081.12,-74.0845 1072.65,-67.7172 1070.53,-74.3876"/>
</g>
<!-- 2711870385024 -->
<g id="node43" class="node"><title>2711870385024</title>
<ellipse fill="none" stroke="black" cx="1197" cy="-27" rx="27" ry="27"/>
</g>
<!-- 2711868298192&#45;&gt;2711870385024 -->
<g id="edge41" class="edge"><title>2711868298192&#45;&gt;2711870385024</title>
<path fill="none" stroke="black" d="M1044.26,-50.0161C1074.94,-45.3632 1125.84,-37.642 1160.14,-32.4399"/>
<polygon fill="black" stroke="black" points="1160.84,-35.8727 1170.21,-30.9125 1159.79,-28.9519 1160.84,-35.8727"/>
</g>
<!-- 2711868389072 -->
<g id="node19" class="node"><title>2711868389072</title>
<polygon fill="black" stroke="black" points="1764,-45 1710,-45 1710,-9 1764,-9 1764,-45"/>
</g>
<!-- 2711868389936 -->
<g id="node25" class="node"><title>2711868389936</title>
<ellipse fill="none" stroke="black" cx="1827" cy="-27" rx="27" ry="27"/>
</g>
<!-- 2711868389072&#45;&gt;2711868389936 -->
<g id="edge37" class="edge"><title>2711868389072&#45;&gt;2711868389936</title>
<path fill="none" stroke="black" d="M1764.4,-27C1772.39,-27 1781.31,-27 1789.82,-27"/>
<polygon fill="black" stroke="black" points="1789.92,-30.5001 1799.92,-27 1789.92,-23.5001 1789.92,-30.5001"/>
</g>
<!-- 2711869355488 -->
<g id="node20" class="node"><title>2711869355488</title>
<polygon fill="black" stroke="black" points="2484,-75 2430,-75 2430,-39 2484,-39 2484,-75"/>
</g>
<!-- 2711869356016 -->
<g id="node30" class="node"><title>2711869356016</title>
<ellipse fill="none" stroke="black" cx="2547" cy="-57" rx="27" ry="27"/>
</g>
<!-- 2711869355488&#45;&gt;2711869356016 -->
<g id="edge46" class="edge"><title>2711869355488&#45;&gt;2711869356016</title>
<path fill="none" stroke="black" d="M2484.4,-57C2492.39,-57 2501.31,-57 2509.82,-57"/>
<polygon fill="black" stroke="black" points="2509.92,-60.5001 2519.92,-57 2509.92,-53.5001 2509.92,-60.5001"/>
</g>
<!-- 2711868297712 -->
<g id="node21" class="node"><title>2711868297712</title>
<polygon fill="black" stroke="black" points="504,-85 450,-85 450,-49 504,-49 504,-85"/>
</g>
<!-- 2711870385648 -->
<g id="node24" class="node"><title>2711870385648</title>
<ellipse fill="none" stroke="black" cx="567" cy="-61" rx="27" ry="27"/>
</g>
<!-- 2711868297712&#45;&gt;2711870385648 -->
<g id="edge36" class="edge"><title>2711868297712&#45;&gt;2711870385648</title>
<path fill="none" stroke="black" d="M504.403,-65.1998C512.393,-64.655 521.311,-64.047 529.824,-63.4665"/>
<polygon fill="black" stroke="black" points="530.18,-66.9505 539.919,-62.7783 529.704,-59.9667 530.18,-66.9505"/>
</g>
<!-- 2711870384880 -->
<g id="node22" class="node"><title>2711870384880</title>
<polygon fill="none" stroke="black" points="1404,-108 1350,-108 1350,-72 1404,-72 1404,-108"/>
<text text-anchor="middle" x="1377" y="-86.9" font-family="Times New Roman,serif" font-size="12.00">G</text>
</g>
<!-- 2711868389216 -->
<g id="node29" class="node"><title>2711868389216</title>
<ellipse fill="none" stroke="black" cx="1467" cy="-82" rx="27" ry="27"/>
</g>
<!-- 2711870384880&#45;&gt;2711868389216 -->
<g id="edge1" class="edge"><title>2711870384880&#45;&gt;2711868389216</title>
<path fill="none" stroke="black" d="M1404.4,-87.5997C1412.39,-86.8733 1421.31,-86.0627 1429.82,-85.2887"/>
<polygon fill="black" stroke="black" points="1430.28,-88.7621 1439.92,-84.371 1429.64,-81.7908 1430.28,-88.7621"/>
</g>
<!-- 2711869355632 -->
<g id="node23" class="node"><title>2711869355632</title>
<ellipse fill="green" stroke="black" cx="27" cy="-92" rx="27" ry="27"/>
<text text-anchor="middle" x="27" y="-88.9" font-family="Times New Roman,serif" font-size="12.00">1</text>
</g>
<!-- 2711869355632&#45;&gt;2711869357312 -->
<g id="edge16" class="edge"><title>2711869355632&#45;&gt;2711869357312</title>
<path fill="none" stroke="black" d="M54.4029,-92C62.3932,-92 71.3106,-92 79.8241,-92"/>
<polygon fill="black" stroke="black" points="79.919,-95.5001 89.919,-92 79.919,-88.5001 79.919,-95.5001"/>
</g>
<!-- 2711870385648&#45;&gt;2711869343920 -->
<g id="edge9" class="edge"><title>2711870385648&#45;&gt;2711869343920</title>
<path fill="none" stroke="black" d="M594.403,-59.7999C602.393,-59.4367 611.311,-59.0313 619.824,-58.6444"/>
<polygon fill="black" stroke="black" points="620.088,-62.1361 629.919,-58.1855 619.77,-55.1433 620.088,-62.1361"/>
</g>
<!-- 2711868389936&#45;&gt;2711868389024 -->
<g id="edge10" class="edge"><title>2711868389936&#45;&gt;2711868389024</title>
<path fill="none" stroke="black" d="M1854.4,-27C1862.39,-27 1871.31,-27 1879.82,-27"/>
<polygon fill="black" stroke="black" points="1879.92,-30.5001 1889.92,-27 1879.92,-23.5001 1879.92,-30.5001"/>
</g>
<!-- 2711869342768&#45;&gt;2711868297856 -->
<g id="edge11" class="edge"><title>2711869342768&#45;&gt;2711868297856</title>
<path fill="none" stroke="black" d="M774.403,-126C782.393,-126 791.311,-126 799.824,-126"/>
<polygon fill="black" stroke="black" points="799.919,-129.5 809.919,-126 799.919,-122.5 799.919,-129.5"/>
</g>
<!-- 2711870385696&#45;&gt;2711868298048 -->
<g id="edge12" class="edge"><title>2711870385696&#45;&gt;2711868298048</title>
<path fill="none" stroke="black" d="M234.403,-92C242.393,-92 251.311,-92 259.824,-92"/>
<polygon fill="black" stroke="black" points="259.919,-95.5001 269.919,-92 259.919,-88.5001 259.919,-95.5001"/>
</g>
<!-- 2711868389744&#45;&gt;2711870384880 -->
<g id="edge13" class="edge"><title>2711868389744&#45;&gt;2711870384880</title>
<path fill="none" stroke="black" d="M1314.4,-90C1322.39,-90 1331.31,-90 1339.82,-90"/>
<polygon fill="black" stroke="black" points="1339.92,-93.5001 1349.92,-90 1339.92,-86.5001 1339.92,-93.5001"/>
</g>
<!-- 2711868389216&#45;&gt;2711868869696 -->
<g id="edge14" class="edge"><title>2711868389216&#45;&gt;2711868869696</title>
<path fill="none" stroke="black" d="M1494.4,-82C1502.39,-82 1511.31,-82 1519.82,-82"/>
<polygon fill="black" stroke="black" points="1519.92,-85.5001 1529.92,-82 1519.92,-78.5001 1519.92,-85.5001"/>
</g>
<!-- 2711869356016&#45;&gt;2711869357120 -->
<g id="edge15" class="edge"><title>2711869356016&#45;&gt;2711869357120</title>
<path fill="none" stroke="black" d="M2574.4,-57C2582.39,-57 2591.31,-57 2599.82,-57"/>
<polygon fill="black" stroke="black" points="2599.92,-60.5001 2609.92,-57 2599.92,-53.5001 2599.92,-60.5001"/>
</g>
<!-- 2711869343872&#45;&gt;2711869342864 -->
<g id="edge17" class="edge"><title>2711869343872&#45;&gt;2711869342864</title>
<path fill="none" stroke="black" d="M774.403,-54C782.393,-54 791.311,-54 799.824,-54"/>
<polygon fill="black" stroke="black" points="799.919,-57.5001 809.919,-54 799.919,-50.5001 799.919,-57.5001"/>
</g>
<!-- 2711868389408&#45;&gt;2711868389120 -->
<g id="edge18" class="edge"><title>2711868389408&#45;&gt;2711868389120</title>
<path fill="none" stroke="black" d="M2034.4,-27C2042.39,-27 2051.31,-27 2059.82,-27"/>
<polygon fill="black" stroke="black" points="2059.92,-30.5001 2069.92,-27 2059.92,-23.5001 2059.92,-30.5001"/>
</g>
<!-- 2711867645520&#45;&gt;2711867642112 -->
<g id="edge19" class="edge"><title>2711867645520&#45;&gt;2711867642112</title>
<path fill="none" stroke="black" d="M953.927,-130.125C962.089,-131.423 971.256,-132.882 979.989,-134.271"/>
<polygon fill="black" stroke="black" points="979.529,-137.742 989.954,-135.856 980.628,-130.829 979.529,-137.742"/>
</g>
<!-- 2711869342000&#45;&gt;2711868298192 -->
<g id="edge20" class="edge"><title>2711869342000&#45;&gt;2711868298192</title>
<path fill="none" stroke="black" d="M954.403,-54C962.393,-54 971.311,-54 979.824,-54"/>
<polygon fill="black" stroke="black" points="979.919,-57.5001 989.919,-54 979.919,-50.5001 979.919,-57.5001"/>
</g>
<!-- 2711868389264&#45;&gt;2711868869888 -->
<g id="edge21" class="edge"><title>2711868389264&#45;&gt;2711868869888</title>
<path fill="none" stroke="black" d="M2214.4,-28.5002C2222.39,-28.9542 2231.31,-29.4608 2239.82,-29.9445"/>
<polygon fill="black" stroke="black" points="2239.74,-33.4451 2249.92,-30.5181 2240.13,-26.4564 2239.74,-33.4451"/>
</g>
<!-- 2711867645616&#45;&gt;2711867645568 -->
<g id="edge22" class="edge"><title>2711867645616&#45;&gt;2711867645568</title>
<path fill="none" stroke="black" d="M774.403,-198C782.393,-198 791.311,-198 799.824,-198"/>
<polygon fill="black" stroke="black" points="799.919,-201.5 809.919,-198 799.919,-194.5 799.919,-201.5"/>
</g>
<!-- 2711867645664&#45;&gt;2711867642112 -->
<g id="edge23" class="edge"><title>2711867645664&#45;&gt;2711867642112</title>
<path fill="none" stroke="black" d="M950.206,-183.364C959.594,-177.177 970.752,-169.822 981.189,-162.944"/>
<polygon fill="black" stroke="black" points="983.308,-165.739 989.731,-157.314 979.455,-159.894 983.308,-165.739"/>
</g>
<!-- 2711868679984&#45;&gt;2711868389168 -->
<g id="edge24" class="edge"><title>2711868679984&#45;&gt;2711868389168</title>
<path fill="none" stroke="black" d="M1674.4,-82C1682.39,-82 1691.31,-82 1699.82,-82"/>
<polygon fill="black" stroke="black" points="1699.92,-85.5001 1709.92,-82 1699.92,-78.5001 1699.92,-85.5001"/>
</g>
<!-- 2711868679984&#45;&gt;2711868389072 -->
<g id="edge25" class="edge"><title>2711868679984&#45;&gt;2711868389072</title>
<path fill="none" stroke="black" d="M1670.21,-68.1212C1679.59,-62.2538 1690.75,-55.2798 1701.19,-48.7569"/>
<polygon fill="black" stroke="black" points="1703.11,-51.686 1709.73,-43.418 1699.4,-45.75 1703.11,-51.686"/>
</g>
<!-- 2711868869648&#45;&gt;2711869355488 -->
<g id="edge26" class="edge"><title>2711868869648&#45;&gt;2711869355488</title>
<path fill="none" stroke="black" d="M2394.4,-57C2402.39,-57 2411.31,-57 2419.82,-57"/>
<polygon fill="black" stroke="black" points="2419.92,-60.5001 2429.92,-57 2419.92,-53.5001 2419.92,-60.5001"/>
</g>
<!-- 2711870385600&#45;&gt;2711867645856 -->
<g id="edge28" class="edge"><title>2711870385600&#45;&gt;2711867645856</title>
<path fill="none" stroke="black" d="M414.185,-95.322C462.318,-101.428 564.935,-114.447 619.736,-121.399"/>
<polygon fill="black" stroke="black" points="619.348,-124.878 629.709,-122.665 620.229,-117.934 619.348,-124.878"/>
</g>
<!-- 2711870385600&#45;&gt;2711868297712 -->
<g id="edge27" class="edge"><title>2711870385600&#45;&gt;2711868297712</title>
<path fill="none" stroke="black" d="M413.453,-84.769C421.788,-82.401 431.21,-79.7243 440.165,-77.1804"/>
<polygon fill="black" stroke="black" points="441.33,-80.4879 449.993,-74.3883 439.417,-73.7543 441.33,-80.4879"/>
</g>
<!-- 2711868298288&#45;&gt;2711868680080 -->
<g id="edge29" class="edge"><title>2711868298288&#45;&gt;2711868680080</title>
<path fill="none" stroke="black" d="M1133.93,-84.357C1142.09,-85.099 1151.26,-85.9324 1159.99,-86.7263"/>
<polygon fill="black" stroke="black" points="1159.68,-90.2124 1169.95,-87.6322 1160.31,-83.2411 1159.68,-90.2124"/>
</g>
<!-- 2711869356880&#45;&gt;2711869357984 -->
<g id="edge30" class="edge"><title>2711869356880&#45;&gt;2711869357984</title>
<path fill="none" stroke="black" d="M1134.26,-154C1164.85,-154 1215.55,-154 1249.84,-154"/>
<polygon fill="black" stroke="black" points="1249.92,-157.5 1259.92,-154 1249.92,-150.5 1249.92,-157.5"/>
</g>
<!-- 2711870385024&#45;&gt;2711869342096 -->
<g id="edge31" class="edge"><title>2711870385024&#45;&gt;2711869342096</title>
<path fill="none" stroke="black" d="M1224.4,-27C1232.39,-27 1241.31,-27 1249.82,-27"/>
<polygon fill="black" stroke="black" points="1249.92,-30.5001 1259.92,-27 1249.92,-23.5001 1249.92,-30.5001"/>
</g>
<!-- 2711869354192&#45;&gt;2711868389072 -->
<g id="edge32" class="edge"><title>2711869354192&#45;&gt;2711868389072</title>
<path fill="none" stroke="black" d="M1404.03,-27C1466.91,-27 1627.19,-27 1699.56,-27"/>
<polygon fill="black" stroke="black" points="1699.58,-30.5001 1709.58,-27 1699.58,-23.5001 1699.58,-30.5001"/>
</g>
<!-- 2711869355056&#45;&gt;2711868389168 -->
<g id="edge33" class="edge"><title>2711869355056&#45;&gt;2711868389168</title>
<path fill="none" stroke="black" d="M1494.13,-152.387C1533.99,-149.278 1611.92,-140.629 1674,-118 1683.2,-114.647 1692.6,-109.954 1701.21,-105.063"/>
<polygon fill="black" stroke="black" points="1703.03,-108.05 1709.85,-99.9412 1699.47,-102.028 1703.03,-108.05"/>
</g>
</g>
</svg>
