<?xml version="1.0" encoding="UTF-8" standalone="no"?>
<!DOCTYPE svg PUBLIC "-//W3C//DTD SVG 1.1//EN"
 "http://www.w3.org/Graphics/SVG/1.1/DTD/svg11.dtd">
<!-- Generated by graphviz version 2.38.0 (20140413.2041)
 -->
<!-- Title: &#45;&gt;( X( &#45;&gt;( &#39;C&#39;, &#39;D&#39; ), +( &#39;A&#39;, &#39;B&#39; ) ), &#39;G&#39;, X( &#45;&gt;( &#39;E&#39;, &#39;F&#39; ), &#39;H&#39; ) ) Pages: 1 -->
<svg width="2762pt" height="240pt"
 viewBox="0.00 0.00 2762.00 240.00" xmlns="http://www.w3.org/2000/svg" xmlns:xlink="http://www.w3.org/1999/xlink">
<g id="graph0" class="graph" transform="scale(1 1) rotate(0) translate(4 236)">
<title>&#45;&gt;( X( &#45;&gt;( &#39;C&#39;, &#39;D&#39; ), +( &#39;A&#39;, &#39;B&#39; ) ), &#39;G&#39;, X( &#45;&gt;( &#39;E&#39;, &#39;F&#39; ), &#39;H&#39; ) )</title>
<!-- 1760989003008 -->
<g id="node1" class="node"><title>1760989003008</title>
<polygon fill="none" stroke="black" points="1404,-160 1350,-160 1350,-124 1404,-124 1404,-160"/>
<text text-anchor="middle" x="1377" y="-138.9" font-family="Times New Roman,serif" font-size="12.00">G</text>
</g>
<!-- 1760988324336 -->
<g id="node29" class="node"><title>1760988324336</title>
<ellipse fill="none" stroke="black" cx="1467" cy="-144" rx="27" ry="27"/>
</g>
<!-- 1760989003008&#45;&gt;1760988324336 -->
<g id="edge1" class="edge"><title>1760989003008&#45;&gt;1760988324336</title>
<path fill="none" stroke="black" d="M1404.4,-142.6C1412.39,-142.782 1421.31,-142.984 1429.82,-143.178"/>
<polygon fill="black" stroke="black" points="1429.84,-146.679 1439.92,-143.407 1430,-139.681 1429.84,-146.679"/>
</g>
<!-- 1760988551056 -->
<g id="node2" class="node"><title>1760988551056</title>
<polygon fill="none" stroke="black" points="684,-186 630,-186 630,-150 684,-150 684,-186"/>
<text text-anchor="middle" x="657" y="-164.9" font-family="Times New Roman,serif" font-size="12.00">C</text>
</g>
<!-- 1760988551680 -->
<g id="node31" class="node"><title>1760988551680</title>
<ellipse fill="none" stroke="black" cx="747" cy="-171" rx="27" ry="27"/>
</g>
<!-- 1760988551056&#45;&gt;1760988551680 -->
<g id="edge4" class="edge"><title>1760988551056&#45;&gt;1760988551680</title>
<path fill="none" stroke="black" d="M684.403,-168.9C692.393,-169.172 701.311,-169.476 709.824,-169.767"/>
<polygon fill="black" stroke="black" points="709.806,-173.268 719.919,-170.111 710.044,-166.272 709.806,-173.268"/>
</g>
<!-- 1760986198800 -->
<g id="node3" class="node"><title>1760986198800</title>
<polygon fill="none" stroke="black" points="864,-45 810,-45 810,-9 864,-9 864,-45"/>
<text text-anchor="middle" x="837" y="-23.9" font-family="Times New Roman,serif" font-size="12.00">A</text>
</g>
<!-- 1760986199568 -->
<g id="node32" class="node"><title>1760986199568</title>
<ellipse fill="none" stroke="black" cx="927" cy="-27" rx="27" ry="27"/>
</g>
<!-- 1760986198800&#45;&gt;1760986199568 -->
<g id="edge2" class="edge"><title>1760986198800&#45;&gt;1760986199568</title>
<path fill="none" stroke="black" d="M864.403,-27C872.393,-27 881.311,-27 889.824,-27"/>
<polygon fill="black" stroke="black" points="889.919,-30.5001 899.919,-27 889.919,-23.5001 889.919,-30.5001"/>
</g>
<!-- 1760986199712 -->
<g id="node4" class="node"><title>1760986199712</title>
<polygon fill="black" stroke="black" points="324,-144 270,-144 270,-108 324,-108 324,-144"/>
</g>
<!-- 1760989003056 -->
<g id="node40" class="node"><title>1760989003056</title>
<ellipse fill="none" stroke="black" cx="387" cy="-126" rx="27" ry="27"/>
</g>
<!-- 1760986199712&#45;&gt;1760989003056 -->
<g id="edge47" class="edge"><title>1760986199712&#45;&gt;1760989003056</title>
<path fill="none" stroke="black" d="M324.403,-126C332.393,-126 341.311,-126 349.824,-126"/>
<polygon fill="black" stroke="black" points="349.919,-129.5 359.919,-126 349.919,-122.5 349.919,-129.5"/>
</g>
<!-- 1760986200624 -->
<g id="node5" class="node"><title>1760986200624</title>
<polygon fill="black" stroke="black" points="504,-171 450,-171 450,-135 504,-135 504,-171"/>
</g>
<!-- 1760989003440 -->
<g id="node24" class="node"><title>1760989003440</title>
<ellipse fill="none" stroke="black" cx="567" cy="-166" rx="27" ry="27"/>
</g>
<!-- 1760986200624&#45;&gt;1760989003440 -->
<g id="edge38" class="edge"><title>1760986200624&#45;&gt;1760989003440</title>
<path fill="none" stroke="black" d="M504.403,-156.9C512.465,-158.091 521.471,-159.422 530.054,-160.69"/>
<polygon fill="black" stroke="black" points="529.817,-164.193 540.221,-162.192 530.84,-157.268 529.817,-164.193"/>
</g>
<!-- 1760988324528 -->
<g id="node6" class="node"><title>1760988324528</title>
<polygon fill="none" stroke="black" points="1944,-166 1890,-166 1890,-130 1944,-130 1944,-166"/>
<text text-anchor="middle" x="1917" y="-144.9" font-family="Times New Roman,serif" font-size="12.00">E</text>
</g>
<!-- 1760988324768 -->
<g id="node33" class="node"><title>1760988324768</title>
<ellipse fill="none" stroke="black" cx="2007" cy="-148" rx="27" ry="27"/>
</g>
<!-- 1760988324528&#45;&gt;1760988324768 -->
<g id="edge7" class="edge"><title>1760988324528&#45;&gt;1760988324768</title>
<path fill="none" stroke="black" d="M1944.4,-148C1952.39,-148 1961.31,-148 1969.82,-148"/>
<polygon fill="black" stroke="black" points="1969.92,-151.5 1979.92,-148 1969.92,-144.5 1969.92,-151.5"/>
</g>
<!-- 1760986198080 -->
<g id="node7" class="node"><title>1760986198080</title>
<polygon fill="none" stroke="black" points="864,-117 810,-117 810,-81 864,-81 864,-117"/>
<text text-anchor="middle" x="837" y="-95.9" font-family="Times New Roman,serif" font-size="12.00">B</text>
</g>
<!-- 1760986201584 -->
<g id="node38" class="node"><title>1760986201584</title>
<ellipse fill="none" stroke="black" cx="927" cy="-99" rx="27" ry="27"/>
</g>
<!-- 1760986198080&#45;&gt;1760986201584 -->
<g id="edge3" class="edge"><title>1760986198080&#45;&gt;1760986201584</title>
<path fill="none" stroke="black" d="M864.403,-99C872.393,-99 881.311,-99 889.824,-99"/>
<polygon fill="black" stroke="black" points="889.919,-102.5 899.919,-99 889.919,-95.5001 889.919,-102.5"/>
</g>
<!-- 1760988324672 -->
<g id="node8" class="node"><title>1760988324672</title>
<polygon fill="none" stroke="black" points="2124,-166 2070,-166 2070,-130 2124,-130 2124,-166"/>
<text text-anchor="middle" x="2097" y="-144.9" font-family="Times New Roman,serif" font-size="12.00">F</text>
</g>
<!-- 1760988324864 -->
<g id="node35" class="node"><title>1760988324864</title>
<ellipse fill="none" stroke="black" cx="2187" cy="-148" rx="27" ry="27"/>
</g>
<!-- 1760988324672&#45;&gt;1760988324864 -->
<g id="edge8" class="edge"><title>1760988324672&#45;&gt;1760988324864</title>
<path fill="none" stroke="black" d="M2124.4,-148C2132.39,-148 2141.31,-148 2149.82,-148"/>
<polygon fill="black" stroke="black" points="2149.92,-151.5 2159.92,-148 2149.92,-144.5 2149.92,-151.5"/>
</g>
<!-- 1760988327120 -->
<g id="node9" class="node"><title>1760988327120</title>
<polygon fill="black" stroke="black" points="144,-144 90,-144 90,-108 144,-108 144,-144"/>
</g>
<!-- 1760989001280 -->
<g id="node27" class="node"><title>1760989001280</title>
<ellipse fill="none" stroke="black" cx="207" cy="-126" rx="27" ry="27"/>
</g>
<!-- 1760988327120&#45;&gt;1760989001280 -->
<g id="edge34" class="edge"><title>1760988327120&#45;&gt;1760989001280</title>
<path fill="none" stroke="black" d="M144.403,-126C152.393,-126 161.311,-126 169.824,-126"/>
<polygon fill="black" stroke="black" points="169.919,-129.5 179.919,-126 169.919,-122.5 169.919,-129.5"/>
</g>
<!-- 1760986202064 -->
<g id="node10" class="node"><title>1760986202064</title>
<polygon fill="black" stroke="black" points="684,-117 630,-117 630,-81 684,-81 684,-117"/>
</g>
<!-- 1760988552448 -->
<g id="node26" class="node"><title>1760988552448</title>
<ellipse fill="none" stroke="black" cx="747" cy="-27" rx="27" ry="27"/>
</g>
<!-- 1760986202064&#45;&gt;1760988552448 -->
<g id="edge36" class="edge"><title>1760986202064&#45;&gt;1760988552448</title>
<path fill="none" stroke="black" d="M680.206,-80.8314C691.541,-71.557 705.458,-60.1704 717.569,-50.2618"/>
<polygon fill="black" stroke="black" points="720.087,-52.7235 725.611,-43.6822 715.655,-47.3058 720.087,-52.7235"/>
</g>
<!-- 1760986201488 -->
<g id="node36" class="node"><title>1760986201488</title>
<ellipse fill="none" stroke="black" cx="747" cy="-99" rx="27" ry="27"/>
</g>
<!-- 1760986202064&#45;&gt;1760986201488 -->
<g id="edge37" class="edge"><title>1760986202064&#45;&gt;1760986201488</title>
<path fill="none" stroke="black" d="M684.403,-99C692.393,-99 701.311,-99 709.824,-99"/>
<polygon fill="black" stroke="black" points="709.919,-102.5 719.919,-99 709.919,-95.5001 709.919,-102.5"/>
</g>
<!-- 1760988324048 -->
<g id="node11" class="node"><title>1760988324048</title>
<polygon fill="black" stroke="black" points="1224,-160 1170,-160 1170,-124 1224,-124 1224,-160"/>
</g>
<!-- 1760988324624 -->
<g id="node28" class="node"><title>1760988324624</title>
<ellipse fill="none" stroke="black" cx="1287" cy="-142" rx="27" ry="27"/>
</g>
<!-- 1760988324048&#45;&gt;1760988324624 -->
<g id="edge48" class="edge"><title>1760988324048&#45;&gt;1760988324624</title>
<path fill="none" stroke="black" d="M1224.4,-142C1232.39,-142 1241.31,-142 1249.82,-142"/>
<polygon fill="black" stroke="black" points="1249.92,-145.5 1259.92,-142 1249.92,-138.5 1249.92,-145.5"/>
</g>
<!-- 1760988324432 -->
<g id="node12" class="node"><title>1760988324432</title>
<polygon fill="none" stroke="black" points="1764,-111 1710,-111 1710,-75 1764,-75 1764,-111"/>
<text text-anchor="middle" x="1737" y="-89.9" font-family="Times New Roman,serif" font-size="12.00">H</text>
</g>
<!-- 1760988325632 -->
<g id="node39" class="node"><title>1760988325632</title>
<ellipse fill="none" stroke="black" cx="2367" cy="-118" rx="27" ry="27"/>
</g>
<!-- 1760988324432&#45;&gt;1760988325632 -->
<g id="edge6" class="edge"><title>1760988324432&#45;&gt;1760988325632</title>
<path fill="none" stroke="black" d="M1764.24,-93C1798.96,-93 1862.07,-93 1916,-93 1916,-93 1916,-93 2188,-93 2237.85,-93 2294.79,-102.733 2330.56,-110.053"/>
<polygon fill="black" stroke="black" points="2330.01,-113.512 2340.51,-112.139 2331.44,-106.661 2330.01,-113.512"/>
</g>
<!-- 1760988238032 -->
<g id="node13" class="node"><title>1760988238032</title>
<polygon fill="black" stroke="black" points="1224,-90 1170,-90 1170,-54 1224,-54 1224,-90"/>
</g>
<!-- 1760988238368 -->
<g id="node45" class="node"><title>1760988238368</title>
<ellipse fill="none" stroke="black" cx="1467" cy="-72" rx="27" ry="27"/>
</g>
<!-- 1760988238032&#45;&gt;1760988238368 -->
<g id="edge49" class="edge"><title>1760988238032&#45;&gt;1760988238368</title>
<path fill="none" stroke="black" d="M1224.18,-72C1272.22,-72 1374.51,-72 1429.39,-72"/>
<polygon fill="black" stroke="black" points="1429.71,-75.5001 1439.71,-72 1429.71,-68.5001 1429.71,-75.5001"/>
</g>
<!-- 1760986200288 -->
<g id="node14" class="node"><title>1760986200288</title>
<polygon fill="black" stroke="black" points="1044,-189 990,-189 990,-153 1044,-153 1044,-189"/>
</g>
<!-- 1760986198464 -->
<g id="node41" class="node"><title>1760986198464</title>
<ellipse fill="none" stroke="black" cx="1107" cy="-144" rx="27" ry="27"/>
</g>
<!-- 1760986200288&#45;&gt;1760986198464 -->
<g id="edge43" class="edge"><title>1760986200288&#45;&gt;1760986198464</title>
<path fill="none" stroke="black" d="M1044.4,-162.899C1052.79,-160.326 1062.2,-157.439 1071.09,-154.712"/>
<polygon fill="black" stroke="black" points="1072.29,-158.004 1080.82,-151.725 1070.24,-151.312 1072.29,-158.004"/>
</g>
<!-- 1760988551584 -->
<g id="node43" class="node"><title>1760988551584</title>
<ellipse fill="none" stroke="black" cx="1197" cy="-205" rx="27" ry="27"/>
</g>
<!-- 1760986200288&#45;&gt;1760988551584 -->
<g id="edge44" class="edge"><title>1760986200288&#45;&gt;1760988551584</title>
<path fill="none" stroke="black" d="M1044.26,-176.017C1074.94,-181.876 1125.84,-191.599 1160.14,-198.15"/>
<polygon fill="black" stroke="black" points="1159.73,-201.635 1170.21,-200.073 1161.04,-194.759 1159.73,-201.635"/>
</g>
<!-- 1760986201440 -->
<g id="node15" class="node"><title>1760986201440</title>
<polygon fill="black" stroke="black" points="1044,-103 990,-103 990,-67 1044,-67 1044,-103"/>
</g>
<!-- 1760986201440&#45;&gt;1760986198464 -->
<g id="edge40" class="edge"><title>1760986201440&#45;&gt;1760986198464</title>
<path fill="none" stroke="black" d="M1044.4,-102.702C1054.19,-109.265 1065.37,-116.761 1075.5,-123.549"/>
<polygon fill="black" stroke="black" points="1073.81,-126.63 1084.06,-129.291 1077.7,-120.815 1073.81,-126.63"/>
</g>
<!-- 1760988238080 -->
<g id="node42" class="node"><title>1760988238080</title>
<ellipse fill="none" stroke="black" cx="1107" cy="-72" rx="27" ry="27"/>
</g>
<!-- 1760986201440&#45;&gt;1760988238080 -->
<g id="edge41" class="edge"><title>1760986201440&#45;&gt;1760988238080</title>
<path fill="none" stroke="black" d="M1044.4,-81.0996C1052.47,-79.9085 1061.47,-78.5781 1070.05,-77.3102"/>
<polygon fill="black" stroke="black" points="1070.84,-80.7321 1080.22,-75.8082 1069.82,-73.8073 1070.84,-80.7321"/>
</g>
<!-- 1760988325344 -->
<g id="node16" class="node"><title>1760988325344</title>
<polygon fill="black" stroke="black" points="1764,-166 1710,-166 1710,-130 1764,-130 1764,-166"/>
</g>
<!-- 1760988324384 -->
<g id="node25" class="node"><title>1760988324384</title>
<ellipse fill="none" stroke="black" cx="1827" cy="-148" rx="27" ry="27"/>
</g>
<!-- 1760988325344&#45;&gt;1760988324384 -->
<g id="edge39" class="edge"><title>1760988325344&#45;&gt;1760988324384</title>
<path fill="none" stroke="black" d="M1764.4,-148C1772.39,-148 1781.31,-148 1789.82,-148"/>
<polygon fill="black" stroke="black" points="1789.92,-151.5 1799.92,-148 1789.92,-144.5 1789.92,-151.5"/>
</g>
<!-- 1760988325728 -->
<g id="node17" class="node"><title>1760988325728</title>
<polygon fill="black" stroke="black" points="1584,-162 1530,-162 1530,-126 1584,-126 1584,-162"/>
</g>
<!-- 1760988324240 -->
<g id="node37" class="node"><title>1760988324240</title>
<ellipse fill="none" stroke="black" cx="1647" cy="-144" rx="27" ry="27"/>
</g>
<!-- 1760988325728&#45;&gt;1760988324240 -->
<g id="edge45" class="edge"><title>1760988325728&#45;&gt;1760988324240</title>
<path fill="none" stroke="black" d="M1584.4,-144C1592.39,-144 1601.31,-144 1609.82,-144"/>
<polygon fill="black" stroke="black" points="1609.92,-147.5 1619.92,-144 1609.92,-140.5 1609.92,-147.5"/>
</g>
<!-- 1760988327264 -->
<g id="node18" class="node"><title>1760988327264</title>
<polygon fill="black" stroke="black" points="2664,-136 2610,-136 2610,-100 2664,-100 2664,-136"/>
</g>
<!-- 1760988327504 -->
<g id="node46" class="node"><title>1760988327504</title>
<ellipse fill="orange" stroke="black" cx="2727" cy="-118" rx="27" ry="27"/>
</g>
<!-- 1760988327264&#45;&gt;1760988327504 -->
<g id="edge35" class="edge"><title>1760988327264&#45;&gt;1760988327504</title>
<path fill="none" stroke="black" d="M2664.4,-118C2672.39,-118 2681.31,-118 2689.82,-118"/>
<polygon fill="black" stroke="black" points="2689.92,-121.5 2699.92,-118 2689.92,-114.5 2689.92,-121.5"/>
</g>
<!-- 1760988549232 -->
<g id="node19" class="node"><title>1760988549232</title>
<polygon fill="none" stroke="black" points="864,-189 810,-189 810,-153 864,-153 864,-189"/>
<text text-anchor="middle" x="837" y="-167.9" font-family="Times New Roman,serif" font-size="12.00">D</text>
</g>
<!-- 1760988549568 -->
<g id="node34" class="node"><title>1760988549568</title>
<ellipse fill="none" stroke="black" cx="927" cy="-171" rx="27" ry="27"/>
</g>
<!-- 1760988549232&#45;&gt;1760988549568 -->
<g id="edge5" class="edge"><title>1760988549232&#45;&gt;1760988549568</title>
<path fill="none" stroke="black" d="M864.403,-171C872.393,-171 881.311,-171 889.824,-171"/>
<polygon fill="black" stroke="black" points="889.919,-174.5 899.919,-171 889.919,-167.5 889.919,-174.5"/>
</g>
<!-- 1760988325488 -->
<g id="node20" class="node"><title>1760988325488</title>
<polygon fill="black" stroke="black" points="2304,-161 2250,-161 2250,-125 2304,-125 2304,-161"/>
</g>
<!-- 1760988325488&#45;&gt;1760988325632 -->
<g id="edge42" class="edge"><title>1760988325488&#45;&gt;1760988325632</title>
<path fill="none" stroke="black" d="M2304.4,-135.499C2312.79,-133.117 2322.2,-130.444 2331.09,-127.918"/>
<polygon fill="black" stroke="black" points="2332.16,-131.252 2340.82,-125.152 2330.25,-124.519 2332.16,-131.252"/>
</g>
<!-- 1760988326256 -->
<g id="node21" class="node"><title>1760988326256</title>
<polygon fill="black" stroke="black" points="2484,-136 2430,-136 2430,-100 2484,-100 2484,-136"/>
</g>
<!-- 1760988326448 -->
<g id="node30" class="node"><title>1760988326448</title>
<ellipse fill="none" stroke="black" cx="2547" cy="-118" rx="27" ry="27"/>
</g>
<!-- 1760988326256&#45;&gt;1760988326448 -->
<g id="edge46" class="edge"><title>1760988326256&#45;&gt;1760988326448</title>
<path fill="none" stroke="black" d="M2484.4,-118C2492.39,-118 2501.31,-118 2509.82,-118"/>
<polygon fill="black" stroke="black" points="2509.92,-121.5 2519.92,-118 2509.92,-114.5 2509.92,-121.5"/>
</g>
<!-- 1760986362352 -->
<g id="node22" class="node"><title>1760986362352</title>
<polygon fill="black" stroke="black" points="1314,-223 1260,-223 1260,-187 1314,-187 1314,-223"/>
</g>
<!-- 1760988327792 -->
<g id="node44" class="node"><title>1760988327792</title>
<ellipse fill="none" stroke="black" cx="1377" cy="-205" rx="27" ry="27"/>
</g>
<!-- 1760986362352&#45;&gt;1760988327792 -->
<g id="edge50" class="edge"><title>1760986362352&#45;&gt;1760988327792</title>
<path fill="none" stroke="black" d="M1314.4,-205C1322.39,-205 1331.31,-205 1339.82,-205"/>
<polygon fill="black" stroke="black" points="1339.92,-208.5 1349.92,-205 1339.92,-201.5 1339.92,-208.5"/>
</g>
<!-- 1760988327408 -->
<g id="node23" class="node"><title>1760988327408</title>
<ellipse fill="green" stroke="black" cx="27" cy="-126" rx="27" ry="27"/>
<text text-anchor="middle" x="27" y="-122.9" font-family="Times New Roman,serif" font-size="12.00">1</text>
</g>
<!-- 1760988327408&#45;&gt;1760988327120 -->
<g id="edge16" class="edge"><title>1760988327408&#45;&gt;1760988327120</title>
<path fill="none" stroke="black" d="M54.4029,-126C62.3932,-126 71.3106,-126 79.8241,-126"/>
<polygon fill="black" stroke="black" points="79.919,-129.5 89.919,-126 79.919,-122.5 79.919,-129.5"/>
</g>
<!-- 1760989003440&#45;&gt;1760988551056 -->
<g id="edge9" class="edge"><title>1760989003440&#45;&gt;1760988551056</title>
<path fill="none" stroke="black" d="M594.403,-166.6C602.393,-166.782 611.311,-166.984 619.824,-167.178"/>
<polygon fill="black" stroke="black" points="619.842,-170.679 629.919,-167.407 620.001,-163.681 619.842,-170.679"/>
</g>
<!-- 1760988324384&#45;&gt;1760988324528 -->
<g id="edge10" class="edge"><title>1760988324384&#45;&gt;1760988324528</title>
<path fill="none" stroke="black" d="M1854.4,-148C1862.39,-148 1871.31,-148 1879.82,-148"/>
<polygon fill="black" stroke="black" points="1879.92,-151.5 1889.92,-148 1879.92,-144.5 1879.92,-151.5"/>
</g>
<!-- 1760988552448&#45;&gt;1760986198800 -->
<g id="edge11" class="edge"><title>1760988552448&#45;&gt;1760986198800</title>
<path fill="none" stroke="black" d="M774.403,-27C782.393,-27 791.311,-27 799.824,-27"/>
<polygon fill="black" stroke="black" points="799.919,-30.5001 809.919,-27 799.919,-23.5001 799.919,-30.5001"/>
</g>
<!-- 1760989001280&#45;&gt;1760986199712 -->
<g id="edge12" class="edge"><title>1760989001280&#45;&gt;1760986199712</title>
<path fill="none" stroke="black" d="M234.403,-126C242.393,-126 251.311,-126 259.824,-126"/>
<polygon fill="black" stroke="black" points="259.919,-129.5 269.919,-126 259.919,-122.5 259.919,-129.5"/>
</g>
<!-- 1760988324624&#45;&gt;1760989003008 -->
<g id="edge13" class="edge"><title>1760988324624&#45;&gt;1760989003008</title>
<path fill="none" stroke="black" d="M1314.4,-142C1322.39,-142 1331.31,-142 1339.82,-142"/>
<polygon fill="black" stroke="black" points="1339.92,-145.5 1349.92,-142 1339.92,-138.5 1339.92,-145.5"/>
</g>
<!-- 1760988324336&#45;&gt;1760988325728 -->
<g id="edge14" class="edge"><title>1760988324336&#45;&gt;1760988325728</title>
<path fill="none" stroke="black" d="M1494.4,-144C1502.39,-144 1511.31,-144 1519.82,-144"/>
<polygon fill="black" stroke="black" points="1519.92,-147.5 1529.92,-144 1519.92,-140.5 1519.92,-147.5"/>
</g>
<!-- 1760988326448&#45;&gt;1760988327264 -->
<g id="edge15" class="edge"><title>1760988326448&#45;&gt;1760988327264</title>
<path fill="none" stroke="black" d="M2574.4,-118C2582.39,-118 2591.31,-118 2599.82,-118"/>
<polygon fill="black" stroke="black" points="2599.92,-121.5 2609.92,-118 2599.92,-114.5 2599.92,-121.5"/>
</g>
<!-- 1760988551680&#45;&gt;1760988549232 -->
<g id="edge17" class="edge"><title>1760988551680&#45;&gt;1760988549232</title>
<path fill="none" stroke="black" d="M774.403,-171C782.393,-171 791.311,-171 799.824,-171"/>
<polygon fill="black" stroke="black" points="799.919,-174.5 809.919,-171 799.919,-167.5 799.919,-174.5"/>
</g>
<!-- 1760986199568&#45;&gt;1760986201440 -->
<g id="edge18" class="edge"><title>1760986199568&#45;&gt;1760986201440</title>
<path fill="none" stroke="black" d="M950.206,-41.6358C959.594,-47.8232 970.752,-55.1777 981.189,-62.0564"/>
<polygon fill="black" stroke="black" points="979.455,-65.1056 989.731,-67.6865 983.308,-59.2609 979.455,-65.1056"/>
</g>
<!-- 1760988324768&#45;&gt;1760988324672 -->
<g id="edge19" class="edge"><title>1760988324768&#45;&gt;1760988324672</title>
<path fill="none" stroke="black" d="M2034.4,-148C2042.39,-148 2051.31,-148 2059.82,-148"/>
<polygon fill="black" stroke="black" points="2059.92,-151.5 2069.92,-148 2059.92,-144.5 2059.92,-151.5"/>
</g>
<!-- 1760988549568&#45;&gt;1760986200288 -->
<g id="edge20" class="edge"><title>1760988549568&#45;&gt;1760986200288</title>
<path fill="none" stroke="black" d="M954.403,-171C962.393,-171 971.311,-171 979.824,-171"/>
<polygon fill="black" stroke="black" points="979.919,-174.5 989.919,-171 979.919,-167.5 979.919,-174.5"/>
</g>
<!-- 1760988324864&#45;&gt;1760988325488 -->
<g id="edge21" class="edge"><title>1760988324864&#45;&gt;1760988325488</title>
<path fill="none" stroke="black" d="M2214.4,-146.5C2222.39,-146.046 2231.31,-145.539 2239.82,-145.055"/>
<polygon fill="black" stroke="black" points="2240.13,-148.544 2249.92,-144.482 2239.74,-141.555 2240.13,-148.544"/>
</g>
<!-- 1760986201488&#45;&gt;1760986198080 -->
<g id="edge22" class="edge"><title>1760986201488&#45;&gt;1760986198080</title>
<path fill="none" stroke="black" d="M774.403,-99C782.393,-99 791.311,-99 799.824,-99"/>
<polygon fill="black" stroke="black" points="799.919,-102.5 809.919,-99 799.919,-95.5001 799.919,-102.5"/>
</g>
<!-- 1760988324240&#45;&gt;1760988324432 -->
<g id="edge23" class="edge"><title>1760988324240&#45;&gt;1760988324432</title>
<path fill="none" stroke="black" d="M1670.66,-130.866C1679.96,-125.479 1690.93,-119.12 1701.2,-113.168"/>
<polygon fill="black" stroke="black" points="1703.09,-116.118 1709.99,-108.075 1699.58,-110.061 1703.09,-116.118"/>
</g>
<!-- 1760988324240&#45;&gt;1760988325344 -->
<g id="edge24" class="edge"><title>1760988324240&#45;&gt;1760988325344</title>
<path fill="none" stroke="black" d="M1674.4,-145.2C1682.39,-145.563 1691.31,-145.969 1699.82,-146.356"/>
<polygon fill="black" stroke="black" points="1699.77,-149.857 1709.92,-146.814 1700.09,-142.864 1699.77,-149.857"/>
</g>
<!-- 1760986201584&#45;&gt;1760986201440 -->
<g id="edge25" class="edge"><title>1760986201584&#45;&gt;1760986201440</title>
<path fill="none" stroke="black" d="M953.927,-94.8753C962.089,-93.5767 971.256,-92.1183 979.989,-90.729"/>
<polygon fill="black" stroke="black" points="980.628,-94.1714 989.954,-89.1436 979.529,-87.2583 980.628,-94.1714"/>
</g>
<!-- 1760988325632&#45;&gt;1760988326256 -->
<g id="edge26" class="edge"><title>1760988325632&#45;&gt;1760988326256</title>
<path fill="none" stroke="black" d="M2394.4,-118C2402.39,-118 2411.31,-118 2419.82,-118"/>
<polygon fill="black" stroke="black" points="2419.92,-121.5 2429.92,-118 2419.92,-114.5 2419.92,-121.5"/>
</g>
<!-- 1760989003056&#45;&gt;1760986200624 -->
<g id="edge28" class="edge"><title>1760989003056&#45;&gt;1760986200624</title>
<path fill="none" stroke="black" d="M412.982,-133.665C421.415,-136.252 431.003,-139.194 440.111,-141.989"/>
<polygon fill="black" stroke="black" points="439.141,-145.352 449.727,-144.939 441.194,-138.66 439.141,-145.352"/>
</g>
<!-- 1760989003056&#45;&gt;1760986202064 -->
<g id="edge27" class="edge"><title>1760989003056&#45;&gt;1760986202064</title>
<path fill="none" stroke="black" d="M414.185,-123.362C462.318,-118.513 564.935,-108.174 619.736,-102.653"/>
<polygon fill="black" stroke="black" points="620.11,-106.134 629.709,-101.649 619.408,-99.1688 620.11,-106.134"/>
</g>
<!-- 1760986198464&#45;&gt;1760988324048 -->
<g id="edge29" class="edge"><title>1760986198464&#45;&gt;1760988324048</title>
<path fill="none" stroke="black" d="M1134.4,-143.4C1142.39,-143.218 1151.31,-143.016 1159.82,-142.822"/>
<polygon fill="black" stroke="black" points="1160,-146.319 1169.92,-142.593 1159.84,-139.321 1160,-146.319"/>
</g>
<!-- 1760988238080&#45;&gt;1760988238032 -->
<g id="edge30" class="edge"><title>1760988238080&#45;&gt;1760988238032</title>
<path fill="none" stroke="black" d="M1134.4,-72C1142.39,-72 1151.31,-72 1159.82,-72"/>
<polygon fill="black" stroke="black" points="1159.92,-75.5001 1169.92,-72 1159.92,-68.5001 1159.92,-75.5001"/>
</g>
<!-- 1760988551584&#45;&gt;1760986362352 -->
<g id="edge31" class="edge"><title>1760988551584&#45;&gt;1760986362352</title>
<path fill="none" stroke="black" d="M1224.4,-205C1232.39,-205 1241.31,-205 1249.82,-205"/>
<polygon fill="black" stroke="black" points="1249.92,-208.5 1259.92,-205 1249.92,-201.5 1249.92,-208.5"/>
</g>
<!-- 1760988327792&#45;&gt;1760988325344 -->
<g id="edge32" class="edge"><title>1760988327792&#45;&gt;1760988325344</title>
<path fill="none" stroke="black" d="M1404.35,-206.17C1456.82,-207.767 1577.61,-207.756 1674,-180 1683.06,-177.391 1692.34,-173.41 1700.88,-169.132"/>
<polygon fill="black" stroke="black" points="1702.58,-172.188 1709.79,-164.425 1699.32,-165.998 1702.58,-172.188"/>
</g>
<!-- 1760988238368&#45;&gt;1760988324432 -->
<g id="edge33" class="edge"><title>1760988238368&#45;&gt;1760988324432</title>
<path fill="none" stroke="black" d="M1494.18,-74.0518C1542.32,-77.8234 1644.93,-85.8643 1699.74,-90.1584"/>
<polygon fill="black" stroke="black" points="1699.47,-93.6479 1709.71,-90.9399 1700.01,-86.6693 1699.47,-93.6479"/>
</g>
</g>
</svg>
