<?xml version="1.0" encoding="UTF-8" standalone="no"?>
<!DOCTYPE svg PUBLIC "-//W3C//DTD SVG 1.1//EN"
 "http://www.w3.org/Graphics/SVG/1.1/DTD/svg11.dtd">
<!-- Generated by graphviz version 2.38.0 (20140413.2041)
 -->
<!-- Title: &#45;&gt;( X( &#39;A&#39;, &#45;&gt;( &#39;C&#39;, &#39;D&#39;, X( &#39;E&#39;, &#39;F&#39; ) ) ), *( &#39;Q&#39;, &#45;&gt;( &#39;X&#39;, X( &#39;H&#39;, &#39;G&#39; ), &#39;P&#39;, X( &#39;I&#39;, &#39;J&#39; ) ) ), *( *( *tau*, X( &#39;S&#39;, &#39;M&#39;, &#39;N&#39;, &#39;K&#39;, &#39;T&#39;, &#39;L&#39;, &#39;R&#39;, &#39;O&#39; ) ), *tau* ) ) Pages: 1 -->
<svg width="3932pt" height="774pt"
 viewBox="0.00 0.00 3932.00 774.00" xmlns="http://www.w3.org/2000/svg" xmlns:xlink="http://www.w3.org/1999/xlink">
<g id="graph0" class="graph" transform="scale(1 1) rotate(0) translate(4 770)">
<title>&#45;&gt;( X( &#39;A&#39;, &#45;&gt;( &#39;C&#39;, &#39;D&#39;, X( &#39;E&#39;, &#39;F&#39; ) ) ), *( &#39;Q&#39;, &#45;&gt;( &#39;X&#39;, X( &#39;H&#39;, &#39;G&#39; ), &#39;P&#39;, X( &#39;I&#39;, &#39;J&#39; ) ) ), *( *( *tau*, X( &#39;S&#39;, &#39;M&#39;, &#39;N&#39;, &#39;K&#39;, &#39;T&#39;, &#39;L&#39;, &#39;R&#39;, &#39;O&#39; ) ), *tau* ) )</title>
<!-- 2699320594688 -->
<g id="node1" class="node"><title>2699320594688</title>
<polygon fill="black" stroke="black" points="1044,-725 990,-725 990,-689 1044,-689 1044,-725"/>
</g>
<!-- 2699321241312 -->
<g id="node47" class="node"><title>2699321241312</title>
<ellipse fill="none" stroke="black" cx="1107" cy="-707" rx="27" ry="27"/>
</g>
<!-- 2699320594688&#45;&gt;2699321241312 -->
<g id="edge76" class="edge"><title>2699320594688&#45;&gt;2699321241312</title>
<path fill="none" stroke="black" d="M1044.4,-707C1052.39,-707 1061.31,-707 1069.82,-707"/>
<polygon fill="black" stroke="black" points="1069.92,-710.5 1079.92,-707 1069.92,-703.5 1069.92,-710.5"/>
</g>
<!-- 2699320596224 -->
<g id="node2" class="node"><title>2699320596224</title>
<polygon fill="black" stroke="black" points="1584,-712 1530,-712 1530,-676 1584,-676 1584,-712"/>
</g>
<!-- 2699321241264 -->
<g id="node72" class="node"><title>2699321241264</title>
<ellipse fill="none" stroke="black" cx="1647" cy="-669" rx="27" ry="27"/>
</g>
<!-- 2699320596224&#45;&gt;2699321241264 -->
<g id="edge85" class="edge"><title>2699320596224&#45;&gt;2699321241264</title>
<path fill="none" stroke="black" d="M1584.4,-686.499C1592.79,-684.117 1602.2,-681.444 1611.09,-678.918"/>
<polygon fill="black" stroke="black" points="1612.16,-682.252 1620.82,-676.152 1610.25,-675.519 1612.16,-682.252"/>
</g>
<!-- 2699330859264 -->
<g id="node3" class="node"><title>2699330859264</title>
<polygon fill="none" stroke="black" points="3564,-338 3510,-338 3510,-302 3564,-302 3564,-338"/>
<text text-anchor="middle" x="3537" y="-316.9" font-family="Times New Roman,serif" font-size="12.00">I</text>
</g>
<!-- 2699330859504 -->
<g id="node51" class="node"><title>2699330859504</title>
<ellipse fill="none" stroke="black" cx="3627" cy="-374" rx="27" ry="27"/>
</g>
<!-- 2699330859264&#45;&gt;2699330859504 -->
<g id="edge20" class="edge"><title>2699330859264&#45;&gt;2699330859504</title>
<path fill="none" stroke="black" d="M3564.4,-336.202C3573.94,-342.053 3584.79,-348.714 3594.71,-354.798"/>
<polygon fill="black" stroke="black" points="3593.13,-357.935 3603.48,-360.182 3596.79,-351.969 3593.13,-357.935"/>
</g>
<!-- 2699321238144 -->
<g id="node4" class="node"><title>2699321238144</title>
<polygon fill="none" stroke="black" points="3204,-290 3150,-290 3150,-254 3204,-254 3204,-290"/>
<text text-anchor="middle" x="3177" y="-268.9" font-family="Times New Roman,serif" font-size="12.00">N</text>
</g>
<!-- 2699321237952 -->
<g id="node54" class="node"><title>2699321237952</title>
<ellipse fill="none" stroke="black" cx="3267" cy="-326" rx="27" ry="27"/>
</g>
<!-- 2699321238144&#45;&gt;2699321237952 -->
<g id="edge3" class="edge"><title>2699321238144&#45;&gt;2699321237952</title>
<path fill="none" stroke="black" d="M3204.4,-288.202C3213.94,-294.053 3224.79,-300.714 3234.71,-306.798"/>
<polygon fill="black" stroke="black" points="3233.13,-309.935 3243.48,-312.182 3236.79,-303.969 3233.13,-309.935"/>
</g>
<!-- 2699330908416 -->
<g id="node5" class="node"><title>2699330908416</title>
<polygon fill="black" stroke="black" points="3384,-292 3330,-292 3330,-256 3384,-256 3384,-292"/>
</g>
<!-- 2699321239104 -->
<g id="node60" class="node"><title>2699321239104</title>
<ellipse fill="none" stroke="black" cx="2727" cy="-488" rx="27" ry="27"/>
</g>
<!-- 2699330908416&#45;&gt;2699321239104 -->
<g id="edge88" class="edge"><title>2699330908416&#45;&gt;2699321239104</title>
<path fill="none" stroke="black" d="M3346.49,-255.8C3323.53,-214.648 3260.8,-118 3178,-118 2906,-118 2906,-118 2906,-118 2759.46,-118 2733.49,-356.601 2728.94,-450.592"/>
<polygon fill="black" stroke="black" points="2725.44,-450.653 2728.51,-460.793 2732.43,-450.952 2725.44,-450.653"/>
</g>
<!-- 2699320595216 -->
<g id="node6" class="node"><title>2699320595216</title>
<polygon fill="black" stroke="black" points="1404,-717 1350,-717 1350,-681 1404,-681 1404,-717"/>
</g>
<!-- 2699320595408 -->
<g id="node66" class="node"><title>2699320595408</title>
<ellipse fill="none" stroke="black" cx="1467" cy="-699" rx="27" ry="27"/>
</g>
<!-- 2699320595216&#45;&gt;2699320595408 -->
<g id="edge80" class="edge"><title>2699320595216&#45;&gt;2699320595408</title>
<path fill="none" stroke="black" d="M1404.4,-699C1412.39,-699 1421.31,-699 1429.82,-699"/>
<polygon fill="black" stroke="black" points="1429.92,-702.5 1439.92,-699 1429.92,-695.5 1429.92,-702.5"/>
</g>
<!-- 2699321240976 -->
<g id="node7" class="node"><title>2699321240976</title>
<polygon fill="black" stroke="black" points="324,-695 270,-695 270,-659 324,-659 324,-695"/>
</g>
<!-- 2699321240592 -->
<g id="node70" class="node"><title>2699321240592</title>
<ellipse fill="none" stroke="black" cx="387" cy="-677" rx="27" ry="27"/>
</g>
<!-- 2699321240976&#45;&gt;2699321240592 -->
<g id="edge87" class="edge"><title>2699321240976&#45;&gt;2699321240592</title>
<path fill="none" stroke="black" d="M324.403,-677C332.393,-677 341.311,-677 349.824,-677"/>
<polygon fill="black" stroke="black" points="349.919,-680.5 359.919,-677 349.919,-673.5 349.919,-680.5"/>
</g>
<!-- 2699320596752 -->
<g id="node8" class="node"><title>2699320596752</title>
<polygon fill="black" stroke="black" points="1764,-687 1710,-687 1710,-651 1764,-651 1764,-687"/>
</g>
<!-- 2699320596896 -->
<g id="node56" class="node"><title>2699320596896</title>
<ellipse fill="none" stroke="black" cx="1827" cy="-669" rx="27" ry="27"/>
</g>
<!-- 2699320596752&#45;&gt;2699320596896 -->
<g id="edge68" class="edge"><title>2699320596752&#45;&gt;2699320596896</title>
<path fill="none" stroke="black" d="M1764.4,-669C1772.39,-669 1781.31,-669 1789.82,-669"/>
<polygon fill="black" stroke="black" points="1789.92,-672.5 1799.92,-669 1789.92,-665.5 1789.92,-672.5"/>
</g>
<!-- 2699320597520 -->
<g id="node9" class="node"><title>2699320597520</title>
<polygon fill="none" stroke="black" points="2844,-36 2790,-36 2790,-0 2844,-0 2844,-36"/>
<text text-anchor="middle" x="2817" y="-14.9" font-family="Times New Roman,serif" font-size="12.00">H</text>
</g>
<!-- 2699320597760 -->
<g id="node52" class="node"><title>2699320597760</title>
<ellipse fill="none" stroke="black" cx="2907" cy="-63" rx="27" ry="27"/>
</g>
<!-- 2699320597520&#45;&gt;2699320597760 -->
<g id="edge19" class="edge"><title>2699320597520&#45;&gt;2699320597760</title>
<path fill="none" stroke="black" d="M2844.4,-31.5015C2853.61,-36.21 2864.05,-41.548 2873.68,-46.4741"/>
<polygon fill="black" stroke="black" points="2872.11,-49.6001 2882.61,-51.0368 2875.3,-43.3677 2872.11,-49.6001"/>
</g>
<!-- 2699330859408 -->
<g id="node10" class="node"><title>2699330859408</title>
<polygon fill="none" stroke="black" points="3564,-392 3510,-392 3510,-356 3564,-356 3564,-392"/>
<text text-anchor="middle" x="3537" y="-370.9" font-family="Times New Roman,serif" font-size="12.00">J</text>
</g>
<!-- 2699330859408&#45;&gt;2699330859504 -->
<g id="edge5" class="edge"><title>2699330859408&#45;&gt;2699330859504</title>
<path fill="none" stroke="black" d="M3564.4,-374C3572.39,-374 3581.31,-374 3589.82,-374"/>
<polygon fill="black" stroke="black" points="3589.92,-377.5 3599.92,-374 3589.92,-370.5 3589.92,-377.5"/>
</g>
<!-- 2699330861328 -->
<g id="node11" class="node"><title>2699330861328</title>
<polygon fill="black" stroke="black" points="2304,-358 2250,-358 2250,-322 2304,-322 2304,-358"/>
</g>
<!-- 2699330859312 -->
<g id="node64" class="node"><title>2699330859312</title>
<ellipse fill="none" stroke="black" cx="2367" cy="-322" rx="27" ry="27"/>
</g>
<!-- 2699330861328&#45;&gt;2699330859312 -->
<g id="edge67" class="edge"><title>2699330861328&#45;&gt;2699330859312</title>
<path fill="none" stroke="black" d="M2304.4,-334.599C2312.55,-332.932 2321.67,-331.068 2330.34,-329.295"/>
<polygon fill="black" stroke="black" points="2331.13,-332.706 2340.22,-327.273 2329.72,-325.848 2331.13,-332.706"/>
</g>
<!-- 2699330861712 -->
<g id="node12" class="node"><title>2699330861712</title>
<polygon fill="black" stroke="black" points="1944,-687 1890,-687 1890,-651 1944,-651 1944,-687"/>
</g>
<!-- 2699321240640 -->
<g id="node74" class="node"><title>2699321240640</title>
<ellipse fill="none" stroke="black" cx="2007" cy="-669" rx="27" ry="27"/>
</g>
<!-- 2699330861712&#45;&gt;2699321240640 -->
<g id="edge72" class="edge"><title>2699330861712&#45;&gt;2699321240640</title>
<path fill="none" stroke="black" d="M1944.4,-669C1952.39,-669 1961.31,-669 1969.82,-669"/>
<polygon fill="black" stroke="black" points="1969.92,-672.5 1979.92,-669 1969.92,-665.5 1969.92,-672.5"/>
</g>
<!-- 2699330862480 -->
<g id="node13" class="node"><title>2699330862480</title>
<polygon fill="none" stroke="black" points="3204,-236 3150,-236 3150,-200 3204,-200 3204,-236"/>
<text text-anchor="middle" x="3177" y="-214.9" font-family="Times New Roman,serif" font-size="12.00">S</text>
</g>
<!-- 2699330862480&#45;&gt;2699321237952 -->
<g id="edge4" class="edge"><title>2699330862480&#45;&gt;2699321237952</title>
<path fill="none" stroke="black" d="M3195.91,-236.038C3198.67,-238.982 3201.46,-242.039 3204,-245 3218.12,-261.432 3232.91,-280.658 3244.49,-296.254"/>
<polygon fill="black" stroke="black" points="3241.83,-298.534 3250.58,-304.505 3247.46,-294.379 3241.83,-298.534"/>
</g>
<!-- 2699330289040 -->
<g id="node14" class="node"><title>2699330289040</title>
<polygon fill="black" stroke="black" points="3024,-613 2970,-613 2970,-577 3024,-577 3024,-613"/>
</g>
<!-- 2699330289232 -->
<g id="node68" class="node"><title>2699330289232</title>
<ellipse fill="none" stroke="black" cx="3087" cy="-595" rx="27" ry="27"/>
</g>
<!-- 2699330289040&#45;&gt;2699330289232 -->
<g id="edge71" class="edge"><title>2699330289040&#45;&gt;2699330289232</title>
<path fill="none" stroke="black" d="M3024.4,-595C3032.39,-595 3041.31,-595 3049.82,-595"/>
<polygon fill="black" stroke="black" points="3049.92,-598.5 3059.92,-595 3049.92,-591.5 3049.92,-598.5"/>
</g>
<!-- 2699329722256 -->
<g id="node15" class="node"><title>2699329722256</title>
<polygon fill="black" stroke="black" points="3204,-614 3150,-614 3150,-578 3204,-578 3204,-614"/>
</g>
<!-- 2699329722208 -->
<g id="node58" class="node"><title>2699329722208</title>
<ellipse fill="none" stroke="black" cx="3267" cy="-596" rx="27" ry="27"/>
</g>
<!-- 2699329722256&#45;&gt;2699329722208 -->
<g id="edge75" class="edge"><title>2699329722256&#45;&gt;2699329722208</title>
<path fill="none" stroke="black" d="M3204.4,-596C3212.39,-596 3221.31,-596 3229.82,-596"/>
<polygon fill="black" stroke="black" points="3229.92,-599.5 3239.92,-596 3229.92,-592.5 3229.92,-599.5"/>
</g>
<!-- 2699321240736 -->
<g id="node16" class="node"><title>2699321240736</title>
<polygon fill="none" stroke="black" points="594,-662 540,-662 540,-626 594,-626 594,-662"/>
<text text-anchor="middle" x="567" y="-640.9" font-family="Times New Roman,serif" font-size="12.00">A</text>
</g>
<!-- 2699321240736&#45;&gt;2699321241264 -->
<g id="edge13" class="edge"><title>2699321240736&#45;&gt;2699321241264</title>
<path fill="none" stroke="black" d="M594.239,-644C628.96,-644 692.075,-644 746,-644 746,-644 746,-644 1468,-644 1517.85,-644 1574.79,-653.733 1610.56,-661.053"/>
<polygon fill="black" stroke="black" points="1610.01,-664.512 1620.51,-663.139 1611.44,-657.661 1610.01,-664.512"/>
</g>
<!-- 2699320597664 -->
<g id="node17" class="node"><title>2699320597664</title>
<polygon fill="none" stroke="black" points="2844,-90 2790,-90 2790,-54 2844,-54 2844,-90"/>
<text text-anchor="middle" x="2817" y="-68.9" font-family="Times New Roman,serif" font-size="12.00">G</text>
</g>
<!-- 2699320597664&#45;&gt;2699320597760 -->
<g id="edge21" class="edge"><title>2699320597664&#45;&gt;2699320597760</title>
<path fill="none" stroke="black" d="M2844.4,-69.2997C2852.39,-68.4825 2861.31,-67.5705 2869.82,-66.6998"/>
<polygon fill="black" stroke="black" points="2870.33,-70.1667 2879.92,-65.6674 2869.61,-63.203 2870.33,-70.1667"/>
</g>
<!-- 2699330861472 -->
<g id="node18" class="node"><title>2699330861472</title>
<polygon fill="black" stroke="black" points="3924,-653 3870,-653 3870,-617 3924,-617 3924,-653"/>
</g>
<!-- 2699330861472&#45;&gt;2699321240640 -->
<g id="edge69" class="edge"><title>2699330861472&#45;&gt;2699321240640</title>
<path fill="none" stroke="black" d="M3869.82,-650.079C3835.93,-668.143 3774.51,-696 3718,-696 2186,-696 2186,-696 2186,-696 2136.07,-696 2079.15,-685.488 2043.4,-677.583"/>
<polygon fill="black" stroke="black" points="2043.99,-674.127 2033.46,-675.33 2042.44,-680.954 2043.99,-674.127"/>
</g>
<!-- 2699330861856 -->
<g id="node19" class="node"><title>2699330861856</title>
<polygon fill="black" stroke="black" points="2304,-657 2250,-657 2250,-621 2304,-621 2304,-657"/>
</g>
<!-- 2699329722352 -->
<g id="node57" class="node"><title>2699329722352</title>
<ellipse fill="none" stroke="black" cx="2367" cy="-639" rx="27" ry="27"/>
</g>
<!-- 2699330861856&#45;&gt;2699329722352 -->
<g id="edge73" class="edge"><title>2699330861856&#45;&gt;2699329722352</title>
<path fill="none" stroke="black" d="M2304.4,-639C2312.39,-639 2321.31,-639 2329.82,-639"/>
<polygon fill="black" stroke="black" points="2329.92,-642.5 2339.92,-639 2329.92,-635.5 2329.92,-642.5"/>
</g>
<!-- 2699321238816 -->
<g id="node20" class="node"><title>2699321238816</title>
<polygon fill="none" stroke="black" points="3204,-182 3150,-182 3150,-146 3204,-146 3204,-182"/>
<text text-anchor="middle" x="3177" y="-160.9" font-family="Times New Roman,serif" font-size="12.00">L</text>
</g>
<!-- 2699321238816&#45;&gt;2699321237952 -->
<g id="edge6" class="edge"><title>2699321238816&#45;&gt;2699321237952</title>
<path fill="none" stroke="black" d="M3197.05,-182.176C3199.55,-185.004 3201.95,-187.989 3204,-191 3225.51,-222.545 3242.88,-262.753 3253.7,-291.055"/>
<polygon fill="black" stroke="black" points="3250.46,-292.398 3257.25,-300.536 3257.02,-289.943 3250.46,-292.398"/>
</g>
<!-- 2699320934304 -->
<g id="node21" class="node"><title>2699320934304</title>
<polygon fill="black" stroke="black" points="3024,-452 2970,-452 2970,-416 3024,-416 3024,-452"/>
</g>
<!-- 2699321237760 -->
<g id="node49" class="node"><title>2699321237760</title>
<ellipse fill="none" stroke="black" cx="3087" cy="-380" rx="27" ry="27"/>
</g>
<!-- 2699320934304&#45;&gt;2699321237760 -->
<g id="edge86" class="edge"><title>2699320934304&#45;&gt;2699321237760</title>
<path fill="none" stroke="black" d="M3024.4,-417.798C3033.94,-411.947 3044.79,-405.286 3054.71,-399.202"/>
<polygon fill="black" stroke="black" points="3056.79,-402.031 3063.48,-393.818 3053.13,-396.065 3056.79,-402.031"/>
</g>
<!-- 2699320597424 -->
<g id="node22" class="node"><title>2699320597424</title>
<polygon fill="none" stroke="black" points="3204,-81 3150,-81 3150,-45 3204,-45 3204,-81"/>
<text text-anchor="middle" x="3177" y="-59.9" font-family="Times New Roman,serif" font-size="12.00">P</text>
</g>
<!-- 2699330860368 -->
<g id="node71" class="node"><title>2699330860368</title>
<ellipse fill="none" stroke="black" cx="3267" cy="-63" rx="27" ry="27"/>
</g>
<!-- 2699320597424&#45;&gt;2699330860368 -->
<g id="edge18" class="edge"><title>2699320597424&#45;&gt;2699330860368</title>
<path fill="none" stroke="black" d="M3204.4,-63C3212.39,-63 3221.31,-63 3229.82,-63"/>
<polygon fill="black" stroke="black" points="3229.92,-66.5001 3239.92,-63 3229.92,-59.5001 3229.92,-66.5001"/>
</g>
<!-- 2699321238576 -->
<g id="node23" class="node"><title>2699321238576</title>
<polygon fill="none" stroke="black" points="3204,-560 3150,-560 3150,-524 3204,-524 3204,-560"/>
<text text-anchor="middle" x="3177" y="-538.9" font-family="Times New Roman,serif" font-size="12.00">T</text>
</g>
<!-- 2699321238576&#45;&gt;2699321237952 -->
<g id="edge22" class="edge"><title>2699321238576&#45;&gt;2699321237952</title>
<path fill="none" stroke="black" d="M3197.63,-523.721C3199.98,-520.953 3202.19,-518.011 3204,-515 3233.26,-466.382 3250.5,-402.311 3259.1,-362.654"/>
<polygon fill="black" stroke="black" points="3262.57,-363.141 3261.2,-352.636 3255.72,-361.705 3262.57,-363.141"/>
</g>
<!-- 2699329722160 -->
<g id="node24" class="node"><title>2699329722160</title>
<polygon fill="black" stroke="black" points="2484,-657 2430,-657 2430,-621 2484,-621 2484,-657"/>
</g>
<!-- 2699320597040 -->
<g id="node65" class="node"><title>2699320597040</title>
<ellipse fill="none" stroke="black" cx="2547" cy="-639" rx="27" ry="27"/>
</g>
<!-- 2699329722160&#45;&gt;2699320597040 -->
<g id="edge74" class="edge"><title>2699329722160&#45;&gt;2699320597040</title>
<path fill="none" stroke="black" d="M2484.4,-639C2492.39,-639 2501.31,-639 2509.82,-639"/>
<polygon fill="black" stroke="black" points="2509.92,-642.5 2519.92,-639 2509.92,-635.5 2509.92,-642.5"/>
</g>
<!-- 2699321241024 -->
<g id="node25" class="node"><title>2699321241024</title>
<polygon fill="none" stroke="black" points="684,-725 630,-725 630,-689 684,-689 684,-725"/>
<text text-anchor="middle" x="657" y="-703.9" font-family="Times New Roman,serif" font-size="12.00">C</text>
</g>
<!-- 2699321241552 -->
<g id="node61" class="node"><title>2699321241552</title>
<ellipse fill="none" stroke="black" cx="747" cy="-707" rx="27" ry="27"/>
</g>
<!-- 2699321241024&#45;&gt;2699321241552 -->
<g id="edge11" class="edge"><title>2699321241024&#45;&gt;2699321241552</title>
<path fill="none" stroke="black" d="M684.403,-707C692.393,-707 701.311,-707 709.824,-707"/>
<polygon fill="black" stroke="black" points="709.919,-710.5 719.919,-707 709.919,-703.5 709.919,-710.5"/>
</g>
<!-- 2699320594496 -->
<g id="node26" class="node"><title>2699320594496</title>
<polygon fill="none" stroke="black" points="1224,-712 1170,-712 1170,-676 1224,-676 1224,-712"/>
<text text-anchor="middle" x="1197" y="-690.9" font-family="Times New Roman,serif" font-size="12.00">F</text>
</g>
<!-- 2699320594592 -->
<g id="node53" class="node"><title>2699320594592</title>
<ellipse fill="none" stroke="black" cx="1287" cy="-699" rx="27" ry="27"/>
</g>
<!-- 2699320594496&#45;&gt;2699320594592 -->
<g id="edge15" class="edge"><title>2699320594496&#45;&gt;2699320594592</title>
<path fill="none" stroke="black" d="M1224.4,-695.5C1232.39,-695.954 1241.31,-696.461 1249.82,-696.945"/>
<polygon fill="black" stroke="black" points="1249.74,-700.445 1259.92,-697.518 1250.13,-693.456 1249.74,-700.445"/>
</g>
<!-- 2699321241168 -->
<g id="node27" class="node"><title>2699321241168</title>
<polygon fill="none" stroke="black" points="864,-725 810,-725 810,-689 864,-689 864,-725"/>
<text text-anchor="middle" x="837" y="-703.9" font-family="Times New Roman,serif" font-size="12.00">D</text>
</g>
<!-- 2699321241408 -->
<g id="node63" class="node"><title>2699321241408</title>
<ellipse fill="none" stroke="black" cx="927" cy="-707" rx="27" ry="27"/>
</g>
<!-- 2699321241168&#45;&gt;2699321241408 -->
<g id="edge12" class="edge"><title>2699321241168&#45;&gt;2699321241408</title>
<path fill="none" stroke="black" d="M864.403,-707C872.393,-707 881.311,-707 889.824,-707"/>
<polygon fill="black" stroke="black" points="889.919,-710.5 899.919,-707 889.919,-703.5 889.919,-710.5"/>
</g>
<!-- 2699320596944 -->
<g id="node28" class="node"><title>2699320596944</title>
<polygon fill="none" stroke="black" points="2124,-664 2070,-664 2070,-628 2124,-628 2124,-664"/>
<text text-anchor="middle" x="2097" y="-642.9" font-family="Times New Roman,serif" font-size="12.00">Q</text>
</g>
<!-- 2699320597136 -->
<g id="node50" class="node"><title>2699320597136</title>
<ellipse fill="none" stroke="black" cx="2187" cy="-639" rx="27" ry="27"/>
</g>
<!-- 2699320596944&#45;&gt;2699320597136 -->
<g id="edge16" class="edge"><title>2699320596944&#45;&gt;2699320597136</title>
<path fill="none" stroke="black" d="M2124.4,-643.9C2132.39,-643.264 2141.31,-642.555 2149.82,-641.878"/>
<polygon fill="black" stroke="black" points="2150.23,-645.357 2159.92,-641.075 2149.67,-638.379 2150.23,-645.357"/>
</g>
<!-- 2699330859600 -->
<g id="node29" class="node"><title>2699330859600</title>
<polygon fill="black" stroke="black" points="3384,-134 3330,-134 3330,-98 3384,-98 3384,-134"/>
</g>
<!-- 2699330859120 -->
<g id="node48" class="node"><title>2699330859120</title>
<ellipse fill="none" stroke="black" cx="3447" cy="-320" rx="27" ry="27"/>
</g>
<!-- 2699330859600&#45;&gt;2699330859120 -->
<g id="edge78" class="edge"><title>2699330859600&#45;&gt;2699330859120</title>
<path fill="none" stroke="black" d="M3365.81,-134.104C3380.51,-168.19 3412.52,-242.385 3431.35,-286.032"/>
<polygon fill="black" stroke="black" points="3428.2,-287.584 3435.38,-295.38 3434.63,-284.812 3428.2,-287.584"/>
</g>
<!-- 2699321237712 -->
<g id="node30" class="node"><title>2699321237712</title>
<polygon fill="none" stroke="black" points="3204,-506 3150,-506 3150,-470 3204,-470 3204,-506"/>
<text text-anchor="middle" x="3177" y="-484.9" font-family="Times New Roman,serif" font-size="12.00">O</text>
</g>
<!-- 2699321237712&#45;&gt;2699321237952 -->
<g id="edge2" class="edge"><title>2699321237712&#45;&gt;2699321237952</title>
<path fill="none" stroke="black" d="M3197.05,-469.824C3199.55,-466.996 3201.95,-464.011 3204,-461 3225.51,-429.455 3242.88,-389.247 3253.7,-360.945"/>
<polygon fill="black" stroke="black" points="3257.02,-362.057 3257.25,-351.464 3250.46,-359.602 3257.02,-362.057"/>
</g>
<!-- 2699323757904 -->
<g id="node31" class="node"><title>2699323757904</title>
<polygon fill="black" stroke="black" points="144,-695 90,-695 90,-659 144,-659 144,-695"/>
</g>
<!-- 2699330289520 -->
<g id="node55" class="node"><title>2699330289520</title>
<ellipse fill="none" stroke="black" cx="207" cy="-677" rx="27" ry="27"/>
</g>
<!-- 2699323757904&#45;&gt;2699330289520 -->
<g id="edge82" class="edge"><title>2699323757904&#45;&gt;2699330289520</title>
<path fill="none" stroke="black" d="M144.403,-677C152.393,-677 161.311,-677 169.824,-677"/>
<polygon fill="black" stroke="black" points="169.919,-680.5 179.919,-677 169.919,-673.5 169.919,-680.5"/>
</g>
<!-- 2699320597856 -->
<g id="node32" class="node"><title>2699320597856</title>
<polygon fill="black" stroke="black" points="2664,-325 2610,-325 2610,-289 2664,-289 2664,-325"/>
</g>
<!-- 2699320597376 -->
<g id="node46" class="node"><title>2699320597376</title>
<ellipse fill="none" stroke="black" cx="2727" cy="-72" rx="27" ry="27"/>
</g>
<!-- 2699320597856&#45;&gt;2699320597376 -->
<g id="edge77" class="edge"><title>2699320597856&#45;&gt;2699320597376</title>
<path fill="none" stroke="black" d="M2644.76,-288.95C2659.36,-249.956 2694.06,-157.287 2713.05,-106.593"/>
<polygon fill="black" stroke="black" points="2716.39,-107.634 2716.62,-97.0421 2709.84,-105.18 2716.39,-107.634"/>
</g>
<!-- 2699330860128 -->
<g id="node33" class="node"><title>2699330860128</title>
<polygon fill="black" stroke="black" points="3744,-459 3690,-459 3690,-423 3744,-423 3744,-459"/>
</g>
<!-- 2699330860464 -->
<g id="node73" class="node"><title>2699330860464</title>
<ellipse fill="none" stroke="black" cx="3807" cy="-574" rx="27" ry="27"/>
</g>
<!-- 2699330860128&#45;&gt;2699330860464 -->
<g id="edge81" class="edge"><title>2699330860128&#45;&gt;2699330860464</title>
<path fill="none" stroke="black" d="M3730.05,-459.214C3744.35,-480.818 3768.4,-517.174 3785.61,-543.184"/>
<polygon fill="black" stroke="black" points="3782.72,-545.163 3791.16,-551.571 3788.56,-541.3 3782.72,-545.163"/>
</g>
<!-- 2699321237856 -->
<g id="node34" class="node"><title>2699321237856</title>
<polygon fill="none" stroke="black" points="3204,-452 3150,-452 3150,-416 3204,-416 3204,-452"/>
<text text-anchor="middle" x="3177" y="-430.9" font-family="Times New Roman,serif" font-size="12.00">M</text>
</g>
<!-- 2699321237856&#45;&gt;2699321237952 -->
<g id="edge7" class="edge"><title>2699321237856&#45;&gt;2699321237952</title>
<path fill="none" stroke="black" d="M3195.91,-415.962C3198.67,-413.018 3201.46,-409.961 3204,-407 3218.12,-390.568 3232.91,-371.342 3244.49,-355.746"/>
<polygon fill="black" stroke="black" points="3247.46,-357.621 3250.58,-347.495 3241.83,-353.466 3247.46,-357.621"/>
</g>
<!-- 2699321239008 -->
<g id="node35" class="node"><title>2699321239008</title>
<polygon fill="none" stroke="black" points="3204,-398 3150,-398 3150,-362 3204,-362 3204,-398"/>
<text text-anchor="middle" x="3177" y="-376.9" font-family="Times New Roman,serif" font-size="12.00">R</text>
</g>
<!-- 2699321239008&#45;&gt;2699321237952 -->
<g id="edge1" class="edge"><title>2699321239008&#45;&gt;2699321237952</title>
<path fill="none" stroke="black" d="M3204.4,-363.798C3213.94,-357.947 3224.79,-351.286 3234.71,-345.202"/>
<polygon fill="black" stroke="black" points="3236.79,-348.031 3243.48,-339.818 3233.13,-342.065 3236.79,-348.031"/>
</g>
<!-- 2699323758048 -->
<g id="node36" class="node"><title>2699323758048</title>
<polygon fill="black" stroke="black" points="3384,-614 3330,-614 3330,-578 3384,-578 3384,-614"/>
</g>
<!-- 2699323757616 -->
<g id="node75" class="node"><title>2699323757616</title>
<ellipse fill="orange" stroke="black" cx="3447" cy="-596" rx="27" ry="27"/>
</g>
<!-- 2699323758048&#45;&gt;2699323757616 -->
<g id="edge83" class="edge"><title>2699323758048&#45;&gt;2699323757616</title>
<path fill="none" stroke="black" d="M3384.4,-596C3392.39,-596 3401.31,-596 3409.82,-596"/>
<polygon fill="black" stroke="black" points="3409.92,-599.5 3419.92,-596 3409.92,-592.5 3409.92,-599.5"/>
</g>
<!-- 2699321241456 -->
<g id="node37" class="node"><title>2699321241456</title>
<polygon fill="none" stroke="black" points="1224,-766 1170,-766 1170,-730 1224,-730 1224,-766"/>
<text text-anchor="middle" x="1197" y="-744.9" font-family="Times New Roman,serif" font-size="12.00">E</text>
</g>
<!-- 2699321241456&#45;&gt;2699320594592 -->
<g id="edge17" class="edge"><title>2699321241456&#45;&gt;2699320594592</title>
<path fill="none" stroke="black" d="M1224.4,-733.298C1233.69,-728.129 1244.22,-722.262 1253.92,-716.861"/>
<polygon fill="black" stroke="black" points="1255.86,-719.786 1262.9,-711.863 1252.46,-713.67 1255.86,-719.786"/>
</g>
<!-- 2699320596080 -->
<g id="node38" class="node"><title>2699320596080</title>
<polygon fill="black" stroke="black" points="504,-720 450,-720 450,-684 504,-684 504,-720"/>
</g>
<!-- 2699321240880 -->
<g id="node59" class="node"><title>2699321240880</title>
<ellipse fill="none" stroke="black" cx="567" cy="-707" rx="27" ry="27"/>
</g>
<!-- 2699320596080&#45;&gt;2699321240880 -->
<g id="edge84" class="edge"><title>2699320596080&#45;&gt;2699321240880</title>
<path fill="none" stroke="black" d="M504.403,-703.5C512.393,-703.954 521.311,-704.461 529.824,-704.945"/>
<polygon fill="black" stroke="black" points="529.737,-708.445 539.919,-705.518 530.134,-701.456 529.737,-708.445"/>
</g>
<!-- 2699320597232 -->
<g id="node39" class="node"><title>2699320597232</title>
<polygon fill="none" stroke="black" points="2484,-331 2430,-331 2430,-295 2484,-295 2484,-331"/>
<text text-anchor="middle" x="2457" y="-309.9" font-family="Times New Roman,serif" font-size="12.00">X</text>
</g>
<!-- 2699330859168 -->
<g id="node67" class="node"><title>2699330859168</title>
<ellipse fill="none" stroke="black" cx="2547" cy="-308" rx="27" ry="27"/>
</g>
<!-- 2699320597232&#45;&gt;2699330859168 -->
<g id="edge14" class="edge"><title>2699320597232&#45;&gt;2699330859168</title>
<path fill="none" stroke="black" d="M2484.4,-311.5C2492.39,-311.046 2501.31,-310.539 2509.82,-310.055"/>
<polygon fill="black" stroke="black" points="2510.13,-313.544 2519.92,-309.482 2509.74,-306.555 2510.13,-313.544"/>
</g>
<!-- 2699320598384 -->
<g id="node40" class="node"><title>2699320598384</title>
<polygon fill="black" stroke="black" points="3024,-81 2970,-81 2970,-45 3024,-45 3024,-81"/>
</g>
<!-- 2699330860272 -->
<g id="node69" class="node"><title>2699330860272</title>
<ellipse fill="none" stroke="black" cx="3087" cy="-63" rx="27" ry="27"/>
</g>
<!-- 2699320598384&#45;&gt;2699330860272 -->
<g id="edge79" class="edge"><title>2699320598384&#45;&gt;2699330860272</title>
<path fill="none" stroke="black" d="M3024.4,-63C3032.39,-63 3041.31,-63 3049.82,-63"/>
<polygon fill="black" stroke="black" points="3049.92,-66.5001 3059.92,-63 3049.92,-59.5001 3049.92,-66.5001"/>
</g>
<!-- 2699330862192 -->
<g id="node41" class="node"><title>2699330862192</title>
<polygon fill="black" stroke="black" points="2844,-506 2790,-506 2790,-470 2844,-470 2844,-506"/>
</g>
<!-- 2699321237904 -->
<g id="node62" class="node"><title>2699321237904</title>
<ellipse fill="none" stroke="black" cx="2907" cy="-488" rx="27" ry="27"/>
</g>
<!-- 2699330862192&#45;&gt;2699321237904 -->
<g id="edge8" class="edge"><title>2699330862192&#45;&gt;2699321237904</title>
<path fill="none" stroke="black" d="M2844.4,-488C2852.39,-488 2861.31,-488 2869.82,-488"/>
<polygon fill="black" stroke="black" points="2869.92,-491.5 2879.92,-488 2869.92,-484.5 2869.92,-491.5"/>
</g>
<!-- 2699321238384 -->
<g id="node42" class="node"><title>2699321238384</title>
<polygon fill="none" stroke="black" points="3204,-344 3150,-344 3150,-308 3204,-308 3204,-344"/>
<text text-anchor="middle" x="3177" y="-322.9" font-family="Times New Roman,serif" font-size="12.00">K</text>
</g>
<!-- 2699321238384&#45;&gt;2699321237952 -->
<g id="edge10" class="edge"><title>2699321238384&#45;&gt;2699321237952</title>
<path fill="none" stroke="black" d="M3204.4,-326C3212.39,-326 3221.31,-326 3229.82,-326"/>
<polygon fill="black" stroke="black" points="3229.92,-329.5 3239.92,-326 3229.92,-322.5 3229.92,-329.5"/>
</g>
<!-- 2699330288752 -->
<g id="node43" class="node"><title>2699330288752</title>
<polygon fill="black" stroke="black" points="2664,-618 2610,-618 2610,-582 2664,-582 2664,-618"/>
</g>
<!-- 2699330288752&#45;&gt;2699321239104 -->
<g id="edge70" class="edge"><title>2699330288752&#45;&gt;2699321239104</title>
<path fill="none" stroke="black" d="M2652.53,-581.505C2666.35,-563.922 2687.34,-537.208 2703.35,-516.83"/>
<polygon fill="black" stroke="black" points="2706.22,-518.834 2709.65,-508.808 2700.72,-514.509 2706.22,-518.834"/>
</g>
<!-- 2699330289136 -->
<g id="node44" class="node"><title>2699330289136</title>
<polygon fill="black" stroke="black" points="3204,-668 3150,-668 3150,-632 3204,-632 3204,-668"/>
</g>
<!-- 2699330289136&#45;&gt;2699320597040 -->
<g id="edge9" class="edge"><title>2699330289136&#45;&gt;2699320597040</title>
<path fill="none" stroke="black" d="M3149.76,-650C3115.04,-650 3051.93,-650 2998,-650 2726,-650 2726,-650 2726,-650 2676.68,-650 2619.83,-645.742 2583.91,-642.524"/>
<polygon fill="black" stroke="black" points="2584.19,-639.035 2573.91,-641.607 2583.55,-646.006 2584.19,-639.035"/>
</g>
<!-- 2699323758960 -->
<g id="node45" class="node"><title>2699323758960</title>
<ellipse fill="green" stroke="black" cx="27" cy="-677" rx="27" ry="27"/>
<text text-anchor="middle" x="27" y="-673.9" font-family="Times New Roman,serif" font-size="12.00">1</text>
</g>
<!-- 2699323758960&#45;&gt;2699323757904 -->
<g id="edge47" class="edge"><title>2699323758960&#45;&gt;2699323757904</title>
<path fill="none" stroke="black" d="M54.4029,-677C62.3932,-677 71.3106,-677 79.8241,-677"/>
<polygon fill="black" stroke="black" points="79.919,-680.5 89.919,-677 79.919,-673.5 79.919,-680.5"/>
</g>
<!-- 2699320597376&#45;&gt;2699320597520 -->
<g id="edge23" class="edge"><title>2699320597376&#45;&gt;2699320597520</title>
<path fill="none" stroke="black" d="M2750.66,-58.0937C2759.96,-52.3896 2770.93,-45.6569 2781.2,-39.3538"/>
<polygon fill="black" stroke="black" points="2783.3,-42.1754 2789.99,-33.9621 2779.63,-36.2092 2783.3,-42.1754"/>
</g>
<!-- 2699320597376&#45;&gt;2699320597664 -->
<g id="edge24" class="edge"><title>2699320597376&#45;&gt;2699320597664</title>
<path fill="none" stroke="black" d="M2754.4,-72C2762.39,-72 2771.31,-72 2779.82,-72"/>
<polygon fill="black" stroke="black" points="2779.92,-75.5001 2789.92,-72 2779.92,-68.5001 2779.92,-75.5001"/>
</g>
<!-- 2699321241312&#45;&gt;2699320594496 -->
<g id="edge25" class="edge"><title>2699321241312&#45;&gt;2699320594496</title>
<path fill="none" stroke="black" d="M1133.93,-703.17C1142.09,-701.964 1151.26,-700.61 1159.99,-699.32"/>
<polygon fill="black" stroke="black" points="1160.57,-702.772 1169.95,-697.848 1159.55,-695.847 1160.57,-702.772"/>
</g>
<!-- 2699321241312&#45;&gt;2699321241456 -->
<g id="edge26" class="edge"><title>2699321241312&#45;&gt;2699321241456</title>
<path fill="none" stroke="black" d="M1132.05,-718.203C1140.82,-722.293 1150.95,-727.01 1160.51,-731.466"/>
<polygon fill="black" stroke="black" points="1159.28,-734.752 1169.82,-735.803 1162.23,-728.407 1159.28,-734.752"/>
</g>
<!-- 2699330859120&#45;&gt;2699330859264 -->
<g id="edge28" class="edge"><title>2699330859120&#45;&gt;2699330859264</title>
<path fill="none" stroke="black" d="M3474.4,-320C3482.39,-320 3491.31,-320 3499.82,-320"/>
<polygon fill="black" stroke="black" points="3499.92,-323.5 3509.92,-320 3499.92,-316.5 3499.92,-323.5"/>
</g>
<!-- 2699330859120&#45;&gt;2699330859408 -->
<g id="edge27" class="edge"><title>2699330859120&#45;&gt;2699330859408</title>
<path fill="none" stroke="black" d="M3470.66,-333.906C3479.96,-339.61 3490.93,-346.343 3501.2,-352.646"/>
<polygon fill="black" stroke="black" points="3499.63,-355.791 3509.99,-358.038 3503.3,-349.825 3499.63,-355.791"/>
</g>
<!-- 2699321237760&#45;&gt;2699321238144 -->
<g id="edge31" class="edge"><title>2699321237760&#45;&gt;2699321238144</title>
<path fill="none" stroke="black" d="M3103.42,-358.505C3115.6,-341.874 3133.26,-318.475 3150,-299 3150.4,-298.537 3150.8,-298.072 3151.21,-297.606"/>
<polygon fill="black" stroke="black" points="3153.95,-299.792 3158.09,-290.038 3148.77,-295.082 3153.95,-299.792"/>
</g>
<!-- 2699321237760&#45;&gt;2699330862480 -->
<g id="edge32" class="edge"><title>2699321237760&#45;&gt;2699330862480</title>
<path fill="none" stroke="black" d="M3096.75,-354.536C3107.08,-326.355 3125.95,-280.264 3150,-245 3150.19,-244.718 3150.39,-244.436 3150.59,-244.154"/>
<polygon fill="black" stroke="black" points="3153.45,-246.177 3156.95,-236.176 3147.98,-241.813 3153.45,-246.177"/>
</g>
<!-- 2699321237760&#45;&gt;2699321238816 -->
<g id="edge33" class="edge"><title>2699321237760&#45;&gt;2699321238816</title>
<path fill="none" stroke="black" d="M3092.8,-353.364C3100.51,-315.264 3118.13,-243.962 3150,-191 3150.11,-190.812 3150.23,-190.624 3150.34,-190.436"/>
<polygon fill="black" stroke="black" points="3153.24,-192.403 3156.37,-182.279 3147.61,-188.245 3153.24,-192.403"/>
</g>
<!-- 2699321237760&#45;&gt;2699321238576 -->
<g id="edge36" class="edge"><title>2699321237760&#45;&gt;2699321238576</title>
<path fill="none" stroke="black" d="M3096.75,-405.464C3107.08,-433.645 3125.95,-479.736 3150,-515 3150.19,-515.282 3150.39,-515.564 3150.59,-515.846"/>
<polygon fill="black" stroke="black" points="3147.98,-518.187 3156.95,-523.824 3153.45,-513.823 3147.98,-518.187"/>
</g>
<!-- 2699321237760&#45;&gt;2699321237712 -->
<g id="edge30" class="edge"><title>2699321237760&#45;&gt;2699321237712</title>
<path fill="none" stroke="black" d="M3103.42,-401.495C3115.6,-418.126 3133.26,-441.525 3150,-461 3150.4,-461.463 3150.8,-461.928 3151.21,-462.394"/>
<polygon fill="black" stroke="black" points="3148.77,-464.918 3158.09,-469.962 3153.95,-460.208 3148.77,-464.918"/>
</g>
<!-- 2699321237760&#45;&gt;2699321237856 -->
<g id="edge34" class="edge"><title>2699321237760&#45;&gt;2699321237856</title>
<path fill="none" stroke="black" d="M3110.66,-393.906C3119.96,-399.61 3130.93,-406.343 3141.2,-412.646"/>
<polygon fill="black" stroke="black" points="3139.63,-415.791 3149.99,-418.038 3143.3,-409.825 3139.63,-415.791"/>
</g>
<!-- 2699321237760&#45;&gt;2699321239008 -->
<g id="edge29" class="edge"><title>2699321237760&#45;&gt;2699321239008</title>
<path fill="none" stroke="black" d="M3114.4,-380C3122.39,-380 3131.31,-380 3139.82,-380"/>
<polygon fill="black" stroke="black" points="3139.92,-383.5 3149.92,-380 3139.92,-376.5 3139.92,-383.5"/>
</g>
<!-- 2699321237760&#45;&gt;2699321238384 -->
<g id="edge35" class="edge"><title>2699321237760&#45;&gt;2699321238384</title>
<path fill="none" stroke="black" d="M3110.66,-366.094C3119.96,-360.39 3130.93,-353.657 3141.2,-347.354"/>
<polygon fill="black" stroke="black" points="3143.3,-350.175 3149.99,-341.962 3139.63,-344.209 3143.3,-350.175"/>
</g>
<!-- 2699320597136&#45;&gt;2699330861328 -->
<g id="edge37" class="edge"><title>2699320597136&#45;&gt;2699330861328</title>
<path fill="none" stroke="black" d="M2195.58,-613.249C2211.98,-557.507 2250.68,-426.04 2267.71,-368.175"/>
<polygon fill="black" stroke="black" points="2271.16,-368.843 2270.63,-358.262 2264.44,-366.866 2271.16,-368.843"/>
</g>
<!-- 2699320597136&#45;&gt;2699330861856 -->
<g id="edge38" class="edge"><title>2699320597136&#45;&gt;2699330861856</title>
<path fill="none" stroke="black" d="M2214.4,-639C2222.39,-639 2231.31,-639 2239.82,-639"/>
<polygon fill="black" stroke="black" points="2239.92,-642.5 2249.92,-639 2239.92,-635.5 2239.92,-642.5"/>
</g>
<!-- 2699330859504&#45;&gt;2699330860128 -->
<g id="edge39" class="edge"><title>2699330859504&#45;&gt;2699330860128</title>
<path fill="none" stroke="black" d="M3648.85,-389.878C3659.32,-397.85 3672.24,-407.682 3683.94,-416.588"/>
<polygon fill="black" stroke="black" points="3682.11,-419.596 3692.19,-422.869 3686.35,-414.026 3682.11,-419.596"/>
</g>
<!-- 2699320597760&#45;&gt;2699320598384 -->
<g id="edge40" class="edge"><title>2699320597760&#45;&gt;2699320598384</title>
<path fill="none" stroke="black" d="M2934.4,-63C2942.39,-63 2951.31,-63 2959.82,-63"/>
<polygon fill="black" stroke="black" points="2959.92,-66.5001 2969.92,-63 2959.92,-59.5001 2959.92,-66.5001"/>
</g>
<!-- 2699320594592&#45;&gt;2699320595216 -->
<g id="edge41" class="edge"><title>2699320594592&#45;&gt;2699320595216</title>
<path fill="none" stroke="black" d="M1314.4,-699C1322.39,-699 1331.31,-699 1339.82,-699"/>
<polygon fill="black" stroke="black" points="1339.92,-702.5 1349.92,-699 1339.92,-695.5 1339.92,-702.5"/>
</g>
<!-- 2699321237952&#45;&gt;2699330908416 -->
<g id="edge42" class="edge"><title>2699321237952&#45;&gt;2699330908416</title>
<path fill="none" stroke="black" d="M3290.66,-312.609C3299.96,-307.116 3310.93,-300.633 3321.2,-294.563"/>
<polygon fill="black" stroke="black" points="3323.16,-297.471 3329.99,-289.371 3319.6,-291.445 3323.16,-297.471"/>
</g>
<!-- 2699330289520&#45;&gt;2699321240976 -->
<g id="edge43" class="edge"><title>2699330289520&#45;&gt;2699321240976</title>
<path fill="none" stroke="black" d="M234.403,-677C242.393,-677 251.311,-677 259.824,-677"/>
<polygon fill="black" stroke="black" points="259.919,-680.5 269.919,-677 259.919,-673.5 259.919,-680.5"/>
</g>
<!-- 2699320596896&#45;&gt;2699330861712 -->
<g id="edge44" class="edge"><title>2699320596896&#45;&gt;2699330861712</title>
<path fill="none" stroke="black" d="M1854.4,-669C1862.39,-669 1871.31,-669 1879.82,-669"/>
<polygon fill="black" stroke="black" points="1879.92,-672.5 1889.92,-669 1879.92,-665.5 1879.92,-672.5"/>
</g>
<!-- 2699329722352&#45;&gt;2699329722160 -->
<g id="edge45" class="edge"><title>2699329722352&#45;&gt;2699329722160</title>
<path fill="none" stroke="black" d="M2394.4,-639C2402.39,-639 2411.31,-639 2419.82,-639"/>
<polygon fill="black" stroke="black" points="2419.92,-642.5 2429.92,-639 2419.92,-635.5 2419.92,-642.5"/>
</g>
<!-- 2699329722208&#45;&gt;2699323758048 -->
<g id="edge46" class="edge"><title>2699329722208&#45;&gt;2699323758048</title>
<path fill="none" stroke="black" d="M3294.4,-596C3302.39,-596 3311.31,-596 3319.82,-596"/>
<polygon fill="black" stroke="black" points="3319.92,-599.5 3329.92,-596 3319.92,-592.5 3319.92,-599.5"/>
</g>
<!-- 2699321240880&#45;&gt;2699321241024 -->
<g id="edge48" class="edge"><title>2699321240880&#45;&gt;2699321241024</title>
<path fill="none" stroke="black" d="M594.403,-707C602.393,-707 611.311,-707 619.824,-707"/>
<polygon fill="black" stroke="black" points="619.919,-710.5 629.919,-707 619.919,-703.5 619.919,-710.5"/>
</g>
<!-- 2699321239104&#45;&gt;2699330862192 -->
<g id="edge49" class="edge"><title>2699321239104&#45;&gt;2699330862192</title>
<path fill="none" stroke="black" d="M2754.4,-488C2762.39,-488 2771.31,-488 2779.82,-488"/>
<polygon fill="black" stroke="black" points="2779.92,-491.5 2789.92,-488 2779.92,-484.5 2779.92,-491.5"/>
</g>
<!-- 2699321241552&#45;&gt;2699321241168 -->
<g id="edge50" class="edge"><title>2699321241552&#45;&gt;2699321241168</title>
<path fill="none" stroke="black" d="M774.403,-707C782.393,-707 791.311,-707 799.824,-707"/>
<polygon fill="black" stroke="black" points="799.919,-710.5 809.919,-707 799.919,-703.5 799.919,-710.5"/>
</g>
<!-- 2699321237904&#45;&gt;2699330289040 -->
<g id="edge51" class="edge"><title>2699321237904&#45;&gt;2699330289040</title>
<path fill="none" stroke="black" d="M2924.76,-508.378C2938.92,-525.597 2959.29,-550.362 2974.62,-569.006"/>
<polygon fill="black" stroke="black" points="2972.01,-571.336 2981.06,-576.837 2977.41,-566.89 2972.01,-571.336"/>
</g>
<!-- 2699321237904&#45;&gt;2699320934304 -->
<g id="edge52" class="edge"><title>2699321237904&#45;&gt;2699320934304</title>
<path fill="none" stroke="black" d="M2930.66,-474.094C2939.96,-468.39 2950.93,-461.657 2961.2,-455.354"/>
<polygon fill="black" stroke="black" points="2963.3,-458.175 2969.99,-449.962 2959.63,-452.209 2963.3,-458.175"/>
</g>
<!-- 2699321241408&#45;&gt;2699320594688 -->
<g id="edge53" class="edge"><title>2699321241408&#45;&gt;2699320594688</title>
<path fill="none" stroke="black" d="M954.403,-707C962.393,-707 971.311,-707 979.824,-707"/>
<polygon fill="black" stroke="black" points="979.919,-710.5 989.919,-707 979.919,-703.5 979.919,-710.5"/>
</g>
<!-- 2699330859312&#45;&gt;2699320597232 -->
<g id="edge54" class="edge"><title>2699330859312&#45;&gt;2699320597232</title>
<path fill="none" stroke="black" d="M2393.93,-319.348C2402.09,-318.514 2411.26,-317.576 2419.99,-316.683"/>
<polygon fill="black" stroke="black" points="2420.36,-320.163 2429.95,-315.664 2419.65,-313.199 2420.36,-320.163"/>
</g>
<!-- 2699320597040&#45;&gt;2699330288752 -->
<g id="edge55" class="edge"><title>2699320597040&#45;&gt;2699330288752</title>
<path fill="none" stroke="black" d="M2572.05,-628.343C2580.82,-624.453 2590.95,-619.966 2600.51,-615.728"/>
<polygon fill="black" stroke="black" points="2602.1,-618.854 2609.82,-611.602 2599.26,-612.454 2602.1,-618.854"/>
</g>
<!-- 2699320595408&#45;&gt;2699320596224 -->
<g id="edge56" class="edge"><title>2699320595408&#45;&gt;2699320596224</title>
<path fill="none" stroke="black" d="M1494.4,-697.5C1502.39,-697.046 1511.31,-696.539 1519.82,-696.055"/>
<polygon fill="black" stroke="black" points="1520.13,-699.544 1529.92,-695.482 1519.74,-692.555 1520.13,-699.544"/>
</g>
<!-- 2699330859168&#45;&gt;2699320597856 -->
<g id="edge57" class="edge"><title>2699330859168&#45;&gt;2699320597856</title>
<path fill="none" stroke="black" d="M2574.4,-307.7C2582.39,-307.609 2591.31,-307.508 2599.82,-307.411"/>
<polygon fill="black" stroke="black" points="2599.96,-310.91 2609.92,-307.296 2599.88,-303.91 2599.96,-310.91"/>
</g>
<!-- 2699330289232&#45;&gt;2699329722256 -->
<g id="edge59" class="edge"><title>2699330289232&#45;&gt;2699329722256</title>
<path fill="none" stroke="black" d="M3114.4,-595.3C3122.39,-595.391 3131.31,-595.492 3139.82,-595.589"/>
<polygon fill="black" stroke="black" points="3139.88,-599.09 3149.92,-595.704 3139.96,-592.09 3139.88,-599.09"/>
</g>
<!-- 2699330289232&#45;&gt;2699330289136 -->
<g id="edge58" class="edge"><title>2699330289232&#45;&gt;2699330289136</title>
<path fill="none" stroke="black" d="M3110.21,-608.879C3119.59,-614.746 3130.75,-621.72 3141.19,-628.243"/>
<polygon fill="black" stroke="black" points="3139.4,-631.25 3149.73,-633.582 3143.11,-625.314 3139.4,-631.25"/>
</g>
<!-- 2699330860272&#45;&gt;2699320597424 -->
<g id="edge60" class="edge"><title>2699330860272&#45;&gt;2699320597424</title>
<path fill="none" stroke="black" d="M3114.4,-63C3122.39,-63 3131.31,-63 3139.82,-63"/>
<polygon fill="black" stroke="black" points="3139.92,-66.5001 3149.92,-63 3139.92,-59.5001 3139.92,-66.5001"/>
</g>
<!-- 2699321240592&#45;&gt;2699321240736 -->
<g id="edge61" class="edge"><title>2699321240592&#45;&gt;2699321240736</title>
<path fill="none" stroke="black" d="M413.883,-672.202C444.379,-666.548 495.246,-657.117 529.678,-650.734"/>
<polygon fill="black" stroke="black" points="530.602,-654.122 539.796,-648.858 529.326,-647.24 530.602,-654.122"/>
</g>
<!-- 2699321240592&#45;&gt;2699320596080 -->
<g id="edge62" class="edge"><title>2699321240592&#45;&gt;2699320596080</title>
<path fill="none" stroke="black" d="M413.453,-684.231C421.788,-686.599 431.21,-689.276 440.165,-691.82"/>
<polygon fill="black" stroke="black" points="439.417,-695.246 449.993,-694.612 441.33,-688.512 439.417,-695.246"/>
</g>
<!-- 2699330860368&#45;&gt;2699330859600 -->
<g id="edge63" class="edge"><title>2699330860368&#45;&gt;2699330859600</title>
<path fill="none" stroke="black" d="M3290.66,-76.6488C3299.96,-82.2472 3310.93,-88.8553 3321.2,-95.0416"/>
<polygon fill="black" stroke="black" points="3319.62,-98.1724 3329.99,-100.334 3323.23,-92.176 3319.62,-98.1724"/>
</g>
<!-- 2699321241264&#45;&gt;2699320596752 -->
<g id="edge64" class="edge"><title>2699321241264&#45;&gt;2699320596752</title>
<path fill="none" stroke="black" d="M1674.4,-669C1682.39,-669 1691.31,-669 1699.82,-669"/>
<polygon fill="black" stroke="black" points="1699.92,-672.5 1709.92,-669 1699.92,-665.5 1699.92,-672.5"/>
</g>
<!-- 2699330860464&#45;&gt;2699330861472 -->
<g id="edge65" class="edge"><title>2699330860464&#45;&gt;2699330861472</title>
<path fill="none" stroke="black" d="M3829.75,-589.079C3839.31,-595.704 3850.77,-603.648 3861.45,-611.05"/>
<polygon fill="black" stroke="black" points="3859.58,-614.016 3869.8,-616.836 3863.57,-608.263 3859.58,-614.016"/>
</g>
<!-- 2699321240640&#45;&gt;2699320596944 -->
<g id="edge66" class="edge"><title>2699321240640&#45;&gt;2699320596944</title>
<path fill="none" stroke="black" d="M2033.45,-662.347C2041.79,-660.169 2051.21,-657.706 2060.16,-655.366"/>
<polygon fill="black" stroke="black" points="2061.2,-658.712 2069.99,-652.797 2059.43,-651.94 2061.2,-658.712"/>
</g>
</g>
</svg>
