<?xml version="1.0" encoding="UTF-8" standalone="no"?>
<!DOCTYPE svg PUBLIC "-//W3C//DTD SVG 1.1//EN"
 "http://www.w3.org/Graphics/SVG/1.1/DTD/svg11.dtd">
<!-- Generated by graphviz version 2.38.0 (20140413.2041)
 -->
<!-- Title: &#45;&gt;( X( &#39;A1&#39;, &#39;A2&#39; ), &#39;B&#39;, &#39;C&#39;, X( &#39;D1&#39;, &#39;D2&#39; ), &#39;E1&#39;, &#39;E2&#39;, &#39;F&#39; ) Pages: 1 -->
<svg width="2402pt" height="195pt"
 viewBox="0.00 0.00 2402.00 195.00" xmlns="http://www.w3.org/2000/svg" xmlns:xlink="http://www.w3.org/1999/xlink">
<g id="graph0" class="graph" transform="scale(1 1) rotate(0) translate(4 191)">
<title>&#45;&gt;( X( &#39;A1&#39;, &#39;A2&#39; ), &#39;B&#39;, &#39;C&#39;, X( &#39;D1&#39;, &#39;D2&#39; ), &#39;E1&#39;, &#39;E2&#39;, &#39;F&#39; )</title>
<!-- 2399484623744 -->
<g id="node1" class="node"><title>2399484623744</title>
<polygon fill="none" stroke="black" points="504,-144 450,-144 450,-108 504,-108 504,-144"/>
<text text-anchor="middle" x="477" y="-122.9" font-family="Times New Roman,serif" font-size="12.00">A1</text>
</g>
<!-- 2399484623600 -->
<g id="node23" class="node"><title>2399484623600</title>
<ellipse fill="none" stroke="black" cx="567" cy="-99" rx="27" ry="27"/>
</g>
<!-- 2399484623744&#45;&gt;2399484623600 -->
<g id="edge6" class="edge"><title>2399484623744&#45;&gt;2399484623600</title>
<path fill="none" stroke="black" d="M504.403,-117.899C512.79,-115.326 522.197,-112.439 531.088,-109.712"/>
<polygon fill="black" stroke="black" points="532.29,-113.004 540.823,-106.725 530.236,-106.312 532.29,-113.004"/>
</g>
<!-- 2399484623504 -->
<g id="node31" class="node"><title>2399484623504</title>
<ellipse fill="none" stroke="black" cx="657" cy="-160" rx="27" ry="27"/>
</g>
<!-- 2399484623744&#45;&gt;2399484623504 -->
<g id="edge7" class="edge"><title>2399484623744&#45;&gt;2399484623504</title>
<path fill="none" stroke="black" d="M504.265,-131.017C534.939,-136.876 585.841,-146.599 620.137,-153.15"/>
<polygon fill="black" stroke="black" points="619.727,-156.635 630.206,-155.073 621.041,-149.759 619.727,-156.635"/>
</g>
<!-- 2399484740224 -->
<g id="node2" class="node"><title>2399484740224</title>
<polygon fill="black" stroke="black" points="144,-117 90,-117 90,-81 144,-81 144,-117"/>
</g>
<!-- 2399484623552 -->
<g id="node25" class="node"><title>2399484623552</title>
<ellipse fill="none" stroke="black" cx="207" cy="-99" rx="27" ry="27"/>
</g>
<!-- 2399484740224&#45;&gt;2399484623552 -->
<g id="edge31" class="edge"><title>2399484740224&#45;&gt;2399484623552</title>
<path fill="none" stroke="black" d="M144.403,-99C152.393,-99 161.311,-99 169.824,-99"/>
<polygon fill="black" stroke="black" points="169.919,-102.5 179.919,-99 169.919,-95.5001 169.919,-102.5"/>
</g>
<!-- 2399484624656 -->
<g id="node3" class="node"><title>2399484624656</title>
<polygon fill="black" stroke="black" points="324,-117 270,-117 270,-81 324,-81 324,-117"/>
</g>
<!-- 2399484623984 -->
<g id="node19" class="node"><title>2399484623984</title>
<ellipse fill="none" stroke="black" cx="387" cy="-99" rx="27" ry="27"/>
</g>
<!-- 2399484624656&#45;&gt;2399484623984 -->
<g id="edge34" class="edge"><title>2399484624656&#45;&gt;2399484623984</title>
<path fill="none" stroke="black" d="M324.403,-99C332.393,-99 341.311,-99 349.824,-99"/>
<polygon fill="black" stroke="black" points="349.919,-102.5 359.919,-99 349.919,-95.5001 349.919,-102.5"/>
</g>
<!-- 2399484381456 -->
<g id="node4" class="node"><title>2399484381456</title>
<polygon fill="black" stroke="black" points="1224,-117 1170,-117 1170,-81 1224,-81 1224,-117"/>
</g>
<!-- 2399484380976 -->
<g id="node20" class="node"><title>2399484380976</title>
<ellipse fill="none" stroke="black" cx="1287" cy="-99" rx="27" ry="27"/>
</g>
<!-- 2399484381456&#45;&gt;2399484380976 -->
<g id="edge33" class="edge"><title>2399484381456&#45;&gt;2399484380976</title>
<path fill="none" stroke="black" d="M1224.4,-99C1232.39,-99 1241.31,-99 1249.82,-99"/>
<polygon fill="black" stroke="black" points="1249.92,-102.5 1259.92,-99 1249.92,-95.5001 1249.92,-102.5"/>
</g>
<!-- 2399484624032 -->
<g id="node5" class="node"><title>2399484624032</title>
<polygon fill="none" stroke="black" points="504,-90 450,-90 450,-54 504,-54 504,-90"/>
<text text-anchor="middle" x="477" y="-68.9" font-family="Times New Roman,serif" font-size="12.00">A2</text>
</g>
<!-- 2399484624032&#45;&gt;2399484623600 -->
<g id="edge9" class="edge"><title>2399484624032&#45;&gt;2399484623600</title>
<path fill="none" stroke="black" d="M504.403,-80.1009C512.79,-82.6741 522.197,-85.5606 531.088,-88.2883"/>
<polygon fill="black" stroke="black" points="530.236,-91.6881 540.823,-91.2753 532.29,-84.996 530.236,-91.6881"/>
</g>
<!-- 2399484740032 -->
<g id="node32" class="node"><title>2399484740032</title>
<ellipse fill="none" stroke="black" cx="567" cy="-27" rx="27" ry="27"/>
</g>
<!-- 2399484624032&#45;&gt;2399484740032 -->
<g id="edge10" class="edge"><title>2399484624032&#45;&gt;2399484740032</title>
<path fill="none" stroke="black" d="M504.403,-58.4985C513.611,-53.79 524.049,-48.452 533.683,-43.5259"/>
<polygon fill="black" stroke="black" points="535.295,-46.6323 542.605,-38.9632 532.108,-40.3999 535.295,-46.6323"/>
</g>
<!-- 2399484381984 -->
<g id="node6" class="node"><title>2399484381984</title>
<polygon fill="black" stroke="black" points="1584,-117 1530,-117 1530,-81 1584,-81 1584,-117"/>
</g>
<!-- 2399483434944 -->
<g id="node29" class="node"><title>2399483434944</title>
<ellipse fill="none" stroke="black" cx="1647" cy="-99" rx="27" ry="27"/>
</g>
<!-- 2399484381984&#45;&gt;2399483434944 -->
<g id="edge35" class="edge"><title>2399484381984&#45;&gt;2399483434944</title>
<path fill="none" stroke="black" d="M1584.4,-99C1592.39,-99 1601.31,-99 1609.82,-99"/>
<polygon fill="black" stroke="black" points="1609.92,-102.5 1619.92,-99 1609.92,-95.5001 1609.92,-102.5"/>
</g>
<!-- 2399484380832 -->
<g id="node7" class="node"><title>2399484380832</title>
<polygon fill="none" stroke="black" points="1404,-90 1350,-90 1350,-54 1404,-54 1404,-90"/>
<text text-anchor="middle" x="1377" y="-68.9" font-family="Times New Roman,serif" font-size="12.00">D2</text>
</g>
<!-- 2399484381360 -->
<g id="node24" class="node"><title>2399484381360</title>
<ellipse fill="none" stroke="black" cx="1467" cy="-99" rx="27" ry="27"/>
</g>
<!-- 2399484380832&#45;&gt;2399484381360 -->
<g id="edge2" class="edge"><title>2399484380832&#45;&gt;2399484381360</title>
<path fill="none" stroke="black" d="M1404.4,-80.1009C1412.79,-82.6741 1422.2,-85.5606 1431.09,-88.2883"/>
<polygon fill="black" stroke="black" points="1430.24,-91.6881 1440.82,-91.2753 1432.29,-84.996 1430.24,-91.6881"/>
</g>
<!-- 2399484740512 -->
<g id="node8" class="node"><title>2399484740512</title>
<polygon fill="black" stroke="black" points="774,-45 720,-45 720,-9 774,-9 774,-45"/>
</g>
<!-- 2399484741472 -->
<g id="node34" class="node"><title>2399484741472</title>
<ellipse fill="none" stroke="black" cx="927" cy="-27" rx="27" ry="27"/>
</g>
<!-- 2399484740512&#45;&gt;2399484741472 -->
<g id="edge38" class="edge"><title>2399484740512&#45;&gt;2399484741472</title>
<path fill="none" stroke="black" d="M774.265,-27C804.851,-27 855.551,-27 889.843,-27"/>
<polygon fill="black" stroke="black" points="889.918,-30.5001 899.918,-27 889.918,-23.5001 889.918,-30.5001"/>
</g>
<!-- 2399484381120 -->
<g id="node9" class="node"><title>2399484381120</title>
<polygon fill="none" stroke="black" points="1404,-144 1350,-144 1350,-108 1404,-108 1404,-144"/>
<text text-anchor="middle" x="1377" y="-122.9" font-family="Times New Roman,serif" font-size="12.00">D1</text>
</g>
<!-- 2399484381120&#45;&gt;2399484381360 -->
<g id="edge1" class="edge"><title>2399484381120&#45;&gt;2399484381360</title>
<path fill="none" stroke="black" d="M1404.4,-117.899C1412.79,-115.326 1422.2,-112.439 1431.09,-109.712"/>
<polygon fill="black" stroke="black" points="1432.29,-113.004 1440.82,-106.725 1430.24,-106.312 1432.29,-113.004"/>
</g>
<!-- 2399484740176 -->
<g id="node10" class="node"><title>2399484740176</title>
<polygon fill="black" stroke="black" points="2304,-117 2250,-117 2250,-81 2304,-81 2304,-117"/>
</g>
<!-- 2399484742816 -->
<g id="node35" class="node"><title>2399484742816</title>
<ellipse fill="orange" stroke="black" cx="2367" cy="-99" rx="27" ry="27"/>
</g>
<!-- 2399484740176&#45;&gt;2399484742816 -->
<g id="edge32" class="edge"><title>2399484740176&#45;&gt;2399484742816</title>
<path fill="none" stroke="black" d="M2304.4,-99C2312.39,-99 2321.31,-99 2329.82,-99"/>
<polygon fill="black" stroke="black" points="2329.92,-102.5 2339.92,-99 2329.92,-95.5001 2329.92,-102.5"/>
</g>
<!-- 2399484380640 -->
<g id="node11" class="node"><title>2399484380640</title>
<polygon fill="black" stroke="black" points="684,-115 630,-115 630,-79 684,-79 684,-115"/>
</g>
<!-- 2399484382416 -->
<g id="node26" class="node"><title>2399484382416</title>
<ellipse fill="none" stroke="black" cx="747" cy="-97" rx="27" ry="27"/>
</g>
<!-- 2399484380640&#45;&gt;2399484382416 -->
<g id="edge36" class="edge"><title>2399484380640&#45;&gt;2399484382416</title>
<path fill="none" stroke="black" d="M684.403,-97C692.393,-97 701.311,-97 709.824,-97"/>
<polygon fill="black" stroke="black" points="709.919,-100.5 719.919,-97 709.919,-93.5001 709.919,-100.5"/>
</g>
<!-- 2399484623840 -->
<g id="node12" class="node"><title>2399484623840</title>
<polygon fill="none" stroke="black" points="864,-115 810,-115 810,-79 864,-79 864,-115"/>
<text text-anchor="middle" x="837" y="-93.9" font-family="Times New Roman,serif" font-size="12.00">B</text>
</g>
<!-- 2399484382896 -->
<g id="node27" class="node"><title>2399484382896</title>
<ellipse fill="none" stroke="black" cx="927" cy="-99" rx="27" ry="27"/>
</g>
<!-- 2399484623840&#45;&gt;2399484382896 -->
<g id="edge8" class="edge"><title>2399484623840&#45;&gt;2399484382896</title>
<path fill="none" stroke="black" d="M864.403,-97.6001C872.393,-97.7817 881.311,-97.9843 889.824,-98.1778"/>
<polygon fill="black" stroke="black" points="889.842,-101.679 899.919,-98.4072 890.001,-94.6808 889.842,-101.679"/>
</g>
<!-- 2399484381024 -->
<g id="node13" class="node"><title>2399484381024</title>
<polygon fill="none" stroke="black" points="1764,-117 1710,-117 1710,-81 1764,-81 1764,-117"/>
<text text-anchor="middle" x="1737" y="-95.9" font-family="Times New Roman,serif" font-size="12.00">E1</text>
</g>
<!-- 2399484848688 -->
<g id="node30" class="node"><title>2399484848688</title>
<ellipse fill="none" stroke="black" cx="1827" cy="-99" rx="27" ry="27"/>
</g>
<!-- 2399484381024&#45;&gt;2399484848688 -->
<g id="edge5" class="edge"><title>2399484381024&#45;&gt;2399484848688</title>
<path fill="none" stroke="black" d="M1764.4,-99C1772.39,-99 1781.31,-99 1789.82,-99"/>
<polygon fill="black" stroke="black" points="1789.92,-102.5 1799.92,-99 1789.92,-95.5001 1789.92,-102.5"/>
</g>
<!-- 2399484382176 -->
<g id="node14" class="node"><title>2399484382176</title>
<polygon fill="none" stroke="black" points="1944,-117 1890,-117 1890,-81 1944,-81 1944,-117"/>
<text text-anchor="middle" x="1917" y="-95.9" font-family="Times New Roman,serif" font-size="12.00">E2</text>
</g>
<!-- 2399484848736 -->
<g id="node21" class="node"><title>2399484848736</title>
<ellipse fill="none" stroke="black" cx="2007" cy="-99" rx="27" ry="27"/>
</g>
<!-- 2399484382176&#45;&gt;2399484848736 -->
<g id="edge4" class="edge"><title>2399484382176&#45;&gt;2399484848736</title>
<path fill="none" stroke="black" d="M1944.4,-99C1952.39,-99 1961.31,-99 1969.82,-99"/>
<polygon fill="black" stroke="black" points="1969.92,-102.5 1979.92,-99 1969.92,-95.5001 1969.92,-102.5"/>
</g>
<!-- 2399484380784 -->
<g id="node15" class="node"><title>2399484380784</title>
<polygon fill="none" stroke="black" points="1044,-117 990,-117 990,-81 1044,-81 1044,-117"/>
<text text-anchor="middle" x="1017" y="-95.9" font-family="Times New Roman,serif" font-size="12.00">C</text>
</g>
<!-- 2399483436096 -->
<g id="node28" class="node"><title>2399483436096</title>
<ellipse fill="none" stroke="black" cx="1107" cy="-99" rx="27" ry="27"/>
</g>
<!-- 2399484380784&#45;&gt;2399483436096 -->
<g id="edge11" class="edge"><title>2399484380784&#45;&gt;2399483436096</title>
<path fill="none" stroke="black" d="M1044.4,-99C1052.39,-99 1061.31,-99 1069.82,-99"/>
<polygon fill="black" stroke="black" points="1069.92,-102.5 1079.92,-99 1069.92,-95.5001 1069.92,-102.5"/>
</g>
<!-- 2399484382320 -->
<g id="node16" class="node"><title>2399484382320</title>
<polygon fill="none" stroke="black" points="2124,-117 2070,-117 2070,-81 2124,-81 2124,-117"/>
<text text-anchor="middle" x="2097" y="-95.9" font-family="Times New Roman,serif" font-size="12.00">F</text>
</g>
<!-- 2399484848832 -->
<g id="node22" class="node"><title>2399484848832</title>
<ellipse fill="none" stroke="black" cx="2187" cy="-99" rx="27" ry="27"/>
</g>
<!-- 2399484382320&#45;&gt;2399484848832 -->
<g id="edge3" class="edge"><title>2399484382320&#45;&gt;2399484848832</title>
<path fill="none" stroke="black" d="M2124.4,-99C2132.39,-99 2141.31,-99 2149.82,-99"/>
<polygon fill="black" stroke="black" points="2149.92,-102.5 2159.92,-99 2149.92,-95.5001 2149.92,-102.5"/>
</g>
<!-- 2399481827440 -->
<g id="node17" class="node"><title>2399481827440</title>
<polygon fill="black" stroke="black" points="774,-178 720,-178 720,-142 774,-142 774,-178"/>
</g>
<!-- 2399484382272 -->
<g id="node33" class="node"><title>2399484382272</title>
<ellipse fill="none" stroke="black" cx="837" cy="-160" rx="27" ry="27"/>
</g>
<!-- 2399481827440&#45;&gt;2399484382272 -->
<g id="edge37" class="edge"><title>2399481827440&#45;&gt;2399484382272</title>
<path fill="none" stroke="black" d="M774.403,-160C782.393,-160 791.311,-160 799.824,-160"/>
<polygon fill="black" stroke="black" points="799.919,-163.5 809.919,-160 799.919,-156.5 799.919,-163.5"/>
</g>
<!-- 2399484743584 -->
<g id="node18" class="node"><title>2399484743584</title>
<ellipse fill="green" stroke="black" cx="27" cy="-99" rx="27" ry="27"/>
<text text-anchor="middle" x="27" y="-95.9" font-family="Times New Roman,serif" font-size="12.00">1</text>
</g>
<!-- 2399484743584&#45;&gt;2399484740224 -->
<g id="edge18" class="edge"><title>2399484743584&#45;&gt;2399484740224</title>
<path fill="none" stroke="black" d="M54.4029,-99C62.3932,-99 71.3106,-99 79.8241,-99"/>
<polygon fill="black" stroke="black" points="79.919,-102.5 89.919,-99 79.919,-95.5001 79.919,-102.5"/>
</g>
<!-- 2399484623984&#45;&gt;2399484623744 -->
<g id="edge12" class="edge"><title>2399484623984&#45;&gt;2399484623744</title>
<path fill="none" stroke="black" d="M412.982,-106.665C421.415,-109.252 431.003,-112.194 440.111,-114.989"/>
<polygon fill="black" stroke="black" points="439.141,-118.352 449.727,-117.939 441.194,-111.66 439.141,-118.352"/>
</g>
<!-- 2399484623984&#45;&gt;2399484624032 -->
<g id="edge13" class="edge"><title>2399484623984&#45;&gt;2399484624032</title>
<path fill="none" stroke="black" d="M412.982,-91.3351C421.415,-88.7476 431.003,-85.8059 440.111,-83.0115"/>
<polygon fill="black" stroke="black" points="441.194,-86.3402 449.727,-80.0609 439.141,-79.6481 441.194,-86.3402"/>
</g>
<!-- 2399484380976&#45;&gt;2399484380832 -->
<g id="edge15" class="edge"><title>2399484380976&#45;&gt;2399484380832</title>
<path fill="none" stroke="black" d="M1312.98,-91.3351C1321.42,-88.7476 1331,-85.8059 1340.11,-83.0115"/>
<polygon fill="black" stroke="black" points="1341.19,-86.3402 1349.73,-80.0609 1339.14,-79.6481 1341.19,-86.3402"/>
</g>
<!-- 2399484380976&#45;&gt;2399484381120 -->
<g id="edge14" class="edge"><title>2399484380976&#45;&gt;2399484381120</title>
<path fill="none" stroke="black" d="M1312.98,-106.665C1321.42,-109.252 1331,-112.194 1340.11,-114.989"/>
<polygon fill="black" stroke="black" points="1339.14,-118.352 1349.73,-117.939 1341.19,-111.66 1339.14,-118.352"/>
</g>
<!-- 2399484848736&#45;&gt;2399484382320 -->
<g id="edge16" class="edge"><title>2399484848736&#45;&gt;2399484382320</title>
<path fill="none" stroke="black" d="M2034.4,-99C2042.39,-99 2051.31,-99 2059.82,-99"/>
<polygon fill="black" stroke="black" points="2059.92,-102.5 2069.92,-99 2059.92,-95.5001 2059.92,-102.5"/>
</g>
<!-- 2399484848832&#45;&gt;2399484740176 -->
<g id="edge17" class="edge"><title>2399484848832&#45;&gt;2399484740176</title>
<path fill="none" stroke="black" d="M2214.4,-99C2222.39,-99 2231.31,-99 2239.82,-99"/>
<polygon fill="black" stroke="black" points="2239.92,-102.5 2249.92,-99 2239.92,-95.5001 2239.92,-102.5"/>
</g>
<!-- 2399484623600&#45;&gt;2399484380640 -->
<g id="edge19" class="edge"><title>2399484623600&#45;&gt;2399484380640</title>
<path fill="none" stroke="black" d="M594.403,-98.3999C602.393,-98.2183 611.311,-98.0157 619.824,-97.8222"/>
<polygon fill="black" stroke="black" points="620.001,-101.319 629.919,-97.5928 619.842,-94.321 620.001,-101.319"/>
</g>
<!-- 2399484381360&#45;&gt;2399484381984 -->
<g id="edge20" class="edge"><title>2399484381360&#45;&gt;2399484381984</title>
<path fill="none" stroke="black" d="M1494.4,-99C1502.39,-99 1511.31,-99 1519.82,-99"/>
<polygon fill="black" stroke="black" points="1519.92,-102.5 1529.92,-99 1519.92,-95.5001 1519.92,-102.5"/>
</g>
<!-- 2399484623552&#45;&gt;2399484624656 -->
<g id="edge21" class="edge"><title>2399484623552&#45;&gt;2399484624656</title>
<path fill="none" stroke="black" d="M234.403,-99C242.393,-99 251.311,-99 259.824,-99"/>
<polygon fill="black" stroke="black" points="259.919,-102.5 269.919,-99 259.919,-95.5001 259.919,-102.5"/>
</g>
<!-- 2399484382416&#45;&gt;2399484623840 -->
<g id="edge22" class="edge"><title>2399484382416&#45;&gt;2399484623840</title>
<path fill="none" stroke="black" d="M774.403,-97C782.393,-97 791.311,-97 799.824,-97"/>
<polygon fill="black" stroke="black" points="799.919,-100.5 809.919,-97 799.919,-93.5001 799.919,-100.5"/>
</g>
<!-- 2399484382896&#45;&gt;2399484380784 -->
<g id="edge23" class="edge"><title>2399484382896&#45;&gt;2399484380784</title>
<path fill="none" stroke="black" d="M954.403,-99C962.393,-99 971.311,-99 979.824,-99"/>
<polygon fill="black" stroke="black" points="979.919,-102.5 989.919,-99 979.919,-95.5001 979.919,-102.5"/>
</g>
<!-- 2399483436096&#45;&gt;2399484381456 -->
<g id="edge24" class="edge"><title>2399483436096&#45;&gt;2399484381456</title>
<path fill="none" stroke="black" d="M1134.4,-99C1142.39,-99 1151.31,-99 1159.82,-99"/>
<polygon fill="black" stroke="black" points="1159.92,-102.5 1169.92,-99 1159.92,-95.5001 1159.92,-102.5"/>
</g>
<!-- 2399483434944&#45;&gt;2399484381024 -->
<g id="edge25" class="edge"><title>2399483434944&#45;&gt;2399484381024</title>
<path fill="none" stroke="black" d="M1674.4,-99C1682.39,-99 1691.31,-99 1699.82,-99"/>
<polygon fill="black" stroke="black" points="1699.92,-102.5 1709.92,-99 1699.92,-95.5001 1699.92,-102.5"/>
</g>
<!-- 2399484848688&#45;&gt;2399484382176 -->
<g id="edge26" class="edge"><title>2399484848688&#45;&gt;2399484382176</title>
<path fill="none" stroke="black" d="M1854.4,-99C1862.39,-99 1871.31,-99 1879.82,-99"/>
<polygon fill="black" stroke="black" points="1879.92,-102.5 1889.92,-99 1879.92,-95.5001 1879.92,-102.5"/>
</g>
<!-- 2399484623504&#45;&gt;2399481827440 -->
<g id="edge27" class="edge"><title>2399484623504&#45;&gt;2399481827440</title>
<path fill="none" stroke="black" d="M684.403,-160C692.393,-160 701.311,-160 709.824,-160"/>
<polygon fill="black" stroke="black" points="709.919,-163.5 719.919,-160 709.919,-156.5 709.919,-163.5"/>
</g>
<!-- 2399484740032&#45;&gt;2399484740512 -->
<g id="edge28" class="edge"><title>2399484740032&#45;&gt;2399484740512</title>
<path fill="none" stroke="black" d="M594.265,-27C624.851,-27 675.551,-27 709.843,-27"/>
<polygon fill="black" stroke="black" points="709.918,-30.5001 719.918,-27 709.918,-23.5001 709.918,-30.5001"/>
</g>
<!-- 2399484382272&#45;&gt;2399484381120 -->
<g id="edge29" class="edge"><title>2399484382272&#45;&gt;2399484381120</title>
<path fill="none" stroke="black" d="M864.235,-159.042C898.951,-157.859 962.061,-156 1016,-156 1016,-156 1016,-156 1198,-156 1247.77,-156 1304.3,-144.453 1340.04,-135.687"/>
<polygon fill="black" stroke="black" points="1341.15,-139.018 1349.99,-133.186 1339.44,-132.229 1341.15,-139.018"/>
</g>
<!-- 2399484741472&#45;&gt;2399484380832 -->
<g id="edge30" class="edge"><title>2399484741472&#45;&gt;2399484380832</title>
<path fill="none" stroke="black" d="M953.92,-29.1329C988.554,-31.7943 1051.85,-36 1106,-36 1106,-36 1106,-36 1198,-36 1247.93,-36 1304.2,-49.7769 1339.86,-60.2854"/>
<polygon fill="black" stroke="black" points="1339.21,-63.7443 1349.8,-63.2854 1341.24,-57.0433 1339.21,-63.7443"/>
</g>
</g>
</svg>
