<?xml version="1.0" encoding="UTF-8" standalone="no"?>
<!DOCTYPE svg PUBLIC "-//W3C//DTD SVG 1.1//EN"
 "http://www.w3.org/Graphics/SVG/1.1/DTD/svg11.dtd">
<!-- Generated by graphviz version 2.38.0 (20140413.2041)
 -->
<!-- Title: &#45;&gt;( X( &#39;A&#39;, &#39;B&#39; ), &#39;G&#39;, X( &#39;E&#39;, &#39;F&#39;, &#39;D&#39; ), &#39;I&#39; ) Pages: 1 -->
<svg width="1862pt" height="377pt"
 viewBox="0.00 0.00 1862.00 377.00" xmlns="http://www.w3.org/2000/svg" xmlns:xlink="http://www.w3.org/1999/xlink">
<g id="graph0" class="graph" transform="scale(1 1) rotate(0) translate(4 373)">
<title>&#45;&gt;( X( &#39;A&#39;, &#39;B&#39; ), &#39;G&#39;, X( &#39;E&#39;, &#39;F&#39;, &#39;D&#39; ), &#39;I&#39; )</title>
<!-- 1776526814464 -->
<g id="node1" class="node"><title>1776526814464</title>
<polygon fill="none" stroke="black" points="504,-198 450,-198 450,-162 504,-162 504,-198"/>
<text text-anchor="middle" x="477" y="-176.9" font-family="Times New Roman,serif" font-size="12.00">B</text>
</g>
<!-- 1776526815040 -->
<g id="node23" class="node"><title>1776526815040</title>
<ellipse fill="none" stroke="black" cx="567" cy="-207" rx="27" ry="27"/>
</g>
<!-- 1776526814464&#45;&gt;1776526815040 -->
<g id="edge4" class="edge"><title>1776526814464&#45;&gt;1776526815040</title>
<path fill="none" stroke="black" d="M504.403,-188.101C512.79,-190.674 522.197,-193.561 531.088,-196.288"/>
<polygon fill="black" stroke="black" points="530.236,-199.688 540.823,-199.275 532.29,-192.996 530.236,-199.688"/>
</g>
<!-- 1776526890560 -->
<g id="node31" class="node"><title>1776526890560</title>
<ellipse fill="none" stroke="black" cx="927" cy="-135" rx="27" ry="27"/>
</g>
<!-- 1776526814464&#45;&gt;1776526890560 -->
<g id="edge5" class="edge"><title>1776526814464&#45;&gt;1776526890560</title>
<path fill="none" stroke="black" d="M504.184,-171.043C538.585,-160.093 601.08,-143 656,-143 656,-143 656,-143 748,-143 797.13,-143 853.811,-139.921 889.764,-137.583"/>
<polygon fill="black" stroke="black" points="890.032,-141.073 899.778,-136.916 889.567,-134.089 890.032,-141.073"/>
</g>
<!-- 1776526877696 -->
<g id="node2" class="node"><title>1776526877696</title>
<polygon fill="black" stroke="black" points="684,-225 630,-225 630,-189 684,-189 684,-225"/>
</g>
<!-- 1776526878128 -->
<g id="node26" class="node"><title>1776526878128</title>
<ellipse fill="none" stroke="black" cx="747" cy="-207" rx="27" ry="27"/>
</g>
<!-- 1776526877696&#45;&gt;1776526878128 -->
<g id="edge35" class="edge"><title>1776526877696&#45;&gt;1776526878128</title>
<path fill="none" stroke="black" d="M684.403,-207C692.393,-207 701.311,-207 709.824,-207"/>
<polygon fill="black" stroke="black" points="709.919,-210.5 719.919,-207 709.919,-203.5 709.919,-210.5"/>
</g>
<!-- 1776526879232 -->
<g id="node3" class="node"><title>1776526879232</title>
<polygon fill="black" stroke="black" points="1404,-144 1350,-144 1350,-108 1404,-108 1404,-144"/>
</g>
<!-- 1776526879520 -->
<g id="node28" class="node"><title>1776526879520</title>
<ellipse fill="none" stroke="black" cx="1467" cy="-126" rx="27" ry="27"/>
</g>
<!-- 1776526879232&#45;&gt;1776526879520 -->
<g id="edge37" class="edge"><title>1776526879232&#45;&gt;1776526879520</title>
<path fill="none" stroke="black" d="M1404.4,-126C1412.39,-126 1421.31,-126 1429.82,-126"/>
<polygon fill="black" stroke="black" points="1429.92,-129.5 1439.92,-126 1429.92,-122.5 1429.92,-129.5"/>
</g>
<!-- 1776526889984 -->
<g id="node4" class="node"><title>1776526889984</title>
<polygon fill="black" stroke="black" points="1044,-207 990,-207 990,-171 1044,-171 1044,-207"/>
</g>
<!-- 1776526890128 -->
<g id="node32" class="node"><title>1776526890128</title>
<ellipse fill="none" stroke="black" cx="1107" cy="-27" rx="27" ry="27"/>
</g>
<!-- 1776526889984&#45;&gt;1776526890128 -->
<g id="edge38" class="edge"><title>1776526889984&#45;&gt;1776526890128</title>
<path fill="none" stroke="black" d="M1037.28,-170.973C1039.74,-168.123 1042.07,-165.092 1044,-162 1068.78,-122.274 1058.08,-104.373 1080,-63 1081.2,-60.7347 1082.53,-58.4506 1083.93,-56.1907"/>
<polygon fill="black" stroke="black" points="1086.96,-57.9512 1089.58,-47.6859 1081.13,-54.0756 1086.96,-57.9512"/>
</g>
<!-- 1776526813840 -->
<g id="node5" class="node"><title>1776526813840</title>
<polygon fill="none" stroke="black" points="504,-252 450,-252 450,-216 504,-216 504,-252"/>
<text text-anchor="middle" x="477" y="-230.9" font-family="Times New Roman,serif" font-size="12.00">A</text>
</g>
<!-- 1776526813840&#45;&gt;1776526815040 -->
<g id="edge1" class="edge"><title>1776526813840&#45;&gt;1776526815040</title>
<path fill="none" stroke="black" d="M504.403,-225.899C512.79,-223.326 522.197,-220.439 531.088,-217.712"/>
<polygon fill="black" stroke="black" points="532.29,-221.004 540.823,-214.725 530.236,-214.312 532.29,-221.004"/>
</g>
<!-- 1776526814848 -->
<g id="node30" class="node"><title>1776526814848</title>
<ellipse fill="none" stroke="black" cx="927" cy="-288" rx="27" ry="27"/>
</g>
<!-- 1776526813840&#45;&gt;1776526814848 -->
<g id="edge2" class="edge"><title>1776526813840&#45;&gt;1776526814848</title>
<path fill="none" stroke="black" d="M504.203,-242.715C538.624,-253.369 601.14,-270 656,-270 656,-270 656,-270 748,-270 797.472,-270 854.288,-276.968 890.158,-282.233"/>
<polygon fill="black" stroke="black" points="889.732,-285.708 900.142,-283.734 890.773,-278.786 889.732,-285.708"/>
</g>
<!-- 1776526878512 -->
<g id="node6" class="node"><title>1776526878512</title>
<polygon fill="black" stroke="black" points="1044,-99 990,-99 990,-63 1044,-63 1044,-99"/>
</g>
<!-- 1776526877888 -->
<g id="node22" class="node"><title>1776526877888</title>
<ellipse fill="none" stroke="black" cx="1107" cy="-99" rx="27" ry="27"/>
</g>
<!-- 1776526878512&#45;&gt;1776526877888 -->
<g id="edge36" class="edge"><title>1776526878512&#45;&gt;1776526877888</title>
<path fill="none" stroke="black" d="M1044.4,-86.4006C1052.55,-88.0678 1061.67,-89.9324 1070.34,-91.7053"/>
<polygon fill="black" stroke="black" points="1069.72,-95.1521 1080.22,-93.7271 1071.13,-88.294 1069.72,-95.1521"/>
</g>
<!-- 1776526890416 -->
<g id="node7" class="node"><title>1776526890416</title>
<polygon fill="black" stroke="black" points="1044,-153 990,-153 990,-117 1044,-117 1044,-153"/>
</g>
<!-- 1776526878272 -->
<g id="node33" class="node"><title>1776526878272</title>
<ellipse fill="none" stroke="black" cx="1107" cy="-171" rx="27" ry="27"/>
</g>
<!-- 1776526890416&#45;&gt;1776526878272 -->
<g id="edge42" class="edge"><title>1776526890416&#45;&gt;1776526878272</title>
<path fill="none" stroke="black" d="M1044.4,-145.801C1053.2,-149.398 1063.11,-153.454 1072.37,-157.244"/>
<polygon fill="black" stroke="black" points="1071.14,-160.52 1081.72,-161.067 1073.79,-154.041 1071.14,-160.52"/>
</g>
<!-- 1776526814272 -->
<g id="node8" class="node"><title>1776526814272</title>
<polygon fill="none" stroke="black" points="864,-225 810,-225 810,-189 864,-189 864,-225"/>
<text text-anchor="middle" x="837" y="-203.9" font-family="Times New Roman,serif" font-size="12.00">G</text>
</g>
<!-- 1776526879424 -->
<g id="node27" class="node"><title>1776526879424</title>
<ellipse fill="none" stroke="black" cx="927" cy="-207" rx="27" ry="27"/>
</g>
<!-- 1776526814272&#45;&gt;1776526879424 -->
<g id="edge3" class="edge"><title>1776526814272&#45;&gt;1776526879424</title>
<path fill="none" stroke="black" d="M864.403,-207C872.393,-207 881.311,-207 889.824,-207"/>
<polygon fill="black" stroke="black" points="889.919,-210.5 899.919,-207 889.919,-203.5 889.919,-210.5"/>
</g>
<!-- 1776526878032 -->
<g id="node9" class="node"><title>1776526878032</title>
<polygon fill="none" stroke="black" points="1224,-144 1170,-144 1170,-108 1224,-108 1224,-144"/>
<text text-anchor="middle" x="1197" y="-122.9" font-family="Times New Roman,serif" font-size="12.00">E</text>
</g>
<!-- 1776526878416 -->
<g id="node24" class="node"><title>1776526878416</title>
<ellipse fill="none" stroke="black" cx="1287" cy="-126" rx="27" ry="27"/>
</g>
<!-- 1776526878032&#45;&gt;1776526878416 -->
<g id="edge8" class="edge"><title>1776526878032&#45;&gt;1776526878416</title>
<path fill="none" stroke="black" d="M1224.4,-126C1232.39,-126 1241.31,-126 1249.82,-126"/>
<polygon fill="black" stroke="black" points="1249.92,-129.5 1259.92,-126 1249.92,-122.5 1249.92,-129.5"/>
</g>
<!-- 1776524660688 -->
<g id="node10" class="node"><title>1776524660688</title>
<polygon fill="black" stroke="black" points="1044,-315 990,-315 990,-279 1044,-279 1044,-315"/>
</g>
<!-- 1776524660688&#45;&gt;1776526878272 -->
<g id="edge39" class="edge"><title>1776524660688&#45;&gt;1776526878272</title>
<path fill="none" stroke="black" d="M1036.54,-278.951C1039.17,-276.059 1041.74,-273.021 1044,-270 1063.33,-244.188 1062.53,-234.11 1080,-207 1081.26,-205.052 1082.57,-203.064 1083.92,-201.074"/>
<polygon fill="black" stroke="black" points="1087.1,-202.647 1089.95,-192.443 1081.35,-198.641 1087.1,-202.647"/>
</g>
<!-- 1776526889552 -->
<g id="node11" class="node"><title>1776526889552</title>
<polygon fill="black" stroke="black" points="1044,-369 990,-369 990,-333 1044,-333 1044,-369"/>
</g>
<!-- 1776526889696 -->
<g id="node34" class="node"><title>1776526889696</title>
<ellipse fill="none" stroke="black" cx="1107" cy="-243" rx="27" ry="27"/>
</g>
<!-- 1776526889552&#45;&gt;1776526889696 -->
<g id="edge40" class="edge"><title>1776526889552&#45;&gt;1776526889696</title>
<path fill="none" stroke="black" d="M1035.91,-332.962C1038.67,-330.018 1041.46,-326.961 1044,-324 1058.12,-307.568 1072.91,-288.342 1084.49,-272.746"/>
<polygon fill="black" stroke="black" points="1087.46,-274.621 1090.58,-264.495 1081.83,-270.466 1087.46,-274.621"/>
</g>
<!-- 1776526891088 -->
<g id="node12" class="node"><title>1776526891088</title>
<polygon fill="black" stroke="black" points="1044,-45 990,-45 990,-9 1044,-9 1044,-45"/>
</g>
<!-- 1776526891088&#45;&gt;1776526890128 -->
<g id="edge41" class="edge"><title>1776526891088&#45;&gt;1776526890128</title>
<path fill="none" stroke="black" d="M1044.4,-27C1052.39,-27 1061.31,-27 1069.82,-27"/>
<polygon fill="black" stroke="black" points="1069.92,-30.5001 1079.92,-27 1069.92,-23.5001 1069.92,-30.5001"/>
</g>
<!-- 1776526878176 -->
<g id="node13" class="node"><title>1776526878176</title>
<polygon fill="none" stroke="black" points="1224,-198 1170,-198 1170,-162 1224,-162 1224,-198"/>
<text text-anchor="middle" x="1197" y="-176.9" font-family="Times New Roman,serif" font-size="12.00">F</text>
</g>
<!-- 1776526878176&#45;&gt;1776526878416 -->
<g id="edge9" class="edge"><title>1776526878176&#45;&gt;1776526878416</title>
<path fill="none" stroke="black" d="M1224.4,-163.798C1233.94,-157.947 1244.79,-151.286 1254.71,-145.202"/>
<polygon fill="black" stroke="black" points="1256.79,-148.031 1263.48,-139.818 1253.13,-142.065 1256.79,-148.031"/>
</g>
<!-- 1776526880480 -->
<g id="node14" class="node"><title>1776526880480</title>
<polygon fill="black" stroke="black" points="144,-225 90,-225 90,-189 144,-189 144,-225"/>
</g>
<!-- 1776526877984 -->
<g id="node25" class="node"><title>1776526877984</title>
<ellipse fill="none" stroke="black" cx="207" cy="-207" rx="27" ry="27"/>
</g>
<!-- 1776526880480&#45;&gt;1776526877984 -->
<g id="edge32" class="edge"><title>1776526880480&#45;&gt;1776526877984</title>
<path fill="none" stroke="black" d="M144.403,-207C152.393,-207 161.311,-207 169.824,-207"/>
<polygon fill="black" stroke="black" points="169.919,-210.5 179.919,-207 169.919,-203.5 169.919,-210.5"/>
</g>
<!-- 1776526890848 -->
<g id="node15" class="node"><title>1776526890848</title>
<polygon fill="black" stroke="black" points="1044,-261 990,-261 990,-225 1044,-225 1044,-261"/>
</g>
<!-- 1776526890848&#45;&gt;1776526889696 -->
<g id="edge43" class="edge"><title>1776526890848&#45;&gt;1776526889696</title>
<path fill="none" stroke="black" d="M1044.4,-243C1052.39,-243 1061.31,-243 1069.82,-243"/>
<polygon fill="black" stroke="black" points="1069.92,-246.5 1079.92,-243 1069.92,-239.5 1069.92,-246.5"/>
</g>
<!-- 1776526813552 -->
<g id="node16" class="node"><title>1776526813552</title>
<polygon fill="black" stroke="black" points="324,-225 270,-225 270,-189 324,-189 324,-225"/>
</g>
<!-- 1776526814608 -->
<g id="node21" class="node"><title>1776526814608</title>
<ellipse fill="none" stroke="black" cx="387" cy="-207" rx="27" ry="27"/>
</g>
<!-- 1776526813552&#45;&gt;1776526814608 -->
<g id="edge34" class="edge"><title>1776526813552&#45;&gt;1776526814608</title>
<path fill="none" stroke="black" d="M324.403,-207C332.393,-207 341.311,-207 349.824,-207"/>
<polygon fill="black" stroke="black" points="349.919,-210.5 359.919,-207 349.919,-203.5 349.919,-210.5"/>
</g>
<!-- 1776526878320 -->
<g id="node17" class="node"><title>1776526878320</title>
<polygon fill="none" stroke="black" points="1224,-90 1170,-90 1170,-54 1224,-54 1224,-90"/>
<text text-anchor="middle" x="1197" y="-68.9" font-family="Times New Roman,serif" font-size="12.00">D</text>
</g>
<!-- 1776526878320&#45;&gt;1776526878416 -->
<g id="edge7" class="edge"><title>1776526878320&#45;&gt;1776526878416</title>
<path fill="none" stroke="black" d="M1224.4,-88.2018C1233.94,-94.053 1244.79,-100.714 1254.71,-106.798"/>
<polygon fill="black" stroke="black" points="1253.13,-109.935 1263.48,-112.182 1256.79,-103.969 1253.13,-109.935"/>
</g>
<!-- 1776526877936 -->
<g id="node18" class="node"><title>1776526877936</title>
<polygon fill="none" stroke="black" points="1584,-144 1530,-144 1530,-108 1584,-108 1584,-144"/>
<text text-anchor="middle" x="1557" y="-122.9" font-family="Times New Roman,serif" font-size="12.00">I</text>
</g>
<!-- 1776526879616 -->
<g id="node29" class="node"><title>1776526879616</title>
<ellipse fill="none" stroke="black" cx="1647" cy="-126" rx="27" ry="27"/>
</g>
<!-- 1776526877936&#45;&gt;1776526879616 -->
<g id="edge6" class="edge"><title>1776526877936&#45;&gt;1776526879616</title>
<path fill="none" stroke="black" d="M1584.4,-126C1592.39,-126 1601.31,-126 1609.82,-126"/>
<polygon fill="black" stroke="black" points="1609.92,-129.5 1619.92,-126 1609.92,-122.5 1609.92,-129.5"/>
</g>
<!-- 1776526880624 -->
<g id="node19" class="node"><title>1776526880624</title>
<polygon fill="black" stroke="black" points="1764,-144 1710,-144 1710,-108 1764,-108 1764,-144"/>
</g>
<!-- 1776526889072 -->
<g id="node35" class="node"><title>1776526889072</title>
<ellipse fill="orange" stroke="black" cx="1827" cy="-126" rx="27" ry="27"/>
</g>
<!-- 1776526880624&#45;&gt;1776526889072 -->
<g id="edge33" class="edge"><title>1776526880624&#45;&gt;1776526889072</title>
<path fill="none" stroke="black" d="M1764.4,-126C1772.39,-126 1781.31,-126 1789.82,-126"/>
<polygon fill="black" stroke="black" points="1789.92,-129.5 1799.92,-126 1789.92,-122.5 1789.92,-129.5"/>
</g>
<!-- 1776523787808 -->
<g id="node20" class="node"><title>1776523787808</title>
<ellipse fill="green" stroke="black" cx="27" cy="-207" rx="27" ry="27"/>
<text text-anchor="middle" x="27" y="-203.9" font-family="Times New Roman,serif" font-size="12.00">1</text>
</g>
<!-- 1776523787808&#45;&gt;1776526880480 -->
<g id="edge22" class="edge"><title>1776523787808&#45;&gt;1776526880480</title>
<path fill="none" stroke="black" d="M54.4029,-207C62.3932,-207 71.3106,-207 79.8241,-207"/>
<polygon fill="black" stroke="black" points="79.919,-210.5 89.919,-207 79.919,-203.5 79.919,-210.5"/>
</g>
<!-- 1776526814608&#45;&gt;1776526814464 -->
<g id="edge11" class="edge"><title>1776526814608&#45;&gt;1776526814464</title>
<path fill="none" stroke="black" d="M412.982,-199.335C421.415,-196.748 431.003,-193.806 440.111,-191.011"/>
<polygon fill="black" stroke="black" points="441.194,-194.34 449.727,-188.061 439.141,-187.648 441.194,-194.34"/>
</g>
<!-- 1776526814608&#45;&gt;1776526813840 -->
<g id="edge10" class="edge"><title>1776526814608&#45;&gt;1776526813840</title>
<path fill="none" stroke="black" d="M412.982,-214.665C421.415,-217.252 431.003,-220.194 440.111,-222.989"/>
<polygon fill="black" stroke="black" points="439.141,-226.352 449.727,-225.939 441.194,-219.66 439.141,-226.352"/>
</g>
<!-- 1776526877888&#45;&gt;1776526878032 -->
<g id="edge13" class="edge"><title>1776526877888&#45;&gt;1776526878032</title>
<path fill="none" stroke="black" d="M1132.98,-106.665C1141.42,-109.252 1151,-112.194 1160.11,-114.989"/>
<polygon fill="black" stroke="black" points="1159.14,-118.352 1169.73,-117.939 1161.19,-111.66 1159.14,-118.352"/>
</g>
<!-- 1776526877888&#45;&gt;1776526878176 -->
<g id="edge14" class="edge"><title>1776526877888&#45;&gt;1776526878176</title>
<path fill="none" stroke="black" d="M1127.53,-116.977C1139.64,-128.119 1155.37,-142.598 1168.69,-154.867"/>
<polygon fill="black" stroke="black" points="1166.49,-157.596 1176.22,-161.794 1171.23,-152.446 1166.49,-157.596"/>
</g>
<!-- 1776526877888&#45;&gt;1776526878320 -->
<g id="edge12" class="edge"><title>1776526877888&#45;&gt;1776526878320</title>
<path fill="none" stroke="black" d="M1132.98,-91.3351C1141.42,-88.7476 1151,-85.8059 1160.11,-83.0115"/>
<polygon fill="black" stroke="black" points="1161.19,-86.3402 1169.73,-80.0609 1159.14,-79.6481 1161.19,-86.3402"/>
</g>
<!-- 1776526815040&#45;&gt;1776526877696 -->
<g id="edge15" class="edge"><title>1776526815040&#45;&gt;1776526877696</title>
<path fill="none" stroke="black" d="M594.403,-207C602.393,-207 611.311,-207 619.824,-207"/>
<polygon fill="black" stroke="black" points="619.919,-210.5 629.919,-207 619.919,-203.5 619.919,-210.5"/>
</g>
<!-- 1776526878416&#45;&gt;1776526879232 -->
<g id="edge16" class="edge"><title>1776526878416&#45;&gt;1776526879232</title>
<path fill="none" stroke="black" d="M1314.4,-126C1322.39,-126 1331.31,-126 1339.82,-126"/>
<polygon fill="black" stroke="black" points="1339.92,-129.5 1349.92,-126 1339.92,-122.5 1339.92,-129.5"/>
</g>
<!-- 1776526877984&#45;&gt;1776526813552 -->
<g id="edge17" class="edge"><title>1776526877984&#45;&gt;1776526813552</title>
<path fill="none" stroke="black" d="M234.403,-207C242.393,-207 251.311,-207 259.824,-207"/>
<polygon fill="black" stroke="black" points="259.919,-210.5 269.919,-207 259.919,-203.5 259.919,-210.5"/>
</g>
<!-- 1776526878128&#45;&gt;1776526814272 -->
<g id="edge18" class="edge"><title>1776526878128&#45;&gt;1776526814272</title>
<path fill="none" stroke="black" d="M774.403,-207C782.393,-207 791.311,-207 799.824,-207"/>
<polygon fill="black" stroke="black" points="799.919,-210.5 809.919,-207 799.919,-203.5 799.919,-210.5"/>
</g>
<!-- 1776526879424&#45;&gt;1776526878512 -->
<g id="edge19" class="edge"><title>1776526879424&#45;&gt;1776526878512</title>
<path fill="none" stroke="black" d="M944.054,-185.557C947.434,-180.827 950.91,-175.796 954,-171 971.465,-143.89 970.668,-133.812 990,-108 990.283,-107.622 990.57,-107.244 990.862,-106.867"/>
<polygon fill="black" stroke="black" points="993.685,-108.949 997.46,-99.0487 988.336,-104.434 993.685,-108.949"/>
</g>
<!-- 1776526879520&#45;&gt;1776526877936 -->
<g id="edge20" class="edge"><title>1776526879520&#45;&gt;1776526877936</title>
<path fill="none" stroke="black" d="M1494.4,-126C1502.39,-126 1511.31,-126 1519.82,-126"/>
<polygon fill="black" stroke="black" points="1519.92,-129.5 1529.92,-126 1519.92,-122.5 1519.92,-129.5"/>
</g>
<!-- 1776526879616&#45;&gt;1776526880624 -->
<g id="edge21" class="edge"><title>1776526879616&#45;&gt;1776526880624</title>
<path fill="none" stroke="black" d="M1674.4,-126C1682.39,-126 1691.31,-126 1699.82,-126"/>
<polygon fill="black" stroke="black" points="1699.92,-129.5 1709.92,-126 1699.92,-122.5 1699.92,-129.5"/>
</g>
<!-- 1776526814848&#45;&gt;1776526889984 -->
<g id="edge23" class="edge"><title>1776526814848&#45;&gt;1776526889984</title>
<path fill="none" stroke="black" d="M945.075,-267.565C957.365,-253.007 974.45,-233.074 990,-216 990.411,-215.549 990.826,-215.095 991.246,-214.638"/>
<polygon fill="black" stroke="black" points="993.959,-216.861 998.239,-207.169 988.849,-212.077 993.959,-216.861"/>
</g>
<!-- 1776526814848&#45;&gt;1776524660688 -->
<g id="edge24" class="edge"><title>1776526814848&#45;&gt;1776524660688</title>
<path fill="none" stroke="black" d="M953.927,-290.652C962.089,-291.486 971.256,-292.424 979.989,-293.317"/>
<polygon fill="black" stroke="black" points="979.65,-296.801 989.954,-294.336 980.362,-289.837 979.65,-296.801"/>
</g>
<!-- 1776526814848&#45;&gt;1776526889552 -->
<g id="edge25" class="edge"><title>1776526814848&#45;&gt;1776526889552</title>
<path fill="none" stroke="black" d="M949.302,-303.251C959.274,-310.389 971.387,-319.061 982.54,-327.046"/>
<polygon fill="black" stroke="black" points="980.662,-330.006 990.831,-332.981 984.737,-324.314 980.662,-330.006"/>
</g>
<!-- 1776526890560&#45;&gt;1776526890416 -->
<g id="edge27" class="edge"><title>1776526890560&#45;&gt;1776526890416</title>
<path fill="none" stroke="black" d="M954.403,-135C962.393,-135 971.311,-135 979.824,-135"/>
<polygon fill="black" stroke="black" points="979.919,-138.5 989.919,-135 979.919,-131.5 979.919,-138.5"/>
</g>
<!-- 1776526890560&#45;&gt;1776526891088 -->
<g id="edge26" class="edge"><title>1776526890560&#45;&gt;1776526891088</title>
<path fill="none" stroke="black" d="M943.421,-113.505C955.596,-96.8744 973.264,-73.4748 990,-54 990.398,-53.5373 990.801,-53.0723 991.209,-52.6057"/>
<polygon fill="black" stroke="black" points="993.952,-54.7916 998.09,-45.0383 988.773,-50.0822 993.952,-54.7916"/>
</g>
<!-- 1776526890560&#45;&gt;1776526890848 -->
<g id="edge28" class="edge"><title>1776526890560&#45;&gt;1776526890848</title>
<path fill="none" stroke="black" d="M943.421,-156.495C955.596,-173.126 973.264,-196.525 990,-216 990.398,-216.463 990.801,-216.928 991.209,-217.394"/>
<polygon fill="black" stroke="black" points="988.773,-219.918 998.09,-224.962 993.952,-215.208 988.773,-219.918"/>
</g>
<!-- 1776526890128&#45;&gt;1776526878320 -->
<g id="edge29" class="edge"><title>1776526890128&#45;&gt;1776526878320</title>
<path fill="none" stroke="black" d="M1131.58,-39.0592C1140.53,-43.6363 1150.93,-48.9542 1160.73,-53.9643"/>
<polygon fill="black" stroke="black" points="1159.38,-57.2026 1169.87,-58.6394 1162.56,-50.9702 1159.38,-57.2026"/>
</g>
<!-- 1776526878272&#45;&gt;1776526878032 -->
<g id="edge30" class="edge"><title>1776526878272&#45;&gt;1776526878032</title>
<path fill="none" stroke="black" d="M1131.58,-158.941C1140.53,-154.364 1150.93,-149.046 1160.73,-144.036"/>
<polygon fill="black" stroke="black" points="1162.56,-147.03 1169.87,-139.361 1159.38,-140.797 1162.56,-147.03"/>
</g>
<!-- 1776526889696&#45;&gt;1776526878176 -->
<g id="edge31" class="edge"><title>1776526889696&#45;&gt;1776526878176</title>
<path fill="none" stroke="black" d="M1129.3,-227.749C1139.27,-220.611 1151.39,-211.939 1162.54,-203.954"/>
<polygon fill="black" stroke="black" points="1164.74,-206.686 1170.83,-198.019 1160.66,-200.994 1164.74,-206.686"/>
</g>
</g>
</svg>
