<?xml version="1.0" encoding="UTF-8" standalone="no"?>
<!DOCTYPE svg PUBLIC "-//W3C//DTD SVG 1.1//EN"
 "http://www.w3.org/Graphics/SVG/1.1/DTD/svg11.dtd">
<!-- Generated by graphviz version 2.38.0 (20140413.2041)
 -->
<!-- Title: *( &#45;&gt;( X( &#39;A&#39;, &#39;B&#39; ), &#39;C&#39;, X( &#39;E&#39;, &#39;D&#39; ) ), *tau* ) Pages: 1 -->
<svg width="1772pt" height="198pt"
 viewBox="0.00 0.00 1772.00 198.00" xmlns="http://www.w3.org/2000/svg" xmlns:xlink="http://www.w3.org/1999/xlink">
<g id="graph0" class="graph" transform="scale(1 1) rotate(0) translate(4 194)">
<title>*( &#45;&gt;( X( &#39;A&#39;, &#39;B&#39; ), &#39;C&#39;, X( &#39;E&#39;, &#39;D&#39; ) ), *tau* )</title>
<!-- 2796789959936 -->
<g id="node1" class="node"><title>2796789959936</title>
<polygon fill="black" stroke="black" points="54,-180 0,-180 0,-144 54,-144 54,-180"/>
</g>
<!-- 2796789959360 -->
<g id="node17" class="node"><title>2796789959360</title>
<ellipse fill="none" stroke="black" cx="117" cy="-135" rx="27" ry="27"/>
</g>
<!-- 2796789959936&#45;&gt;2796789959360 -->
<g id="edge24" class="edge"><title>2796789959936&#45;&gt;2796789959360</title>
<path fill="none" stroke="black" d="M54.4029,-153.899C62.7896,-151.326 72.1974,-148.439 81.0877,-145.712"/>
<polygon fill="black" stroke="black" points="82.2897,-149.004 90.8232,-142.725 80.2364,-142.312 82.2897,-149.004"/>
</g>
<!-- 2796789925632 -->
<g id="node2" class="node"><title>2796789925632</title>
<polygon fill="black" stroke="black" points="1134,-135 1080,-135 1080,-99 1134,-99 1134,-135"/>
</g>
<!-- 2796789925776 -->
<g id="node23" class="node"><title>2796789925776</title>
<ellipse fill="none" stroke="black" cx="1197" cy="-117" rx="27" ry="27"/>
</g>
<!-- 2796789925632&#45;&gt;2796789925776 -->
<g id="edge26" class="edge"><title>2796789925632&#45;&gt;2796789925776</title>
<path fill="none" stroke="black" d="M1134.4,-117C1142.39,-117 1151.31,-117 1159.82,-117"/>
<polygon fill="black" stroke="black" points="1159.92,-120.5 1169.92,-117 1159.92,-113.5 1159.92,-120.5"/>
</g>
<!-- 2796789925056 -->
<g id="node3" class="node"><title>2796789925056</title>
<polygon fill="black" stroke="black" points="774,-107 720,-107 720,-71 774,-71 774,-107"/>
</g>
<!-- 2796789924144 -->
<g id="node16" class="node"><title>2796789924144</title>
<ellipse fill="none" stroke="black" cx="837" cy="-89" rx="27" ry="27"/>
</g>
<!-- 2796789925056&#45;&gt;2796789924144 -->
<g id="edge25" class="edge"><title>2796789925056&#45;&gt;2796789924144</title>
<path fill="none" stroke="black" d="M774.403,-89C782.393,-89 791.311,-89 799.824,-89"/>
<polygon fill="black" stroke="black" points="799.919,-92.5001 809.919,-89 799.919,-85.5001 799.919,-92.5001"/>
</g>
<!-- 2796789927360 -->
<g id="node4" class="node"><title>2796789927360</title>
<polygon fill="black" stroke="black" points="1494,-45 1440,-45 1440,-9 1494,-9 1494,-45"/>
</g>
<!-- 2796789415840 -->
<g id="node24" class="node"><title>2796789415840</title>
<ellipse fill="none" stroke="black" cx="1557" cy="-63" rx="27" ry="27"/>
</g>
<!-- 2796789927360&#45;&gt;2796789415840 -->
<g id="edge22" class="edge"><title>2796789927360&#45;&gt;2796789415840</title>
<path fill="none" stroke="black" d="M1494.4,-37.8012C1503.2,-41.3981 1513.11,-45.4542 1522.37,-49.2441"/>
<polygon fill="black" stroke="black" points="1521.14,-52.5198 1531.72,-53.0668 1523.79,-46.041 1521.14,-52.5198"/>
</g>
<!-- 2796789927552 -->
<g id="node5" class="node"><title>2796789927552</title>
<polygon fill="black" stroke="black" points="1494,-153 1440,-153 1440,-117 1494,-117 1494,-153"/>
</g>
<!-- 2796789927840 -->
<g id="node26" class="node"><title>2796789927840</title>
<ellipse fill="orange" stroke="black" cx="1557" cy="-135" rx="27" ry="27"/>
</g>
<!-- 2796789927552&#45;&gt;2796789927840 -->
<g id="edge23" class="edge"><title>2796789927552&#45;&gt;2796789927840</title>
<path fill="none" stroke="black" d="M1494.4,-135C1502.39,-135 1511.31,-135 1519.82,-135"/>
<polygon fill="black" stroke="black" points="1519.92,-138.5 1529.92,-135 1519.92,-131.5 1519.92,-138.5"/>
</g>
<!-- 2796789959600 -->
<g id="node6" class="node"><title>2796789959600</title>
<polygon fill="none" stroke="black" points="234,-103 180,-103 180,-67 234,-67 234,-103"/>
<text text-anchor="middle" x="207" y="-81.9" font-family="Times New Roman,serif" font-size="12.00">A</text>
</g>
<!-- 2796789959840 -->
<g id="node18" class="node"><title>2796789959840</title>
<ellipse fill="none" stroke="black" cx="297" cy="-89" rx="27" ry="27"/>
</g>
<!-- 2796789959600&#45;&gt;2796789959840 -->
<g id="edge3" class="edge"><title>2796789959600&#45;&gt;2796789959840</title>
<path fill="none" stroke="black" d="M234.403,-86.2001C242.393,-86.5633 251.311,-86.9687 259.824,-87.3556"/>
<polygon fill="black" stroke="black" points="259.77,-90.8567 269.919,-87.8145 260.088,-83.8639 259.77,-90.8567"/>
</g>
<!-- 2796789959792 -->
<g id="node7" class="node"><title>2796789959792</title>
<polygon fill="none" stroke="black" points="234,-157 180,-157 180,-121 234,-121 234,-157"/>
<text text-anchor="middle" x="207" y="-135.9" font-family="Times New Roman,serif" font-size="12.00">B</text>
</g>
<!-- 2796789959792&#45;&gt;2796789959840 -->
<g id="edge4" class="edge"><title>2796789959792&#45;&gt;2796789959840</title>
<path fill="none" stroke="black" d="M234.403,-123.998C243.861,-118.625 254.617,-112.513 264.465,-106.917"/>
<polygon fill="black" stroke="black" points="266.226,-109.943 273.191,-101.96 262.768,-103.857 266.226,-109.943"/>
</g>
<!-- 2796789960560 -->
<g id="node8" class="node"><title>2796789960560</title>
<polygon fill="black" stroke="black" points="414,-107 360,-107 360,-71 414,-71 414,-107"/>
</g>
<!-- 2796789924768 -->
<g id="node21" class="node"><title>2796789924768</title>
<ellipse fill="none" stroke="black" cx="477" cy="-89" rx="27" ry="27"/>
</g>
<!-- 2796789960560&#45;&gt;2796789924768 -->
<g id="edge27" class="edge"><title>2796789960560&#45;&gt;2796789924768</title>
<path fill="none" stroke="black" d="M414.403,-89C422.393,-89 431.311,-89 439.824,-89"/>
<polygon fill="black" stroke="black" points="439.919,-92.5001 449.919,-89 439.919,-85.5001 439.919,-92.5001"/>
</g>
<!-- 2796789959504 -->
<g id="node9" class="node"><title>2796789959504</title>
<polygon fill="none" stroke="black" points="594,-107 540,-107 540,-71 594,-71 594,-107"/>
<text text-anchor="middle" x="567" y="-85.9" font-family="Times New Roman,serif" font-size="12.00">C</text>
</g>
<!-- 2796789924576 -->
<g id="node22" class="node"><title>2796789924576</title>
<ellipse fill="none" stroke="black" cx="657" cy="-89" rx="27" ry="27"/>
</g>
<!-- 2796789959504&#45;&gt;2796789924576 -->
<g id="edge1" class="edge"><title>2796789959504&#45;&gt;2796789924576</title>
<path fill="none" stroke="black" d="M594.403,-89C602.393,-89 611.311,-89 619.824,-89"/>
<polygon fill="black" stroke="black" points="619.919,-92.5001 629.919,-89 619.919,-85.5001 619.919,-92.5001"/>
</g>
<!-- 2796789924336 -->
<g id="node10" class="node"><title>2796789924336</title>
<polygon fill="none" stroke="black" points="954,-105 900,-105 900,-69 954,-69 954,-105"/>
<text text-anchor="middle" x="927" y="-83.9" font-family="Times New Roman,serif" font-size="12.00">E</text>
</g>
<!-- 2796789924960 -->
<g id="node19" class="node"><title>2796789924960</title>
<ellipse fill="none" stroke="black" cx="1017" cy="-117" rx="27" ry="27"/>
</g>
<!-- 2796789924336&#45;&gt;2796789924960 -->
<g id="edge6" class="edge"><title>2796789924336&#45;&gt;2796789924960</title>
<path fill="none" stroke="black" d="M954.403,-96.001C962.954,-98.9162 972.567,-102.193 981.61,-105.276"/>
<polygon fill="black" stroke="black" points="980.528,-108.605 991.123,-108.519 982.787,-101.98 980.528,-108.605"/>
</g>
<!-- 2796789924720 -->
<g id="node11" class="node"><title>2796789924720</title>
<polygon fill="none" stroke="black" points="954,-159 900,-159 900,-123 954,-123 954,-159"/>
<text text-anchor="middle" x="927" y="-137.9" font-family="Times New Roman,serif" font-size="12.00">D</text>
</g>
<!-- 2796789924720&#45;&gt;2796789924960 -->
<g id="edge5" class="edge"><title>2796789924720&#45;&gt;2796789924960</title>
<path fill="none" stroke="black" d="M954.403,-133.799C962.79,-131.512 972.197,-128.946 981.088,-126.522"/>
<polygon fill="black" stroke="black" points="982.097,-129.874 990.823,-123.866 980.255,-123.121 982.097,-129.874"/>
</g>
<!-- 2796789926448 -->
<g id="node12" class="node"><title>2796789926448</title>
<polygon fill="black" stroke="black" points="1674,-122 1620,-122 1620,-86 1674,-86 1674,-122"/>
</g>
<!-- 2796789959312 -->
<g id="node20" class="node"><title>2796789959312</title>
<ellipse fill="none" stroke="black" cx="1737" cy="-147" rx="27" ry="27"/>
</g>
<!-- 2796789926448&#45;&gt;2796789959312 -->
<g id="edge28" class="edge"><title>2796789926448&#45;&gt;2796789959312</title>
<path fill="none" stroke="black" d="M1674.4,-116.901C1683.44,-121.317 1693.66,-126.312 1703.15,-130.946"/>
<polygon fill="black" stroke="black" points="1701.79,-134.179 1712.31,-135.425 1704.86,-127.89 1701.79,-134.179"/>
</g>
<!-- 2796789926640 -->
<g id="node13" class="node"><title>2796789926640</title>
<polygon fill="black" stroke="black" points="1314,-135 1260,-135 1260,-99 1314,-99 1314,-135"/>
</g>
<!-- 2796789924096 -->
<g id="node25" class="node"><title>2796789924096</title>
<ellipse fill="none" stroke="black" cx="1377" cy="-117" rx="27" ry="27"/>
</g>
<!-- 2796789926640&#45;&gt;2796789924096 -->
<g id="edge21" class="edge"><title>2796789926640&#45;&gt;2796789924096</title>
<path fill="none" stroke="black" d="M1314.4,-117C1322.39,-117 1331.31,-117 1339.82,-117"/>
<polygon fill="black" stroke="black" points="1339.92,-120.5 1349.92,-117 1339.92,-113.5 1339.92,-120.5"/>
</g>
<!-- 2796789959696 -->
<g id="node14" class="node"><title>2796789959696</title>
<polygon fill="black" stroke="black" points="1494,-99 1440,-99 1440,-63 1494,-63 1494,-99"/>
</g>
<!-- 2796789959696&#45;&gt;2796789415840 -->
<g id="edge2" class="edge"><title>2796789959696&#45;&gt;2796789415840</title>
<path fill="none" stroke="black" d="M1494.4,-75.5994C1502.55,-73.9322 1511.67,-72.0676 1520.34,-70.2947"/>
<polygon fill="black" stroke="black" points="1521.13,-73.706 1530.22,-68.2729 1519.72,-66.8479 1521.13,-73.706"/>
</g>
<!-- 2796789927744 -->
<g id="node15" class="node"><title>2796789927744</title>
<ellipse fill="green" stroke="black" cx="1377" cy="-27" rx="27" ry="27"/>
<text text-anchor="middle" x="1377" y="-23.9" font-family="Times New Roman,serif" font-size="12.00">1</text>
</g>
<!-- 2796789927744&#45;&gt;2796789927360 -->
<g id="edge11" class="edge"><title>2796789927744&#45;&gt;2796789927360</title>
<path fill="none" stroke="black" d="M1404.4,-27C1412.39,-27 1421.31,-27 1429.82,-27"/>
<polygon fill="black" stroke="black" points="1429.92,-30.5001 1439.92,-27 1429.92,-23.5001 1429.92,-30.5001"/>
</g>
<!-- 2796789924144&#45;&gt;2796789924336 -->
<g id="edge8" class="edge"><title>2796789924144&#45;&gt;2796789924336</title>
<path fill="none" stroke="black" d="M864.403,-88.3999C872.393,-88.2183 881.311,-88.0157 889.824,-87.8222"/>
<polygon fill="black" stroke="black" points="890.001,-91.3192 899.919,-87.5928 889.842,-84.321 890.001,-91.3192"/>
</g>
<!-- 2796789924144&#45;&gt;2796789924720 -->
<g id="edge7" class="edge"><title>2796789924144&#45;&gt;2796789924720</title>
<path fill="none" stroke="black" d="M860.662,-102.391C869.958,-107.884 880.93,-114.367 891.201,-120.437"/>
<polygon fill="black" stroke="black" points="889.598,-123.555 899.988,-125.629 893.159,-117.529 889.598,-123.555"/>
</g>
<!-- 2796789959360&#45;&gt;2796789959600 -->
<g id="edge9" class="edge"><title>2796789959360&#45;&gt;2796789959600</title>
<path fill="none" stroke="black" d="M141.121,-121.863C150.244,-116.679 160.927,-110.61 170.96,-104.909"/>
<polygon fill="black" stroke="black" points="172.963,-107.797 179.928,-99.8135 169.505,-101.711 172.963,-107.797"/>
</g>
<!-- 2796789959360&#45;&gt;2796789959792 -->
<g id="edge10" class="edge"><title>2796789959360&#45;&gt;2796789959792</title>
<path fill="none" stroke="black" d="M144.403,-136.2C152.393,-136.563 161.311,-136.969 169.824,-137.356"/>
<polygon fill="black" stroke="black" points="169.77,-140.857 179.919,-137.814 170.088,-133.864 169.77,-140.857"/>
</g>
<!-- 2796789959840&#45;&gt;2796789960560 -->
<g id="edge12" class="edge"><title>2796789959840&#45;&gt;2796789960560</title>
<path fill="none" stroke="black" d="M324.403,-89C332.393,-89 341.311,-89 349.824,-89"/>
<polygon fill="black" stroke="black" points="349.919,-92.5001 359.919,-89 349.919,-85.5001 349.919,-92.5001"/>
</g>
<!-- 2796789924960&#45;&gt;2796789925632 -->
<g id="edge13" class="edge"><title>2796789924960&#45;&gt;2796789925632</title>
<path fill="none" stroke="black" d="M1044.4,-117C1052.39,-117 1061.31,-117 1069.82,-117"/>
<polygon fill="black" stroke="black" points="1069.92,-120.5 1079.92,-117 1069.92,-113.5 1069.92,-120.5"/>
</g>
<!-- 2796789959312&#45;&gt;2796789959936 -->
<g id="edge14" class="edge"><title>2796789959312&#45;&gt;2796789959936</title>
<path fill="none" stroke="black" d="M1711.69,-156.757C1677.82,-169.444 1614.27,-190 1558,-190 206,-190 206,-190 206,-190 156.316,-190 99.7684,-179.223 63.9968,-171.041"/>
<polygon fill="black" stroke="black" points="64.5722,-167.581 54.0374,-168.707 62.9748,-174.396 64.5722,-167.581"/>
</g>
<!-- 2796789924768&#45;&gt;2796789959504 -->
<g id="edge15" class="edge"><title>2796789924768&#45;&gt;2796789959504</title>
<path fill="none" stroke="black" d="M504.403,-89C512.393,-89 521.311,-89 529.824,-89"/>
<polygon fill="black" stroke="black" points="529.919,-92.5001 539.919,-89 529.919,-85.5001 529.919,-92.5001"/>
</g>
<!-- 2796789924576&#45;&gt;2796789925056 -->
<g id="edge16" class="edge"><title>2796789924576&#45;&gt;2796789925056</title>
<path fill="none" stroke="black" d="M684.403,-89C692.393,-89 701.311,-89 709.824,-89"/>
<polygon fill="black" stroke="black" points="709.919,-92.5001 719.919,-89 709.919,-85.5001 709.919,-92.5001"/>
</g>
<!-- 2796789925776&#45;&gt;2796789926640 -->
<g id="edge17" class="edge"><title>2796789925776&#45;&gt;2796789926640</title>
<path fill="none" stroke="black" d="M1224.4,-117C1232.39,-117 1241.31,-117 1249.82,-117"/>
<polygon fill="black" stroke="black" points="1249.92,-120.5 1259.92,-117 1249.92,-113.5 1249.92,-120.5"/>
</g>
<!-- 2796789415840&#45;&gt;2796789926448 -->
<g id="edge18" class="edge"><title>2796789415840&#45;&gt;2796789926448</title>
<path fill="none" stroke="black" d="M1582.05,-74.2034C1590.82,-78.2933 1600.95,-83.0096 1610.51,-87.4659"/>
<polygon fill="black" stroke="black" points="1609.28,-90.752 1619.82,-91.8027 1612.23,-84.4069 1609.28,-90.752"/>
</g>
<!-- 2796789924096&#45;&gt;2796789927552 -->
<g id="edge20" class="edge"><title>2796789924096&#45;&gt;2796789927552</title>
<path fill="none" stroke="black" d="M1403.93,-122.303C1412.09,-123.973 1421.26,-125.848 1429.99,-127.634"/>
<polygon fill="black" stroke="black" points="1429.46,-131.097 1439.95,-129.672 1430.86,-124.239 1429.46,-131.097"/>
</g>
<!-- 2796789924096&#45;&gt;2796789959696 -->
<g id="edge19" class="edge"><title>2796789924096&#45;&gt;2796789959696</title>
<path fill="none" stroke="black" d="M1402.51,-106.972C1411.12,-103.451 1420.97,-99.421 1430.31,-95.6022"/>
<polygon fill="black" stroke="black" points="1431.84,-98.7554 1439.77,-91.7296 1429.19,-92.2766 1431.84,-98.7554"/>
</g>
</g>
</svg>
