<?xml version="1.0" encoding="UTF-8" standalone="no"?>
<!DOCTYPE svg PUBLIC "-//W3C//DTD SVG 1.1//EN"
 "http://www.w3.org/Graphics/SVG/1.1/DTD/svg11.dtd">
<!-- Generated by graphviz version 2.38.0 (20140413.2041)
 -->
<!-- Title: &#45;&gt;( &#39;Admission&#39;, X( &#39;Doctor Exam&#39;, &#39;Nurse Exam&#39;, &#45;&gt;( &#39;Equipment preparation&#39;, X( &#39;MRI&#39;, &#39;Scanner&#39; ), &#39;Report edit&#39; ) ), &#39;Waiting&#39;, X( &#39;Operating Room&#39;, &#39;Observation&#39; ), &#39;Checkup&#39;, X( &#39;Discharge&#39;, &#39;Complication&#39; ) ) Pages: 1 -->
<svg width="3839pt" height="194pt"
 viewBox="0.00 0.00 3839.00 194.00" xmlns="http://www.w3.org/2000/svg" xmlns:xlink="http://www.w3.org/1999/xlink">
<g id="graph0" class="graph" transform="scale(1 1) rotate(0) translate(4 190)">
<title>&#45;&gt;( &#39;Admission&#39;, X( &#39;Doctor Exam&#39;, &#39;Nurse Exam&#39;, &#45;&gt;( &#39;Equipment preparation&#39;, X( &#39;MRI&#39;, &#39;Scanner&#39; ), &#39;Report edit&#39; ) ), &#39;Waiting&#39;, X( &#39;Operating Room&#39;, &#39;Observation&#39; ), &#39;Checkup&#39;, X( &#39;Discharge&#39;, &#39;Complication&#39; ) )</title>
<!-- 2848840163968 -->
<g id="node1" class="node"><title>2848840163968</title>
<polygon fill="none" stroke="black" points="334,-82 270,-82 270,-46 334,-46 334,-82"/>
<text text-anchor="middle" x="302" y="-60.9" font-family="Times New Roman,serif" font-size="12.00">Admission</text>
</g>
<!-- 2849013346752 -->
<g id="node31" class="node"><title>2849013346752</title>
<ellipse fill="none" stroke="black" cx="397" cy="-64" rx="27" ry="27"/>
</g>
<!-- 2848840163968&#45;&gt;2849013346752 -->
<g id="edge1" class="edge"><title>2848840163968&#45;&gt;2849013346752</title>
<path fill="none" stroke="black" d="M334.226,-64C342.48,-64 351.455,-64 359.941,-64"/>
<polygon fill="black" stroke="black" points="359.969,-67.5001 369.969,-64 359.969,-60.5001 359.969,-67.5001"/>
</g>
<!-- 2849013347712 -->
<g id="node2" class="node"><title>2849013347712</title>
<polygon fill="none" stroke="black" points="3381,-109 3304,-109 3304,-73 3381,-73 3381,-109"/>
<text text-anchor="middle" x="3342.5" y="-87.9" font-family="Times New Roman,serif" font-size="12.00">Complication</text>
</g>
<!-- 2849013347952 -->
<g id="node38" class="node"><title>2849013347952</title>
<ellipse fill="none" stroke="black" cx="3444" cy="-64" rx="27" ry="27"/>
</g>
<!-- 2849013347712&#45;&gt;2849013347952 -->
<g id="edge3" class="edge"><title>2849013347712&#45;&gt;2849013347952</title>
<path fill="none" stroke="black" d="M3381.12,-80.7925C3389.9,-78.4096 3399.22,-75.8811 3407.88,-73.529"/>
<polygon fill="black" stroke="black" points="3408.95,-76.8651 3417.69,-70.8683 3407.12,-70.1094 3408.95,-76.8651"/>
</g>
<!-- 2849013470208 -->
<g id="node3" class="node"><title>2849013470208</title>
<polygon fill="black" stroke="black" points="144,-82 90,-82 90,-46 144,-46 144,-82"/>
</g>
<!-- 2849205630432 -->
<g id="node30" class="node"><title>2849205630432</title>
<ellipse fill="none" stroke="black" cx="207" cy="-64" rx="27" ry="27"/>
</g>
<!-- 2849013470208&#45;&gt;2849205630432 -->
<g id="edge41" class="edge"><title>2849013470208&#45;&gt;2849205630432</title>
<path fill="none" stroke="black" d="M144.403,-64C152.393,-64 161.311,-64 169.824,-64"/>
<polygon fill="black" stroke="black" points="169.919,-67.5001 179.919,-64 169.919,-60.5001 169.919,-67.5001"/>
</g>
<!-- 2849573666000 -->
<g id="node4" class="node"><title>2849573666000</title>
<polygon fill="none" stroke="black" points="962,-145 843,-145 843,-109 962,-109 962,-145"/>
<text text-anchor="middle" x="902.5" y="-123.9" font-family="Times New Roman,serif" font-size="12.00">Equipment preparation</text>
</g>
<!-- 2849573663216 -->
<g id="node41" class="node"><title>2849573663216</title>
<ellipse fill="none" stroke="black" cx="1025" cy="-127" rx="27" ry="27"/>
</g>
<!-- 2849573666000&#45;&gt;2849573663216 -->
<g id="edge13" class="edge"><title>2849573666000&#45;&gt;2849573663216</title>
<path fill="none" stroke="black" d="M962.338,-127C970.978,-127 979.657,-127 987.664,-127"/>
<polygon fill="black" stroke="black" points="987.742,-130.5 997.742,-127 987.742,-123.5 987.742,-130.5"/>
</g>
<!-- 2849573665232 -->
<g id="node5" class="node"><title>2849573665232</title>
<polygon fill="none" stroke="black" points="1322,-186 1268,-186 1268,-150 1322,-150 1322,-186"/>
<text text-anchor="middle" x="1295" y="-164.9" font-family="Times New Roman,serif" font-size="12.00">MRI</text>
</g>
<!-- 2849573662784 -->
<g id="node37" class="node"><title>2849573662784</title>
<ellipse fill="none" stroke="black" cx="1385" cy="-119" rx="27" ry="27"/>
</g>
<!-- 2849573665232&#45;&gt;2849573662784 -->
<g id="edge6" class="edge"><title>2849573665232&#45;&gt;2849573662784</title>
<path fill="none" stroke="black" d="M1322.4,-153.298C1331.69,-148.129 1342.22,-142.262 1351.92,-136.861"/>
<polygon fill="black" stroke="black" points="1353.86,-139.786 1360.9,-131.863 1350.46,-133.67 1353.86,-139.786"/>
</g>
<!-- 2849573665424 -->
<g id="node6" class="node"><title>2849573665424</title>
<polygon fill="black" stroke="black" points="1502,-137 1448,-137 1448,-101 1502,-101 1502,-137"/>
</g>
<!-- 2849573662880 -->
<g id="node42" class="node"><title>2849573662880</title>
<ellipse fill="none" stroke="black" cx="1565" cy="-119" rx="27" ry="27"/>
</g>
<!-- 2849573665424&#45;&gt;2849573662880 -->
<g id="edge48" class="edge"><title>2849573665424&#45;&gt;2849573662880</title>
<path fill="none" stroke="black" d="M1502.4,-119C1510.39,-119 1519.31,-119 1527.82,-119"/>
<polygon fill="black" stroke="black" points="1527.92,-122.5 1537.92,-119 1527.92,-115.5 1527.92,-122.5"/>
</g>
<!-- 2849573662928 -->
<g id="node7" class="node"><title>2849573662928</title>
<polygon fill="none" stroke="black" points="1322,-132 1268,-132 1268,-96 1322,-96 1322,-132"/>
<text text-anchor="middle" x="1295" y="-110.9" font-family="Times New Roman,serif" font-size="12.00">Scanner</text>
</g>
<!-- 2849573662928&#45;&gt;2849573662784 -->
<g id="edge5" class="edge"><title>2849573662928&#45;&gt;2849573662784</title>
<path fill="none" stroke="black" d="M1322.4,-115.5C1330.39,-115.954 1339.31,-116.461 1347.82,-116.945"/>
<polygon fill="black" stroke="black" points="1347.74,-120.445 1357.92,-117.518 1348.13,-113.456 1347.74,-120.445"/>
</g>
<!-- 2849573665040 -->
<g id="node8" class="node"><title>2849573665040</title>
<polygon fill="black" stroke="black" points="694,-136 640,-136 640,-100 694,-100 694,-136"/>
</g>
<!-- 2848840164352 -->
<g id="node40" class="node"><title>2848840164352</title>
<ellipse fill="none" stroke="black" cx="768.5" cy="-127" rx="27" ry="27"/>
</g>
<!-- 2849573665040&#45;&gt;2848840164352 -->
<g id="edge49" class="edge"><title>2849573665040&#45;&gt;2848840164352</title>
<path fill="none" stroke="black" d="M694.142,-120.365C705.568,-121.398 719.157,-122.627 731.515,-123.745"/>
<polygon fill="black" stroke="black" points="731.257,-127.236 741.532,-124.651 731.888,-120.264 731.257,-127.236"/>
</g>
<!-- 2849573666576 -->
<g id="node9" class="node"><title>2849573666576</title>
<polygon fill="black" stroke="black" points="514,-82 460,-82 460,-46 514,-46 514,-82"/>
</g>
<!-- 2848840164064 -->
<g id="node44" class="node"><title>2848840164064</title>
<ellipse fill="none" stroke="black" cx="577" cy="-64" rx="27" ry="27"/>
</g>
<!-- 2849573666576&#45;&gt;2848840164064 -->
<g id="edge39" class="edge"><title>2849573666576&#45;&gt;2848840164064</title>
<path fill="none" stroke="black" d="M514.403,-64C522.393,-64 531.311,-64 539.824,-64"/>
<polygon fill="black" stroke="black" points="539.919,-67.5001 549.919,-64 539.919,-60.5001 539.919,-67.5001"/>
</g>
<!-- 2849013349776 -->
<g id="node10" class="node"><title>2849013349776</title>
<polygon fill="black" stroke="black" points="2056,-82 2002,-82 2002,-46 2056,-46 2056,-82"/>
</g>
<!-- 2849013348624 -->
<g id="node32" class="node"><title>2849013348624</title>
<ellipse fill="none" stroke="black" cx="2119" cy="-64" rx="27" ry="27"/>
</g>
<!-- 2849013349776&#45;&gt;2849013348624 -->
<g id="edge40" class="edge"><title>2849013349776&#45;&gt;2849013348624</title>
<path fill="none" stroke="black" d="M2056.4,-64C2064.39,-64 2073.31,-64 2081.82,-64"/>
<polygon fill="black" stroke="black" points="2081.92,-67.5001 2091.92,-64 2081.92,-60.5001 2081.92,-67.5001"/>
</g>
<!-- 2849013346512 -->
<g id="node11" class="node"><title>2849013346512</title>
<polygon fill="black" stroke="black" points="3561,-82 3507,-82 3507,-46 3561,-46 3561,-82"/>
</g>
<!-- 2849013350112 -->
<g id="node36" class="node"><title>2849013350112</title>
<ellipse fill="none" stroke="black" cx="3624" cy="-64" rx="27" ry="27"/>
</g>
<!-- 2849013346512&#45;&gt;2849013350112 -->
<g id="edge47" class="edge"><title>2849013346512&#45;&gt;2849013350112</title>
<path fill="none" stroke="black" d="M3561.4,-64C3569.39,-64 3578.31,-64 3586.82,-64"/>
<polygon fill="black" stroke="black" points="3586.92,-67.5001 3596.92,-64 3586.92,-60.5001 3586.92,-67.5001"/>
</g>
<!-- 2849013349584 -->
<g id="node12" class="node"><title>2849013349584</title>
<polygon fill="black" stroke="black" points="3178,-82 3124,-82 3124,-46 3178,-46 3178,-82"/>
</g>
<!-- 2849013348192 -->
<g id="node27" class="node"><title>2849013348192</title>
<ellipse fill="none" stroke="black" cx="3241" cy="-64" rx="27" ry="27"/>
</g>
<!-- 2849013349584&#45;&gt;2849013348192 -->
<g id="edge43" class="edge"><title>2849013349584&#45;&gt;2849013348192</title>
<path fill="none" stroke="black" d="M3178.4,-64C3186.39,-64 3195.31,-64 3203.82,-64"/>
<polygon fill="black" stroke="black" points="3203.92,-67.5001 3213.92,-64 3203.92,-60.5001 3203.92,-67.5001"/>
</g>
<!-- 2849573663456 -->
<g id="node13" class="node"><title>2849573663456</title>
<polygon fill="none" stroke="black" points="1696,-137 1628,-137 1628,-101 1696,-101 1696,-137"/>
<text text-anchor="middle" x="1662" y="-115.9" font-family="Times New Roman,serif" font-size="12.00">Report edit</text>
</g>
<!-- 2849573663072 -->
<g id="node43" class="node"><title>2849573663072</title>
<ellipse fill="none" stroke="black" cx="1759" cy="-119" rx="27" ry="27"/>
</g>
<!-- 2849573663456&#45;&gt;2849573663072 -->
<g id="edge10" class="edge"><title>2849573663456&#45;&gt;2849573663072</title>
<path fill="none" stroke="black" d="M1696.23,-119C1704.43,-119 1713.26,-119 1721.6,-119"/>
<polygon fill="black" stroke="black" points="1721.82,-122.5 1731.82,-119 1721.82,-115.5 1721.82,-122.5"/>
</g>
<!-- 2848840164832 -->
<g id="node14" class="node"><title>2848840164832</title>
<polygon fill="none" stroke="black" points="2236,-82 2182,-82 2182,-46 2236,-46 2236,-82"/>
<text text-anchor="middle" x="2209" y="-60.9" font-family="Times New Roman,serif" font-size="12.00">Waiting</text>
</g>
<!-- 2849013347472 -->
<g id="node33" class="node"><title>2849013347472</title>
<ellipse fill="none" stroke="black" cx="2299" cy="-64" rx="27" ry="27"/>
</g>
<!-- 2848840164832&#45;&gt;2849013347472 -->
<g id="edge11" class="edge"><title>2848840164832&#45;&gt;2849013347472</title>
<path fill="none" stroke="black" d="M2236.4,-64C2244.39,-64 2253.31,-64 2261.82,-64"/>
<polygon fill="black" stroke="black" points="2261.92,-67.5001 2271.92,-64 2261.92,-60.5001 2261.92,-67.5001"/>
</g>
<!-- 2849013349536 -->
<g id="node15" class="node"><title>2849013349536</title>
<polygon fill="none" stroke="black" points="2634,-109 2542,-109 2542,-73 2634,-73 2634,-109"/>
<text text-anchor="middle" x="2588" y="-87.9" font-family="Times New Roman,serif" font-size="12.00">Operating Room</text>
</g>
<!-- 2849013348768 -->
<g id="node39" class="node"><title>2849013348768</title>
<ellipse fill="none" stroke="black" cx="2697" cy="-64" rx="27" ry="27"/>
</g>
<!-- 2849013349536&#45;&gt;2849013348768 -->
<g id="edge2" class="edge"><title>2849013349536&#45;&gt;2849013348768</title>
<path fill="none" stroke="black" d="M2634.07,-79.6278C2642.92,-77.3942 2652.09,-75.0809 2660.57,-72.9407"/>
<polygon fill="black" stroke="black" points="2661.67,-76.2735 2670.51,-70.4331 2659.95,-69.4863 2661.67,-76.2735"/>
</g>
<!-- 2849013348000 -->
<g id="node16" class="node"><title>2849013348000</title>
<polygon fill="none" stroke="black" points="2998,-82 2940,-82 2940,-46 2998,-46 2998,-82"/>
<text text-anchor="middle" x="2969" y="-60.9" font-family="Times New Roman,serif" font-size="12.00">Checkup</text>
</g>
<!-- 2849013348720 -->
<g id="node35" class="node"><title>2849013348720</title>
<ellipse fill="none" stroke="black" cx="3061" cy="-64" rx="27" ry="27"/>
</g>
<!-- 2849013348000&#45;&gt;2849013348720 -->
<g id="edge7" class="edge"><title>2849013348000&#45;&gt;2849013348720</title>
<path fill="none" stroke="black" d="M2998.48,-64C3006.44,-64 3015.21,-64 3023.57,-64"/>
<polygon fill="black" stroke="black" points="3023.85,-67.5001 3033.85,-64 3023.85,-60.5001 3023.85,-67.5001"/>
</g>
<!-- 2849013347808 -->
<g id="node17" class="node"><title>2849013347808</title>
<polygon fill="none" stroke="black" points="3373.5,-55 3311.5,-55 3311.5,-19 3373.5,-19 3373.5,-55"/>
<text text-anchor="middle" x="3342.5" y="-33.9" font-family="Times New Roman,serif" font-size="12.00">Discharge</text>
</g>
<!-- 2849013347808&#45;&gt;2849013347952 -->
<g id="edge4" class="edge"><title>2849013347808&#45;&gt;2849013347952</title>
<path fill="none" stroke="black" d="M3373.62,-45.1742C3384.4,-48.0975 3396.63,-51.4176 3407.8,-54.4469"/>
<polygon fill="black" stroke="black" points="3407.11,-57.8865 3417.67,-57.1276 3408.94,-51.1308 3407.11,-57.8865"/>
</g>
<!-- 2849013469728 -->
<g id="node18" class="node"><title>2849013469728</title>
<polygon fill="black" stroke="black" points="3741,-82 3687,-82 3687,-46 3741,-46 3741,-82"/>
</g>
<!-- 2849013469440 -->
<g id="node46" class="node"><title>2849013469440</title>
<ellipse fill="orange" stroke="black" cx="3804" cy="-64" rx="27" ry="27"/>
</g>
<!-- 2849013469728&#45;&gt;2849013469440 -->
<g id="edge42" class="edge"><title>2849013469728&#45;&gt;2849013469440</title>
<path fill="none" stroke="black" d="M3741.4,-64C3749.39,-64 3758.31,-64 3766.82,-64"/>
<polygon fill="black" stroke="black" points="3766.92,-67.5001 3776.92,-64 3766.92,-60.5001 3766.92,-67.5001"/>
</g>
<!-- 2849013347184 -->
<g id="node19" class="node"><title>2849013347184</title>
<polygon fill="black" stroke="black" points="2416,-82 2362,-82 2362,-46 2416,-46 2416,-82"/>
</g>
<!-- 2848840167232 -->
<g id="node29" class="node"><title>2848840167232</title>
<ellipse fill="none" stroke="black" cx="2479" cy="-64" rx="27" ry="27"/>
</g>
<!-- 2849013347184&#45;&gt;2848840167232 -->
<g id="edge45" class="edge"><title>2849013347184&#45;&gt;2848840167232</title>
<path fill="none" stroke="black" d="M2416.4,-64C2424.39,-64 2433.31,-64 2441.82,-64"/>
<polygon fill="black" stroke="black" points="2441.92,-67.5001 2451.92,-64 2441.92,-60.5001 2441.92,-67.5001"/>
</g>
<!-- 2848840163824 -->
<g id="node20" class="node"><title>2848840163824</title>
<polygon fill="none" stroke="black" points="807,-82 730,-82 730,-46 807,-46 807,-82"/>
<text text-anchor="middle" x="768.5" y="-60.9" font-family="Times New Roman,serif" font-size="12.00">Doctor Exam</text>
</g>
<!-- 2848840164688 -->
<g id="node45" class="node"><title>2848840164688</title>
<ellipse fill="none" stroke="black" cx="1939" cy="-64" rx="27" ry="27"/>
</g>
<!-- 2848840163824&#45;&gt;2848840164688 -->
<g id="edge12" class="edge"><title>2848840163824&#45;&gt;2848840164688</title>
<path fill="none" stroke="black" d="M807.016,-64C856.659,-64 946.899,-64 1024,-64 1024,-64 1024,-64 1760,-64 1809.08,-64 1865.77,-64 1901.74,-64"/>
<polygon fill="black" stroke="black" points="1901.76,-67.5001 1911.76,-64 1901.76,-60.5001 1901.76,-67.5001"/>
</g>
<!-- 2848840164784 -->
<g id="node21" class="node"><title>2848840164784</title>
<polygon fill="none" stroke="black" points="939,-36 866,-36 866,-0 939,-0 939,-36"/>
<text text-anchor="middle" x="902.5" y="-14.9" font-family="Times New Roman,serif" font-size="12.00">Nurse Exam</text>
</g>
<!-- 2848840164784&#45;&gt;2848840164688 -->
<g id="edge9" class="edge"><title>2848840164784&#45;&gt;2848840164688</title>
<path fill="none" stroke="black" d="M939.252,-19.093C981.128,-20.2773 1052.59,-22 1114,-22 1114,-22 1114,-22 1760,-22 1811.15,-22 1868.41,-38.6321 1903.84,-50.9636"/>
<polygon fill="black" stroke="black" points="1903.07,-54.4053 1913.66,-54.4695 1905.42,-47.8124 1903.07,-54.4053"/>
</g>
<!-- 2849573663408 -->
<g id="node22" class="node"><title>2849573663408</title>
<polygon fill="black" stroke="black" points="1142,-145 1088,-145 1088,-109 1142,-109 1142,-145"/>
</g>
<!-- 2849573663264 -->
<g id="node28" class="node"><title>2849573663264</title>
<ellipse fill="none" stroke="black" cx="1205" cy="-127" rx="27" ry="27"/>
</g>
<!-- 2849573663408&#45;&gt;2849573663264 -->
<g id="edge44" class="edge"><title>2849573663408&#45;&gt;2849573663264</title>
<path fill="none" stroke="black" d="M1142.4,-127C1150.39,-127 1159.31,-127 1167.82,-127"/>
<polygon fill="black" stroke="black" points="1167.92,-130.5 1177.92,-127 1167.92,-123.5 1167.92,-130.5"/>
</g>
<!-- 2849013346800 -->
<g id="node23" class="node"><title>2849013346800</title>
<polygon fill="black" stroke="black" points="1876,-132 1822,-132 1822,-96 1876,-96 1876,-132"/>
</g>
<!-- 2849013346800&#45;&gt;2848840164688 -->
<g id="edge50" class="edge"><title>2849013346800&#45;&gt;2848840164688</title>
<path fill="none" stroke="black" d="M1876.4,-98.9984C1885.86,-93.6246 1896.62,-87.513 1906.47,-81.9174"/>
<polygon fill="black" stroke="black" points="1908.23,-84.9428 1915.19,-76.9596 1904.77,-78.8566 1908.23,-84.9428"/>
</g>
<!-- 2849013347376 -->
<g id="node24" class="node"><title>2849013347376</title>
<polygon fill="none" stroke="black" points="2624,-55 2552,-55 2552,-19 2624,-19 2624,-55"/>
<text text-anchor="middle" x="2588" y="-33.9" font-family="Times New Roman,serif" font-size="12.00">Observation</text>
</g>
<!-- 2849013347376&#45;&gt;2849013348768 -->
<g id="edge8" class="edge"><title>2849013347376&#45;&gt;2849013348768</title>
<path fill="none" stroke="black" d="M2624.04,-45.8408C2635.82,-48.8146 2648.97,-52.1322 2660.77,-55.1097"/>
<polygon fill="black" stroke="black" points="2660.17,-58.5686 2670.72,-57.6217 2661.88,-51.7813 2660.17,-58.5686"/>
</g>
<!-- 2849013348336 -->
<g id="node25" class="node"><title>2849013348336</title>
<polygon fill="black" stroke="black" points="2814,-82 2760,-82 2760,-46 2814,-46 2814,-82"/>
</g>
<!-- 2849013349248 -->
<g id="node34" class="node"><title>2849013349248</title>
<ellipse fill="none" stroke="black" cx="2877" cy="-64" rx="27" ry="27"/>
</g>
<!-- 2849013348336&#45;&gt;2849013349248 -->
<g id="edge46" class="edge"><title>2849013348336&#45;&gt;2849013349248</title>
<path fill="none" stroke="black" d="M2814.4,-64C2822.39,-64 2831.31,-64 2839.82,-64"/>
<polygon fill="black" stroke="black" points="2839.92,-67.5001 2849.92,-64 2839.92,-60.5001 2839.92,-67.5001"/>
</g>
<!-- 2849013469872 -->
<g id="node26" class="node"><title>2849013469872</title>
<ellipse fill="green" stroke="black" cx="27" cy="-64" rx="27" ry="27"/>
<text text-anchor="middle" x="27" y="-60.9" font-family="Times New Roman,serif" font-size="12.00">1</text>
</g>
<!-- 2849013469872&#45;&gt;2849013470208 -->
<g id="edge27" class="edge"><title>2849013469872&#45;&gt;2849013470208</title>
<path fill="none" stroke="black" d="M54.4029,-64C62.3932,-64 71.3106,-64 79.8241,-64"/>
<polygon fill="black" stroke="black" points="79.919,-67.5001 89.919,-64 79.919,-60.5001 79.919,-67.5001"/>
</g>
<!-- 2849013348192&#45;&gt;2849013347712 -->
<g id="edge14" class="edge"><title>2849013348192&#45;&gt;2849013347712</title>
<path fill="none" stroke="black" d="M3267.37,-70.8831C3275.48,-73.0861 3284.75,-75.6013 3293.92,-78.0899"/>
<polygon fill="black" stroke="black" points="3293.21,-81.5225 3303.78,-80.7636 3295.04,-74.7668 3293.21,-81.5225"/>
</g>
<!-- 2849013348192&#45;&gt;2849013347808 -->
<g id="edge15" class="edge"><title>2849013348192&#45;&gt;2849013347808</title>
<path fill="none" stroke="black" d="M3267.37,-57.1169C3277.7,-54.3134 3289.89,-51.0041 3301.38,-47.8878"/>
<polygon fill="black" stroke="black" points="3302.49,-51.2134 3311.22,-45.2166 3300.65,-44.4577 3302.49,-51.2134"/>
</g>
<!-- 2849573663264&#45;&gt;2849573665232 -->
<g id="edge17" class="edge"><title>2849573663264&#45;&gt;2849573665232</title>
<path fill="none" stroke="black" d="M1230.05,-138.203C1238.82,-142.293 1248.95,-147.01 1258.51,-151.466"/>
<polygon fill="black" stroke="black" points="1257.28,-154.752 1267.82,-155.803 1260.23,-148.407 1257.28,-154.752"/>
</g>
<!-- 2849573663264&#45;&gt;2849573662928 -->
<g id="edge16" class="edge"><title>2849573663264&#45;&gt;2849573662928</title>
<path fill="none" stroke="black" d="M1231.93,-123.17C1240.09,-121.964 1249.26,-120.61 1257.99,-119.32"/>
<polygon fill="black" stroke="black" points="1258.57,-122.772 1267.95,-117.848 1257.55,-115.847 1258.57,-122.772"/>
</g>
<!-- 2848840167232&#45;&gt;2849013349536 -->
<g id="edge18" class="edge"><title>2848840167232&#45;&gt;2849013349536</title>
<path fill="none" stroke="black" d="M2505.36,-70.3986C2513.35,-72.4142 2522.5,-74.725 2531.73,-77.0535"/>
<polygon fill="black" stroke="black" points="2531.17,-80.5209 2541.72,-79.574 2532.88,-73.7337 2531.17,-80.5209"/>
</g>
<!-- 2848840167232&#45;&gt;2849013347376 -->
<g id="edge19" class="edge"><title>2848840167232&#45;&gt;2849013347376</title>
<path fill="none" stroke="black" d="M2505.36,-57.6014C2516.28,-54.8451 2529.39,-51.5367 2541.88,-48.3859"/>
<polygon fill="black" stroke="black" points="2542.87,-51.7466 2551.7,-45.9063 2541.15,-44.9594 2542.87,-51.7466"/>
</g>
<!-- 2849205630432&#45;&gt;2848840163968 -->
<g id="edge20" class="edge"><title>2849205630432&#45;&gt;2848840163968</title>
<path fill="none" stroke="black" d="M234.401,-64C242.266,-64 251.08,-64 259.658,-64"/>
<polygon fill="black" stroke="black" points="259.923,-67.5001 269.923,-64 259.923,-60.5001 259.923,-67.5001"/>
</g>
<!-- 2849013346752&#45;&gt;2849573666576 -->
<g id="edge21" class="edge"><title>2849013346752&#45;&gt;2849573666576</title>
<path fill="none" stroke="black" d="M424.403,-64C432.393,-64 441.311,-64 449.824,-64"/>
<polygon fill="black" stroke="black" points="449.919,-67.5001 459.919,-64 449.919,-60.5001 449.919,-67.5001"/>
</g>
<!-- 2849013348624&#45;&gt;2848840164832 -->
<g id="edge22" class="edge"><title>2849013348624&#45;&gt;2848840164832</title>
<path fill="none" stroke="black" d="M2146.4,-64C2154.39,-64 2163.31,-64 2171.82,-64"/>
<polygon fill="black" stroke="black" points="2171.92,-67.5001 2181.92,-64 2171.92,-60.5001 2171.92,-67.5001"/>
</g>
<!-- 2849013347472&#45;&gt;2849013347184 -->
<g id="edge23" class="edge"><title>2849013347472&#45;&gt;2849013347184</title>
<path fill="none" stroke="black" d="M2326.4,-64C2334.39,-64 2343.31,-64 2351.82,-64"/>
<polygon fill="black" stroke="black" points="2351.92,-67.5001 2361.92,-64 2351.92,-60.5001 2351.92,-67.5001"/>
</g>
<!-- 2849013349248&#45;&gt;2849013348000 -->
<g id="edge24" class="edge"><title>2849013349248&#45;&gt;2849013348000</title>
<path fill="none" stroke="black" d="M2904.03,-64C2912,-64 2920.95,-64 2929.56,-64"/>
<polygon fill="black" stroke="black" points="2929.82,-67.5001 2939.82,-64 2929.82,-60.5001 2929.82,-67.5001"/>
</g>
<!-- 2849013348720&#45;&gt;2849013349584 -->
<g id="edge25" class="edge"><title>2849013348720&#45;&gt;2849013349584</title>
<path fill="none" stroke="black" d="M3088.4,-64C3096.39,-64 3105.31,-64 3113.82,-64"/>
<polygon fill="black" stroke="black" points="3113.92,-67.5001 3123.92,-64 3113.92,-60.5001 3113.92,-67.5001"/>
</g>
<!-- 2849013350112&#45;&gt;2849013469728 -->
<g id="edge26" class="edge"><title>2849013350112&#45;&gt;2849013469728</title>
<path fill="none" stroke="black" d="M3651.4,-64C3659.39,-64 3668.31,-64 3676.82,-64"/>
<polygon fill="black" stroke="black" points="3676.92,-67.5001 3686.92,-64 3676.92,-60.5001 3676.92,-67.5001"/>
</g>
<!-- 2849573662784&#45;&gt;2849573665424 -->
<g id="edge28" class="edge"><title>2849573662784&#45;&gt;2849573665424</title>
<path fill="none" stroke="black" d="M1412.4,-119C1420.39,-119 1429.31,-119 1437.82,-119"/>
<polygon fill="black" stroke="black" points="1437.92,-122.5 1447.92,-119 1437.92,-115.5 1437.92,-122.5"/>
</g>
<!-- 2849013347952&#45;&gt;2849013346512 -->
<g id="edge29" class="edge"><title>2849013347952&#45;&gt;2849013346512</title>
<path fill="none" stroke="black" d="M3471.4,-64C3479.39,-64 3488.31,-64 3496.82,-64"/>
<polygon fill="black" stroke="black" points="3496.92,-67.5001 3506.92,-64 3496.92,-60.5001 3496.92,-67.5001"/>
</g>
<!-- 2849013348768&#45;&gt;2849013348336 -->
<g id="edge30" class="edge"><title>2849013348768&#45;&gt;2849013348336</title>
<path fill="none" stroke="black" d="M2724.4,-64C2732.39,-64 2741.31,-64 2749.82,-64"/>
<polygon fill="black" stroke="black" points="2749.92,-67.5001 2759.92,-64 2749.92,-60.5001 2749.92,-67.5001"/>
</g>
<!-- 2848840164352&#45;&gt;2849573666000 -->
<g id="edge31" class="edge"><title>2848840164352&#45;&gt;2849573666000</title>
<path fill="none" stroke="black" d="M795.579,-127C806.416,-127 819.553,-127 832.834,-127"/>
<polygon fill="black" stroke="black" points="832.983,-130.5 842.983,-127 832.983,-123.5 832.983,-130.5"/>
</g>
<!-- 2849573663216&#45;&gt;2849573663408 -->
<g id="edge32" class="edge"><title>2849573663216&#45;&gt;2849573663408</title>
<path fill="none" stroke="black" d="M1052.4,-127C1060.39,-127 1069.31,-127 1077.82,-127"/>
<polygon fill="black" stroke="black" points="1077.92,-130.5 1087.92,-127 1077.92,-123.5 1077.92,-130.5"/>
</g>
<!-- 2849573662880&#45;&gt;2849573663456 -->
<g id="edge33" class="edge"><title>2849573662880&#45;&gt;2849573663456</title>
<path fill="none" stroke="black" d="M1592.21,-119C1600.11,-119 1608.99,-119 1617.69,-119"/>
<polygon fill="black" stroke="black" points="1617.74,-122.5 1627.74,-119 1617.74,-115.5 1617.74,-122.5"/>
</g>
<!-- 2849573663072&#45;&gt;2849013346800 -->
<g id="edge34" class="edge"><title>2849573663072&#45;&gt;2849013346800</title>
<path fill="none" stroke="black" d="M1786.4,-117.5C1794.39,-117.046 1803.31,-116.539 1811.82,-116.055"/>
<polygon fill="black" stroke="black" points="1812.13,-119.544 1821.92,-115.482 1811.74,-112.555 1812.13,-119.544"/>
</g>
<!-- 2848840164064&#45;&gt;2849573665040 -->
<g id="edge37" class="edge"><title>2848840164064&#45;&gt;2849573665040</title>
<path fill="none" stroke="black" d="M600.662,-77.9063C609.958,-83.6104 620.93,-90.3431 631.201,-96.6462"/>
<polygon fill="black" stroke="black" points="629.634,-99.7908 639.988,-102.038 633.295,-93.8246 629.634,-99.7908"/>
</g>
<!-- 2848840164064&#45;&gt;2848840163824 -->
<g id="edge36" class="edge"><title>2848840164064&#45;&gt;2848840163824</title>
<path fill="none" stroke="black" d="M604.349,-64C634.061,-64 682.989,-64 719.527,-64"/>
<polygon fill="black" stroke="black" points="719.955,-67.5001 729.955,-64 719.955,-60.5001 719.955,-67.5001"/>
</g>
<!-- 2848840164064&#45;&gt;2848840164784 -->
<g id="edge35" class="edge"><title>2848840164064&#45;&gt;2848840164784</title>
<path fill="none" stroke="black" d="M603.736,-58.898C633.899,-53.0417 685.433,-43.42 730,-37 772.456,-30.8842 821.071,-25.6658 855.674,-22.2542"/>
<polygon fill="black" stroke="black" points="856.327,-25.7073 865.94,-21.2544 855.648,-18.7402 856.327,-25.7073"/>
</g>
<!-- 2848840164688&#45;&gt;2849013349776 -->
<g id="edge38" class="edge"><title>2848840164688&#45;&gt;2849013349776</title>
<path fill="none" stroke="black" d="M1966.4,-64C1974.39,-64 1983.31,-64 1991.82,-64"/>
<polygon fill="black" stroke="black" points="1991.92,-67.5001 2001.92,-64 1991.92,-60.5001 1991.92,-67.5001"/>
</g>
</g>
</svg>
