<?xml version="1.0" encoding="UTF-8" standalone="no"?>
<!DOCTYPE svg PUBLIC "-//W3C//DTD SVG 1.1//EN"
 "http://www.w3.org/Graphics/SVG/1.1/DTD/svg11.dtd">
<!-- Generated by graphviz version 2.38.0 (20140413.2041)
 -->
<!-- Title: &#45;&gt;( &#39;Admission&#39;, X( &#39;Doctor Exam&#39;, &#39;Nurse Exam&#39;, &#45;&gt;( &#39;Equipment preparation&#39;, X( &#39;MRI&#39;, &#39;Scanner&#39; ), &#39;Report edit&#39; ) ), &#39;Waiting&#39;, X( &#39;Operating Room&#39;, &#39;Observation&#39; ), &#39;Checkup&#39;, X( &#39;Discharge&#39;, &#39;Complication&#39; ) ) Pages: 1 -->
<svg width="3858pt" height="243pt"
 viewBox="0.00 0.00 3858.00 243.00" xmlns="http://www.w3.org/2000/svg" xmlns:xlink="http://www.w3.org/1999/xlink">
<g id="graph0" class="graph" transform="scale(1 1) rotate(0) translate(4 239)">
<title>&#45;&gt;( &#39;Admission&#39;, X( &#39;Doctor Exam&#39;, &#39;Nurse Exam&#39;, &#45;&gt;( &#39;Equipment preparation&#39;, X( &#39;MRI&#39;, &#39;Scanner&#39; ), &#39;Report edit&#39; ) ), &#39;Waiting&#39;, X( &#39;Operating Room&#39;, &#39;Observation&#39; ), &#39;Checkup&#39;, X( &#39;Discharge&#39;, &#39;Complication&#39; ) )</title>
<!-- 2790961707904 -->
<g id="node1" class="node"><title>2790961707904</title>
<polygon fill="none" stroke="black" points="334,-163 270,-163 270,-127 334,-127 334,-163"/>
<text text-anchor="middle" x="302" y="-141.9" font-family="Times New Roman,serif" font-size="12.00">Admission</text>
</g>
<!-- 2790961609984 -->
<g id="node35" class="node"><title>2790961609984</title>
<ellipse fill="none" stroke="black" cx="397" cy="-145" rx="27" ry="27"/>
</g>
<!-- 2790961707904&#45;&gt;2790961609984 -->
<g id="edge1" class="edge"><title>2790961707904&#45;&gt;2790961609984</title>
<path fill="none" stroke="black" d="M334.226,-145C342.48,-145 351.455,-145 359.941,-145"/>
<polygon fill="black" stroke="black" points="359.969,-148.5 369.969,-145 359.969,-141.5 359.969,-148.5"/>
</g>
<!-- 2790961705408 -->
<g id="node2" class="node"><title>2790961705408</title>
<polygon fill="none" stroke="black" points="958,-100 839,-100 839,-64 958,-64 958,-100"/>
<text text-anchor="middle" x="898.5" y="-78.9" font-family="Times New Roman,serif" font-size="12.00">Equipment preparation</text>
</g>
<!-- 2790961606720 -->
<g id="node45" class="node"><title>2790961606720</title>
<ellipse fill="none" stroke="black" cx="1021" cy="-82" rx="27" ry="27"/>
</g>
<!-- 2790961705408&#45;&gt;2790961606720 -->
<g id="edge5" class="edge"><title>2790961705408&#45;&gt;2790961606720</title>
<path fill="none" stroke="black" d="M958.338,-82C966.978,-82 975.657,-82 983.664,-82"/>
<polygon fill="black" stroke="black" points="983.742,-85.5001 993.742,-82 983.742,-78.5001 983.742,-85.5001"/>
</g>
<!-- 2790961705600 -->
<g id="node3" class="node"><title>2790961705600</title>
<polygon fill="none" stroke="black" points="1318,-113 1264,-113 1264,-77 1318,-77 1318,-113"/>
<text text-anchor="middle" x="1291" y="-91.9" font-family="Times New Roman,serif" font-size="12.00">MRI</text>
</g>
<!-- 2790961708288 -->
<g id="node42" class="node"><title>2790961708288</title>
<ellipse fill="none" stroke="black" cx="1381" cy="-86" rx="27" ry="27"/>
</g>
<!-- 2790961705600&#45;&gt;2790961708288 -->
<g id="edge7" class="edge"><title>2790961705600&#45;&gt;2790961708288</title>
<path fill="none" stroke="black" d="M1318.4,-92.2997C1326.39,-91.4825 1335.31,-90.5705 1343.82,-89.6998"/>
<polygon fill="black" stroke="black" points="1344.33,-93.1667 1353.92,-88.6674 1343.61,-86.203 1344.33,-93.1667"/>
</g>
<!-- 2790961706944 -->
<g id="node4" class="node"><title>2790961706944</title>
<polygon fill="none" stroke="black" points="1692,-104 1624,-104 1624,-68 1692,-68 1692,-104"/>
<text text-anchor="middle" x="1658" y="-82.9" font-family="Times New Roman,serif" font-size="12.00">Report edit</text>
</g>
<!-- 2790961606912 -->
<g id="node47" class="node"><title>2790961606912</title>
<ellipse fill="none" stroke="black" cx="1755" cy="-86" rx="27" ry="27"/>
</g>
<!-- 2790961706944&#45;&gt;2790961606912 -->
<g id="edge6" class="edge"><title>2790961706944&#45;&gt;2790961606912</title>
<path fill="none" stroke="black" d="M1692.23,-86C1700.43,-86 1709.26,-86 1717.6,-86"/>
<polygon fill="black" stroke="black" points="1717.82,-89.5001 1727.82,-86 1717.82,-82.5001 1717.82,-89.5001"/>
</g>
<!-- 2790961608448 -->
<g id="node5" class="node"><title>2790961608448</title>
<polygon fill="black" stroke="black" points="2075,-163 2021,-163 2021,-127 2075,-127 2075,-163"/>
</g>
<!-- 2790961609840 -->
<g id="node36" class="node"><title>2790961609840</title>
<ellipse fill="none" stroke="black" cx="2138" cy="-145" rx="27" ry="27"/>
</g>
<!-- 2790961608448&#45;&gt;2790961609840 -->
<g id="edge49" class="edge"><title>2790961608448&#45;&gt;2790961609840</title>
<path fill="none" stroke="black" d="M2075.4,-145C2083.39,-145 2092.31,-145 2100.82,-145"/>
<polygon fill="black" stroke="black" points="2100.92,-148.5 2110.92,-145 2100.92,-141.5 2100.92,-148.5"/>
</g>
<!-- 2790961609024 -->
<g id="node6" class="node"><title>2790961609024</title>
<polygon fill="black" stroke="black" points="2435,-171 2381,-171 2381,-135 2435,-135 2435,-171"/>
</g>
<!-- 2790961707616 -->
<g id="node31" class="node"><title>2790961707616</title>
<ellipse fill="none" stroke="black" cx="2498" cy="-153" rx="27" ry="27"/>
</g>
<!-- 2790961609024&#45;&gt;2790961707616 -->
<g id="edge53" class="edge"><title>2790961609024&#45;&gt;2790961707616</title>
<path fill="none" stroke="black" d="M2435.4,-153C2443.39,-153 2452.31,-153 2460.82,-153"/>
<polygon fill="black" stroke="black" points="2460.92,-156.5 2470.92,-153 2460.92,-149.5 2460.92,-156.5"/>
</g>
<!-- 2790961608832 -->
<g id="node7" class="node"><title>2790961608832</title>
<polygon fill="none" stroke="black" points="2643,-108 2571,-108 2571,-72 2643,-72 2643,-108"/>
<text text-anchor="middle" x="2607" y="-86.9" font-family="Times New Roman,serif" font-size="12.00">Observation</text>
</g>
<!-- 2790961608928 -->
<g id="node41" class="node"><title>2790961608928</title>
<ellipse fill="none" stroke="black" cx="2716" cy="-149" rx="27" ry="27"/>
</g>
<!-- 2790961608832&#45;&gt;2790961608928 -->
<g id="edge11" class="edge"><title>2790961608832&#45;&gt;2790961608928</title>
<path fill="none" stroke="black" d="M2640.68,-108.023C2654.17,-115.457 2669.74,-124.043 2683.14,-131.43"/>
<polygon fill="black" stroke="black" points="2681.56,-134.559 2692.01,-136.323 2684.94,-128.429 2681.56,-134.559"/>
</g>
<!-- 2790962630224 -->
<g id="node52" class="node"><title>2790962630224</title>
<ellipse fill="none" stroke="black" cx="2716" cy="-77" rx="27" ry="27"/>
</g>
<!-- 2790961608832&#45;&gt;2790962630224 -->
<g id="edge12" class="edge"><title>2790961608832&#45;&gt;2790962630224</title>
<path fill="none" stroke="black" d="M2643.04,-85.7433C2654.52,-84.3486 2667.29,-82.7969 2678.85,-81.3924"/>
<polygon fill="black" stroke="black" points="2679.55,-84.8333 2689.05,-80.1526 2678.7,-77.8844 2679.55,-84.8333"/>
</g>
<!-- 2790962626624 -->
<g id="node8" class="node"><title>2790962626624</title>
<polygon fill="black" stroke="black" points="3580,-132 3526,-132 3526,-96 3580,-96 3580,-132"/>
</g>
<!-- 2790962627104 -->
<g id="node40" class="node"><title>2790962627104</title>
<ellipse fill="none" stroke="black" cx="3643" cy="-114" rx="27" ry="27"/>
</g>
<!-- 2790962626624&#45;&gt;2790962627104 -->
<g id="edge57" class="edge"><title>2790962626624&#45;&gt;2790962627104</title>
<path fill="none" stroke="black" d="M3580.4,-114C3588.39,-114 3597.31,-114 3605.82,-114"/>
<polygon fill="black" stroke="black" points="3605.92,-117.5 3615.92,-114 3605.92,-110.5 3605.92,-117.5"/>
</g>
<!-- 2790962628352 -->
<g id="node9" class="node"><title>2790962628352</title>
<polygon fill="black" stroke="black" points="144,-163 90,-163 90,-127 144,-127 144,-163"/>
</g>
<!-- 2790958882720 -->
<g id="node34" class="node"><title>2790958882720</title>
<ellipse fill="none" stroke="black" cx="207" cy="-145" rx="27" ry="27"/>
</g>
<!-- 2790962628352&#45;&gt;2790958882720 -->
<g id="edge50" class="edge"><title>2790962628352&#45;&gt;2790958882720</title>
<path fill="none" stroke="black" d="M144.403,-145C152.393,-145 161.311,-145 169.824,-145"/>
<polygon fill="black" stroke="black" points="169.919,-148.5 179.919,-145 169.919,-141.5 169.919,-148.5"/>
</g>
<!-- 2790962630080 -->
<g id="node10" class="node"><title>2790962630080</title>
<polygon fill="black" stroke="black" points="2833,-95 2779,-95 2779,-59 2833,-59 2833,-95"/>
</g>
<!-- 2790962629792 -->
<g id="node53" class="node"><title>2790962629792</title>
<ellipse fill="none" stroke="black" cx="2896" cy="-77" rx="27" ry="27"/>
</g>
<!-- 2790962630080&#45;&gt;2790962629792 -->
<g id="edge64" class="edge"><title>2790962630080&#45;&gt;2790962629792</title>
<path fill="none" stroke="black" d="M2833.4,-77C2841.39,-77 2850.31,-77 2858.82,-77"/>
<polygon fill="black" stroke="black" points="2858.92,-80.5001 2868.92,-77 2858.92,-73.5001 2858.92,-80.5001"/>
</g>
<!-- 2790961707088 -->
<g id="node11" class="node"><title>2790961707088</title>
<polygon fill="none" stroke="black" points="803,-163 730,-163 730,-127 803,-127 803,-163"/>
<text text-anchor="middle" x="766.5" y="-141.9" font-family="Times New Roman,serif" font-size="12.00">Nurse Exam</text>
</g>
<!-- 2790961708096 -->
<g id="node49" class="node"><title>2790961708096</title>
<ellipse fill="none" stroke="black" cx="1958" cy="-145" rx="27" ry="27"/>
</g>
<!-- 2790961707088&#45;&gt;2790961708096 -->
<g id="edge9" class="edge"><title>2790961707088&#45;&gt;2790961708096</title>
<path fill="none" stroke="black" d="M803.043,-145C851.92,-145 942.628,-145 1020,-145 1020,-145 1020,-145 1756,-145 1813.66,-145 1880.62,-145 1920.86,-145"/>
<polygon fill="black" stroke="black" points="1920.98,-148.5 1930.98,-145 1920.98,-141.5 1920.98,-148.5"/>
</g>
<!-- 2790961609552 -->
<g id="node12" class="node"><title>2790961609552</title>
<polygon fill="black" stroke="black" points="2833,-167 2779,-167 2779,-131 2833,-131 2833,-167"/>
</g>
<!-- 2790962626912 -->
<g id="node38" class="node"><title>2790962626912</title>
<ellipse fill="none" stroke="black" cx="2896" cy="-149" rx="27" ry="27"/>
</g>
<!-- 2790961609552&#45;&gt;2790962626912 -->
<g id="edge56" class="edge"><title>2790961609552&#45;&gt;2790962626912</title>
<path fill="none" stroke="black" d="M2833.4,-149C2841.39,-149 2850.31,-149 2858.82,-149"/>
<polygon fill="black" stroke="black" points="2858.92,-152.5 2868.92,-149 2858.92,-145.5 2858.92,-152.5"/>
</g>
<!-- 2790961608592 -->
<g id="node13" class="node"><title>2790961608592</title>
<polygon fill="none" stroke="black" points="3017,-166 2959,-166 2959,-130 3017,-130 3017,-166"/>
<text text-anchor="middle" x="2988" y="-144.9" font-family="Times New Roman,serif" font-size="12.00">Checkup</text>
</g>
<!-- 2790962627008 -->
<g id="node39" class="node"><title>2790962627008</title>
<ellipse fill="none" stroke="black" cx="3080" cy="-144" rx="27" ry="27"/>
</g>
<!-- 2790961608592&#45;&gt;2790962627008 -->
<g id="edge10" class="edge"><title>2790961608592&#45;&gt;2790962627008</title>
<path fill="none" stroke="black" d="M3017.48,-146.734C3025.53,-146.376 3034.41,-145.982 3042.85,-145.607"/>
<polygon fill="black" stroke="black" points="3043.01,-149.103 3052.85,-145.162 3042.7,-142.11 3043.01,-149.103"/>
</g>
<!-- 2790962628496 -->
<g id="node14" class="node"><title>2790962628496</title>
<polygon fill="black" stroke="black" points="3760,-132 3706,-132 3706,-96 3760,-96 3760,-132"/>
</g>
<!-- 2790962628736 -->
<g id="node56" class="node"><title>2790962628736</title>
<ellipse fill="orange" stroke="black" cx="3823" cy="-114" rx="27" ry="27"/>
</g>
<!-- 2790962628496&#45;&gt;2790962628736 -->
<g id="edge51" class="edge"><title>2790962628496&#45;&gt;2790962628736</title>
<path fill="none" stroke="black" d="M3760.4,-114C3768.39,-114 3777.31,-114 3785.82,-114"/>
<polygon fill="black" stroke="black" points="3785.92,-117.5 3795.92,-114 3785.92,-110.5 3785.92,-117.5"/>
</g>
<!-- 2790954443728 -->
<g id="node15" class="node"><title>2790954443728</title>
<polygon fill="black" stroke="black" points="2165,-226 2111,-226 2111,-190 2165,-190 2165,-226"/>
</g>
<!-- 2790961706272 -->
<g id="node55" class="node"><title>2790961706272</title>
<ellipse fill="none" stroke="black" cx="2228" cy="-208" rx="27" ry="27"/>
</g>
<!-- 2790954443728&#45;&gt;2790961706272 -->
<g id="edge61" class="edge"><title>2790954443728&#45;&gt;2790961706272</title>
<path fill="none" stroke="black" d="M2165.4,-208C2173.39,-208 2182.31,-208 2190.82,-208"/>
<polygon fill="black" stroke="black" points="2190.92,-211.5 2200.92,-208 2190.92,-204.5 2190.92,-211.5"/>
</g>
<!-- 2790962629648 -->
<g id="node16" class="node"><title>2790962629648</title>
<polygon fill="black" stroke="black" points="2525,-36 2471,-36 2471,-0 2525,-0 2525,-36"/>
</g>
<!-- 2790962629648&#45;&gt;2790962629792 -->
<g id="edge62" class="edge"><title>2790962629648&#45;&gt;2790962629792</title>
<path fill="none" stroke="black" d="M2525.05,-17.7003C2581.93,-17.6486 2721.12,-20.8114 2833,-50 2842.86,-52.5735 2853.17,-56.5077 2862.48,-60.5834"/>
<polygon fill="black" stroke="black" points="2861.22,-63.8539 2871.77,-64.8308 2864.13,-57.4882 2861.22,-63.8539"/>
</g>
<!-- 2790961708384 -->
<g id="node17" class="node"><title>2790961708384</title>
<polygon fill="black" stroke="black" points="1138,-100 1084,-100 1084,-64 1138,-64 1138,-100"/>
</g>
<!-- 2790961706368 -->
<g id="node32" class="node"><title>2790961706368</title>
<ellipse fill="none" stroke="black" cx="1201" cy="-82" rx="27" ry="27"/>
</g>
<!-- 2790961708384&#45;&gt;2790961706368 -->
<g id="edge52" class="edge"><title>2790961708384&#45;&gt;2790961706368</title>
<path fill="none" stroke="black" d="M1138.4,-82C1146.39,-82 1155.31,-82 1163.82,-82"/>
<polygon fill="black" stroke="black" points="1163.92,-85.5001 1173.92,-82 1163.92,-78.5001 1163.92,-85.5001"/>
</g>
<!-- 2790961708192 -->
<g id="node18" class="node"><title>2790961708192</title>
<polygon fill="none" stroke="black" points="1318,-59 1264,-59 1264,-23 1318,-23 1318,-59"/>
<text text-anchor="middle" x="1291" y="-37.9" font-family="Times New Roman,serif" font-size="12.00">Scanner</text>
</g>
<!-- 2790961708192&#45;&gt;2790961708288 -->
<g id="edge8" class="edge"><title>2790961708192&#45;&gt;2790961708288</title>
<path fill="none" stroke="black" d="M1318.4,-54.5015C1327.61,-59.21 1338.05,-64.548 1347.68,-69.4741"/>
<polygon fill="black" stroke="black" points="1346.11,-72.6001 1356.61,-74.0368 1349.3,-66.3677 1346.11,-72.6001"/>
</g>
<!-- 2790961607584 -->
<g id="node19" class="node"><title>2790961607584</title>
<polygon fill="black" stroke="black" points="694,-109 640,-109 640,-73 694,-73 694,-109"/>
</g>
<!-- 2790961707520 -->
<g id="node44" class="node"><title>2790961707520</title>
<ellipse fill="none" stroke="black" cx="766.5" cy="-82" rx="27" ry="27"/>
</g>
<!-- 2790961607584&#45;&gt;2790961707520 -->
<g id="edge58" class="edge"><title>2790961607584&#45;&gt;2790961707520</title>
<path fill="none" stroke="black" d="M694.128,-88.5882C704.839,-87.5995 717.421,-86.4381 729.014,-85.368"/>
<polygon fill="black" stroke="black" points="729.664,-88.8229 739.3,-84.4185 729.02,-81.8526 729.664,-88.8229"/>
</g>
<!-- 2790961609888 -->
<g id="node20" class="node"><title>2790961609888</title>
<polygon fill="none" stroke="black" points="3392.5,-105 3330.5,-105 3330.5,-69 3392.5,-69 3392.5,-105"/>
<text text-anchor="middle" x="3361.5" y="-83.9" font-family="Times New Roman,serif" font-size="12.00">Discharge</text>
</g>
<!-- 2790961610128 -->
<g id="node43" class="node"><title>2790961610128</title>
<ellipse fill="none" stroke="black" cx="3463" cy="-114" rx="27" ry="27"/>
</g>
<!-- 2790961609888&#45;&gt;2790961610128 -->
<g id="edge14" class="edge"><title>2790961609888&#45;&gt;2790961610128</title>
<path fill="none" stroke="black" d="M3392.62,-95.1742C3403.4,-98.0975 3415.63,-101.418 3426.8,-104.447"/>
<polygon fill="black" stroke="black" points="3426.11,-107.886 3436.67,-107.128 3427.94,-101.131 3426.11,-107.886"/>
</g>
<!-- 2790962629024 -->
<g id="node21" class="node"><title>2790962629024</title>
<polygon fill="black" stroke="black" points="2435,-99 2381,-99 2381,-63 2435,-63 2435,-99"/>
</g>
<!-- 2790962629360 -->
<g id="node54" class="node"><title>2790962629360</title>
<ellipse fill="none" stroke="black" cx="2498" cy="-81" rx="27" ry="27"/>
</g>
<!-- 2790962629024&#45;&gt;2790962629360 -->
<g id="edge63" class="edge"><title>2790962629024&#45;&gt;2790962629360</title>
<path fill="none" stroke="black" d="M2435.4,-81C2443.39,-81 2452.31,-81 2460.82,-81"/>
<polygon fill="black" stroke="black" points="2460.92,-84.5001 2470.92,-81 2460.92,-77.5001 2460.92,-84.5001"/>
</g>
<!-- 2790961706608 -->
<g id="node22" class="node"><title>2790961706608</title>
<polygon fill="none" stroke="black" points="1895,-209 1818,-209 1818,-173 1895,-173 1895,-209"/>
<text text-anchor="middle" x="1856.5" y="-187.9" font-family="Times New Roman,serif" font-size="12.00">Doctor Exam</text>
</g>
<!-- 2790961706608&#45;&gt;2790961708096 -->
<g id="edge3" class="edge"><title>2790961706608&#45;&gt;2790961708096</title>
<path fill="none" stroke="black" d="M1895.12,-173.609C1904.59,-169.229 1914.69,-164.559 1923.93,-160.289"/>
<polygon fill="black" stroke="black" points="1925.57,-163.388 1933.18,-156.014 1922.63,-157.034 1925.57,-163.388"/>
</g>
<!-- 2790958882624 -->
<g id="node50" class="node"><title>2790958882624</title>
<ellipse fill="none" stroke="black" cx="2048" cy="-208" rx="27" ry="27"/>
</g>
<!-- 2790961706608&#45;&gt;2790958882624 -->
<g id="edge4" class="edge"><title>2790961706608&#45;&gt;2790958882624</title>
<path fill="none" stroke="black" d="M1895.39,-194.399C1929.02,-197.416 1977.8,-201.792 2010.88,-204.76"/>
<polygon fill="black" stroke="black" points="2010.75,-208.262 2021.03,-205.67 2011.38,-201.29 2010.75,-208.262"/>
</g>
<!-- 2790961708912 -->
<g id="node23" class="node"><title>2790961708912</title>
<polygon fill="black" stroke="black" points="1498,-104 1444,-104 1444,-68 1498,-68 1498,-104"/>
</g>
<!-- 2790961606816 -->
<g id="node46" class="node"><title>2790961606816</title>
<ellipse fill="none" stroke="black" cx="1561" cy="-86" rx="27" ry="27"/>
</g>
<!-- 2790961708912&#45;&gt;2790961606816 -->
<g id="edge55" class="edge"><title>2790961708912&#45;&gt;2790961606816</title>
<path fill="none" stroke="black" d="M1498.4,-86C1506.39,-86 1515.31,-86 1523.82,-86"/>
<polygon fill="black" stroke="black" points="1523.92,-89.5001 1533.92,-86 1523.92,-82.5001 1523.92,-89.5001"/>
</g>
<!-- 2790961607728 -->
<g id="node24" class="node"><title>2790961607728</title>
<polygon fill="black" stroke="black" points="1883.5,-104 1829.5,-104 1829.5,-68 1883.5,-68 1883.5,-104"/>
</g>
<!-- 2790961607728&#45;&gt;2790961708096 -->
<g id="edge59" class="edge"><title>2790961607728&#45;&gt;2790961708096</title>
<path fill="none" stroke="black" d="M1883.64,-101.502C1896.46,-109.102 1912,-118.317 1925.47,-126.306"/>
<polygon fill="black" stroke="black" points="1924.02,-129.515 1934.41,-131.605 1927.59,-123.494 1924.02,-129.515"/>
</g>
<!-- 2790962629072 -->
<g id="node51" class="node"><title>2790962629072</title>
<ellipse fill="none" stroke="black" cx="2318" cy="-81" rx="27" ry="27"/>
</g>
<!-- 2790961607728&#45;&gt;2790962629072 -->
<g id="edge60" class="edge"><title>2790961607728&#45;&gt;2790962629072</title>
<path fill="none" stroke="black" d="M1883.55,-85.3267C1920.08,-84.4422 1988.6,-83 2047,-83 2047,-83 2047,-83 2139,-83 2188.08,-83 2244.78,-82.2302 2280.74,-81.6458"/>
<polygon fill="black" stroke="black" points="2280.82,-85.1451 2290.76,-81.479 2280.71,-78.146 2280.82,-85.1451"/>
</g>
<!-- 2790961705456 -->
<g id="node25" class="node"><title>2790961705456</title>
<polygon fill="black" stroke="black" points="514,-163 460,-163 460,-127 514,-127 514,-163"/>
</g>
<!-- 2790961707952 -->
<g id="node48" class="node"><title>2790961707952</title>
<ellipse fill="none" stroke="black" cx="577" cy="-145" rx="27" ry="27"/>
</g>
<!-- 2790961705456&#45;&gt;2790961707952 -->
<g id="edge48" class="edge"><title>2790961705456&#45;&gt;2790961707952</title>
<path fill="none" stroke="black" d="M514.403,-145C522.393,-145 531.311,-145 539.824,-145"/>
<polygon fill="black" stroke="black" points="539.919,-148.5 549.919,-145 539.919,-141.5 539.919,-148.5"/>
</g>
<!-- 2790961706992 -->
<g id="node26" class="node"><title>2790961706992</title>
<polygon fill="none" stroke="black" points="2255,-163 2201,-163 2201,-127 2255,-127 2255,-163"/>
<text text-anchor="middle" x="2228" y="-141.9" font-family="Times New Roman,serif" font-size="12.00">Waiting</text>
</g>
<!-- 2790962626816 -->
<g id="node37" class="node"><title>2790962626816</title>
<ellipse fill="none" stroke="black" cx="2318" cy="-153" rx="27" ry="27"/>
</g>
<!-- 2790961706992&#45;&gt;2790962626816 -->
<g id="edge2" class="edge"><title>2790961706992&#45;&gt;2790962626816</title>
<path fill="none" stroke="black" d="M2255.4,-147.4C2263.39,-148.127 2272.31,-148.937 2280.82,-149.711"/>
<polygon fill="black" stroke="black" points="2280.64,-153.209 2290.92,-150.629 2281.28,-146.238 2280.64,-153.209"/>
</g>
<!-- 2790961608688 -->
<g id="node27" class="node"><title>2790961608688</title>
<polygon fill="none" stroke="black" points="2653,-171 2561,-171 2561,-135 2653,-135 2653,-171"/>
<text text-anchor="middle" x="2607" y="-149.9" font-family="Times New Roman,serif" font-size="12.00">Operating Room</text>
</g>
<!-- 2790961608688&#45;&gt;2790961608928 -->
<g id="edge13" class="edge"><title>2790961608688&#45;&gt;2790961608928</title>
<path fill="none" stroke="black" d="M2653.07,-151.315C2661.66,-150.994 2670.55,-150.662 2678.83,-150.352"/>
<polygon fill="black" stroke="black" points="2679.04,-153.847 2688.9,-149.976 2678.78,-146.852 2679.04,-153.847"/>
</g>
<!-- 2790961610032 -->
<g id="node28" class="node"><title>2790961610032</title>
<polygon fill="none" stroke="black" points="3400,-159 3323,-159 3323,-123 3400,-123 3400,-159"/>
<text text-anchor="middle" x="3361.5" y="-137.9" font-family="Times New Roman,serif" font-size="12.00">Complication</text>
</g>
<!-- 2790961610032&#45;&gt;2790961610128 -->
<g id="edge15" class="edge"><title>2790961610032&#45;&gt;2790961610128</title>
<path fill="none" stroke="black" d="M3400.12,-130.792C3408.9,-128.41 3418.22,-125.881 3426.88,-123.529"/>
<polygon fill="black" stroke="black" points="3427.95,-126.865 3436.69,-120.868 3426.12,-120.109 3427.95,-126.865"/>
</g>
<!-- 2790961610224 -->
<g id="node29" class="node"><title>2790961610224</title>
<polygon fill="black" stroke="black" points="3197,-160 3143,-160 3143,-124 3197,-124 3197,-160"/>
</g>
<!-- 2790961609744 -->
<g id="node33" class="node"><title>2790961609744</title>
<ellipse fill="none" stroke="black" cx="3260" cy="-141" rx="27" ry="27"/>
</g>
<!-- 2790961610224&#45;&gt;2790961609744 -->
<g id="edge54" class="edge"><title>2790961610224&#45;&gt;2790961609744</title>
<path fill="none" stroke="black" d="M3197.4,-141.7C3205.39,-141.609 3214.31,-141.508 3222.82,-141.411"/>
<polygon fill="black" stroke="black" points="3222.96,-144.91 3232.92,-141.296 3222.88,-137.91 3222.96,-144.91"/>
</g>
<!-- 2790962628640 -->
<g id="node30" class="node"><title>2790962628640</title>
<ellipse fill="green" stroke="black" cx="27" cy="-145" rx="27" ry="27"/>
<text text-anchor="middle" x="27" y="-141.9" font-family="Times New Roman,serif" font-size="12.00">1</text>
</g>
<!-- 2790962628640&#45;&gt;2790962628352 -->
<g id="edge29" class="edge"><title>2790962628640&#45;&gt;2790962628352</title>
<path fill="none" stroke="black" d="M54.4029,-145C62.3932,-145 71.3106,-145 79.8241,-145"/>
<polygon fill="black" stroke="black" points="79.919,-148.5 89.919,-145 79.919,-141.5 79.919,-148.5"/>
</g>
<!-- 2790961707616&#45;&gt;2790961608832 -->
<g id="edge16" class="edge"><title>2790961707616&#45;&gt;2790961608832</title>
<path fill="none" stroke="black" d="M2521.69,-139.639C2534.72,-131.97 2551.44,-122.125 2566.55,-113.227"/>
<polygon fill="black" stroke="black" points="2568.38,-116.212 2575.22,-108.122 2564.83,-110.18 2568.38,-116.212"/>
</g>
<!-- 2790961707616&#45;&gt;2790961608688 -->
<g id="edge17" class="edge"><title>2790961707616&#45;&gt;2790961608688</title>
<path fill="none" stroke="black" d="M2525.18,-153C2533,-153 2541.88,-153 2550.83,-153"/>
<polygon fill="black" stroke="black" points="2550.91,-156.5 2560.91,-153 2550.91,-149.5 2550.91,-156.5"/>
</g>
<!-- 2790961706368&#45;&gt;2790961705600 -->
<g id="edge18" class="edge"><title>2790961706368&#45;&gt;2790961705600</title>
<path fill="none" stroke="black" d="M1227.93,-85.8301C1236.09,-87.0359 1245.26,-88.3901 1253.99,-89.6802"/>
<polygon fill="black" stroke="black" points="1253.55,-93.1533 1263.95,-91.1523 1254.57,-86.2284 1253.55,-93.1533"/>
</g>
<!-- 2790961706368&#45;&gt;2790961708192 -->
<g id="edge19" class="edge"><title>2790961706368&#45;&gt;2790961708192</title>
<path fill="none" stroke="black" d="M1226.05,-70.7966C1234.82,-66.7067 1244.95,-61.9904 1254.51,-57.5341"/>
<polygon fill="black" stroke="black" points="1256.23,-60.5931 1263.82,-53.1973 1253.28,-54.248 1256.23,-60.5931"/>
</g>
<!-- 2790961609744&#45;&gt;2790961609888 -->
<g id="edge20" class="edge"><title>2790961609744&#45;&gt;2790961609888</title>
<path fill="none" stroke="black" d="M3284.08,-128.476C3295.16,-122.458 3308.76,-115.08 3321.4,-108.222"/>
<polygon fill="black" stroke="black" points="3323.26,-111.194 3330.38,-103.348 3319.92,-105.042 3323.26,-111.194"/>
</g>
<!-- 2790961609744&#45;&gt;2790961610032 -->
<g id="edge21" class="edge"><title>2790961609744&#45;&gt;2790961610032</title>
<path fill="none" stroke="black" d="M3287.14,-141C3295.01,-141 3303.89,-141 3312.7,-141"/>
<polygon fill="black" stroke="black" points="3312.93,-144.5 3322.93,-141 3312.93,-137.5 3312.93,-144.5"/>
</g>
<!-- 2790958882720&#45;&gt;2790961707904 -->
<g id="edge22" class="edge"><title>2790958882720&#45;&gt;2790961707904</title>
<path fill="none" stroke="black" d="M234.401,-145C242.266,-145 251.08,-145 259.658,-145"/>
<polygon fill="black" stroke="black" points="259.923,-148.5 269.923,-145 259.923,-141.5 259.923,-148.5"/>
</g>
<!-- 2790961609984&#45;&gt;2790961705456 -->
<g id="edge23" class="edge"><title>2790961609984&#45;&gt;2790961705456</title>
<path fill="none" stroke="black" d="M424.403,-145C432.393,-145 441.311,-145 449.824,-145"/>
<polygon fill="black" stroke="black" points="449.919,-148.5 459.919,-145 449.919,-141.5 449.919,-148.5"/>
</g>
<!-- 2790961609840&#45;&gt;2790961706992 -->
<g id="edge24" class="edge"><title>2790961609840&#45;&gt;2790961706992</title>
<path fill="none" stroke="black" d="M2165.4,-145C2173.39,-145 2182.31,-145 2190.82,-145"/>
<polygon fill="black" stroke="black" points="2190.92,-148.5 2200.92,-145 2190.92,-141.5 2190.92,-148.5"/>
</g>
<!-- 2790962626816&#45;&gt;2790961609024 -->
<g id="edge25" class="edge"><title>2790962626816&#45;&gt;2790961609024</title>
<path fill="none" stroke="black" d="M2345.4,-153C2353.39,-153 2362.31,-153 2370.82,-153"/>
<polygon fill="black" stroke="black" points="2370.92,-156.5 2380.92,-153 2370.92,-149.5 2370.92,-156.5"/>
</g>
<!-- 2790962626912&#45;&gt;2790961608592 -->
<g id="edge26" class="edge"><title>2790962626912&#45;&gt;2790961608592</title>
<path fill="none" stroke="black" d="M2923.03,-148.711C2931,-148.622 2939.95,-148.523 2948.56,-148.427"/>
<polygon fill="black" stroke="black" points="2948.86,-151.924 2958.82,-148.313 2948.79,-144.924 2948.86,-151.924"/>
</g>
<!-- 2790962627008&#45;&gt;2790961610224 -->
<g id="edge27" class="edge"><title>2790962627008&#45;&gt;2790961610224</title>
<path fill="none" stroke="black" d="M3107.4,-143.4C3115.39,-143.218 3124.31,-143.016 3132.82,-142.822"/>
<polygon fill="black" stroke="black" points="3133,-146.319 3142.92,-142.593 3132.84,-139.321 3133,-146.319"/>
</g>
<!-- 2790962627104&#45;&gt;2790962628496 -->
<g id="edge28" class="edge"><title>2790962627104&#45;&gt;2790962628496</title>
<path fill="none" stroke="black" d="M3670.4,-114C3678.39,-114 3687.31,-114 3695.82,-114"/>
<polygon fill="black" stroke="black" points="3695.92,-117.5 3705.92,-114 3695.92,-110.5 3695.92,-117.5"/>
</g>
<!-- 2790961608928&#45;&gt;2790961609552 -->
<g id="edge30" class="edge"><title>2790961608928&#45;&gt;2790961609552</title>
<path fill="none" stroke="black" d="M2743.4,-149C2751.39,-149 2760.31,-149 2768.82,-149"/>
<polygon fill="black" stroke="black" points="2768.92,-152.5 2778.92,-149 2768.92,-145.5 2768.92,-152.5"/>
</g>
<!-- 2790961708288&#45;&gt;2790961708912 -->
<g id="edge31" class="edge"><title>2790961708288&#45;&gt;2790961708912</title>
<path fill="none" stroke="black" d="M1408.4,-86C1416.39,-86 1425.31,-86 1433.82,-86"/>
<polygon fill="black" stroke="black" points="1433.92,-89.5001 1443.92,-86 1433.92,-82.5001 1433.92,-89.5001"/>
</g>
<!-- 2790961610128&#45;&gt;2790962626624 -->
<g id="edge32" class="edge"><title>2790961610128&#45;&gt;2790962626624</title>
<path fill="none" stroke="black" d="M3490.4,-114C3498.39,-114 3507.31,-114 3515.82,-114"/>
<polygon fill="black" stroke="black" points="3515.92,-117.5 3525.92,-114 3515.92,-110.5 3515.92,-117.5"/>
</g>
<!-- 2790961707520&#45;&gt;2790961705408 -->
<g id="edge33" class="edge"><title>2790961707520&#45;&gt;2790961705408</title>
<path fill="none" stroke="black" d="M793.807,-82C803.951,-82 816.071,-82 828.389,-82"/>
<polygon fill="black" stroke="black" points="828.743,-85.5001 838.743,-82 828.743,-78.5001 828.743,-85.5001"/>
</g>
<!-- 2790961606720&#45;&gt;2790961708384 -->
<g id="edge34" class="edge"><title>2790961606720&#45;&gt;2790961708384</title>
<path fill="none" stroke="black" d="M1048.4,-82C1056.39,-82 1065.31,-82 1073.82,-82"/>
<polygon fill="black" stroke="black" points="1073.92,-85.5001 1083.92,-82 1073.92,-78.5001 1073.92,-85.5001"/>
</g>
<!-- 2790961606816&#45;&gt;2790961706944 -->
<g id="edge35" class="edge"><title>2790961606816&#45;&gt;2790961706944</title>
<path fill="none" stroke="black" d="M1588.21,-86C1596.11,-86 1604.99,-86 1613.69,-86"/>
<polygon fill="black" stroke="black" points="1613.74,-89.5001 1623.74,-86 1613.74,-82.5001 1613.74,-89.5001"/>
</g>
<!-- 2790961606912&#45;&gt;2790961607728 -->
<g id="edge36" class="edge"><title>2790961606912&#45;&gt;2790961607728</title>
<path fill="none" stroke="black" d="M1782.14,-86C1793.36,-86 1806.67,-86 1818.85,-86"/>
<polygon fill="black" stroke="black" points="1819.19,-89.5001 1829.19,-86 1819.19,-82.5001 1819.19,-89.5001"/>
</g>
<!-- 2790961707952&#45;&gt;2790961707088 -->
<g id="edge38" class="edge"><title>2790961707952&#45;&gt;2790961707088</title>
<path fill="none" stroke="black" d="M604.071,-145C633.836,-145 683.09,-145 719.379,-145"/>
<polygon fill="black" stroke="black" points="719.715,-148.5 729.715,-145 719.715,-141.5 719.715,-148.5"/>
</g>
<!-- 2790961707952&#45;&gt;2790961607584 -->
<g id="edge39" class="edge"><title>2790961707952&#45;&gt;2790961607584</title>
<path fill="none" stroke="black" d="M600.662,-131.094C609.958,-125.39 620.93,-118.657 631.201,-112.354"/>
<polygon fill="black" stroke="black" points="633.295,-115.175 639.988,-106.962 629.634,-109.209 633.295,-115.175"/>
</g>
<!-- 2790961707952&#45;&gt;2790961706608 -->
<g id="edge37" class="edge"><title>2790961707952&#45;&gt;2790961706608</title>
<path fill="none" stroke="black" d="M602.401,-154.981C637.739,-168.51 705.504,-191 765.5,-191 765.5,-191 765.5,-191 1659,-191 1709.73,-191 1767.83,-191 1807.62,-191"/>
<polygon fill="black" stroke="black" points="1807.83,-194.5 1817.83,-191 1807.83,-187.5 1807.83,-194.5"/>
</g>
<!-- 2790961708096&#45;&gt;2790961608448 -->
<g id="edge40" class="edge"><title>2790961708096&#45;&gt;2790961608448</title>
<path fill="none" stroke="black" d="M1985.4,-145C1993.39,-145 2002.31,-145 2010.82,-145"/>
<polygon fill="black" stroke="black" points="2010.92,-148.5 2020.92,-145 2010.92,-141.5 2010.92,-148.5"/>
</g>
<!-- 2790958882624&#45;&gt;2790954443728 -->
<g id="edge41" class="edge"><title>2790958882624&#45;&gt;2790954443728</title>
<path fill="none" stroke="black" d="M2075.4,-208C2083.39,-208 2092.31,-208 2100.82,-208"/>
<polygon fill="black" stroke="black" points="2100.92,-211.5 2110.92,-208 2100.92,-204.5 2100.92,-211.5"/>
</g>
<!-- 2790962629072&#45;&gt;2790962629648 -->
<g id="edge42" class="edge"><title>2790962629072&#45;&gt;2790962629648</title>
<path fill="none" stroke="black" d="M2342.89,-69.8637C2354.31,-64.7327 2368.23,-58.7442 2381,-54 2407.52,-44.146 2438.09,-34.7339 2461.2,-28.0065"/>
<polygon fill="black" stroke="black" points="2462.29,-31.3355 2470.93,-25.2035 2460.35,-24.6091 2462.29,-31.3355"/>
</g>
<!-- 2790962629072&#45;&gt;2790962629024 -->
<g id="edge43" class="edge"><title>2790962629072&#45;&gt;2790962629024</title>
<path fill="none" stroke="black" d="M2345.4,-81C2353.39,-81 2362.31,-81 2370.82,-81"/>
<polygon fill="black" stroke="black" points="2370.92,-84.5001 2380.92,-81 2370.92,-77.5001 2370.92,-84.5001"/>
</g>
<!-- 2790962630224&#45;&gt;2790962630080 -->
<g id="edge44" class="edge"><title>2790962630224&#45;&gt;2790962630080</title>
<path fill="none" stroke="black" d="M2743.4,-77C2751.39,-77 2760.31,-77 2768.82,-77"/>
<polygon fill="black" stroke="black" points="2768.92,-80.5001 2778.92,-77 2768.92,-73.5001 2768.92,-80.5001"/>
</g>
<!-- 2790962629792&#45;&gt;2790961609888 -->
<g id="edge45" class="edge"><title>2790962629792&#45;&gt;2790961609888</title>
<path fill="none" stroke="black" d="M2923.21,-78.8756C2958.56,-81.2402 3023.49,-85 3079,-85 3079,-85 3079,-85 3171,-85 3222.43,-85 3281.7,-85.7456 3320.06,-86.3263"/>
<polygon fill="black" stroke="black" points="3320.25,-89.8296 3330.31,-86.485 3320.36,-82.8304 3320.25,-89.8296"/>
</g>
<!-- 2790962629360&#45;&gt;2790961608832 -->
<g id="edge46" class="edge"><title>2790962629360&#45;&gt;2790961608832</title>
<path fill="none" stroke="black" d="M2525.18,-83.2016C2535.91,-84.1042 2548.64,-85.1754 2560.79,-86.1974"/>
<polygon fill="black" stroke="black" points="2560.55,-89.689 2570.8,-87.0395 2561.13,-82.7136 2560.55,-89.689"/>
</g>
<!-- 2790961706272&#45;&gt;2790961608688 -->
<g id="edge47" class="edge"><title>2790961706272&#45;&gt;2790961608688</title>
<path fill="none" stroke="black" d="M2255.2,-209.379C2307.41,-211.461 2427.74,-212.921 2525,-189 2537.85,-185.839 2551.21,-180.738 2563.29,-175.358"/>
<polygon fill="black" stroke="black" points="2565.06,-178.395 2572.66,-171.016 2562.12,-172.043 2565.06,-178.395"/>
</g>
</g>
</svg>
