<?xml version="1.0" encoding="UTF-8" standalone="no"?>
<!DOCTYPE svg PUBLIC "-//W3C//DTD SVG 1.1//EN"
 "http://www.w3.org/Graphics/SVG/1.1/DTD/svg11.dtd">
<!-- Generated by graphviz version 2.38.0 (20140413.2041)
 -->
<!-- Title: &#45;&gt;( X( &#39;A&#39;, &#39;B&#39; ), &#39;D&#39;, X( &#39;L&#39;, &#45;&gt;( &#39;J&#39;, &#39;K&#39; ) ), &#39;M&#39;, X( &#39;H&#39;, &#39;I&#39;, &#39;G&#39; ) ) Pages: 1 -->
<svg width="2942pt" height="152pt"
 viewBox="0.00 0.00 2942.00 152.00" xmlns="http://www.w3.org/2000/svg" xmlns:xlink="http://www.w3.org/1999/xlink">
<g id="graph0" class="graph" transform="scale(1 1) rotate(0) translate(4 148)">
<title>&#45;&gt;( X( &#39;A&#39;, &#39;B&#39; ), &#39;D&#39;, X( &#39;L&#39;, &#45;&gt;( &#39;J&#39;, &#39;K&#39; ) ), &#39;M&#39;, X( &#39;H&#39;, &#39;I&#39;, &#39;G&#39; ) )</title>
<!-- 1729296472960 -->
<g id="node1" class="node"><title>1729296472960</title>
<polygon fill="none" stroke="black" points="504,-115 450,-115 450,-79 504,-79 504,-115"/>
<text text-anchor="middle" x="477" y="-93.9" font-family="Times New Roman,serif" font-size="12.00">A</text>
</g>
<!-- 1729296472288 -->
<g id="node31" class="node"><title>1729296472288</title>
<ellipse fill="none" stroke="black" cx="567" cy="-70" rx="27" ry="27"/>
</g>
<!-- 1729296472960&#45;&gt;1729296472288 -->
<g id="edge4" class="edge"><title>1729296472960&#45;&gt;1729296472288</title>
<path fill="none" stroke="black" d="M504.403,-88.8991C512.79,-86.3259 522.197,-83.4394 531.088,-80.7117"/>
<polygon fill="black" stroke="black" points="532.29,-84.004 540.823,-77.7247 530.236,-77.3119 532.29,-84.004"/>
</g>
<!-- 1729296473344 -->
<g id="node2" class="node"><title>1729296473344</title>
<polygon fill="black" stroke="black" points="684,-88 630,-88 630,-52 684,-52 684,-88"/>
</g>
<!-- 1729269996320 -->
<g id="node25" class="node"><title>1729269996320</title>
<ellipse fill="none" stroke="black" cx="747" cy="-70" rx="27" ry="27"/>
</g>
<!-- 1729296473344&#45;&gt;1729269996320 -->
<g id="edge35" class="edge"><title>1729296473344&#45;&gt;1729269996320</title>
<path fill="none" stroke="black" d="M684.403,-70C692.393,-70 701.311,-70 709.824,-70"/>
<polygon fill="black" stroke="black" points="709.919,-73.5001 719.919,-70 709.919,-66.5001 709.919,-73.5001"/>
</g>
<!-- 1729296470272 -->
<g id="node3" class="node"><title>1729296470272</title>
<polygon fill="none" stroke="black" points="1584,-120 1530,-120 1530,-84 1584,-84 1584,-120"/>
<text text-anchor="middle" x="1557" y="-98.9" font-family="Times New Roman,serif" font-size="12.00">K</text>
</g>
<!-- 1729296471376 -->
<g id="node33" class="node"><title>1729296471376</title>
<ellipse fill="none" stroke="black" cx="1647" cy="-102" rx="27" ry="27"/>
</g>
<!-- 1729296470272&#45;&gt;1729296471376 -->
<g id="edge6" class="edge"><title>1729296470272&#45;&gt;1729296471376</title>
<path fill="none" stroke="black" d="M1584.4,-102C1592.39,-102 1601.31,-102 1609.82,-102"/>
<polygon fill="black" stroke="black" points="1609.92,-105.5 1619.92,-102 1609.92,-98.5001 1609.92,-105.5"/>
</g>
<!-- 1729269996800 -->
<g id="node4" class="node"><title>1729269996800</title>
<polygon fill="black" stroke="black" points="1944,-90 1890,-90 1890,-54 1944,-54 1944,-90"/>
</g>
<!-- 1729269996224 -->
<g id="node27" class="node"><title>1729269996224</title>
<ellipse fill="none" stroke="black" cx="2007" cy="-72" rx="27" ry="27"/>
</g>
<!-- 1729269996800&#45;&gt;1729269996224 -->
<g id="edge40" class="edge"><title>1729269996800&#45;&gt;1729269996224</title>
<path fill="none" stroke="black" d="M1944.4,-72C1952.39,-72 1961.31,-72 1969.82,-72"/>
<polygon fill="black" stroke="black" points="1969.92,-75.5001 1979.92,-72 1969.92,-68.5001 1969.92,-75.5001"/>
</g>
<!-- 1729296472192 -->
<g id="node5" class="node"><title>1729296472192</title>
<polygon fill="none" stroke="black" points="2124,-90 2070,-90 2070,-54 2124,-54 2124,-90"/>
<text text-anchor="middle" x="2097" y="-68.9" font-family="Times New Roman,serif" font-size="12.00">M</text>
</g>
<!-- 1729269996272 -->
<g id="node28" class="node"><title>1729269996272</title>
<ellipse fill="none" stroke="black" cx="2187" cy="-72" rx="27" ry="27"/>
</g>
<!-- 1729296472192&#45;&gt;1729269996272 -->
<g id="edge10" class="edge"><title>1729296472192&#45;&gt;1729269996272</title>
<path fill="none" stroke="black" d="M2124.4,-72C2132.39,-72 2141.31,-72 2149.82,-72"/>
<polygon fill="black" stroke="black" points="2149.92,-75.5001 2159.92,-72 2149.92,-68.5001 2149.92,-75.5001"/>
</g>
<!-- 1729269993872 -->
<g id="node6" class="node"><title>1729269993872</title>
<polygon fill="none" stroke="black" points="2484,-144 2430,-144 2430,-108 2484,-108 2484,-144"/>
<text text-anchor="middle" x="2457" y="-122.9" font-family="Times New Roman,serif" font-size="12.00">H</text>
</g>
<!-- 1729269996992 -->
<g id="node30" class="node"><title>1729269996992</title>
<ellipse fill="none" stroke="black" cx="2547" cy="-72" rx="27" ry="27"/>
</g>
<!-- 1729269993872&#45;&gt;1729269996992 -->
<g id="edge2" class="edge"><title>1729269993872&#45;&gt;1729269996992</title>
<path fill="none" stroke="black" d="M2484.4,-109.798C2493.94,-103.947 2504.79,-97.2858 2514.71,-91.2023"/>
<polygon fill="black" stroke="black" points="2516.79,-94.031 2523.48,-85.8176 2513.13,-88.0647 2516.79,-94.031"/>
</g>
<!-- 1729269996560 -->
<g id="node7" class="node"><title>1729269996560</title>
<polygon fill="none" stroke="black" points="2484,-90 2430,-90 2430,-54 2484,-54 2484,-90"/>
<text text-anchor="middle" x="2457" y="-68.9" font-family="Times New Roman,serif" font-size="12.00">I</text>
</g>
<!-- 1729269996560&#45;&gt;1729269996992 -->
<g id="edge9" class="edge"><title>1729269996560&#45;&gt;1729269996992</title>
<path fill="none" stroke="black" d="M2484.4,-72C2492.39,-72 2501.31,-72 2509.82,-72"/>
<polygon fill="black" stroke="black" points="2509.92,-75.5001 2519.92,-72 2509.92,-68.5001 2509.92,-75.5001"/>
</g>
<!-- 1729296473632 -->
<g id="node8" class="node"><title>1729296473632</title>
<polygon fill="none" stroke="black" points="864,-88 810,-88 810,-52 864,-52 864,-88"/>
<text text-anchor="middle" x="837" y="-66.9" font-family="Times New Roman,serif" font-size="12.00">D</text>
</g>
<!-- 1729269996368 -->
<g id="node26" class="node"><title>1729269996368</title>
<ellipse fill="none" stroke="black" cx="927" cy="-70" rx="27" ry="27"/>
</g>
<!-- 1729296473632&#45;&gt;1729269996368 -->
<g id="edge3" class="edge"><title>1729296473632&#45;&gt;1729269996368</title>
<path fill="none" stroke="black" d="M864.403,-70C872.393,-70 881.311,-70 889.824,-70"/>
<polygon fill="black" stroke="black" points="889.919,-73.5001 899.919,-70 889.919,-66.5001 889.919,-73.5001"/>
</g>
<!-- 1729296471712 -->
<g id="node9" class="node"><title>1729296471712</title>
<polygon fill="none" stroke="black" points="1404,-123 1350,-123 1350,-87 1404,-87 1404,-123"/>
<text text-anchor="middle" x="1377" y="-101.9" font-family="Times New Roman,serif" font-size="12.00">J</text>
</g>
<!-- 1729296470752 -->
<g id="node32" class="node"><title>1729296470752</title>
<ellipse fill="none" stroke="black" cx="1467" cy="-103" rx="27" ry="27"/>
</g>
<!-- 1729296471712&#45;&gt;1729296470752 -->
<g id="edge7" class="edge"><title>1729296471712&#45;&gt;1729296470752</title>
<path fill="none" stroke="black" d="M1404.4,-104.4C1412.39,-104.218 1421.31,-104.016 1429.82,-103.822"/>
<polygon fill="black" stroke="black" points="1430,-107.319 1439.92,-103.593 1429.84,-100.321 1430,-107.319"/>
</g>
<!-- 1729296470944 -->
<g id="node10" class="node"><title>1729296470944</title>
<polygon fill="black" stroke="black" points="1224,-119 1170,-119 1170,-83 1224,-83 1224,-119"/>
</g>
<!-- 1729296472000 -->
<g id="node24" class="node"><title>1729296472000</title>
<ellipse fill="none" stroke="black" cx="1287" cy="-106" rx="27" ry="27"/>
</g>
<!-- 1729296470944&#45;&gt;1729296472000 -->
<g id="edge34" class="edge"><title>1729296470944&#45;&gt;1729296472000</title>
<path fill="none" stroke="black" d="M1224.4,-102.5C1232.39,-102.954 1241.31,-103.461 1249.82,-103.945"/>
<polygon fill="black" stroke="black" points="1249.74,-107.445 1259.92,-104.518 1250.13,-100.456 1249.74,-107.445"/>
</g>
<!-- 1729297103648 -->
<g id="node11" class="node"><title>1729297103648</title>
<polygon fill="black" stroke="black" points="144,-88 90,-88 90,-52 144,-52 144,-88"/>
</g>
<!-- 1729269996512 -->
<g id="node36" class="node"><title>1729269996512</title>
<ellipse fill="none" stroke="black" cx="207" cy="-70" rx="27" ry="27"/>
</g>
<!-- 1729297103648&#45;&gt;1729269996512 -->
<g id="edge31" class="edge"><title>1729297103648&#45;&gt;1729269996512</title>
<path fill="none" stroke="black" d="M144.403,-70C152.393,-70 161.311,-70 169.824,-70"/>
<polygon fill="black" stroke="black" points="169.919,-73.5001 179.919,-70 169.919,-66.5001 169.919,-73.5001"/>
</g>
<!-- 1729296472624 -->
<g id="node12" class="node"><title>1729296472624</title>
<polygon fill="none" stroke="black" points="504,-61 450,-61 450,-25 504,-25 504,-61"/>
<text text-anchor="middle" x="477" y="-39.9" font-family="Times New Roman,serif" font-size="12.00">B</text>
</g>
<!-- 1729296472624&#45;&gt;1729296472288 -->
<g id="edge1" class="edge"><title>1729296472624&#45;&gt;1729296472288</title>
<path fill="none" stroke="black" d="M504.403,-51.1009C512.79,-53.6741 522.197,-56.5606 531.088,-59.2883"/>
<polygon fill="black" stroke="black" points="530.236,-62.6881 540.823,-62.2753 532.29,-55.996 530.236,-62.6881"/>
</g>
<!-- 1729296471088 -->
<g id="node13" class="node"><title>1729296471088</title>
<polygon fill="black" stroke="black" points="1764,-115 1710,-115 1710,-79 1764,-79 1764,-115"/>
</g>
<!-- 1729296470080 -->
<g id="node35" class="node"><title>1729296470080</title>
<ellipse fill="none" stroke="black" cx="1827" cy="-72" rx="27" ry="27"/>
</g>
<!-- 1729296471088&#45;&gt;1729296470080 -->
<g id="edge36" class="edge"><title>1729296471088&#45;&gt;1729296470080</title>
<path fill="none" stroke="black" d="M1764.4,-89.4992C1772.79,-87.1166 1782.2,-84.4439 1791.09,-81.9183"/>
<polygon fill="black" stroke="black" points="1792.16,-85.2521 1800.82,-79.1525 1790.25,-78.5186 1792.16,-85.2521"/>
</g>
<!-- 1729296473536 -->
<g id="node14" class="node"><title>1729296473536</title>
<polygon fill="black" stroke="black" points="324,-88 270,-88 270,-52 324,-52 324,-88"/>
</g>
<!-- 1729296472576 -->
<g id="node23" class="node"><title>1729296472576</title>
<ellipse fill="none" stroke="black" cx="387" cy="-70" rx="27" ry="27"/>
</g>
<!-- 1729296473536&#45;&gt;1729296472576 -->
<g id="edge33" class="edge"><title>1729296473536&#45;&gt;1729296472576</title>
<path fill="none" stroke="black" d="M324.403,-70C332.393,-70 341.311,-70 349.824,-70"/>
<polygon fill="black" stroke="black" points="349.919,-73.5001 359.919,-70 349.919,-66.5001 349.919,-73.5001"/>
</g>
<!-- 1729269996608 -->
<g id="node15" class="node"><title>1729269996608</title>
<polygon fill="black" stroke="black" points="2304,-90 2250,-90 2250,-54 2304,-54 2304,-90"/>
</g>
<!-- 1729269995360 -->
<g id="node22" class="node"><title>1729269995360</title>
<ellipse fill="none" stroke="black" cx="2367" cy="-72" rx="27" ry="27"/>
</g>
<!-- 1729269996608&#45;&gt;1729269995360 -->
<g id="edge37" class="edge"><title>1729269996608&#45;&gt;1729269995360</title>
<path fill="none" stroke="black" d="M2304.4,-72C2312.39,-72 2321.31,-72 2329.82,-72"/>
<polygon fill="black" stroke="black" points="2329.92,-75.5001 2339.92,-72 2329.92,-68.5001 2329.92,-75.5001"/>
</g>
<!-- 1729296472144 -->
<g id="node16" class="node"><title>1729296472144</title>
<polygon fill="none" stroke="black" points="1314,-61 1260,-61 1260,-25 1314,-25 1314,-61"/>
<text text-anchor="middle" x="1287" y="-39.9" font-family="Times New Roman,serif" font-size="12.00">L</text>
</g>
<!-- 1729296472144&#45;&gt;1729296470080 -->
<g id="edge5" class="edge"><title>1729296472144&#45;&gt;1729296470080</title>
<path fill="none" stroke="black" d="M1314.23,-43.9581C1348.95,-45.1415 1412.06,-47 1466,-47 1466,-47 1466,-47 1648,-47 1697.85,-47 1754.79,-56.733 1790.56,-64.0531"/>
<polygon fill="black" stroke="black" points="1790.01,-67.5124 1800.51,-66.1386 1791.44,-60.6613 1790.01,-67.5124"/>
</g>
<!-- 1729296470992 -->
<g id="node17" class="node"><title>1729296470992</title>
<polygon fill="black" stroke="black" points="1044,-88 990,-88 990,-52 1044,-52 1044,-88"/>
</g>
<!-- 1729296473248 -->
<g id="node34" class="node"><title>1729296473248</title>
<ellipse fill="none" stroke="black" cx="1107" cy="-70" rx="27" ry="27"/>
</g>
<!-- 1729296470992&#45;&gt;1729296473248 -->
<g id="edge39" class="edge"><title>1729296470992&#45;&gt;1729296473248</title>
<path fill="none" stroke="black" d="M1044.4,-70C1052.39,-70 1061.31,-70 1069.82,-70"/>
<polygon fill="black" stroke="black" points="1069.92,-73.5001 1079.92,-70 1069.92,-66.5001 1069.92,-73.5001"/>
</g>
<!-- 1729269993824 -->
<g id="node18" class="node"><title>1729269993824</title>
<polygon fill="black" stroke="black" points="2664,-90 2610,-90 2610,-54 2664,-54 2664,-90"/>
</g>
<!-- 1729269995696 -->
<g id="node29" class="node"><title>1729269995696</title>
<ellipse fill="none" stroke="black" cx="2727" cy="-72" rx="27" ry="27"/>
</g>
<!-- 1729269993824&#45;&gt;1729269995696 -->
<g id="edge38" class="edge"><title>1729269993824&#45;&gt;1729269995696</title>
<path fill="none" stroke="black" d="M2664.4,-72C2672.39,-72 2681.31,-72 2689.82,-72"/>
<polygon fill="black" stroke="black" points="2689.92,-75.5001 2699.92,-72 2689.92,-68.5001 2689.92,-75.5001"/>
</g>
<!-- 1729269997040 -->
<g id="node19" class="node"><title>1729269997040</title>
<polygon fill="none" stroke="black" points="2484,-36 2430,-36 2430,-0 2484,-0 2484,-36"/>
<text text-anchor="middle" x="2457" y="-14.9" font-family="Times New Roman,serif" font-size="12.00">G</text>
</g>
<!-- 1729269997040&#45;&gt;1729269996992 -->
<g id="edge8" class="edge"><title>1729269997040&#45;&gt;1729269996992</title>
<path fill="none" stroke="black" d="M2484.4,-34.2018C2493.94,-40.053 2504.79,-46.7142 2514.71,-52.7977"/>
<polygon fill="black" stroke="black" points="2513.13,-55.9353 2523.48,-58.1824 2516.79,-49.969 2513.13,-55.9353"/>
</g>
<!-- 1729297103216 -->
<g id="node20" class="node"><title>1729297103216</title>
<polygon fill="black" stroke="black" points="2844,-90 2790,-90 2790,-54 2844,-54 2844,-90"/>
</g>
<!-- 1729297102352 -->
<g id="node37" class="node"><title>1729297102352</title>
<ellipse fill="orange" stroke="black" cx="2907" cy="-72" rx="27" ry="27"/>
</g>
<!-- 1729297103216&#45;&gt;1729297102352 -->
<g id="edge32" class="edge"><title>1729297103216&#45;&gt;1729297102352</title>
<path fill="none" stroke="black" d="M2844.4,-72C2852.39,-72 2861.31,-72 2869.82,-72"/>
<polygon fill="black" stroke="black" points="2869.92,-75.5001 2879.92,-72 2869.92,-68.5001 2869.92,-75.5001"/>
</g>
<!-- 1729272674960 -->
<g id="node21" class="node"><title>1729272674960</title>
<ellipse fill="green" stroke="black" cx="27" cy="-70" rx="27" ry="27"/>
<text text-anchor="middle" x="27" y="-66.9" font-family="Times New Roman,serif" font-size="12.00">1</text>
</g>
<!-- 1729272674960&#45;&gt;1729297103648 -->
<g id="edge22" class="edge"><title>1729272674960&#45;&gt;1729297103648</title>
<path fill="none" stroke="black" d="M54.4029,-70C62.3932,-70 71.3106,-70 79.8241,-70"/>
<polygon fill="black" stroke="black" points="79.919,-73.5001 89.919,-70 79.919,-66.5001 79.919,-73.5001"/>
</g>
<!-- 1729269995360&#45;&gt;1729269993872 -->
<g id="edge11" class="edge"><title>1729269995360&#45;&gt;1729269993872</title>
<path fill="none" stroke="black" d="M2390.66,-85.9063C2399.96,-91.6104 2410.93,-98.3431 2421.2,-104.646"/>
<polygon fill="black" stroke="black" points="2419.63,-107.791 2429.99,-110.038 2423.3,-101.825 2419.63,-107.791"/>
</g>
<!-- 1729269995360&#45;&gt;1729269996560 -->
<g id="edge13" class="edge"><title>1729269995360&#45;&gt;1729269996560</title>
<path fill="none" stroke="black" d="M2394.4,-72C2402.39,-72 2411.31,-72 2419.82,-72"/>
<polygon fill="black" stroke="black" points="2419.92,-75.5001 2429.92,-72 2419.92,-68.5001 2419.92,-75.5001"/>
</g>
<!-- 1729269995360&#45;&gt;1729269997040 -->
<g id="edge12" class="edge"><title>1729269995360&#45;&gt;1729269997040</title>
<path fill="none" stroke="black" d="M2390.66,-58.0937C2399.96,-52.3896 2410.93,-45.6569 2421.2,-39.3538"/>
<polygon fill="black" stroke="black" points="2423.3,-42.1754 2429.99,-33.9621 2419.63,-36.2092 2423.3,-42.1754"/>
</g>
<!-- 1729296472576&#45;&gt;1729296472960 -->
<g id="edge15" class="edge"><title>1729296472576&#45;&gt;1729296472960</title>
<path fill="none" stroke="black" d="M412.982,-77.6649C421.415,-80.2524 431.003,-83.1941 440.111,-85.9885"/>
<polygon fill="black" stroke="black" points="439.141,-89.3519 449.727,-88.9391 441.194,-82.6598 439.141,-89.3519"/>
</g>
<!-- 1729296472576&#45;&gt;1729296472624 -->
<g id="edge14" class="edge"><title>1729296472576&#45;&gt;1729296472624</title>
<path fill="none" stroke="black" d="M412.982,-62.3351C421.415,-59.7476 431.003,-56.8059 440.111,-54.0115"/>
<polygon fill="black" stroke="black" points="441.194,-57.3402 449.727,-51.0609 439.141,-50.6481 441.194,-57.3402"/>
</g>
<!-- 1729296472000&#45;&gt;1729296471712 -->
<g id="edge16" class="edge"><title>1729296472000&#45;&gt;1729296471712</title>
<path fill="none" stroke="black" d="M1314.4,-105.7C1322.39,-105.609 1331.31,-105.508 1339.82,-105.411"/>
<polygon fill="black" stroke="black" points="1339.96,-108.91 1349.92,-105.296 1339.88,-101.91 1339.96,-108.91"/>
</g>
<!-- 1729269996320&#45;&gt;1729296473632 -->
<g id="edge17" class="edge"><title>1729269996320&#45;&gt;1729296473632</title>
<path fill="none" stroke="black" d="M774.403,-70C782.393,-70 791.311,-70 799.824,-70"/>
<polygon fill="black" stroke="black" points="799.919,-73.5001 809.919,-70 799.919,-66.5001 799.919,-73.5001"/>
</g>
<!-- 1729269996368&#45;&gt;1729296470992 -->
<g id="edge18" class="edge"><title>1729269996368&#45;&gt;1729296470992</title>
<path fill="none" stroke="black" d="M954.403,-70C962.393,-70 971.311,-70 979.824,-70"/>
<polygon fill="black" stroke="black" points="979.919,-73.5001 989.919,-70 979.919,-66.5001 979.919,-73.5001"/>
</g>
<!-- 1729269996224&#45;&gt;1729296472192 -->
<g id="edge19" class="edge"><title>1729269996224&#45;&gt;1729296472192</title>
<path fill="none" stroke="black" d="M2034.4,-72C2042.39,-72 2051.31,-72 2059.82,-72"/>
<polygon fill="black" stroke="black" points="2059.92,-75.5001 2069.92,-72 2059.92,-68.5001 2059.92,-75.5001"/>
</g>
<!-- 1729269996272&#45;&gt;1729269996608 -->
<g id="edge20" class="edge"><title>1729269996272&#45;&gt;1729269996608</title>
<path fill="none" stroke="black" d="M2214.4,-72C2222.39,-72 2231.31,-72 2239.82,-72"/>
<polygon fill="black" stroke="black" points="2239.92,-75.5001 2249.92,-72 2239.92,-68.5001 2239.92,-75.5001"/>
</g>
<!-- 1729269995696&#45;&gt;1729297103216 -->
<g id="edge21" class="edge"><title>1729269995696&#45;&gt;1729297103216</title>
<path fill="none" stroke="black" d="M2754.4,-72C2762.39,-72 2771.31,-72 2779.82,-72"/>
<polygon fill="black" stroke="black" points="2779.92,-75.5001 2789.92,-72 2779.92,-68.5001 2779.92,-75.5001"/>
</g>
<!-- 1729269996992&#45;&gt;1729269993824 -->
<g id="edge23" class="edge"><title>1729269996992&#45;&gt;1729269993824</title>
<path fill="none" stroke="black" d="M2574.4,-72C2582.39,-72 2591.31,-72 2599.82,-72"/>
<polygon fill="black" stroke="black" points="2599.92,-75.5001 2609.92,-72 2599.92,-68.5001 2599.92,-75.5001"/>
</g>
<!-- 1729296472288&#45;&gt;1729296473344 -->
<g id="edge24" class="edge"><title>1729296472288&#45;&gt;1729296473344</title>
<path fill="none" stroke="black" d="M594.403,-70C602.393,-70 611.311,-70 619.824,-70"/>
<polygon fill="black" stroke="black" points="619.919,-73.5001 629.919,-70 619.919,-66.5001 619.919,-73.5001"/>
</g>
<!-- 1729296470752&#45;&gt;1729296470272 -->
<g id="edge25" class="edge"><title>1729296470752&#45;&gt;1729296470272</title>
<path fill="none" stroke="black" d="M1494.4,-102.7C1502.39,-102.609 1511.31,-102.508 1519.82,-102.411"/>
<polygon fill="black" stroke="black" points="1519.96,-105.91 1529.92,-102.296 1519.88,-98.9103 1519.96,-105.91"/>
</g>
<!-- 1729296471376&#45;&gt;1729296471088 -->
<g id="edge26" class="edge"><title>1729296471376&#45;&gt;1729296471088</title>
<path fill="none" stroke="black" d="M1674.4,-100.5C1682.39,-100.046 1691.31,-99.5392 1699.82,-99.0555"/>
<polygon fill="black" stroke="black" points="1700.13,-102.544 1709.92,-98.4819 1699.74,-95.5549 1700.13,-102.544"/>
</g>
<!-- 1729296473248&#45;&gt;1729296470944 -->
<g id="edge28" class="edge"><title>1729296473248&#45;&gt;1729296470944</title>
<path fill="none" stroke="black" d="M1132.98,-78.8004C1141.42,-81.7713 1151,-85.1488 1160.11,-88.3572"/>
<polygon fill="black" stroke="black" points="1159.13,-91.7234 1169.73,-91.7449 1161.46,-85.1211 1159.13,-91.7234"/>
</g>
<!-- 1729296473248&#45;&gt;1729296472144 -->
<g id="edge27" class="edge"><title>1729296473248&#45;&gt;1729296472144</title>
<path fill="none" stroke="black" d="M1133.88,-66.074C1164.38,-61.4481 1215.25,-53.7324 1249.68,-48.5095"/>
<polygon fill="black" stroke="black" points="1250.43,-51.935 1259.8,-46.9748 1249.38,-45.0141 1250.43,-51.935"/>
</g>
<!-- 1729296470080&#45;&gt;1729269996800 -->
<g id="edge29" class="edge"><title>1729296470080&#45;&gt;1729269996800</title>
<path fill="none" stroke="black" d="M1854.4,-72C1862.39,-72 1871.31,-72 1879.82,-72"/>
<polygon fill="black" stroke="black" points="1879.92,-75.5001 1889.92,-72 1879.92,-68.5001 1879.92,-75.5001"/>
</g>
<!-- 1729269996512&#45;&gt;1729296473536 -->
<g id="edge30" class="edge"><title>1729269996512&#45;&gt;1729296473536</title>
<path fill="none" stroke="black" d="M234.403,-70C242.393,-70 251.311,-70 259.824,-70"/>
<polygon fill="black" stroke="black" points="259.919,-73.5001 269.919,-70 259.919,-66.5001 259.919,-73.5001"/>
</g>
</g>
</svg>
