<?xml version="1.0" encoding="UTF-8" standalone="no"?>
<!DOCTYPE svg PUBLIC "-//W3C//DTD SVG 1.1//EN"
 "http://www.w3.org/Graphics/SVG/1.1/DTD/svg11.dtd">
<!-- Generated by graphviz version 2.38.0 (20140413.2041)
 -->
<!-- Title: &#45;&gt;( X( &#39;A&#39;, &#39;B&#39; ), &#39;D&#39;, X( &#39;L&#39;, &#45;&gt;( &#39;J&#39;, &#39;K&#39; ) ), &#39;M&#39;, X( &#39;H&#39;, &#39;I&#39;, &#39;G&#39; ) ) Pages: 1 -->
<svg width="2942pt" height="260pt"
 viewBox="0.00 0.00 2942.00 260.00" xmlns="http://www.w3.org/2000/svg" xmlns:xlink="http://www.w3.org/1999/xlink">
<g id="graph0" class="graph" transform="scale(1 1) rotate(0) translate(4 256)">
<title>&#45;&gt;( X( &#39;A&#39;, &#39;B&#39; ), &#39;D&#39;, X( &#39;L&#39;, &#45;&gt;( &#39;J&#39;, &#39;K&#39; ) ), &#39;M&#39;, X( &#39;H&#39;, &#39;I&#39;, &#39;G&#39; ) )</title>
<!-- 2848849553536 -->
<g id="node1" class="node"><title>2848849553536</title>
<polygon fill="black" stroke="black" points="2304,-99 2250,-99 2250,-63 2304,-63 2304,-99"/>
</g>
<!-- 2848849551520 -->
<g id="node27" class="node"><title>2848849551520</title>
<ellipse fill="none" stroke="black" cx="2367" cy="-81" rx="27" ry="27"/>
</g>
<!-- 2848849553536&#45;&gt;2848849551520 -->
<g id="edge45" class="edge"><title>2848849553536&#45;&gt;2848849551520</title>
<path fill="none" stroke="black" d="M2304.4,-81C2312.39,-81 2321.31,-81 2329.82,-81"/>
<polygon fill="black" stroke="black" points="2329.92,-84.5001 2339.92,-81 2329.92,-77.5001 2329.92,-84.5001"/>
</g>
<!-- 2848849036672 -->
<g id="node2" class="node"><title>2848849036672</title>
<polygon fill="black" stroke="black" points="684,-52 630,-52 630,-16 684,-16 684,-52"/>
</g>
<!-- 2848849036816 -->
<g id="node44" class="node"><title>2848849036816</title>
<ellipse fill="none" stroke="black" cx="837" cy="-27" rx="27" ry="27"/>
</g>
<!-- 2848849036672&#45;&gt;2848849036816 -->
<g id="edge49" class="edge"><title>2848849036672&#45;&gt;2848849036816</title>
<path fill="none" stroke="black" d="M684.265,-32.9671C714.851,-31.7643 765.551,-29.7705 799.843,-28.4219"/>
<polygon fill="black" stroke="black" points="800.063,-31.9161 809.918,-28.0257 799.788,-24.9215 800.063,-31.9161"/>
</g>
<!-- 2848849038208 -->
<g id="node3" class="node"><title>2848849038208</title>
<polygon fill="black" stroke="black" points="2304,-175 2250,-175 2250,-139 2304,-139 2304,-175"/>
</g>
<!-- 2848849037248 -->
<g id="node42" class="node"><title>2848849037248</title>
<ellipse fill="none" stroke="black" cx="2367" cy="-153" rx="27" ry="27"/>
</g>
<!-- 2848849038208&#45;&gt;2848849037248 -->
<g id="edge50" class="edge"><title>2848849038208&#45;&gt;2848849037248</title>
<path fill="none" stroke="black" d="M2304.4,-155.8C2312.39,-155.437 2321.31,-155.031 2329.82,-154.644"/>
<polygon fill="black" stroke="black" points="2330.09,-158.136 2339.92,-154.186 2329.77,-151.143 2330.09,-158.136"/>
</g>
<!-- 2848848971280 -->
<g id="node4" class="node"><title>2848848971280</title>
<polygon fill="none" stroke="black" points="504,-178 450,-178 450,-142 504,-142 504,-178"/>
<text text-anchor="middle" x="477" y="-156.9" font-family="Times New Roman,serif" font-size="12.00">B</text>
</g>
<!-- 2848848972960 -->
<g id="node34" class="node"><title>2848848972960</title>
<ellipse fill="none" stroke="black" cx="567" cy="-133" rx="27" ry="27"/>
</g>
<!-- 2848848971280&#45;&gt;2848848972960 -->
<g id="edge2" class="edge"><title>2848848971280&#45;&gt;2848848972960</title>
<path fill="none" stroke="black" d="M504.403,-151.899C512.79,-149.326 522.197,-146.439 531.088,-143.712"/>
<polygon fill="black" stroke="black" points="532.29,-147.004 540.823,-140.725 530.236,-140.312 532.29,-147.004"/>
</g>
<!-- 2848849037680 -->
<g id="node41" class="node"><title>2848849037680</title>
<ellipse fill="none" stroke="black" cx="2187" cy="-190" rx="27" ry="27"/>
</g>
<!-- 2848848971280&#45;&gt;2848849037680 -->
<g id="edge3" class="edge"><title>2848848971280&#45;&gt;2848849037680</title>
<path fill="none" stroke="black" d="M504.008,-167.186C538.476,-176.061 601.314,-190 656,-190 656,-190 656,-190 2008,-190 2057.08,-190 2113.77,-190 2149.74,-190"/>
<polygon fill="black" stroke="black" points="2149.76,-193.5 2159.76,-190 2149.76,-186.5 2149.76,-193.5"/>
</g>
<!-- 2848848972816 -->
<g id="node5" class="node"><title>2848848972816</title>
<polygon fill="none" stroke="black" points="864,-151 810,-151 810,-115 864,-115 864,-151"/>
<text text-anchor="middle" x="837" y="-129.9" font-family="Times New Roman,serif" font-size="12.00">D</text>
</g>
<!-- 2848849554832 -->
<g id="node29" class="node"><title>2848849554832</title>
<ellipse fill="none" stroke="black" cx="927" cy="-133" rx="27" ry="27"/>
</g>
<!-- 2848848972816&#45;&gt;2848849554832 -->
<g id="edge1" class="edge"><title>2848848972816&#45;&gt;2848849554832</title>
<path fill="none" stroke="black" d="M864.403,-133C872.393,-133 881.311,-133 889.824,-133"/>
<polygon fill="black" stroke="black" points="889.919,-136.5 899.919,-133 889.919,-129.5 889.919,-136.5"/>
</g>
<!-- 2848848934032 -->
<g id="node6" class="node"><title>2848848934032</title>
<polygon fill="none" stroke="black" points="1404,-149 1350,-149 1350,-113 1404,-113 1404,-149"/>
<text text-anchor="middle" x="1377" y="-127.9" font-family="Times New Roman,serif" font-size="12.00">J</text>
</g>
<!-- 2848848934224 -->
<g id="node33" class="node"><title>2848848934224</title>
<ellipse fill="none" stroke="black" cx="1467" cy="-131" rx="27" ry="27"/>
</g>
<!-- 2848848934032&#45;&gt;2848848934224 -->
<g id="edge11" class="edge"><title>2848848934032&#45;&gt;2848848934224</title>
<path fill="none" stroke="black" d="M1404.4,-131C1412.39,-131 1421.31,-131 1429.82,-131"/>
<polygon fill="black" stroke="black" points="1429.92,-134.5 1439.92,-131 1429.92,-127.5 1429.92,-134.5"/>
</g>
<!-- 2848848934800 -->
<g id="node7" class="node"><title>2848848934800</title>
<polygon fill="black" stroke="black" points="1224,-152 1170,-152 1170,-116 1224,-116 1224,-152"/>
</g>
<!-- 2848848933888 -->
<g id="node25" class="node"><title>2848848933888</title>
<ellipse fill="none" stroke="black" cx="1287" cy="-135" rx="27" ry="27"/>
</g>
<!-- 2848848934800&#45;&gt;2848848933888 -->
<g id="edge41" class="edge"><title>2848848934800&#45;&gt;2848848933888</title>
<path fill="none" stroke="black" d="M1224.4,-134.3C1232.39,-134.391 1241.31,-134.492 1249.82,-134.589"/>
<polygon fill="black" stroke="black" points="1249.88,-138.09 1259.92,-134.704 1249.96,-131.09 1249.88,-138.09"/>
</g>
<!-- 2848848933648 -->
<g id="node8" class="node"><title>2848848933648</title>
<polygon fill="none" stroke="black" points="2124,-99 2070,-99 2070,-63 2124,-63 2124,-99"/>
<text text-anchor="middle" x="2097" y="-77.9" font-family="Times New Roman,serif" font-size="12.00">M</text>
</g>
<!-- 2848850443760 -->
<g id="node31" class="node"><title>2848850443760</title>
<ellipse fill="none" stroke="black" cx="2187" cy="-81" rx="27" ry="27"/>
</g>
<!-- 2848848933648&#45;&gt;2848850443760 -->
<g id="edge10" class="edge"><title>2848848933648&#45;&gt;2848850443760</title>
<path fill="none" stroke="black" d="M2124.4,-81C2132.39,-81 2141.31,-81 2149.82,-81"/>
<polygon fill="black" stroke="black" points="2149.92,-84.5001 2159.92,-81 2149.92,-77.5001 2149.92,-84.5001"/>
</g>
<!-- 2848849553680 -->
<g id="node9" class="node"><title>2848849553680</title>
<polygon fill="none" stroke="black" points="2484,-180 2430,-180 2430,-144 2484,-144 2484,-180"/>
<text text-anchor="middle" x="2457" y="-158.9" font-family="Times New Roman,serif" font-size="12.00">H</text>
</g>
<!-- 2848849551808 -->
<g id="node35" class="node"><title>2848849551808</title>
<ellipse fill="none" stroke="black" cx="2547" cy="-108" rx="27" ry="27"/>
</g>
<!-- 2848849553680&#45;&gt;2848849551808 -->
<g id="edge8" class="edge"><title>2848849553680&#45;&gt;2848849551808</title>
<path fill="none" stroke="black" d="M2484.4,-145.798C2493.94,-139.947 2504.79,-133.286 2514.71,-127.202"/>
<polygon fill="black" stroke="black" points="2516.79,-130.031 2523.48,-121.818 2513.13,-124.065 2516.79,-130.031"/>
</g>
<!-- 2848848971424 -->
<g id="node10" class="node"><title>2848848971424</title>
<polygon fill="none" stroke="black" points="504,-124 450,-124 450,-88 504,-88 504,-124"/>
<text text-anchor="middle" x="477" y="-102.9" font-family="Times New Roman,serif" font-size="12.00">A</text>
</g>
<!-- 2848848971424&#45;&gt;2848848972960 -->
<g id="edge4" class="edge"><title>2848848971424&#45;&gt;2848848972960</title>
<path fill="none" stroke="black" d="M504.403,-114.101C512.79,-116.674 522.197,-119.561 531.088,-122.288"/>
<polygon fill="black" stroke="black" points="530.236,-125.688 540.823,-125.275 532.29,-118.996 530.236,-125.688"/>
</g>
<!-- 2848849552096 -->
<g id="node40" class="node"><title>2848849552096</title>
<ellipse fill="none" stroke="black" cx="567" cy="-43" rx="27" ry="27"/>
</g>
<!-- 2848848971424&#45;&gt;2848849552096 -->
<g id="edge5" class="edge"><title>2848848971424&#45;&gt;2848849552096</title>
<path fill="none" stroke="black" d="M503.453,-87.7778C513.707,-80.437 525.606,-71.9187 536.255,-64.2946"/>
<polygon fill="black" stroke="black" points="538.379,-67.0786 544.473,-58.4115 534.304,-61.3868 538.379,-67.0786"/>
</g>
<!-- 2848848933408 -->
<g id="node11" class="node"><title>2848848933408</title>
<polygon fill="none" stroke="black" points="1314,-90 1260,-90 1260,-54 1314,-54 1314,-90"/>
<text text-anchor="middle" x="1287" y="-68.9" font-family="Times New Roman,serif" font-size="12.00">L</text>
</g>
<!-- 2848848934128 -->
<g id="node38" class="node"><title>2848848934128</title>
<ellipse fill="none" stroke="black" cx="1827" cy="-81" rx="27" ry="27"/>
</g>
<!-- 2848848933408&#45;&gt;2848848934128 -->
<g id="edge12" class="edge"><title>2848848933408&#45;&gt;2848848934128</title>
<path fill="none" stroke="black" d="M1314.24,-72C1348.96,-72 1412.07,-72 1466,-72 1466,-72 1466,-72 1648,-72 1697.28,-72 1754.15,-75.4839 1790.08,-78.1166"/>
<polygon fill="black" stroke="black" points="1789.85,-81.6089 1800.08,-78.8671 1790.37,-74.6285 1789.85,-81.6089"/>
</g>
<!-- 2848848934176 -->
<g id="node12" class="node"><title>2848848934176</title>
<polygon fill="none" stroke="black" points="1584,-147 1530,-147 1530,-111 1584,-111 1584,-147"/>
<text text-anchor="middle" x="1557" y="-125.9" font-family="Times New Roman,serif" font-size="12.00">K</text>
</g>
<!-- 2848848934368 -->
<g id="node36" class="node"><title>2848848934368</title>
<ellipse fill="none" stroke="black" cx="1647" cy="-128" rx="27" ry="27"/>
</g>
<!-- 2848848934176&#45;&gt;2848848934368 -->
<g id="edge6" class="edge"><title>2848848934176&#45;&gt;2848848934368</title>
<path fill="none" stroke="black" d="M1584.4,-128.7C1592.39,-128.609 1601.31,-128.508 1609.82,-128.411"/>
<polygon fill="black" stroke="black" points="1609.96,-131.91 1619.92,-128.296 1609.88,-124.91 1609.96,-131.91"/>
</g>
<!-- 2848849552288 -->
<g id="node13" class="node"><title>2848849552288</title>
<polygon fill="black" stroke="black" points="2664,-126 2610,-126 2610,-90 2664,-90 2664,-126"/>
</g>
<!-- 2848850443856 -->
<g id="node32" class="node"><title>2848850443856</title>
<ellipse fill="none" stroke="black" cx="2727" cy="-108" rx="27" ry="27"/>
</g>
<!-- 2848849552288&#45;&gt;2848850443856 -->
<g id="edge46" class="edge"><title>2848849552288&#45;&gt;2848850443856</title>
<path fill="none" stroke="black" d="M2664.4,-108C2672.39,-108 2681.31,-108 2689.82,-108"/>
<polygon fill="black" stroke="black" points="2689.92,-111.5 2699.92,-108 2689.92,-104.5 2689.92,-111.5"/>
</g>
<!-- 2848849035952 -->
<g id="node14" class="node"><title>2848849035952</title>
<polygon fill="black" stroke="black" points="144,-151 90,-151 90,-115 144,-115 144,-151"/>
</g>
<!-- 2848849552336 -->
<g id="node39" class="node"><title>2848849552336</title>
<ellipse fill="none" stroke="black" cx="207" cy="-133" rx="27" ry="27"/>
</g>
<!-- 2848849035952&#45;&gt;2848849552336 -->
<g id="edge39" class="edge"><title>2848849035952&#45;&gt;2848849552336</title>
<path fill="none" stroke="black" d="M144.403,-133C152.393,-133 161.311,-133 169.824,-133"/>
<polygon fill="black" stroke="black" points="169.919,-136.5 179.919,-133 169.919,-129.5 169.919,-136.5"/>
</g>
<!-- 2848848935616 -->
<g id="node15" class="node"><title>2848848935616</title>
<polygon fill="black" stroke="black" points="1944,-99 1890,-99 1890,-63 1944,-63 1944,-99"/>
</g>
<!-- 2848849465888 -->
<g id="node30" class="node"><title>2848849465888</title>
<ellipse fill="none" stroke="black" cx="2007" cy="-81" rx="27" ry="27"/>
</g>
<!-- 2848848935616&#45;&gt;2848849465888 -->
<g id="edge48" class="edge"><title>2848848935616&#45;&gt;2848849465888</title>
<path fill="none" stroke="black" d="M1944.4,-81C1952.39,-81 1961.31,-81 1969.82,-81"/>
<polygon fill="black" stroke="black" points="1969.92,-84.5001 1979.92,-81 1969.92,-77.5001 1969.92,-84.5001"/>
</g>
<!-- 2848849551424 -->
<g id="node16" class="node"><title>2848849551424</title>
<polygon fill="none" stroke="black" points="2484,-126 2430,-126 2430,-90 2484,-90 2484,-126"/>
<text text-anchor="middle" x="2457" y="-104.9" font-family="Times New Roman,serif" font-size="12.00">G</text>
</g>
<!-- 2848849551424&#45;&gt;2848849551808 -->
<g id="edge9" class="edge"><title>2848849551424&#45;&gt;2848849551808</title>
<path fill="none" stroke="black" d="M2484.4,-108C2492.39,-108 2501.31,-108 2509.82,-108"/>
<polygon fill="black" stroke="black" points="2509.92,-111.5 2519.92,-108 2509.92,-104.5 2509.92,-111.5"/>
</g>
<!-- 2848849036096 -->
<g id="node17" class="node"><title>2848849036096</title>
<polygon fill="black" stroke="black" points="2844,-126 2790,-126 2790,-90 2844,-90 2844,-126"/>
</g>
<!-- 2848849036288 -->
<g id="node45" class="node"><title>2848849036288</title>
<ellipse fill="orange" stroke="black" cx="2907" cy="-108" rx="27" ry="27"/>
</g>
<!-- 2848849036096&#45;&gt;2848849036288 -->
<g id="edge40" class="edge"><title>2848849036096&#45;&gt;2848849036288</title>
<path fill="none" stroke="black" d="M2844.4,-108C2852.39,-108 2861.31,-108 2869.82,-108"/>
<polygon fill="black" stroke="black" points="2869.92,-111.5 2879.92,-108 2869.92,-104.5 2869.92,-111.5"/>
</g>
<!-- 2848848972240 -->
<g id="node18" class="node"><title>2848848972240</title>
<polygon fill="black" stroke="black" points="324,-151 270,-151 270,-115 324,-115 324,-151"/>
</g>
<!-- 2848848972480 -->
<g id="node26" class="node"><title>2848848972480</title>
<ellipse fill="none" stroke="black" cx="387" cy="-133" rx="27" ry="27"/>
</g>
<!-- 2848848972240&#45;&gt;2848848972480 -->
<g id="edge42" class="edge"><title>2848848972240&#45;&gt;2848848972480</title>
<path fill="none" stroke="black" d="M324.403,-133C332.393,-133 341.311,-133 349.824,-133"/>
<polygon fill="black" stroke="black" points="349.919,-136.5 359.919,-133 349.919,-129.5 349.919,-136.5"/>
</g>
<!-- 2848848934992 -->
<g id="node19" class="node"><title>2848848934992</title>
<polygon fill="black" stroke="black" points="1764,-141 1710,-141 1710,-105 1764,-105 1764,-141"/>
</g>
<!-- 2848848934992&#45;&gt;2848848934128 -->
<g id="edge44" class="edge"><title>2848848934992&#45;&gt;2848848934128</title>
<path fill="none" stroke="black" d="M1764.4,-110.399C1773.44,-106.086 1783.66,-101.207 1793.15,-96.6805"/>
<polygon fill="black" stroke="black" points="1794.79,-99.7722 1802.31,-92.3062 1791.78,-93.4548 1794.79,-99.7722"/>
</g>
<!-- 2848848933984 -->
<g id="node20" class="node"><title>2848848933984</title>
<polygon fill="black" stroke="black" points="1044,-151 990,-151 990,-115 1044,-115 1044,-151"/>
</g>
<!-- 2848848933600 -->
<g id="node37" class="node"><title>2848848933600</title>
<ellipse fill="none" stroke="black" cx="1107" cy="-133" rx="27" ry="27"/>
</g>
<!-- 2848848933984&#45;&gt;2848848933600 -->
<g id="edge47" class="edge"><title>2848848933984&#45;&gt;2848848933600</title>
<path fill="none" stroke="black" d="M1044.4,-133C1052.39,-133 1061.31,-133 1069.82,-133"/>
<polygon fill="black" stroke="black" points="1069.92,-136.5 1079.92,-133 1069.92,-129.5 1069.92,-136.5"/>
</g>
<!-- 2848849552480 -->
<g id="node21" class="node"><title>2848849552480</title>
<polygon fill="none" stroke="black" points="2484,-72 2430,-72 2430,-36 2484,-36 2484,-72"/>
<text text-anchor="middle" x="2457" y="-50.9" font-family="Times New Roman,serif" font-size="12.00">I</text>
</g>
<!-- 2848849552480&#45;&gt;2848849551808 -->
<g id="edge7" class="edge"><title>2848849552480&#45;&gt;2848849551808</title>
<path fill="none" stroke="black" d="M2484.4,-70.2018C2493.94,-76.053 2504.79,-82.7142 2514.71,-88.7977"/>
<polygon fill="black" stroke="black" points="2513.13,-91.9353 2523.48,-94.1824 2516.79,-85.969 2513.13,-91.9353"/>
</g>
<!-- 2848849037536 -->
<g id="node22" class="node"><title>2848849037536</title>
<polygon fill="black" stroke="black" points="2304,-238 2250,-238 2250,-202 2304,-202 2304,-238"/>
</g>
<!-- 2848848933696 -->
<g id="node43" class="node"><title>2848848933696</title>
<ellipse fill="none" stroke="black" cx="2367" cy="-225" rx="27" ry="27"/>
</g>
<!-- 2848849037536&#45;&gt;2848848933696 -->
<g id="edge51" class="edge"><title>2848849037536&#45;&gt;2848848933696</title>
<path fill="none" stroke="black" d="M2304.4,-221.5C2312.39,-221.954 2321.31,-222.461 2329.82,-222.945"/>
<polygon fill="black" stroke="black" points="2329.74,-226.445 2339.92,-223.518 2330.13,-219.456 2329.74,-226.445"/>
</g>
<!-- 2848848933360 -->
<g id="node23" class="node"><title>2848848933360</title>
<polygon fill="black" stroke="black" points="684,-151 630,-151 630,-115 684,-115 684,-151"/>
</g>
<!-- 2848849552768 -->
<g id="node28" class="node"><title>2848849552768</title>
<ellipse fill="none" stroke="black" cx="747" cy="-133" rx="27" ry="27"/>
</g>
<!-- 2848848933360&#45;&gt;2848849552768 -->
<g id="edge43" class="edge"><title>2848848933360&#45;&gt;2848849552768</title>
<path fill="none" stroke="black" d="M684.403,-133C692.393,-133 701.311,-133 709.824,-133"/>
<polygon fill="black" stroke="black" points="709.919,-136.5 719.919,-133 709.919,-129.5 709.919,-136.5"/>
</g>
<!-- 2848848971520 -->
<g id="node24" class="node"><title>2848848971520</title>
<ellipse fill="green" stroke="black" cx="27" cy="-133" rx="27" ry="27"/>
<text text-anchor="middle" x="27" y="-129.9" font-family="Times New Roman,serif" font-size="12.00">1</text>
</g>
<!-- 2848848971520&#45;&gt;2848849035952 -->
<g id="edge24" class="edge"><title>2848848971520&#45;&gt;2848849035952</title>
<path fill="none" stroke="black" d="M54.4029,-133C62.3932,-133 71.3106,-133 79.8241,-133"/>
<polygon fill="black" stroke="black" points="79.919,-136.5 89.919,-133 79.919,-129.5 79.919,-136.5"/>
</g>
<!-- 2848848933888&#45;&gt;2848848934032 -->
<g id="edge13" class="edge"><title>2848848933888&#45;&gt;2848848934032</title>
<path fill="none" stroke="black" d="M1314.4,-133.8C1322.39,-133.437 1331.31,-133.031 1339.82,-132.644"/>
<polygon fill="black" stroke="black" points="1340.09,-136.136 1349.92,-132.186 1339.77,-129.143 1340.09,-136.136"/>
</g>
<!-- 2848848972480&#45;&gt;2848848971280 -->
<g id="edge14" class="edge"><title>2848848972480&#45;&gt;2848848971280</title>
<path fill="none" stroke="black" d="M412.982,-140.665C421.415,-143.252 431.003,-146.194 440.111,-148.989"/>
<polygon fill="black" stroke="black" points="439.141,-152.352 449.727,-151.939 441.194,-145.66 439.141,-152.352"/>
</g>
<!-- 2848848972480&#45;&gt;2848848971424 -->
<g id="edge15" class="edge"><title>2848848972480&#45;&gt;2848848971424</title>
<path fill="none" stroke="black" d="M412.982,-125.335C421.415,-122.748 431.003,-119.806 440.111,-117.011"/>
<polygon fill="black" stroke="black" points="441.194,-120.34 449.727,-114.061 439.141,-113.648 441.194,-120.34"/>
</g>
<!-- 2848849551520&#45;&gt;2848849553680 -->
<g id="edge17" class="edge"><title>2848849551520&#45;&gt;2848849553680</title>
<path fill="none" stroke="black" d="M2387.53,-98.9765C2399.64,-110.119 2415.37,-124.598 2428.69,-136.867"/>
<polygon fill="black" stroke="black" points="2426.49,-139.596 2436.22,-143.794 2431.23,-134.446 2426.49,-139.596"/>
</g>
<!-- 2848849551520&#45;&gt;2848849551424 -->
<g id="edge18" class="edge"><title>2848849551520&#45;&gt;2848849551424</title>
<path fill="none" stroke="black" d="M2392.98,-88.6649C2401.42,-91.2524 2411,-94.1941 2420.11,-96.9885"/>
<polygon fill="black" stroke="black" points="2419.14,-100.352 2429.73,-99.9391 2421.19,-93.6598 2419.14,-100.352"/>
</g>
<!-- 2848849551520&#45;&gt;2848849552480 -->
<g id="edge16" class="edge"><title>2848849551520&#45;&gt;2848849552480</title>
<path fill="none" stroke="black" d="M2392.98,-73.3351C2401.42,-70.7476 2411,-67.8059 2420.11,-65.0115"/>
<polygon fill="black" stroke="black" points="2421.19,-68.3402 2429.73,-62.0609 2419.14,-61.6481 2421.19,-68.3402"/>
</g>
<!-- 2848849552768&#45;&gt;2848848972816 -->
<g id="edge19" class="edge"><title>2848849552768&#45;&gt;2848848972816</title>
<path fill="none" stroke="black" d="M774.403,-133C782.393,-133 791.311,-133 799.824,-133"/>
<polygon fill="black" stroke="black" points="799.919,-136.5 809.919,-133 799.919,-129.5 799.919,-136.5"/>
</g>
<!-- 2848849554832&#45;&gt;2848848933984 -->
<g id="edge20" class="edge"><title>2848849554832&#45;&gt;2848848933984</title>
<path fill="none" stroke="black" d="M954.403,-133C962.393,-133 971.311,-133 979.824,-133"/>
<polygon fill="black" stroke="black" points="979.919,-136.5 989.919,-133 979.919,-129.5 979.919,-136.5"/>
</g>
<!-- 2848849465888&#45;&gt;2848848933648 -->
<g id="edge21" class="edge"><title>2848849465888&#45;&gt;2848848933648</title>
<path fill="none" stroke="black" d="M2034.4,-81C2042.39,-81 2051.31,-81 2059.82,-81"/>
<polygon fill="black" stroke="black" points="2059.92,-84.5001 2069.92,-81 2059.92,-77.5001 2059.92,-84.5001"/>
</g>
<!-- 2848850443760&#45;&gt;2848849553536 -->
<g id="edge22" class="edge"><title>2848850443760&#45;&gt;2848849553536</title>
<path fill="none" stroke="black" d="M2214.4,-81C2222.39,-81 2231.31,-81 2239.82,-81"/>
<polygon fill="black" stroke="black" points="2239.92,-84.5001 2249.92,-81 2239.92,-77.5001 2239.92,-84.5001"/>
</g>
<!-- 2848850443856&#45;&gt;2848849036096 -->
<g id="edge23" class="edge"><title>2848850443856&#45;&gt;2848849036096</title>
<path fill="none" stroke="black" d="M2754.4,-108C2762.39,-108 2771.31,-108 2779.82,-108"/>
<polygon fill="black" stroke="black" points="2779.92,-111.5 2789.92,-108 2779.92,-104.5 2779.92,-111.5"/>
</g>
<!-- 2848848934224&#45;&gt;2848848934176 -->
<g id="edge25" class="edge"><title>2848848934224&#45;&gt;2848848934176</title>
<path fill="none" stroke="black" d="M1494.4,-130.4C1502.39,-130.218 1511.31,-130.016 1519.82,-129.822"/>
<polygon fill="black" stroke="black" points="1520,-133.319 1529.92,-129.593 1519.84,-126.321 1520,-133.319"/>
</g>
<!-- 2848848972960&#45;&gt;2848848933360 -->
<g id="edge26" class="edge"><title>2848848972960&#45;&gt;2848848933360</title>
<path fill="none" stroke="black" d="M594.403,-133C602.393,-133 611.311,-133 619.824,-133"/>
<polygon fill="black" stroke="black" points="619.919,-136.5 629.919,-133 619.919,-129.5 619.919,-136.5"/>
</g>
<!-- 2848849551808&#45;&gt;2848849552288 -->
<g id="edge27" class="edge"><title>2848849551808&#45;&gt;2848849552288</title>
<path fill="none" stroke="black" d="M2574.4,-108C2582.39,-108 2591.31,-108 2599.82,-108"/>
<polygon fill="black" stroke="black" points="2599.92,-111.5 2609.92,-108 2599.92,-104.5 2599.92,-111.5"/>
</g>
<!-- 2848848934368&#45;&gt;2848848934992 -->
<g id="edge28" class="edge"><title>2848848934368&#45;&gt;2848848934992</title>
<path fill="none" stroke="black" d="M1674.4,-126.5C1682.39,-126.046 1691.31,-125.539 1699.82,-125.055"/>
<polygon fill="black" stroke="black" points="1700.13,-128.544 1709.92,-124.482 1699.74,-121.555 1700.13,-128.544"/>
</g>
<!-- 2848848933600&#45;&gt;2848848934800 -->
<g id="edge30" class="edge"><title>2848848933600&#45;&gt;2848848934800</title>
<path fill="none" stroke="black" d="M1134.4,-133.3C1142.39,-133.391 1151.31,-133.492 1159.82,-133.589"/>
<polygon fill="black" stroke="black" points="1159.88,-137.09 1169.92,-133.704 1159.96,-130.09 1159.88,-137.09"/>
</g>
<!-- 2848848933600&#45;&gt;2848848933408 -->
<g id="edge29" class="edge"><title>2848848933600&#45;&gt;2848848933408</title>
<path fill="none" stroke="black" d="M1131.91,-122.286C1143.33,-117.348 1157.26,-111.58 1170,-107 1196.56,-97.4549 1227.13,-88.3026 1250.23,-81.7525"/>
<polygon fill="black" stroke="black" points="1251.27,-85.0956 1259.95,-79.0227 1249.37,-78.3562 1251.27,-85.0956"/>
</g>
<!-- 2848848934128&#45;&gt;2848848935616 -->
<g id="edge31" class="edge"><title>2848848934128&#45;&gt;2848848935616</title>
<path fill="none" stroke="black" d="M1854.4,-81C1862.39,-81 1871.31,-81 1879.82,-81"/>
<polygon fill="black" stroke="black" points="1879.92,-84.5001 1889.92,-81 1879.92,-77.5001 1879.92,-84.5001"/>
</g>
<!-- 2848849552336&#45;&gt;2848848972240 -->
<g id="edge32" class="edge"><title>2848849552336&#45;&gt;2848848972240</title>
<path fill="none" stroke="black" d="M234.403,-133C242.393,-133 251.311,-133 259.824,-133"/>
<polygon fill="black" stroke="black" points="259.919,-136.5 269.919,-133 259.919,-129.5 259.919,-136.5"/>
</g>
<!-- 2848849552096&#45;&gt;2848849036672 -->
<g id="edge33" class="edge"><title>2848849552096&#45;&gt;2848849036672</title>
<path fill="none" stroke="black" d="M593.927,-40.3484C602.089,-39.5136 611.256,-38.5761 619.989,-37.683"/>
<polygon fill="black" stroke="black" points="620.362,-41.1631 629.954,-36.6638 619.65,-34.1994 620.362,-41.1631"/>
</g>
<!-- 2848849037680&#45;&gt;2848849038208 -->
<g id="edge34" class="edge"><title>2848849037680&#45;&gt;2848849038208</title>
<path fill="none" stroke="black" d="M2212.51,-180.808C2221.12,-177.58 2230.97,-173.886 2240.31,-170.385"/>
<polygon fill="black" stroke="black" points="2241.64,-173.624 2249.77,-166.835 2239.18,-167.07 2241.64,-173.624"/>
</g>
<!-- 2848849037680&#45;&gt;2848849037536 -->
<g id="edge35" class="edge"><title>2848849037680&#45;&gt;2848849037536</title>
<path fill="none" stroke="black" d="M2212.98,-198.517C2221.42,-201.392 2231,-204.66 2240.11,-207.765"/>
<polygon fill="black" stroke="black" points="2239.13,-211.129 2249.73,-211.043 2241.39,-204.504 2239.13,-211.129"/>
</g>
<!-- 2848849037248&#45;&gt;2848849551424 -->
<g id="edge36" class="edge"><title>2848849037248&#45;&gt;2848849551424</title>
<path fill="none" stroke="black" d="M2391.58,-140.941C2400.53,-136.364 2410.93,-131.046 2420.73,-126.036"/>
<polygon fill="black" stroke="black" points="2422.56,-129.03 2429.87,-121.361 2419.38,-122.797 2422.56,-129.03"/>
</g>
<!-- 2848848933696&#45;&gt;2848849553680 -->
<g id="edge37" class="edge"><title>2848848933696&#45;&gt;2848849553680</title>
<path fill="none" stroke="black" d="M2389.3,-209.749C2399.27,-202.611 2411.39,-193.939 2422.54,-185.954"/>
<polygon fill="black" stroke="black" points="2424.74,-188.686 2430.83,-180.019 2420.66,-182.994 2424.74,-188.686"/>
</g>
<!-- 2848849036816&#45;&gt;2848849552480 -->
<g id="edge38" class="edge"><title>2848849036816&#45;&gt;2848849552480</title>
<path fill="none" stroke="black" d="M864.239,-26.7605C898.959,-26.4646 962.074,-26 1016,-26 1016,-26 1016,-26 2278,-26 2327.68,-26 2384.23,-36.7771 2420,-44.959"/>
<polygon fill="black" stroke="black" points="2419.43,-48.4189 2429.96,-47.2933 2421.03,-41.6036 2419.43,-48.4189"/>
</g>
</g>
</svg>
