<?xml version="1.0" encoding="UTF-8" standalone="no"?>
<!DOCTYPE svg PUBLIC "-//W3C//DTD SVG 1.1//EN"
 "http://www.w3.org/Graphics/SVG/1.1/DTD/svg11.dtd">
<!-- Generated by graphviz version 2.38.0 (20140413.2041)
 -->
<!-- Title: &#45;&gt;( X( &#39;A&#39;, &#39;B&#39; ), &#39;D&#39;, X( &#39;L&#39;, &#45;&gt;( &#39;J&#39;, &#39;K&#39; ) ), &#39;M&#39;, X( &#39;H&#39;, &#39;I&#39;, &#39;G&#39; ) ) Pages: 1 -->
<svg width="2942pt" height="152pt"
 viewBox="0.00 0.00 2942.00 152.00" xmlns="http://www.w3.org/2000/svg" xmlns:xlink="http://www.w3.org/1999/xlink">
<g id="graph0" class="graph" transform="scale(1 1) rotate(0) translate(4 148)">
<title>&#45;&gt;( X( &#39;A&#39;, &#39;B&#39; ), &#39;D&#39;, X( &#39;L&#39;, &#45;&gt;( &#39;J&#39;, &#39;K&#39; ) ), &#39;M&#39;, X( &#39;H&#39;, &#39;I&#39;, &#39;G&#39; ) )</title>
<!-- 3227307300992 -->
<g id="node1" class="node"><title>3227307300992</title>
<polygon fill="none" stroke="black" points="504,-107 450,-107 450,-71 504,-71 504,-107"/>
<text text-anchor="middle" x="477" y="-85.9" font-family="Times New Roman,serif" font-size="12.00">B</text>
</g>
<!-- 3227307301040 -->
<g id="node32" class="node"><title>3227307301040</title>
<ellipse fill="none" stroke="black" cx="567" cy="-62" rx="27" ry="27"/>
</g>
<!-- 3227307300992&#45;&gt;3227307301040 -->
<g id="edge2" class="edge"><title>3227307300992&#45;&gt;3227307301040</title>
<path fill="none" stroke="black" d="M504.403,-80.8991C512.79,-78.3259 522.197,-75.4394 531.088,-72.7117"/>
<polygon fill="black" stroke="black" points="532.29,-76.004 540.823,-69.7247 530.236,-69.3119 532.29,-76.004"/>
</g>
<!-- 3227307300608 -->
<g id="node2" class="node"><title>3227307300608</title>
<polygon fill="none" stroke="black" points="864,-80 810,-80 810,-44 864,-44 864,-80"/>
<text text-anchor="middle" x="837" y="-58.9" font-family="Times New Roman,serif" font-size="12.00">D</text>
</g>
<!-- 3227288544880 -->
<g id="node26" class="node"><title>3227288544880</title>
<ellipse fill="none" stroke="black" cx="927" cy="-62" rx="27" ry="27"/>
</g>
<!-- 3227307300608&#45;&gt;3227288544880 -->
<g id="edge1" class="edge"><title>3227307300608&#45;&gt;3227288544880</title>
<path fill="none" stroke="black" d="M864.403,-62C872.393,-62 881.311,-62 889.824,-62"/>
<polygon fill="black" stroke="black" points="889.919,-65.5001 899.919,-62 889.919,-58.5001 889.919,-65.5001"/>
</g>
<!-- 3227288869904 -->
<g id="node3" class="node"><title>3227288869904</title>
<polygon fill="none" stroke="black" points="1314,-116 1260,-116 1260,-80 1314,-80 1314,-116"/>
<text text-anchor="middle" x="1287" y="-94.9" font-family="Times New Roman,serif" font-size="12.00">L</text>
</g>
<!-- 3227288868368 -->
<g id="node35" class="node"><title>3227288868368</title>
<ellipse fill="none" stroke="black" cx="1827" cy="-72" rx="27" ry="27"/>
</g>
<!-- 3227288869904&#45;&gt;3227288868368 -->
<g id="edge5" class="edge"><title>3227288869904&#45;&gt;3227288868368</title>
<path fill="none" stroke="black" d="M1314.24,-97.7605C1348.96,-97.4646 1412.07,-97 1466,-97 1466,-97 1466,-97 1648,-97 1697.85,-97 1754.79,-87.267 1790.56,-79.9469"/>
<polygon fill="black" stroke="black" points="1791.44,-83.3387 1800.51,-77.8614 1790.01,-76.4876 1791.44,-83.3387"/>
</g>
<!-- 3227288867984 -->
<g id="node4" class="node"><title>3227288867984</title>
<polygon fill="none" stroke="black" points="1404,-57 1350,-57 1350,-21 1404,-21 1404,-57"/>
<text text-anchor="middle" x="1377" y="-35.9" font-family="Times New Roman,serif" font-size="12.00">J</text>
</g>
<!-- 3227288868032 -->
<g id="node30" class="node"><title>3227288868032</title>
<ellipse fill="none" stroke="black" cx="1467" cy="-41" rx="27" ry="27"/>
</g>
<!-- 3227288867984&#45;&gt;3227288868032 -->
<g id="edge6" class="edge"><title>3227288867984&#45;&gt;3227288868032</title>
<path fill="none" stroke="black" d="M1404.4,-39.6001C1412.39,-39.7817 1421.31,-39.9843 1429.82,-40.1778"/>
<polygon fill="black" stroke="black" points="1429.84,-43.679 1439.92,-40.4072 1430,-36.6808 1429.84,-43.679"/>
</g>
<!-- 3227288544016 -->
<g id="node5" class="node"><title>3227288544016</title>
<polygon fill="none" stroke="black" points="2484,-144 2430,-144 2430,-108 2484,-108 2484,-144"/>
<text text-anchor="middle" x="2457" y="-122.9" font-family="Times New Roman,serif" font-size="12.00">G</text>
</g>
<!-- 3227288544208 -->
<g id="node31" class="node"><title>3227288544208</title>
<ellipse fill="none" stroke="black" cx="2547" cy="-72" rx="27" ry="27"/>
</g>
<!-- 3227288544016&#45;&gt;3227288544208 -->
<g id="edge9" class="edge"><title>3227288544016&#45;&gt;3227288544208</title>
<path fill="none" stroke="black" d="M2484.4,-109.798C2493.94,-103.947 2504.79,-97.2858 2514.71,-91.2023"/>
<polygon fill="black" stroke="black" points="2516.79,-94.031 2523.48,-85.8176 2513.13,-88.0647 2516.79,-94.031"/>
</g>
<!-- 3227288870816 -->
<g id="node6" class="node"><title>3227288870816</title>
<polygon fill="black" stroke="black" points="684,-80 630,-80 630,-44 684,-44 684,-80"/>
</g>
<!-- 3227288870240 -->
<g id="node25" class="node"><title>3227288870240</title>
<ellipse fill="none" stroke="black" cx="747" cy="-62" rx="27" ry="27"/>
</g>
<!-- 3227288870816&#45;&gt;3227288870240 -->
<g id="edge35" class="edge"><title>3227288870816&#45;&gt;3227288870240</title>
<path fill="none" stroke="black" d="M684.403,-62C692.393,-62 701.311,-62 709.824,-62"/>
<polygon fill="black" stroke="black" points="709.919,-65.5001 719.919,-62 709.919,-58.5001 709.919,-65.5001"/>
</g>
<!-- 3227288868128 -->
<g id="node7" class="node"><title>3227288868128</title>
<polygon fill="black" stroke="black" points="1044,-80 990,-80 990,-44 1044,-44 1044,-80"/>
</g>
<!-- 3227288868992 -->
<g id="node34" class="node"><title>3227288868992</title>
<ellipse fill="none" stroke="black" cx="1107" cy="-62" rx="27" ry="27"/>
</g>
<!-- 3227288868128&#45;&gt;3227288868992 -->
<g id="edge39" class="edge"><title>3227288868128&#45;&gt;3227288868992</title>
<path fill="none" stroke="black" d="M1044.4,-62C1052.39,-62 1061.31,-62 1069.82,-62"/>
<polygon fill="black" stroke="black" points="1069.92,-65.5001 1079.92,-62 1069.92,-58.5001 1069.92,-65.5001"/>
</g>
<!-- 3227288870432 -->
<g id="node8" class="node"><title>3227288870432</title>
<polygon fill="black" stroke="black" points="1944,-90 1890,-90 1890,-54 1944,-54 1944,-90"/>
</g>
<!-- 3227288545024 -->
<g id="node27" class="node"><title>3227288545024</title>
<ellipse fill="none" stroke="black" cx="2007" cy="-72" rx="27" ry="27"/>
</g>
<!-- 3227288870432&#45;&gt;3227288545024 -->
<g id="edge40" class="edge"><title>3227288870432&#45;&gt;3227288545024</title>
<path fill="none" stroke="black" d="M1944.4,-72C1952.39,-72 1961.31,-72 1969.82,-72"/>
<polygon fill="black" stroke="black" points="1969.92,-75.5001 1979.92,-72 1969.92,-68.5001 1969.92,-75.5001"/>
</g>
<!-- 3227288868272 -->
<g id="node9" class="node"><title>3227288868272</title>
<polygon fill="none" stroke="black" points="1584,-60 1530,-60 1530,-24 1584,-24 1584,-60"/>
<text text-anchor="middle" x="1557" y="-38.9" font-family="Times New Roman,serif" font-size="12.00">K</text>
</g>
<!-- 3227288868176 -->
<g id="node33" class="node"><title>3227288868176</title>
<ellipse fill="none" stroke="black" cx="1647" cy="-42" rx="27" ry="27"/>
</g>
<!-- 3227288868272&#45;&gt;3227288868176 -->
<g id="edge8" class="edge"><title>3227288868272&#45;&gt;3227288868176</title>
<path fill="none" stroke="black" d="M1584.4,-42C1592.39,-42 1601.31,-42 1609.82,-42"/>
<polygon fill="black" stroke="black" points="1609.92,-45.5001 1619.92,-42 1609.92,-38.5001 1609.92,-45.5001"/>
</g>
<!-- 3227288869040 -->
<g id="node10" class="node"><title>3227288869040</title>
<polygon fill="none" stroke="black" points="2124,-90 2070,-90 2070,-54 2124,-54 2124,-90"/>
<text text-anchor="middle" x="2097" y="-68.9" font-family="Times New Roman,serif" font-size="12.00">M</text>
</g>
<!-- 3227288544544 -->
<g id="node28" class="node"><title>3227288544544</title>
<ellipse fill="none" stroke="black" cx="2187" cy="-72" rx="27" ry="27"/>
</g>
<!-- 3227288869040&#45;&gt;3227288544544 -->
<g id="edge4" class="edge"><title>3227288869040&#45;&gt;3227288544544</title>
<path fill="none" stroke="black" d="M2124.4,-72C2132.39,-72 2141.31,-72 2149.82,-72"/>
<polygon fill="black" stroke="black" points="2149.92,-75.5001 2159.92,-72 2149.92,-68.5001 2149.92,-75.5001"/>
</g>
<!-- 3227288870192 -->
<g id="node11" class="node"><title>3227288870192</title>
<polygon fill="none" stroke="black" points="2484,-90 2430,-90 2430,-54 2484,-54 2484,-90"/>
<text text-anchor="middle" x="2457" y="-68.9" font-family="Times New Roman,serif" font-size="12.00">H</text>
</g>
<!-- 3227288870192&#45;&gt;3227288544208 -->
<g id="edge10" class="edge"><title>3227288870192&#45;&gt;3227288544208</title>
<path fill="none" stroke="black" d="M2484.4,-72C2492.39,-72 2501.31,-72 2509.82,-72"/>
<polygon fill="black" stroke="black" points="2509.92,-75.5001 2519.92,-72 2509.92,-68.5001 2509.92,-75.5001"/>
</g>
<!-- 3227288543536 -->
<g id="node12" class="node"><title>3227288543536</title>
<polygon fill="black" stroke="black" points="2664,-90 2610,-90 2610,-54 2664,-54 2664,-90"/>
</g>
<!-- 3227288543296 -->
<g id="node29" class="node"><title>3227288543296</title>
<ellipse fill="none" stroke="black" cx="2727" cy="-72" rx="27" ry="27"/>
</g>
<!-- 3227288543536&#45;&gt;3227288543296 -->
<g id="edge38" class="edge"><title>3227288543536&#45;&gt;3227288543296</title>
<path fill="none" stroke="black" d="M2664.4,-72C2672.39,-72 2681.31,-72 2689.82,-72"/>
<polygon fill="black" stroke="black" points="2689.92,-75.5001 2699.92,-72 2689.92,-68.5001 2689.92,-75.5001"/>
</g>
<!-- 3227288546224 -->
<g id="node13" class="node"><title>3227288546224</title>
<polygon fill="black" stroke="black" points="2304,-90 2250,-90 2250,-54 2304,-54 2304,-90"/>
</g>
<!-- 3227288870144 -->
<g id="node23" class="node"><title>3227288870144</title>
<ellipse fill="none" stroke="black" cx="2367" cy="-72" rx="27" ry="27"/>
</g>
<!-- 3227288546224&#45;&gt;3227288870144 -->
<g id="edge37" class="edge"><title>3227288546224&#45;&gt;3227288870144</title>
<path fill="none" stroke="black" d="M2304.4,-72C2312.39,-72 2321.31,-72 2329.82,-72"/>
<polygon fill="black" stroke="black" points="2329.92,-75.5001 2339.92,-72 2329.92,-68.5001 2329.92,-75.5001"/>
</g>
<!-- 3227288545456 -->
<g id="node14" class="node"><title>3227288545456</title>
<polygon fill="black" stroke="black" points="144,-80 90,-80 90,-44 144,-44 144,-80"/>
</g>
<!-- 3227288870000 -->
<g id="node36" class="node"><title>3227288870000</title>
<ellipse fill="none" stroke="black" cx="207" cy="-62" rx="27" ry="27"/>
</g>
<!-- 3227288545456&#45;&gt;3227288870000 -->
<g id="edge31" class="edge"><title>3227288545456&#45;&gt;3227288870000</title>
<path fill="none" stroke="black" d="M144.403,-62C152.393,-62 161.311,-62 169.824,-62"/>
<polygon fill="black" stroke="black" points="169.919,-65.5001 179.919,-62 169.919,-58.5001 169.919,-65.5001"/>
</g>
<!-- 3227307302336 -->
<g id="node15" class="node"><title>3227307302336</title>
<polygon fill="black" stroke="black" points="324,-80 270,-80 270,-44 324,-44 324,-80"/>
</g>
<!-- 3227307300752 -->
<g id="node22" class="node"><title>3227307300752</title>
<ellipse fill="none" stroke="black" cx="387" cy="-62" rx="27" ry="27"/>
</g>
<!-- 3227307302336&#45;&gt;3227307300752 -->
<g id="edge33" class="edge"><title>3227307302336&#45;&gt;3227307300752</title>
<path fill="none" stroke="black" d="M324.403,-62C332.393,-62 341.311,-62 349.824,-62"/>
<polygon fill="black" stroke="black" points="349.919,-65.5001 359.919,-62 349.919,-58.5001 349.919,-65.5001"/>
</g>
<!-- 3227288545216 -->
<g id="node16" class="node"><title>3227288545216</title>
<polygon fill="none" stroke="black" points="2484,-36 2430,-36 2430,-0 2484,-0 2484,-36"/>
<text text-anchor="middle" x="2457" y="-14.9" font-family="Times New Roman,serif" font-size="12.00">I</text>
</g>
<!-- 3227288545216&#45;&gt;3227288544208 -->
<g id="edge7" class="edge"><title>3227288545216&#45;&gt;3227288544208</title>
<path fill="none" stroke="black" d="M2484.4,-34.2018C2493.94,-40.053 2504.79,-46.7142 2514.71,-52.7977"/>
<polygon fill="black" stroke="black" points="2513.13,-55.9353 2523.48,-58.1824 2516.79,-49.969 2513.13,-55.9353"/>
</g>
<!-- 3227288545744 -->
<g id="node17" class="node"><title>3227288545744</title>
<polygon fill="black" stroke="black" points="2844,-90 2790,-90 2790,-54 2844,-54 2844,-90"/>
</g>
<!-- 3227288545648 -->
<g id="node37" class="node"><title>3227288545648</title>
<ellipse fill="orange" stroke="black" cx="2907" cy="-72" rx="27" ry="27"/>
</g>
<!-- 3227288545744&#45;&gt;3227288545648 -->
<g id="edge32" class="edge"><title>3227288545744&#45;&gt;3227288545648</title>
<path fill="none" stroke="black" d="M2844.4,-72C2852.39,-72 2861.31,-72 2869.82,-72"/>
<polygon fill="black" stroke="black" points="2869.92,-75.5001 2879.92,-72 2869.92,-68.5001 2869.92,-75.5001"/>
</g>
<!-- 3227288869472 -->
<g id="node18" class="node"><title>3227288869472</title>
<polygon fill="black" stroke="black" points="1224,-57 1170,-57 1170,-21 1224,-21 1224,-57"/>
</g>
<!-- 3227288868512 -->
<g id="node24" class="node"><title>3227288868512</title>
<ellipse fill="none" stroke="black" cx="1287" cy="-35" rx="27" ry="27"/>
</g>
<!-- 3227288869472&#45;&gt;3227288868512 -->
<g id="edge34" class="edge"><title>3227288869472&#45;&gt;3227288868512</title>
<path fill="none" stroke="black" d="M1224.4,-37.7999C1232.39,-37.4367 1241.31,-37.0313 1249.82,-36.6444"/>
<polygon fill="black" stroke="black" points="1250.09,-40.1361 1259.92,-36.1855 1249.77,-33.1433 1250.09,-40.1361"/>
</g>
<!-- 3227288869088 -->
<g id="node19" class="node"><title>3227288869088</title>
<polygon fill="black" stroke="black" points="1764,-65 1710,-65 1710,-29 1764,-29 1764,-65"/>
</g>
<!-- 3227288869088&#45;&gt;3227288868368 -->
<g id="edge36" class="edge"><title>3227288869088&#45;&gt;3227288868368</title>
<path fill="none" stroke="black" d="M1764.4,-54.5008C1772.79,-56.8834 1782.2,-59.5561 1791.09,-62.0817"/>
<polygon fill="black" stroke="black" points="1790.25,-65.4814 1800.82,-64.8475 1792.16,-58.7479 1790.25,-65.4814"/>
</g>
<!-- 3227307300848 -->
<g id="node20" class="node"><title>3227307300848</title>
<polygon fill="none" stroke="black" points="504,-53 450,-53 450,-17 504,-17 504,-53"/>
<text text-anchor="middle" x="477" y="-31.9" font-family="Times New Roman,serif" font-size="12.00">A</text>
</g>
<!-- 3227307300848&#45;&gt;3227307301040 -->
<g id="edge3" class="edge"><title>3227307300848&#45;&gt;3227307301040</title>
<path fill="none" stroke="black" d="M504.403,-43.1009C512.79,-45.6741 522.197,-48.5606 531.088,-51.2883"/>
<polygon fill="black" stroke="black" points="530.236,-54.6881 540.823,-54.2753 532.29,-47.996 530.236,-54.6881"/>
</g>
<!-- 3227307178976 -->
<g id="node21" class="node"><title>3227307178976</title>
<ellipse fill="green" stroke="black" cx="27" cy="-62" rx="27" ry="27"/>
<text text-anchor="middle" x="27" y="-58.9" font-family="Times New Roman,serif" font-size="12.00">1</text>
</g>
<!-- 3227307178976&#45;&gt;3227288545456 -->
<g id="edge22" class="edge"><title>3227307178976&#45;&gt;3227288545456</title>
<path fill="none" stroke="black" d="M54.4029,-62C62.3932,-62 71.3106,-62 79.8241,-62"/>
<polygon fill="black" stroke="black" points="79.919,-65.5001 89.919,-62 79.919,-58.5001 79.919,-65.5001"/>
</g>
<!-- 3227307300752&#45;&gt;3227307300992 -->
<g id="edge11" class="edge"><title>3227307300752&#45;&gt;3227307300992</title>
<path fill="none" stroke="black" d="M412.982,-69.6649C421.415,-72.2524 431.003,-75.1941 440.111,-77.9885"/>
<polygon fill="black" stroke="black" points="439.141,-81.3519 449.727,-80.9391 441.194,-74.6598 439.141,-81.3519"/>
</g>
<!-- 3227307300752&#45;&gt;3227307300848 -->
<g id="edge12" class="edge"><title>3227307300752&#45;&gt;3227307300848</title>
<path fill="none" stroke="black" d="M412.982,-54.3351C421.415,-51.7476 431.003,-48.8059 440.111,-46.0115"/>
<polygon fill="black" stroke="black" points="441.194,-49.3402 449.727,-43.0609 439.141,-42.6481 441.194,-49.3402"/>
</g>
<!-- 3227288870144&#45;&gt;3227288544016 -->
<g id="edge14" class="edge"><title>3227288870144&#45;&gt;3227288544016</title>
<path fill="none" stroke="black" d="M2390.66,-85.9063C2399.96,-91.6104 2410.93,-98.3431 2421.2,-104.646"/>
<polygon fill="black" stroke="black" points="2419.63,-107.791 2429.99,-110.038 2423.3,-101.825 2419.63,-107.791"/>
</g>
<!-- 3227288870144&#45;&gt;3227288870192 -->
<g id="edge15" class="edge"><title>3227288870144&#45;&gt;3227288870192</title>
<path fill="none" stroke="black" d="M2394.4,-72C2402.39,-72 2411.31,-72 2419.82,-72"/>
<polygon fill="black" stroke="black" points="2419.92,-75.5001 2429.92,-72 2419.92,-68.5001 2419.92,-75.5001"/>
</g>
<!-- 3227288870144&#45;&gt;3227288545216 -->
<g id="edge13" class="edge"><title>3227288870144&#45;&gt;3227288545216</title>
<path fill="none" stroke="black" d="M2390.66,-58.0937C2399.96,-52.3896 2410.93,-45.6569 2421.2,-39.3538"/>
<polygon fill="black" stroke="black" points="2423.3,-42.1754 2429.99,-33.9621 2419.63,-36.2092 2423.3,-42.1754"/>
</g>
<!-- 3227288868512&#45;&gt;3227288867984 -->
<g id="edge16" class="edge"><title>3227288868512&#45;&gt;3227288867984</title>
<path fill="none" stroke="black" d="M1314.4,-36.2001C1322.39,-36.5633 1331.31,-36.9687 1339.82,-37.3556"/>
<polygon fill="black" stroke="black" points="1339.77,-40.8567 1349.92,-37.8145 1340.09,-33.8639 1339.77,-40.8567"/>
</g>
<!-- 3227288870240&#45;&gt;3227307300608 -->
<g id="edge17" class="edge"><title>3227288870240&#45;&gt;3227307300608</title>
<path fill="none" stroke="black" d="M774.403,-62C782.393,-62 791.311,-62 799.824,-62"/>
<polygon fill="black" stroke="black" points="799.919,-65.5001 809.919,-62 799.919,-58.5001 799.919,-65.5001"/>
</g>
<!-- 3227288544880&#45;&gt;3227288868128 -->
<g id="edge18" class="edge"><title>3227288544880&#45;&gt;3227288868128</title>
<path fill="none" stroke="black" d="M954.403,-62C962.393,-62 971.311,-62 979.824,-62"/>
<polygon fill="black" stroke="black" points="979.919,-65.5001 989.919,-62 979.919,-58.5001 979.919,-65.5001"/>
</g>
<!-- 3227288545024&#45;&gt;3227288869040 -->
<g id="edge19" class="edge"><title>3227288545024&#45;&gt;3227288869040</title>
<path fill="none" stroke="black" d="M2034.4,-72C2042.39,-72 2051.31,-72 2059.82,-72"/>
<polygon fill="black" stroke="black" points="2059.92,-75.5001 2069.92,-72 2059.92,-68.5001 2059.92,-75.5001"/>
</g>
<!-- 3227288544544&#45;&gt;3227288546224 -->
<g id="edge20" class="edge"><title>3227288544544&#45;&gt;3227288546224</title>
<path fill="none" stroke="black" d="M2214.4,-72C2222.39,-72 2231.31,-72 2239.82,-72"/>
<polygon fill="black" stroke="black" points="2239.92,-75.5001 2249.92,-72 2239.92,-68.5001 2239.92,-75.5001"/>
</g>
<!-- 3227288543296&#45;&gt;3227288545744 -->
<g id="edge21" class="edge"><title>3227288543296&#45;&gt;3227288545744</title>
<path fill="none" stroke="black" d="M2754.4,-72C2762.39,-72 2771.31,-72 2779.82,-72"/>
<polygon fill="black" stroke="black" points="2779.92,-75.5001 2789.92,-72 2779.92,-68.5001 2779.92,-75.5001"/>
</g>
<!-- 3227288868032&#45;&gt;3227288868272 -->
<g id="edge23" class="edge"><title>3227288868032&#45;&gt;3227288868272</title>
<path fill="none" stroke="black" d="M1494.4,-41.3C1502.39,-41.3908 1511.31,-41.4922 1519.82,-41.5889"/>
<polygon fill="black" stroke="black" points="1519.88,-45.0897 1529.92,-41.7036 1519.96,-38.0901 1519.88,-45.0897"/>
</g>
<!-- 3227288544208&#45;&gt;3227288543536 -->
<g id="edge24" class="edge"><title>3227288544208&#45;&gt;3227288543536</title>
<path fill="none" stroke="black" d="M2574.4,-72C2582.39,-72 2591.31,-72 2599.82,-72"/>
<polygon fill="black" stroke="black" points="2599.92,-75.5001 2609.92,-72 2599.92,-68.5001 2599.92,-75.5001"/>
</g>
<!-- 3227307301040&#45;&gt;3227288870816 -->
<g id="edge25" class="edge"><title>3227307301040&#45;&gt;3227288870816</title>
<path fill="none" stroke="black" d="M594.403,-62C602.393,-62 611.311,-62 619.824,-62"/>
<polygon fill="black" stroke="black" points="619.919,-65.5001 629.919,-62 619.919,-58.5001 619.919,-65.5001"/>
</g>
<!-- 3227288868176&#45;&gt;3227288869088 -->
<g id="edge26" class="edge"><title>3227288868176&#45;&gt;3227288869088</title>
<path fill="none" stroke="black" d="M1674.4,-43.5002C1682.39,-43.9542 1691.31,-44.4608 1699.82,-44.9445"/>
<polygon fill="black" stroke="black" points="1699.74,-48.4451 1709.92,-45.5181 1700.13,-41.4564 1699.74,-48.4451"/>
</g>
<!-- 3227288868992&#45;&gt;3227288869904 -->
<g id="edge27" class="edge"><title>3227288868992&#45;&gt;3227288869904</title>
<path fill="none" stroke="black" d="M1133.5,-67.1579C1163.99,-73.3247 1215.23,-83.6876 1249.81,-90.6808"/>
<polygon fill="black" stroke="black" points="1249.47,-94.1827 1259.97,-92.7346 1250.86,-87.3216 1249.47,-94.1827"/>
</g>
<!-- 3227288868992&#45;&gt;3227288869472 -->
<g id="edge28" class="edge"><title>3227288868992&#45;&gt;3227288869472</title>
<path fill="none" stroke="black" d="M1133.45,-55.3474C1141.79,-53.1689 1151.21,-50.7064 1160.16,-48.366"/>
<polygon fill="black" stroke="black" points="1161.2,-51.7122 1169.99,-45.7972 1159.43,-44.9397 1161.2,-51.7122"/>
</g>
<!-- 3227288868368&#45;&gt;3227288870432 -->
<g id="edge29" class="edge"><title>3227288868368&#45;&gt;3227288870432</title>
<path fill="none" stroke="black" d="M1854.4,-72C1862.39,-72 1871.31,-72 1879.82,-72"/>
<polygon fill="black" stroke="black" points="1879.92,-75.5001 1889.92,-72 1879.92,-68.5001 1879.92,-75.5001"/>
</g>
<!-- 3227288870000&#45;&gt;3227307302336 -->
<g id="edge30" class="edge"><title>3227288870000&#45;&gt;3227307302336</title>
<path fill="none" stroke="black" d="M234.403,-62C242.393,-62 251.311,-62 259.824,-62"/>
<polygon fill="black" stroke="black" points="259.919,-65.5001 269.919,-62 259.919,-58.5001 259.919,-65.5001"/>
</g>
</g>
</svg>
